<?xml version="1.0" encoding="UTF-8" standalone="no"?>
<!DOCTYPE svg PUBLIC "-//W3C//DTD SVG 1.1//EN"
 "http://www.w3.org/Graphics/SVG/1.1/DTD/svg11.dtd">
<!-- Generated by graphviz version 2.43.0 (0)
 -->
<!-- Title: MCP23017Encoders.hpp Pages: 1 -->
<svg width="1597pt" height="789pt"
 viewBox="0.00 0.00 1597.00 789.00" xmlns="http://www.w3.org/2000/svg" xmlns:xlink="http://www.w3.org/1999/xlink">
<g id="graph0" class="graph" transform="scale(1 1) rotate(0) translate(4 785)">
<title>MCP23017Encoders.hpp</title>
<polygon fill="white" stroke="transparent" points="-4,4 -4,-785 1593,-785 1593,4 -4,4"/>
<!-- Node1 -->
<g id="node1" class="node">
<title>Node1</title>
<g id="a_node1"><a xlink:title=" ">
<polygon fill="#bfbfbf" stroke="black" points="142,-761.5 142,-780.5 276,-780.5 276,-761.5 142,-761.5"/>
<text text-anchor="middle" x="209" y="-768.5" font-family="Helvetica,sans-Serif" font-size="10.00">MCP23017Encoders.hpp</text>
</a>
</g>
</g>
<!-- Node2 -->
<g id="node2" class="node">
<title>Node2</title>
<g id="a_node2"><a xlink:href="../../dc/dc7/NamespaceSettings_8hpp.html" target="_top" xlink:title=" ">
<polygon fill="white" stroke="black" points="526.5,-56.5 526.5,-75.5 721.5,-75.5 721.5,-56.5 526.5,-56.5"/>
<text text-anchor="middle" x="624" y="-63.5" font-family="Helvetica,sans-Serif" font-size="10.00">AH/Settings/NamespaceSettings.hpp</text>
</a>
</g>
</g>
<!-- Node1&#45;&gt;Node2 -->
<g id="edge1" class="edge">
<title>Node1&#45;&gt;Node2</title>
<path fill="none" stroke="midnightblue" d="M155.45,-761.47C93.52,-748.2 0,-716.13 0,-643.5 0,-643.5 0,-643.5 0,-233 0,-159.11 47.52,-144.24 114,-112 149.18,-94.94 376.97,-80.07 515.96,-72.44"/>
<polygon fill="midnightblue" stroke="midnightblue" points="516.42,-75.92 526.22,-71.88 516.04,-68.93 516.42,-75.92"/>
</g>
<!-- Node3 -->
<g id="node3" class="node">
<title>Node3</title>
<g id="a_node3"><a xlink:href="../../d1/d65/Warnings_8hpp.html" target="_top" xlink:title=" ">
<polygon fill="white" stroke="black" points="969.5,-0.5 969.5,-19.5 1112.5,-19.5 1112.5,-0.5 969.5,-0.5"/>
<text text-anchor="middle" x="1041" y="-7.5" font-family="Helvetica,sans-Serif" font-size="10.00">AH/Settings/Warnings.hpp</text>
</a>
</g>
</g>
<!-- Node1&#45;&gt;Node3 -->
<g id="edge2" class="edge">
<title>Node1&#45;&gt;Node3</title>
<path fill="none" stroke="midnightblue" d="M276.03,-767.41C552.39,-756.31 1589,-710.23 1589,-643.5 1589,-643.5 1589,-643.5 1589,-121 1589,-87.98 1580.69,-74 1553,-56 1517.86,-33.16 1258.59,-19.61 1123.05,-14.01"/>
<polygon fill="midnightblue" stroke="midnightblue" points="1122.85,-10.5 1112.72,-13.59 1122.57,-17.5 1122.85,-10.5"/>
</g>
<!-- Node4 -->
<g id="node4" class="node">
<title>Node4</title>
<g id="a_node4"><a xlink:href="../../d6/ddf/Arduino-Wrapper_8h.html" target="_top" xlink:title=" ">
<polygon fill="white" stroke="black" points="268,-168.5 268,-187.5 392,-187.5 392,-168.5 268,-168.5"/>
<text text-anchor="middle" x="330" y="-175.5" font-family="Helvetica,sans-Serif" font-size="10.00">AH/Arduino&#45;Wrapper.h</text>
</a>
</g>
</g>
<!-- Node1&#45;&gt;Node4 -->
<g id="edge3" class="edge">
<title>Node1&#45;&gt;Node4</title>
<path fill="none" stroke="midnightblue" d="M175.22,-761.49C125.38,-746.68 38,-711.08 38,-643.5 38,-643.5 38,-643.5 38,-457 38,-314.99 221.41,-223.46 297.51,-191.59"/>
<polygon fill="midnightblue" stroke="midnightblue" points="299.17,-194.7 307.09,-187.66 296.51,-188.22 299.17,-194.7"/>
</g>
<!-- Node9 -->
<g id="node9" class="node">
<title>Node9</title>
<g id="a_node9"><a xlink:href="../../dd/ddf/ExtendedInputOutput_8hpp.html" target="_top" xlink:title=" ">
<polygon fill="white" stroke="black" points="700.5,-694.5 700.5,-724.5 877.5,-724.5 877.5,-694.5 700.5,-694.5"/>
<text text-anchor="start" x="708.5" y="-712.5" font-family="Helvetica,sans-Serif" font-size="10.00">AH/Hardware/ExtendedInput</text>
<text text-anchor="middle" x="789" y="-701.5" font-family="Helvetica,sans-Serif" font-size="10.00">Output/ExtendedInputOutput.hpp</text>
</a>
</g>
</g>
<!-- Node1&#45;&gt;Node9 -->
<g id="edge12" class="edge">
<title>Node1&#45;&gt;Node9</title>
<path fill="none" stroke="midnightblue" d="M276.1,-763.12C377.95,-752.67 572.15,-732.75 690.17,-720.64"/>
<polygon fill="midnightblue" stroke="midnightblue" points="690.7,-724.1 700.29,-719.6 689.99,-717.14 690.7,-724.1"/>
</g>
<!-- Node30 -->
<g id="node30" class="node">
<title>Node30</title>
<g id="a_node30"><a xlink:href="../../dd/ddf/RegisterEncoders_8hpp.html" target="_top" xlink:title=" ">
<polygon fill="white" stroke="black" points="114,-566 114,-585 304,-585 304,-566 114,-566"/>
<text text-anchor="middle" x="209" y="-573" font-family="Helvetica,sans-Serif" font-size="10.00">AH/Hardware/RegisterEncoders.hpp</text>
</a>
</g>
</g>
<!-- Node1&#45;&gt;Node30 -->
<g id="edge58" class="edge">
<title>Node1&#45;&gt;Node30</title>
<path fill="none" stroke="midnightblue" d="M209,-761.44C209,-732.29 209,-636.47 209,-595.43"/>
<polygon fill="midnightblue" stroke="midnightblue" points="212.5,-595.41 209,-585.41 205.5,-595.41 212.5,-595.41"/>
</g>
<!-- Node5 -->
<g id="node5" class="node">
<title>Node5</title>
<g id="a_node5"><a xlink:href="../../d7/d79/MinMaxFix_8hpp.html" target="_top" xlink:title=" ">
<polygon fill="white" stroke="black" points="306,-112.5 306,-131.5 442,-131.5 442,-112.5 306,-112.5"/>
<text text-anchor="middle" x="374" y="-119.5" font-family="Helvetica,sans-Serif" font-size="10.00">AH/Math/MinMaxFix.hpp</text>
</a>
</g>
</g>
<!-- Node4&#45;&gt;Node5 -->
<g id="edge4" class="edge">
<title>Node4&#45;&gt;Node5</title>
<path fill="none" stroke="midnightblue" d="M337.27,-168.08C343.54,-160.38 352.79,-149.03 360.43,-139.65"/>
<polygon fill="midnightblue" stroke="midnightblue" points="363.27,-141.71 366.87,-131.75 357.84,-137.29 363.27,-141.71"/>
</g>
<!-- Node7 -->
<g id="node7" class="node">
<title>Node7</title>
<g id="a_node7"><a xlink:title=" ">
<polygon fill="white" stroke="#bfbfbf" points="260.5,-0.5 260.5,-19.5 323.5,-19.5 323.5,-0.5 260.5,-0.5"/>
<text text-anchor="middle" x="292" y="-7.5" font-family="Helvetica,sans-Serif" font-size="10.00">Arduino.h</text>
</a>
</g>
</g>
<!-- Node4&#45;&gt;Node7 -->
<g id="edge11" class="edge">
<title>Node4&#45;&gt;Node7</title>
<path fill="none" stroke="midnightblue" d="M320.36,-168.46C303.05,-152.41 267.29,-115.75 254,-76 251.18,-67.57 250.95,-64.35 254,-56 258.06,-44.91 266.19,-34.67 273.89,-26.76"/>
<polygon fill="midnightblue" stroke="midnightblue" points="276.47,-29.14 281.29,-19.7 271.64,-24.07 276.47,-29.14"/>
</g>
<!-- Node8 -->
<g id="node8" class="node">
<title>Node8</title>
<g id="a_node8"><a xlink:title=" ">
<polygon fill="white" stroke="#bfbfbf" points="142.5,-112.5 142.5,-131.5 249.5,-131.5 249.5,-112.5 142.5,-112.5"/>
<text text-anchor="middle" x="196" y="-119.5" font-family="Helvetica,sans-Serif" font-size="10.00">AH/STL/type_traits</text>
</a>
</g>
</g>
<!-- Node4&#45;&gt;Node8 -->
<g id="edge10" class="edge">
<title>Node4&#45;&gt;Node8</title>
<path fill="none" stroke="midnightblue" d="M308.77,-168.44C286.62,-159.52 251.68,-145.44 226.56,-135.32"/>
<polygon fill="midnightblue" stroke="midnightblue" points="227.72,-132.01 217.13,-131.52 225.1,-138.5 227.72,-132.01"/>
</g>
<!-- Node5&#45;&gt;Node2 -->
<g id="edge9" class="edge">
<title>Node5&#45;&gt;Node2</title>
<path fill="none" stroke="midnightblue" d="M413.61,-112.44C457.23,-103.02 527.4,-87.87 574.58,-77.68"/>
<polygon fill="midnightblue" stroke="midnightblue" points="575.54,-81.05 584.57,-75.52 574.06,-74.21 575.54,-81.05"/>
</g>
<!-- Node5&#45;&gt;Node3 -->
<g id="edge5" class="edge">
<title>Node5&#45;&gt;Node3</title>
<path fill="none" stroke="midnightblue" d="M393.4,-112.47C413.77,-103.48 446.7,-88.89 475,-76 494.18,-67.27 497.63,-61.43 518,-56 598.94,-34.42 833.32,-20.63 959.04,-14.57"/>
<polygon fill="midnightblue" stroke="midnightblue" points="959.56,-18.05 969.38,-14.07 959.22,-11.05 959.56,-18.05"/>
</g>
<!-- Node6 -->
<g id="node6" class="node">
<title>Node6</title>
<g id="a_node6"><a xlink:href="../../d6/d3b/FixArduinoMacros_8hpp.html" target="_top" xlink:title=" ">
<polygon fill="white" stroke="black" points="263,-56.5 263,-75.5 433,-75.5 433,-56.5 263,-56.5"/>
<text text-anchor="middle" x="348" y="-63.5" font-family="Helvetica,sans-Serif" font-size="10.00">AH/Math/FixArduinoMacros.hpp</text>
</a>
</g>
</g>
<!-- Node5&#45;&gt;Node6 -->
<g id="edge6" class="edge">
<title>Node5&#45;&gt;Node6</title>
<path fill="none" stroke="midnightblue" d="M369.71,-112.08C366.15,-104.69 360.98,-93.95 356.58,-84.81"/>
<polygon fill="midnightblue" stroke="midnightblue" points="359.71,-83.24 352.21,-75.75 353.4,-86.28 359.71,-83.24"/>
</g>
<!-- Node6&#45;&gt;Node3 -->
<g id="edge7" class="edge">
<title>Node6&#45;&gt;Node3</title>
<path fill="none" stroke="midnightblue" d="M433.05,-57.19C437.77,-56.78 442.44,-56.38 447,-56 629.83,-40.77 844.5,-25.04 959.1,-16.81"/>
<polygon fill="midnightblue" stroke="midnightblue" points="959.47,-20.3 969.2,-16.09 958.97,-13.31 959.47,-20.3"/>
</g>
<!-- Node6&#45;&gt;Node7 -->
<g id="edge8" class="edge">
<title>Node6&#45;&gt;Node7</title>
<path fill="none" stroke="midnightblue" d="M339,-56.32C330.81,-48.42 318.49,-36.55 308.53,-26.94"/>
<polygon fill="midnightblue" stroke="midnightblue" points="310.79,-24.26 301.16,-19.83 305.93,-29.29 310.79,-24.26"/>
</g>
<!-- Node9&#45;&gt;Node2 -->
<g id="edge56" class="edge">
<title>Node9&#45;&gt;Node2</title>
<path fill="none" stroke="midnightblue" d="M772.87,-694.1C762.24,-684.33 748.27,-670.88 737,-658 718.14,-636.46 438.98,-271.19 430,-244 402.58,-160.99 525.07,-103.03 588.28,-79.17"/>
<polygon fill="midnightblue" stroke="midnightblue" points="589.71,-82.37 597.89,-75.63 587.3,-75.8 589.71,-82.37"/>
</g>
<!-- Node9&#45;&gt;Node3 -->
<g id="edge57" class="edge">
<title>Node9&#45;&gt;Node3</title>
<path fill="none" stroke="midnightblue" d="M877.53,-702.32C1078.32,-687.13 1551,-644.18 1551,-576.5 1551,-576.5 1551,-576.5 1551,-121 1551,-90.9 1555.23,-75.13 1532,-56 1501.15,-30.59 1253.99,-18.31 1122.56,-13.52"/>
<polygon fill="midnightblue" stroke="midnightblue" points="1122.64,-10.02 1112.52,-13.16 1122.39,-17.02 1122.64,-10.02"/>
</g>
<!-- Node10 -->
<g id="node10" class="node">
<title>Node10</title>
<g id="a_node10"><a xlink:href="../../d2/d3c/Arduino-Hardware-Types_8hpp.html" target="_top" xlink:title=" ">
<polygon fill="white" stroke="black" points="978,-627.5 978,-657.5 1100,-657.5 1100,-627.5 978,-627.5"/>
<text text-anchor="start" x="986" y="-645.5" font-family="Helvetica,sans-Serif" font-size="10.00">AH/Hardware/Arduino</text>
<text text-anchor="middle" x="1039" y="-634.5" font-family="Helvetica,sans-Serif" font-size="10.00">&#45;Hardware&#45;Types.hpp</text>
</a>
</g>
</g>
<!-- Node9&#45;&gt;Node10 -->
<g id="edge13" class="edge">
<title>Node9&#45;&gt;Node10</title>
<path fill="none" stroke="midnightblue" d="M842.94,-694.48C881.66,-684.41 934,-670.8 974.87,-660.17"/>
<polygon fill="midnightblue" stroke="midnightblue" points="975.93,-663.51 984.73,-657.61 974.17,-656.74 975.93,-663.51"/>
</g>
<!-- Node29 -->
<g id="node29" class="node">
<title>Node29</title>
<g id="a_node29"><a xlink:title=" ">
<polygon fill="white" stroke="#bfbfbf" points="745.5,-633 745.5,-652 832.5,-652 832.5,-633 745.5,-633"/>
<text text-anchor="middle" x="789" y="-640" font-family="Helvetica,sans-Serif" font-size="10.00">AH/STL/climits</text>
</a>
</g>
</g>
<!-- Node9&#45;&gt;Node29 -->
<g id="edge55" class="edge">
<title>Node9&#45;&gt;Node29</title>
<path fill="none" stroke="midnightblue" d="M789,-694.4C789,-685.06 789,-672.71 789,-662.52"/>
<polygon fill="midnightblue" stroke="midnightblue" points="792.5,-662.19 789,-652.19 785.5,-662.19 792.5,-662.19"/>
</g>
<!-- Node10&#45;&gt;Node3 -->
<g id="edge14" class="edge">
<title>Node10&#45;&gt;Node3</title>
<path fill="none" stroke="midnightblue" d="M1100.03,-634.39C1168.17,-622.66 1269,-592.24 1269,-515 1269,-515 1269,-515 1269,-121 1269,-53.91 1187.92,-27.71 1122.46,-17.5"/>
<polygon fill="midnightblue" stroke="midnightblue" points="1122.92,-14.03 1112.52,-16.05 1121.91,-20.96 1122.92,-14.03"/>
</g>
<!-- Node10&#45;&gt;Node4 -->
<g id="edge54" class="edge">
<title>Node10&#45;&gt;Node4</title>
<path fill="none" stroke="midnightblue" d="M977.75,-634.55C819.88,-616.13 408.19,-564.68 362,-524 339.32,-504.02 342,-489.23 342,-459 342,-459 342,-459 342,-289 342,-256.76 336.84,-219.51 333.29,-197.68"/>
<polygon fill="midnightblue" stroke="midnightblue" points="336.69,-196.8 331.57,-187.52 329.79,-197.97 336.69,-196.8"/>
</g>
<!-- Node11 -->
<g id="node11" class="node">
<title>Node11</title>
<g id="a_node11"><a xlink:href="../../d4/d35/Hardware-Types_8hpp.html" target="_top" xlink:title=" ">
<polygon fill="white" stroke="black" points="973.5,-560.5 973.5,-590.5 1104.5,-590.5 1104.5,-560.5 973.5,-560.5"/>
<text text-anchor="start" x="981.5" y="-578.5" font-family="Helvetica,sans-Serif" font-size="10.00">AH/Hardware/Hardware</text>
<text text-anchor="middle" x="1039" y="-567.5" font-family="Helvetica,sans-Serif" font-size="10.00">&#45;Types.hpp</text>
</a>
</g>
</g>
<!-- Node10&#45;&gt;Node11 -->
<g id="edge15" class="edge">
<title>Node10&#45;&gt;Node11</title>
<path fill="none" stroke="midnightblue" d="M1039,-627.4C1039,-619.64 1039,-609.81 1039,-600.86"/>
<polygon fill="midnightblue" stroke="midnightblue" points="1042.5,-600.58 1039,-590.58 1035.5,-600.58 1042.5,-600.58"/>
</g>
<!-- Node26 -->
<g id="node26" class="node">
<title>Node26</title>
<g id="a_node26"><a xlink:href="../../d0/db1/FunctionTraits_8hpp.html" target="_top" xlink:title=" ">
<polygon fill="white" stroke="black" points="1297.5,-112.5 1297.5,-131.5 1450.5,-131.5 1450.5,-112.5 1297.5,-112.5"/>
<text text-anchor="middle" x="1374" y="-119.5" font-family="Helvetica,sans-Serif" font-size="10.00">AH/Types/FunctionTraits.hpp</text>
</a>
</g>
</g>
<!-- Node10&#45;&gt;Node26 -->
<g id="edge49" class="edge">
<title>Node10&#45;&gt;Node26</title>
<path fill="none" stroke="midnightblue" d="M1100.11,-641.83C1188.36,-638.75 1341,-618.46 1341,-515 1341,-515 1341,-515 1341,-233 1341,-199.25 1355.43,-162.03 1365.21,-140.69"/>
<polygon fill="midnightblue" stroke="midnightblue" points="1368.41,-142.11 1369.55,-131.58 1362.09,-139.1 1368.41,-142.11"/>
</g>
<!-- Node11&#45;&gt;Node2 -->
<g id="edge47" class="edge">
<title>Node11&#45;&gt;Node2</title>
<path fill="none" stroke="midnightblue" d="M1071.16,-560.48C1106.7,-542.55 1159,-507.87 1159,-459 1159,-459 1159,-459 1159,-401 1159,-230.87 1068.11,-169.52 908,-112 851.61,-91.74 785.66,-80.59 731.52,-74.45"/>
<polygon fill="midnightblue" stroke="midnightblue" points="731.88,-70.97 721.55,-73.37 731.12,-77.93 731.88,-70.97"/>
</g>
<!-- Node11&#45;&gt;Node3 -->
<g id="edge16" class="edge">
<title>Node11&#45;&gt;Node3</title>
<path fill="none" stroke="midnightblue" d="M1104.54,-563.04C1160.16,-549.11 1231,-519.49 1231,-459 1231,-459 1231,-459 1231,-121 1231,-62.69 1163.15,-34.79 1108.54,-21.78"/>
<polygon fill="midnightblue" stroke="midnightblue" points="1109.05,-18.3 1098.52,-19.52 1107.51,-25.13 1109.05,-18.3"/>
</g>
<!-- Node12 -->
<g id="node12" class="node">
<title>Node12</title>
<g id="a_node12"><a xlink:href="../../de/d76/Array_8hpp.html" target="_top" xlink:title=" ">
<polygon fill="white" stroke="black" points="370.5,-504.5 370.5,-523.5 505.5,-523.5 505.5,-504.5 370.5,-504.5"/>
<text text-anchor="middle" x="438" y="-511.5" font-family="Helvetica,sans-Serif" font-size="10.00">AH/Containers/Array.hpp</text>
</a>
</g>
</g>
<!-- Node11&#45;&gt;Node12 -->
<g id="edge17" class="edge">
<title>Node11&#45;&gt;Node12</title>
<path fill="none" stroke="midnightblue" d="M973.19,-568.59C875.75,-559.74 687.08,-542.24 515.57,-524.04"/>
<polygon fill="midnightblue" stroke="midnightblue" points="515.91,-520.56 505.6,-522.98 515.17,-527.52 515.91,-520.56"/>
</g>
<!-- Node15 -->
<g id="node15" class="node">
<title>Node15</title>
<g id="a_node15"><a xlink:href="../../dd/d80/PrintStream_8hpp.html" target="_top" xlink:title=" ">
<polygon fill="white" stroke="black" points="446.5,-224.5 446.5,-243.5 619.5,-243.5 619.5,-224.5 446.5,-224.5"/>
<text text-anchor="middle" x="533" y="-231.5" font-family="Helvetica,sans-Serif" font-size="10.00">AH/PrintStream/PrintStream.hpp</text>
</a>
</g>
</g>
<!-- Node11&#45;&gt;Node15 -->
<g id="edge45" class="edge">
<title>Node11&#45;&gt;Node15</title>
<path fill="none" stroke="midnightblue" d="M1034.88,-560.37C1019.92,-511.81 963.48,-350.88 854,-280 835.32,-267.91 717.21,-253.58 629.65,-244.4"/>
<polygon fill="midnightblue" stroke="midnightblue" points="629.98,-240.91 619.67,-243.36 629.25,-247.87 629.98,-240.91"/>
</g>
<!-- Node22 -->
<g id="node22" class="node">
<title>Node22</title>
<g id="a_node22"><a xlink:title=" ">
<polygon fill="white" stroke="#bfbfbf" points="1035.5,-224.5 1035.5,-243.5 1088.5,-243.5 1088.5,-224.5 1035.5,-224.5"/>
<text text-anchor="middle" x="1062" y="-231.5" font-family="Helvetica,sans-Serif" font-size="10.00">stdint.h</text>
</a>
</g>
</g>
<!-- Node11&#45;&gt;Node22 -->
<g id="edge48" class="edge">
<title>Node11&#45;&gt;Node22</title>
<path fill="none" stroke="midnightblue" d="M1048.33,-560.22C1061.25,-539.03 1083,-497.62 1083,-459 1083,-459 1083,-459 1083,-345 1083,-312.38 1073.98,-275.28 1067.77,-253.57"/>
<polygon fill="midnightblue" stroke="midnightblue" points="1071.04,-252.32 1064.83,-243.73 1064.33,-254.32 1071.04,-252.32"/>
</g>
<!-- Node25 -->
<g id="node25" class="node">
<title>Node25</title>
<g id="a_node25"><a xlink:title=" ">
<polygon fill="white" stroke="#bfbfbf" points="524,-504.5 524,-523.5 606,-523.5 606,-504.5 524,-504.5"/>
<text text-anchor="middle" x="565" y="-511.5" font-family="Helvetica,sans-Serif" font-size="10.00">AH/STL/limits</text>
</a>
</g>
</g>
<!-- Node11&#45;&gt;Node25 -->
<g id="edge46" class="edge">
<title>Node11&#45;&gt;Node25</title>
<path fill="none" stroke="midnightblue" d="M973.09,-566.23C877.64,-554.24 702.9,-532.31 616.36,-521.45"/>
<polygon fill="midnightblue" stroke="midnightblue" points="616.61,-517.95 606.25,-520.18 615.74,-524.9 616.61,-517.95"/>
</g>
<!-- Node12&#45;&gt;Node3 -->
<g id="edge18" class="edge">
<title>Node12&#45;&gt;Node3</title>
<path fill="none" stroke="midnightblue" d="M416.25,-504.49C398.12,-496.72 372.24,-484.03 353,-468 210.26,-349.11 10.51,-250.77 134,-112 179.81,-60.52 376.82,-98.37 442,-76 458.22,-70.43 458.68,-61.27 475,-56 562.77,-27.68 824.64,-16.72 959.2,-12.87"/>
<polygon fill="midnightblue" stroke="midnightblue" points="959.55,-16.36 969.45,-12.58 959.35,-9.36 959.55,-16.36"/>
</g>
<!-- Node12&#45;&gt;Node8 -->
<g id="edge43" class="edge">
<title>Node12&#45;&gt;Node8</title>
<path fill="none" stroke="midnightblue" d="M421.06,-504.37C406.82,-496.44 386.66,-483.59 373,-468 279.39,-361.2 219.86,-196.13 201.81,-141.36"/>
<polygon fill="midnightblue" stroke="midnightblue" points="205.09,-140.1 198.68,-131.66 198.43,-142.25 205.09,-140.1"/>
</g>
<!-- Node13 -->
<g id="node13" class="node">
<title>Node13</title>
<g id="a_node13"><a xlink:href="../../d1/d93/Error_8hpp.html" target="_top" xlink:title=" ">
<polygon fill="white" stroke="black" points="736,-448.5 736,-467.5 840,-467.5 840,-448.5 736,-448.5"/>
<text text-anchor="middle" x="788" y="-455.5" font-family="Helvetica,sans-Serif" font-size="10.00">AH/Error/Error.hpp</text>
</a>
</g>
</g>
<!-- Node12&#45;&gt;Node13 -->
<g id="edge19" class="edge">
<title>Node12&#45;&gt;Node13</title>
<path fill="none" stroke="midnightblue" d="M493.46,-504.44C556.67,-494.69 659.75,-478.79 725.69,-468.61"/>
<polygon fill="midnightblue" stroke="midnightblue" points="726.59,-472.02 735.94,-467.03 725.53,-465.1 726.59,-472.02"/>
</g>
<!-- Node21 -->
<g id="node21" class="node">
<title>Node21</title>
<g id="a_node21"><a xlink:title=" ">
<polygon fill="white" stroke="#bfbfbf" points="638,-224.5 638,-243.5 694,-243.5 694,-224.5 638,-224.5"/>
<text text-anchor="middle" x="666" y="-231.5" font-family="Helvetica,sans-Serif" font-size="10.00">stddef.h</text>
</a>
</g>
</g>
<!-- Node12&#45;&gt;Node21 -->
<g id="edge44" class="edge">
<title>Node12&#45;&gt;Node21</title>
<path fill="none" stroke="midnightblue" d="M448.7,-504.45C458.45,-496.12 472.57,-482.6 481,-468 496.05,-441.93 500,-433.1 500,-403 500,-403 500,-403 500,-345 500,-312.66 588.68,-268.83 636.41,-247.58"/>
<polygon fill="midnightblue" stroke="midnightblue" points="637.9,-250.75 645.65,-243.53 635.08,-244.34 637.9,-250.75"/>
</g>
<!-- Node24 -->
<g id="node24" class="node">
<title>Node24</title>
<g id="a_node24"><a xlink:title=" ">
<polygon fill="white" stroke="#bfbfbf" points="382,-448.5 382,-467.5 472,-467.5 472,-448.5 382,-448.5"/>
<text text-anchor="middle" x="427" y="-455.5" font-family="Helvetica,sans-Serif" font-size="10.00">AH/STL/iterator</text>
</a>
</g>
</g>
<!-- Node12&#45;&gt;Node24 -->
<g id="edge42" class="edge">
<title>Node12&#45;&gt;Node24</title>
<path fill="none" stroke="midnightblue" d="M436.18,-504.08C434.73,-496.93 432.63,-486.64 430.81,-477.69"/>
<polygon fill="midnightblue" stroke="midnightblue" points="434.21,-476.85 428.78,-467.75 427.35,-478.25 434.21,-476.85"/>
</g>
<!-- Node13&#45;&gt;Node3 -->
<g id="edge20" class="edge">
<title>Node13&#45;&gt;Node3</title>
<path fill="none" stroke="midnightblue" d="M840.12,-452.52C949.5,-439.97 1193,-394.16 1193,-235 1193,-235 1193,-235 1193,-121 1193,-67.44 1130.29,-37.3 1085.43,-22.59"/>
<polygon fill="midnightblue" stroke="midnightblue" points="1086.46,-19.25 1075.87,-19.6 1084.37,-25.93 1086.46,-19.25"/>
</g>
<!-- Node14 -->
<g id="node14" class="node">
<title>Node14</title>
<g id="a_node14"><a xlink:href="../../df/dee/Debug_8hpp.html" target="_top" xlink:title=" ">
<polygon fill="white" stroke="black" points="727.5,-392.5 727.5,-411.5 848.5,-411.5 848.5,-392.5 727.5,-392.5"/>
<text text-anchor="middle" x="788" y="-399.5" font-family="Helvetica,sans-Serif" font-size="10.00">AH/Debug/Debug.hpp</text>
</a>
</g>
</g>
<!-- Node13&#45;&gt;Node14 -->
<g id="edge21" class="edge">
<title>Node13&#45;&gt;Node14</title>
<path fill="none" stroke="midnightblue" d="M788,-448.08C788,-441.01 788,-430.86 788,-421.99"/>
<polygon fill="midnightblue" stroke="midnightblue" points="791.5,-421.75 788,-411.75 784.5,-421.75 791.5,-421.75"/>
</g>
<!-- Node14&#45;&gt;Node3 -->
<g id="edge22" class="edge">
<title>Node14&#45;&gt;Node3</title>
<path fill="none" stroke="midnightblue" d="M833.4,-392.46C923.65,-372.59 1117,-314.23 1117,-179 1117,-179 1117,-179 1117,-121 1117,-81.28 1083.04,-45.5 1060.52,-26.15"/>
<polygon fill="midnightblue" stroke="midnightblue" points="1062.48,-23.24 1052.54,-19.57 1058.02,-28.63 1062.48,-23.24"/>
</g>
<!-- Node14&#45;&gt;Node15 -->
<g id="edge23" class="edge">
<title>Node14&#45;&gt;Node15</title>
<path fill="none" stroke="midnightblue" d="M765.48,-392.36C745.13,-384.17 714.68,-370.91 690,-356 635.82,-323.26 578.43,-275.09 550.42,-250.57"/>
<polygon fill="midnightblue" stroke="midnightblue" points="552.53,-247.76 542.71,-243.77 547.9,-253.01 552.53,-247.76"/>
</g>
<!-- Node16 -->
<g id="node16" class="node">
<title>Node16</title>
<g id="a_node16"><a xlink:href="../../d2/dd5/SettingsWrapper_8hpp.html" target="_top" xlink:title=" ">
<polygon fill="white" stroke="black" points="699,-336.5 699,-355.5 877,-355.5 877,-336.5 699,-336.5"/>
<text text-anchor="middle" x="788" y="-343.5" font-family="Helvetica,sans-Serif" font-size="10.00">AH/Settings/SettingsWrapper.hpp</text>
</a>
</g>
</g>
<!-- Node14&#45;&gt;Node16 -->
<g id="edge27" class="edge">
<title>Node14&#45;&gt;Node16</title>
<path fill="none" stroke="midnightblue" d="M782.83,-392.08C781.32,-384.93 780.89,-374.64 781.54,-365.69"/>
<polygon fill="midnightblue" stroke="midnightblue" points="785.02,-366.13 782.87,-355.75 778.08,-365.2 785.02,-366.13"/>
</g>
<!-- Node15&#45;&gt;Node2 -->
<g id="edge24" class="edge">
<title>Node15&#45;&gt;Node2</title>
<path fill="none" stroke="midnightblue" d="M537.89,-224.08C552.34,-197.72 595.01,-119.88 614.32,-84.66"/>
<polygon fill="midnightblue" stroke="midnightblue" points="617.57,-86.02 619.3,-75.57 611.43,-82.65 617.57,-86.02"/>
</g>
<!-- Node15&#45;&gt;Node3 -->
<g id="edge25" class="edge">
<title>Node15&#45;&gt;Node3</title>
<path fill="none" stroke="midnightblue" d="M601.64,-224.46C679.74,-212.56 809.22,-186.05 908,-132 958.68,-104.27 1005.6,-53.39 1027.7,-27.33"/>
<polygon fill="midnightblue" stroke="midnightblue" points="1030.5,-29.43 1034.22,-19.51 1025.13,-24.95 1030.5,-29.43"/>
</g>
<!-- Node15&#45;&gt;Node4 -->
<g id="edge26" class="edge">
<title>Node15&#45;&gt;Node4</title>
<path fill="none" stroke="midnightblue" d="M500.83,-224.44C465.94,-215.16 410.11,-200.31 371.83,-190.13"/>
<polygon fill="midnightblue" stroke="midnightblue" points="372.58,-186.7 362.02,-187.52 370.78,-193.47 372.58,-186.7"/>
</g>
<!-- Node16&#45;&gt;Node2 -->
<g id="edge29" class="edge">
<title>Node16&#45;&gt;Node2</title>
<path fill="none" stroke="midnightblue" d="M728.08,-336.44C637.59,-322.16 472.88,-290.37 438,-244 410.58,-207.55 545.88,-116.25 601.25,-81.1"/>
<polygon fill="midnightblue" stroke="midnightblue" points="603.41,-83.88 610.01,-75.59 599.68,-77.95 603.41,-83.88"/>
</g>
<!-- Node16&#45;&gt;Node3 -->
<g id="edge28" class="edge">
<title>Node16&#45;&gt;Node3</title>
<path fill="none" stroke="midnightblue" d="M864.93,-336.49C913.79,-329.49 970.92,-317.77 988,-300 1025.53,-260.94 1037.27,-87.8 1040.18,-29.92"/>
<polygon fill="midnightblue" stroke="midnightblue" points="1043.68,-29.83 1040.66,-19.68 1036.69,-29.5 1043.68,-29.83"/>
</g>
<!-- Node16&#45;&gt;Node14 -->
<g id="edge41" class="edge">
<title>Node16&#45;&gt;Node14</title>
<path fill="none" stroke="midnightblue" d="M793.13,-355.75C794.66,-362.86 795.1,-373.14 794.47,-382.1"/>
<polygon fill="midnightblue" stroke="midnightblue" points="790.99,-381.71 793.17,-392.08 797.93,-382.62 790.99,-381.71"/>
</g>
<!-- Node17 -->
<g id="node17" class="node">
<title>Node17</title>
<g id="a_node17"><a xlink:href="../../db/d02/Settings_8hpp.html" target="_top" xlink:title="All user settings and debugging options can be changed here.">
<polygon fill="white" stroke="black" points="901.5,-280.5 901.5,-299.5 978.5,-299.5 978.5,-280.5 901.5,-280.5"/>
<text text-anchor="middle" x="940" y="-287.5" font-family="Helvetica,sans-Serif" font-size="10.00">Settings.hpp</text>
</a>
</g>
</g>
<!-- Node16&#45;&gt;Node17 -->
<g id="edge30" class="edge">
<title>Node16&#45;&gt;Node17</title>
<path fill="none" stroke="midnightblue" d="M812.08,-336.44C837.54,-327.4 877.89,-313.06 906.46,-302.92"/>
<polygon fill="midnightblue" stroke="midnightblue" points="907.78,-306.16 916.03,-299.52 905.43,-299.57 907.78,-306.16"/>
</g>
<!-- Node23 -->
<g id="node23" class="node">
<title>Node23</title>
<g id="a_node23"><a xlink:href="../../d9/d98/TeensyUSBTypes_8hpp.html" target="_top" xlink:title=" ">
<polygon fill="white" stroke="black" points="671.5,-280.5 671.5,-299.5 844.5,-299.5 844.5,-280.5 671.5,-280.5"/>
<text text-anchor="middle" x="758" y="-287.5" font-family="Helvetica,sans-Serif" font-size="10.00">AH/Teensy/TeensyUSBTypes.hpp</text>
</a>
</g>
</g>
<!-- Node16&#45;&gt;Node23 -->
<g id="edge40" class="edge">
<title>Node16&#45;&gt;Node23</title>
<path fill="none" stroke="midnightblue" d="M783.05,-336.08C778.9,-328.61 772.85,-317.72 767.73,-308.52"/>
<polygon fill="midnightblue" stroke="midnightblue" points="770.78,-306.79 762.86,-299.75 764.66,-310.19 770.78,-306.79"/>
</g>
<!-- Node18 -->
<g id="node18" class="node">
<title>Node18</title>
<g id="a_node18"><a xlink:href="../../dc/d50/Frequency_8hpp.html" target="_top" xlink:title=" ">
<polygon fill="white" stroke="black" points="765,-112.5 765,-131.5 899,-131.5 899,-112.5 765,-112.5"/>
<text text-anchor="middle" x="832" y="-119.5" font-family="Helvetica,sans-Serif" font-size="10.00">AH/Types/Frequency.hpp</text>
</a>
</g>
</g>
<!-- Node17&#45;&gt;Node18 -->
<g id="edge31" class="edge">
<title>Node17&#45;&gt;Node18</title>
<path fill="none" stroke="midnightblue" d="M944.39,-280.15C950.16,-267.22 958.59,-242.67 950,-224 931.26,-183.29 887.11,-152.87 858.45,-136.53"/>
<polygon fill="midnightblue" stroke="midnightblue" points="859.83,-133.3 849.38,-131.54 856.45,-139.43 859.83,-133.3"/>
</g>
<!-- Node19 -->
<g id="node19" class="node">
<title>Node19</title>
<g id="a_node19"><a xlink:href="../../d7/d7c/ADCConfig_8hpp.html" target="_top" xlink:title="This file contains the platform&#45;specific ADC resolutions.">
<polygon fill="white" stroke="black" points="783.5,-224.5 783.5,-243.5 940.5,-243.5 940.5,-224.5 783.5,-224.5"/>
<text text-anchor="middle" x="862" y="-231.5" font-family="Helvetica,sans-Serif" font-size="10.00">AH/Hardware/ADCConfig.hpp</text>
</a>
</g>
</g>
<!-- Node17&#45;&gt;Node19 -->
<g id="edge34" class="edge">
<title>Node17&#45;&gt;Node19</title>
<path fill="none" stroke="midnightblue" d="M927.47,-280.32C915.41,-271.98 896.97,-259.21 882.73,-249.35"/>
<polygon fill="midnightblue" stroke="midnightblue" points="884.72,-246.47 874.5,-243.65 880.73,-252.22 884.72,-246.47"/>
</g>
<!-- Node20 -->
<g id="node20" class="node">
<title>Node20</title>
<g id="a_node20"><a xlink:title=" ">
<polygon fill="white" stroke="#bfbfbf" points="712.5,-224.5 712.5,-243.5 765.5,-243.5 765.5,-224.5 712.5,-224.5"/>
<text text-anchor="middle" x="739" y="-231.5" font-family="Helvetica,sans-Serif" font-size="10.00">limits.h</text>
</a>
</g>
</g>
<!-- Node17&#45;&gt;Node20 -->
<g id="edge37" class="edge">
<title>Node17&#45;&gt;Node20</title>
<path fill="none" stroke="midnightblue" d="M908.15,-280.44C872.13,-270.77 813.57,-255.03 775.67,-244.85"/>
<polygon fill="midnightblue" stroke="midnightblue" points="776.13,-241.35 765.56,-242.14 774.31,-248.11 776.13,-241.35"/>
</g>
<!-- Node17&#45;&gt;Node21 -->
<g id="edge38" class="edge">
<title>Node17&#45;&gt;Node21</title>
<path fill="none" stroke="midnightblue" d="M901.47,-282.19C854.66,-273.8 773.34,-258.82 704,-244 703.9,-243.98 703.8,-243.96 703.7,-243.94"/>
<polygon fill="midnightblue" stroke="midnightblue" points="704.71,-240.58 694.19,-241.82 703.19,-247.41 704.71,-240.58"/>
</g>
<!-- Node17&#45;&gt;Node22 -->
<g id="edge39" class="edge">
<title>Node17&#45;&gt;Node22</title>
<path fill="none" stroke="midnightblue" d="M959.33,-280.44C979.32,-271.6 1010.74,-257.69 1033.56,-247.59"/>
<polygon fill="midnightblue" stroke="midnightblue" points="1035.03,-250.76 1042.76,-243.52 1032.2,-244.36 1035.03,-250.76"/>
</g>
<!-- Node18&#45;&gt;Node2 -->
<g id="edge33" class="edge">
<title>Node18&#45;&gt;Node2</title>
<path fill="none" stroke="midnightblue" d="M799.04,-112.44C763.21,-103.14 705.84,-88.25 666.61,-78.06"/>
<polygon fill="midnightblue" stroke="midnightblue" points="667.36,-74.64 656.8,-75.52 665.6,-81.42 667.36,-74.64"/>
</g>
<!-- Node18&#45;&gt;Node3 -->
<g id="edge32" class="edge">
<title>Node18&#45;&gt;Node3</title>
<path fill="none" stroke="midnightblue" d="M847.31,-112.41C869.87,-99.79 913.45,-75.63 951,-56 972.03,-45 996.08,-33.01 1014.03,-24.17"/>
<polygon fill="midnightblue" stroke="midnightblue" points="1015.88,-27.16 1023.31,-19.61 1012.79,-20.87 1015.88,-27.16"/>
</g>
<!-- Node19&#45;&gt;Node3 -->
<g id="edge35" class="edge">
<title>Node19&#45;&gt;Node3</title>
<path fill="none" stroke="midnightblue" d="M882.82,-224.35C899.8,-216.59 923.73,-203.97 941,-188 991.04,-141.73 1022.49,-64.56 1034.92,-29.43"/>
<polygon fill="midnightblue" stroke="midnightblue" points="1038.36,-30.18 1038.29,-19.59 1031.74,-27.92 1038.36,-30.18"/>
</g>
<!-- Node19&#45;&gt;Node4 -->
<g id="edge36" class="edge">
<title>Node19&#45;&gt;Node4</title>
<path fill="none" stroke="midnightblue" d="M783.28,-224.85C780.49,-224.56 777.72,-224.28 775,-224 643.66,-210.57 490.5,-195.13 402.43,-186.27"/>
<polygon fill="midnightblue" stroke="midnightblue" points="402.58,-182.77 392.28,-185.25 401.88,-189.74 402.58,-182.77"/>
</g>
<!-- Node26&#45;&gt;Node2 -->
<g id="edge53" class="edge">
<title>Node26&#45;&gt;Node2</title>
<path fill="none" stroke="midnightblue" d="M1297.26,-115.47C1163.05,-105.81 885.4,-85.82 731.9,-74.77"/>
<polygon fill="midnightblue" stroke="midnightblue" points="731.74,-71.25 721.52,-74.02 731.24,-78.23 731.74,-71.25"/>
</g>
<!-- Node26&#45;&gt;Node3 -->
<g id="edge52" class="edge">
<title>Node26&#45;&gt;Node3</title>
<path fill="none" stroke="midnightblue" d="M1364.76,-112.25C1349.21,-98.04 1316.23,-70.13 1283,-56 1232.15,-34.38 1170.93,-23.12 1122.79,-17.27"/>
<polygon fill="midnightblue" stroke="midnightblue" points="1123.06,-13.78 1112.72,-16.1 1122.25,-20.73 1123.06,-13.78"/>
</g>
<!-- Node27 -->
<g id="node27" class="node">
<title>Node27</title>
<g id="a_node27"><a xlink:title=" ">
<polygon fill="white" stroke="#bfbfbf" points="1335,-56.5 1335,-75.5 1425,-75.5 1425,-56.5 1335,-56.5"/>
<text text-anchor="middle" x="1380" y="-63.5" font-family="Helvetica,sans-Serif" font-size="10.00">AH/STL/cstddef</text>
</a>
</g>
</g>
<!-- Node26&#45;&gt;Node27 -->
<g id="edge50" class="edge">
<title>Node26&#45;&gt;Node27</title>
<path fill="none" stroke="midnightblue" d="M1374.99,-112.08C1375.79,-104.93 1376.93,-94.64 1377.92,-85.69"/>
<polygon fill="midnightblue" stroke="midnightblue" points="1381.4,-86.08 1379.03,-75.75 1374.44,-85.3 1381.4,-86.08"/>
</g>
<!-- Node28 -->
<g id="node28" class="node">
<title>Node28</title>
<g id="a_node28"><a xlink:title=" ">
<polygon fill="white" stroke="#bfbfbf" points="1443.5,-56.5 1443.5,-75.5 1522.5,-75.5 1522.5,-56.5 1443.5,-56.5"/>
<text text-anchor="middle" x="1483" y="-63.5" font-family="Helvetica,sans-Serif" font-size="10.00">AH/STL/tuple</text>
</a>
</g>
</g>
<!-- Node26&#45;&gt;Node28 -->
<g id="edge51" class="edge">
<title>Node26&#45;&gt;Node28</title>
<path fill="none" stroke="midnightblue" d="M1391.51,-112.32C1409.07,-103.62 1436.33,-90.12 1456.53,-80.11"/>
<polygon fill="midnightblue" stroke="midnightblue" points="1458.12,-83.23 1465.53,-75.65 1455.02,-76.96 1458.12,-83.23"/>
</g>
<!-- Node30&#45;&gt;Node2 -->
<g id="edge59" class="edge">
<title>Node30&#45;&gt;Node2</title>
<path fill="none" stroke="midnightblue" d="M194.16,-565.8C167.44,-548.89 114,-508.85 114,-459 114,-459 114,-459 114,-177 114,-146.77 110.53,-131.05 134,-112 148.64,-100.12 376.22,-83.22 516.01,-73.87"/>
<polygon fill="midnightblue" stroke="midnightblue" points="516.59,-77.34 526.34,-73.19 516.13,-70.36 516.59,-77.34"/>
</g>
<!-- Node30&#45;&gt;Node3 -->
<g id="edge60" class="edge">
<title>Node30&#45;&gt;Node3</title>
<path fill="none" stroke="midnightblue" d="M186.49,-565.96C167.7,-557.78 141.42,-543.76 125,-524 54.35,-438.99 38,-401.54 38,-291 38,-291 38,-291 38,-233 38,-108.89 132.84,-82.94 254,-56 386.46,-26.55 785.92,-15.72 959.27,-12.34"/>
<polygon fill="midnightblue" stroke="midnightblue" points="959.42,-15.84 969.35,-12.15 959.29,-8.84 959.42,-15.84"/>
</g>
<!-- Node30&#45;&gt;Node4 -->
<g id="edge61" class="edge">
<title>Node30&#45;&gt;Node4</title>
<path fill="none" stroke="midnightblue" d="M215.53,-565.94C236.99,-536.94 304,-439.02 304,-347 304,-347 304,-347 304,-289 304,-255.93 315.27,-218.73 322.97,-197.17"/>
<polygon fill="midnightblue" stroke="midnightblue" points="326.29,-198.27 326.49,-187.68 319.73,-195.83 326.29,-198.27"/>
</g>
<!-- Node30&#45;&gt;Node8 -->
<g id="edge64" class="edge">
<title>Node30&#45;&gt;Node8</title>
<path fill="none" stroke="midnightblue" d="M206.59,-565.89C201.48,-546.8 190,-499.44 190,-459 190,-459 190,-459 190,-233 190,-200.9 192.58,-163.61 194.36,-141.73"/>
<polygon fill="midnightblue" stroke="midnightblue" points="197.86,-141.81 195.22,-131.55 190.89,-141.22 197.86,-141.81"/>
</g>
<!-- Node30&#45;&gt;Node12 -->
<g id="edge62" class="edge">
<title>Node30&#45;&gt;Node12</title>
<path fill="none" stroke="midnightblue" d="M241.81,-565.98C282.2,-555.48 350.88,-537.64 395.33,-526.09"/>
<polygon fill="midnightblue" stroke="midnightblue" points="396.45,-529.41 405.25,-523.51 394.69,-522.64 396.45,-529.41"/>
</g>
<!-- Node30&#45;&gt;Node25 -->
<g id="edge63" class="edge">
<title>Node30&#45;&gt;Node25</title>
<path fill="none" stroke="midnightblue" d="M262.11,-565.98C321.08,-556.46 419.38,-540.43 513.8,-524.19"/>
<polygon fill="midnightblue" stroke="midnightblue" points="514.55,-527.61 523.81,-522.46 513.36,-520.71 514.55,-527.61"/>
</g>
</g>
</svg>
