<?xml version="1.0" encoding="UTF-8" standalone="no"?>
<!DOCTYPE svg PUBLIC "-//W3C//DTD SVG 1.1//EN"
 "http://www.w3.org/Graphics/SVG/1.1/DTD/svg11.dtd">
<!-- Generated by graphviz version 2.43.0 (0)
 -->
<!-- Title: MultiPurposeButton.hpp Pages: 1 -->
<svg width="1028pt" height="845pt"
 viewBox="0.00 0.00 1027.65 845.00" xmlns="http://www.w3.org/2000/svg" xmlns:xlink="http://www.w3.org/1999/xlink">
<g id="graph0" class="graph" transform="scale(1 1) rotate(0) translate(4 841)">
<title>MultiPurposeButton.hpp</title>
<polygon fill="white" stroke="transparent" points="-4,4 -4,-841 1023.65,-841 1023.65,4 -4,4"/>
<!-- Node1 -->
<g id="node1" class="node">
<title>Node1</title>
<g id="a_node1"><a xlink:title=" ">
<polygon fill="#bfbfbf" stroke="black" points="595,-817.5 595,-836.5 729,-836.5 729,-817.5 595,-817.5"/>
<text text-anchor="middle" x="662" y="-824.5" font-family="Helvetica,sans-Serif" font-size="10.00">MultiPurposeButton.hpp</text>
</a>
</g>
</g>
<!-- Node2 -->
<g id="node2" class="node">
<title>Node2</title>
<g id="a_node2"><a xlink:href="../../d4/db3/Button_8hpp.html" target="_top" xlink:title=" ">
<polygon fill="white" stroke="black" points="627,-761.5 627,-780.5 697,-780.5 697,-761.5 627,-761.5"/>
<text text-anchor="middle" x="662" y="-768.5" font-family="Helvetica,sans-Serif" font-size="10.00">Button.hpp</text>
</a>
</g>
</g>
<!-- Node1&#45;&gt;Node2 -->
<g id="edge1" class="edge">
<title>Node1&#45;&gt;Node2</title>
<path fill="none" stroke="midnightblue" d="M662,-817.08C662,-810.01 662,-799.86 662,-790.99"/>
<polygon fill="midnightblue" stroke="midnightblue" points="665.5,-790.75 662,-780.75 658.5,-790.75 665.5,-790.75"/>
</g>
<!-- Node3 -->
<g id="node3" class="node">
<title>Node3</title>
<g id="a_node3"><a xlink:href="../../dd/ddf/ExtendedInputOutput_8hpp.html" target="_top" xlink:title=" ">
<polygon fill="white" stroke="black" points="297.5,-694.5 297.5,-724.5 474.5,-724.5 474.5,-694.5 297.5,-694.5"/>
<text text-anchor="start" x="305.5" y="-712.5" font-family="Helvetica,sans-Serif" font-size="10.00">AH/Hardware/ExtendedInput</text>
<text text-anchor="middle" x="386" y="-701.5" font-family="Helvetica,sans-Serif" font-size="10.00">Output/ExtendedInputOutput.hpp</text>
</a>
</g>
</g>
<!-- Node2&#45;&gt;Node3 -->
<g id="edge2" class="edge">
<title>Node2&#45;&gt;Node3</title>
<path fill="none" stroke="midnightblue" d="M626.76,-762.4C585.17,-753.44 514.85,-738.28 460.92,-726.65"/>
<polygon fill="midnightblue" stroke="midnightblue" points="461.56,-723.21 451.05,-724.52 460.09,-730.05 461.56,-723.21"/>
</g>
<!-- Node17 -->
<g id="node17" class="node">
<title>Node17</title>
<g id="a_node17"><a xlink:href="../../d2/dd5/SettingsWrapper_8hpp.html" target="_top" xlink:title=" ">
<polygon fill="white" stroke="black" points="654,-336.5 654,-355.5 832,-355.5 832,-336.5 654,-336.5"/>
<text text-anchor="middle" x="743" y="-343.5" font-family="Helvetica,sans-Serif" font-size="10.00">AH/Settings/SettingsWrapper.hpp</text>
</a>
</g>
</g>
<!-- Node2&#45;&gt;Node17 -->
<g id="edge43" class="edge">
<title>Node2&#45;&gt;Node17</title>
<path fill="none" stroke="midnightblue" d="M697.05,-763.81C779.92,-748.19 981,-704.05 981,-643.5 981,-643.5 981,-643.5 981,-457 981,-392.27 907.57,-365.51 842.28,-354.51"/>
<polygon fill="midnightblue" stroke="midnightblue" points="842.72,-351.04 832.3,-352.94 841.63,-357.95 842.72,-351.04"/>
</g>
<!-- Node4 -->
<g id="node4" class="node">
<title>Node4</title>
<g id="a_node4"><a xlink:href="../../d2/d3c/Arduino-Hardware-Types_8hpp.html" target="_top" xlink:title=" ">
<polygon fill="white" stroke="black" points="386,-627.5 386,-657.5 508,-657.5 508,-627.5 386,-627.5"/>
<text text-anchor="start" x="394" y="-645.5" font-family="Helvetica,sans-Serif" font-size="10.00">AH/Hardware/Arduino</text>
<text text-anchor="middle" x="447" y="-634.5" font-family="Helvetica,sans-Serif" font-size="10.00">&#45;Hardware&#45;Types.hpp</text>
</a>
</g>
</g>
<!-- Node3&#45;&gt;Node4 -->
<g id="edge3" class="edge">
<title>Node3&#45;&gt;Node4</title>
<path fill="none" stroke="midnightblue" d="M399.24,-694.4C407.31,-685.79 417.79,-674.63 426.87,-664.94"/>
<polygon fill="midnightblue" stroke="midnightblue" points="429.5,-667.26 433.79,-657.58 424.39,-662.47 429.5,-667.26"/>
</g>
<!-- Node15 -->
<g id="node15" class="node">
<title>Node15</title>
<g id="a_node15"><a xlink:href="../../dc/dc7/NamespaceSettings_8hpp.html" target="_top" xlink:title=" ">
<polygon fill="white" stroke="black" points="298.5,-56.5 298.5,-75.5 493.5,-75.5 493.5,-56.5 298.5,-56.5"/>
<text text-anchor="middle" x="396" y="-63.5" font-family="Helvetica,sans-Serif" font-size="10.00">AH/Settings/NamespaceSettings.hpp</text>
</a>
</g>
</g>
<!-- Node3&#45;&gt;Node15 -->
<g id="edge42" class="edge">
<title>Node3&#45;&gt;Node15</title>
<path fill="none" stroke="midnightblue" d="M297.44,-696.3C183.48,-678.07 0,-639 0,-576.5 0,-576.5 0,-576.5 0,-177 0,-116.98 170.99,-88.34 288.26,-75.76"/>
<polygon fill="midnightblue" stroke="midnightblue" points="288.79,-79.22 298.37,-74.7 288.06,-72.26 288.79,-79.22"/>
</g>
<!-- Node29 -->
<g id="node29" class="node">
<title>Node29</title>
<g id="a_node29"><a xlink:title=" ">
<polygon fill="white" stroke="#bfbfbf" points="280.5,-633 280.5,-652 367.5,-652 367.5,-633 280.5,-633"/>
<text text-anchor="middle" x="324" y="-640" font-family="Helvetica,sans-Serif" font-size="10.00">AH/STL/climits</text>
</a>
</g>
</g>
<!-- Node3&#45;&gt;Node29 -->
<g id="edge41" class="edge">
<title>Node3&#45;&gt;Node29</title>
<path fill="none" stroke="midnightblue" d="M372.55,-694.4C362.78,-684.16 349.56,-670.3 339.38,-659.62"/>
<polygon fill="midnightblue" stroke="midnightblue" points="341.73,-657.01 332.29,-652.19 336.66,-661.85 341.73,-657.01"/>
</g>
<!-- Node5 -->
<g id="node5" class="node">
<title>Node5</title>
<g id="a_node5"><a xlink:href="../../d4/d35/Hardware-Types_8hpp.html" target="_top" xlink:title=" ">
<polygon fill="white" stroke="black" points="381.5,-560.5 381.5,-590.5 512.5,-590.5 512.5,-560.5 381.5,-560.5"/>
<text text-anchor="start" x="389.5" y="-578.5" font-family="Helvetica,sans-Serif" font-size="10.00">AH/Hardware/Hardware</text>
<text text-anchor="middle" x="447" y="-567.5" font-family="Helvetica,sans-Serif" font-size="10.00">&#45;Types.hpp</text>
</a>
</g>
</g>
<!-- Node4&#45;&gt;Node5 -->
<g id="edge4" class="edge">
<title>Node4&#45;&gt;Node5</title>
<path fill="none" stroke="midnightblue" d="M447,-627.4C447,-619.64 447,-609.81 447,-600.86"/>
<polygon fill="midnightblue" stroke="midnightblue" points="450.5,-600.58 447,-590.58 443.5,-600.58 450.5,-600.58"/>
</g>
<!-- Node10 -->
<g id="node10" class="node">
<title>Node10</title>
<g id="a_node10"><a xlink:href="../../d6/ddf/Arduino-Wrapper_8h.html" target="_top" xlink:title=" ">
<polygon fill="white" stroke="black" points="690,-168.5 690,-187.5 814,-187.5 814,-168.5 690,-168.5"/>
<text text-anchor="middle" x="752" y="-175.5" font-family="Helvetica,sans-Serif" font-size="10.00">AH/Arduino&#45;Wrapper.h</text>
</a>
</g>
</g>
<!-- Node4&#45;&gt;Node10 -->
<g id="edge40" class="edge">
<title>Node4&#45;&gt;Node10</title>
<path fill="none" stroke="midnightblue" d="M508.21,-638.19C655.77,-626.58 1019,-574.86 1019,-347 1019,-347 1019,-347 1019,-289 1019,-258.77 1021.6,-244.07 999,-224 973.6,-201.44 887.52,-189.66 824.1,-183.91"/>
<polygon fill="midnightblue" stroke="midnightblue" points="824.39,-180.42 814.13,-183.04 823.78,-187.4 824.39,-180.42"/>
</g>
<!-- Node26 -->
<g id="node26" class="node">
<title>Node26</title>
<g id="a_node26"><a xlink:href="../../d0/db1/FunctionTraits_8hpp.html" target="_top" xlink:title=" ">
<polygon fill="white" stroke="black" points="131.5,-566 131.5,-585 284.5,-585 284.5,-566 131.5,-566"/>
<text text-anchor="middle" x="208" y="-573" font-family="Helvetica,sans-Serif" font-size="10.00">AH/Types/FunctionTraits.hpp</text>
</a>
</g>
</g>
<!-- Node4&#45;&gt;Node26 -->
<g id="edge36" class="edge">
<title>Node4&#45;&gt;Node26</title>
<path fill="none" stroke="midnightblue" d="M395.43,-627.48C351.66,-615.57 289.68,-598.72 249.17,-587.7"/>
<polygon fill="midnightblue" stroke="midnightblue" points="249.93,-584.28 239.36,-585.03 248.09,-591.03 249.93,-584.28"/>
</g>
<!-- Node6 -->
<g id="node6" class="node">
<title>Node6</title>
<g id="a_node6"><a xlink:href="../../de/d76/Array_8hpp.html" target="_top" xlink:title=" ">
<polygon fill="white" stroke="black" points="379.5,-504.5 379.5,-523.5 514.5,-523.5 514.5,-504.5 379.5,-504.5"/>
<text text-anchor="middle" x="447" y="-511.5" font-family="Helvetica,sans-Serif" font-size="10.00">AH/Containers/Array.hpp</text>
</a>
</g>
</g>
<!-- Node5&#45;&gt;Node6 -->
<g id="edge5" class="edge">
<title>Node5&#45;&gt;Node6</title>
<path fill="none" stroke="midnightblue" d="M447,-560.4C447,-552.47 447,-542.46 447,-533.86"/>
<polygon fill="midnightblue" stroke="midnightblue" points="450.5,-533.66 447,-523.66 443.5,-533.66 450.5,-533.66"/>
</g>
<!-- Node5&#45;&gt;Node15 -->
<g id="edge34" class="edge">
<title>Node5&#45;&gt;Node15</title>
<path fill="none" stroke="midnightblue" d="M391.14,-560.37C343.27,-544.51 282,-513.55 282,-459 282,-459 282,-459 282,-177 282,-130.11 332.55,-96.89 366.33,-79.93"/>
<polygon fill="midnightblue" stroke="midnightblue" points="367.87,-83.07 375.36,-75.58 364.83,-76.77 367.87,-83.07"/>
</g>
<!-- Node23 -->
<g id="node23" class="node">
<title>Node23</title>
<g id="a_node23"><a xlink:title=" ">
<polygon fill="white" stroke="#bfbfbf" points="652.5,-224.5 652.5,-243.5 705.5,-243.5 705.5,-224.5 652.5,-224.5"/>
<text text-anchor="middle" x="679" y="-231.5" font-family="Helvetica,sans-Serif" font-size="10.00">stdint.h</text>
</a>
</g>
</g>
<!-- Node5&#45;&gt;Node23 -->
<g id="edge35" class="edge">
<title>Node5&#45;&gt;Node23</title>
<path fill="none" stroke="midnightblue" d="M487.72,-560.36C526.31,-544.53 581.97,-514.78 607,-468 646.43,-394.33 566.49,-353.08 607,-280 615.09,-265.41 630.1,-254.92 644.34,-247.76"/>
<polygon fill="midnightblue" stroke="midnightblue" points="645.89,-250.9 653.5,-243.53 642.95,-244.55 645.89,-250.9"/>
</g>
<!-- Node7 -->
<g id="node7" class="node">
<title>Node7</title>
<g id="a_node7"><a xlink:href="../../d1/d93/Error_8hpp.html" target="_top" xlink:title=" ">
<polygon fill="white" stroke="black" points="494,-448.5 494,-467.5 598,-467.5 598,-448.5 494,-448.5"/>
<text text-anchor="middle" x="546" y="-455.5" font-family="Helvetica,sans-Serif" font-size="10.00">AH/Error/Error.hpp</text>
</a>
</g>
</g>
<!-- Node6&#45;&gt;Node7 -->
<g id="edge6" class="edge">
<title>Node6&#45;&gt;Node7</title>
<path fill="none" stroke="midnightblue" d="M462.91,-504.32C478.64,-495.74 502.94,-482.49 521.21,-472.52"/>
<polygon fill="midnightblue" stroke="midnightblue" points="523.03,-475.52 530.13,-467.65 519.68,-469.37 523.03,-475.52"/>
</g>
<!-- Node16 -->
<g id="node16" class="node">
<title>Node16</title>
<g id="a_node16"><a xlink:title=" ">
<polygon fill="white" stroke="#bfbfbf" points="481.5,-112.5 481.5,-131.5 588.5,-131.5 588.5,-112.5 481.5,-112.5"/>
<text text-anchor="middle" x="535" y="-119.5" font-family="Helvetica,sans-Serif" font-size="10.00">AH/STL/type_traits</text>
</a>
</g>
</g>
<!-- Node6&#45;&gt;Node16 -->
<g id="edge32" class="edge">
<title>Node6&#45;&gt;Node16</title>
<path fill="none" stroke="midnightblue" d="M441.77,-504.43C416.27,-462.17 307.42,-275.79 339,-224 369.88,-173.35 435.2,-147.01 481.95,-134.11"/>
<polygon fill="midnightblue" stroke="midnightblue" points="482.85,-137.49 491.62,-131.55 481.06,-130.72 482.85,-137.49"/>
</g>
<!-- Node22 -->
<g id="node22" class="node">
<title>Node22</title>
<g id="a_node22"><a xlink:title=" ">
<polygon fill="white" stroke="#bfbfbf" points="578,-224.5 578,-243.5 634,-243.5 634,-224.5 578,-224.5"/>
<text text-anchor="middle" x="606" y="-231.5" font-family="Helvetica,sans-Serif" font-size="10.00">stddef.h</text>
</a>
</g>
</g>
<!-- Node6&#45;&gt;Node22 -->
<g id="edge33" class="edge">
<title>Node6&#45;&gt;Node22</title>
<path fill="none" stroke="midnightblue" d="M451.26,-504.33C466.6,-473.25 521.02,-364.78 574,-280 579.97,-270.45 587.2,-260.18 593.28,-251.87"/>
<polygon fill="midnightblue" stroke="midnightblue" points="596.16,-253.87 599.3,-243.75 590.54,-249.7 596.16,-253.87"/>
</g>
<!-- Node25 -->
<g id="node25" class="node">
<title>Node25</title>
<g id="a_node25"><a xlink:title=" ">
<polygon fill="white" stroke="#bfbfbf" points="310,-448.5 310,-467.5 400,-467.5 400,-448.5 310,-448.5"/>
<text text-anchor="middle" x="355" y="-455.5" font-family="Helvetica,sans-Serif" font-size="10.00">AH/STL/iterator</text>
</a>
</g>
</g>
<!-- Node6&#45;&gt;Node25 -->
<g id="edge31" class="edge">
<title>Node6&#45;&gt;Node25</title>
<path fill="none" stroke="midnightblue" d="M432.22,-504.32C417.73,-495.82 395.43,-482.73 378.51,-472.8"/>
<polygon fill="midnightblue" stroke="midnightblue" points="380.14,-469.7 369.74,-467.65 376.6,-475.74 380.14,-469.7"/>
</g>
<!-- Node8 -->
<g id="node8" class="node">
<title>Node8</title>
<g id="a_node8"><a xlink:href="../../df/dee/Debug_8hpp.html" target="_top" xlink:title=" ">
<polygon fill="white" stroke="black" points="659.5,-392.5 659.5,-411.5 780.5,-411.5 780.5,-392.5 659.5,-392.5"/>
<text text-anchor="middle" x="720" y="-399.5" font-family="Helvetica,sans-Serif" font-size="10.00">AH/Debug/Debug.hpp</text>
</a>
</g>
</g>
<!-- Node7&#45;&gt;Node8 -->
<g id="edge7" class="edge">
<title>Node7&#45;&gt;Node8</title>
<path fill="none" stroke="midnightblue" d="M573.57,-448.44C603.1,-439.28 650.12,-424.69 682.88,-414.52"/>
<polygon fill="midnightblue" stroke="midnightblue" points="684.04,-417.82 692.56,-411.52 681.97,-411.14 684.04,-417.82"/>
</g>
<!-- Node9 -->
<g id="node9" class="node">
<title>Node9</title>
<g id="a_node9"><a xlink:href="../../dd/d80/PrintStream_8hpp.html" target="_top" xlink:title=" ">
<polygon fill="white" stroke="black" points="348.5,-224.5 348.5,-243.5 521.5,-243.5 521.5,-224.5 348.5,-224.5"/>
<text text-anchor="middle" x="435" y="-231.5" font-family="Helvetica,sans-Serif" font-size="10.00">AH/PrintStream/PrintStream.hpp</text>
</a>
</g>
</g>
<!-- Node8&#45;&gt;Node9 -->
<g id="edge8" class="edge">
<title>Node8&#45;&gt;Node9</title>
<path fill="none" stroke="midnightblue" d="M703.54,-392.46C671.09,-375.52 596.75,-336.16 536,-300 508.03,-283.35 476.62,-262.84 456.36,-249.37"/>
<polygon fill="midnightblue" stroke="midnightblue" points="458.15,-246.35 447.89,-243.71 454.26,-252.17 458.15,-246.35"/>
</g>
<!-- Node8&#45;&gt;Node17 -->
<g id="edge19" class="edge">
<title>Node8&#45;&gt;Node17</title>
<path fill="none" stroke="midnightblue" d="M718.63,-392.08C720.24,-384.61 724.48,-373.72 729.17,-364.52"/>
<polygon fill="midnightblue" stroke="midnightblue" points="732.26,-366.18 734.14,-355.75 726.17,-362.73 732.26,-366.18"/>
</g>
<!-- Node9&#45;&gt;Node10 -->
<g id="edge9" class="edge">
<title>Node9&#45;&gt;Node10</title>
<path fill="none" stroke="midnightblue" d="M485.23,-224.44C541.34,-214.89 632.13,-199.42 691.95,-189.23"/>
<polygon fill="midnightblue" stroke="midnightblue" points="692.74,-192.65 702.01,-187.52 691.56,-185.75 692.74,-192.65"/>
</g>
<!-- Node9&#45;&gt;Node15 -->
<g id="edge18" class="edge">
<title>Node9&#45;&gt;Node15</title>
<path fill="none" stroke="midnightblue" d="M425.85,-224.35C417.65,-215.94 406.15,-202.38 401,-188 388.63,-153.49 390.79,-109.85 393.43,-85.53"/>
<polygon fill="midnightblue" stroke="midnightblue" points="396.91,-85.9 394.66,-75.54 389.96,-85.04 396.91,-85.9"/>
</g>
<!-- Node11 -->
<g id="node11" class="node">
<title>Node11</title>
<g id="a_node11"><a xlink:href="../../d7/d79/MinMaxFix_8hpp.html" target="_top" xlink:title=" ">
<polygon fill="white" stroke="black" points="607,-112.5 607,-131.5 743,-131.5 743,-112.5 607,-112.5"/>
<text text-anchor="middle" x="675" y="-119.5" font-family="Helvetica,sans-Serif" font-size="10.00">AH/Math/MinMaxFix.hpp</text>
</a>
</g>
</g>
<!-- Node10&#45;&gt;Node11 -->
<g id="edge10" class="edge">
<title>Node10&#45;&gt;Node11</title>
<path fill="none" stroke="midnightblue" d="M739.63,-168.32C727.84,-160.06 709.87,-147.45 695.86,-137.63"/>
<polygon fill="midnightblue" stroke="midnightblue" points="697.54,-134.53 687.34,-131.65 693.52,-140.26 697.54,-134.53"/>
</g>
<!-- Node14 -->
<g id="node14" class="node">
<title>Node14</title>
<g id="a_node14"><a xlink:title=" ">
<polygon fill="white" stroke="#bfbfbf" points="682.5,-0.5 682.5,-19.5 745.5,-19.5 745.5,-0.5 682.5,-0.5"/>
<text text-anchor="middle" x="714" y="-7.5" font-family="Helvetica,sans-Serif" font-size="10.00">Arduino.h</text>
</a>
</g>
</g>
<!-- Node10&#45;&gt;Node14 -->
<g id="edge17" class="edge">
<title>Node10&#45;&gt;Node14</title>
<path fill="none" stroke="midnightblue" d="M753.95,-168.44C758.15,-148.15 766.58,-95.85 752,-56 747.94,-44.91 739.81,-34.67 732.11,-26.76"/>
<polygon fill="midnightblue" stroke="midnightblue" points="734.36,-24.07 724.71,-19.7 729.53,-29.14 734.36,-24.07"/>
</g>
<!-- Node10&#45;&gt;Node16 -->
<g id="edge16" class="edge">
<title>Node10&#45;&gt;Node16</title>
<path fill="none" stroke="midnightblue" d="M717.62,-168.44C680.08,-159.1 619.87,-144.12 578.93,-133.93"/>
<polygon fill="midnightblue" stroke="midnightblue" points="579.77,-130.53 569.22,-131.52 578.08,-137.33 579.77,-130.53"/>
</g>
<!-- Node12 -->
<g id="node12" class="node">
<title>Node12</title>
<g id="a_node12"><a xlink:href="../../d6/d3b/FixArduinoMacros_8hpp.html" target="_top" xlink:title=" ">
<polygon fill="white" stroke="black" points="573,-56.5 573,-75.5 743,-75.5 743,-56.5 573,-56.5"/>
<text text-anchor="middle" x="658" y="-63.5" font-family="Helvetica,sans-Serif" font-size="10.00">AH/Math/FixArduinoMacros.hpp</text>
</a>
</g>
</g>
<!-- Node11&#45;&gt;Node12 -->
<g id="edge11" class="edge">
<title>Node11&#45;&gt;Node12</title>
<path fill="none" stroke="midnightblue" d="M672.19,-112.08C669.92,-104.85 666.63,-94.41 663.79,-85.4"/>
<polygon fill="midnightblue" stroke="midnightblue" points="667.1,-84.24 660.75,-75.75 660.42,-86.34 667.1,-84.24"/>
</g>
<!-- Node11&#45;&gt;Node15 -->
<g id="edge14" class="edge">
<title>Node11&#45;&gt;Node15</title>
<path fill="none" stroke="midnightblue" d="M630.79,-112.44C581.71,-102.94 502.49,-87.61 449.84,-77.42"/>
<polygon fill="midnightblue" stroke="midnightblue" points="450.48,-73.98 440,-75.52 449.15,-80.85 450.48,-73.98"/>
</g>
<!-- Node13 -->
<g id="node13" class="node">
<title>Node13</title>
<g id="a_node13"><a xlink:href="../../d1/d65/Warnings_8hpp.html" target="_top" xlink:title=" ">
<polygon fill="white" stroke="black" points="460.5,-0.5 460.5,-19.5 603.5,-19.5 603.5,-0.5 460.5,-0.5"/>
<text text-anchor="middle" x="532" y="-7.5" font-family="Helvetica,sans-Serif" font-size="10.00">AH/Settings/Warnings.hpp</text>
</a>
</g>
</g>
<!-- Node12&#45;&gt;Node13 -->
<g id="edge12" class="edge">
<title>Node12&#45;&gt;Node13</title>
<path fill="none" stroke="midnightblue" d="M638.03,-56.44C617.39,-47.6 584.94,-33.69 561.37,-23.59"/>
<polygon fill="midnightblue" stroke="midnightblue" points="562.44,-20.24 551.87,-19.52 559.68,-26.67 562.44,-20.24"/>
</g>
<!-- Node12&#45;&gt;Node14 -->
<g id="edge13" class="edge">
<title>Node12&#45;&gt;Node14</title>
<path fill="none" stroke="midnightblue" d="M667,-56.32C675.19,-48.42 687.51,-36.55 697.47,-26.94"/>
<polygon fill="midnightblue" stroke="midnightblue" points="700.07,-29.29 704.84,-19.83 695.21,-24.26 700.07,-29.29"/>
</g>
<!-- Node15&#45;&gt;Node13 -->
<g id="edge15" class="edge">
<title>Node15&#45;&gt;Node13</title>
<path fill="none" stroke="midnightblue" d="M417.55,-56.44C440.03,-47.52 475.49,-33.44 500.98,-23.32"/>
<polygon fill="midnightblue" stroke="midnightblue" points="502.55,-26.46 510.55,-19.52 499.97,-19.95 502.55,-26.46"/>
</g>
<!-- Node17&#45;&gt;Node8 -->
<g id="edge30" class="edge">
<title>Node17&#45;&gt;Node8</title>
<path fill="none" stroke="midnightblue" d="M744.4,-355.75C742.84,-363.17 738.62,-374.05 733.93,-383.27"/>
<polygon fill="midnightblue" stroke="midnightblue" points="730.83,-381.65 728.96,-392.08 736.93,-385.09 730.83,-381.65"/>
</g>
<!-- Node17&#45;&gt;Node15 -->
<g id="edge20" class="edge">
<title>Node17&#45;&gt;Node15</title>
<path fill="none" stroke="midnightblue" d="M700.6,-336.47C672.57,-329.55 635.82,-317.95 607,-300 595.9,-293.08 450.39,-142.04 442,-132 429.16,-116.63 416.12,-97.85 407.22,-84.43"/>
<polygon fill="midnightblue" stroke="midnightblue" points="409.94,-82.19 401.54,-75.74 404.08,-86.02 409.94,-82.19"/>
</g>
<!-- Node18 -->
<g id="node18" class="node">
<title>Node18</title>
<g id="a_node18"><a xlink:href="../../db/d02/Settings_8hpp.html" target="_top" xlink:title="All user settings and debugging options can be changed here.">
<polygon fill="white" stroke="black" points="807.5,-280.5 807.5,-299.5 884.5,-299.5 884.5,-280.5 807.5,-280.5"/>
<text text-anchor="middle" x="846" y="-287.5" font-family="Helvetica,sans-Serif" font-size="10.00">Settings.hpp</text>
</a>
</g>
</g>
<!-- Node17&#45;&gt;Node18 -->
<g id="edge21" class="edge">
<title>Node17&#45;&gt;Node18</title>
<path fill="none" stroke="midnightblue" d="M759.55,-336.32C775.99,-327.7 801.43,-314.36 820.47,-304.39"/>
<polygon fill="midnightblue" stroke="midnightblue" points="822.26,-307.4 829.49,-299.65 819.01,-301.2 822.26,-307.4"/>
</g>
<!-- Node24 -->
<g id="node24" class="node">
<title>Node24</title>
<g id="a_node24"><a xlink:href="../../d9/d98/TeensyUSBTypes_8hpp.html" target="_top" xlink:title=" ">
<polygon fill="white" stroke="black" points="616.5,-280.5 616.5,-299.5 789.5,-299.5 789.5,-280.5 616.5,-280.5"/>
<text text-anchor="middle" x="703" y="-287.5" font-family="Helvetica,sans-Serif" font-size="10.00">AH/Teensy/TeensyUSBTypes.hpp</text>
</a>
</g>
</g>
<!-- Node17&#45;&gt;Node24 -->
<g id="edge29" class="edge">
<title>Node17&#45;&gt;Node24</title>
<path fill="none" stroke="midnightblue" d="M736.39,-336.08C730.74,-328.46 722.46,-317.26 715.55,-307.94"/>
<polygon fill="midnightblue" stroke="midnightblue" points="718.25,-305.7 709.48,-299.75 712.62,-309.87 718.25,-305.7"/>
</g>
<!-- Node19 -->
<g id="node19" class="node">
<title>Node19</title>
<g id="a_node19"><a xlink:href="../../dc/d50/Frequency_8hpp.html" target="_top" xlink:title=" ">
<polygon fill="white" stroke="black" points="519,-168.5 519,-187.5 653,-187.5 653,-168.5 519,-168.5"/>
<text text-anchor="middle" x="586" y="-175.5" font-family="Helvetica,sans-Serif" font-size="10.00">AH/Types/Frequency.hpp</text>
</a>
</g>
</g>
<!-- Node18&#45;&gt;Node19 -->
<g id="edge22" class="edge">
<title>Node18&#45;&gt;Node19</title>
<path fill="none" stroke="midnightblue" d="M828.11,-280.5C809.34,-271.54 779.01,-256.96 753,-244 735.56,-235.31 731.9,-231.69 714,-224 684.2,-211.19 649.42,-199.14 623.64,-190.74"/>
<polygon fill="midnightblue" stroke="midnightblue" points="624.47,-187.33 613.88,-187.59 622.32,-193.99 624.47,-187.33"/>
</g>
<!-- Node20 -->
<g id="node20" class="node">
<title>Node20</title>
<g id="a_node20"><a xlink:href="../../d7/d7c/ADCConfig_8hpp.html" target="_top" xlink:title="This file contains the platform&#45;specific ADC resolutions.">
<polygon fill="white" stroke="black" points="762.5,-224.5 762.5,-243.5 919.5,-243.5 919.5,-224.5 762.5,-224.5"/>
<text text-anchor="middle" x="841" y="-231.5" font-family="Helvetica,sans-Serif" font-size="10.00">AH/Hardware/ADCConfig.hpp</text>
</a>
</g>
</g>
<!-- Node18&#45;&gt;Node20 -->
<g id="edge24" class="edge">
<title>Node18&#45;&gt;Node20</title>
<path fill="none" stroke="midnightblue" d="M845.17,-280.08C844.52,-273.01 843.58,-262.86 842.76,-253.99"/>
<polygon fill="midnightblue" stroke="midnightblue" points="846.22,-253.39 841.81,-243.75 839.25,-254.03 846.22,-253.39"/>
</g>
<!-- Node21 -->
<g id="node21" class="node">
<title>Node21</title>
<g id="a_node21"><a xlink:title=" ">
<polygon fill="white" stroke="#bfbfbf" points="937.5,-224.5 937.5,-243.5 990.5,-243.5 990.5,-224.5 937.5,-224.5"/>
<text text-anchor="middle" x="964" y="-231.5" font-family="Helvetica,sans-Serif" font-size="10.00">limits.h</text>
</a>
</g>
</g>
<!-- Node18&#45;&gt;Node21 -->
<g id="edge26" class="edge">
<title>Node18&#45;&gt;Node21</title>
<path fill="none" stroke="midnightblue" d="M864.7,-280.44C883.94,-271.64 914.15,-257.81 936.2,-247.72"/>
<polygon fill="midnightblue" stroke="midnightblue" points="937.75,-250.86 945.39,-243.52 934.84,-244.5 937.75,-250.86"/>
</g>
<!-- Node18&#45;&gt;Node22 -->
<g id="edge27" class="edge">
<title>Node18&#45;&gt;Node22</title>
<path fill="none" stroke="midnightblue" d="M807.41,-280.69C768.61,-272.28 706.81,-258.74 644.3,-244.27"/>
<polygon fill="midnightblue" stroke="midnightblue" points="644.8,-240.79 634.27,-241.94 643.22,-247.61 644.8,-240.79"/>
</g>
<!-- Node18&#45;&gt;Node23 -->
<g id="edge28" class="edge">
<title>Node18&#45;&gt;Node23</title>
<path fill="none" stroke="midnightblue" d="M819.54,-280.44C791.32,-271.32 746.46,-256.81 715.03,-246.65"/>
<polygon fill="midnightblue" stroke="midnightblue" points="715.93,-243.26 705.34,-243.52 713.78,-249.92 715.93,-243.26"/>
</g>
<!-- Node19&#45;&gt;Node15 -->
<g id="edge23" class="edge">
<title>Node19&#45;&gt;Node15</title>
<path fill="none" stroke="midnightblue" d="M556.66,-168.4C532.87,-160.74 498.98,-148.24 472,-132 448.91,-118.1 425.87,-97.15 411.32,-82.82"/>
<polygon fill="midnightblue" stroke="midnightblue" points="413.69,-80.24 404.16,-75.62 408.73,-85.18 413.69,-80.24"/>
</g>
<!-- Node20&#45;&gt;Node10 -->
<g id="edge25" class="edge">
<title>Node20&#45;&gt;Node10</title>
<path fill="none" stroke="midnightblue" d="M826.7,-224.32C812.82,-215.9 791.51,-202.97 775.2,-193.07"/>
<polygon fill="midnightblue" stroke="midnightblue" points="776.63,-189.85 766.26,-187.65 773,-195.83 776.63,-189.85"/>
</g>
<!-- Node26&#45;&gt;Node15 -->
<g id="edge39" class="edge">
<title>Node26&#45;&gt;Node15</title>
<path fill="none" stroke="midnightblue" d="M212.71,-565.8C222.46,-546.94 244,-500.59 244,-459 244,-459 244,-459 244,-177 244,-123.44 306.71,-93.3 351.57,-78.59"/>
<polygon fill="midnightblue" stroke="midnightblue" points="352.63,-81.93 361.13,-75.6 350.54,-75.25 352.63,-81.93"/>
</g>
<!-- Node27 -->
<g id="node27" class="node">
<title>Node27</title>
<g id="a_node27"><a xlink:title=" ">
<polygon fill="white" stroke="#bfbfbf" points="126,-504.5 126,-523.5 216,-523.5 216,-504.5 126,-504.5"/>
<text text-anchor="middle" x="171" y="-511.5" font-family="Helvetica,sans-Serif" font-size="10.00">AH/STL/cstddef</text>
</a>
</g>
</g>
<!-- Node26&#45;&gt;Node27 -->
<g id="edge37" class="edge">
<title>Node26&#45;&gt;Node27</title>
<path fill="none" stroke="midnightblue" d="M202.7,-565.98C197.26,-557.23 188.64,-543.37 181.76,-532.31"/>
<polygon fill="midnightblue" stroke="midnightblue" points="184.54,-530.15 176.29,-523.51 178.6,-533.85 184.54,-530.15"/>
</g>
<!-- Node28 -->
<g id="node28" class="node">
<title>Node28</title>
<g id="a_node28"><a xlink:title=" ">
<polygon fill="white" stroke="#bfbfbf" points="28.5,-504.5 28.5,-523.5 107.5,-523.5 107.5,-504.5 28.5,-504.5"/>
<text text-anchor="middle" x="68" y="-511.5" font-family="Helvetica,sans-Serif" font-size="10.00">AH/STL/tuple</text>
</a>
</g>
</g>
<!-- Node26&#45;&gt;Node28 -->
<g id="edge38" class="edge">
<title>Node26&#45;&gt;Node28</title>
<path fill="none" stroke="midnightblue" d="M187.94,-565.98C164.24,-555.9 124.59,-539.05 97.42,-527.5"/>
<polygon fill="midnightblue" stroke="midnightblue" points="98.59,-524.2 88.02,-523.51 95.86,-530.64 98.59,-524.2"/>
</g>
</g>
</svg>
