<?xml version="1.0" encoding="UTF-8" standalone="no"?>
<!DOCTYPE svg PUBLIC "-//W3C//DTD SVG 1.1//EN"
 "http://www.w3.org/Graphics/SVG/1.1/DTD/svg11.dtd">
<!-- Generated by graphviz version 2.43.0 (0)
 -->
<!-- Title: MinMaxFix.hpp Pages: 1 -->
<svg width="392pt" height="140pt"
 viewBox="0.00 0.00 391.50 140.00" xmlns="http://www.w3.org/2000/svg" xmlns:xlink="http://www.w3.org/1999/xlink">
<g id="graph0" class="graph" transform="scale(1 1) rotate(0) translate(4 136)">
<title>MinMaxFix.hpp</title>
<polygon fill="white" stroke="transparent" points="-4,4 -4,-136 387.5,-136 387.5,4 -4,4"/>
<!-- Node1 -->
<g id="node1" class="node">
<title>Node1</title>
<g id="a_node1"><a xlink:title=" ">
<polygon fill="#bfbfbf" stroke="black" points="152,-112.5 152,-131.5 243,-131.5 243,-112.5 152,-112.5"/>
<text text-anchor="middle" x="197.5" y="-119.5" font-family="Helvetica,sans-Serif" font-size="10.00">MinMaxFix.hpp</text>
</a>
</g>
</g>
<!-- Node2 -->
<g id="node2" class="node">
<title>Node2</title>
<g id="a_node2"><a xlink:href="../../d6/d3b/FixArduinoMacros_8hpp.html" target="_top" xlink:title=" ">
<polygon fill="white" stroke="black" points="213.5,-56.5 213.5,-75.5 383.5,-75.5 383.5,-56.5 213.5,-56.5"/>
<text text-anchor="middle" x="298.5" y="-63.5" font-family="Helvetica,sans-Serif" font-size="10.00">AH/Math/FixArduinoMacros.hpp</text>
</a>
</g>
</g>
<!-- Node1&#45;&gt;Node2 -->
<g id="edge1" class="edge">
<title>Node1&#45;&gt;Node2</title>
<path fill="none" stroke="midnightblue" d="M213.73,-112.32C229.85,-103.7 254.8,-90.36 273.46,-80.39"/>
<polygon fill="midnightblue" stroke="midnightblue" points="275.14,-83.46 282.31,-75.65 271.84,-77.28 275.14,-83.46"/>
</g>
<!-- Node5 -->
<g id="node5" class="node">
<title>Node5</title>
<g id="a_node5"><a xlink:href="../../dc/dc7/NamespaceSettings_8hpp.html" target="_top" xlink:title=" ">
<polygon fill="white" stroke="black" points="0,-56.5 0,-75.5 195,-75.5 195,-56.5 0,-56.5"/>
<text text-anchor="middle" x="97.5" y="-63.5" font-family="Helvetica,sans-Serif" font-size="10.00">AH/Settings/NamespaceSettings.hpp</text>
</a>
</g>
</g>
<!-- Node1&#45;&gt;Node5 -->
<g id="edge4" class="edge">
<title>Node1&#45;&gt;Node5</title>
<path fill="none" stroke="midnightblue" d="M181.43,-112.32C165.54,-103.74 140.99,-90.49 122.54,-80.52"/>
<polygon fill="midnightblue" stroke="midnightblue" points="123.99,-77.33 113.53,-75.65 120.66,-83.49 123.99,-77.33"/>
</g>
<!-- Node3 -->
<g id="node3" class="node">
<title>Node3</title>
<g id="a_node3"><a xlink:href="../../d1/d65/Warnings_8hpp.html" target="_top" xlink:title=" ">
<polygon fill="white" stroke="black" points="66,-0.5 66,-19.5 209,-19.5 209,-0.5 66,-0.5"/>
<text text-anchor="middle" x="137.5" y="-7.5" font-family="Helvetica,sans-Serif" font-size="10.00">AH/Settings/Warnings.hpp</text>
</a>
</g>
</g>
<!-- Node2&#45;&gt;Node3 -->
<g id="edge2" class="edge">
<title>Node2&#45;&gt;Node3</title>
<path fill="none" stroke="midnightblue" d="M272.99,-56.44C245.9,-47.36 202.91,-32.94 172.63,-22.78"/>
<polygon fill="midnightblue" stroke="midnightblue" points="173.49,-19.38 162.89,-19.52 171.26,-26.01 173.49,-19.38"/>
</g>
<!-- Node4 -->
<g id="node4" class="node">
<title>Node4</title>
<g id="a_node4"><a xlink:title=" ">
<polygon fill="white" stroke="#bfbfbf" points="267,-0.5 267,-19.5 330,-19.5 330,-0.5 267,-0.5"/>
<text text-anchor="middle" x="298.5" y="-7.5" font-family="Helvetica,sans-Serif" font-size="10.00">Arduino.h</text>
</a>
</g>
</g>
<!-- Node2&#45;&gt;Node4 -->
<g id="edge3" class="edge">
<title>Node2&#45;&gt;Node4</title>
<path fill="none" stroke="midnightblue" d="M298.5,-56.08C298.5,-49.01 298.5,-38.86 298.5,-29.99"/>
<polygon fill="midnightblue" stroke="midnightblue" points="302,-29.75 298.5,-19.75 295,-29.75 302,-29.75"/>
</g>
<!-- Node5&#45;&gt;Node3 -->
<g id="edge5" class="edge">
<title>Node5&#45;&gt;Node3</title>
<path fill="none" stroke="midnightblue" d="M104.11,-56.08C109.76,-48.46 118.04,-37.26 124.95,-27.94"/>
<polygon fill="midnightblue" stroke="midnightblue" points="127.88,-29.87 131.02,-19.75 122.25,-25.7 127.88,-29.87"/>
</g>
</g>
</svg>
