<?xml version="1.0" encoding="UTF-8" standalone="no"?>
<!DOCTYPE svg PUBLIC "-//W3C//DTD SVG 1.1//EN"
 "http://www.w3.org/Graphics/SVG/1.1/DTD/svg11.dtd">
<!-- Generated by graphviz version 2.43.0 (0)
 -->
<!-- Title: ShiftRegisterOut.ipp Pages: 1 -->
<svg width="1487pt" height="1002pt"
 viewBox="0.00 0.00 1486.50 1002.00" xmlns="http://www.w3.org/2000/svg" xmlns:xlink="http://www.w3.org/1999/xlink">
<g id="graph0" class="graph" transform="scale(1 1) rotate(0) translate(4 998)">
<title>ShiftRegisterOut.ipp</title>
<polygon fill="white" stroke="transparent" points="-4,4 -4,-998 1482.5,-998 1482.5,4 -4,4"/>
<!-- Node1 -->
<g id="node1" class="node">
<title>Node1</title>
<g id="a_node1"><a xlink:title=" ">
<polygon fill="#bfbfbf" stroke="black" points="393,-974.5 393,-993.5 507,-993.5 507,-974.5 393,-974.5"/>
<text text-anchor="middle" x="450" y="-981.5" font-family="Helvetica,sans-Serif" font-size="10.00">ShiftRegisterOut.ipp</text>
</a>
</g>
</g>
<!-- Node2 -->
<g id="node2" class="node">
<title>Node2</title>
<g id="a_node2"><a xlink:href="../../dd/ddf/ExtendedInputOutput_8hpp.html" target="_top" xlink:title=" ">
<polygon fill="white" stroke="black" points="476.5,-694.5 476.5,-713.5 617.5,-713.5 617.5,-694.5 476.5,-694.5"/>
<text text-anchor="middle" x="547" y="-701.5" font-family="Helvetica,sans-Serif" font-size="10.00">ExtendedInputOutput.hpp</text>
</a>
</g>
</g>
<!-- Node1&#45;&gt;Node2 -->
<g id="edge1" class="edge">
<title>Node1&#45;&gt;Node2</title>
<path fill="none" stroke="midnightblue" d="M392.78,-974.68C303.21,-960.02 140,-926.04 140,-873 140,-873 140,-873 140,-815 140,-748.15 347.24,-720.69 465.96,-710.45"/>
<polygon fill="midnightblue" stroke="midnightblue" points="466.43,-713.92 476.11,-709.6 465.85,-706.95 466.43,-713.92"/>
</g>
<!-- Node29 -->
<g id="node29" class="node">
<title>Node29</title>
<g id="a_node29"><a xlink:href="../../d0/db4/ShiftRegisterOut_8hpp.html" target="_top" xlink:title=" ">
<polygon fill="white" stroke="black" points="391.5,-918.5 391.5,-937.5 508.5,-937.5 508.5,-918.5 391.5,-918.5"/>
<text text-anchor="middle" x="450" y="-925.5" font-family="Helvetica,sans-Serif" font-size="10.00">ShiftRegisterOut.hpp</text>
</a>
</g>
</g>
<!-- Node1&#45;&gt;Node29 -->
<g id="edge42" class="edge">
<title>Node1&#45;&gt;Node29</title>
<path fill="none" stroke="midnightblue" d="M444.83,-974.08C443.32,-966.93 442.89,-956.64 443.54,-947.69"/>
<polygon fill="midnightblue" stroke="midnightblue" points="447.02,-948.13 444.87,-937.75 440.08,-947.2 447.02,-948.13"/>
</g>
<!-- Node3 -->
<g id="node3" class="node">
<title>Node3</title>
<g id="a_node3"><a xlink:href="../../d2/d3c/Arduino-Hardware-Types_8hpp.html" target="_top" xlink:title=" ">
<polygon fill="white" stroke="black" points="582,-627.5 582,-657.5 704,-657.5 704,-627.5 582,-627.5"/>
<text text-anchor="start" x="590" y="-645.5" font-family="Helvetica,sans-Serif" font-size="10.00">AH/Hardware/Arduino</text>
<text text-anchor="middle" x="643" y="-634.5" font-family="Helvetica,sans-Serif" font-size="10.00">&#45;Hardware&#45;Types.hpp</text>
</a>
</g>
</g>
<!-- Node2&#45;&gt;Node3 -->
<g id="edge2" class="edge">
<title>Node2&#45;&gt;Node3</title>
<path fill="none" stroke="midnightblue" d="M560.75,-694.48C574,-686.27 594.5,-673.56 611.72,-662.88"/>
<polygon fill="midnightblue" stroke="midnightblue" points="613.72,-665.77 620.37,-657.52 610.03,-659.82 613.72,-665.77"/>
</g>
<!-- Node14 -->
<g id="node14" class="node">
<title>Node14</title>
<g id="a_node14"><a xlink:href="../../dc/dc7/NamespaceSettings_8hpp.html" target="_top" xlink:title=" ">
<polygon fill="white" stroke="black" points="464.5,-56.5 464.5,-75.5 659.5,-75.5 659.5,-56.5 464.5,-56.5"/>
<text text-anchor="middle" x="562" y="-63.5" font-family="Helvetica,sans-Serif" font-size="10.00">AH/Settings/NamespaceSettings.hpp</text>
</a>
</g>
</g>
<!-- Node2&#45;&gt;Node14 -->
<g id="edge41" class="edge">
<title>Node2&#45;&gt;Node14</title>
<path fill="none" stroke="midnightblue" d="M476.33,-702.83C328.46,-698.38 0,-665.28 0,-459 0,-459 0,-459 0,-177 0,-85.4 291.17,-68.67 454.35,-66.49"/>
<polygon fill="midnightblue" stroke="midnightblue" points="454.47,-69.99 464.43,-66.38 454.39,-62.99 454.47,-69.99"/>
</g>
<!-- Node28 -->
<g id="node28" class="node">
<title>Node28</title>
<g id="a_node28"><a xlink:title=" ">
<polygon fill="white" stroke="#bfbfbf" points="476.5,-633 476.5,-652 563.5,-652 563.5,-633 476.5,-633"/>
<text text-anchor="middle" x="520" y="-640" font-family="Helvetica,sans-Serif" font-size="10.00">AH/STL/climits</text>
</a>
</g>
</g>
<!-- Node2&#45;&gt;Node28 -->
<g id="edge40" class="edge">
<title>Node2&#45;&gt;Node28</title>
<path fill="none" stroke="midnightblue" d="M543.13,-694.48C539.2,-685.82 533,-672.15 528.01,-661.15"/>
<polygon fill="midnightblue" stroke="midnightblue" points="531.18,-659.67 523.86,-652.01 524.81,-662.56 531.18,-659.67"/>
</g>
<!-- Node4 -->
<g id="node4" class="node">
<title>Node4</title>
<g id="a_node4"><a xlink:href="../../d4/d35/Hardware-Types_8hpp.html" target="_top" xlink:title=" ">
<polygon fill="white" stroke="black" points="577.5,-560.5 577.5,-590.5 708.5,-590.5 708.5,-560.5 577.5,-560.5"/>
<text text-anchor="start" x="585.5" y="-578.5" font-family="Helvetica,sans-Serif" font-size="10.00">AH/Hardware/Hardware</text>
<text text-anchor="middle" x="643" y="-567.5" font-family="Helvetica,sans-Serif" font-size="10.00">&#45;Types.hpp</text>
</a>
</g>
</g>
<!-- Node3&#45;&gt;Node4 -->
<g id="edge3" class="edge">
<title>Node3&#45;&gt;Node4</title>
<path fill="none" stroke="midnightblue" d="M643,-627.4C643,-619.64 643,-609.81 643,-600.86"/>
<polygon fill="midnightblue" stroke="midnightblue" points="646.5,-600.58 643,-590.58 639.5,-600.58 646.5,-600.58"/>
</g>
<!-- Node9 -->
<g id="node9" class="node">
<title>Node9</title>
<g id="a_node9"><a xlink:href="../../d6/ddf/Arduino-Wrapper_8h.html" target="_top" xlink:title=" ">
<polygon fill="white" stroke="black" points="1172,-168.5 1172,-187.5 1296,-187.5 1296,-168.5 1172,-168.5"/>
<text text-anchor="middle" x="1234" y="-175.5" font-family="Helvetica,sans-Serif" font-size="10.00">AH/Arduino&#45;Wrapper.h</text>
</a>
</g>
</g>
<!-- Node3&#45;&gt;Node9 -->
<g id="edge39" class="edge">
<title>Node3&#45;&gt;Node9</title>
<path fill="none" stroke="midnightblue" d="M704.22,-640.79C844.54,-638.53 1185.53,-629.14 1293,-591 1349,-571.12 1403,-574.42 1403,-515 1403,-515 1403,-515 1403,-457 1403,-341.59 1295.33,-233.31 1251.87,-194.3"/>
<polygon fill="midnightblue" stroke="midnightblue" points="1254.13,-191.62 1244.32,-187.64 1249.5,-196.87 1254.13,-191.62"/>
</g>
<!-- Node25 -->
<g id="node25" class="node">
<title>Node25</title>
<g id="a_node25"><a xlink:href="../../d0/db1/FunctionTraits_8hpp.html" target="_top" xlink:title=" ">
<polygon fill="white" stroke="black" points="230.5,-566 230.5,-585 383.5,-585 383.5,-566 230.5,-566"/>
<text text-anchor="middle" x="307" y="-573" font-family="Helvetica,sans-Serif" font-size="10.00">AH/Types/FunctionTraits.hpp</text>
</a>
</g>
</g>
<!-- Node3&#45;&gt;Node25 -->
<g id="edge35" class="edge">
<title>Node3&#45;&gt;Node25</title>
<path fill="none" stroke="midnightblue" d="M581.82,-628.95C578.5,-628.29 575.21,-627.63 572,-627 499.91,-612.77 416.65,-597.02 362.99,-586.95"/>
<polygon fill="midnightblue" stroke="midnightblue" points="363.47,-583.48 352.99,-585.08 362.18,-590.36 363.47,-583.48"/>
</g>
<!-- Node5 -->
<g id="node5" class="node">
<title>Node5</title>
<g id="a_node5"><a xlink:href="../../de/d76/Array_8hpp.html" target="_top" xlink:title=" ">
<polygon fill="white" stroke="black" points="1081.5,-504.5 1081.5,-523.5 1216.5,-523.5 1216.5,-504.5 1081.5,-504.5"/>
<text text-anchor="middle" x="1149" y="-511.5" font-family="Helvetica,sans-Serif" font-size="10.00">AH/Containers/Array.hpp</text>
</a>
</g>
</g>
<!-- Node4&#45;&gt;Node5 -->
<g id="edge4" class="edge">
<title>Node4&#45;&gt;Node5</title>
<path fill="none" stroke="midnightblue" d="M708.63,-566.78C801.83,-555.82 972.2,-535.79 1071.5,-524.11"/>
<polygon fill="midnightblue" stroke="midnightblue" points="1071.95,-527.58 1081.47,-522.94 1071.13,-520.63 1071.95,-527.58"/>
</g>
<!-- Node4&#45;&gt;Node14 -->
<g id="edge33" class="edge">
<title>Node4&#45;&gt;Node14</title>
<path fill="none" stroke="midnightblue" d="M611.11,-560.41C575.86,-542.41 524,-507.66 524,-459 524,-459 524,-459 524,-177 524,-142.81 540.6,-105.76 551.86,-84.57"/>
<polygon fill="midnightblue" stroke="midnightblue" points="554.95,-86.22 556.72,-75.77 548.82,-82.83 554.95,-86.22"/>
</g>
<!-- Node22 -->
<g id="node22" class="node">
<title>Node22</title>
<g id="a_node22"><a xlink:title=" ">
<polygon fill="white" stroke="#bfbfbf" points="402.5,-224.5 402.5,-243.5 455.5,-243.5 455.5,-224.5 402.5,-224.5"/>
<text text-anchor="middle" x="429" y="-231.5" font-family="Helvetica,sans-Serif" font-size="10.00">stdint.h</text>
</a>
</g>
</g>
<!-- Node4&#45;&gt;Node22 -->
<g id="edge34" class="edge">
<title>Node4&#45;&gt;Node22</title>
<path fill="none" stroke="midnightblue" d="M577.48,-561.64C553.66,-554.11 528.17,-542.33 510,-524 488.32,-502.12 486,-489.8 486,-459 486,-459 486,-459 486,-345 486,-308.3 460.68,-271.66 443.79,-251.3"/>
<polygon fill="midnightblue" stroke="midnightblue" points="446.35,-248.9 437.17,-243.62 441.05,-253.48 446.35,-248.9"/>
</g>
<!-- Node6 -->
<g id="node6" class="node">
<title>Node6</title>
<g id="a_node6"><a xlink:href="../../d1/d93/Error_8hpp.html" target="_top" xlink:title=" ">
<polygon fill="white" stroke="black" points="590,-448.5 590,-467.5 694,-467.5 694,-448.5 590,-448.5"/>
<text text-anchor="middle" x="642" y="-455.5" font-family="Helvetica,sans-Serif" font-size="10.00">AH/Error/Error.hpp</text>
</a>
</g>
</g>
<!-- Node5&#45;&gt;Node6 -->
<g id="edge5" class="edge">
<title>Node5&#45;&gt;Node6</title>
<path fill="none" stroke="midnightblue" d="M1081.27,-507.14C995.82,-499.53 844.12,-485.3 704.27,-468.11"/>
<polygon fill="midnightblue" stroke="midnightblue" points="704.58,-464.62 694.22,-466.87 703.72,-471.57 704.58,-464.62"/>
</g>
<!-- Node15 -->
<g id="node15" class="node">
<title>Node15</title>
<g id="a_node15"><a xlink:title=" ">
<polygon fill="white" stroke="#bfbfbf" points="1371.5,-112.5 1371.5,-131.5 1478.5,-131.5 1478.5,-112.5 1371.5,-112.5"/>
<text text-anchor="middle" x="1425" y="-119.5" font-family="Helvetica,sans-Serif" font-size="10.00">AH/STL/type_traits</text>
</a>
</g>
</g>
<!-- Node5&#45;&gt;Node15 -->
<g id="edge31" class="edge">
<title>Node5&#45;&gt;Node15</title>
<path fill="none" stroke="midnightblue" d="M1189.41,-504.49C1274.21,-484.01 1463,-423.52 1463,-291 1463,-291 1463,-291 1463,-233 1463,-198.81 1446.4,-161.76 1435.14,-140.57"/>
<polygon fill="midnightblue" stroke="midnightblue" points="1438.18,-138.83 1430.28,-131.77 1432.05,-142.22 1438.18,-138.83"/>
</g>
<!-- Node21 -->
<g id="node21" class="node">
<title>Node21</title>
<g id="a_node21"><a xlink:title=" ">
<polygon fill="white" stroke="#bfbfbf" points="1091,-224.5 1091,-243.5 1147,-243.5 1147,-224.5 1091,-224.5"/>
<text text-anchor="middle" x="1119" y="-231.5" font-family="Helvetica,sans-Serif" font-size="10.00">stddef.h</text>
</a>
</g>
</g>
<!-- Node5&#45;&gt;Node21 -->
<g id="edge32" class="edge">
<title>Node5&#45;&gt;Node21</title>
<path fill="none" stroke="midnightblue" d="M1159.99,-504.37C1169.45,-496.17 1182.44,-482.92 1188,-468 1191.11,-459.67 1190.19,-456.61 1188,-448 1176.54,-402.9 1152.94,-400.07 1138,-356 1126.21,-321.21 1121.68,-278.28 1119.98,-254.03"/>
<polygon fill="midnightblue" stroke="midnightblue" points="1123.46,-253.52 1119.35,-243.75 1116.47,-253.94 1123.46,-253.52"/>
</g>
<!-- Node24 -->
<g id="node24" class="node">
<title>Node24</title>
<g id="a_node24"><a xlink:title=" ">
<polygon fill="white" stroke="#bfbfbf" points="892,-392.5 892,-411.5 982,-411.5 982,-392.5 892,-392.5"/>
<text text-anchor="middle" x="937" y="-399.5" font-family="Helvetica,sans-Serif" font-size="10.00">AH/STL/iterator</text>
</a>
</g>
</g>
<!-- Node5&#45;&gt;Node24 -->
<g id="edge30" class="edge">
<title>Node5&#45;&gt;Node24</title>
<path fill="none" stroke="midnightblue" d="M1156.55,-504.48C1167.49,-491.09 1184.96,-464.9 1171,-448 1148.76,-421.07 1054.06,-410.09 992.16,-405.73"/>
<polygon fill="midnightblue" stroke="midnightblue" points="992.36,-402.24 982.14,-405.06 991.89,-409.22 992.36,-402.24"/>
</g>
<!-- Node7 -->
<g id="node7" class="node">
<title>Node7</title>
<g id="a_node7"><a xlink:href="../../df/dee/Debug_8hpp.html" target="_top" xlink:title=" ">
<polygon fill="white" stroke="black" points="590.5,-392.5 590.5,-411.5 711.5,-411.5 711.5,-392.5 590.5,-392.5"/>
<text text-anchor="middle" x="651" y="-399.5" font-family="Helvetica,sans-Serif" font-size="10.00">AH/Debug/Debug.hpp</text>
</a>
</g>
</g>
<!-- Node6&#45;&gt;Node7 -->
<g id="edge6" class="edge">
<title>Node6&#45;&gt;Node7</title>
<path fill="none" stroke="midnightblue" d="M643.49,-448.08C644.68,-440.93 646.39,-430.64 647.88,-421.69"/>
<polygon fill="midnightblue" stroke="midnightblue" points="651.35,-422.19 649.54,-411.75 644.45,-421.04 651.35,-422.19"/>
</g>
<!-- Node8 -->
<g id="node8" class="node">
<title>Node8</title>
<g id="a_node8"><a xlink:href="../../dd/d80/PrintStream_8hpp.html" target="_top" xlink:title=" ">
<polygon fill="white" stroke="black" points="1147.5,-336.5 1147.5,-355.5 1320.5,-355.5 1320.5,-336.5 1147.5,-336.5"/>
<text text-anchor="middle" x="1234" y="-343.5" font-family="Helvetica,sans-Serif" font-size="10.00">AH/PrintStream/PrintStream.hpp</text>
</a>
</g>
</g>
<!-- Node7&#45;&gt;Node8 -->
<g id="edge7" class="edge">
<title>Node7&#45;&gt;Node8</title>
<path fill="none" stroke="midnightblue" d="M711.74,-395.37C812.8,-386.01 1016.28,-367.17 1137.26,-355.96"/>
<polygon fill="midnightblue" stroke="midnightblue" points="1137.63,-359.44 1147.26,-355.03 1136.98,-352.47 1137.63,-359.44"/>
</g>
<!-- Node16 -->
<g id="node16" class="node">
<title>Node16</title>
<g id="a_node16"><a xlink:href="../../d2/dd5/SettingsWrapper_8hpp.html" target="_top" xlink:title=" ">
<polygon fill="white" stroke="black" points="552,-336.5 552,-355.5 730,-355.5 730,-336.5 552,-336.5"/>
<text text-anchor="middle" x="641" y="-343.5" font-family="Helvetica,sans-Serif" font-size="10.00">AH/Settings/SettingsWrapper.hpp</text>
</a>
</g>
</g>
<!-- Node7&#45;&gt;Node16 -->
<g id="edge18" class="edge">
<title>Node7&#45;&gt;Node16</title>
<path fill="none" stroke="midnightblue" d="M644.18,-392.08C641.38,-385.01 639.06,-374.86 638.04,-365.99"/>
<polygon fill="midnightblue" stroke="midnightblue" points="641.52,-365.55 637.49,-355.75 634.53,-365.92 641.52,-365.55"/>
</g>
<!-- Node8&#45;&gt;Node9 -->
<g id="edge8" class="edge">
<title>Node8&#45;&gt;Node9</title>
<path fill="none" stroke="midnightblue" d="M1234,-336.08C1234,-309.95 1234,-233.21 1234,-197.58"/>
<polygon fill="midnightblue" stroke="midnightblue" points="1237.5,-197.57 1234,-187.57 1230.5,-197.57 1237.5,-197.57"/>
</g>
<!-- Node8&#45;&gt;Node14 -->
<g id="edge17" class="edge">
<title>Node8&#45;&gt;Node14</title>
<path fill="none" stroke="midnightblue" d="M1231,-336.42C1222.78,-314.17 1197.65,-254.26 1156,-224 1111,-191.31 745.05,-107.68 610.99,-77.81"/>
<polygon fill="midnightblue" stroke="midnightblue" points="611.51,-74.34 600.99,-75.58 609.99,-81.17 611.51,-74.34"/>
</g>
<!-- Node10 -->
<g id="node10" class="node">
<title>Node10</title>
<g id="a_node10"><a xlink:href="../../d7/d79/MinMaxFix_8hpp.html" target="_top" xlink:title=" ">
<polygon fill="white" stroke="black" points="877,-112.5 877,-131.5 1013,-131.5 1013,-112.5 877,-112.5"/>
<text text-anchor="middle" x="945" y="-119.5" font-family="Helvetica,sans-Serif" font-size="10.00">AH/Math/MinMaxFix.hpp</text>
</a>
</g>
</g>
<!-- Node9&#45;&gt;Node10 -->
<g id="edge9" class="edge">
<title>Node9&#45;&gt;Node10</title>
<path fill="none" stroke="midnightblue" d="M1188.21,-168.44C1137.26,-158.92 1054.97,-143.55 1000.43,-133.36"/>
<polygon fill="midnightblue" stroke="midnightblue" points="1001.05,-129.91 990.58,-131.52 999.77,-136.79 1001.05,-129.91"/>
</g>
<!-- Node13 -->
<g id="node13" class="node">
<title>Node13</title>
<g id="a_node13"><a xlink:title=" ">
<polygon fill="white" stroke="#bfbfbf" points="1013.5,-0.5 1013.5,-19.5 1076.5,-19.5 1076.5,-0.5 1013.5,-0.5"/>
<text text-anchor="middle" x="1045" y="-7.5" font-family="Helvetica,sans-Serif" font-size="10.00">Arduino.h</text>
</a>
</g>
</g>
<!-- Node9&#45;&gt;Node13 -->
<g id="edge16" class="edge">
<title>Node9&#45;&gt;Node13</title>
<path fill="none" stroke="midnightblue" d="M1224.1,-168.31C1193.74,-141.64 1101.6,-60.72 1062.67,-26.52"/>
<polygon fill="midnightblue" stroke="midnightblue" points="1064.62,-23.57 1054.8,-19.61 1060,-28.83 1064.62,-23.57"/>
</g>
<!-- Node9&#45;&gt;Node15 -->
<g id="edge15" class="edge">
<title>Node9&#45;&gt;Node15</title>
<path fill="none" stroke="midnightblue" d="M1264.26,-168.44C1296.96,-159.2 1349.18,-144.44 1385.18,-134.26"/>
<polygon fill="midnightblue" stroke="midnightblue" points="1386.21,-137.61 1394.88,-131.52 1384.3,-130.87 1386.21,-137.61"/>
</g>
<!-- Node11 -->
<g id="node11" class="node">
<title>Node11</title>
<g id="a_node11"><a xlink:href="../../d6/d3b/FixArduinoMacros_8hpp.html" target="_top" xlink:title=" ">
<polygon fill="white" stroke="black" points="860,-56.5 860,-75.5 1030,-75.5 1030,-56.5 860,-56.5"/>
<text text-anchor="middle" x="945" y="-63.5" font-family="Helvetica,sans-Serif" font-size="10.00">AH/Math/FixArduinoMacros.hpp</text>
</a>
</g>
</g>
<!-- Node10&#45;&gt;Node11 -->
<g id="edge10" class="edge">
<title>Node10&#45;&gt;Node11</title>
<path fill="none" stroke="midnightblue" d="M945,-112.08C945,-105.01 945,-94.86 945,-85.99"/>
<polygon fill="midnightblue" stroke="midnightblue" points="948.5,-85.75 945,-75.75 941.5,-85.75 948.5,-85.75"/>
</g>
<!-- Node10&#45;&gt;Node14 -->
<g id="edge13" class="edge">
<title>Node10&#45;&gt;Node14</title>
<path fill="none" stroke="midnightblue" d="M884.31,-112.44C815.82,-102.79 704.56,-87.1 632.33,-76.92"/>
<polygon fill="midnightblue" stroke="midnightblue" points="632.79,-73.45 622.4,-75.52 631.82,-80.38 632.79,-73.45"/>
</g>
<!-- Node12 -->
<g id="node12" class="node">
<title>Node12</title>
<g id="a_node12"><a xlink:href="../../d1/d65/Warnings_8hpp.html" target="_top" xlink:title=" ">
<polygon fill="white" stroke="black" points="721.5,-0.5 721.5,-19.5 864.5,-19.5 864.5,-0.5 721.5,-0.5"/>
<text text-anchor="middle" x="793" y="-7.5" font-family="Helvetica,sans-Serif" font-size="10.00">AH/Settings/Warnings.hpp</text>
</a>
</g>
</g>
<!-- Node11&#45;&gt;Node12 -->
<g id="edge11" class="edge">
<title>Node11&#45;&gt;Node12</title>
<path fill="none" stroke="midnightblue" d="M920.92,-56.44C895.46,-47.4 855.11,-33.06 826.54,-22.92"/>
<polygon fill="midnightblue" stroke="midnightblue" points="827.57,-19.57 816.97,-19.52 825.22,-26.16 827.57,-19.57"/>
</g>
<!-- Node11&#45;&gt;Node13 -->
<g id="edge12" class="edge">
<title>Node11&#45;&gt;Node13</title>
<path fill="none" stroke="midnightblue" d="M961.07,-56.32C976.96,-47.74 1001.51,-34.49 1019.96,-24.52"/>
<polygon fill="midnightblue" stroke="midnightblue" points="1021.84,-27.49 1028.97,-19.65 1018.51,-21.33 1021.84,-27.49"/>
</g>
<!-- Node14&#45;&gt;Node12 -->
<g id="edge14" class="edge">
<title>Node14&#45;&gt;Node12</title>
<path fill="none" stroke="midnightblue" d="M598.6,-56.44C638.73,-47.06 703.2,-31.99 746.78,-21.8"/>
<polygon fill="midnightblue" stroke="midnightblue" points="747.63,-25.2 756.57,-19.52 746.03,-18.38 747.63,-25.2"/>
</g>
<!-- Node16&#45;&gt;Node7 -->
<g id="edge29" class="edge">
<title>Node16&#45;&gt;Node7</title>
<path fill="none" stroke="midnightblue" d="M647.75,-355.75C650.56,-362.78 652.89,-372.91 653.94,-381.8"/>
<polygon fill="midnightblue" stroke="midnightblue" points="650.46,-382.29 654.52,-392.08 657.45,-381.9 650.46,-382.29"/>
</g>
<!-- Node16&#45;&gt;Node14 -->
<g id="edge19" class="edge">
<title>Node16&#45;&gt;Node14</title>
<path fill="none" stroke="midnightblue" d="M624.11,-336.35C610.56,-328.58 592.05,-315.95 581,-300 563.86,-275.26 562,-265.1 562,-235 562,-235 562,-235 562,-177 562,-144.95 562,-107.64 562,-85.75"/>
<polygon fill="midnightblue" stroke="midnightblue" points="565.5,-85.56 562,-75.56 558.5,-85.56 565.5,-85.56"/>
</g>
<!-- Node17 -->
<g id="node17" class="node">
<title>Node17</title>
<g id="a_node17"><a xlink:href="../../db/d02/Settings_8hpp.html" target="_top" xlink:title="All user settings and debugging options can be changed here.">
<polygon fill="white" stroke="black" points="590.5,-280.5 590.5,-299.5 667.5,-299.5 667.5,-280.5 590.5,-280.5"/>
<text text-anchor="middle" x="629" y="-287.5" font-family="Helvetica,sans-Serif" font-size="10.00">Settings.hpp</text>
</a>
</g>
</g>
<!-- Node16&#45;&gt;Node17 -->
<g id="edge20" class="edge">
<title>Node16&#45;&gt;Node17</title>
<path fill="none" stroke="midnightblue" d="M639.02,-336.08C637.43,-328.93 635.14,-318.64 633.15,-309.69"/>
<polygon fill="midnightblue" stroke="midnightblue" points="636.53,-308.75 630.94,-299.75 629.7,-310.27 636.53,-308.75"/>
</g>
<!-- Node23 -->
<g id="node23" class="node">
<title>Node23</title>
<g id="a_node23"><a xlink:href="../../d9/d98/TeensyUSBTypes_8hpp.html" target="_top" xlink:title=" ">
<polygon fill="white" stroke="black" points="685.5,-280.5 685.5,-299.5 858.5,-299.5 858.5,-280.5 685.5,-280.5"/>
<text text-anchor="middle" x="772" y="-287.5" font-family="Helvetica,sans-Serif" font-size="10.00">AH/Teensy/TeensyUSBTypes.hpp</text>
</a>
</g>
</g>
<!-- Node16&#45;&gt;Node23 -->
<g id="edge28" class="edge">
<title>Node16&#45;&gt;Node23</title>
<path fill="none" stroke="midnightblue" d="M661.76,-336.44C683.32,-327.56 717.26,-313.56 741.79,-303.45"/>
<polygon fill="midnightblue" stroke="midnightblue" points="743.43,-306.56 751.34,-299.52 740.76,-300.09 743.43,-306.56"/>
</g>
<!-- Node18 -->
<g id="node18" class="node">
<title>Node18</title>
<g id="a_node18"><a xlink:href="../../dc/d50/Frequency_8hpp.html" target="_top" xlink:title=" ">
<polygon fill="white" stroke="black" points="590,-168.5 590,-187.5 724,-187.5 724,-168.5 590,-168.5"/>
<text text-anchor="middle" x="657" y="-175.5" font-family="Helvetica,sans-Serif" font-size="10.00">AH/Types/Frequency.hpp</text>
</a>
</g>
</g>
<!-- Node17&#45;&gt;Node18 -->
<g id="edge21" class="edge">
<title>Node17&#45;&gt;Node18</title>
<path fill="none" stroke="midnightblue" d="M631.2,-280.37C635.72,-262.62 646.14,-221.67 652.27,-197.6"/>
<polygon fill="midnightblue" stroke="midnightblue" points="655.74,-198.15 654.81,-187.59 648.95,-196.42 655.74,-198.15"/>
</g>
<!-- Node19 -->
<g id="node19" class="node">
<title>Node19</title>
<g id="a_node19"><a xlink:href="../../d7/d7c/ADCConfig_8hpp.html" target="_top" xlink:title="This file contains the platform&#45;specific ADC resolutions.">
<polygon fill="white" stroke="black" points="915.5,-224.5 915.5,-243.5 1072.5,-243.5 1072.5,-224.5 915.5,-224.5"/>
<text text-anchor="middle" x="994" y="-231.5" font-family="Helvetica,sans-Serif" font-size="10.00">AH/Hardware/ADCConfig.hpp</text>
</a>
</g>
</g>
<!-- Node17&#45;&gt;Node19 -->
<g id="edge23" class="edge">
<title>Node17&#45;&gt;Node19</title>
<path fill="none" stroke="midnightblue" d="M667.7,-281.43C670.51,-280.93 673.3,-280.45 676,-280 757.97,-266.36 852.27,-253.35 916.76,-244.86"/>
<polygon fill="midnightblue" stroke="midnightblue" points="917.39,-248.31 926.85,-243.54 916.48,-241.37 917.39,-248.31"/>
</g>
<!-- Node20 -->
<g id="node20" class="node">
<title>Node20</title>
<g id="a_node20"><a xlink:title=" ">
<polygon fill="white" stroke="#bfbfbf" points="657.5,-224.5 657.5,-243.5 710.5,-243.5 710.5,-224.5 657.5,-224.5"/>
<text text-anchor="middle" x="684" y="-231.5" font-family="Helvetica,sans-Serif" font-size="10.00">limits.h</text>
</a>
</g>
</g>
<!-- Node17&#45;&gt;Node20 -->
<g id="edge25" class="edge">
<title>Node17&#45;&gt;Node20</title>
<path fill="none" stroke="midnightblue" d="M638.08,-280.08C646.17,-272.14 658.2,-260.34 667.91,-250.8"/>
<polygon fill="midnightblue" stroke="midnightblue" points="670.4,-253.25 675.09,-243.75 665.5,-248.26 670.4,-253.25"/>
</g>
<!-- Node17&#45;&gt;Node21 -->
<g id="edge26" class="edge">
<title>Node17&#45;&gt;Node21</title>
<path fill="none" stroke="midnightblue" d="M667.68,-281.27C670.49,-280.81 673.28,-280.38 676,-280 854.97,-254.98 902.62,-272.9 1081,-244 1081.1,-243.98 1081.2,-243.97 1081.3,-243.95"/>
<polygon fill="midnightblue" stroke="midnightblue" points="1081.69,-247.44 1090.87,-242.14 1080.39,-240.56 1081.69,-247.44"/>
</g>
<!-- Node17&#45;&gt;Node22 -->
<g id="edge27" class="edge">
<title>Node17&#45;&gt;Node22</title>
<path fill="none" stroke="midnightblue" d="M597.31,-280.44C561.57,-270.79 503.53,-255.12 465.81,-244.94"/>
<polygon fill="midnightblue" stroke="midnightblue" points="466.31,-241.45 455.74,-242.22 464.48,-248.21 466.31,-241.45"/>
</g>
<!-- Node18&#45;&gt;Node14 -->
<g id="edge22" class="edge">
<title>Node18&#45;&gt;Node14</title>
<path fill="none" stroke="midnightblue" d="M649.55,-168.37C633.73,-150.05 596.59,-107.05 576.13,-83.36"/>
<polygon fill="midnightblue" stroke="midnightblue" points="578.6,-80.87 569.42,-75.59 573.31,-85.45 578.6,-80.87"/>
</g>
<!-- Node19&#45;&gt;Node9 -->
<g id="edge24" class="edge">
<title>Node19&#45;&gt;Node9</title>
<path fill="none" stroke="midnightblue" d="M1032.03,-224.44C1073.81,-215.04 1140.98,-199.93 1186.27,-189.74"/>
<polygon fill="midnightblue" stroke="midnightblue" points="1187.16,-193.13 1196.15,-187.52 1185.62,-186.3 1187.16,-193.13"/>
</g>
<!-- Node25&#45;&gt;Node14 -->
<g id="edge38" class="edge">
<title>Node25&#45;&gt;Node14</title>
<path fill="none" stroke="midnightblue" d="M283.36,-565.93C264.4,-557.89 238.48,-544.08 223,-524 204.62,-500.17 204,-489.1 204,-459 204,-459 204,-459 204,-177 204,-121.26 364.61,-90.84 470.68,-76.83"/>
<polygon fill="midnightblue" stroke="midnightblue" points="471.3,-80.28 480.76,-75.52 470.4,-73.33 471.3,-80.28"/>
</g>
<!-- Node26 -->
<g id="node26" class="node">
<title>Node26</title>
<g id="a_node26"><a xlink:title=" ">
<polygon fill="white" stroke="#bfbfbf" points="330,-504.5 330,-523.5 420,-523.5 420,-504.5 330,-504.5"/>
<text text-anchor="middle" x="375" y="-511.5" font-family="Helvetica,sans-Serif" font-size="10.00">AH/STL/cstddef</text>
</a>
</g>
</g>
<!-- Node25&#45;&gt;Node26 -->
<g id="edge36" class="edge">
<title>Node25&#45;&gt;Node26</title>
<path fill="none" stroke="midnightblue" d="M316.74,-565.98C327.35,-556.7 344.52,-541.67 357.48,-530.33"/>
<polygon fill="midnightblue" stroke="midnightblue" points="360.05,-532.73 365.28,-523.51 355.44,-527.46 360.05,-532.73"/>
</g>
<!-- Node27 -->
<g id="node27" class="node">
<title>Node27</title>
<g id="a_node27"><a xlink:title=" ">
<polygon fill="white" stroke="#bfbfbf" points="232.5,-504.5 232.5,-523.5 311.5,-523.5 311.5,-504.5 232.5,-504.5"/>
<text text-anchor="middle" x="272" y="-511.5" font-family="Helvetica,sans-Serif" font-size="10.00">AH/STL/tuple</text>
</a>
</g>
</g>
<!-- Node25&#45;&gt;Node27 -->
<g id="edge37" class="edge">
<title>Node25&#45;&gt;Node27</title>
<path fill="none" stroke="midnightblue" d="M301.99,-565.98C296.84,-557.23 288.69,-543.37 282.18,-532.31"/>
<polygon fill="midnightblue" stroke="midnightblue" points="285.09,-530.35 277.01,-523.51 279.06,-533.9 285.09,-530.35"/>
</g>
<!-- Node29&#45;&gt;Node1 -->
<g id="edge76" class="edge">
<title>Node29&#45;&gt;Node1</title>
<path fill="none" stroke="midnightblue" d="M455.13,-937.75C456.66,-944.86 457.1,-955.14 456.47,-964.1"/>
<polygon fill="midnightblue" stroke="midnightblue" points="452.99,-963.71 455.17,-974.08 459.93,-964.62 452.99,-963.71"/>
</g>
<!-- Node29&#45;&gt;Node9 -->
<g id="edge75" class="edge">
<title>Node29&#45;&gt;Node9</title>
<path fill="none" stroke="midnightblue" d="M508.66,-926.69C721.54,-924.79 1441,-911.4 1441,-817 1441,-817 1441,-817 1441,-457 1441,-337.54 1396.99,-302.57 1307,-224 1292.83,-211.63 1274.87,-200.51 1260.31,-192.42"/>
<polygon fill="midnightblue" stroke="midnightblue" points="1261.77,-189.23 1251.31,-187.56 1258.44,-195.39 1261.77,-189.23"/>
</g>
<!-- Node30 -->
<g id="node30" class="node">
<title>Node30</title>
<g id="a_node30"><a xlink:href="../../d8/d93/ShiftRegisterOutBase_8hpp.html" target="_top" xlink:title=" ">
<polygon fill="white" stroke="black" points="379.5,-862.5 379.5,-881.5 520.5,-881.5 520.5,-862.5 379.5,-862.5"/>
<text text-anchor="middle" x="450" y="-869.5" font-family="Helvetica,sans-Serif" font-size="10.00">ShiftRegisterOutBase.hpp</text>
</a>
</g>
</g>
<!-- Node29&#45;&gt;Node30 -->
<g id="edge43" class="edge">
<title>Node29&#45;&gt;Node30</title>
<path fill="none" stroke="midnightblue" d="M450,-918.08C450,-911.01 450,-900.86 450,-891.99"/>
<polygon fill="midnightblue" stroke="midnightblue" points="453.5,-891.75 450,-881.75 446.5,-891.75 453.5,-891.75"/>
</g>
<!-- Node30&#45;&gt;Node2 -->
<g id="edge44" class="edge">
<title>Node30&#45;&gt;Node2</title>
<path fill="none" stroke="midnightblue" d="M476.66,-862.47C494.08,-855.47 515.79,-843.79 528,-826 549.29,-794.99 550.23,-749.05 548.78,-723.63"/>
<polygon fill="midnightblue" stroke="midnightblue" points="552.26,-723.23 548.01,-713.52 545.28,-723.76 552.26,-723.23"/>
</g>
<!-- Node31 -->
<g id="node31" class="node">
<title>Node31</title>
<g id="a_node31"><a xlink:href="../../d2/d05/StaticSizeExtendedIOElement_8hpp.html" target="_top" xlink:title=" ">
<polygon fill="white" stroke="black" points="641,-806.5 641,-825.5 823,-825.5 823,-806.5 641,-806.5"/>
<text text-anchor="middle" x="732" y="-813.5" font-family="Helvetica,sans-Serif" font-size="10.00">StaticSizeExtendedIOElement.hpp</text>
</a>
</g>
</g>
<!-- Node30&#45;&gt;Node31 -->
<g id="edge45" class="edge">
<title>Node30&#45;&gt;Node31</title>
<path fill="none" stroke="midnightblue" d="M494.68,-862.44C544.29,-852.94 624.36,-837.61 677.59,-827.42"/>
<polygon fill="midnightblue" stroke="midnightblue" points="678.36,-830.83 687.53,-825.52 677.05,-823.96 678.36,-830.83"/>
</g>
<!-- Node40 -->
<g id="node40" class="node">
<title>Node40</title>
<g id="a_node40"><a xlink:href="../../d1/d40/BitArray_8hpp.html" target="_top" xlink:title=" ">
<polygon fill="white" stroke="black" points="27.5,-504.5 27.5,-523.5 176.5,-523.5 176.5,-504.5 27.5,-504.5"/>
<text text-anchor="middle" x="102" y="-511.5" font-family="Helvetica,sans-Serif" font-size="10.00">AH/Containers/BitArray.hpp</text>
</a>
</g>
</g>
<!-- Node30&#45;&gt;Node40 -->
<g id="edge65" class="edge">
<title>Node30&#45;&gt;Node40</title>
<path fill="none" stroke="midnightblue" d="M379.16,-867.91C277.41,-859.24 102,-826.66 102,-705 102,-705 102,-705 102,-641.5 102,-603.2 102,-558.38 102,-533.7"/>
<polygon fill="midnightblue" stroke="midnightblue" points="105.5,-533.59 102,-523.59 98.5,-533.59 105.5,-533.59"/>
</g>
<!-- Node41 -->
<g id="node41" class="node">
<title>Node41</title>
<g id="a_node41"><a xlink:href="../../d5/d47/ShiftRegisterOutBase_8ipp.html" target="_top" xlink:title=" ">
<polygon fill="white" stroke="black" points="381,-806.5 381,-825.5 519,-825.5 519,-806.5 381,-806.5"/>
<text text-anchor="middle" x="450" y="-813.5" font-family="Helvetica,sans-Serif" font-size="10.00">ShiftRegisterOutBase.ipp</text>
</a>
</g>
</g>
<!-- Node30&#45;&gt;Node41 -->
<g id="edge69" class="edge">
<title>Node30&#45;&gt;Node41</title>
<path fill="none" stroke="midnightblue" d="M444.83,-862.08C443.32,-854.93 442.89,-844.64 443.54,-835.69"/>
<polygon fill="midnightblue" stroke="midnightblue" points="447.02,-836.13 444.87,-825.75 440.08,-835.2 447.02,-836.13"/>
</g>
<!-- Node32 -->
<g id="node32" class="node">
<title>Node32</title>
<g id="a_node32"><a xlink:href="../../d4/d57/ExtendedIOElement_8hpp.html" target="_top" xlink:title=" ">
<polygon fill="white" stroke="black" points="665,-750.5 665,-769.5 799,-769.5 799,-750.5 665,-750.5"/>
<text text-anchor="middle" x="732" y="-757.5" font-family="Helvetica,sans-Serif" font-size="10.00">ExtendedIOElement.hpp</text>
</a>
</g>
</g>
<!-- Node31&#45;&gt;Node32 -->
<g id="edge46" class="edge">
<title>Node31&#45;&gt;Node32</title>
<path fill="none" stroke="midnightblue" d="M732,-806.08C732,-799.01 732,-788.86 732,-779.99"/>
<polygon fill="midnightblue" stroke="midnightblue" points="735.5,-779.75 732,-769.75 728.5,-779.75 735.5,-779.75"/>
</g>
<!-- Node38 -->
<g id="node38" class="node">
<title>Node38</title>
<g id="a_node38"><a xlink:href="../../d5/db6/ArrayHelpers_8hpp.html" target="_top" xlink:title=" ">
<polygon fill="white" stroke="black" points="1110,-566 1110,-585 1284,-585 1284,-566 1110,-566"/>
<text text-anchor="middle" x="1197" y="-573" font-family="Helvetica,sans-Serif" font-size="10.00">AH/Containers/ArrayHelpers.hpp</text>
</a>
</g>
</g>
<!-- Node31&#45;&gt;Node38 -->
<g id="edge61" class="edge">
<title>Node31&#45;&gt;Node38</title>
<path fill="none" stroke="midnightblue" d="M748.82,-806.37C818.75,-770.51 1086.68,-633.08 1171.26,-589.7"/>
<polygon fill="midnightblue" stroke="midnightblue" points="1172.9,-592.8 1180.2,-585.12 1169.7,-586.57 1172.9,-592.8"/>
</g>
<!-- Node32&#45;&gt;Node2 -->
<g id="edge47" class="edge">
<title>Node32&#45;&gt;Node2</title>
<path fill="none" stroke="midnightblue" d="M702.69,-750.44C671.16,-741.24 620.87,-726.56 586.01,-716.39"/>
<polygon fill="midnightblue" stroke="midnightblue" points="586.76,-712.96 576.18,-713.52 584.8,-719.68 586.76,-712.96"/>
</g>
<!-- Node32&#45;&gt;Node4 -->
<g id="edge60" class="edge">
<title>Node32&#45;&gt;Node4</title>
<path fill="none" stroke="midnightblue" d="M732.96,-750.21C734.98,-727.82 737.58,-667.6 713,-627 705.38,-614.42 693.31,-604.06 681.32,-596.07"/>
<polygon fill="midnightblue" stroke="midnightblue" points="683.01,-592.99 672.68,-590.67 679.31,-598.93 683.01,-592.99"/>
</g>
<!-- Node33 -->
<g id="node33" class="node">
<title>Node33</title>
<g id="a_node33"><a xlink:href="../../d4/d93/Updatable_8hpp.html" target="_top" xlink:title=" ">
<polygon fill="white" stroke="black" points="765.5,-504.5 765.5,-523.5 926.5,-523.5 926.5,-504.5 765.5,-504.5"/>
<text text-anchor="middle" x="846" y="-511.5" font-family="Helvetica,sans-Serif" font-size="10.00">AH/Containers/Updatable.hpp</text>
</a>
</g>
</g>
<!-- Node32&#45;&gt;Node33 -->
<g id="edge48" class="edge">
<title>Node32&#45;&gt;Node33</title>
<path fill="none" stroke="midnightblue" d="M736.06,-750.32C752.58,-714.96 814.96,-581.44 837.67,-532.84"/>
<polygon fill="midnightblue" stroke="midnightblue" points="840.93,-534.12 841.99,-523.58 834.59,-531.16 840.93,-534.12"/>
</g>
<!-- Node33&#45;&gt;Node6 -->
<g id="edge55" class="edge">
<title>Node33&#45;&gt;Node6</title>
<path fill="none" stroke="midnightblue" d="M813.68,-504.44C778.61,-495.16 722.5,-480.31 684.04,-470.13"/>
<polygon fill="midnightblue" stroke="midnightblue" points="684.74,-466.69 674.17,-467.52 682.94,-473.46 684.74,-466.69"/>
</g>
<!-- Node33&#45;&gt;Node15 -->
<g id="edge56" class="edge">
<title>Node33&#45;&gt;Node15</title>
<path fill="none" stroke="midnightblue" d="M926.83,-512.4C994.29,-509.44 1091.83,-499.36 1171,-468 1251.03,-436.3 1275.38,-423.33 1329,-356 1383.42,-287.66 1411.35,-184.16 1421.01,-141.94"/>
<polygon fill="midnightblue" stroke="midnightblue" points="1424.48,-142.46 1423.21,-131.95 1417.64,-140.96 1424.48,-142.46"/>
</g>
<!-- Node33&#45;&gt;Node16 -->
<g id="edge58" class="edge">
<title>Node33&#45;&gt;Node16</title>
<path fill="none" stroke="midnightblue" d="M765.36,-510.4C696.26,-506.26 604.3,-495.59 581,-468 559.21,-442.19 565.89,-422.21 581,-392 587.73,-378.54 600.61,-368.07 612.71,-360.62"/>
<polygon fill="midnightblue" stroke="midnightblue" points="614.73,-363.5 621.7,-355.52 611.28,-357.41 614.73,-363.5"/>
</g>
<!-- Node33&#45;&gt;Node21 -->
<g id="edge59" class="edge">
<title>Node33&#45;&gt;Node21</title>
<path fill="none" stroke="midnightblue" d="M854.21,-504.16C866.95,-490.8 892.64,-465.21 918,-448 947.93,-427.69 963.36,-435.34 991,-412 1047.18,-364.54 1091.7,-287.41 1109.98,-252.8"/>
<polygon fill="midnightblue" stroke="midnightblue" points="1113.31,-253.99 1114.8,-243.5 1107.09,-250.77 1113.31,-253.99"/>
</g>
<!-- Node34 -->
<g id="node34" class="node">
<title>Node34</title>
<g id="a_node34"><a xlink:href="../../d4/dba/CRTP_8hpp.html" target="_top" xlink:title=" ">
<polygon fill="white" stroke="black" points="927,-448.5 927,-467.5 1061,-467.5 1061,-448.5 927,-448.5"/>
<text text-anchor="middle" x="994" y="-455.5" font-family="Helvetica,sans-Serif" font-size="10.00">AH/Containers/CRTP.hpp</text>
</a>
</g>
</g>
<!-- Node33&#45;&gt;Node34 -->
<g id="edge49" class="edge">
<title>Node33&#45;&gt;Node34</title>
<path fill="none" stroke="midnightblue" d="M869.45,-504.44C894.13,-495.44 933.19,-481.19 960.98,-471.05"/>
<polygon fill="midnightblue" stroke="midnightblue" points="962.46,-474.23 970.66,-467.52 960.06,-467.66 962.46,-474.23"/>
</g>
<!-- Node35 -->
<g id="node35" class="node">
<title>Node35</title>
<g id="a_node35"><a xlink:href="../../de/dd1/LinkedList_8hpp.html" target="_top" xlink:title=" ">
<polygon fill="white" stroke="black" points="712.5,-448.5 712.5,-467.5 871.5,-467.5 871.5,-448.5 712.5,-448.5"/>
<text text-anchor="middle" x="792" y="-455.5" font-family="Helvetica,sans-Serif" font-size="10.00">AH/Containers/LinkedList.hpp</text>
</a>
</g>
</g>
<!-- Node33&#45;&gt;Node35 -->
<g id="edge50" class="edge">
<title>Node33&#45;&gt;Node35</title>
<path fill="none" stroke="midnightblue" d="M837.08,-504.08C829.22,-496.22 817.57,-484.57 808.08,-475.08"/>
<polygon fill="midnightblue" stroke="midnightblue" points="810.3,-472.35 800.75,-467.75 805.35,-477.3 810.3,-472.35"/>
</g>
<!-- Node37 -->
<g id="node37" class="node">
<title>Node37</title>
<g id="a_node37"><a xlink:title=" ">
<polygon fill="white" stroke="#bfbfbf" points="1079.5,-448.5 1079.5,-467.5 1162.5,-467.5 1162.5,-448.5 1079.5,-448.5"/>
<text text-anchor="middle" x="1121" y="-455.5" font-family="Helvetica,sans-Serif" font-size="10.00">AH/STL/utility</text>
</a>
</g>
</g>
<!-- Node33&#45;&gt;Node37 -->
<g id="edge57" class="edge">
<title>Node33&#45;&gt;Node37</title>
<path fill="none" stroke="midnightblue" d="M889.57,-504.44C938.42,-494.85 1017.55,-479.31 1069.43,-469.13"/>
<polygon fill="midnightblue" stroke="midnightblue" points="1070.29,-472.52 1079.43,-467.16 1068.94,-465.66 1070.29,-472.52"/>
</g>
<!-- Node35&#45;&gt;Node7 -->
<g id="edge51" class="edge">
<title>Node35&#45;&gt;Node7</title>
<path fill="none" stroke="midnightblue" d="M769.66,-448.44C746.25,-439.48 709.26,-425.31 682.81,-415.18"/>
<polygon fill="midnightblue" stroke="midnightblue" points="683.83,-411.82 673.24,-411.52 681.32,-418.36 683.83,-411.82"/>
</g>
<!-- Node35&#45;&gt;Node10 -->
<g id="edge52" class="edge">
<title>Node35&#45;&gt;Node10</title>
<path fill="none" stroke="midnightblue" d="M793.77,-448.33C796.53,-435.63 802.46,-411.36 811,-392 830.33,-348.21 844.86,-342.44 867,-300 896.45,-243.56 925.06,-173.65 937.92,-141.17"/>
<polygon fill="midnightblue" stroke="midnightblue" points="941.25,-142.25 941.66,-131.66 934.74,-139.69 941.25,-142.25"/>
</g>
<!-- Node35&#45;&gt;Node24 -->
<g id="edge54" class="edge">
<title>Node35&#45;&gt;Node24</title>
<path fill="none" stroke="midnightblue" d="M814.98,-448.44C839.16,-439.44 877.42,-425.19 904.65,-415.05"/>
<polygon fill="midnightblue" stroke="midnightblue" points="905.98,-418.29 914.13,-411.52 903.54,-411.73 905.98,-418.29"/>
</g>
<!-- Node36 -->
<g id="node36" class="node">
<title>Node36</title>
<g id="a_node36"><a xlink:title=" ">
<polygon fill="white" stroke="#bfbfbf" points="820.5,-392.5 820.5,-411.5 873.5,-411.5 873.5,-392.5 820.5,-392.5"/>
<text text-anchor="middle" x="847" y="-399.5" font-family="Helvetica,sans-Serif" font-size="10.00">stdlib.h</text>
</a>
</g>
</g>
<!-- Node35&#45;&gt;Node36 -->
<g id="edge53" class="edge">
<title>Node35&#45;&gt;Node36</title>
<path fill="none" stroke="midnightblue" d="M801.08,-448.08C809.17,-440.14 821.2,-428.34 830.91,-418.8"/>
<polygon fill="midnightblue" stroke="midnightblue" points="833.4,-421.25 838.09,-411.75 828.5,-416.26 833.4,-421.25"/>
</g>
<!-- Node38&#45;&gt;Node5 -->
<g id="edge62" class="edge">
<title>Node38&#45;&gt;Node5</title>
<path fill="none" stroke="midnightblue" d="M1190.12,-565.98C1182.85,-556.96 1171.2,-542.52 1162.16,-531.31"/>
<polygon fill="midnightblue" stroke="midnightblue" points="1164.87,-529.09 1155.86,-523.51 1159.42,-533.49 1164.87,-529.09"/>
</g>
<!-- Node38&#45;&gt;Node8 -->
<g id="edge64" class="edge">
<title>Node38&#45;&gt;Node8</title>
<path fill="none" stroke="midnightblue" d="M1207.35,-565.87C1226.34,-549.26 1266.18,-510.72 1281,-468 1294.1,-430.24 1266.49,-386.73 1248.29,-363.56"/>
<polygon fill="midnightblue" stroke="midnightblue" points="1250.93,-361.25 1241.88,-355.72 1245.51,-365.68 1250.93,-361.25"/>
</g>
<!-- Node39 -->
<g id="node39" class="node">
<title>Node39</title>
<g id="a_node39"><a xlink:title=" ">
<polygon fill="white" stroke="#bfbfbf" points="1273.5,-504.5 1273.5,-523.5 1374.5,-523.5 1374.5,-504.5 1273.5,-504.5"/>
<text text-anchor="middle" x="1324" y="-511.5" font-family="Helvetica,sans-Serif" font-size="10.00">AH/STL/algorithm</text>
</a>
</g>
</g>
<!-- Node38&#45;&gt;Node39 -->
<g id="edge63" class="edge">
<title>Node38&#45;&gt;Node39</title>
<path fill="none" stroke="midnightblue" d="M1215.2,-565.98C1236.51,-555.99 1272.03,-539.35 1296.66,-527.81"/>
<polygon fill="midnightblue" stroke="midnightblue" points="1298.27,-530.92 1305.84,-523.51 1295.3,-524.58 1298.27,-530.92"/>
</g>
<!-- Node40&#45;&gt;Node6 -->
<g id="edge66" class="edge">
<title>Node40&#45;&gt;Node6</title>
<path fill="none" stroke="midnightblue" d="M176.52,-505.55C283.79,-494.82 479.8,-475.22 579.77,-465.22"/>
<polygon fill="midnightblue" stroke="midnightblue" points="580.12,-468.71 589.72,-464.23 579.43,-461.74 580.12,-468.71"/>
</g>
<!-- Node40&#45;&gt;Node14 -->
<g id="edge67" class="edge">
<title>Node40&#45;&gt;Node14</title>
<path fill="none" stroke="midnightblue" d="M106.32,-504.41C115.05,-486.2 134,-442.18 134,-403 134,-403 134,-403 134,-177 134,-138.87 156.36,-129.95 190,-112 234.37,-88.33 360.84,-76.84 454.06,-71.45"/>
<polygon fill="midnightblue" stroke="midnightblue" points="454.32,-74.94 464.11,-70.88 453.93,-67.95 454.32,-74.94"/>
</g>
<!-- Node40&#45;&gt;Node22 -->
<g id="edge68" class="edge">
<title>Node40&#45;&gt;Node22</title>
<path fill="none" stroke="midnightblue" d="M143.21,-504.48C192.08,-491.69 267,-462.39 267,-403 267,-403 267,-403 267,-345 267,-284.82 344.45,-255.27 392.25,-242.77"/>
<polygon fill="midnightblue" stroke="midnightblue" points="393.39,-246.09 402.25,-240.28 391.7,-239.3 393.39,-246.09"/>
</g>
<!-- Node41&#45;&gt;Node2 -->
<g id="edge70" class="edge">
<title>Node41&#45;&gt;Node2</title>
<path fill="none" stroke="midnightblue" d="M457.61,-806.37C473.76,-788.05 511.68,-745.05 532.57,-721.36"/>
<polygon fill="midnightblue" stroke="midnightblue" points="535.44,-723.41 539.42,-713.59 530.18,-718.78 535.44,-723.41"/>
</g>
<!-- Node41&#45;&gt;Node30 -->
<g id="edge71" class="edge">
<title>Node41&#45;&gt;Node30</title>
<path fill="none" stroke="midnightblue" d="M455.13,-825.75C456.66,-832.86 457.1,-843.14 456.47,-852.1"/>
<polygon fill="midnightblue" stroke="midnightblue" points="452.99,-851.71 455.17,-862.08 459.93,-852.62 452.99,-851.71"/>
</g>
<!-- Node42 -->
<g id="node42" class="node">
<title>Node42</title>
<g id="a_node42"><a xlink:href="../../d1/d1f/ShiftRegisterOutRGB_8hpp.html" target="_top" xlink:title=" ">
<polygon fill="white" stroke="black" points="320,-392.5 320,-411.5 458,-411.5 458,-392.5 320,-392.5"/>
<text text-anchor="middle" x="389" y="-399.5" font-family="Helvetica,sans-Serif" font-size="10.00">ShiftRegisterOutRGB.hpp</text>
</a>
</g>
</g>
<!-- Node41&#45;&gt;Node42 -->
<g id="edge72" class="edge">
<title>Node41&#45;&gt;Node42</title>
<path fill="none" stroke="midnightblue" d="M449.74,-806.44C449.2,-787.94 448,-742.82 448,-705 448,-705 448,-705 448,-513 448,-476.02 421.79,-439.47 404.31,-419.21"/>
<polygon fill="midnightblue" stroke="midnightblue" points="406.74,-416.67 397.45,-411.56 401.53,-421.34 406.74,-416.67"/>
</g>
<!-- Node42&#45;&gt;Node16 -->
<g id="edge73" class="edge">
<title>Node42&#45;&gt;Node16</title>
<path fill="none" stroke="midnightblue" d="M428.93,-392.44C472.89,-383.02 543.63,-367.87 591.18,-357.68"/>
<polygon fill="midnightblue" stroke="midnightblue" points="592.21,-361.03 601.26,-355.52 590.75,-354.19 592.21,-361.03"/>
</g>
<!-- Node42&#45;&gt;Node22 -->
<g id="edge74" class="edge">
<title>Node42&#45;&gt;Node22</title>
<path fill="none" stroke="midnightblue" d="M391.15,-392.08C397.45,-365.95 415.94,-289.21 424.52,-253.58"/>
<polygon fill="midnightblue" stroke="midnightblue" points="428,-254.11 426.94,-243.57 421.19,-252.47 428,-254.11"/>
</g>
</g>
</svg>
