<?xml version="1.0" encoding="UTF-8" standalone="no"?>
<!DOCTYPE svg PUBLIC "-//W3C//DTD SVG 1.1//EN"
 "http://www.w3.org/Graphics/SVG/1.1/DTD/svg11.dtd">
<!-- Generated by graphviz version 2.43.0 (0)
 -->
<!-- Title: ExtendedIOElement.hpp Pages: 1 -->
<svg width="1221pt" height="778pt"
 viewBox="0.00 0.00 1221.23 778.00" xmlns="http://www.w3.org/2000/svg" xmlns:xlink="http://www.w3.org/1999/xlink">
<g id="graph0" class="graph" transform="scale(1 1) rotate(0) translate(4 774)">
<title>ExtendedIOElement.hpp</title>
<polygon fill="white" stroke="transparent" points="-4,4 -4,-774 1217.23,-774 1217.23,4 -4,4"/>
<!-- Node1 -->
<g id="node1" class="node">
<title>Node1</title>
<g id="a_node1"><a xlink:title=" ">
<polygon fill="#bfbfbf" stroke="black" points="947.23,-750.5 947.23,-769.5 1081.23,-769.5 1081.23,-750.5 947.23,-750.5"/>
<text text-anchor="middle" x="1014.23" y="-757.5" font-family="Helvetica,sans-Serif" font-size="10.00">ExtendedIOElement.hpp</text>
</a>
</g>
</g>
<!-- Node2 -->
<g id="node2" class="node">
<title>Node2</title>
<g id="a_node2"><a xlink:href="../../dd/ddf/ExtendedInputOutput_8hpp.html" target="_top" xlink:title=" ">
<polygon fill="white" stroke="black" points="1042.73,-694.5 1042.73,-713.5 1183.73,-713.5 1183.73,-694.5 1042.73,-694.5"/>
<text text-anchor="middle" x="1113.23" y="-701.5" font-family="Helvetica,sans-Serif" font-size="10.00">ExtendedInputOutput.hpp</text>
</a>
</g>
</g>
<!-- Node1&#45;&gt;Node2 -->
<g id="edge1" class="edge">
<title>Node1&#45;&gt;Node2</title>
<path fill="none" stroke="midnightblue" d="M1030.14,-750.32C1045.87,-741.74 1070.18,-728.49 1088.44,-718.52"/>
<polygon fill="midnightblue" stroke="midnightblue" points="1090.26,-721.52 1097.37,-713.65 1086.91,-715.37 1090.26,-721.52"/>
</g>
<!-- Node4 -->
<g id="node4" class="node">
<title>Node4</title>
<g id="a_node4"><a xlink:href="../../d4/d35/Hardware-Types_8hpp.html" target="_top" xlink:title=" ">
<polygon fill="white" stroke="black" points="966.73,-560.5 966.73,-590.5 1097.73,-590.5 1097.73,-560.5 966.73,-560.5"/>
<text text-anchor="start" x="974.73" y="-578.5" font-family="Helvetica,sans-Serif" font-size="10.00">AH/Hardware/Hardware</text>
<text text-anchor="middle" x="1032.23" y="-567.5" font-family="Helvetica,sans-Serif" font-size="10.00">&#45;Types.hpp</text>
</a>
</g>
</g>
<!-- Node1&#45;&gt;Node4 -->
<g id="edge54" class="edge">
<title>Node1&#45;&gt;Node4</title>
<path fill="none" stroke="midnightblue" d="M1015.1,-750.2C1017.75,-723.33 1025.8,-641.74 1029.85,-600.67"/>
<polygon fill="midnightblue" stroke="midnightblue" points="1033.34,-600.99 1030.83,-590.69 1026.37,-600.3 1033.34,-600.99"/>
</g>
<!-- Node29 -->
<g id="node29" class="node">
<title>Node29</title>
<g id="a_node29"><a xlink:href="../../d4/d93/Updatable_8hpp.html" target="_top" xlink:title=" ">
<polygon fill="white" stroke="black" points="440.73,-504.5 440.73,-523.5 601.73,-523.5 601.73,-504.5 440.73,-504.5"/>
<text text-anchor="middle" x="521.23" y="-511.5" font-family="Helvetica,sans-Serif" font-size="10.00">AH/Containers/Updatable.hpp</text>
</a>
</g>
</g>
<!-- Node1&#45;&gt;Node29 -->
<g id="edge42" class="edge">
<title>Node1&#45;&gt;Node29</title>
<path fill="none" stroke="midnightblue" d="M996.98,-750.46C923.55,-714.12 636.82,-572.2 547.77,-528.13"/>
<polygon fill="midnightblue" stroke="midnightblue" points="549.12,-524.9 538.61,-523.6 546.02,-531.17 549.12,-524.9"/>
</g>
<!-- Node3 -->
<g id="node3" class="node">
<title>Node3</title>
<g id="a_node3"><a xlink:href="../../d2/d3c/Arduino-Hardware-Types_8hpp.html" target="_top" xlink:title=" ">
<polygon fill="white" stroke="black" points="829.23,-627.5 829.23,-657.5 951.23,-657.5 951.23,-627.5 829.23,-627.5"/>
<text text-anchor="start" x="837.23" y="-645.5" font-family="Helvetica,sans-Serif" font-size="10.00">AH/Hardware/Arduino</text>
<text text-anchor="middle" x="890.23" y="-634.5" font-family="Helvetica,sans-Serif" font-size="10.00">&#45;Hardware&#45;Types.hpp</text>
</a>
</g>
</g>
<!-- Node2&#45;&gt;Node3 -->
<g id="edge2" class="edge">
<title>Node2&#45;&gt;Node3</title>
<path fill="none" stroke="midnightblue" d="M1081.28,-694.48C1047.83,-685.55 994.46,-671.31 952.62,-660.14"/>
<polygon fill="midnightblue" stroke="midnightblue" points="953.35,-656.72 942.79,-657.52 951.55,-663.48 953.35,-656.72"/>
</g>
<!-- Node14 -->
<g id="node14" class="node">
<title>Node14</title>
<g id="a_node14"><a xlink:href="../../dc/dc7/NamespaceSettings_8hpp.html" target="_top" xlink:title=" ">
<polygon fill="white" stroke="black" points="850.73,-56.5 850.73,-75.5 1045.73,-75.5 1045.73,-56.5 850.73,-56.5"/>
<text text-anchor="middle" x="948.23" y="-63.5" font-family="Helvetica,sans-Serif" font-size="10.00">AH/Settings/NamespaceSettings.hpp</text>
</a>
</g>
</g>
<!-- Node2&#45;&gt;Node14 -->
<g id="edge41" class="edge">
<title>Node2&#45;&gt;Node14</title>
<path fill="none" stroke="midnightblue" d="M1127.14,-694.45C1154.62,-676.37 1213.23,-631.37 1213.23,-576.5 1213.23,-576.5 1213.23,-576.5 1213.23,-177 1213.23,-105.28 1129.41,-79.44 1056.05,-70.56"/>
<polygon fill="midnightblue" stroke="midnightblue" points="1056.11,-67.04 1045.78,-69.41 1055.33,-74 1056.11,-67.04"/>
</g>
<!-- Node28 -->
<g id="node28" class="node">
<title>Node28</title>
<g id="a_node28"><a xlink:title=" ">
<polygon fill="white" stroke="#bfbfbf" points="1069.73,-633 1069.73,-652 1156.73,-652 1156.73,-633 1069.73,-633"/>
<text text-anchor="middle" x="1113.23" y="-640" font-family="Helvetica,sans-Serif" font-size="10.00">AH/STL/climits</text>
</a>
</g>
</g>
<!-- Node2&#45;&gt;Node28 -->
<g id="edge40" class="edge">
<title>Node2&#45;&gt;Node28</title>
<path fill="none" stroke="midnightblue" d="M1113.23,-694.48C1113.23,-686.08 1113.23,-672.98 1113.23,-662.16"/>
<polygon fill="midnightblue" stroke="midnightblue" points="1116.73,-662.01 1113.23,-652.01 1109.73,-662.01 1116.73,-662.01"/>
</g>
<!-- Node3&#45;&gt;Node4 -->
<g id="edge3" class="edge">
<title>Node3&#45;&gt;Node4</title>
<path fill="none" stroke="midnightblue" d="M921.05,-627.4C941.89,-617.86 969.62,-605.16 992.17,-594.84"/>
<polygon fill="midnightblue" stroke="midnightblue" points="993.85,-597.92 1001.48,-590.58 990.93,-591.56 993.85,-597.92"/>
</g>
<!-- Node9 -->
<g id="node9" class="node">
<title>Node9</title>
<g id="a_node9"><a xlink:href="../../d6/ddf/Arduino-Wrapper_8h.html" target="_top" xlink:title=" ">
<polygon fill="white" stroke="black" points="577.23,-168.5 577.23,-187.5 701.23,-187.5 701.23,-168.5 577.23,-168.5"/>
<text text-anchor="middle" x="639.23" y="-175.5" font-family="Helvetica,sans-Serif" font-size="10.00">AH/Arduino&#45;Wrapper.h</text>
</a>
</g>
</g>
<!-- Node3&#45;&gt;Node9 -->
<g id="edge39" class="edge">
<title>Node3&#45;&gt;Node9</title>
<path fill="none" stroke="midnightblue" d="M829.11,-634.92C679.66,-617.44 302.58,-564.44 229.23,-468 161.42,-378.83 -330.38,-685.51 378.23,-224 408.65,-204.19 500.84,-191.7 567.02,-185.03"/>
<polygon fill="midnightblue" stroke="midnightblue" points="567.39,-188.51 577,-184.05 566.7,-181.55 567.39,-188.51"/>
</g>
<!-- Node25 -->
<g id="node25" class="node">
<title>Node25</title>
<g id="a_node25"><a xlink:href="../../d0/db1/FunctionTraits_8hpp.html" target="_top" xlink:title=" ">
<polygon fill="white" stroke="black" points="795.73,-566 795.73,-585 948.73,-585 948.73,-566 795.73,-566"/>
<text text-anchor="middle" x="872.23" y="-573" font-family="Helvetica,sans-Serif" font-size="10.00">AH/Types/FunctionTraits.hpp</text>
</a>
</g>
</g>
<!-- Node3&#45;&gt;Node25 -->
<g id="edge35" class="edge">
<title>Node3&#45;&gt;Node25</title>
<path fill="none" stroke="midnightblue" d="M886.33,-627.4C883.69,-617.86 880.18,-605.18 877.32,-594.86"/>
<polygon fill="midnightblue" stroke="midnightblue" points="880.68,-593.9 874.64,-585.19 873.94,-595.77 880.68,-593.9"/>
</g>
<!-- Node5 -->
<g id="node5" class="node">
<title>Node5</title>
<g id="a_node5"><a xlink:href="../../de/d76/Array_8hpp.html" target="_top" xlink:title=" ">
<polygon fill="white" stroke="black" points="935.73,-504.5 935.73,-523.5 1070.73,-523.5 1070.73,-504.5 935.73,-504.5"/>
<text text-anchor="middle" x="1003.23" y="-511.5" font-family="Helvetica,sans-Serif" font-size="10.00">AH/Containers/Array.hpp</text>
</a>
</g>
</g>
<!-- Node4&#45;&gt;Node5 -->
<g id="edge4" class="edge">
<title>Node4&#45;&gt;Node5</title>
<path fill="none" stroke="midnightblue" d="M1025.36,-560.4C1021.32,-552.11 1016.18,-541.55 1011.86,-532.71"/>
<polygon fill="midnightblue" stroke="midnightblue" points="1014.98,-531.11 1007.45,-523.66 1008.69,-534.18 1014.98,-531.11"/>
</g>
<!-- Node4&#45;&gt;Node14 -->
<g id="edge33" class="edge">
<title>Node4&#45;&gt;Node14</title>
<path fill="none" stroke="midnightblue" d="M1075.14,-560.44C1117.26,-543.62 1175.23,-511.02 1175.23,-459 1175.23,-459 1175.23,-459 1175.23,-177 1175.23,-143.98 1165.56,-131.94 1139.23,-112 1115.2,-93.8 1084.96,-82.8 1055.67,-76.21"/>
<polygon fill="midnightblue" stroke="midnightblue" points="1056.29,-72.76 1045.79,-74.13 1054.86,-79.61 1056.29,-72.76"/>
</g>
<!-- Node22 -->
<g id="node22" class="node">
<title>Node22</title>
<g id="a_node22"><a xlink:title=" ">
<polygon fill="white" stroke="#bfbfbf" points="976.73,-224.5 976.73,-243.5 1029.73,-243.5 1029.73,-224.5 976.73,-224.5"/>
<text text-anchor="middle" x="1003.23" y="-231.5" font-family="Helvetica,sans-Serif" font-size="10.00">stdint.h</text>
</a>
</g>
</g>
<!-- Node4&#45;&gt;Node22 -->
<g id="edge34" class="edge">
<title>Node4&#45;&gt;Node22</title>
<path fill="none" stroke="midnightblue" d="M1065.08,-560.36C1081.47,-551.88 1100.47,-539.68 1113.23,-524 1132.68,-500.12 1137.23,-489.8 1137.23,-459 1137.23,-459 1137.23,-459 1137.23,-401 1137.23,-331.22 1064.66,-274.24 1026.33,-249.02"/>
<polygon fill="midnightblue" stroke="midnightblue" points="1028.14,-246.02 1017.83,-243.57 1024.36,-251.91 1028.14,-246.02"/>
</g>
<!-- Node6 -->
<g id="node6" class="node">
<title>Node6</title>
<g id="a_node6"><a xlink:href="../../d1/d93/Error_8hpp.html" target="_top" xlink:title=" ">
<polygon fill="white" stroke="black" points="745.23,-448.5 745.23,-467.5 849.23,-467.5 849.23,-448.5 745.23,-448.5"/>
<text text-anchor="middle" x="797.23" y="-455.5" font-family="Helvetica,sans-Serif" font-size="10.00">AH/Error/Error.hpp</text>
</a>
</g>
</g>
<!-- Node5&#45;&gt;Node6 -->
<g id="edge5" class="edge">
<title>Node5&#45;&gt;Node6</title>
<path fill="none" stroke="midnightblue" d="M970.59,-504.44C935.18,-495.16 878.52,-480.31 839.68,-470.13"/>
<polygon fill="midnightblue" stroke="midnightblue" points="840.28,-466.67 829.72,-467.52 838.51,-473.44 840.28,-466.67"/>
</g>
<!-- Node15 -->
<g id="node15" class="node">
<title>Node15</title>
<g id="a_node15"><a xlink:title=" ">
<polygon fill="white" stroke="#bfbfbf" points="1001.73,-112.5 1001.73,-131.5 1108.73,-131.5 1108.73,-112.5 1001.73,-112.5"/>
<text text-anchor="middle" x="1055.23" y="-119.5" font-family="Helvetica,sans-Serif" font-size="10.00">AH/STL/type_traits</text>
</a>
</g>
</g>
<!-- Node5&#45;&gt;Node15 -->
<g id="edge31" class="edge">
<title>Node5&#45;&gt;Node15</title>
<path fill="none" stroke="midnightblue" d="M1011.54,-504.41C1027.58,-486.89 1061.23,-445.1 1061.23,-403 1061.23,-403 1061.23,-403 1061.23,-345 1061.23,-266.18 1086.39,-245.54 1072.23,-168 1070.55,-158.76 1067.06,-148.95 1063.68,-140.85"/>
<polygon fill="midnightblue" stroke="midnightblue" points="1066.86,-139.4 1059.6,-131.69 1060.47,-142.25 1066.86,-139.4"/>
</g>
<!-- Node21 -->
<g id="node21" class="node">
<title>Node21</title>
<g id="a_node21"><a xlink:title=" ">
<polygon fill="white" stroke="#bfbfbf" points="387.23,-224.5 387.23,-243.5 443.23,-243.5 443.23,-224.5 387.23,-224.5"/>
<text text-anchor="middle" x="415.23" y="-231.5" font-family="Helvetica,sans-Serif" font-size="10.00">stddef.h</text>
</a>
</g>
</g>
<!-- Node5&#45;&gt;Node21 -->
<g id="edge32" class="edge">
<title>Node5&#45;&gt;Node21</title>
<path fill="none" stroke="midnightblue" d="M1006.4,-504.39C1013.63,-483.07 1028.93,-427.03 1004.23,-392 929.24,-285.63 847.02,-348.46 726.23,-300 708.15,-292.75 705.77,-286 687.23,-280 589.75,-248.46 557.82,-263.52 453.45,-244.06"/>
<polygon fill="midnightblue" stroke="midnightblue" points="453.94,-240.59 443.46,-242.13 452.62,-247.46 453.94,-240.59"/>
</g>
<!-- Node24 -->
<g id="node24" class="node">
<title>Node24</title>
<g id="a_node24"><a xlink:title=" ">
<polygon fill="white" stroke="#bfbfbf" points="905.23,-392.5 905.23,-411.5 995.23,-411.5 995.23,-392.5 905.23,-392.5"/>
<text text-anchor="middle" x="950.23" y="-399.5" font-family="Helvetica,sans-Serif" font-size="10.00">AH/STL/iterator</text>
</a>
</g>
</g>
<!-- Node5&#45;&gt;Node24 -->
<g id="edge30" class="edge">
<title>Node5&#45;&gt;Node24</title>
<path fill="none" stroke="midnightblue" d="M999.07,-504.37C990.41,-486.38 970.25,-444.55 958.73,-420.63"/>
<polygon fill="midnightblue" stroke="midnightblue" points="961.87,-419.08 954.37,-411.59 955.56,-422.12 961.87,-419.08"/>
</g>
<!-- Node7 -->
<g id="node7" class="node">
<title>Node7</title>
<g id="a_node7"><a xlink:href="../../df/dee/Debug_8hpp.html" target="_top" xlink:title=" ">
<polygon fill="white" stroke="black" points="690.73,-392.5 690.73,-411.5 811.73,-411.5 811.73,-392.5 690.73,-392.5"/>
<text text-anchor="middle" x="751.23" y="-399.5" font-family="Helvetica,sans-Serif" font-size="10.00">AH/Debug/Debug.hpp</text>
</a>
</g>
</g>
<!-- Node6&#45;&gt;Node7 -->
<g id="edge6" class="edge">
<title>Node6&#45;&gt;Node7</title>
<path fill="none" stroke="midnightblue" d="M789.64,-448.08C783.01,-440.3 773.21,-428.8 765.18,-419.37"/>
<polygon fill="midnightblue" stroke="midnightblue" points="767.84,-417.09 758.69,-411.75 762.51,-421.63 767.84,-417.09"/>
</g>
<!-- Node8 -->
<g id="node8" class="node">
<title>Node8</title>
<g id="a_node8"><a xlink:href="../../dd/d80/PrintStream_8hpp.html" target="_top" xlink:title=" ">
<polygon fill="white" stroke="black" points="746.73,-224.5 746.73,-243.5 919.73,-243.5 919.73,-224.5 746.73,-224.5"/>
<text text-anchor="middle" x="833.23" y="-231.5" font-family="Helvetica,sans-Serif" font-size="10.00">AH/PrintStream/PrintStream.hpp</text>
</a>
</g>
</g>
<!-- Node7&#45;&gt;Node8 -->
<g id="edge7" class="edge">
<title>Node7&#45;&gt;Node8</title>
<path fill="none" stroke="midnightblue" d="M792.7,-392.5C812.82,-386.06 835.19,-374.95 847.23,-356 867.38,-324.3 852.83,-278.34 842.03,-253.17"/>
<polygon fill="midnightblue" stroke="midnightblue" points="845.08,-251.4 837.75,-243.75 838.71,-254.3 845.08,-251.4"/>
</g>
<!-- Node16 -->
<g id="node16" class="node">
<title>Node16</title>
<g id="a_node16"><a xlink:href="../../d2/dd5/SettingsWrapper_8hpp.html" target="_top" xlink:title=" ">
<polygon fill="white" stroke="black" points="660.23,-336.5 660.23,-355.5 838.23,-355.5 838.23,-336.5 660.23,-336.5"/>
<text text-anchor="middle" x="749.23" y="-343.5" font-family="Helvetica,sans-Serif" font-size="10.00">AH/Settings/SettingsWrapper.hpp</text>
</a>
</g>
</g>
<!-- Node7&#45;&gt;Node16 -->
<g id="edge18" class="edge">
<title>Node7&#45;&gt;Node16</title>
<path fill="none" stroke="midnightblue" d="M745.74,-392.08C743.98,-385.01 743.17,-374.86 743.46,-365.99"/>
<polygon fill="midnightblue" stroke="midnightblue" points="746.97,-366.04 744.43,-355.75 740,-365.38 746.97,-366.04"/>
</g>
<!-- Node8&#45;&gt;Node9 -->
<g id="edge8" class="edge">
<title>Node8&#45;&gt;Node9</title>
<path fill="none" stroke="midnightblue" d="M802.49,-224.44C769.29,-215.2 716.24,-200.44 679.68,-190.26"/>
<polygon fill="midnightblue" stroke="midnightblue" points="680.4,-186.83 669.83,-187.52 678.52,-193.57 680.4,-186.83"/>
</g>
<!-- Node8&#45;&gt;Node14 -->
<g id="edge17" class="edge">
<title>Node8&#45;&gt;Node14</title>
<path fill="none" stroke="midnightblue" d="M843.55,-224.41C853.45,-215.84 868.45,-201.97 879.23,-188 905.35,-154.16 928.29,-109.37 940,-84.88"/>
<polygon fill="midnightblue" stroke="midnightblue" points="943.22,-86.26 944.3,-75.72 936.88,-83.28 943.22,-86.26"/>
</g>
<!-- Node10 -->
<g id="node10" class="node">
<title>Node10</title>
<g id="a_node10"><a xlink:href="../../d7/d79/MinMaxFix_8hpp.html" target="_top" xlink:title=" ">
<polygon fill="white" stroke="black" points="670.23,-112.5 670.23,-131.5 806.23,-131.5 806.23,-112.5 670.23,-112.5"/>
<text text-anchor="middle" x="738.23" y="-119.5" font-family="Helvetica,sans-Serif" font-size="10.00">AH/Math/MinMaxFix.hpp</text>
</a>
</g>
</g>
<!-- Node9&#45;&gt;Node10 -->
<g id="edge9" class="edge">
<title>Node9&#45;&gt;Node10</title>
<path fill="none" stroke="midnightblue" d="M655.14,-168.32C670.87,-159.74 695.18,-146.49 713.44,-136.52"/>
<polygon fill="midnightblue" stroke="midnightblue" points="715.26,-139.52 722.37,-131.65 711.91,-133.37 715.26,-139.52"/>
</g>
<!-- Node13 -->
<g id="node13" class="node">
<title>Node13</title>
<g id="a_node13"><a xlink:title=" ">
<polygon fill="white" stroke="#bfbfbf" points="658.73,-0.5 658.73,-19.5 721.73,-19.5 721.73,-0.5 658.73,-0.5"/>
<text text-anchor="middle" x="690.23" y="-7.5" font-family="Helvetica,sans-Serif" font-size="10.00">Arduino.h</text>
</a>
</g>
</g>
<!-- Node9&#45;&gt;Node13 -->
<g id="edge16" class="edge">
<title>Node9&#45;&gt;Node13</title>
<path fill="none" stroke="midnightblue" d="M638.61,-168.37C637.47,-147.92 636.53,-95.32 653.23,-56 657.86,-45.11 665.99,-34.77 673.45,-26.76"/>
<polygon fill="midnightblue" stroke="midnightblue" points="675.99,-29.16 680.53,-19.59 671.01,-24.24 675.99,-29.16"/>
</g>
<!-- Node9&#45;&gt;Node15 -->
<g id="edge15" class="edge">
<title>Node9&#45;&gt;Node15</title>
<path fill="none" stroke="midnightblue" d="M701.51,-168.92C779.5,-158.79 912.4,-141.54 991.2,-131.31"/>
<polygon fill="midnightblue" stroke="midnightblue" points="992.01,-134.74 1001.47,-129.98 991.11,-127.8 992.01,-134.74"/>
</g>
<!-- Node11 -->
<g id="node11" class="node">
<title>Node11</title>
<g id="a_node11"><a xlink:href="../../d6/d3b/FixArduinoMacros_8hpp.html" target="_top" xlink:title=" ">
<polygon fill="white" stroke="black" points="662.23,-56.5 662.23,-75.5 832.23,-75.5 832.23,-56.5 662.23,-56.5"/>
<text text-anchor="middle" x="747.23" y="-63.5" font-family="Helvetica,sans-Serif" font-size="10.00">AH/Math/FixArduinoMacros.hpp</text>
</a>
</g>
</g>
<!-- Node10&#45;&gt;Node11 -->
<g id="edge10" class="edge">
<title>Node10&#45;&gt;Node11</title>
<path fill="none" stroke="midnightblue" d="M739.72,-112.08C740.91,-104.93 742.63,-94.64 744.12,-85.69"/>
<polygon fill="midnightblue" stroke="midnightblue" points="747.58,-86.19 745.78,-75.75 740.68,-85.04 747.58,-86.19"/>
</g>
<!-- Node10&#45;&gt;Node14 -->
<g id="edge13" class="edge">
<title>Node10&#45;&gt;Node14</title>
<path fill="none" stroke="midnightblue" d="M771.51,-112.44C807.68,-103.14 865.61,-88.25 905.21,-78.06"/>
<polygon fill="midnightblue" stroke="midnightblue" points="906.3,-81.4 915.11,-75.52 904.56,-74.62 906.3,-81.4"/>
</g>
<!-- Node12 -->
<g id="node12" class="node">
<title>Node12</title>
<g id="a_node12"><a xlink:href="../../d1/d65/Warnings_8hpp.html" target="_top" xlink:title=" ">
<polygon fill="white" stroke="black" points="807.73,-0.5 807.73,-19.5 950.73,-19.5 950.73,-0.5 807.73,-0.5"/>
<text text-anchor="middle" x="879.23" y="-7.5" font-family="Helvetica,sans-Serif" font-size="10.00">AH/Settings/Warnings.hpp</text>
</a>
</g>
</g>
<!-- Node11&#45;&gt;Node12 -->
<g id="edge11" class="edge">
<title>Node11&#45;&gt;Node12</title>
<path fill="none" stroke="midnightblue" d="M768.15,-56.44C789.97,-47.52 824.38,-33.44 849.13,-23.32"/>
<polygon fill="midnightblue" stroke="midnightblue" points="850.49,-26.54 858.42,-19.52 847.84,-20.06 850.49,-26.54"/>
</g>
<!-- Node11&#45;&gt;Node13 -->
<g id="edge12" class="edge">
<title>Node11&#45;&gt;Node13</title>
<path fill="none" stroke="midnightblue" d="M738.08,-56.32C729.73,-48.42 717.2,-36.55 707.06,-26.94"/>
<polygon fill="midnightblue" stroke="midnightblue" points="709.23,-24.17 699.56,-19.83 704.41,-29.25 709.23,-24.17"/>
</g>
<!-- Node14&#45;&gt;Node12 -->
<g id="edge14" class="edge">
<title>Node14&#45;&gt;Node12</title>
<path fill="none" stroke="midnightblue" d="M937.15,-56.32C926.75,-48.18 910.97,-35.84 898.51,-26.09"/>
<polygon fill="midnightblue" stroke="midnightblue" points="900.55,-23.24 890.52,-19.83 896.24,-28.75 900.55,-23.24"/>
</g>
<!-- Node16&#45;&gt;Node7 -->
<g id="edge29" class="edge">
<title>Node16&#45;&gt;Node7</title>
<path fill="none" stroke="midnightblue" d="M754.69,-355.75C756.48,-362.86 757.31,-373.14 757.01,-382.1"/>
<polygon fill="midnightblue" stroke="midnightblue" points="753.52,-381.8 756.07,-392.08 760.49,-382.45 753.52,-381.8"/>
</g>
<!-- Node16&#45;&gt;Node14 -->
<g id="edge19" class="edge">
<title>Node16&#45;&gt;Node14</title>
<path fill="none" stroke="midnightblue" d="M814.12,-336.46C872.19,-324.74 948.23,-297.47 948.23,-235 948.23,-235 948.23,-235 948.23,-177 948.23,-144.95 948.23,-107.64 948.23,-85.75"/>
<polygon fill="midnightblue" stroke="midnightblue" points="951.73,-85.56 948.23,-75.56 944.73,-85.56 951.73,-85.56"/>
</g>
<!-- Node17 -->
<g id="node17" class="node">
<title>Node17</title>
<g id="a_node17"><a xlink:href="../../db/d02/Settings_8hpp.html" target="_top" xlink:title="All user settings and debugging options can be changed here.">
<polygon fill="white" stroke="black" points="735.73,-280.5 735.73,-299.5 812.73,-299.5 812.73,-280.5 735.73,-280.5"/>
<text text-anchor="middle" x="774.23" y="-287.5" font-family="Helvetica,sans-Serif" font-size="10.00">Settings.hpp</text>
</a>
</g>
</g>
<!-- Node16&#45;&gt;Node17 -->
<g id="edge20" class="edge">
<title>Node16&#45;&gt;Node17</title>
<path fill="none" stroke="midnightblue" d="M753.36,-336.08C756.75,-328.77 761.65,-318.18 765.85,-309.1"/>
<polygon fill="midnightblue" stroke="midnightblue" points="769.16,-310.3 770.18,-299.75 762.8,-307.36 769.16,-310.3"/>
</g>
<!-- Node23 -->
<g id="node23" class="node">
<title>Node23</title>
<g id="a_node23"><a xlink:href="../../d9/d98/TeensyUSBTypes_8hpp.html" target="_top" xlink:title=" ">
<polygon fill="white" stroke="black" points="505.73,-280.5 505.73,-299.5 678.73,-299.5 678.73,-280.5 505.73,-280.5"/>
<text text-anchor="middle" x="592.23" y="-287.5" font-family="Helvetica,sans-Serif" font-size="10.00">AH/Teensy/TeensyUSBTypes.hpp</text>
</a>
</g>
</g>
<!-- Node16&#45;&gt;Node23 -->
<g id="edge28" class="edge">
<title>Node16&#45;&gt;Node23</title>
<path fill="none" stroke="midnightblue" d="M724.36,-336.44C697.94,-327.36 656.02,-312.94 626.49,-302.78"/>
<polygon fill="midnightblue" stroke="midnightblue" points="627.59,-299.46 616.99,-299.52 625.31,-306.08 627.59,-299.46"/>
</g>
<!-- Node18 -->
<g id="node18" class="node">
<title>Node18</title>
<g id="a_node18"><a xlink:href="../../dc/d50/Frequency_8hpp.html" target="_top" xlink:title=" ">
<polygon fill="white" stroke="black" points="736.23,-168.5 736.23,-187.5 870.23,-187.5 870.23,-168.5 736.23,-168.5"/>
<text text-anchor="middle" x="803.23" y="-175.5" font-family="Helvetica,sans-Serif" font-size="10.00">AH/Types/Frequency.hpp</text>
</a>
</g>
</g>
<!-- Node17&#45;&gt;Node18 -->
<g id="edge21" class="edge">
<title>Node17&#45;&gt;Node18</title>
<path fill="none" stroke="midnightblue" d="M763.01,-280.27C748.54,-267.88 726.43,-244.43 737.23,-224 744.66,-209.95 758.65,-199.47 771.85,-192.17"/>
<polygon fill="midnightblue" stroke="midnightblue" points="773.46,-195.28 780.78,-187.62 770.28,-189.04 773.46,-195.28"/>
</g>
<!-- Node19 -->
<g id="node19" class="node">
<title>Node19</title>
<g id="a_node19"><a xlink:href="../../d7/d7c/ADCConfig_8hpp.html" target="_top" xlink:title="This file contains the platform&#45;specific ADC resolutions.">
<polygon fill="white" stroke="black" points="461.73,-224.5 461.73,-243.5 618.73,-243.5 618.73,-224.5 461.73,-224.5"/>
<text text-anchor="middle" x="540.23" y="-231.5" font-family="Helvetica,sans-Serif" font-size="10.00">AH/Hardware/ADCConfig.hpp</text>
</a>
</g>
</g>
<!-- Node17&#45;&gt;Node19 -->
<g id="edge23" class="edge">
<title>Node17&#45;&gt;Node19</title>
<path fill="none" stroke="midnightblue" d="M737.16,-280.44C696.51,-271.06 631.2,-255.99 587.05,-245.8"/>
<polygon fill="midnightblue" stroke="midnightblue" points="587.67,-242.35 577.14,-243.52 586.1,-249.18 587.67,-242.35"/>
</g>
<!-- Node20 -->
<g id="node20" class="node">
<title>Node20</title>
<g id="a_node20"><a xlink:title=" ">
<polygon fill="white" stroke="#bfbfbf" points="636.73,-224.5 636.73,-243.5 689.73,-243.5 689.73,-224.5 636.73,-224.5"/>
<text text-anchor="middle" x="663.23" y="-231.5" font-family="Helvetica,sans-Serif" font-size="10.00">limits.h</text>
</a>
</g>
</g>
<!-- Node17&#45;&gt;Node20 -->
<g id="edge25" class="edge">
<title>Node17&#45;&gt;Node20</title>
<path fill="none" stroke="midnightblue" d="M756.4,-280.32C738.52,-271.62 710.76,-258.12 690.19,-248.11"/>
<polygon fill="midnightblue" stroke="midnightblue" points="691.55,-244.88 681.02,-243.65 688.48,-251.18 691.55,-244.88"/>
</g>
<!-- Node17&#45;&gt;Node21 -->
<g id="edge26" class="edge">
<title>Node17&#45;&gt;Node21</title>
<path fill="none" stroke="midnightblue" d="M735.47,-282.26C730.68,-281.47 725.85,-280.7 721.23,-280 605.12,-262.38 572.49,-266.07 453.32,-244.04"/>
<polygon fill="midnightblue" stroke="midnightblue" points="453.92,-240.59 443.45,-242.19 452.63,-247.47 453.92,-240.59"/>
</g>
<!-- Node17&#45;&gt;Node22 -->
<g id="edge27" class="edge">
<title>Node17&#45;&gt;Node22</title>
<path fill="none" stroke="midnightblue" d="M810.52,-280.44C853.25,-270.37 923.83,-253.72 966.68,-243.62"/>
<polygon fill="midnightblue" stroke="midnightblue" points="967.49,-247.02 976.42,-241.32 965.88,-240.21 967.49,-247.02"/>
</g>
<!-- Node18&#45;&gt;Node14 -->
<g id="edge22" class="edge">
<title>Node18&#45;&gt;Node14</title>
<path fill="none" stroke="midnightblue" d="M814.61,-168.37C839.28,-149.65 897.94,-105.15 928.68,-81.83"/>
<polygon fill="midnightblue" stroke="midnightblue" points="931.06,-84.42 936.91,-75.59 926.83,-78.85 931.06,-84.42"/>
</g>
<!-- Node19&#45;&gt;Node9 -->
<g id="edge24" class="edge">
<title>Node19&#45;&gt;Node9</title>
<path fill="none" stroke="midnightblue" d="M556.14,-224.32C571.87,-215.74 596.18,-202.49 614.44,-192.52"/>
<polygon fill="midnightblue" stroke="midnightblue" points="616.26,-195.52 623.37,-187.65 612.91,-189.37 616.26,-195.52"/>
</g>
<!-- Node25&#45;&gt;Node14 -->
<g id="edge38" class="edge">
<title>Node25&#45;&gt;Node14</title>
<path fill="none" stroke="midnightblue" d="M917.26,-565.96C974.52,-554.73 1067.42,-535.13 1079.23,-524 1101.23,-503.27 1099.23,-489.23 1099.23,-459 1099.23,-459 1099.23,-459 1099.23,-401 1099.23,-325.31 1137.23,-310.69 1137.23,-235 1137.23,-235 1137.23,-235 1137.23,-177 1137.23,-146.77 1139.01,-132.96 1117.23,-112 1100.2,-95.6 1077.89,-85.02 1055.09,-78.23"/>
<polygon fill="midnightblue" stroke="midnightblue" points="1055.87,-74.81 1045.3,-75.54 1054.02,-81.56 1055.87,-74.81"/>
</g>
<!-- Node26 -->
<g id="node26" class="node">
<title>Node26</title>
<g id="a_node26"><a xlink:title=" ">
<polygon fill="white" stroke="#bfbfbf" points="827.23,-504.5 827.23,-523.5 917.23,-523.5 917.23,-504.5 827.23,-504.5"/>
<text text-anchor="middle" x="872.23" y="-511.5" font-family="Helvetica,sans-Serif" font-size="10.00">AH/STL/cstddef</text>
</a>
</g>
</g>
<!-- Node25&#45;&gt;Node26 -->
<g id="edge36" class="edge">
<title>Node25&#45;&gt;Node26</title>
<path fill="none" stroke="midnightblue" d="M872.23,-565.98C872.23,-557.58 872.23,-544.48 872.23,-533.66"/>
<polygon fill="midnightblue" stroke="midnightblue" points="875.73,-533.51 872.23,-523.51 868.73,-533.51 875.73,-533.51"/>
</g>
<!-- Node27 -->
<g id="node27" class="node">
<title>Node27</title>
<g id="a_node27"><a xlink:title=" ">
<polygon fill="white" stroke="#bfbfbf" points="729.73,-504.5 729.73,-523.5 808.73,-523.5 808.73,-504.5 729.73,-504.5"/>
<text text-anchor="middle" x="769.23" y="-511.5" font-family="Helvetica,sans-Serif" font-size="10.00">AH/STL/tuple</text>
</a>
</g>
</g>
<!-- Node25&#45;&gt;Node27 -->
<g id="edge37" class="edge">
<title>Node25&#45;&gt;Node27</title>
<path fill="none" stroke="midnightblue" d="M857.48,-565.98C840.57,-556.21 812.65,-540.08 792.74,-528.58"/>
<polygon fill="midnightblue" stroke="midnightblue" points="794.37,-525.48 783.96,-523.51 790.87,-531.54 794.37,-525.48"/>
</g>
<!-- Node29&#45;&gt;Node6 -->
<g id="edge49" class="edge">
<title>Node29&#45;&gt;Node6</title>
<path fill="none" stroke="midnightblue" d="M564.97,-504.44C613.42,-494.96 691.56,-479.67 743.65,-469.48"/>
<polygon fill="midnightblue" stroke="midnightblue" points="744.56,-472.87 753.71,-467.52 743.22,-466 744.56,-472.87"/>
</g>
<!-- Node29&#45;&gt;Node15 -->
<g id="edge50" class="edge">
<title>Node29&#45;&gt;Node15</title>
<path fill="none" stroke="midnightblue" d="M602.12,-510.78C688.5,-506.93 818.36,-496.46 858.23,-468 888.97,-446.06 874.47,-422.86 896.23,-392 948.77,-317.5 998.41,-326 1038.23,-244 1054.4,-210.73 1056.43,-166.64 1056.08,-141.91"/>
<polygon fill="midnightblue" stroke="midnightblue" points="1059.57,-141.63 1055.78,-131.74 1052.58,-141.83 1059.57,-141.63"/>
</g>
<!-- Node29&#45;&gt;Node16 -->
<g id="edge52" class="edge">
<title>Node29&#45;&gt;Node16</title>
<path fill="none" stroke="midnightblue" d="M524.91,-504.26C534.91,-481.63 564.94,-420.89 610.23,-392 635.55,-375.85 667.17,-365.02 693.86,-358.03"/>
<polygon fill="midnightblue" stroke="midnightblue" points="694.97,-361.36 703.82,-355.54 693.27,-354.57 694.97,-361.36"/>
</g>
<!-- Node29&#45;&gt;Node21 -->
<g id="edge53" class="edge">
<title>Node29&#45;&gt;Node21</title>
<path fill="none" stroke="midnightblue" d="M517.95,-504.38C503.17,-465.62 442.74,-307.13 422.14,-253.13"/>
<polygon fill="midnightblue" stroke="midnightblue" points="425.32,-251.62 418.48,-243.52 418.78,-254.12 425.32,-251.62"/>
</g>
<!-- Node30 -->
<g id="node30" class="node">
<title>Node30</title>
<g id="a_node30"><a xlink:href="../../d4/dba/CRTP_8hpp.html" target="_top" xlink:title=" ">
<polygon fill="white" stroke="black" points="340.23,-448.5 340.23,-467.5 474.23,-467.5 474.23,-448.5 340.23,-448.5"/>
<text text-anchor="middle" x="407.23" y="-455.5" font-family="Helvetica,sans-Serif" font-size="10.00">AH/Containers/CRTP.hpp</text>
</a>
</g>
</g>
<!-- Node29&#45;&gt;Node30 -->
<g id="edge43" class="edge">
<title>Node29&#45;&gt;Node30</title>
<path fill="none" stroke="midnightblue" d="M503.17,-504.44C484.66,-495.68 455.65,-481.94 434.38,-471.86"/>
<polygon fill="midnightblue" stroke="midnightblue" points="435.75,-468.63 425.21,-467.52 432.75,-474.96 435.75,-468.63"/>
</g>
<!-- Node31 -->
<g id="node31" class="node">
<title>Node31</title>
<g id="a_node31"><a xlink:href="../../de/dd1/LinkedList_8hpp.html" target="_top" xlink:title=" ">
<polygon fill="white" stroke="black" points="567.73,-448.5 567.73,-467.5 726.73,-467.5 726.73,-448.5 567.73,-448.5"/>
<text text-anchor="middle" x="647.23" y="-455.5" font-family="Helvetica,sans-Serif" font-size="10.00">AH/Containers/LinkedList.hpp</text>
</a>
</g>
</g>
<!-- Node29&#45;&gt;Node31 -->
<g id="edge44" class="edge">
<title>Node29&#45;&gt;Node31</title>
<path fill="none" stroke="midnightblue" d="M541.2,-504.44C561.84,-495.6 594.3,-481.69 617.87,-471.59"/>
<polygon fill="midnightblue" stroke="midnightblue" points="619.55,-474.67 627.36,-467.52 616.79,-468.24 619.55,-474.67"/>
</g>
<!-- Node33 -->
<g id="node33" class="node">
<title>Node33</title>
<g id="a_node33"><a xlink:title=" ">
<polygon fill="white" stroke="#bfbfbf" points="238.73,-448.5 238.73,-467.5 321.73,-467.5 321.73,-448.5 238.73,-448.5"/>
<text text-anchor="middle" x="280.23" y="-455.5" font-family="Helvetica,sans-Serif" font-size="10.00">AH/STL/utility</text>
</a>
</g>
</g>
<!-- Node29&#45;&gt;Node33 -->
<g id="edge51" class="edge">
<title>Node29&#45;&gt;Node33</title>
<path fill="none" stroke="midnightblue" d="M483.05,-504.44C441.09,-495.04 373.64,-479.93 328.16,-469.74"/>
<polygon fill="midnightblue" stroke="midnightblue" points="328.77,-466.29 318.24,-467.52 327.23,-473.12 328.77,-466.29"/>
</g>
<!-- Node31&#45;&gt;Node7 -->
<g id="edge45" class="edge">
<title>Node31&#45;&gt;Node7</title>
<path fill="none" stroke="midnightblue" d="M663.94,-448.32C680.55,-439.7 706.24,-426.36 725.45,-416.39"/>
<polygon fill="midnightblue" stroke="midnightblue" points="727.3,-419.37 734.57,-411.65 724.08,-413.16 727.3,-419.37"/>
</g>
<!-- Node31&#45;&gt;Node10 -->
<g id="edge46" class="edge">
<title>Node31&#45;&gt;Node10</title>
<path fill="none" stroke="midnightblue" d="M620.34,-448.41C537.98,-420.71 299.42,-329.39 378.23,-224 412.41,-178.29 569.49,-147.72 664.51,-133.06"/>
<polygon fill="midnightblue" stroke="midnightblue" points="665.27,-136.49 674.64,-131.52 664.22,-129.56 665.27,-136.49"/>
</g>
<!-- Node31&#45;&gt;Node24 -->
<g id="edge48" class="edge">
<title>Node31&#45;&gt;Node24</title>
<path fill="none" stroke="midnightblue" d="M695.24,-448.44C749.55,-438.76 837.85,-423.03 894.98,-412.85"/>
<polygon fill="midnightblue" stroke="midnightblue" points="895.69,-416.28 904.92,-411.08 894.46,-409.38 895.69,-416.28"/>
</g>
<!-- Node32 -->
<g id="node32" class="node">
<title>Node32</title>
<g id="a_node32"><a xlink:title=" ">
<polygon fill="white" stroke="#bfbfbf" points="619.73,-392.5 619.73,-411.5 672.73,-411.5 672.73,-392.5 619.73,-392.5"/>
<text text-anchor="middle" x="646.23" y="-399.5" font-family="Helvetica,sans-Serif" font-size="10.00">stdlib.h</text>
</a>
</g>
</g>
<!-- Node31&#45;&gt;Node32 -->
<g id="edge47" class="edge">
<title>Node31&#45;&gt;Node32</title>
<path fill="none" stroke="midnightblue" d="M647.07,-448.08C646.94,-441.01 646.75,-430.86 646.59,-421.99"/>
<polygon fill="midnightblue" stroke="midnightblue" points="650.08,-421.68 646.4,-411.75 643.08,-421.81 650.08,-421.68"/>
</g>
</g>
</svg>
