<?xml version="1.0" encoding="UTF-8" standalone="no"?>
<!DOCTYPE svg PUBLIC "-//W3C//DTD SVG 1.1//EN"
 "http://www.w3.org/Graphics/SVG/1.1/DTD/svg11.dtd">
<!-- Generated by graphviz version 2.43.0 (0)
 -->
<!-- Title: ExtendedInputOutput.hpp Pages: 1 -->
<svg width="1582pt" height="722pt"
 viewBox="0.00 0.00 1582.00 722.00" xmlns="http://www.w3.org/2000/svg" xmlns:xlink="http://www.w3.org/1999/xlink">
<g id="graph0" class="graph" transform="scale(1 1) rotate(0) translate(4 718)">
<title>ExtendedInputOutput.hpp</title>
<polygon fill="white" stroke="transparent" points="-4,4 -4,-718 1578,-718 1578,4 -4,4"/>
<!-- Node1 -->
<g id="node1" class="node">
<title>Node1</title>
<g id="a_node1"><a xlink:title=" ">
<polygon fill="#bfbfbf" stroke="black" points="1226,-694.5 1226,-713.5 1367,-713.5 1367,-694.5 1226,-694.5"/>
<text text-anchor="middle" x="1296.5" y="-701.5" font-family="Helvetica,sans-Serif" font-size="10.00">ExtendedInputOutput.hpp</text>
</a>
</g>
</g>
<!-- Node2 -->
<g id="node2" class="node">
<title>Node2</title>
<g id="a_node2"><a xlink:href="../../d2/d3c/Arduino-Hardware-Types_8hpp.html" target="_top" xlink:title=" ">
<polygon fill="white" stroke="black" points="1011.5,-627.5 1011.5,-657.5 1133.5,-657.5 1133.5,-627.5 1011.5,-627.5"/>
<text text-anchor="start" x="1019.5" y="-645.5" font-family="Helvetica,sans-Serif" font-size="10.00">AH/Hardware/Arduino</text>
<text text-anchor="middle" x="1072.5" y="-634.5" font-family="Helvetica,sans-Serif" font-size="10.00">&#45;Hardware&#45;Types.hpp</text>
</a>
</g>
</g>
<!-- Node1&#45;&gt;Node2 -->
<g id="edge1" class="edge">
<title>Node1&#45;&gt;Node2</title>
<path fill="none" stroke="midnightblue" d="M1264.41,-694.48C1230.81,-685.55 1177.19,-671.31 1135.16,-660.14"/>
<polygon fill="midnightblue" stroke="midnightblue" points="1135.86,-656.71 1125.29,-657.52 1134.06,-663.47 1135.86,-656.71"/>
</g>
<!-- Node3 -->
<g id="node3" class="node">
<title>Node3</title>
<g id="a_node3"><a xlink:href="../../d1/d65/Warnings_8hpp.html" target="_top" xlink:title=" ">
<polygon fill="white" stroke="black" points="922,-0.5 922,-19.5 1065,-19.5 1065,-0.5 922,-0.5"/>
<text text-anchor="middle" x="993.5" y="-7.5" font-family="Helvetica,sans-Serif" font-size="10.00">AH/Settings/Warnings.hpp</text>
</a>
</g>
</g>
<!-- Node1&#45;&gt;Node3 -->
<g id="edge53" class="edge">
<title>Node1&#45;&gt;Node3</title>
<path fill="none" stroke="midnightblue" d="M1326.97,-694.44C1373.9,-679.18 1458.5,-642.52 1458.5,-576.5 1458.5,-576.5 1458.5,-576.5 1458.5,-121 1458.5,-43.18 1208.76,-20.34 1075.32,-13.7"/>
<polygon fill="midnightblue" stroke="midnightblue" points="1075.29,-10.19 1065.14,-13.21 1074.96,-17.18 1075.29,-10.19"/>
</g>
<!-- Node9 -->
<g id="node9" class="node">
<title>Node9</title>
<g id="a_node9"><a xlink:href="../../dc/dc7/NamespaceSettings_8hpp.html" target="_top" xlink:title=" ">
<polygon fill="white" stroke="black" points="523,-56.5 523,-75.5 718,-75.5 718,-56.5 523,-56.5"/>
<text text-anchor="middle" x="620.5" y="-63.5" font-family="Helvetica,sans-Serif" font-size="10.00">AH/Settings/NamespaceSettings.hpp</text>
</a>
</g>
</g>
<!-- Node1&#45;&gt;Node9 -->
<g id="edge52" class="edge">
<title>Node1&#45;&gt;Node9</title>
<path fill="none" stroke="midnightblue" d="M1225.99,-700.69C1011.03,-692.71 378.5,-661.97 378.5,-576.5 378.5,-576.5 378.5,-576.5 378.5,-233 378.5,-141.46 497.69,-96.65 568.78,-78.06"/>
<polygon fill="midnightblue" stroke="midnightblue" points="570.06,-81.35 578.9,-75.51 568.35,-74.56 570.06,-81.35"/>
</g>
<!-- Node28 -->
<g id="node28" class="node">
<title>Node28</title>
<g id="a_node28"><a xlink:title=" ">
<polygon fill="white" stroke="#bfbfbf" points="1487,-633 1487,-652 1574,-652 1574,-633 1487,-633"/>
<text text-anchor="middle" x="1530.5" y="-640" font-family="Helvetica,sans-Serif" font-size="10.00">AH/STL/climits</text>
</a>
</g>
</g>
<!-- Node1&#45;&gt;Node28 -->
<g id="edge51" class="edge">
<title>Node1&#45;&gt;Node28</title>
<path fill="none" stroke="midnightblue" d="M1330.03,-694.48C1371.38,-683.96 1441.77,-666.06 1487.18,-654.51"/>
<polygon fill="midnightblue" stroke="midnightblue" points="1488.21,-657.87 1497.04,-652.01 1486.48,-651.08 1488.21,-657.87"/>
</g>
<!-- Node2&#45;&gt;Node3 -->
<g id="edge2" class="edge">
<title>Node2&#45;&gt;Node3</title>
<path fill="none" stroke="midnightblue" d="M1133.52,-632.19C1233.32,-615.22 1420.5,-575.35 1420.5,-515 1420.5,-515 1420.5,-515 1420.5,-121 1420.5,-73.44 1379.45,-74.16 1335.5,-56 1289.85,-37.14 1161.01,-23.9 1075.16,-16.87"/>
<polygon fill="midnightblue" stroke="midnightblue" points="1075.42,-13.38 1065.17,-16.06 1074.86,-20.35 1075.42,-13.38"/>
</g>
<!-- Node4 -->
<g id="node4" class="node">
<title>Node4</title>
<g id="a_node4"><a xlink:href="../../d4/d35/Hardware-Types_8hpp.html" target="_top" xlink:title=" ">
<polygon fill="white" stroke="black" points="1007,-560.5 1007,-590.5 1138,-590.5 1138,-560.5 1007,-560.5"/>
<text text-anchor="start" x="1015" y="-578.5" font-family="Helvetica,sans-Serif" font-size="10.00">AH/Hardware/Hardware</text>
<text text-anchor="middle" x="1072.5" y="-567.5" font-family="Helvetica,sans-Serif" font-size="10.00">&#45;Types.hpp</text>
</a>
</g>
</g>
<!-- Node2&#45;&gt;Node4 -->
<g id="edge3" class="edge">
<title>Node2&#45;&gt;Node4</title>
<path fill="none" stroke="midnightblue" d="M1072.5,-627.4C1072.5,-619.64 1072.5,-609.81 1072.5,-600.86"/>
<polygon fill="midnightblue" stroke="midnightblue" points="1076,-600.58 1072.5,-590.58 1069,-600.58 1076,-600.58"/>
</g>
<!-- Node10 -->
<g id="node10" class="node">
<title>Node10</title>
<g id="a_node10"><a xlink:href="../../d6/ddf/Arduino-Wrapper_8h.html" target="_top" xlink:title=" ">
<polygon fill="white" stroke="black" points="482.5,-168.5 482.5,-187.5 606.5,-187.5 606.5,-168.5 482.5,-168.5"/>
<text text-anchor="middle" x="544.5" y="-175.5" font-family="Helvetica,sans-Serif" font-size="10.00">AH/Arduino&#45;Wrapper.h</text>
</a>
</g>
</g>
<!-- Node2&#45;&gt;Node10 -->
<g id="edge50" class="edge">
<title>Node2&#45;&gt;Node10</title>
<path fill="none" stroke="midnightblue" d="M1011.25,-640.99C862.16,-638.1 492.5,-620.32 492.5,-515 492.5,-515 492.5,-515 492.5,-289 492.5,-258.9 498.18,-250.99 511.5,-224 516.48,-213.92 523.72,-203.73 530.16,-195.61"/>
<polygon fill="midnightblue" stroke="midnightblue" points="533.01,-197.64 536.67,-187.7 527.61,-193.19 533.01,-197.64"/>
</g>
<!-- Node25 -->
<g id="node25" class="node">
<title>Node25</title>
<g id="a_node25"><a xlink:href="../../d0/db1/FunctionTraits_8hpp.html" target="_top" xlink:title=" ">
<polygon fill="white" stroke="black" points="50,-112.5 50,-131.5 203,-131.5 203,-112.5 50,-112.5"/>
<text text-anchor="middle" x="126.5" y="-119.5" font-family="Helvetica,sans-Serif" font-size="10.00">AH/Types/FunctionTraits.hpp</text>
</a>
</g>
</g>
<!-- Node2&#45;&gt;Node25 -->
<g id="edge45" class="edge">
<title>Node2&#45;&gt;Node25</title>
<path fill="none" stroke="midnightblue" d="M1011.12,-640.04C886.47,-636.4 608.03,-624.67 519.5,-591 466.32,-570.78 416.5,-571.89 416.5,-515 416.5,-515 416.5,-515 416.5,-233 416.5,-184.43 272.46,-149.68 187.41,-133.4"/>
<polygon fill="midnightblue" stroke="midnightblue" points="187.82,-129.92 177.35,-131.51 186.53,-136.8 187.82,-129.92"/>
</g>
<!-- Node4&#45;&gt;Node3 -->
<g id="edge4" class="edge">
<title>Node4&#45;&gt;Node3</title>
<path fill="none" stroke="midnightblue" d="M1138.24,-563.67C1229.24,-546.79 1382.5,-510.69 1382.5,-459 1382.5,-459 1382.5,-459 1382.5,-121 1382.5,-72.02 1338.81,-74.62 1293.5,-56 1223.36,-27.18 1137.22,-16.54 1075.26,-12.75"/>
<polygon fill="midnightblue" stroke="midnightblue" points="1075.33,-9.25 1065.15,-12.18 1074.93,-16.24 1075.33,-9.25"/>
</g>
<!-- Node5 -->
<g id="node5" class="node">
<title>Node5</title>
<g id="a_node5"><a xlink:href="../../de/d76/Array_8hpp.html" target="_top" xlink:title=" ">
<polygon fill="white" stroke="black" points="1069,-504.5 1069,-523.5 1204,-523.5 1204,-504.5 1069,-504.5"/>
<text text-anchor="middle" x="1136.5" y="-511.5" font-family="Helvetica,sans-Serif" font-size="10.00">AH/Containers/Array.hpp</text>
</a>
</g>
</g>
<!-- Node4&#45;&gt;Node5 -->
<g id="edge5" class="edge">
<title>Node4&#45;&gt;Node5</title>
<path fill="none" stroke="midnightblue" d="M1087.67,-560.4C1097.25,-551.49 1109.66,-539.95 1119.57,-530.74"/>
<polygon fill="midnightblue" stroke="midnightblue" points="1122.25,-533.03 1127.19,-523.66 1117.48,-527.9 1122.25,-533.03"/>
</g>
<!-- Node8 -->
<g id="node8" class="node">
<title>Node8</title>
<g id="a_node8"><a xlink:href="../../dd/d80/PrintStream_8hpp.html" target="_top" xlink:title=" ">
<polygon fill="white" stroke="black" points="521,-224.5 521,-243.5 694,-243.5 694,-224.5 521,-224.5"/>
<text text-anchor="middle" x="607.5" y="-231.5" font-family="Helvetica,sans-Serif" font-size="10.00">AH/PrintStream/PrintStream.hpp</text>
</a>
</g>
</g>
<!-- Node4&#45;&gt;Node8 -->
<g id="edge41" class="edge">
<title>Node4&#45;&gt;Node8</title>
<path fill="none" stroke="midnightblue" d="M1006.84,-571.08C883.05,-562.83 627.5,-536.42 627.5,-459 627.5,-459 627.5,-459 627.5,-345 627.5,-312.44 618.91,-275.32 612.99,-253.59"/>
<polygon fill="midnightblue" stroke="midnightblue" points="616.29,-252.41 610.2,-243.74 609.56,-254.32 616.29,-252.41"/>
</g>
<!-- Node4&#45;&gt;Node9 -->
<g id="edge43" class="edge">
<title>Node4&#45;&gt;Node9</title>
<path fill="none" stroke="midnightblue" d="M1006.85,-574.16C862.55,-571.65 530.5,-555.39 530.5,-459 530.5,-459 530.5,-459 530.5,-401 530.5,-294.39 423.85,-262.34 473.5,-168 497.09,-123.17 550.58,-94.38 586.1,-79.45"/>
<polygon fill="midnightblue" stroke="midnightblue" points="587.65,-82.6 595.61,-75.6 585.03,-76.11 587.65,-82.6"/>
</g>
<!-- Node21 -->
<g id="node21" class="node">
<title>Node21</title>
<g id="a_node21"><a xlink:title=" ">
<polygon fill="white" stroke="#bfbfbf" points="1263,-224.5 1263,-243.5 1316,-243.5 1316,-224.5 1263,-224.5"/>
<text text-anchor="middle" x="1289.5" y="-231.5" font-family="Helvetica,sans-Serif" font-size="10.00">stdint.h</text>
</a>
</g>
</g>
<!-- Node4&#45;&gt;Node21 -->
<g id="edge44" class="edge">
<title>Node4&#45;&gt;Node21</title>
<path fill="none" stroke="midnightblue" d="M1138.3,-569.68C1207.52,-560.6 1306.5,-534.43 1306.5,-459 1306.5,-459 1306.5,-459 1306.5,-345 1306.5,-312.58 1299.2,-275.42 1294.17,-253.64"/>
<polygon fill="midnightblue" stroke="midnightblue" points="1297.53,-252.67 1291.79,-243.77 1290.73,-254.31 1297.53,-252.67"/>
</g>
<!-- Node24 -->
<g id="node24" class="node">
<title>Node24</title>
<g id="a_node24"><a xlink:title=" ">
<polygon fill="white" stroke="#bfbfbf" points="968.5,-504.5 968.5,-523.5 1050.5,-523.5 1050.5,-504.5 968.5,-504.5"/>
<text text-anchor="middle" x="1009.5" y="-511.5" font-family="Helvetica,sans-Serif" font-size="10.00">AH/STL/limits</text>
</a>
</g>
</g>
<!-- Node4&#45;&gt;Node24 -->
<g id="edge42" class="edge">
<title>Node4&#45;&gt;Node24</title>
<path fill="none" stroke="midnightblue" d="M1057.57,-560.4C1048.13,-551.49 1035.92,-539.95 1026.17,-530.74"/>
<polygon fill="midnightblue" stroke="midnightblue" points="1028.34,-527.98 1018.67,-523.66 1023.53,-533.07 1028.34,-527.98"/>
</g>
<!-- Node5&#45;&gt;Node3 -->
<g id="edge6" class="edge">
<title>Node5&#45;&gt;Node3</title>
<path fill="none" stroke="midnightblue" d="M1159.05,-504.37C1176.41,-496.85 1200.13,-484.53 1216.5,-468 1299.63,-384.03 1344.5,-353.15 1344.5,-235 1344.5,-235 1344.5,-235 1344.5,-121 1344.5,-64.91 1179.26,-34.01 1075.53,-20.13"/>
<polygon fill="midnightblue" stroke="midnightblue" points="1075.75,-16.63 1065.38,-18.8 1074.84,-23.57 1075.75,-16.63"/>
</g>
<!-- Node6 -->
<g id="node6" class="node">
<title>Node6</title>
<g id="a_node6"><a xlink:href="../../d1/d93/Error_8hpp.html" target="_top" xlink:title=" ">
<polygon fill="white" stroke="black" points="1084.5,-448.5 1084.5,-467.5 1188.5,-467.5 1188.5,-448.5 1084.5,-448.5"/>
<text text-anchor="middle" x="1136.5" y="-455.5" font-family="Helvetica,sans-Serif" font-size="10.00">AH/Error/Error.hpp</text>
</a>
</g>
</g>
<!-- Node5&#45;&gt;Node6 -->
<g id="edge7" class="edge">
<title>Node5&#45;&gt;Node6</title>
<path fill="none" stroke="midnightblue" d="M1136.5,-504.08C1136.5,-497.01 1136.5,-486.86 1136.5,-477.99"/>
<polygon fill="midnightblue" stroke="midnightblue" points="1140,-477.75 1136.5,-467.75 1133,-477.75 1140,-477.75"/>
</g>
<!-- Node14 -->
<g id="node14" class="node">
<title>Node14</title>
<g id="a_node14"><a xlink:title=" ">
<polygon fill="white" stroke="#bfbfbf" points="649,-112.5 649,-131.5 756,-131.5 756,-112.5 649,-112.5"/>
<text text-anchor="middle" x="702.5" y="-119.5" font-family="Helvetica,sans-Serif" font-size="10.00">AH/STL/type_traits</text>
</a>
</g>
</g>
<!-- Node5&#45;&gt;Node14 -->
<g id="edge39" class="edge">
<title>Node5&#45;&gt;Node14</title>
<path fill="none" stroke="midnightblue" d="M1075.07,-504.43C951.49,-486.36 684.5,-442.73 684.5,-403 684.5,-403 684.5,-403 684.5,-345 684.5,-299.32 699.26,-289.48 703.5,-244 704.33,-235.15 703.54,-232.89 703.5,-224 703.36,-195.28 702.99,-161.97 702.74,-141.7"/>
<polygon fill="midnightblue" stroke="midnightblue" points="706.24,-141.6 702.61,-131.65 699.24,-141.69 706.24,-141.6"/>
</g>
<!-- Node20 -->
<g id="node20" class="node">
<title>Node20</title>
<g id="a_node20"><a xlink:title=" ">
<polygon fill="white" stroke="#bfbfbf" points="1188.5,-224.5 1188.5,-243.5 1244.5,-243.5 1244.5,-224.5 1188.5,-224.5"/>
<text text-anchor="middle" x="1216.5" y="-231.5" font-family="Helvetica,sans-Serif" font-size="10.00">stddef.h</text>
</a>
</g>
</g>
<!-- Node5&#45;&gt;Node20 -->
<g id="edge40" class="edge">
<title>Node5&#45;&gt;Node20</title>
<path fill="none" stroke="midnightblue" d="M1153.68,-504.41C1167.45,-496.68 1186.27,-484.07 1197.5,-468 1214.74,-443.33 1216.5,-433.1 1216.5,-403 1216.5,-403 1216.5,-403 1216.5,-345 1216.5,-312.95 1216.5,-275.64 1216.5,-253.75"/>
<polygon fill="midnightblue" stroke="midnightblue" points="1220,-253.56 1216.5,-243.56 1213,-253.56 1220,-253.56"/>
</g>
<!-- Node23 -->
<g id="node23" class="node">
<title>Node23</title>
<g id="a_node23"><a xlink:title=" ">
<polygon fill="white" stroke="#bfbfbf" points="976.5,-448.5 976.5,-467.5 1066.5,-467.5 1066.5,-448.5 976.5,-448.5"/>
<text text-anchor="middle" x="1021.5" y="-455.5" font-family="Helvetica,sans-Serif" font-size="10.00">AH/STL/iterator</text>
</a>
</g>
</g>
<!-- Node5&#45;&gt;Node23 -->
<g id="edge38" class="edge">
<title>Node5&#45;&gt;Node23</title>
<path fill="none" stroke="midnightblue" d="M1118.28,-504.44C1099.6,-495.68 1070.34,-481.94 1048.88,-471.86"/>
<polygon fill="midnightblue" stroke="midnightblue" points="1050.18,-468.6 1039.64,-467.52 1047.2,-474.93 1050.18,-468.6"/>
</g>
<!-- Node6&#45;&gt;Node3 -->
<g id="edge8" class="edge">
<title>Node6&#45;&gt;Node3</title>
<path fill="none" stroke="midnightblue" d="M1137.79,-448.38C1142.78,-414.28 1160.5,-285.58 1160.5,-179 1160.5,-179 1160.5,-179 1160.5,-121 1160.5,-65.3 1094.9,-36.21 1045.93,-22.25"/>
<polygon fill="midnightblue" stroke="midnightblue" points="1046.64,-18.82 1036.07,-19.58 1044.81,-25.58 1046.64,-18.82"/>
</g>
<!-- Node7 -->
<g id="node7" class="node">
<title>Node7</title>
<g id="a_node7"><a xlink:href="../../df/dee/Debug_8hpp.html" target="_top" xlink:title=" ">
<polygon fill="white" stroke="black" points="817,-392.5 817,-411.5 938,-411.5 938,-392.5 817,-392.5"/>
<text text-anchor="middle" x="877.5" y="-399.5" font-family="Helvetica,sans-Serif" font-size="10.00">AH/Debug/Debug.hpp</text>
</a>
</g>
</g>
<!-- Node6&#45;&gt;Node7 -->
<g id="edge9" class="edge">
<title>Node6&#45;&gt;Node7</title>
<path fill="none" stroke="midnightblue" d="M1095.46,-448.44C1050.18,-439 977.27,-423.8 928.39,-413.61"/>
<polygon fill="midnightblue" stroke="midnightblue" points="928.85,-410.13 918.35,-411.52 927.42,-416.98 928.85,-410.13"/>
</g>
<!-- Node7&#45;&gt;Node3 -->
<g id="edge10" class="edge">
<title>Node7&#45;&gt;Node3</title>
<path fill="none" stroke="midnightblue" d="M834.43,-392.49C814.1,-386.07 791.68,-374.99 779.5,-356 774.7,-348.52 777.31,-344.61 779.5,-336 814.82,-197.32 842.59,-162.21 938.5,-56 948.68,-44.73 961.78,-33.89 972.65,-25.68"/>
<polygon fill="midnightblue" stroke="midnightblue" points="974.8,-28.44 980.78,-19.7 970.65,-22.8 974.8,-28.44"/>
</g>
<!-- Node7&#45;&gt;Node8 -->
<g id="edge11" class="edge">
<title>Node7&#45;&gt;Node8</title>
<path fill="none" stroke="midnightblue" d="M840.87,-392.49C813.67,-385.22 776.28,-373.19 746.5,-356 695.47,-326.54 645.92,-276.84 622.13,-251.27"/>
<polygon fill="midnightblue" stroke="midnightblue" points="624.43,-248.59 615.09,-243.59 619.27,-253.32 624.43,-248.59"/>
</g>
<!-- Node15 -->
<g id="node15" class="node">
<title>Node15</title>
<g id="a_node15"><a xlink:href="../../d2/dd5/SettingsWrapper_8hpp.html" target="_top" xlink:title=" ">
<polygon fill="white" stroke="black" points="788.5,-336.5 788.5,-355.5 966.5,-355.5 966.5,-336.5 788.5,-336.5"/>
<text text-anchor="middle" x="877.5" y="-343.5" font-family="Helvetica,sans-Serif" font-size="10.00">AH/Settings/SettingsWrapper.hpp</text>
</a>
</g>
</g>
<!-- Node7&#45;&gt;Node15 -->
<g id="edge23" class="edge">
<title>Node7&#45;&gt;Node15</title>
<path fill="none" stroke="midnightblue" d="M872.33,-392.08C870.82,-384.93 870.39,-374.64 871.04,-365.69"/>
<polygon fill="midnightblue" stroke="midnightblue" points="874.52,-366.13 872.37,-355.75 867.58,-365.2 874.52,-366.13"/>
</g>
<!-- Node8&#45;&gt;Node3 -->
<g id="edge13" class="edge">
<title>Node8&#45;&gt;Node3</title>
<path fill="none" stroke="midnightblue" d="M622.94,-224.42C651.96,-208 716.16,-170.38 765.5,-132 804.46,-101.69 803.79,-80.76 846.5,-56 874.39,-39.84 908.67,-28.91 937.12,-21.87"/>
<polygon fill="midnightblue" stroke="midnightblue" points="938,-25.26 946.92,-19.55 936.38,-18.45 938,-25.26"/>
</g>
<!-- Node8&#45;&gt;Node9 -->
<g id="edge12" class="edge">
<title>Node8&#45;&gt;Node9</title>
<path fill="none" stroke="midnightblue" d="M609.38,-224.42C611.27,-215.4 614.11,-200.78 615.5,-188 619.44,-151.9 620.34,-109.43 620.51,-85.62"/>
<polygon fill="midnightblue" stroke="midnightblue" points="624.01,-85.55 620.54,-75.54 617.01,-85.53 624.01,-85.55"/>
</g>
<!-- Node8&#45;&gt;Node10 -->
<g id="edge14" class="edge">
<title>Node8&#45;&gt;Node10</title>
<path fill="none" stroke="midnightblue" d="M597.38,-224.32C587.97,-216.26 573.76,-204.08 562.43,-194.37"/>
<polygon fill="midnightblue" stroke="midnightblue" points="564.68,-191.68 554.81,-187.83 560.12,-197 564.68,-191.68"/>
</g>
<!-- Node11 -->
<g id="node11" class="node">
<title>Node11</title>
<g id="a_node11"><a xlink:href="../../d7/d79/MinMaxFix_8hpp.html" target="_top" xlink:title=" ">
<polygon fill="white" stroke="black" points="259.5,-112.5 259.5,-131.5 395.5,-131.5 395.5,-112.5 259.5,-112.5"/>
<text text-anchor="middle" x="327.5" y="-119.5" font-family="Helvetica,sans-Serif" font-size="10.00">AH/Math/MinMaxFix.hpp</text>
</a>
</g>
</g>
<!-- Node10&#45;&gt;Node11 -->
<g id="edge15" class="edge">
<title>Node10&#45;&gt;Node11</title>
<path fill="none" stroke="midnightblue" d="M510.12,-168.44C472.58,-159.1 412.37,-144.12 371.43,-133.93"/>
<polygon fill="midnightblue" stroke="midnightblue" points="372.27,-130.53 361.72,-131.52 370.58,-137.33 372.27,-130.53"/>
</g>
<!-- Node13 -->
<g id="node13" class="node">
<title>Node13</title>
<g id="a_node13"><a xlink:title=" ">
<polygon fill="white" stroke="#bfbfbf" points="257,-0.5 257,-19.5 320,-19.5 320,-0.5 257,-0.5"/>
<text text-anchor="middle" x="288.5" y="-7.5" font-family="Helvetica,sans-Serif" font-size="10.00">Arduino.h</text>
</a>
</g>
</g>
<!-- Node10&#45;&gt;Node13 -->
<g id="edge22" class="edge">
<title>Node10&#45;&gt;Node13</title>
<path fill="none" stroke="midnightblue" d="M482.39,-171.77C400.61,-164.25 265.41,-149.36 250.5,-132 228.5,-106.37 238.9,-87.72 250.5,-56 254.56,-44.91 262.69,-34.67 270.39,-26.76"/>
<polygon fill="midnightblue" stroke="midnightblue" points="272.97,-29.14 277.79,-19.7 268.14,-24.07 272.97,-29.14"/>
</g>
<!-- Node10&#45;&gt;Node14 -->
<g id="edge21" class="edge">
<title>Node10&#45;&gt;Node14</title>
<path fill="none" stroke="midnightblue" d="M569.54,-168.44C596.12,-159.36 638.31,-144.94 668.02,-134.78"/>
<polygon fill="midnightblue" stroke="midnightblue" points="669.25,-138.06 677.58,-131.52 666.99,-131.44 669.25,-138.06"/>
</g>
<!-- Node11&#45;&gt;Node3 -->
<g id="edge16" class="edge">
<title>Node11&#45;&gt;Node3</title>
<path fill="none" stroke="midnightblue" d="M359.09,-112.43C388.54,-104.14 433.51,-90.69 471.5,-76 491.16,-68.4 494.16,-61.51 514.5,-56 650.43,-19.18 815.09,-11.34 911.67,-10.28"/>
<polygon fill="midnightblue" stroke="midnightblue" points="911.98,-13.78 921.95,-10.19 911.92,-6.78 911.98,-13.78"/>
</g>
<!-- Node11&#45;&gt;Node9 -->
<g id="edge20" class="edge">
<title>Node11&#45;&gt;Node9</title>
<path fill="none" stroke="midnightblue" d="M373.93,-112.44C425.58,-102.92 509.01,-87.55 564.31,-77.36"/>
<polygon fill="midnightblue" stroke="midnightblue" points="565.09,-80.77 574.29,-75.52 563.82,-73.89 565.09,-80.77"/>
</g>
<!-- Node12 -->
<g id="node12" class="node">
<title>Node12</title>
<g id="a_node12"><a xlink:href="../../d6/d3b/FixArduinoMacros_8hpp.html" target="_top" xlink:title=" ">
<polygon fill="white" stroke="black" points="259.5,-56.5 259.5,-75.5 429.5,-75.5 429.5,-56.5 259.5,-56.5"/>
<text text-anchor="middle" x="344.5" y="-63.5" font-family="Helvetica,sans-Serif" font-size="10.00">AH/Math/FixArduinoMacros.hpp</text>
</a>
</g>
</g>
<!-- Node11&#45;&gt;Node12 -->
<g id="edge17" class="edge">
<title>Node11&#45;&gt;Node12</title>
<path fill="none" stroke="midnightblue" d="M330.31,-112.08C332.58,-104.85 335.87,-94.41 338.71,-85.4"/>
<polygon fill="midnightblue" stroke="midnightblue" points="342.08,-86.34 341.75,-75.75 335.4,-84.24 342.08,-86.34"/>
</g>
<!-- Node12&#45;&gt;Node3 -->
<g id="edge18" class="edge">
<title>Node12&#45;&gt;Node3</title>
<path fill="none" stroke="midnightblue" d="M429.55,-57.22C434.27,-56.8 438.94,-56.39 443.5,-56 609.71,-41.65 804.28,-26 911.73,-17.46"/>
<polygon fill="midnightblue" stroke="midnightblue" points="912.16,-20.94 921.85,-16.65 911.6,-13.96 912.16,-20.94"/>
</g>
<!-- Node12&#45;&gt;Node13 -->
<g id="edge19" class="edge">
<title>Node12&#45;&gt;Node13</title>
<path fill="none" stroke="midnightblue" d="M335.5,-56.32C327.31,-48.42 314.99,-36.55 305.03,-26.94"/>
<polygon fill="midnightblue" stroke="midnightblue" points="307.29,-24.26 297.66,-19.83 302.43,-29.29 307.29,-24.26"/>
</g>
<!-- Node15&#45;&gt;Node3 -->
<g id="edge24" class="edge">
<title>Node15&#45;&gt;Node3</title>
<path fill="none" stroke="midnightblue" d="M872.12,-336.44C866.94,-327.68 859.49,-313.47 856.5,-300 849.18,-267.02 848.16,-256.73 856.5,-224 858.25,-217.13 913.67,-117.96 917.5,-112 937.48,-80.96 964.02,-47.1 979.87,-27.53"/>
<polygon fill="midnightblue" stroke="midnightblue" points="982.73,-29.56 986.34,-19.6 977.31,-25.14 982.73,-29.56"/>
</g>
<!-- Node15&#45;&gt;Node7 -->
<g id="edge37" class="edge">
<title>Node15&#45;&gt;Node7</title>
<path fill="none" stroke="midnightblue" d="M882.63,-355.75C884.16,-362.86 884.6,-373.14 883.97,-382.1"/>
<polygon fill="midnightblue" stroke="midnightblue" points="880.49,-381.71 882.67,-392.08 887.43,-382.62 880.49,-381.71"/>
</g>
<!-- Node15&#45;&gt;Node9 -->
<g id="edge25" class="edge">
<title>Node15&#45;&gt;Node9</title>
<path fill="none" stroke="midnightblue" d="M862.81,-336.47C850.36,-328.53 832.93,-315.59 822.5,-300 773.94,-227.44 827.04,-173.94 765.5,-112 748.99,-95.39 726.48,-84.88 704.11,-78.25"/>
<polygon fill="midnightblue" stroke="midnightblue" points="704.78,-74.81 694.21,-75.56 702.94,-81.56 704.78,-74.81"/>
</g>
<!-- Node16 -->
<g id="node16" class="node">
<title>Node16</title>
<g id="a_node16"><a xlink:href="../../db/d02/Settings_8hpp.html" target="_top" xlink:title="All user settings and debugging options can be changed here.">
<polygon fill="white" stroke="black" points="1056,-280.5 1056,-299.5 1133,-299.5 1133,-280.5 1056,-280.5"/>
<text text-anchor="middle" x="1094.5" y="-287.5" font-family="Helvetica,sans-Serif" font-size="10.00">Settings.hpp</text>
</a>
</g>
</g>
<!-- Node15&#45;&gt;Node16 -->
<g id="edge26" class="edge">
<title>Node15&#45;&gt;Node16</title>
<path fill="none" stroke="midnightblue" d="M911.88,-336.44C949.42,-327.1 1009.63,-312.12 1050.57,-301.93"/>
<polygon fill="midnightblue" stroke="midnightblue" points="1051.42,-305.33 1060.28,-299.52 1049.73,-298.53 1051.42,-305.33"/>
</g>
<!-- Node22 -->
<g id="node22" class="node">
<title>Node22</title>
<g id="a_node22"><a xlink:href="../../d9/d98/TeensyUSBTypes_8hpp.html" target="_top" xlink:title=" ">
<polygon fill="white" stroke="black" points="865,-280.5 865,-299.5 1038,-299.5 1038,-280.5 865,-280.5"/>
<text text-anchor="middle" x="951.5" y="-287.5" font-family="Helvetica,sans-Serif" font-size="10.00">AH/Teensy/TeensyUSBTypes.hpp</text>
</a>
</g>
</g>
<!-- Node15&#45;&gt;Node22 -->
<g id="edge36" class="edge">
<title>Node15&#45;&gt;Node22</title>
<path fill="none" stroke="midnightblue" d="M889.39,-336.32C900.65,-328.11 917.79,-315.6 931.21,-305.81"/>
<polygon fill="midnightblue" stroke="midnightblue" points="933.38,-308.56 939.39,-299.83 929.25,-302.9 933.38,-308.56"/>
</g>
<!-- Node17 -->
<g id="node17" class="node">
<title>Node17</title>
<g id="a_node17"><a xlink:href="../../dc/d50/Frequency_8hpp.html" target="_top" xlink:title=" ">
<polygon fill="white" stroke="black" points="926.5,-112.5 926.5,-131.5 1060.5,-131.5 1060.5,-112.5 926.5,-112.5"/>
<text text-anchor="middle" x="993.5" y="-119.5" font-family="Helvetica,sans-Serif" font-size="10.00">AH/Types/Frequency.hpp</text>
</a>
</g>
</g>
<!-- Node16&#45;&gt;Node17 -->
<g id="edge27" class="edge">
<title>Node16&#45;&gt;Node17</title>
<path fill="none" stroke="midnightblue" d="M1089.07,-280.08C1072.97,-253.61 1025.27,-175.21 1003.97,-140.21"/>
<polygon fill="midnightblue" stroke="midnightblue" points="1006.9,-138.29 998.71,-131.57 1000.92,-141.93 1006.9,-138.29"/>
</g>
<!-- Node18 -->
<g id="node18" class="node">
<title>Node18</title>
<g id="a_node18"><a xlink:href="../../d7/d7c/ADCConfig_8hpp.html" target="_top" xlink:title="This file contains the platform&#45;specific ADC resolutions.">
<polygon fill="white" stroke="black" points="865,-224.5 865,-243.5 1022,-243.5 1022,-224.5 865,-224.5"/>
<text text-anchor="middle" x="943.5" y="-231.5" font-family="Helvetica,sans-Serif" font-size="10.00">AH/Hardware/ADCConfig.hpp</text>
</a>
</g>
</g>
<!-- Node16&#45;&gt;Node18 -->
<g id="edge30" class="edge">
<title>Node16&#45;&gt;Node18</title>
<path fill="none" stroke="midnightblue" d="M1070.57,-280.44C1045.28,-271.4 1005.2,-257.06 976.82,-246.92"/>
<polygon fill="midnightblue" stroke="midnightblue" points="977.91,-243.59 967.31,-243.52 975.55,-250.18 977.91,-243.59"/>
</g>
<!-- Node19 -->
<g id="node19" class="node">
<title>Node19</title>
<g id="a_node19"><a xlink:title=" ">
<polygon fill="white" stroke="#bfbfbf" points="1079,-224.5 1079,-243.5 1132,-243.5 1132,-224.5 1079,-224.5"/>
<text text-anchor="middle" x="1105.5" y="-231.5" font-family="Helvetica,sans-Serif" font-size="10.00">limits.h</text>
</a>
</g>
</g>
<!-- Node16&#45;&gt;Node19 -->
<g id="edge33" class="edge">
<title>Node16&#45;&gt;Node19</title>
<path fill="none" stroke="midnightblue" d="M1096.32,-280.08C1097.77,-272.93 1099.87,-262.64 1101.69,-253.69"/>
<polygon fill="midnightblue" stroke="midnightblue" points="1105.15,-254.25 1103.72,-243.75 1098.29,-252.85 1105.15,-254.25"/>
</g>
<!-- Node16&#45;&gt;Node20 -->
<g id="edge34" class="edge">
<title>Node16&#45;&gt;Node20</title>
<path fill="none" stroke="midnightblue" d="M1113.83,-280.44C1133.82,-271.6 1165.24,-257.69 1188.06,-247.59"/>
<polygon fill="midnightblue" stroke="midnightblue" points="1189.53,-250.76 1197.26,-243.52 1186.7,-244.36 1189.53,-250.76"/>
</g>
<!-- Node16&#45;&gt;Node21 -->
<g id="edge35" class="edge">
<title>Node16&#45;&gt;Node21</title>
<path fill="none" stroke="midnightblue" d="M1125.4,-280.44C1160.05,-270.85 1216.2,-255.3 1252.99,-245.11"/>
<polygon fill="midnightblue" stroke="midnightblue" points="1254.12,-248.43 1262.82,-242.39 1252.25,-241.68 1254.12,-248.43"/>
</g>
<!-- Node17&#45;&gt;Node3 -->
<g id="edge28" class="edge">
<title>Node17&#45;&gt;Node3</title>
<path fill="none" stroke="midnightblue" d="M993.5,-112.37C993.5,-94.62 993.5,-53.67 993.5,-29.6"/>
<polygon fill="midnightblue" stroke="midnightblue" points="997,-29.59 993.5,-19.59 990,-29.59 997,-29.59"/>
</g>
<!-- Node17&#45;&gt;Node9 -->
<g id="edge29" class="edge">
<title>Node17&#45;&gt;Node9</title>
<path fill="none" stroke="midnightblue" d="M934.4,-112.44C867.83,-102.81 759.78,-87.16 689.42,-76.98"/>
<polygon fill="midnightblue" stroke="midnightblue" points="689.72,-73.49 679.33,-75.52 688.72,-80.41 689.72,-73.49"/>
</g>
<!-- Node18&#45;&gt;Node3 -->
<g id="edge31" class="edge">
<title>Node18&#45;&gt;Node3</title>
<path fill="none" stroke="midnightblue" d="M962.98,-224.33C992.45,-209.99 1047.3,-178.25 1069.5,-132 1088.86,-91.67 1043.23,-48.11 1014.56,-25.89"/>
<polygon fill="midnightblue" stroke="midnightblue" points="1016.41,-22.9 1006.3,-19.71 1012.21,-28.5 1016.41,-22.9"/>
</g>
<!-- Node18&#45;&gt;Node10 -->
<g id="edge32" class="edge">
<title>Node18&#45;&gt;Node10</title>
<path fill="none" stroke="midnightblue" d="M880.28,-224.44C808.71,-214.76 692.33,-199.01 617.1,-188.83"/>
<polygon fill="midnightblue" stroke="midnightblue" points="617.15,-185.3 606.77,-187.43 616.21,-192.24 617.15,-185.3"/>
</g>
<!-- Node25&#45;&gt;Node3 -->
<g id="edge48" class="edge">
<title>Node25&#45;&gt;Node3</title>
<path fill="none" stroke="midnightblue" d="M203.13,-113.49C281.15,-105.22 396.45,-91.07 438.5,-76 454.64,-70.22 455.2,-61.32 471.5,-56 550.98,-30.06 785.49,-18.17 911.39,-13.53"/>
<polygon fill="midnightblue" stroke="midnightblue" points="911.88,-17.01 921.74,-13.15 911.62,-10.02 911.88,-17.01"/>
</g>
<!-- Node25&#45;&gt;Node9 -->
<g id="edge49" class="edge">
<title>Node25&#45;&gt;Node9</title>
<path fill="none" stroke="midnightblue" d="M203.15,-112.62C292.18,-102.89 438.79,-86.86 532.43,-76.63"/>
<polygon fill="midnightblue" stroke="midnightblue" points="532.89,-80.1 542.45,-75.53 532.13,-73.14 532.89,-80.1"/>
</g>
<!-- Node26 -->
<g id="node26" class="node">
<title>Node26</title>
<g id="a_node26"><a xlink:title=" ">
<polygon fill="white" stroke="#bfbfbf" points="97.5,-56.5 97.5,-75.5 187.5,-75.5 187.5,-56.5 97.5,-56.5"/>
<text text-anchor="middle" x="142.5" y="-63.5" font-family="Helvetica,sans-Serif" font-size="10.00">AH/STL/cstddef</text>
</a>
</g>
</g>
<!-- Node25&#45;&gt;Node26 -->
<g id="edge46" class="edge">
<title>Node25&#45;&gt;Node26</title>
<path fill="none" stroke="midnightblue" d="M129.14,-112.08C131.29,-104.85 134.38,-94.41 137.05,-85.4"/>
<polygon fill="midnightblue" stroke="midnightblue" points="140.42,-86.33 139.91,-75.75 133.71,-84.34 140.42,-86.33"/>
</g>
<!-- Node27 -->
<g id="node27" class="node">
<title>Node27</title>
<g id="a_node27"><a xlink:title=" ">
<polygon fill="white" stroke="#bfbfbf" points="0,-56.5 0,-75.5 79,-75.5 79,-56.5 0,-56.5"/>
<text text-anchor="middle" x="39.5" y="-63.5" font-family="Helvetica,sans-Serif" font-size="10.00">AH/STL/tuple</text>
</a>
</g>
</g>
<!-- Node25&#45;&gt;Node27 -->
<g id="edge47" class="edge">
<title>Node25&#45;&gt;Node27</title>
<path fill="none" stroke="midnightblue" d="M112.52,-112.32C98.95,-103.9 78.12,-90.97 62.18,-81.07"/>
<polygon fill="midnightblue" stroke="midnightblue" points="63.79,-77.95 53.44,-75.65 60.09,-83.9 63.79,-77.95"/>
</g>
</g>
</svg>
