<?xml version="1.0" encoding="UTF-8" standalone="no"?>
<!DOCTYPE svg PUBLIC "-//W3C//DTD SVG 1.1//EN"
 "http://www.w3.org/Graphics/SVG/1.1/DTD/svg11.dtd">
<!-- Generated by graphviz version 2.43.0 (0)
 -->
<!-- Title: RegisterEncoders.hpp Pages: 1 -->
<svg width="914pt" height="588pt"
 viewBox="0.00 0.00 914.00 588.00" xmlns="http://www.w3.org/2000/svg" xmlns:xlink="http://www.w3.org/1999/xlink">
<g id="graph0" class="graph" transform="scale(1 1) rotate(0) translate(4 584)">
<title>RegisterEncoders.hpp</title>
<polygon fill="white" stroke="transparent" points="-4,4 -4,-584 910,-584 910,4 -4,4"/>
<!-- Node1 -->
<g id="node1" class="node">
<title>Node1</title>
<g id="a_node1"><a xlink:title=" ">
<polygon fill="#bfbfbf" stroke="black" points="142,-560.5 142,-579.5 264,-579.5 264,-560.5 142,-560.5"/>
<text text-anchor="middle" x="203" y="-567.5" font-family="Helvetica,sans-Serif" font-size="10.00">RegisterEncoders.hpp</text>
</a>
</g>
</g>
<!-- Node2 -->
<g id="node2" class="node">
<title>Node2</title>
<g id="a_node2"><a xlink:href="../../d6/ddf/Arduino-Wrapper_8h.html" target="_top" xlink:title=" ">
<polygon fill="white" stroke="black" points="609,-168.5 609,-187.5 733,-187.5 733,-168.5 609,-168.5"/>
<text text-anchor="middle" x="671" y="-175.5" font-family="Helvetica,sans-Serif" font-size="10.00">AH/Arduino&#45;Wrapper.h</text>
</a>
</g>
</g>
<!-- Node1&#45;&gt;Node2 -->
<g id="edge1" class="edge">
<title>Node1&#45;&gt;Node2</title>
<path fill="none" stroke="midnightblue" d="M264.23,-564.03C415.74,-550.92 796,-512.66 796,-459 796,-459 796,-459 796,-289 796,-258.9 797,-246.49 777,-224 762.74,-207.96 741.79,-197.46 722.28,-190.67"/>
<polygon fill="midnightblue" stroke="midnightblue" points="723.15,-187.27 712.55,-187.54 721,-193.94 723.15,-187.27"/>
</g>
<!-- Node7 -->
<g id="node7" class="node">
<title>Node7</title>
<g id="a_node7"><a xlink:href="../../dc/dc7/NamespaceSettings_8hpp.html" target="_top" xlink:title=" ">
<polygon fill="white" stroke="black" points="346.5,-56.5 346.5,-75.5 541.5,-75.5 541.5,-56.5 346.5,-56.5"/>
<text text-anchor="middle" x="444" y="-63.5" font-family="Helvetica,sans-Serif" font-size="10.00">AH/Settings/NamespaceSettings.hpp</text>
</a>
</g>
</g>
<!-- Node1&#45;&gt;Node7 -->
<g id="edge10" class="edge">
<title>Node1&#45;&gt;Node7</title>
<path fill="none" stroke="midnightblue" d="M141.82,-561.82C82.05,-550.99 0,-524.24 0,-459 0,-459 0,-459 0,-177 0,-144.4 7.08,-130.38 34,-112 81.57,-79.52 231.3,-70.09 335.98,-67.57"/>
<polygon fill="midnightblue" stroke="midnightblue" points="336.36,-71.06 346.28,-67.34 336.21,-64.06 336.36,-71.06"/>
</g>
<!-- Node8 -->
<g id="node8" class="node">
<title>Node8</title>
<g id="a_node8"><a xlink:title=" ">
<polygon fill="white" stroke="#bfbfbf" points="43.5,-112.5 43.5,-131.5 150.5,-131.5 150.5,-112.5 43.5,-112.5"/>
<text text-anchor="middle" x="97" y="-119.5" font-family="Helvetica,sans-Serif" font-size="10.00">AH/STL/type_traits</text>
</a>
</g>
</g>
<!-- Node1&#45;&gt;Node8 -->
<g id="edge33" class="edge">
<title>Node1&#45;&gt;Node8</title>
<path fill="none" stroke="midnightblue" d="M161.79,-560.48C112.92,-547.69 38,-518.39 38,-459 38,-459 38,-459 38,-233 38,-196.02 64.21,-159.47 81.69,-139.21"/>
<polygon fill="midnightblue" stroke="midnightblue" points="84.47,-141.34 88.55,-131.56 79.26,-136.67 84.47,-141.34"/>
</g>
<!-- Node9 -->
<g id="node9" class="node">
<title>Node9</title>
<g id="a_node9"><a xlink:href="../../de/d76/Array_8hpp.html" target="_top" xlink:title=" ">
<polygon fill="white" stroke="black" points="135.5,-504.5 135.5,-523.5 270.5,-523.5 270.5,-504.5 135.5,-504.5"/>
<text text-anchor="middle" x="203" y="-511.5" font-family="Helvetica,sans-Serif" font-size="10.00">AH/Containers/Array.hpp</text>
</a>
</g>
</g>
<!-- Node1&#45;&gt;Node9 -->
<g id="edge11" class="edge">
<title>Node1&#45;&gt;Node9</title>
<path fill="none" stroke="midnightblue" d="M203,-560.08C203,-553.01 203,-542.86 203,-533.99"/>
<polygon fill="midnightblue" stroke="midnightblue" points="206.5,-533.75 203,-523.75 199.5,-533.75 206.5,-533.75"/>
</g>
<!-- Node22 -->
<g id="node22" class="node">
<title>Node22</title>
<g id="a_node22"><a xlink:title=" ">
<polygon fill="white" stroke="#bfbfbf" points="824,-504.5 824,-523.5 906,-523.5 906,-504.5 824,-504.5"/>
<text text-anchor="middle" x="865" y="-511.5" font-family="Helvetica,sans-Serif" font-size="10.00">AH/STL/limits</text>
</a>
</g>
</g>
<!-- Node1&#45;&gt;Node22 -->
<g id="edge32" class="edge">
<title>Node1&#45;&gt;Node22</title>
<path fill="none" stroke="midnightblue" d="M264.34,-566.24C374.09,-560.92 611.15,-547.59 810,-524 811.27,-523.85 812.56,-523.69 813.85,-523.52"/>
<polygon fill="midnightblue" stroke="midnightblue" points="814.49,-526.97 823.91,-522.13 813.52,-520.04 814.49,-526.97"/>
</g>
<!-- Node3 -->
<g id="node3" class="node">
<title>Node3</title>
<g id="a_node3"><a xlink:href="../../d7/d79/MinMaxFix_8hpp.html" target="_top" xlink:title=" ">
<polygon fill="white" stroke="black" points="594,-112.5 594,-131.5 730,-131.5 730,-112.5 594,-112.5"/>
<text text-anchor="middle" x="662" y="-119.5" font-family="Helvetica,sans-Serif" font-size="10.00">AH/Math/MinMaxFix.hpp</text>
</a>
</g>
</g>
<!-- Node2&#45;&gt;Node3 -->
<g id="edge2" class="edge">
<title>Node2&#45;&gt;Node3</title>
<path fill="none" stroke="midnightblue" d="M669.51,-168.08C668.32,-160.93 666.61,-150.64 665.12,-141.69"/>
<polygon fill="midnightblue" stroke="midnightblue" points="668.55,-141.04 663.46,-131.75 661.65,-142.19 668.55,-141.04"/>
</g>
<!-- Node6 -->
<g id="node6" class="node">
<title>Node6</title>
<g id="a_node6"><a xlink:title=" ">
<polygon fill="white" stroke="#bfbfbf" points="669.5,-0.5 669.5,-19.5 732.5,-19.5 732.5,-0.5 669.5,-0.5"/>
<text text-anchor="middle" x="701" y="-7.5" font-family="Helvetica,sans-Serif" font-size="10.00">Arduino.h</text>
</a>
</g>
</g>
<!-- Node2&#45;&gt;Node6 -->
<g id="edge9" class="edge">
<title>Node2&#45;&gt;Node6</title>
<path fill="none" stroke="midnightblue" d="M694.45,-168.41C710.16,-161.28 729.62,-149.46 739,-132 754.99,-102.25 750.6,-87.72 739,-56 734.94,-44.91 726.81,-34.67 719.11,-26.76"/>
<polygon fill="midnightblue" stroke="midnightblue" points="721.36,-24.07 711.71,-19.7 716.53,-29.14 721.36,-24.07"/>
</g>
<!-- Node2&#45;&gt;Node8 -->
<g id="edge8" class="edge">
<title>Node2&#45;&gt;Node8</title>
<path fill="none" stroke="midnightblue" d="M608.75,-171.14C498.85,-160.8 271.58,-139.42 160.67,-128.99"/>
<polygon fill="midnightblue" stroke="midnightblue" points="160.92,-125.5 150.63,-128.05 160.26,-132.47 160.92,-125.5"/>
</g>
<!-- Node4 -->
<g id="node4" class="node">
<title>Node4</title>
<g id="a_node4"><a xlink:href="../../d6/d3b/FixArduinoMacros_8hpp.html" target="_top" xlink:title=" ">
<polygon fill="white" stroke="black" points="560,-56.5 560,-75.5 730,-75.5 730,-56.5 560,-56.5"/>
<text text-anchor="middle" x="645" y="-63.5" font-family="Helvetica,sans-Serif" font-size="10.00">AH/Math/FixArduinoMacros.hpp</text>
</a>
</g>
</g>
<!-- Node3&#45;&gt;Node4 -->
<g id="edge3" class="edge">
<title>Node3&#45;&gt;Node4</title>
<path fill="none" stroke="midnightblue" d="M659.19,-112.08C656.92,-104.85 653.63,-94.41 650.79,-85.4"/>
<polygon fill="midnightblue" stroke="midnightblue" points="654.1,-84.24 647.75,-75.75 647.42,-86.34 654.1,-84.24"/>
</g>
<!-- Node3&#45;&gt;Node7 -->
<g id="edge6" class="edge">
<title>Node3&#45;&gt;Node7</title>
<path fill="none" stroke="midnightblue" d="M627.46,-112.44C589.75,-103.1 529.26,-88.12 488.14,-77.93"/>
<polygon fill="midnightblue" stroke="midnightblue" points="488.93,-74.52 478.38,-75.52 487.25,-81.32 488.93,-74.52"/>
</g>
<!-- Node5 -->
<g id="node5" class="node">
<title>Node5</title>
<g id="a_node5"><a xlink:href="../../d1/d65/Warnings_8hpp.html" target="_top" xlink:title=" ">
<polygon fill="white" stroke="black" points="468.5,-0.5 468.5,-19.5 611.5,-19.5 611.5,-0.5 468.5,-0.5"/>
<text text-anchor="middle" x="540" y="-7.5" font-family="Helvetica,sans-Serif" font-size="10.00">AH/Settings/Warnings.hpp</text>
</a>
</g>
</g>
<!-- Node4&#45;&gt;Node5 -->
<g id="edge4" class="edge">
<title>Node4&#45;&gt;Node5</title>
<path fill="none" stroke="midnightblue" d="M628.13,-56.32C611.29,-47.66 585.19,-34.24 565.76,-24.25"/>
<polygon fill="midnightblue" stroke="midnightblue" points="567.32,-21.12 556.83,-19.65 564.12,-27.34 567.32,-21.12"/>
</g>
<!-- Node4&#45;&gt;Node6 -->
<g id="edge5" class="edge">
<title>Node4&#45;&gt;Node6</title>
<path fill="none" stroke="midnightblue" d="M654,-56.32C662.19,-48.42 674.51,-36.55 684.47,-26.94"/>
<polygon fill="midnightblue" stroke="midnightblue" points="687.07,-29.29 691.84,-19.83 682.21,-24.26 687.07,-29.29"/>
</g>
<!-- Node7&#45;&gt;Node5 -->
<g id="edge7" class="edge">
<title>Node7&#45;&gt;Node5</title>
<path fill="none" stroke="midnightblue" d="M459.42,-56.32C474.54,-47.82 497.82,-34.73 515.47,-24.8"/>
<polygon fill="midnightblue" stroke="midnightblue" points="517.61,-27.61 524.61,-19.65 514.18,-21.51 517.61,-27.61"/>
</g>
<!-- Node9&#45;&gt;Node8 -->
<g id="edge30" class="edge">
<title>Node9&#45;&gt;Node8</title>
<path fill="none" stroke="midnightblue" d="M199.64,-504.32C186.88,-471.08 140.95,-348.56 116,-244 107.47,-208.27 101.8,-165.67 99.02,-141.74"/>
<polygon fill="midnightblue" stroke="midnightblue" points="102.47,-141.15 97.88,-131.6 95.52,-141.93 102.47,-141.15"/>
</g>
<!-- Node10 -->
<g id="node10" class="node">
<title>Node10</title>
<g id="a_node10"><a xlink:href="../../d1/d93/Error_8hpp.html" target="_top" xlink:title=" ">
<polygon fill="white" stroke="black" points="363,-448.5 363,-467.5 467,-467.5 467,-448.5 363,-448.5"/>
<text text-anchor="middle" x="415" y="-455.5" font-family="Helvetica,sans-Serif" font-size="10.00">AH/Error/Error.hpp</text>
</a>
</g>
</g>
<!-- Node9&#45;&gt;Node10 -->
<g id="edge12" class="edge">
<title>Node9&#45;&gt;Node10</title>
<path fill="none" stroke="midnightblue" d="M236.59,-504.44C273.19,-495.12 331.84,-480.18 371.83,-470"/>
<polygon fill="midnightblue" stroke="midnightblue" points="372.74,-473.38 381.57,-467.52 371.01,-466.59 372.74,-473.38"/>
</g>
<!-- Node18 -->
<g id="node18" class="node">
<title>Node18</title>
<g id="a_node18"><a xlink:title=" ">
<polygon fill="white" stroke="#bfbfbf" points="125,-224.5 125,-243.5 181,-243.5 181,-224.5 125,-224.5"/>
<text text-anchor="middle" x="153" y="-231.5" font-family="Helvetica,sans-Serif" font-size="10.00">stddef.h</text>
</a>
</g>
</g>
<!-- Node9&#45;&gt;Node18 -->
<g id="edge31" class="edge">
<title>Node9&#45;&gt;Node18</title>
<path fill="none" stroke="midnightblue" d="M205.56,-504.25C210.75,-485.74 222,-441.18 222,-403 222,-403 222,-403 222,-345 222,-306.39 191.12,-270.21 170.67,-250.49"/>
<polygon fill="midnightblue" stroke="midnightblue" points="172.89,-247.77 163.18,-243.54 168.13,-252.9 172.89,-247.77"/>
</g>
<!-- Node21 -->
<g id="node21" class="node">
<title>Node21</title>
<g id="a_node21"><a xlink:title=" ">
<polygon fill="white" stroke="#bfbfbf" points="66,-448.5 66,-467.5 156,-467.5 156,-448.5 66,-448.5"/>
<text text-anchor="middle" x="111" y="-455.5" font-family="Helvetica,sans-Serif" font-size="10.00">AH/STL/iterator</text>
</a>
</g>
</g>
<!-- Node9&#45;&gt;Node21 -->
<g id="edge29" class="edge">
<title>Node9&#45;&gt;Node21</title>
<path fill="none" stroke="midnightblue" d="M188.22,-504.32C173.73,-495.82 151.43,-482.73 134.51,-472.8"/>
<polygon fill="midnightblue" stroke="midnightblue" points="136.14,-469.7 125.74,-467.65 132.6,-475.74 136.14,-469.7"/>
</g>
<!-- Node11 -->
<g id="node11" class="node">
<title>Node11</title>
<g id="a_node11"><a xlink:href="../../df/dee/Debug_8hpp.html" target="_top" xlink:title=" ">
<polygon fill="white" stroke="black" points="467.5,-392.5 467.5,-411.5 588.5,-411.5 588.5,-392.5 467.5,-392.5"/>
<text text-anchor="middle" x="528" y="-399.5" font-family="Helvetica,sans-Serif" font-size="10.00">AH/Debug/Debug.hpp</text>
</a>
</g>
</g>
<!-- Node10&#45;&gt;Node11 -->
<g id="edge13" class="edge">
<title>Node10&#45;&gt;Node11</title>
<path fill="none" stroke="midnightblue" d="M432.91,-448.44C451.25,-439.68 480.01,-425.94 501.09,-415.86"/>
<polygon fill="midnightblue" stroke="midnightblue" points="502.67,-418.99 510.18,-411.52 499.65,-412.67 502.67,-418.99"/>
</g>
<!-- Node12 -->
<g id="node12" class="node">
<title>Node12</title>
<g id="a_node12"><a xlink:href="../../dd/d80/PrintStream_8hpp.html" target="_top" xlink:title=" ">
<polygon fill="white" stroke="black" points="594.5,-224.5 594.5,-243.5 767.5,-243.5 767.5,-224.5 594.5,-224.5"/>
<text text-anchor="middle" x="681" y="-231.5" font-family="Helvetica,sans-Serif" font-size="10.00">AH/PrintStream/PrintStream.hpp</text>
</a>
</g>
</g>
<!-- Node11&#45;&gt;Node12 -->
<g id="edge14" class="edge">
<title>Node11&#45;&gt;Node12</title>
<path fill="none" stroke="midnightblue" d="M579.83,-392.44C630.42,-381.02 704.63,-355.39 739,-300 751.16,-280.41 728.27,-261.1 707.76,-248.69"/>
<polygon fill="midnightblue" stroke="midnightblue" points="709.36,-245.57 698.94,-243.65 705.89,-251.65 709.36,-245.57"/>
</g>
<!-- Node13 -->
<g id="node13" class="node">
<title>Node13</title>
<g id="a_node13"><a xlink:href="../../d2/dd5/SettingsWrapper_8hpp.html" target="_top" xlink:title=" ">
<polygon fill="white" stroke="black" points="439,-336.5 439,-355.5 617,-355.5 617,-336.5 439,-336.5"/>
<text text-anchor="middle" x="528" y="-343.5" font-family="Helvetica,sans-Serif" font-size="10.00">AH/Settings/SettingsWrapper.hpp</text>
</a>
</g>
</g>
<!-- Node11&#45;&gt;Node13 -->
<g id="edge17" class="edge">
<title>Node11&#45;&gt;Node13</title>
<path fill="none" stroke="midnightblue" d="M522.83,-392.08C521.32,-384.93 520.89,-374.64 521.54,-365.69"/>
<polygon fill="midnightblue" stroke="midnightblue" points="525.02,-366.13 522.87,-355.75 518.08,-365.2 525.02,-366.13"/>
</g>
<!-- Node12&#45;&gt;Node2 -->
<g id="edge15" class="edge">
<title>Node12&#45;&gt;Node2</title>
<path fill="none" stroke="midnightblue" d="M679.35,-224.08C678.02,-216.93 676.12,-206.64 674.46,-197.69"/>
<polygon fill="midnightblue" stroke="midnightblue" points="677.88,-196.95 672.62,-187.75 671,-198.22 677.88,-196.95"/>
</g>
<!-- Node12&#45;&gt;Node7 -->
<g id="edge16" class="edge">
<title>Node12&#45;&gt;Node7</title>
<path fill="none" stroke="midnightblue" d="M700.91,-224.41C715.22,-217.04 733.46,-204.92 742,-188 749.64,-172.87 755.95,-130.69 739,-112 726.05,-97.71 628.38,-84.82 548.92,-76.54"/>
<polygon fill="midnightblue" stroke="midnightblue" points="549.14,-73.04 538.83,-75.5 548.42,-80.01 549.14,-73.04"/>
</g>
<!-- Node13&#45;&gt;Node7 -->
<g id="edge18" class="edge">
<title>Node13&#45;&gt;Node7</title>
<path fill="none" stroke="midnightblue" d="M530.23,-336.41C536.32,-312.46 552.31,-245.28 546,-224 528.92,-166.35 483.27,-110.04 459.25,-83.23"/>
<polygon fill="midnightblue" stroke="midnightblue" points="461.61,-80.62 452.28,-75.6 456.44,-85.35 461.61,-80.62"/>
</g>
<!-- Node13&#45;&gt;Node11 -->
<g id="edge28" class="edge">
<title>Node13&#45;&gt;Node11</title>
<path fill="none" stroke="midnightblue" d="M533.13,-355.75C534.66,-362.86 535.1,-373.14 534.47,-382.1"/>
<polygon fill="midnightblue" stroke="midnightblue" points="530.99,-381.71 533.17,-392.08 537.93,-382.62 530.99,-381.71"/>
</g>
<!-- Node14 -->
<g id="node14" class="node">
<title>Node14</title>
<g id="a_node14"><a xlink:href="../../db/d02/Settings_8hpp.html" target="_top" xlink:title="All user settings and debugging options can be changed here.">
<polygon fill="white" stroke="black" points="274.5,-280.5 274.5,-299.5 351.5,-299.5 351.5,-280.5 274.5,-280.5"/>
<text text-anchor="middle" x="313" y="-287.5" font-family="Helvetica,sans-Serif" font-size="10.00">Settings.hpp</text>
</a>
</g>
</g>
<!-- Node13&#45;&gt;Node14 -->
<g id="edge19" class="edge">
<title>Node13&#45;&gt;Node14</title>
<path fill="none" stroke="midnightblue" d="M493.93,-336.44C456.82,-327.12 397.34,-312.18 356.79,-302"/>
<polygon fill="midnightblue" stroke="midnightblue" points="357.46,-298.56 346.91,-299.52 355.75,-305.35 357.46,-298.56"/>
</g>
<!-- Node20 -->
<g id="node20" class="node">
<title>Node20</title>
<g id="a_node20"><a xlink:href="../../d9/d98/TeensyUSBTypes_8hpp.html" target="_top" xlink:title=" ">
<polygon fill="white" stroke="black" points="556.5,-280.5 556.5,-299.5 729.5,-299.5 729.5,-280.5 556.5,-280.5"/>
<text text-anchor="middle" x="643" y="-287.5" font-family="Helvetica,sans-Serif" font-size="10.00">AH/Teensy/TeensyUSBTypes.hpp</text>
</a>
</g>
</g>
<!-- Node13&#45;&gt;Node20 -->
<g id="edge27" class="edge">
<title>Node13&#45;&gt;Node20</title>
<path fill="none" stroke="midnightblue" d="M546.22,-336.44C564.9,-327.68 594.16,-313.94 615.62,-303.86"/>
<polygon fill="midnightblue" stroke="midnightblue" points="617.3,-306.93 624.86,-299.52 614.32,-300.6 617.3,-306.93"/>
</g>
<!-- Node15 -->
<g id="node15" class="node">
<title>Node15</title>
<g id="a_node15"><a xlink:href="../../dc/d50/Frequency_8hpp.html" target="_top" xlink:title=" ">
<polygon fill="white" stroke="black" points="331,-168.5 331,-187.5 465,-187.5 465,-168.5 331,-168.5"/>
<text text-anchor="middle" x="398" y="-175.5" font-family="Helvetica,sans-Serif" font-size="10.00">AH/Types/Frequency.hpp</text>
</a>
</g>
</g>
<!-- Node14&#45;&gt;Node15 -->
<g id="edge20" class="edge">
<title>Node14&#45;&gt;Node15</title>
<path fill="none" stroke="midnightblue" d="M319.67,-280.37C333.76,-262.14 366.76,-219.43 385.11,-195.68"/>
<polygon fill="midnightblue" stroke="midnightblue" points="388.02,-197.64 391.36,-187.59 382.48,-193.36 388.02,-197.64"/>
</g>
<!-- Node16 -->
<g id="node16" class="node">
<title>Node16</title>
<g id="a_node16"><a xlink:href="../../d7/d7c/ADCConfig_8hpp.html" target="_top" xlink:title="This file contains the platform&#45;specific ADC resolutions.">
<polygon fill="white" stroke="black" points="380.5,-224.5 380.5,-243.5 537.5,-243.5 537.5,-224.5 380.5,-224.5"/>
<text text-anchor="middle" x="459" y="-231.5" font-family="Helvetica,sans-Serif" font-size="10.00">AH/Hardware/ADCConfig.hpp</text>
</a>
</g>
</g>
<!-- Node14&#45;&gt;Node16 -->
<g id="edge22" class="edge">
<title>Node14&#45;&gt;Node16</title>
<path fill="none" stroke="midnightblue" d="M336.13,-280.44C360.48,-271.44 399.01,-257.19 426.42,-247.05"/>
<polygon fill="midnightblue" stroke="midnightblue" points="427.81,-250.27 435.97,-243.52 425.38,-243.7 427.81,-250.27"/>
</g>
<!-- Node17 -->
<g id="node17" class="node">
<title>Node17</title>
<g id="a_node17"><a xlink:title=" ">
<polygon fill="white" stroke="#bfbfbf" points="199.5,-224.5 199.5,-243.5 252.5,-243.5 252.5,-224.5 199.5,-224.5"/>
<text text-anchor="middle" x="226" y="-231.5" font-family="Helvetica,sans-Serif" font-size="10.00">limits.h</text>
</a>
</g>
</g>
<!-- Node14&#45;&gt;Node17 -->
<g id="edge24" class="edge">
<title>Node14&#45;&gt;Node17</title>
<path fill="none" stroke="midnightblue" d="M299.02,-280.32C285.45,-271.9 264.62,-258.97 248.68,-249.07"/>
<polygon fill="midnightblue" stroke="midnightblue" points="250.29,-245.95 239.94,-243.65 246.59,-251.9 250.29,-245.95"/>
</g>
<!-- Node14&#45;&gt;Node18 -->
<g id="edge25" class="edge">
<title>Node14&#45;&gt;Node18</title>
<path fill="none" stroke="midnightblue" d="M287.65,-280.44C260.73,-271.36 218,-256.94 187.91,-246.78"/>
<polygon fill="midnightblue" stroke="midnightblue" points="188.83,-243.4 178.23,-243.52 186.59,-250.03 188.83,-243.4"/>
</g>
<!-- Node19 -->
<g id="node19" class="node">
<title>Node19</title>
<g id="a_node19"><a xlink:title=" ">
<polygon fill="white" stroke="#bfbfbf" points="270.5,-224.5 270.5,-243.5 323.5,-243.5 323.5,-224.5 270.5,-224.5"/>
<text text-anchor="middle" x="297" y="-231.5" font-family="Helvetica,sans-Serif" font-size="10.00">stdint.h</text>
</a>
</g>
</g>
<!-- Node14&#45;&gt;Node19 -->
<g id="edge26" class="edge">
<title>Node14&#45;&gt;Node19</title>
<path fill="none" stroke="midnightblue" d="M310.36,-280.08C308.21,-272.85 305.12,-262.41 302.45,-253.4"/>
<polygon fill="midnightblue" stroke="midnightblue" points="305.79,-252.34 299.59,-243.75 299.08,-254.33 305.79,-252.34"/>
</g>
<!-- Node15&#45;&gt;Node7 -->
<g id="edge21" class="edge">
<title>Node15&#45;&gt;Node7</title>
<path fill="none" stroke="midnightblue" d="M401.61,-168.37C409.1,-150.46 426.47,-108.92 436.49,-84.95"/>
<polygon fill="midnightblue" stroke="midnightblue" points="439.78,-86.17 440.41,-75.59 433.32,-83.47 439.78,-86.17"/>
</g>
<!-- Node16&#45;&gt;Node2 -->
<g id="edge23" class="edge">
<title>Node16&#45;&gt;Node2</title>
<path fill="none" stroke="midnightblue" d="M492.59,-224.44C529.19,-215.12 587.84,-200.18 627.83,-190"/>
<polygon fill="midnightblue" stroke="midnightblue" points="628.74,-193.38 637.57,-187.52 627.01,-186.59 628.74,-193.38"/>
</g>
</g>
</svg>
