<?xml version="1.0" encoding="UTF-8" standalone="no"?>
<!DOCTYPE svg PUBLIC "-//W3C//DTD SVG 1.1//EN"
 "http://www.w3.org/Graphics/SVG/1.1/DTD/svg11.dtd">
<!-- Generated by graphviz version 2.43.0 (0)
 -->
<!-- Title: Button.hpp Pages: 1 -->
<svg width="1430pt" height="789pt"
 viewBox="0.00 0.00 1430.00 789.00" xmlns="http://www.w3.org/2000/svg" xmlns:xlink="http://www.w3.org/1999/xlink">
<g id="graph0" class="graph" transform="scale(1 1) rotate(0) translate(4 785)">
<title>Button.hpp</title>
<polygon fill="white" stroke="transparent" points="-4,4 -4,-785 1426,-785 1426,4 -4,4"/>
<!-- Node1 -->
<g id="node1" class="node">
<title>Node1</title>
<g id="a_node1"><a xlink:title=" ">
<polygon fill="#bfbfbf" stroke="black" points="202,-761.5 202,-780.5 272,-780.5 272,-761.5 202,-761.5"/>
<text text-anchor="middle" x="237" y="-768.5" font-family="Helvetica,sans-Serif" font-size="10.00">Button.hpp</text>
</a>
</g>
</g>
<!-- Node2 -->
<g id="node2" class="node">
<title>Node2</title>
<g id="a_node2"><a xlink:href="../../d1/d65/Warnings_8hpp.html" target="_top" xlink:title=" ">
<polygon fill="white" stroke="black" points="786.5,-0.5 786.5,-19.5 929.5,-19.5 929.5,-0.5 786.5,-0.5"/>
<text text-anchor="middle" x="858" y="-7.5" font-family="Helvetica,sans-Serif" font-size="10.00">AH/Settings/Warnings.hpp</text>
</a>
</g>
</g>
<!-- Node1&#45;&gt;Node2 -->
<g id="edge1" class="edge">
<title>Node1&#45;&gt;Node2</title>
<path fill="none" stroke="midnightblue" d="M201.77,-767.23C135.75,-759.91 0,-733.87 0,-643.5 0,-643.5 0,-643.5 0,-121 0,-75.19 37.29,-72.57 80,-56 143.59,-31.33 589.79,-17.6 776.33,-12.89"/>
<polygon fill="midnightblue" stroke="midnightblue" points="776.45,-16.39 786.36,-12.64 776.27,-9.39 776.45,-16.39"/>
</g>
<!-- Node3 -->
<g id="node3" class="node">
<title>Node3</title>
<g id="a_node3"><a xlink:href="../../dd/ddf/ExtendedInputOutput_8hpp.html" target="_top" xlink:title=" ">
<polygon fill="white" stroke="black" points="148.5,-694.5 148.5,-724.5 325.5,-724.5 325.5,-694.5 148.5,-694.5"/>
<text text-anchor="start" x="156.5" y="-712.5" font-family="Helvetica,sans-Serif" font-size="10.00">AH/Hardware/ExtendedInput</text>
<text text-anchor="middle" x="237" y="-701.5" font-family="Helvetica,sans-Serif" font-size="10.00">Output/ExtendedInputOutput.hpp</text>
</a>
</g>
</g>
<!-- Node1&#45;&gt;Node3 -->
<g id="edge2" class="edge">
<title>Node1&#45;&gt;Node3</title>
<path fill="none" stroke="midnightblue" d="M237,-761.48C237,-754.47 237,-744.19 237,-734.7"/>
<polygon fill="midnightblue" stroke="midnightblue" points="240.5,-734.52 237,-724.52 233.5,-734.52 240.5,-734.52"/>
</g>
<!-- Node16 -->
<g id="node16" class="node">
<title>Node16</title>
<g id="a_node16"><a xlink:href="../../d2/dd5/SettingsWrapper_8hpp.html" target="_top" xlink:title=" ">
<polygon fill="white" stroke="black" points="960,-336.5 960,-355.5 1138,-355.5 1138,-336.5 960,-336.5"/>
<text text-anchor="middle" x="1049" y="-343.5" font-family="Helvetica,sans-Serif" font-size="10.00">AH/Settings/SettingsWrapper.hpp</text>
</a>
</g>
</g>
<!-- Node1&#45;&gt;Node16 -->
<g id="edge56" class="edge">
<title>Node1&#45;&gt;Node16</title>
<path fill="none" stroke="midnightblue" d="M272.27,-769.9C465.18,-768.93 1384,-758.26 1384,-643.5 1384,-643.5 1384,-643.5 1384,-574.5 1384,-440.7 1198.85,-380.11 1103.85,-357.82"/>
<polygon fill="midnightblue" stroke="midnightblue" points="1104.36,-354.35 1093.83,-355.54 1102.8,-361.17 1104.36,-354.35"/>
</g>
<!-- Node3&#45;&gt;Node2 -->
<g id="edge55" class="edge">
<title>Node3&#45;&gt;Node2</title>
<path fill="none" stroke="midnightblue" d="M226.47,-694.45C170.51,-618.02 -82.66,-248.75 99,-56 121.96,-31.64 585.18,-17.63 776.46,-12.86"/>
<polygon fill="midnightblue" stroke="midnightblue" points="776.55,-16.36 786.46,-12.62 776.38,-9.36 776.55,-16.36"/>
</g>
<!-- Node4 -->
<g id="node4" class="node">
<title>Node4</title>
<g id="a_node4"><a xlink:href="../../d2/d3c/Arduino-Hardware-Types_8hpp.html" target="_top" xlink:title=" ">
<polygon fill="white" stroke="black" points="384,-627.5 384,-657.5 506,-657.5 506,-627.5 384,-627.5"/>
<text text-anchor="start" x="392" y="-645.5" font-family="Helvetica,sans-Serif" font-size="10.00">AH/Hardware/Arduino</text>
<text text-anchor="middle" x="445" y="-634.5" font-family="Helvetica,sans-Serif" font-size="10.00">&#45;Hardware&#45;Types.hpp</text>
</a>
</g>
</g>
<!-- Node3&#45;&gt;Node4 -->
<g id="edge3" class="edge">
<title>Node3&#45;&gt;Node4</title>
<path fill="none" stroke="midnightblue" d="M281.88,-694.48C313.62,-684.56 356.36,-671.2 390.13,-660.65"/>
<polygon fill="midnightblue" stroke="midnightblue" points="391.34,-663.93 399.85,-657.61 389.26,-657.25 391.34,-663.93"/>
</g>
<!-- Node10 -->
<g id="node10" class="node">
<title>Node10</title>
<g id="a_node10"><a xlink:href="../../dc/dc7/NamespaceSettings_8hpp.html" target="_top" xlink:title=" ">
<polygon fill="white" stroke="black" points="351.5,-56.5 351.5,-75.5 546.5,-75.5 546.5,-56.5 351.5,-56.5"/>
<text text-anchor="middle" x="449" y="-63.5" font-family="Helvetica,sans-Serif" font-size="10.00">AH/Settings/NamespaceSettings.hpp</text>
</a>
</g>
</g>
<!-- Node3&#45;&gt;Node10 -->
<g id="edge54" class="edge">
<title>Node3&#45;&gt;Node10</title>
<path fill="none" stroke="midnightblue" d="M256.48,-694.26C284.01,-672.32 331,-627.42 331,-576.5 331,-576.5 331,-576.5 331,-401 331,-325.31 369,-310.69 369,-235 369,-235 369,-235 369,-177 369,-136.62 404.69,-101.11 428.4,-81.97"/>
<polygon fill="midnightblue" stroke="midnightblue" points="430.74,-84.58 436.5,-75.69 426.45,-79.05 430.74,-84.58"/>
</g>
<!-- Node29 -->
<g id="node29" class="node">
<title>Node29</title>
<g id="a_node29"><a xlink:title=" ">
<polygon fill="white" stroke="#bfbfbf" points="28.5,-633 28.5,-652 115.5,-652 115.5,-633 28.5,-633"/>
<text text-anchor="middle" x="72" y="-640" font-family="Helvetica,sans-Serif" font-size="10.00">AH/STL/climits</text>
</a>
</g>
</g>
<!-- Node3&#45;&gt;Node29 -->
<g id="edge53" class="edge">
<title>Node3&#45;&gt;Node29</title>
<path fill="none" stroke="midnightblue" d="M201.2,-694.4C171.99,-682.89 131.14,-666.8 103.24,-655.81"/>
<polygon fill="midnightblue" stroke="midnightblue" points="104.18,-652.42 93.59,-652.01 101.62,-658.93 104.18,-652.42"/>
</g>
<!-- Node4&#45;&gt;Node2 -->
<g id="edge4" class="edge">
<title>Node4&#45;&gt;Node2</title>
<path fill="none" stroke="midnightblue" d="M506.12,-636.6C720,-618.65 1422,-552.61 1422,-459 1422,-459 1422,-459 1422,-121 1422,-23.93 1096.09,-10.88 939.76,-10.2"/>
<polygon fill="midnightblue" stroke="midnightblue" points="939.73,-6.7 929.72,-10.17 939.71,-13.7 939.73,-6.7"/>
</g>
<!-- Node5 -->
<g id="node5" class="node">
<title>Node5</title>
<g id="a_node5"><a xlink:href="../../d4/d35/Hardware-Types_8hpp.html" target="_top" xlink:title=" ">
<polygon fill="white" stroke="black" points="650.5,-560.5 650.5,-590.5 781.5,-590.5 781.5,-560.5 650.5,-560.5"/>
<text text-anchor="start" x="658.5" y="-578.5" font-family="Helvetica,sans-Serif" font-size="10.00">AH/Hardware/Hardware</text>
<text text-anchor="middle" x="716" y="-567.5" font-family="Helvetica,sans-Serif" font-size="10.00">&#45;Types.hpp</text>
</a>
</g>
</g>
<!-- Node4&#45;&gt;Node5 -->
<g id="edge5" class="edge">
<title>Node4&#45;&gt;Node5</title>
<path fill="none" stroke="midnightblue" d="M503.47,-627.48C545.71,-617.34 602.9,-603.63 647.32,-592.97"/>
<polygon fill="midnightblue" stroke="midnightblue" points="648.26,-596.35 657.17,-590.61 646.63,-589.54 648.26,-596.35"/>
</g>
<!-- Node11 -->
<g id="node11" class="node">
<title>Node11</title>
<g id="a_node11"><a xlink:href="../../d6/ddf/Arduino-Wrapper_8h.html" target="_top" xlink:title=" ">
<polygon fill="white" stroke="black" points="514,-168.5 514,-187.5 638,-187.5 638,-168.5 514,-168.5"/>
<text text-anchor="middle" x="576" y="-175.5" font-family="Helvetica,sans-Serif" font-size="10.00">AH/Arduino&#45;Wrapper.h</text>
</a>
</g>
</g>
<!-- Node4&#45;&gt;Node11 -->
<g id="edge52" class="edge">
<title>Node4&#45;&gt;Node11</title>
<path fill="none" stroke="midnightblue" d="M445,-627.46C445,-604.12 445,-555.85 445,-515 445,-515 445,-515 445,-289 445,-239.04 501.58,-207.23 540.37,-191.3"/>
<polygon fill="midnightblue" stroke="midnightblue" points="541.78,-194.51 549.81,-187.59 539.22,-188 541.78,-194.51"/>
</g>
<!-- Node26 -->
<g id="node26" class="node">
<title>Node26</title>
<g id="a_node26"><a xlink:href="../../d0/db1/FunctionTraits_8hpp.html" target="_top" xlink:title=" ">
<polygon fill="white" stroke="black" points="187.5,-112.5 187.5,-131.5 340.5,-131.5 340.5,-112.5 187.5,-112.5"/>
<text text-anchor="middle" x="264" y="-119.5" font-family="Helvetica,sans-Serif" font-size="10.00">AH/Types/FunctionTraits.hpp</text>
</a>
</g>
</g>
<!-- Node4&#45;&gt;Node26 -->
<g id="edge47" class="edge">
<title>Node4&#45;&gt;Node26</title>
<path fill="none" stroke="midnightblue" d="M429.25,-627.23C406.99,-605.41 369,-561.37 369,-515 369,-515 369,-515 369,-401 369,-296.18 302.86,-182.63 275.57,-140.24"/>
<polygon fill="midnightblue" stroke="midnightblue" points="278.36,-138.11 269.95,-131.66 272.5,-141.94 278.36,-138.11"/>
</g>
<!-- Node5&#45;&gt;Node2 -->
<g id="edge6" class="edge">
<title>Node5&#45;&gt;Node2</title>
<path fill="none" stroke="midnightblue" d="M781.57,-571.59C949.88,-562.35 1384,-526.55 1384,-403 1384,-403 1384,-403 1384,-121 1384,-31.43 1088.07,-14.34 940.15,-11.39"/>
<polygon fill="midnightblue" stroke="midnightblue" points="939.82,-7.89 929.76,-11.21 939.7,-14.89 939.82,-7.89"/>
</g>
<!-- Node6 -->
<g id="node6" class="node">
<title>Node6</title>
<g id="a_node6"><a xlink:href="../../de/d76/Array_8hpp.html" target="_top" xlink:title=" ">
<polygon fill="white" stroke="black" points="648.5,-504.5 648.5,-523.5 783.5,-523.5 783.5,-504.5 648.5,-504.5"/>
<text text-anchor="middle" x="716" y="-511.5" font-family="Helvetica,sans-Serif" font-size="10.00">AH/Containers/Array.hpp</text>
</a>
</g>
</g>
<!-- Node5&#45;&gt;Node6 -->
<g id="edge7" class="edge">
<title>Node5&#45;&gt;Node6</title>
<path fill="none" stroke="midnightblue" d="M716,-560.4C716,-552.47 716,-542.46 716,-533.86"/>
<polygon fill="midnightblue" stroke="midnightblue" points="719.5,-533.66 716,-523.66 712.5,-533.66 719.5,-533.66"/>
</g>
<!-- Node9 -->
<g id="node9" class="node">
<title>Node9</title>
<g id="a_node9"><a xlink:href="../../dd/d80/PrintStream_8hpp.html" target="_top" xlink:title=" ">
<polygon fill="white" stroke="black" points="523.5,-224.5 523.5,-243.5 696.5,-243.5 696.5,-224.5 523.5,-224.5"/>
<text text-anchor="middle" x="610" y="-231.5" font-family="Helvetica,sans-Serif" font-size="10.00">AH/PrintStream/PrintStream.hpp</text>
</a>
</g>
</g>
<!-- Node5&#45;&gt;Node9 -->
<g id="edge43" class="edge">
<title>Node5&#45;&gt;Node9</title>
<path fill="none" stroke="midnightblue" d="M687.08,-560.45C671.5,-551.71 652.89,-539.24 640,-524 619.57,-499.85 611,-490.63 611,-459 611,-459 611,-459 611,-345 611,-312.95 610.57,-275.64 610.27,-253.75"/>
<polygon fill="midnightblue" stroke="midnightblue" points="613.77,-253.51 610.13,-243.56 606.77,-253.61 613.77,-253.51"/>
</g>
<!-- Node5&#45;&gt;Node10 -->
<g id="edge45" class="edge">
<title>Node5&#45;&gt;Node10</title>
<path fill="none" stroke="midnightblue" d="M650.47,-567.33C559.76,-553.36 407,-513.44 407,-403 407,-403 407,-403 407,-177 407,-142.41 425.35,-105.49 437.79,-84.43"/>
<polygon fill="midnightblue" stroke="midnightblue" points="440.91,-86.04 443.16,-75.69 434.94,-82.38 440.91,-86.04"/>
</g>
<!-- Node22 -->
<g id="node22" class="node">
<title>Node22</title>
<g id="a_node22"><a xlink:title=" ">
<polygon fill="white" stroke="#bfbfbf" points="1302.5,-224.5 1302.5,-243.5 1355.5,-243.5 1355.5,-224.5 1302.5,-224.5"/>
<text text-anchor="middle" x="1329" y="-231.5" font-family="Helvetica,sans-Serif" font-size="10.00">stdint.h</text>
</a>
</g>
</g>
<!-- Node5&#45;&gt;Node22 -->
<g id="edge46" class="edge">
<title>Node5&#45;&gt;Node22</title>
<path fill="none" stroke="midnightblue" d="M776.39,-560.44C811.07,-551.59 855.12,-539.01 893,-524 1094.81,-444.05 1211.23,-483.62 1327,-300 1335.65,-286.28 1335.22,-267.5 1333.18,-253.65"/>
<polygon fill="midnightblue" stroke="midnightblue" points="1336.62,-252.98 1331.34,-243.8 1329.74,-254.27 1336.62,-252.98"/>
</g>
<!-- Node25 -->
<g id="node25" class="node">
<title>Node25</title>
<g id="a_node25"><a xlink:title=" ">
<polygon fill="white" stroke="#bfbfbf" points="802,-504.5 802,-523.5 884,-523.5 884,-504.5 802,-504.5"/>
<text text-anchor="middle" x="843" y="-511.5" font-family="Helvetica,sans-Serif" font-size="10.00">AH/STL/limits</text>
</a>
</g>
</g>
<!-- Node5&#45;&gt;Node25 -->
<g id="edge44" class="edge">
<title>Node5&#45;&gt;Node25</title>
<path fill="none" stroke="midnightblue" d="M746.1,-560.4C767.12,-550.55 794.97,-537.5 815.42,-527.92"/>
<polygon fill="midnightblue" stroke="midnightblue" points="816.95,-531.07 824.52,-523.66 813.98,-524.73 816.95,-531.07"/>
</g>
<!-- Node6&#45;&gt;Node2 -->
<g id="edge8" class="edge">
<title>Node6&#45;&gt;Node2</title>
<path fill="none" stroke="midnightblue" d="M706.11,-504.4C687.48,-487.18 649,-446.38 649,-403 649,-403 649,-403 649,-345 649,-327.17 815,-91.39 824,-76 833.13,-60.39 842.6,-42.09 849.22,-28.89"/>
<polygon fill="midnightblue" stroke="midnightblue" points="852.54,-30.07 853.85,-19.55 846.27,-26.96 852.54,-30.07"/>
</g>
<!-- Node7 -->
<g id="node7" class="node">
<title>Node7</title>
<g id="a_node7"><a xlink:href="../../d1/d93/Error_8hpp.html" target="_top" xlink:title=" ">
<polygon fill="white" stroke="black" points="753,-448.5 753,-467.5 857,-467.5 857,-448.5 753,-448.5"/>
<text text-anchor="middle" x="805" y="-455.5" font-family="Helvetica,sans-Serif" font-size="10.00">AH/Error/Error.hpp</text>
</a>
</g>
</g>
<!-- Node6&#45;&gt;Node7 -->
<g id="edge9" class="edge">
<title>Node6&#45;&gt;Node7</title>
<path fill="none" stroke="midnightblue" d="M730.3,-504.32C744.18,-495.9 765.49,-482.97 781.8,-473.07"/>
<polygon fill="midnightblue" stroke="midnightblue" points="784,-475.83 790.74,-467.65 780.37,-469.85 784,-475.83"/>
</g>
<!-- Node15 -->
<g id="node15" class="node">
<title>Node15</title>
<g id="a_node15"><a xlink:title=" ">
<polygon fill="white" stroke="#bfbfbf" points="627.5,-112.5 627.5,-131.5 734.5,-131.5 734.5,-112.5 627.5,-112.5"/>
<text text-anchor="middle" x="681" y="-119.5" font-family="Helvetica,sans-Serif" font-size="10.00">AH/STL/type_traits</text>
</a>
</g>
</g>
<!-- Node6&#45;&gt;Node15 -->
<g id="edge41" class="edge">
<title>Node6&#45;&gt;Node15</title>
<path fill="none" stroke="midnightblue" d="M716.35,-504.43C717.64,-469.43 721.33,-333.89 706,-224 701.89,-194.56 692.74,-161.25 686.72,-141.19"/>
<polygon fill="midnightblue" stroke="midnightblue" points="690.03,-140.06 683.75,-131.53 683.34,-142.12 690.03,-140.06"/>
</g>
<!-- Node21 -->
<g id="node21" class="node">
<title>Node21</title>
<g id="a_node21"><a xlink:title=" ">
<polygon fill="white" stroke="#bfbfbf" points="905,-224.5 905,-243.5 961,-243.5 961,-224.5 905,-224.5"/>
<text text-anchor="middle" x="933" y="-231.5" font-family="Helvetica,sans-Serif" font-size="10.00">stddef.h</text>
</a>
</g>
</g>
<!-- Node6&#45;&gt;Node21 -->
<g id="edge42" class="edge">
<title>Node6&#45;&gt;Node21</title>
<path fill="none" stroke="midnightblue" d="M718.98,-504.26C723.51,-491.46 732.8,-467.07 744,-448 793.12,-364.32 878.01,-283.75 914.95,-250.71"/>
<polygon fill="midnightblue" stroke="midnightblue" points="917.7,-252.95 922.87,-243.7 913.06,-247.71 917.7,-252.95"/>
</g>
<!-- Node24 -->
<g id="node24" class="node">
<title>Node24</title>
<g id="a_node24"><a xlink:title=" ">
<polygon fill="white" stroke="#bfbfbf" points="875,-448.5 875,-467.5 965,-467.5 965,-448.5 875,-448.5"/>
<text text-anchor="middle" x="920" y="-455.5" font-family="Helvetica,sans-Serif" font-size="10.00">AH/STL/iterator</text>
</a>
</g>
</g>
<!-- Node6&#45;&gt;Node24 -->
<g id="edge40" class="edge">
<title>Node6&#45;&gt;Node24</title>
<path fill="none" stroke="midnightblue" d="M748.32,-504.44C783.39,-495.16 839.5,-480.31 877.96,-470.13"/>
<polygon fill="midnightblue" stroke="midnightblue" points="879.06,-473.46 887.83,-467.52 877.26,-466.69 879.06,-473.46"/>
</g>
<!-- Node7&#45;&gt;Node2 -->
<g id="edge10" class="edge">
<title>Node7&#45;&gt;Node2</title>
<path fill="none" stroke="midnightblue" d="M804.48,-448.45C803.39,-429.95 801,-384.84 801,-347 801,-347 801,-347 801,-289 801,-191.55 837.66,-172.23 853,-76 855.45,-60.61 856.71,-42.98 857.36,-29.96"/>
<polygon fill="midnightblue" stroke="midnightblue" points="860.86,-30.02 857.77,-19.88 853.86,-29.73 860.86,-30.02"/>
</g>
<!-- Node8 -->
<g id="node8" class="node">
<title>Node8</title>
<g id="a_node8"><a xlink:href="../../df/dee/Debug_8hpp.html" target="_top" xlink:title=" ">
<polygon fill="white" stroke="black" points="829.5,-392.5 829.5,-411.5 950.5,-411.5 950.5,-392.5 829.5,-392.5"/>
<text text-anchor="middle" x="890" y="-399.5" font-family="Helvetica,sans-Serif" font-size="10.00">AH/Debug/Debug.hpp</text>
</a>
</g>
</g>
<!-- Node7&#45;&gt;Node8 -->
<g id="edge11" class="edge">
<title>Node7&#45;&gt;Node8</title>
<path fill="none" stroke="midnightblue" d="M818.66,-448.32C831.92,-439.9 852.27,-426.97 867.85,-417.07"/>
<polygon fill="midnightblue" stroke="midnightblue" points="869.81,-419.97 876.38,-411.65 866.06,-414.06 869.81,-419.97"/>
</g>
<!-- Node8&#45;&gt;Node2 -->
<g id="edge12" class="edge">
<title>Node8&#45;&gt;Node2</title>
<path fill="none" stroke="midnightblue" d="M890.35,-392.39C892.33,-342.23 901.74,-88.8 891,-56 887.51,-45.34 880.43,-35.12 873.71,-27.12"/>
<polygon fill="midnightblue" stroke="midnightblue" points="876.3,-24.76 867.02,-19.66 871.1,-29.44 876.3,-24.76"/>
</g>
<!-- Node8&#45;&gt;Node9 -->
<g id="edge13" class="edge">
<title>Node8&#45;&gt;Node9</title>
<path fill="none" stroke="midnightblue" d="M875.34,-392.31C829.6,-365.19 689.24,-281.98 633.34,-248.83"/>
<polygon fill="midnightblue" stroke="midnightblue" points="634.9,-245.69 624.51,-243.61 631.33,-251.72 634.9,-245.69"/>
</g>
<!-- Node8&#45;&gt;Node16 -->
<g id="edge25" class="edge">
<title>Node8&#45;&gt;Node16</title>
<path fill="none" stroke="midnightblue" d="M910.11,-392.44C934.97,-383.32 977.49,-368.81 1009.03,-358.65"/>
<polygon fill="midnightblue" stroke="midnightblue" points="1010.38,-361.89 1018.84,-355.52 1008.25,-355.22 1010.38,-361.89"/>
</g>
<!-- Node9&#45;&gt;Node2 -->
<g id="edge15" class="edge">
<title>Node9&#45;&gt;Node2</title>
<path fill="none" stroke="midnightblue" d="M622.74,-224.48C647.23,-207.87 702.12,-169.52 744,-132 782.67,-97.35 823.29,-51.64 844.02,-27.53"/>
<polygon fill="midnightblue" stroke="midnightblue" points="846.89,-29.57 850.72,-19.69 841.56,-25.02 846.89,-29.57"/>
</g>
<!-- Node9&#45;&gt;Node10 -->
<g id="edge14" class="edge">
<title>Node9&#45;&gt;Node10</title>
<path fill="none" stroke="midnightblue" d="M578.72,-224.45C556.52,-217.29 526.89,-205.41 505,-188 480.86,-168.8 476.84,-160.05 464,-132 457.22,-117.19 453.36,-99.04 451.26,-85.68"/>
<polygon fill="midnightblue" stroke="midnightblue" points="454.73,-85.2 449.89,-75.77 447.8,-86.16 454.73,-85.2"/>
</g>
<!-- Node9&#45;&gt;Node11 -->
<g id="edge16" class="edge">
<title>Node9&#45;&gt;Node11</title>
<path fill="none" stroke="midnightblue" d="M604.39,-224.08C599.63,-216.53 592.68,-205.49 586.85,-196.23"/>
<polygon fill="midnightblue" stroke="midnightblue" points="589.8,-194.35 581.51,-187.75 583.88,-198.08 589.8,-194.35"/>
</g>
<!-- Node12 -->
<g id="node12" class="node">
<title>Node12</title>
<g id="a_node12"><a xlink:href="../../d7/d79/MinMaxFix_8hpp.html" target="_top" xlink:title=" ">
<polygon fill="white" stroke="black" points="473,-112.5 473,-131.5 609,-131.5 609,-112.5 473,-112.5"/>
<text text-anchor="middle" x="541" y="-119.5" font-family="Helvetica,sans-Serif" font-size="10.00">AH/Math/MinMaxFix.hpp</text>
</a>
</g>
</g>
<!-- Node11&#45;&gt;Node12 -->
<g id="edge17" class="edge">
<title>Node11&#45;&gt;Node12</title>
<path fill="none" stroke="midnightblue" d="M570.22,-168.08C565.33,-160.53 558.17,-149.49 552.17,-140.23"/>
<polygon fill="midnightblue" stroke="midnightblue" points="555.05,-138.24 546.67,-131.75 549.17,-142.05 555.05,-138.24"/>
</g>
<!-- Node14 -->
<g id="node14" class="node">
<title>Node14</title>
<g id="a_node14"><a xlink:title=" ">
<polygon fill="white" stroke="#bfbfbf" points="314.5,-0.5 314.5,-19.5 377.5,-19.5 377.5,-0.5 314.5,-0.5"/>
<text text-anchor="middle" x="346" y="-7.5" font-family="Helvetica,sans-Serif" font-size="10.00">Arduino.h</text>
</a>
</g>
</g>
<!-- Node11&#45;&gt;Node14 -->
<g id="edge24" class="edge">
<title>Node11&#45;&gt;Node14</title>
<path fill="none" stroke="midnightblue" d="M513.84,-173.76C417.72,-168.12 237.85,-154.84 178,-132 137.79,-116.65 118.76,-114.23 99,-76 94.92,-68.1 93.31,-62.83 99,-56 124.66,-25.25 240.76,-15.46 304.23,-12.38"/>
<polygon fill="midnightblue" stroke="midnightblue" points="304.49,-15.87 314.32,-11.93 304.17,-8.88 304.49,-15.87"/>
</g>
<!-- Node11&#45;&gt;Node15 -->
<g id="edge23" class="edge">
<title>Node11&#45;&gt;Node15</title>
<path fill="none" stroke="midnightblue" d="M592.87,-168.32C609.71,-159.66 635.81,-146.24 655.24,-136.25"/>
<polygon fill="midnightblue" stroke="midnightblue" points="656.88,-139.34 664.17,-131.65 653.68,-133.12 656.88,-139.34"/>
</g>
<!-- Node12&#45;&gt;Node2 -->
<g id="edge18" class="edge">
<title>Node12&#45;&gt;Node2</title>
<path fill="none" stroke="midnightblue" d="M601.45,-112.48C642.56,-105.52 697.69,-93.86 744,-76 778.59,-62.65 815.28,-40.01 837.41,-25.28"/>
<polygon fill="midnightblue" stroke="midnightblue" points="839.63,-28 845.96,-19.5 835.71,-22.2 839.63,-28"/>
</g>
<!-- Node12&#45;&gt;Node10 -->
<g id="edge22" class="edge">
<title>Node12&#45;&gt;Node10</title>
<path fill="none" stroke="midnightblue" d="M526.22,-112.32C511.73,-103.82 489.43,-90.73 472.51,-80.8"/>
<polygon fill="midnightblue" stroke="midnightblue" points="474.14,-77.7 463.74,-75.65 470.6,-83.74 474.14,-77.7"/>
</g>
<!-- Node13 -->
<g id="node13" class="node">
<title>Node13</title>
<g id="a_node13"><a xlink:href="../../d6/d3b/FixArduinoMacros_8hpp.html" target="_top" xlink:title=" ">
<polygon fill="white" stroke="black" points="565,-56.5 565,-75.5 735,-75.5 735,-56.5 565,-56.5"/>
<text text-anchor="middle" x="650" y="-63.5" font-family="Helvetica,sans-Serif" font-size="10.00">AH/Math/FixArduinoMacros.hpp</text>
</a>
</g>
</g>
<!-- Node12&#45;&gt;Node13 -->
<g id="edge19" class="edge">
<title>Node12&#45;&gt;Node13</title>
<path fill="none" stroke="midnightblue" d="M558.51,-112.32C576.07,-103.62 603.33,-90.12 623.53,-80.11"/>
<polygon fill="midnightblue" stroke="midnightblue" points="625.12,-83.23 632.53,-75.65 622.02,-76.96 625.12,-83.23"/>
</g>
<!-- Node13&#45;&gt;Node2 -->
<g id="edge20" class="edge">
<title>Node13&#45;&gt;Node2</title>
<path fill="none" stroke="midnightblue" d="M682.96,-56.44C718.79,-47.14 776.16,-32.25 815.39,-22.06"/>
<polygon fill="midnightblue" stroke="midnightblue" points="816.4,-25.42 825.2,-19.52 814.64,-18.64 816.4,-25.42"/>
</g>
<!-- Node13&#45;&gt;Node14 -->
<g id="edge21" class="edge">
<title>Node13&#45;&gt;Node14</title>
<path fill="none" stroke="midnightblue" d="M601.83,-56.44C542.73,-45.94 443.5,-28.32 387.58,-18.39"/>
<polygon fill="midnightblue" stroke="midnightblue" points="388.12,-14.93 377.66,-16.62 386.9,-21.82 388.12,-14.93"/>
</g>
<!-- Node16&#45;&gt;Node2 -->
<g id="edge26" class="edge">
<title>Node16&#45;&gt;Node2</title>
<path fill="none" stroke="midnightblue" d="M1058.43,-336.18C1073.64,-322.38 1105.03,-295.64 1136,-280 1185.32,-255.09 1216.11,-283.25 1255,-244 1276.18,-222.62 1274,-209.1 1274,-179 1274,-179 1274,-179 1274,-121 1274,-52.52 1060.62,-25.71 939.5,-16"/>
<polygon fill="midnightblue" stroke="midnightblue" points="939.75,-12.51 929.51,-15.22 939.21,-19.49 939.75,-12.51"/>
</g>
<!-- Node16&#45;&gt;Node8 -->
<g id="edge39" class="edge">
<title>Node16&#45;&gt;Node8</title>
<path fill="none" stroke="midnightblue" d="M1029,-355.52C1004.19,-364.62 961.68,-379.13 930.11,-389.3"/>
<polygon fill="midnightblue" stroke="midnightblue" points="928.74,-386.07 920.28,-392.44 930.87,-392.74 928.74,-386.07"/>
</g>
<!-- Node16&#45;&gt;Node10 -->
<g id="edge27" class="edge">
<title>Node16&#45;&gt;Node10</title>
<path fill="none" stroke="midnightblue" d="M1034.65,-336.41C1007.04,-319.69 944.93,-281.14 896,-244 824.73,-189.9 825.21,-149.56 744,-112 710.61,-96.56 623.48,-84.4 552.51,-76.63"/>
<polygon fill="midnightblue" stroke="midnightblue" points="552.48,-73.11 542.17,-75.52 551.74,-80.07 552.48,-73.11"/>
</g>
<!-- Node17 -->
<g id="node17" class="node">
<title>Node17</title>
<g id="a_node17"><a xlink:href="../../db/d02/Settings_8hpp.html" target="_top" xlink:title="All user settings and debugging options can be changed here.">
<polygon fill="white" stroke="black" points="1010.5,-280.5 1010.5,-299.5 1087.5,-299.5 1087.5,-280.5 1010.5,-280.5"/>
<text text-anchor="middle" x="1049" y="-287.5" font-family="Helvetica,sans-Serif" font-size="10.00">Settings.hpp</text>
</a>
</g>
</g>
<!-- Node16&#45;&gt;Node17 -->
<g id="edge28" class="edge">
<title>Node16&#45;&gt;Node17</title>
<path fill="none" stroke="midnightblue" d="M1049,-336.08C1049,-329.01 1049,-318.86 1049,-309.99"/>
<polygon fill="midnightblue" stroke="midnightblue" points="1052.5,-309.75 1049,-299.75 1045.5,-309.75 1052.5,-309.75"/>
</g>
<!-- Node23 -->
<g id="node23" class="node">
<title>Node23</title>
<g id="a_node23"><a xlink:href="../../d9/d98/TeensyUSBTypes_8hpp.html" target="_top" xlink:title=" ">
<polygon fill="white" stroke="black" points="1144.5,-280.5 1144.5,-299.5 1317.5,-299.5 1317.5,-280.5 1144.5,-280.5"/>
<text text-anchor="middle" x="1231" y="-287.5" font-family="Helvetica,sans-Serif" font-size="10.00">AH/Teensy/TeensyUSBTypes.hpp</text>
</a>
</g>
</g>
<!-- Node16&#45;&gt;Node23 -->
<g id="edge38" class="edge">
<title>Node16&#45;&gt;Node23</title>
<path fill="none" stroke="midnightblue" d="M1077.84,-336.44C1108.86,-327.24 1158.33,-312.56 1192.62,-302.39"/>
<polygon fill="midnightblue" stroke="midnightblue" points="1193.71,-305.72 1202.3,-299.52 1191.71,-299.01 1193.71,-305.72"/>
</g>
<!-- Node18 -->
<g id="node18" class="node">
<title>Node18</title>
<g id="a_node18"><a xlink:href="../../dc/d50/Frequency_8hpp.html" target="_top" xlink:title=" ">
<polygon fill="white" stroke="black" points="943,-112.5 943,-131.5 1077,-131.5 1077,-112.5 943,-112.5"/>
<text text-anchor="middle" x="1010" y="-119.5" font-family="Helvetica,sans-Serif" font-size="10.00">AH/Types/Frequency.hpp</text>
</a>
</g>
</g>
<!-- Node17&#45;&gt;Node18 -->
<g id="edge29" class="edge">
<title>Node17&#45;&gt;Node18</title>
<path fill="none" stroke="midnightblue" d="M1037.73,-280.43C1028.03,-272.27 1014.72,-259.05 1009,-244 995.98,-209.76 1001.16,-166.02 1005.79,-141.61"/>
<polygon fill="midnightblue" stroke="midnightblue" points="1009.27,-142.09 1007.87,-131.59 1002.41,-140.67 1009.27,-142.09"/>
</g>
<!-- Node19 -->
<g id="node19" class="node">
<title>Node19</title>
<g id="a_node19"><a xlink:href="../../d7/d7c/ADCConfig_8hpp.html" target="_top" xlink:title="This file contains the platform&#45;specific ADC resolutions.">
<polygon fill="white" stroke="black" points="1017.5,-224.5 1017.5,-243.5 1174.5,-243.5 1174.5,-224.5 1017.5,-224.5"/>
<text text-anchor="middle" x="1096" y="-231.5" font-family="Helvetica,sans-Serif" font-size="10.00">AH/Hardware/ADCConfig.hpp</text>
</a>
</g>
</g>
<!-- Node17&#45;&gt;Node19 -->
<g id="edge32" class="edge">
<title>Node17&#45;&gt;Node19</title>
<path fill="none" stroke="midnightblue" d="M1056.76,-280.08C1063.54,-272.3 1073.54,-260.8 1081.76,-251.37"/>
<polygon fill="midnightblue" stroke="midnightblue" points="1084.46,-253.59 1088.38,-243.75 1079.18,-249 1084.46,-253.59"/>
</g>
<!-- Node20 -->
<g id="node20" class="node">
<title>Node20</title>
<g id="a_node20"><a xlink:title=" ">
<polygon fill="white" stroke="#bfbfbf" points="1192.5,-224.5 1192.5,-243.5 1245.5,-243.5 1245.5,-224.5 1192.5,-224.5"/>
<text text-anchor="middle" x="1219" y="-231.5" font-family="Helvetica,sans-Serif" font-size="10.00">limits.h</text>
</a>
</g>
</g>
<!-- Node17&#45;&gt;Node20 -->
<g id="edge35" class="edge">
<title>Node17&#45;&gt;Node20</title>
<path fill="none" stroke="midnightblue" d="M1075.94,-280.44C1104.74,-271.29 1150.6,-256.73 1182.6,-246.56"/>
<polygon fill="midnightblue" stroke="midnightblue" points="1184,-249.79 1192.47,-243.43 1181.88,-243.12 1184,-249.79"/>
</g>
<!-- Node17&#45;&gt;Node21 -->
<g id="edge36" class="edge">
<title>Node17&#45;&gt;Node21</title>
<path fill="none" stroke="midnightblue" d="M1030.62,-280.44C1011.78,-271.68 982.27,-257.94 960.62,-247.86"/>
<polygon fill="midnightblue" stroke="midnightblue" points="961.84,-244.56 951.29,-243.52 958.88,-250.91 961.84,-244.56"/>
</g>
<!-- Node17&#45;&gt;Node22 -->
<g id="edge37" class="edge">
<title>Node17&#45;&gt;Node22</title>
<path fill="none" stroke="midnightblue" d="M1087.64,-281.55C1141.79,-271.11 1239.54,-252.25 1292.51,-242.04"/>
<polygon fill="midnightblue" stroke="midnightblue" points="1293.32,-245.45 1302.48,-240.12 1292,-238.57 1293.32,-245.45"/>
</g>
<!-- Node18&#45;&gt;Node2 -->
<g id="edge30" class="edge">
<title>Node18&#45;&gt;Node2</title>
<path fill="none" stroke="midnightblue" d="M999.8,-112.21C984.72,-99.34 955.4,-74.87 929,-56 913.42,-44.86 895.15,-33.32 881.05,-24.71"/>
<polygon fill="midnightblue" stroke="midnightblue" points="882.82,-21.69 872.45,-19.51 879.2,-27.68 882.82,-21.69"/>
</g>
<!-- Node18&#45;&gt;Node10 -->
<g id="edge31" class="edge">
<title>Node18&#45;&gt;Node10</title>
<path fill="none" stroke="midnightblue" d="M942.89,-114.54C844.64,-105.08 661.05,-87.41 547.49,-76.48"/>
<polygon fill="midnightblue" stroke="midnightblue" points="547.69,-72.98 537.4,-75.51 547.02,-79.95 547.69,-72.98"/>
</g>
<!-- Node19&#45;&gt;Node2 -->
<g id="edge33" class="edge">
<title>Node19&#45;&gt;Node2</title>
<path fill="none" stroke="midnightblue" d="M1098.01,-224.39C1102.47,-203.07 1110.92,-147.04 1086,-112 1048.7,-59.55 977.83,-33.95 924.96,-21.71"/>
<polygon fill="midnightblue" stroke="midnightblue" points="925.49,-18.25 914.97,-19.51 923.98,-25.08 925.49,-18.25"/>
</g>
<!-- Node19&#45;&gt;Node11 -->
<g id="edge34" class="edge">
<title>Node19&#45;&gt;Node11</title>
<path fill="none" stroke="midnightblue" d="M1017.31,-224.83C917.08,-214.42 745.28,-196.58 648.24,-186.5"/>
<polygon fill="midnightblue" stroke="midnightblue" points="648.54,-183.01 638.23,-185.46 647.81,-189.98 648.54,-183.01"/>
</g>
<!-- Node26&#45;&gt;Node2 -->
<g id="edge50" class="edge">
<title>Node26&#45;&gt;Node2</title>
<path fill="none" stroke="midnightblue" d="M271.1,-112.35C283.66,-97.76 311.36,-68.63 342,-56 418.32,-24.55 650.55,-15.07 775.82,-12.22"/>
<polygon fill="midnightblue" stroke="midnightblue" points="776.21,-15.71 786.13,-11.99 776.05,-8.71 776.21,-15.71"/>
</g>
<!-- Node26&#45;&gt;Node10 -->
<g id="edge51" class="edge">
<title>Node26&#45;&gt;Node10</title>
<path fill="none" stroke="midnightblue" d="M293.31,-112.44C324.84,-103.24 375.13,-88.56 409.99,-78.39"/>
<polygon fill="midnightblue" stroke="midnightblue" points="411.2,-81.68 419.82,-75.52 409.24,-74.96 411.2,-81.68"/>
</g>
<!-- Node27 -->
<g id="node27" class="node">
<title>Node27</title>
<g id="a_node27"><a xlink:title=" ">
<polygon fill="white" stroke="#bfbfbf" points="108,-56.5 108,-75.5 198,-75.5 198,-56.5 108,-56.5"/>
<text text-anchor="middle" x="153" y="-63.5" font-family="Helvetica,sans-Serif" font-size="10.00">AH/STL/cstddef</text>
</a>
</g>
</g>
<!-- Node26&#45;&gt;Node27 -->
<g id="edge48" class="edge">
<title>Node26&#45;&gt;Node27</title>
<path fill="none" stroke="midnightblue" d="M246.17,-112.32C228.28,-103.62 200.52,-90.12 179.95,-80.11"/>
<polygon fill="midnightblue" stroke="midnightblue" points="181.31,-76.88 170.79,-75.65 178.25,-83.18 181.31,-76.88"/>
</g>
<!-- Node28 -->
<g id="node28" class="node">
<title>Node28</title>
<g id="a_node28"><a xlink:title=" ">
<polygon fill="white" stroke="#bfbfbf" points="216.5,-56.5 216.5,-75.5 295.5,-75.5 295.5,-56.5 216.5,-56.5"/>
<text text-anchor="middle" x="256" y="-63.5" font-family="Helvetica,sans-Serif" font-size="10.00">AH/STL/tuple</text>
</a>
</g>
</g>
<!-- Node26&#45;&gt;Node28 -->
<g id="edge49" class="edge">
<title>Node26&#45;&gt;Node28</title>
<path fill="none" stroke="midnightblue" d="M262.68,-112.08C261.62,-104.93 260.09,-94.64 258.77,-85.69"/>
<polygon fill="midnightblue" stroke="midnightblue" points="262.22,-85.13 257.3,-75.75 255.3,-86.16 262.22,-85.13"/>
</g>
</g>
</svg>
