<?xml version="1.0" encoding="UTF-8" standalone="no"?>
<!DOCTYPE svg PUBLIC "-//W3C//DTD SVG 1.1//EN"
 "http://www.w3.org/Graphics/SVG/1.1/DTD/svg11.dtd">
<!-- Generated by graphviz version 2.43.0 (0)
 -->
<!-- Title: Hardware&#45;Types.hpp Pages: 1 -->
<svg width="826pt" height="588pt"
 viewBox="0.00 0.00 825.50 588.00" xmlns="http://www.w3.org/2000/svg" xmlns:xlink="http://www.w3.org/1999/xlink">
<g id="graph0" class="graph" transform="scale(1 1) rotate(0) translate(4 584)">
<title>Hardware&#45;Types.hpp</title>
<polygon fill="white" stroke="transparent" points="-4,4 -4,-584 821.5,-584 821.5,4 -4,4"/>
<!-- Node1 -->
<g id="node1" class="node">
<title>Node1</title>
<g id="a_node1"><a xlink:title=" ">
<polygon fill="#bfbfbf" stroke="black" points="573,-560.5 573,-579.5 689,-579.5 689,-560.5 573,-560.5"/>
<text text-anchor="middle" x="631" y="-567.5" font-family="Helvetica,sans-Serif" font-size="10.00">Hardware&#45;Types.hpp</text>
</a>
</g>
</g>
<!-- Node2 -->
<g id="node2" class="node">
<title>Node2</title>
<g id="a_node2"><a xlink:href="../../de/d76/Array_8hpp.html" target="_top" xlink:title=" ">
<polygon fill="white" stroke="black" points="426.5,-504.5 426.5,-523.5 561.5,-523.5 561.5,-504.5 426.5,-504.5"/>
<text text-anchor="middle" x="494" y="-511.5" font-family="Helvetica,sans-Serif" font-size="10.00">AH/Containers/Array.hpp</text>
</a>
</g>
</g>
<!-- Node1&#45;&gt;Node2 -->
<g id="edge1" class="edge">
<title>Node1&#45;&gt;Node2</title>
<path fill="none" stroke="midnightblue" d="M609.29,-560.44C586.65,-551.52 550.93,-537.44 525.25,-527.32"/>
<polygon fill="midnightblue" stroke="midnightblue" points="526.19,-523.93 515.61,-523.52 523.63,-530.44 526.19,-523.93"/>
</g>
<!-- Node11 -->
<g id="node11" class="node">
<title>Node11</title>
<g id="a_node11"><a xlink:href="../../dc/dc7/NamespaceSettings_8hpp.html" target="_top" xlink:title=" ">
<polygon fill="white" stroke="black" points="270.5,-56.5 270.5,-75.5 465.5,-75.5 465.5,-56.5 270.5,-56.5"/>
<text text-anchor="middle" x="368" y="-63.5" font-family="Helvetica,sans-Serif" font-size="10.00">AH/Settings/NamespaceSettings.hpp</text>
</a>
</g>
</g>
<!-- Node1&#45;&gt;Node11 -->
<g id="edge30" class="edge">
<title>Node1&#45;&gt;Node11</title>
<path fill="none" stroke="midnightblue" d="M636.42,-560.25C647.14,-542.1 670,-498.71 670,-459 670,-459 670,-459 670,-289 670,-258.9 672.55,-245.01 651,-224 606.22,-180.36 570.38,-217.03 515,-188 468.93,-163.85 466.34,-144.84 426,-112 413.4,-101.74 398.96,-90.54 387.64,-81.88"/>
<polygon fill="midnightblue" stroke="midnightblue" points="389.76,-79.08 379.68,-75.81 385.51,-84.65 389.76,-79.08"/>
</g>
<!-- Node19 -->
<g id="node19" class="node">
<title>Node19</title>
<g id="a_node19"><a xlink:title=" ">
<polygon fill="white" stroke="#bfbfbf" points="183.5,-224.5 183.5,-243.5 236.5,-243.5 236.5,-224.5 183.5,-224.5"/>
<text text-anchor="middle" x="210" y="-231.5" font-family="Helvetica,sans-Serif" font-size="10.00">stdint.h</text>
</a>
</g>
</g>
<!-- Node1&#45;&gt;Node19 -->
<g id="edge31" class="edge">
<title>Node1&#45;&gt;Node19</title>
<path fill="none" stroke="midnightblue" d="M631,-560.44C631,-541.94 631,-496.81 631,-459 631,-459 631,-459 631,-401 631,-318.68 348.91,-259.9 246.55,-241.28"/>
<polygon fill="midnightblue" stroke="midnightblue" points="247.12,-237.83 236.65,-239.51 245.88,-244.72 247.12,-237.83"/>
</g>
<!-- Node3 -->
<g id="node3" class="node">
<title>Node3</title>
<g id="a_node3"><a xlink:href="../../d1/d93/Error_8hpp.html" target="_top" xlink:title=" ">
<polygon fill="white" stroke="black" points="320,-448.5 320,-467.5 424,-467.5 424,-448.5 320,-448.5"/>
<text text-anchor="middle" x="372" y="-455.5" font-family="Helvetica,sans-Serif" font-size="10.00">AH/Error/Error.hpp</text>
</a>
</g>
</g>
<!-- Node2&#45;&gt;Node3 -->
<g id="edge2" class="edge">
<title>Node2&#45;&gt;Node3</title>
<path fill="none" stroke="midnightblue" d="M474.67,-504.44C454.68,-495.6 423.26,-481.69 400.44,-471.59"/>
<polygon fill="midnightblue" stroke="midnightblue" points="401.8,-468.36 391.24,-467.52 398.97,-474.76 401.8,-468.36"/>
</g>
<!-- Node12 -->
<g id="node12" class="node">
<title>Node12</title>
<g id="a_node12"><a xlink:title=" ">
<polygon fill="white" stroke="#bfbfbf" points="710.5,-112.5 710.5,-131.5 817.5,-131.5 817.5,-112.5 710.5,-112.5"/>
<text text-anchor="middle" x="764" y="-119.5" font-family="Helvetica,sans-Serif" font-size="10.00">AH/STL/type_traits</text>
</a>
</g>
</g>
<!-- Node2&#45;&gt;Node12 -->
<g id="edge28" class="edge">
<title>Node2&#45;&gt;Node12</title>
<path fill="none" stroke="midnightblue" d="M506.55,-504.33C518.17,-495.91 535.48,-482.34 548,-468 646.03,-355.71 729.16,-194.24 755.39,-140.87"/>
<polygon fill="midnightblue" stroke="midnightblue" points="758.63,-142.21 759.87,-131.68 752.34,-139.14 758.63,-142.21"/>
</g>
<!-- Node18 -->
<g id="node18" class="node">
<title>Node18</title>
<g id="a_node18"><a xlink:title=" ">
<polygon fill="white" stroke="#bfbfbf" points="0,-224.5 0,-243.5 56,-243.5 56,-224.5 0,-224.5"/>
<text text-anchor="middle" x="28" y="-231.5" font-family="Helvetica,sans-Serif" font-size="10.00">stddef.h</text>
</a>
</g>
</g>
<!-- Node2&#45;&gt;Node18 -->
<g id="edge29" class="edge">
<title>Node2&#45;&gt;Node18</title>
<path fill="none" stroke="midnightblue" d="M426.24,-511C297,-505.34 28,-483.84 28,-403 28,-403 28,-403 28,-345 28,-312.95 28,-275.64 28,-253.75"/>
<polygon fill="midnightblue" stroke="midnightblue" points="31.5,-253.56 28,-243.56 24.5,-253.56 31.5,-253.56"/>
</g>
<!-- Node21 -->
<g id="node21" class="node">
<title>Node21</title>
<g id="a_node21"><a xlink:title=" ">
<polygon fill="white" stroke="#bfbfbf" points="449,-448.5 449,-467.5 539,-467.5 539,-448.5 449,-448.5"/>
<text text-anchor="middle" x="494" y="-455.5" font-family="Helvetica,sans-Serif" font-size="10.00">AH/STL/iterator</text>
</a>
</g>
</g>
<!-- Node2&#45;&gt;Node21 -->
<g id="edge27" class="edge">
<title>Node2&#45;&gt;Node21</title>
<path fill="none" stroke="midnightblue" d="M494,-504.08C494,-497.01 494,-486.86 494,-477.99"/>
<polygon fill="midnightblue" stroke="midnightblue" points="497.5,-477.75 494,-467.75 490.5,-477.75 497.5,-477.75"/>
</g>
<!-- Node4 -->
<g id="node4" class="node">
<title>Node4</title>
<g id="a_node4"><a xlink:href="../../df/dee/Debug_8hpp.html" target="_top" xlink:title=" ">
<polygon fill="white" stroke="black" points="298.5,-392.5 298.5,-411.5 419.5,-411.5 419.5,-392.5 298.5,-392.5"/>
<text text-anchor="middle" x="359" y="-399.5" font-family="Helvetica,sans-Serif" font-size="10.00">AH/Debug/Debug.hpp</text>
</a>
</g>
</g>
<!-- Node3&#45;&gt;Node4 -->
<g id="edge3" class="edge">
<title>Node3&#45;&gt;Node4</title>
<path fill="none" stroke="midnightblue" d="M369.85,-448.08C368.13,-440.93 365.65,-430.64 363.5,-421.69"/>
<polygon fill="midnightblue" stroke="midnightblue" points="366.85,-420.65 361.11,-411.75 360.04,-422.29 366.85,-420.65"/>
</g>
<!-- Node5 -->
<g id="node5" class="node">
<title>Node5</title>
<g id="a_node5"><a xlink:href="../../dd/d80/PrintStream_8hpp.html" target="_top" xlink:title=" ">
<polygon fill="white" stroke="black" points="468.5,-224.5 468.5,-243.5 641.5,-243.5 641.5,-224.5 468.5,-224.5"/>
<text text-anchor="middle" x="555" y="-231.5" font-family="Helvetica,sans-Serif" font-size="10.00">AH/PrintStream/PrintStream.hpp</text>
</a>
</g>
</g>
<!-- Node4&#45;&gt;Node5 -->
<g id="edge4" class="edge">
<title>Node4&#45;&gt;Node5</title>
<path fill="none" stroke="midnightblue" d="M382.79,-392.48C402.31,-384.79 430.04,-372.2 451,-356 490.65,-325.36 526.19,-277.61 543.64,-252.22"/>
<polygon fill="midnightblue" stroke="midnightblue" points="546.71,-253.92 549.4,-243.67 540.91,-250 546.71,-253.92"/>
</g>
<!-- Node13 -->
<g id="node13" class="node">
<title>Node13</title>
<g id="a_node13"><a xlink:href="../../d2/dd5/SettingsWrapper_8hpp.html" target="_top" xlink:title=" ">
<polygon fill="white" stroke="black" points="264,-336.5 264,-355.5 442,-355.5 442,-336.5 264,-336.5"/>
<text text-anchor="middle" x="353" y="-343.5" font-family="Helvetica,sans-Serif" font-size="10.00">AH/Settings/SettingsWrapper.hpp</text>
</a>
</g>
</g>
<!-- Node4&#45;&gt;Node13 -->
<g id="edge15" class="edge">
<title>Node4&#45;&gt;Node13</title>
<path fill="none" stroke="midnightblue" d="M352.84,-392.08C350.56,-385.01 349,-374.86 348.63,-365.99"/>
<polygon fill="midnightblue" stroke="midnightblue" points="352.14,-365.82 348.84,-355.75 345.14,-365.68 352.14,-365.82"/>
</g>
<!-- Node6 -->
<g id="node6" class="node">
<title>Node6</title>
<g id="a_node6"><a xlink:href="../../d6/ddf/Arduino-Wrapper_8h.html" target="_top" xlink:title=" ">
<polygon fill="white" stroke="black" points="524,-168.5 524,-187.5 648,-187.5 648,-168.5 524,-168.5"/>
<text text-anchor="middle" x="586" y="-175.5" font-family="Helvetica,sans-Serif" font-size="10.00">AH/Arduino&#45;Wrapper.h</text>
</a>
</g>
</g>
<!-- Node5&#45;&gt;Node6 -->
<g id="edge5" class="edge">
<title>Node5&#45;&gt;Node6</title>
<path fill="none" stroke="midnightblue" d="M560.12,-224.08C564.41,-216.61 570.66,-205.72 575.94,-196.52"/>
<polygon fill="midnightblue" stroke="midnightblue" points="579.03,-198.17 580.98,-187.75 572.96,-194.68 579.03,-198.17"/>
</g>
<!-- Node5&#45;&gt;Node11 -->
<g id="edge14" class="edge">
<title>Node5&#45;&gt;Node11</title>
<path fill="none" stroke="midnightblue" d="M537.15,-224.35C521.12,-216.14 497.34,-202.88 479,-188 438.97,-155.53 400.12,-108.57 380.75,-83.78"/>
<polygon fill="midnightblue" stroke="midnightblue" points="383.41,-81.5 374.52,-75.72 377.86,-85.78 383.41,-81.5"/>
</g>
<!-- Node7 -->
<g id="node7" class="node">
<title>Node7</title>
<g id="a_node7"><a xlink:href="../../d7/d79/MinMaxFix_8hpp.html" target="_top" xlink:title=" ">
<polygon fill="white" stroke="black" points="518,-112.5 518,-131.5 654,-131.5 654,-112.5 518,-112.5"/>
<text text-anchor="middle" x="586" y="-119.5" font-family="Helvetica,sans-Serif" font-size="10.00">AH/Math/MinMaxFix.hpp</text>
</a>
</g>
</g>
<!-- Node6&#45;&gt;Node7 -->
<g id="edge6" class="edge">
<title>Node6&#45;&gt;Node7</title>
<path fill="none" stroke="midnightblue" d="M586,-168.08C586,-161.01 586,-150.86 586,-141.99"/>
<polygon fill="midnightblue" stroke="midnightblue" points="589.5,-141.75 586,-131.75 582.5,-141.75 589.5,-141.75"/>
</g>
<!-- Node10 -->
<g id="node10" class="node">
<title>Node10</title>
<g id="a_node10"><a xlink:title=" ">
<polygon fill="white" stroke="#bfbfbf" points="593.5,-0.5 593.5,-19.5 656.5,-19.5 656.5,-0.5 593.5,-0.5"/>
<text text-anchor="middle" x="625" y="-7.5" font-family="Helvetica,sans-Serif" font-size="10.00">Arduino.h</text>
</a>
</g>
</g>
<!-- Node6&#45;&gt;Node10 -->
<g id="edge13" class="edge">
<title>Node6&#45;&gt;Node10</title>
<path fill="none" stroke="midnightblue" d="M614.37,-168.49C631.75,-161.65 652.6,-150.13 663,-132 679.81,-102.7 674.6,-87.72 663,-56 658.94,-44.91 650.81,-34.67 643.11,-26.76"/>
<polygon fill="midnightblue" stroke="midnightblue" points="645.36,-24.07 635.71,-19.7 640.53,-29.14 645.36,-24.07"/>
</g>
<!-- Node6&#45;&gt;Node12 -->
<g id="edge12" class="edge">
<title>Node6&#45;&gt;Node12</title>
<path fill="none" stroke="midnightblue" d="M614.2,-168.44C644.41,-159.28 692.51,-144.69 726.03,-134.52"/>
<polygon fill="midnightblue" stroke="midnightblue" points="727.37,-137.77 735.93,-131.52 725.34,-131.07 727.37,-137.77"/>
</g>
<!-- Node8 -->
<g id="node8" class="node">
<title>Node8</title>
<g id="a_node8"><a xlink:href="../../d6/d3b/FixArduinoMacros_8hpp.html" target="_top" xlink:title=" ">
<polygon fill="white" stroke="black" points="484,-56.5 484,-75.5 654,-75.5 654,-56.5 484,-56.5"/>
<text text-anchor="middle" x="569" y="-63.5" font-family="Helvetica,sans-Serif" font-size="10.00">AH/Math/FixArduinoMacros.hpp</text>
</a>
</g>
</g>
<!-- Node7&#45;&gt;Node8 -->
<g id="edge7" class="edge">
<title>Node7&#45;&gt;Node8</title>
<path fill="none" stroke="midnightblue" d="M583.19,-112.08C580.92,-104.85 577.63,-94.41 574.79,-85.4"/>
<polygon fill="midnightblue" stroke="midnightblue" points="578.1,-84.24 571.75,-75.75 571.42,-86.34 578.1,-84.24"/>
</g>
<!-- Node7&#45;&gt;Node11 -->
<g id="edge10" class="edge">
<title>Node7&#45;&gt;Node11</title>
<path fill="none" stroke="midnightblue" d="M551.46,-112.44C513.75,-103.1 453.26,-88.12 412.14,-77.93"/>
<polygon fill="midnightblue" stroke="midnightblue" points="412.93,-74.52 402.38,-75.52 411.25,-81.32 412.93,-74.52"/>
</g>
<!-- Node9 -->
<g id="node9" class="node">
<title>Node9</title>
<g id="a_node9"><a xlink:href="../../d1/d65/Warnings_8hpp.html" target="_top" xlink:title=" ">
<polygon fill="white" stroke="black" points="392.5,-0.5 392.5,-19.5 535.5,-19.5 535.5,-0.5 392.5,-0.5"/>
<text text-anchor="middle" x="464" y="-7.5" font-family="Helvetica,sans-Serif" font-size="10.00">AH/Settings/Warnings.hpp</text>
</a>
</g>
</g>
<!-- Node8&#45;&gt;Node9 -->
<g id="edge8" class="edge">
<title>Node8&#45;&gt;Node9</title>
<path fill="none" stroke="midnightblue" d="M552.13,-56.32C535.29,-47.66 509.19,-34.24 489.76,-24.25"/>
<polygon fill="midnightblue" stroke="midnightblue" points="491.32,-21.12 480.83,-19.65 488.12,-27.34 491.32,-21.12"/>
</g>
<!-- Node8&#45;&gt;Node10 -->
<g id="edge9" class="edge">
<title>Node8&#45;&gt;Node10</title>
<path fill="none" stroke="midnightblue" d="M578,-56.32C586.19,-48.42 598.51,-36.55 608.47,-26.94"/>
<polygon fill="midnightblue" stroke="midnightblue" points="611.07,-29.29 615.84,-19.83 606.21,-24.26 611.07,-29.29"/>
</g>
<!-- Node11&#45;&gt;Node9 -->
<g id="edge11" class="edge">
<title>Node11&#45;&gt;Node9</title>
<path fill="none" stroke="midnightblue" d="M383.42,-56.32C398.54,-47.82 421.82,-34.73 439.47,-24.8"/>
<polygon fill="midnightblue" stroke="midnightblue" points="441.61,-27.61 448.61,-19.65 438.18,-21.51 441.61,-27.61"/>
</g>
<!-- Node13&#45;&gt;Node4 -->
<g id="edge26" class="edge">
<title>Node13&#45;&gt;Node4</title>
<path fill="none" stroke="midnightblue" d="M359.1,-355.75C361.39,-362.78 362.97,-372.91 363.36,-381.8"/>
<polygon fill="midnightblue" stroke="midnightblue" points="359.86,-382.02 363.18,-392.08 366.85,-382.15 359.86,-382.02"/>
</g>
<!-- Node13&#45;&gt;Node11 -->
<g id="edge16" class="edge">
<title>Node13&#45;&gt;Node11</title>
<path fill="none" stroke="midnightblue" d="M352.07,-336.24C350.3,-322.98 345.45,-297.52 333,-280 317.35,-257.97 296.2,-268.11 284,-244 279.99,-236.07 281.84,-232.62 284,-224 297.91,-168.5 335.61,-111.19 355.43,-83.69"/>
<polygon fill="midnightblue" stroke="midnightblue" points="358.31,-85.69 361.41,-75.56 352.67,-81.55 358.31,-85.69"/>
</g>
<!-- Node14 -->
<g id="node14" class="node">
<title>Node14</title>
<g id="a_node14"><a xlink:href="../../db/d02/Settings_8hpp.html" target="_top" xlink:title="All user settings and debugging options can be changed here.">
<polygon fill="white" stroke="black" points="56.5,-280.5 56.5,-299.5 133.5,-299.5 133.5,-280.5 56.5,-280.5"/>
<text text-anchor="middle" x="95" y="-287.5" font-family="Helvetica,sans-Serif" font-size="10.00">Settings.hpp</text>
</a>
</g>
</g>
<!-- Node13&#45;&gt;Node14 -->
<g id="edge17" class="edge">
<title>Node13&#45;&gt;Node14</title>
<path fill="none" stroke="midnightblue" d="M312.12,-336.44C266.35,-326.86 192.25,-311.35 143.57,-301.16"/>
<polygon fill="midnightblue" stroke="midnightblue" points="144.09,-297.7 133.58,-299.08 142.65,-304.55 144.09,-297.7"/>
</g>
<!-- Node20 -->
<g id="node20" class="node">
<title>Node20</title>
<g id="a_node20"><a xlink:href="../../d9/d98/TeensyUSBTypes_8hpp.html" target="_top" xlink:title=" ">
<polygon fill="white" stroke="black" points="151.5,-280.5 151.5,-299.5 324.5,-299.5 324.5,-280.5 151.5,-280.5"/>
<text text-anchor="middle" x="238" y="-287.5" font-family="Helvetica,sans-Serif" font-size="10.00">AH/Teensy/TeensyUSBTypes.hpp</text>
</a>
</g>
</g>
<!-- Node13&#45;&gt;Node20 -->
<g id="edge25" class="edge">
<title>Node13&#45;&gt;Node20</title>
<path fill="none" stroke="midnightblue" d="M334.78,-336.44C316.1,-327.68 286.84,-313.94 265.38,-303.86"/>
<polygon fill="midnightblue" stroke="midnightblue" points="266.68,-300.6 256.14,-299.52 263.7,-306.93 266.68,-300.6"/>
</g>
<!-- Node15 -->
<g id="node15" class="node">
<title>Node15</title>
<g id="a_node15"><a xlink:href="../../dc/d50/Frequency_8hpp.html" target="_top" xlink:title=" ">
<polygon fill="white" stroke="black" points="60,-168.5 60,-187.5 194,-187.5 194,-168.5 60,-168.5"/>
<text text-anchor="middle" x="127" y="-175.5" font-family="Helvetica,sans-Serif" font-size="10.00">AH/Types/Frequency.hpp</text>
</a>
</g>
</g>
<!-- Node14&#45;&gt;Node15 -->
<g id="edge18" class="edge">
<title>Node14&#45;&gt;Node15</title>
<path fill="none" stroke="midnightblue" d="M95.07,-280.37C95.38,-267.72 96.83,-243.51 103,-224 106.07,-214.29 111.22,-204.22 115.97,-196.08"/>
<polygon fill="midnightblue" stroke="midnightblue" points="118.96,-197.89 121.21,-187.54 113,-194.24 118.96,-197.89"/>
</g>
<!-- Node16 -->
<g id="node16" class="node">
<title>Node16</title>
<g id="a_node16"><a xlink:href="../../d7/d7c/ADCConfig_8hpp.html" target="_top" xlink:title="This file contains the platform&#45;specific ADC resolutions.">
<polygon fill="white" stroke="black" points="293.5,-224.5 293.5,-243.5 450.5,-243.5 450.5,-224.5 293.5,-224.5"/>
<text text-anchor="middle" x="372" y="-231.5" font-family="Helvetica,sans-Serif" font-size="10.00">AH/Hardware/ADCConfig.hpp</text>
</a>
</g>
</g>
<!-- Node14&#45;&gt;Node16 -->
<g id="edge20" class="edge">
<title>Node14&#45;&gt;Node16</title>
<path fill="none" stroke="midnightblue" d="M133.52,-281.49C181.56,-272.13 263.97,-256.06 318.22,-245.48"/>
<polygon fill="midnightblue" stroke="midnightblue" points="319.19,-248.86 328.34,-243.51 317.85,-241.99 319.19,-248.86"/>
</g>
<!-- Node17 -->
<g id="node17" class="node">
<title>Node17</title>
<g id="a_node17"><a xlink:title=" ">
<polygon fill="white" stroke="#bfbfbf" points="112.5,-224.5 112.5,-243.5 165.5,-243.5 165.5,-224.5 112.5,-224.5"/>
<text text-anchor="middle" x="139" y="-231.5" font-family="Helvetica,sans-Serif" font-size="10.00">limits.h</text>
</a>
</g>
</g>
<!-- Node14&#45;&gt;Node17 -->
<g id="edge22" class="edge">
<title>Node14&#45;&gt;Node17</title>
<path fill="none" stroke="midnightblue" d="M102.27,-280.08C108.54,-272.38 117.79,-261.03 125.43,-251.65"/>
<polygon fill="midnightblue" stroke="midnightblue" points="128.27,-253.71 131.87,-243.75 122.84,-249.29 128.27,-253.71"/>
</g>
<!-- Node14&#45;&gt;Node18 -->
<g id="edge23" class="edge">
<title>Node14&#45;&gt;Node18</title>
<path fill="none" stroke="midnightblue" d="M84.24,-280.32C74.23,-272.26 59.11,-260.08 47.07,-250.37"/>
<polygon fill="midnightblue" stroke="midnightblue" points="48.94,-247.38 38.96,-243.83 44.55,-252.83 48.94,-247.38"/>
</g>
<!-- Node14&#45;&gt;Node19 -->
<g id="edge24" class="edge">
<title>Node14&#45;&gt;Node19</title>
<path fill="none" stroke="midnightblue" d="M113.22,-280.44C131.9,-271.68 161.16,-257.94 182.62,-247.86"/>
<polygon fill="midnightblue" stroke="midnightblue" points="184.3,-250.93 191.86,-243.52 181.32,-244.6 184.3,-250.93"/>
</g>
<!-- Node15&#45;&gt;Node11 -->
<g id="edge19" class="edge">
<title>Node15&#45;&gt;Node11</title>
<path fill="none" stroke="midnightblue" d="M141.99,-168.42C165.03,-155.4 210.7,-130.24 251,-112 278.41,-99.59 310.34,-87.46 333.91,-78.93"/>
<polygon fill="midnightblue" stroke="midnightblue" points="335.23,-82.17 343.46,-75.5 332.87,-75.58 335.23,-82.17"/>
</g>
<!-- Node16&#45;&gt;Node6 -->
<g id="edge21" class="edge">
<title>Node16&#45;&gt;Node6</title>
<path fill="none" stroke="midnightblue" d="M405.91,-224.44C442.85,-215.12 502.05,-200.18 542.42,-190"/>
<polygon fill="midnightblue" stroke="midnightblue" points="543.41,-193.36 552.25,-187.52 541.7,-186.57 543.41,-193.36"/>
</g>
</g>
</svg>
