<?xml version="1.0" encoding="UTF-8" standalone="no"?>
<!DOCTYPE svg PUBLIC "-//W3C//DTD SVG 1.1//EN"
 "http://www.w3.org/Graphics/SVG/1.1/DTD/svg11.dtd">
<!-- Generated by graphviz version 2.43.0 (0)
 -->
<!-- Title: MAX7219SevenSegmentDisplay.hpp Pages: 1 -->
<svg width="1667pt" height="845pt"
 viewBox="0.00 0.00 1666.56 845.00" xmlns="http://www.w3.org/2000/svg" xmlns:xlink="http://www.w3.org/1999/xlink">
<g id="graph0" class="graph" transform="scale(1 1) rotate(0) translate(4 841)">
<title>MAX7219SevenSegmentDisplay.hpp</title>
<polygon fill="white" stroke="transparent" points="-4,4 -4,-841 1662.56,-841 1662.56,4 -4,4"/>
<!-- Node1 -->
<g id="node1" class="node">
<title>Node1</title>
<g id="a_node1"><a xlink:title=" ">
<polygon fill="#bfbfbf" stroke="black" points="615.5,-817.5 615.5,-836.5 808.5,-836.5 808.5,-817.5 615.5,-817.5"/>
<text text-anchor="middle" x="712" y="-824.5" font-family="Helvetica,sans-Serif" font-size="10.00">MAX7219SevenSegmentDisplay.hpp</text>
</a>
</g>
</g>
<!-- Node2 -->
<g id="node2" class="node">
<title>Node2</title>
<g id="a_node2"><a xlink:href="../../d1/d65/Warnings_8hpp.html" target="_top" xlink:title=" ">
<polygon fill="white" stroke="black" points="470.5,-0.5 470.5,-19.5 613.5,-19.5 613.5,-0.5 470.5,-0.5"/>
<text text-anchor="middle" x="542" y="-7.5" font-family="Helvetica,sans-Serif" font-size="10.00">AH/Settings/Warnings.hpp</text>
</a>
</g>
</g>
<!-- Node1&#45;&gt;Node2 -->
<g id="edge1" class="edge">
<title>Node1&#45;&gt;Node2</title>
<path fill="none" stroke="midnightblue" d="M808.84,-820.7C1008.43,-808.48 1447,-774.36 1447,-710.5 1447,-710.5 1447,-710.5 1447,-121 1447,-53.61 1375.29,-72.72 1310,-56 1182.18,-23.26 794.15,-14.25 623.74,-11.85"/>
<polygon fill="midnightblue" stroke="midnightblue" points="623.62,-8.34 613.57,-11.71 623.52,-15.34 623.62,-8.34"/>
</g>
<!-- Node3 -->
<g id="node3" class="node">
<title>Node3</title>
<g id="a_node3"><a xlink:href="../../d7/d13/MAX7219__Base_8hpp.html" target="_top" xlink:title=" ">
<polygon fill="white" stroke="black" points="437.5,-761.5 437.5,-780.5 550.5,-780.5 550.5,-761.5 437.5,-761.5"/>
<text text-anchor="middle" x="494" y="-768.5" font-family="Helvetica,sans-Serif" font-size="10.00">MAX7219_Base.hpp</text>
</a>
</g>
</g>
<!-- Node1&#45;&gt;Node3 -->
<g id="edge2" class="edge">
<title>Node1&#45;&gt;Node3</title>
<path fill="none" stroke="midnightblue" d="M677.46,-817.44C639.75,-808.1 579.26,-793.12 538.14,-782.93"/>
<polygon fill="midnightblue" stroke="midnightblue" points="538.93,-779.52 528.38,-780.52 537.25,-786.32 538.93,-779.52"/>
</g>
<!-- Node3&#45;&gt;Node2 -->
<g id="edge3" class="edge">
<title>Node3&#45;&gt;Node2</title>
<path fill="none" stroke="midnightblue" d="M437.33,-767.42C307.57,-759.98 0,-732.92 0,-643.5 0,-643.5 0,-643.5 0,-121 0,-84.55 18.07,-73.57 50,-56 118.45,-18.32 338.66,-11.48 459.96,-10.67"/>
<polygon fill="midnightblue" stroke="midnightblue" points="460.32,-14.17 470.3,-10.61 460.29,-7.17 460.32,-14.17"/>
</g>
<!-- Node4 -->
<g id="node4" class="node">
<title>Node4</title>
<g id="a_node4"><a xlink:href="../../dd/ddf/ExtendedInputOutput_8hpp.html" target="_top" xlink:title=" ">
<polygon fill="white" stroke="black" points="468.5,-694.5 468.5,-724.5 645.5,-724.5 645.5,-694.5 468.5,-694.5"/>
<text text-anchor="start" x="476.5" y="-712.5" font-family="Helvetica,sans-Serif" font-size="10.00">AH/Hardware/ExtendedInput</text>
<text text-anchor="middle" x="557" y="-701.5" font-family="Helvetica,sans-Serif" font-size="10.00">Output/ExtendedInputOutput.hpp</text>
</a>
</g>
</g>
<!-- Node3&#45;&gt;Node4 -->
<g id="edge4" class="edge">
<title>Node3&#45;&gt;Node4</title>
<path fill="none" stroke="midnightblue" d="M503.03,-761.48C511.24,-753.72 523.71,-741.94 534.59,-731.66"/>
<polygon fill="midnightblue" stroke="midnightblue" points="537.29,-733.93 542.15,-724.52 532.48,-728.84 537.29,-733.93"/>
</g>
<!-- Node31 -->
<g id="node31" class="node">
<title>Node31</title>
<g id="a_node31"><a xlink:title=" ">
<polygon fill="white" stroke="#bfbfbf" points="409.5,-700 409.5,-719 450.5,-719 450.5,-700 409.5,-700"/>
<text text-anchor="middle" x="430" y="-707" font-family="Helvetica,sans-Serif" font-size="10.00">SPI.h</text>
</a>
</g>
</g>
<!-- Node3&#45;&gt;Node31 -->
<g id="edge58" class="edge">
<title>Node3&#45;&gt;Node31</title>
<path fill="none" stroke="midnightblue" d="M484.83,-761.48C474.85,-752.2 458.69,-737.17 446.49,-725.83"/>
<polygon fill="midnightblue" stroke="midnightblue" points="448.86,-723.25 439.15,-719.01 444.09,-728.38 448.86,-723.25"/>
</g>
<!-- Node4&#45;&gt;Node2 -->
<g id="edge57" class="edge">
<title>Node4&#45;&gt;Node2</title>
<path fill="none" stroke="midnightblue" d="M516.47,-694.5C451.89,-670.11 325.91,-613.71 257,-524 120.56,-346.36 -80.68,-221.73 70,-56 95.68,-27.76 331.91,-16.82 460.12,-12.93"/>
<polygon fill="midnightblue" stroke="midnightblue" points="460.4,-16.43 470.29,-12.63 460.19,-9.43 460.4,-16.43"/>
</g>
<!-- Node5 -->
<g id="node5" class="node">
<title>Node5</title>
<g id="a_node5"><a xlink:href="../../d2/d3c/Arduino-Hardware-Types_8hpp.html" target="_top" xlink:title=" ">
<polygon fill="white" stroke="black" points="899,-627.5 899,-657.5 1021,-657.5 1021,-627.5 899,-627.5"/>
<text text-anchor="start" x="907" y="-645.5" font-family="Helvetica,sans-Serif" font-size="10.00">AH/Hardware/Arduino</text>
<text text-anchor="middle" x="960" y="-634.5" font-family="Helvetica,sans-Serif" font-size="10.00">&#45;Hardware&#45;Types.hpp</text>
</a>
</g>
</g>
<!-- Node4&#45;&gt;Node5 -->
<g id="edge5" class="edge">
<title>Node4&#45;&gt;Node5</title>
<path fill="none" stroke="midnightblue" d="M643.95,-694.48C717.02,-682.69 820.18,-666.05 888.52,-655.03"/>
<polygon fill="midnightblue" stroke="midnightblue" points="889.45,-658.42 898.76,-653.38 888.33,-651.51 889.45,-658.42"/>
</g>
<!-- Node11 -->
<g id="node11" class="node">
<title>Node11</title>
<g id="a_node11"><a xlink:href="../../dc/dc7/NamespaceSettings_8hpp.html" target="_top" xlink:title=" ">
<polygon fill="white" stroke="black" points="1004.5,-56.5 1004.5,-75.5 1199.5,-75.5 1199.5,-56.5 1004.5,-56.5"/>
<text text-anchor="middle" x="1102" y="-63.5" font-family="Helvetica,sans-Serif" font-size="10.00">AH/Settings/NamespaceSettings.hpp</text>
</a>
</g>
</g>
<!-- Node4&#45;&gt;Node11 -->
<g id="edge56" class="edge">
<title>Node4&#45;&gt;Node11</title>
<path fill="none" stroke="midnightblue" d="M645.77,-701.88C842.72,-686.02 1299,-642.17 1299,-576.5 1299,-576.5 1299,-576.5 1299,-233 1299,-162.95 1256.19,-151 1198,-112 1178.21,-98.73 1153.89,-87.38 1134.68,-79.39"/>
<polygon fill="midnightblue" stroke="midnightblue" points="1135.73,-76.04 1125.15,-75.53 1133.11,-82.53 1135.73,-76.04"/>
</g>
<!-- Node30 -->
<g id="node30" class="node">
<title>Node30</title>
<g id="a_node30"><a xlink:title=" ">
<polygon fill="white" stroke="#bfbfbf" points="28.5,-633 28.5,-652 115.5,-652 115.5,-633 28.5,-633"/>
<text text-anchor="middle" x="72" y="-640" font-family="Helvetica,sans-Serif" font-size="10.00">AH/STL/climits</text>
</a>
</g>
</g>
<!-- Node4&#45;&gt;Node30 -->
<g id="edge55" class="edge">
<title>Node4&#45;&gt;Node30</title>
<path fill="none" stroke="midnightblue" d="M468.35,-695.23C465.19,-694.81 462.07,-694.4 459,-694 313.11,-675.23 274.8,-683.9 130,-658 124.44,-657.01 118.63,-655.78 112.92,-654.47"/>
<polygon fill="midnightblue" stroke="midnightblue" points="113.38,-650.98 102.84,-652.04 111.74,-657.78 113.38,-650.98"/>
</g>
<!-- Node5&#45;&gt;Node2 -->
<g id="edge6" class="edge">
<title>Node5&#45;&gt;Node2</title>
<path fill="none" stroke="midnightblue" d="M1021.27,-641.75C1109.28,-638.52 1261,-618.02 1261,-515 1261,-515 1261,-515 1261,-345 1261,-226.63 1457.17,-209.46 1390,-112 1350.33,-54.43 1311.32,-70.85 1243,-56 1127.12,-30.81 782.74,-17.92 623.92,-13.18"/>
<polygon fill="midnightblue" stroke="midnightblue" points="623.83,-9.68 613.73,-12.88 623.62,-16.68 623.83,-9.68"/>
</g>
<!-- Node6 -->
<g id="node6" class="node">
<title>Node6</title>
<g id="a_node6"><a xlink:href="../../d4/d35/Hardware-Types_8hpp.html" target="_top" xlink:title=" ">
<polygon fill="white" stroke="black" points="894.5,-560.5 894.5,-590.5 1025.5,-590.5 1025.5,-560.5 894.5,-560.5"/>
<text text-anchor="start" x="902.5" y="-578.5" font-family="Helvetica,sans-Serif" font-size="10.00">AH/Hardware/Hardware</text>
<text text-anchor="middle" x="960" y="-567.5" font-family="Helvetica,sans-Serif" font-size="10.00">&#45;Types.hpp</text>
</a>
</g>
</g>
<!-- Node5&#45;&gt;Node6 -->
<g id="edge7" class="edge">
<title>Node5&#45;&gt;Node6</title>
<path fill="none" stroke="midnightblue" d="M960,-627.4C960,-619.64 960,-609.81 960,-600.86"/>
<polygon fill="midnightblue" stroke="midnightblue" points="963.5,-600.58 960,-590.58 956.5,-600.58 963.5,-600.58"/>
</g>
<!-- Node12 -->
<g id="node12" class="node">
<title>Node12</title>
<g id="a_node12"><a xlink:href="../../d6/ddf/Arduino-Wrapper_8h.html" target="_top" xlink:title=" ">
<polygon fill="white" stroke="black" points="1109,-168.5 1109,-187.5 1233,-187.5 1233,-168.5 1109,-168.5"/>
<text text-anchor="middle" x="1171" y="-175.5" font-family="Helvetica,sans-Serif" font-size="10.00">AH/Arduino&#45;Wrapper.h</text>
</a>
</g>
</g>
<!-- Node5&#45;&gt;Node12 -->
<g id="edge54" class="edge">
<title>Node5&#45;&gt;Node12</title>
<path fill="none" stroke="midnightblue" d="M1021.33,-638.25C1099.04,-630.45 1223,-604.05 1223,-515 1223,-515 1223,-515 1223,-289 1223,-253.12 1200.11,-216.42 1184.7,-195.79"/>
<polygon fill="midnightblue" stroke="midnightblue" points="1187.35,-193.5 1178.45,-187.74 1181.82,-197.79 1187.35,-193.5"/>
</g>
<!-- Node27 -->
<g id="node27" class="node">
<title>Node27</title>
<g id="a_node27"><a xlink:href="../../d0/db1/FunctionTraits_8hpp.html" target="_top" xlink:title=" ">
<polygon fill="white" stroke="black" points="151.5,-112.5 151.5,-131.5 304.5,-131.5 304.5,-112.5 151.5,-112.5"/>
<text text-anchor="middle" x="228" y="-119.5" font-family="Helvetica,sans-Serif" font-size="10.00">AH/Types/FunctionTraits.hpp</text>
</a>
</g>
</g>
<!-- Node5&#45;&gt;Node27 -->
<g id="edge49" class="edge">
<title>Node5&#45;&gt;Node27</title>
<path fill="none" stroke="midnightblue" d="M898.89,-636.86C728.57,-623.13 261,-579.55 261,-515 261,-515 261,-515 261,-233 261,-199.25 246.57,-162.03 236.79,-140.69"/>
<polygon fill="midnightblue" stroke="midnightblue" points="239.91,-139.1 232.45,-131.58 233.59,-142.11 239.91,-139.1"/>
</g>
<!-- Node6&#45;&gt;Node2 -->
<g id="edge8" class="edge">
<title>Node6&#45;&gt;Node2</title>
<path fill="none" stroke="midnightblue" d="M894.38,-569.25C733.59,-555.52 333,-515.62 333,-459 333,-459 333,-459 333,-121 333,-60.82 401.69,-33.49 460.31,-21.12"/>
<polygon fill="midnightblue" stroke="midnightblue" points="461.24,-24.51 470.37,-19.12 459.88,-17.64 461.24,-24.51"/>
</g>
<!-- Node7 -->
<g id="node7" class="node">
<title>Node7</title>
<g id="a_node7"><a xlink:href="../../de/d76/Array_8hpp.html" target="_top" xlink:title=" ">
<polygon fill="white" stroke="black" points="716.5,-504.5 716.5,-523.5 851.5,-523.5 851.5,-504.5 716.5,-504.5"/>
<text text-anchor="middle" x="784" y="-511.5" font-family="Helvetica,sans-Serif" font-size="10.00">AH/Containers/Array.hpp</text>
</a>
</g>
</g>
<!-- Node6&#45;&gt;Node7 -->
<g id="edge9" class="edge">
<title>Node6&#45;&gt;Node7</title>
<path fill="none" stroke="midnightblue" d="M918.29,-560.4C888.01,-550.16 847.51,-536.47 818.93,-526.81"/>
<polygon fill="midnightblue" stroke="midnightblue" points="819.95,-523.46 809.35,-523.57 817.7,-530.09 819.95,-523.46"/>
</g>
<!-- Node10 -->
<g id="node10" class="node">
<title>Node10</title>
<g id="a_node10"><a xlink:href="../../dd/d80/PrintStream_8hpp.html" target="_top" xlink:title=" ">
<polygon fill="white" stroke="black" points="983.5,-224.5 983.5,-243.5 1156.5,-243.5 1156.5,-224.5 983.5,-224.5"/>
<text text-anchor="middle" x="1070" y="-231.5" font-family="Helvetica,sans-Serif" font-size="10.00">AH/PrintStream/PrintStream.hpp</text>
</a>
</g>
</g>
<!-- Node6&#45;&gt;Node10 -->
<g id="edge45" class="edge">
<title>Node6&#45;&gt;Node10</title>
<path fill="none" stroke="midnightblue" d="M1005.61,-560.42C1049.1,-543.83 1108,-511.64 1108,-459 1108,-459 1108,-459 1108,-345 1108,-310.81 1091.4,-273.76 1080.14,-252.57"/>
<polygon fill="midnightblue" stroke="midnightblue" points="1083.18,-250.83 1075.28,-243.77 1077.05,-254.22 1083.18,-250.83"/>
</g>
<!-- Node6&#45;&gt;Node11 -->
<g id="edge47" class="edge">
<title>Node6&#45;&gt;Node11</title>
<path fill="none" stroke="midnightblue" d="M1025.68,-568.46C1092.1,-558.32 1185,-531.23 1185,-459 1185,-459 1185,-459 1185,-345 1185,-262.35 1279.64,-241.57 1242,-168 1235.55,-155.39 1162.33,-106.36 1124.43,-81.55"/>
<polygon fill="midnightblue" stroke="midnightblue" points="1125.91,-78.33 1115.62,-75.8 1122.08,-84.2 1125.91,-78.33"/>
</g>
<!-- Node23 -->
<g id="node23" class="node">
<title>Node23</title>
<g id="a_node23"><a xlink:title=" ">
<polygon fill="white" stroke="#bfbfbf" points="873.5,-224.5 873.5,-243.5 926.5,-243.5 926.5,-224.5 873.5,-224.5"/>
<text text-anchor="middle" x="900" y="-231.5" font-family="Helvetica,sans-Serif" font-size="10.00">stdint.h</text>
</a>
</g>
</g>
<!-- Node6&#45;&gt;Node23 -->
<g id="edge48" class="edge">
<title>Node6&#45;&gt;Node23</title>
<path fill="none" stroke="midnightblue" d="M967.04,-560.31C977,-538.91 994,-496.83 994,-459 994,-459 994,-459 994,-345 994,-301.93 951.84,-267.21 923.99,-248.98"/>
<polygon fill="midnightblue" stroke="midnightblue" points="925.85,-246.01 915.52,-243.65 922.12,-251.94 925.85,-246.01"/>
</g>
<!-- Node26 -->
<g id="node26" class="node">
<title>Node26</title>
<g id="a_node26"><a xlink:title=" ">
<polygon fill="white" stroke="#bfbfbf" points="884,-504.5 884,-523.5 966,-523.5 966,-504.5 884,-504.5"/>
<text text-anchor="middle" x="925" y="-511.5" font-family="Helvetica,sans-Serif" font-size="10.00">AH/STL/limits</text>
</a>
</g>
</g>
<!-- Node6&#45;&gt;Node26 -->
<g id="edge46" class="edge">
<title>Node6&#45;&gt;Node26</title>
<path fill="none" stroke="midnightblue" d="M951.71,-560.4C946.78,-552.02 940.49,-541.33 935.25,-532.42"/>
<polygon fill="midnightblue" stroke="midnightblue" points="938.18,-530.5 930.09,-523.66 932.15,-534.05 938.18,-530.5"/>
</g>
<!-- Node7&#45;&gt;Node2 -->
<g id="edge10" class="edge">
<title>Node7&#45;&gt;Node2</title>
<path fill="none" stroke="midnightblue" d="M716.26,-508.93C599.1,-500.01 371,-473.58 371,-403 371,-403 371,-403 371,-121 371,-64.74 437.28,-35.9 487.31,-22.14"/>
<polygon fill="midnightblue" stroke="midnightblue" points="488.28,-25.5 497.07,-19.58 486.51,-18.73 488.28,-25.5"/>
</g>
<!-- Node8 -->
<g id="node8" class="node">
<title>Node8</title>
<g id="a_node8"><a xlink:href="../../d1/d93/Error_8hpp.html" target="_top" xlink:title=" ">
<polygon fill="white" stroke="black" points="595,-448.5 595,-467.5 699,-467.5 699,-448.5 595,-448.5"/>
<text text-anchor="middle" x="647" y="-455.5" font-family="Helvetica,sans-Serif" font-size="10.00">AH/Error/Error.hpp</text>
</a>
</g>
</g>
<!-- Node7&#45;&gt;Node8 -->
<g id="edge11" class="edge">
<title>Node7&#45;&gt;Node8</title>
<path fill="none" stroke="midnightblue" d="M762.29,-504.44C739.65,-495.52 703.93,-481.44 678.25,-471.32"/>
<polygon fill="midnightblue" stroke="midnightblue" points="679.19,-467.93 668.61,-467.52 676.63,-474.44 679.19,-467.93"/>
</g>
<!-- Node16 -->
<g id="node16" class="node">
<title>Node16</title>
<g id="a_node16"><a xlink:title=" ">
<polygon fill="white" stroke="#bfbfbf" points="1043.5,-112.5 1043.5,-131.5 1150.5,-131.5 1150.5,-112.5 1043.5,-112.5"/>
<text text-anchor="middle" x="1097" y="-119.5" font-family="Helvetica,sans-Serif" font-size="10.00">AH/STL/type_traits</text>
</a>
</g>
</g>
<!-- Node7&#45;&gt;Node16 -->
<g id="edge43" class="edge">
<title>Node7&#45;&gt;Node16</title>
<path fill="none" stroke="midnightblue" d="M809.74,-504.44C882.23,-478.75 1087.83,-394.66 1166,-244 1170.09,-236.11 1170.54,-231.64 1166,-224 1148.94,-195.27 1117.71,-216.33 1100,-188 1091.48,-174.38 1091.5,-155.84 1093.2,-142.04"/>
<polygon fill="midnightblue" stroke="midnightblue" points="1096.72,-142.22 1094.87,-131.78 1089.81,-141.09 1096.72,-142.22"/>
</g>
<!-- Node22 -->
<g id="node22" class="node">
<title>Node22</title>
<g id="a_node22"><a xlink:title=" ">
<polygon fill="white" stroke="#bfbfbf" points="799,-224.5 799,-243.5 855,-243.5 855,-224.5 799,-224.5"/>
<text text-anchor="middle" x="827" y="-231.5" font-family="Helvetica,sans-Serif" font-size="10.00">stddef.h</text>
</a>
</g>
</g>
<!-- Node7&#45;&gt;Node22 -->
<g id="edge44" class="edge">
<title>Node7&#45;&gt;Node22</title>
<path fill="none" stroke="midnightblue" d="M791.57,-504.26C798.75,-495.58 809.39,-481.63 816,-468 829.13,-440.92 835,-433.1 835,-403 835,-403 835,-403 835,-345 835,-312.86 831.56,-275.58 829.19,-253.72"/>
<polygon fill="midnightblue" stroke="midnightblue" points="832.64,-253.09 828.05,-243.54 825.69,-253.87 832.64,-253.09"/>
</g>
<!-- Node25 -->
<g id="node25" class="node">
<title>Node25</title>
<g id="a_node25"><a xlink:title=" ">
<polygon fill="white" stroke="#bfbfbf" points="717,-448.5 717,-467.5 807,-467.5 807,-448.5 717,-448.5"/>
<text text-anchor="middle" x="762" y="-455.5" font-family="Helvetica,sans-Serif" font-size="10.00">AH/STL/iterator</text>
</a>
</g>
</g>
<!-- Node7&#45;&gt;Node25 -->
<g id="edge42" class="edge">
<title>Node7&#45;&gt;Node25</title>
<path fill="none" stroke="midnightblue" d="M780.37,-504.08C777.39,-496.77 773.07,-486.18 769.38,-477.1"/>
<polygon fill="midnightblue" stroke="midnightblue" points="772.58,-475.69 765.57,-467.75 766.1,-478.33 772.58,-475.69"/>
</g>
<!-- Node8&#45;&gt;Node2 -->
<g id="edge12" class="edge">
<title>Node8&#45;&gt;Node2</title>
<path fill="none" stroke="midnightblue" d="M594.77,-455.2C524.71,-449.68 409,-428.25 409,-347 409,-347 409,-347 409,-121 409,-70.73 466.13,-39.1 505.5,-23.27"/>
<polygon fill="midnightblue" stroke="midnightblue" points="507.01,-26.45 515.09,-19.59 504.5,-19.91 507.01,-26.45"/>
</g>
<!-- Node9 -->
<g id="node9" class="node">
<title>Node9</title>
<g id="a_node9"><a xlink:href="../../df/dee/Debug_8hpp.html" target="_top" xlink:title=" ">
<polygon fill="white" stroke="black" points="594.5,-392.5 594.5,-411.5 715.5,-411.5 715.5,-392.5 594.5,-392.5"/>
<text text-anchor="middle" x="655" y="-399.5" font-family="Helvetica,sans-Serif" font-size="10.00">AH/Debug/Debug.hpp</text>
</a>
</g>
</g>
<!-- Node8&#45;&gt;Node9 -->
<g id="edge13" class="edge">
<title>Node8&#45;&gt;Node9</title>
<path fill="none" stroke="midnightblue" d="M648.32,-448.08C649.38,-440.93 650.91,-430.64 652.23,-421.69"/>
<polygon fill="midnightblue" stroke="midnightblue" points="655.7,-422.16 653.7,-411.75 648.78,-421.13 655.7,-422.16"/>
</g>
<!-- Node9&#45;&gt;Node2 -->
<g id="edge14" class="edge">
<title>Node9&#45;&gt;Node2</title>
<path fill="none" stroke="midnightblue" d="M698.07,-392.49C718.4,-386.07 740.82,-374.99 753,-356 760.91,-343.66 772.67,-306.27 752,-280 712.8,-230.19 652.75,-294.16 614,-244 578.12,-197.55 636.6,-167.67 618,-112 606.37,-77.22 577.54,-44.8 558.92,-26.49"/>
<polygon fill="midnightblue" stroke="midnightblue" points="561.29,-23.92 551.64,-19.54 556.45,-28.98 561.29,-23.92"/>
</g>
<!-- Node9&#45;&gt;Node10 -->
<g id="edge15" class="edge">
<title>Node9&#45;&gt;Node10</title>
<path fill="none" stroke="midnightblue" d="M691.96,-392.45C751.89,-377.86 873.22,-345.27 969,-300 999.08,-285.78 1030.9,-264.04 1050.61,-249.67"/>
<polygon fill="midnightblue" stroke="midnightblue" points="1052.8,-252.4 1058.76,-243.64 1048.64,-246.77 1052.8,-252.4"/>
</g>
<!-- Node17 -->
<g id="node17" class="node">
<title>Node17</title>
<g id="a_node17"><a xlink:href="../../d2/dd5/SettingsWrapper_8hpp.html" target="_top" xlink:title=" ">
<polygon fill="white" stroke="black" points="566,-336.5 566,-355.5 744,-355.5 744,-336.5 566,-336.5"/>
<text text-anchor="middle" x="655" y="-343.5" font-family="Helvetica,sans-Serif" font-size="10.00">AH/Settings/SettingsWrapper.hpp</text>
</a>
</g>
</g>
<!-- Node9&#45;&gt;Node17 -->
<g id="edge27" class="edge">
<title>Node9&#45;&gt;Node17</title>
<path fill="none" stroke="midnightblue" d="M649.83,-392.08C648.32,-384.93 647.89,-374.64 648.54,-365.69"/>
<polygon fill="midnightblue" stroke="midnightblue" points="652.02,-366.13 649.87,-355.75 645.08,-365.2 652.02,-366.13"/>
</g>
<!-- Node10&#45;&gt;Node2 -->
<g id="edge17" class="edge">
<title>Node10&#45;&gt;Node2</title>
<path fill="none" stroke="midnightblue" d="M1052.43,-224.49C997.25,-197.93 822.21,-114.76 673,-56 641.55,-43.62 605.15,-31.27 578.71,-22.65"/>
<polygon fill="midnightblue" stroke="midnightblue" points="579.69,-19.28 569.1,-19.53 577.53,-25.94 579.69,-19.28"/>
</g>
<!-- Node10&#45;&gt;Node11 -->
<g id="edge16" class="edge">
<title>Node10&#45;&gt;Node11</title>
<path fill="none" stroke="midnightblue" d="M1063.07,-224.33C1047.57,-203.79 1013.04,-151 1034,-112 1041.62,-97.82 1055.9,-87.35 1069.41,-80.1"/>
<polygon fill="midnightblue" stroke="midnightblue" points="1071.13,-83.16 1078.55,-75.59 1068.03,-76.88 1071.13,-83.16"/>
</g>
<!-- Node10&#45;&gt;Node12 -->
<g id="edge18" class="edge">
<title>Node10&#45;&gt;Node12</title>
<path fill="none" stroke="midnightblue" d="M1086.23,-224.32C1102.35,-215.7 1127.3,-202.36 1145.96,-192.39"/>
<polygon fill="midnightblue" stroke="midnightblue" points="1147.64,-195.46 1154.81,-187.65 1144.34,-189.28 1147.64,-195.46"/>
</g>
<!-- Node13 -->
<g id="node13" class="node">
<title>Node13</title>
<g id="a_node13"><a xlink:href="../../d7/d79/MinMaxFix_8hpp.html" target="_top" xlink:title=" ">
<polygon fill="white" stroke="black" points="1245,-112.5 1245,-131.5 1381,-131.5 1381,-112.5 1245,-112.5"/>
<text text-anchor="middle" x="1313" y="-119.5" font-family="Helvetica,sans-Serif" font-size="10.00">AH/Math/MinMaxFix.hpp</text>
</a>
</g>
</g>
<!-- Node12&#45;&gt;Node13 -->
<g id="edge19" class="edge">
<title>Node12&#45;&gt;Node13</title>
<path fill="none" stroke="midnightblue" d="M1193.5,-168.44C1217.08,-159.48 1254.32,-145.31 1280.96,-135.18"/>
<polygon fill="midnightblue" stroke="midnightblue" points="1282.5,-138.34 1290.6,-131.52 1280.01,-131.8 1282.5,-138.34"/>
</g>
<!-- Node15 -->
<g id="node15" class="node">
<title>Node15</title>
<g id="a_node15"><a xlink:title=" ">
<polygon fill="white" stroke="#bfbfbf" points="1584.5,-0.5 1584.5,-19.5 1647.5,-19.5 1647.5,-0.5 1584.5,-0.5"/>
<text text-anchor="middle" x="1616" y="-7.5" font-family="Helvetica,sans-Serif" font-size="10.00">Arduino.h</text>
</a>
</g>
</g>
<!-- Node12&#45;&gt;Node15 -->
<g id="edge26" class="edge">
<title>Node12&#45;&gt;Node15</title>
<path fill="none" stroke="midnightblue" d="M1233.06,-173.46C1351.29,-165.28 1601.69,-140.57 1654,-76 1666.64,-60.4 1650.44,-40.13 1635.45,-26.4"/>
<polygon fill="midnightblue" stroke="midnightblue" points="1637.31,-23.38 1627.44,-19.52 1632.75,-28.69 1637.31,-23.38"/>
</g>
<!-- Node12&#45;&gt;Node16 -->
<g id="edge25" class="edge">
<title>Node12&#45;&gt;Node16</title>
<path fill="none" stroke="midnightblue" d="M1159.11,-168.32C1147.85,-160.11 1130.71,-147.6 1117.29,-137.81"/>
<polygon fill="midnightblue" stroke="midnightblue" points="1119.25,-134.9 1109.11,-131.83 1115.12,-140.56 1119.25,-134.9"/>
</g>
<!-- Node13&#45;&gt;Node2 -->
<g id="edge20" class="edge">
<title>Node13&#45;&gt;Node2</title>
<path fill="none" stroke="midnightblue" d="M1302.83,-112.29C1285.01,-97.61 1246.37,-68.33 1208,-56 1101.56,-21.8 777.25,-13.59 623.95,-11.62"/>
<polygon fill="midnightblue" stroke="midnightblue" points="623.7,-8.12 613.65,-11.49 623.61,-15.12 623.7,-8.12"/>
</g>
<!-- Node13&#45;&gt;Node11 -->
<g id="edge24" class="edge">
<title>Node13&#45;&gt;Node11</title>
<path fill="none" stroke="midnightblue" d="M1279.57,-112.44C1243.14,-103.12 1184.77,-88.18 1144.97,-78"/>
<polygon fill="midnightblue" stroke="midnightblue" points="1145.83,-74.61 1135.28,-75.52 1144.1,-81.39 1145.83,-74.61"/>
</g>
<!-- Node14 -->
<g id="node14" class="node">
<title>Node14</title>
<g id="a_node14"><a xlink:href="../../d6/d3b/FixArduinoMacros_8hpp.html" target="_top" xlink:title=" ">
<polygon fill="white" stroke="black" points="1475,-56.5 1475,-75.5 1645,-75.5 1645,-56.5 1475,-56.5"/>
<text text-anchor="middle" x="1560" y="-63.5" font-family="Helvetica,sans-Serif" font-size="10.00">AH/Math/FixArduinoMacros.hpp</text>
</a>
</g>
</g>
<!-- Node13&#45;&gt;Node14 -->
<g id="edge21" class="edge">
<title>Node13&#45;&gt;Node14</title>
<path fill="none" stroke="midnightblue" d="M1352.14,-112.44C1395.23,-103.02 1464.56,-87.87 1511.17,-77.68"/>
<polygon fill="midnightblue" stroke="midnightblue" points="1512.02,-81.07 1521.05,-75.52 1510.53,-74.23 1512.02,-81.07"/>
</g>
<!-- Node14&#45;&gt;Node2 -->
<g id="edge22" class="edge">
<title>Node14&#45;&gt;Node2</title>
<path fill="none" stroke="midnightblue" d="M1474.96,-57.04C1470.24,-56.67 1465.56,-56.32 1461,-56 1152.26,-34.42 784.46,-19.73 623.83,-13.86"/>
<polygon fill="midnightblue" stroke="midnightblue" points="623.68,-10.35 613.56,-13.49 623.42,-17.35 623.68,-10.35"/>
</g>
<!-- Node14&#45;&gt;Node15 -->
<g id="edge23" class="edge">
<title>Node14&#45;&gt;Node15</title>
<path fill="none" stroke="midnightblue" d="M1569,-56.32C1577.19,-48.42 1589.51,-36.55 1599.47,-26.94"/>
<polygon fill="midnightblue" stroke="midnightblue" points="1602.07,-29.29 1606.84,-19.83 1597.21,-24.26 1602.07,-29.29"/>
</g>
<!-- Node17&#45;&gt;Node2 -->
<g id="edge28" class="edge">
<title>Node17&#45;&gt;Node2</title>
<path fill="none" stroke="midnightblue" d="M589.21,-336.46C542,-329.05 483.72,-316.85 466,-300 444.19,-279.26 447,-265.1 447,-235 447,-235 447,-235 447,-121 447,-77.74 489.61,-43.09 517.75,-24.91"/>
<polygon fill="midnightblue" stroke="midnightblue" points="519.66,-27.85 526.31,-19.6 515.97,-21.9 519.66,-27.85"/>
</g>
<!-- Node17&#45;&gt;Node9 -->
<g id="edge41" class="edge">
<title>Node17&#45;&gt;Node9</title>
<path fill="none" stroke="midnightblue" d="M660.13,-355.75C661.66,-362.86 662.1,-373.14 661.47,-382.1"/>
<polygon fill="midnightblue" stroke="midnightblue" points="657.99,-381.71 660.17,-392.08 664.93,-382.62 657.99,-381.71"/>
</g>
<!-- Node17&#45;&gt;Node11 -->
<g id="edge29" class="edge">
<title>Node17&#45;&gt;Node11</title>
<path fill="none" stroke="midnightblue" d="M706.43,-336.48C766.44,-324.42 866.21,-297.6 935,-244 990.82,-200.51 972.25,-160.25 1024,-112 1038.2,-98.76 1056.99,-87.77 1072.56,-79.97"/>
<polygon fill="midnightblue" stroke="midnightblue" points="1074.29,-83.02 1081.78,-75.53 1071.25,-76.72 1074.29,-83.02"/>
</g>
<!-- Node18 -->
<g id="node18" class="node">
<title>Node18</title>
<g id="a_node18"><a xlink:href="../../db/d02/Settings_8hpp.html" target="_top" xlink:title="All user settings and debugging options can be changed here.">
<polygon fill="white" stroke="black" points="475.5,-280.5 475.5,-299.5 552.5,-299.5 552.5,-280.5 475.5,-280.5"/>
<text text-anchor="middle" x="514" y="-287.5" font-family="Helvetica,sans-Serif" font-size="10.00">Settings.hpp</text>
</a>
</g>
</g>
<!-- Node17&#45;&gt;Node18 -->
<g id="edge30" class="edge">
<title>Node17&#45;&gt;Node18</title>
<path fill="none" stroke="midnightblue" d="M632.66,-336.44C609.25,-327.48 572.26,-313.31 545.81,-303.18"/>
<polygon fill="midnightblue" stroke="midnightblue" points="546.83,-299.82 536.24,-299.52 544.32,-306.36 546.83,-299.82"/>
</g>
<!-- Node24 -->
<g id="node24" class="node">
<title>Node24</title>
<g id="a_node24"><a xlink:href="../../d9/d98/TeensyUSBTypes_8hpp.html" target="_top" xlink:title=" ">
<polygon fill="white" stroke="black" points="570.5,-280.5 570.5,-299.5 743.5,-299.5 743.5,-280.5 570.5,-280.5"/>
<text text-anchor="middle" x="657" y="-287.5" font-family="Helvetica,sans-Serif" font-size="10.00">AH/Teensy/TeensyUSBTypes.hpp</text>
</a>
</g>
</g>
<!-- Node17&#45;&gt;Node24 -->
<g id="edge40" class="edge">
<title>Node17&#45;&gt;Node24</title>
<path fill="none" stroke="midnightblue" d="M655.33,-336.08C655.59,-329.01 655.97,-318.86 656.3,-309.99"/>
<polygon fill="midnightblue" stroke="midnightblue" points="659.8,-309.87 656.68,-299.75 652.81,-309.61 659.8,-309.87"/>
</g>
<!-- Node19 -->
<g id="node19" class="node">
<title>Node19</title>
<g id="a_node19"><a xlink:href="../../dc/d50/Frequency_8hpp.html" target="_top" xlink:title=" ">
<polygon fill="white" stroke="black" points="475,-112.5 475,-131.5 609,-131.5 609,-112.5 475,-112.5"/>
<text text-anchor="middle" x="542" y="-119.5" font-family="Helvetica,sans-Serif" font-size="10.00">AH/Types/Frequency.hpp</text>
</a>
</g>
</g>
<!-- Node18&#45;&gt;Node19 -->
<g id="edge31" class="edge">
<title>Node18&#45;&gt;Node19</title>
<path fill="none" stroke="midnightblue" d="M510.77,-280.14C506.62,-267.61 500.36,-244 504,-224 509.54,-193.55 523.75,-160.34 533.14,-140.61"/>
<polygon fill="midnightblue" stroke="midnightblue" points="536.29,-142.13 537.54,-131.61 530,-139.06 536.29,-142.13"/>
</g>
<!-- Node20 -->
<g id="node20" class="node">
<title>Node20</title>
<g id="a_node20"><a xlink:href="../../d7/d7c/ADCConfig_8hpp.html" target="_top" xlink:title="This file contains the platform&#45;specific ADC resolutions.">
<polygon fill="white" stroke="black" points="623.5,-224.5 623.5,-243.5 780.5,-243.5 780.5,-224.5 623.5,-224.5"/>
<text text-anchor="middle" x="702" y="-231.5" font-family="Helvetica,sans-Serif" font-size="10.00">AH/Hardware/ADCConfig.hpp</text>
</a>
</g>
</g>
<!-- Node18&#45;&gt;Node20 -->
<g id="edge34" class="edge">
<title>Node18&#45;&gt;Node20</title>
<path fill="none" stroke="midnightblue" d="M543.79,-280.44C575.83,-271.24 626.93,-256.56 662.35,-246.39"/>
<polygon fill="midnightblue" stroke="midnightblue" points="663.71,-249.64 672.35,-243.52 661.77,-242.91 663.71,-249.64"/>
</g>
<!-- Node21 -->
<g id="node21" class="node">
<title>Node21</title>
<g id="a_node21"><a xlink:title=" ">
<polygon fill="white" stroke="#bfbfbf" points="513.5,-224.5 513.5,-243.5 566.5,-243.5 566.5,-224.5 513.5,-224.5"/>
<text text-anchor="middle" x="540" y="-231.5" font-family="Helvetica,sans-Serif" font-size="10.00">limits.h</text>
</a>
</g>
</g>
<!-- Node18&#45;&gt;Node21 -->
<g id="edge37" class="edge">
<title>Node18&#45;&gt;Node21</title>
<path fill="none" stroke="midnightblue" d="M518.29,-280.08C521.85,-272.69 527.02,-261.95 531.42,-252.81"/>
<polygon fill="midnightblue" stroke="midnightblue" points="534.6,-254.28 535.79,-243.75 528.29,-251.24 534.6,-254.28"/>
</g>
<!-- Node18&#45;&gt;Node22 -->
<g id="edge38" class="edge">
<title>Node18&#45;&gt;Node22</title>
<path fill="none" stroke="midnightblue" d="M552.71,-281.48C555.51,-280.97 558.3,-280.47 561,-280 662.06,-262.35 688.35,-263.84 789,-244 789.1,-243.98 789.2,-243.96 789.3,-243.94"/>
<polygon fill="midnightblue" stroke="midnightblue" points="789.77,-247.42 798.83,-241.92 788.32,-240.57 789.77,-247.42"/>
</g>
<!-- Node18&#45;&gt;Node23 -->
<g id="edge39" class="edge">
<title>Node18&#45;&gt;Node23</title>
<path fill="none" stroke="midnightblue" d="M552.69,-281.37C555.5,-280.88 558.29,-280.42 561,-280 691.87,-259.72 728.89,-268.08 863.48,-243.86"/>
<polygon fill="midnightblue" stroke="midnightblue" points="864.14,-247.3 873.35,-242.06 862.88,-240.42 864.14,-247.3"/>
</g>
<!-- Node19&#45;&gt;Node2 -->
<g id="edge32" class="edge">
<title>Node19&#45;&gt;Node2</title>
<path fill="none" stroke="midnightblue" d="M542,-112.37C542,-94.62 542,-53.67 542,-29.6"/>
<polygon fill="midnightblue" stroke="midnightblue" points="545.5,-29.59 542,-19.59 538.5,-29.59 545.5,-29.59"/>
</g>
<!-- Node19&#45;&gt;Node11 -->
<g id="edge33" class="edge">
<title>Node19&#45;&gt;Node11</title>
<path fill="none" stroke="midnightblue" d="M609.27,-114.51C707.3,-105.06 890.03,-87.44 1003.31,-76.52"/>
<polygon fill="midnightblue" stroke="midnightblue" points="1003.75,-79.99 1013.37,-75.55 1003.08,-73.02 1003.75,-79.99"/>
</g>
<!-- Node20&#45;&gt;Node2 -->
<g id="edge35" class="edge">
<title>Node20&#45;&gt;Node2</title>
<path fill="none" stroke="midnightblue" d="M702.02,-224.39C701.61,-196.42 696.63,-107 651,-56 636.51,-39.81 615.3,-29.31 595.43,-22.56"/>
<polygon fill="midnightblue" stroke="midnightblue" points="596.41,-19.2 585.82,-19.54 594.32,-25.88 596.41,-19.2"/>
</g>
<!-- Node20&#45;&gt;Node12 -->
<g id="edge36" class="edge">
<title>Node20&#45;&gt;Node12</title>
<path fill="none" stroke="midnightblue" d="M776.06,-224.47C864.45,-214.3 1011.27,-197.39 1098.83,-187.31"/>
<polygon fill="midnightblue" stroke="midnightblue" points="1099.41,-190.77 1108.94,-186.15 1098.61,-183.81 1099.41,-190.77"/>
</g>
<!-- Node27&#45;&gt;Node2 -->
<g id="edge52" class="edge">
<title>Node27&#45;&gt;Node2</title>
<path fill="none" stroke="midnightblue" d="M237.26,-112.3C252.85,-98.18 285.88,-70.38 319,-56 363.7,-36.59 417.12,-25.44 460.46,-19.09"/>
<polygon fill="midnightblue" stroke="midnightblue" points="460.98,-22.55 470.4,-17.69 460.01,-15.62 460.98,-22.55"/>
</g>
<!-- Node27&#45;&gt;Node11 -->
<g id="edge53" class="edge">
<title>Node27&#45;&gt;Node11</title>
<path fill="none" stroke="midnightblue" d="M304.8,-116.26C460.78,-106.62 815.06,-84.73 994.12,-73.67"/>
<polygon fill="midnightblue" stroke="midnightblue" points="994.58,-77.14 1004.35,-73.03 994.15,-70.16 994.58,-77.14"/>
</g>
<!-- Node28 -->
<g id="node28" class="node">
<title>Node28</title>
<g id="a_node28"><a xlink:title=" ">
<polygon fill="white" stroke="#bfbfbf" points="79,-56.5 79,-75.5 169,-75.5 169,-56.5 79,-56.5"/>
<text text-anchor="middle" x="124" y="-63.5" font-family="Helvetica,sans-Serif" font-size="10.00">AH/STL/cstddef</text>
</a>
</g>
</g>
<!-- Node27&#45;&gt;Node28 -->
<g id="edge50" class="edge">
<title>Node27&#45;&gt;Node28</title>
<path fill="none" stroke="midnightblue" d="M211.29,-112.32C194.69,-103.7 169,-90.36 149.78,-80.39"/>
<polygon fill="midnightblue" stroke="midnightblue" points="151.16,-77.16 140.67,-75.65 147.93,-83.37 151.16,-77.16"/>
</g>
<!-- Node29 -->
<g id="node29" class="node">
<title>Node29</title>
<g id="a_node29"><a xlink:title=" ">
<polygon fill="white" stroke="#bfbfbf" points="187.5,-56.5 187.5,-75.5 266.5,-75.5 266.5,-56.5 187.5,-56.5"/>
<text text-anchor="middle" x="227" y="-63.5" font-family="Helvetica,sans-Serif" font-size="10.00">AH/STL/tuple</text>
</a>
</g>
</g>
<!-- Node27&#45;&gt;Node29 -->
<g id="edge51" class="edge">
<title>Node27&#45;&gt;Node29</title>
<path fill="none" stroke="midnightblue" d="M227.83,-112.08C227.7,-105.01 227.52,-94.86 227.35,-85.99"/>
<polygon fill="midnightblue" stroke="midnightblue" points="230.85,-85.68 227.16,-75.75 223.85,-85.81 230.85,-85.68"/>
</g>
</g>
</svg>
