<?xml version="1.0" encoding="UTF-8" standalone="no"?>
<!DOCTYPE svg PUBLIC "-//W3C//DTD SVG 1.1//EN"
 "http://www.w3.org/Graphics/SVG/1.1/DTD/svg11.dtd">
<!-- Generated by graphviz version 2.43.0 (0)
 -->
<!-- Title: PrintStream.hpp Pages: 1 -->
<svg width="2010pt" height="644pt"
 viewBox="0.00 0.00 2010.00 644.00" xmlns="http://www.w3.org/2000/svg" xmlns:xlink="http://www.w3.org/1999/xlink">
<g id="graph0" class="graph" transform="scale(1 1) rotate(0) translate(4 640)">
<title>PrintStream.hpp</title>
<polygon fill="white" stroke="transparent" points="-4,4 -4,-640 2006,-640 2006,4 -4,4"/>
<!-- Node1 -->
<g id="node1" class="node">
<title>Node1</title>
<g id="a_node1"><a xlink:title=" ">
<polygon fill="#bfbfbf" stroke="black" points="1216.5,-616.5 1216.5,-635.5 1311.5,-635.5 1311.5,-616.5 1216.5,-616.5"/>
<text text-anchor="middle" x="1264" y="-623.5" font-family="Helvetica,sans-Serif" font-size="10.00">PrintStream.hpp</text>
</a>
</g>
</g>
<!-- Node2 -->
<g id="node2" class="node">
<title>Node2</title>
<g id="a_node2"><a xlink:href="../../d5/db6/ArrayHelpers_8hpp.html" target="_top" xlink:title=" ">
<polygon fill="white" stroke="black" points="1191.5,-392.5 1191.5,-411.5 1292.5,-411.5 1292.5,-392.5 1191.5,-392.5"/>
<text text-anchor="middle" x="1242" y="-399.5" font-family="Helvetica,sans-Serif" font-size="10.00">ArrayHelpers.hpp</text>
</a>
</g>
</g>
<!-- Node1&#45;&gt;Node2 -->
<g id="edge1" class="edge">
<title>Node1&#45;&gt;Node2</title>
<path fill="none" stroke="midnightblue" d="M1237.33,-611.22C1225.75,-603.7 1213.4,-593.2 1207,-580 1181.42,-527.21 1187.96,-503.49 1207,-448 1212.01,-433.4 1223.91,-419.88 1232.44,-411.55"/>
<polygon fill="midnightblue" stroke="midnightblue" points="1235.55,-614.23 1245.92,-616.39 1239.16,-608.23 1235.55,-614.23"/>
</g>
<!-- Node14 -->
<g id="node14" class="node">
<title>Node14</title>
<g id="a_node14"><a xlink:href="../../df/dee/Debug_8hpp.html" target="_top" xlink:title=" ">
<polygon fill="white" stroke="black" points="1022.5,-560.5 1022.5,-579.5 1091.5,-579.5 1091.5,-560.5 1022.5,-560.5"/>
<text text-anchor="middle" x="1057" y="-567.5" font-family="Helvetica,sans-Serif" font-size="10.00">Debug.hpp</text>
</a>
</g>
</g>
<!-- Node1&#45;&gt;Node14 -->
<g id="edge17" class="edge">
<title>Node1&#45;&gt;Node14</title>
<path fill="none" stroke="midnightblue" d="M1221.18,-613.83C1182.09,-603.63 1125.17,-588.78 1089.65,-579.52"/>
<polygon fill="midnightblue" stroke="midnightblue" points="1220.64,-617.31 1231.2,-616.44 1222.41,-610.53 1220.64,-617.31"/>
</g>
<!-- Node48 -->
<g id="node48" class="node">
<title>Node48</title>
<g id="a_node48"><a xlink:href="../../da/d69/PrintStream_8cpp.html" target="_top" xlink:title=" ">
<polygon fill="white" stroke="black" points="1216.5,-560.5 1216.5,-579.5 1311.5,-579.5 1311.5,-560.5 1216.5,-560.5"/>
<text text-anchor="middle" x="1264" y="-567.5" font-family="Helvetica,sans-Serif" font-size="10.00">PrintStream.cpp</text>
</a>
</g>
</g>
<!-- Node1&#45;&gt;Node48 -->
<g id="edge79" class="edge">
<title>Node1&#45;&gt;Node48</title>
<path fill="none" stroke="midnightblue" d="M1264,-605.8C1264,-596.91 1264,-586.78 1264,-579.75"/>
<polygon fill="midnightblue" stroke="midnightblue" points="1260.5,-606.08 1264,-616.08 1267.5,-606.08 1260.5,-606.08"/>
</g>
<!-- Node49 -->
<g id="node49" class="node">
<title>Node49</title>
<g id="a_node49"><a xlink:href="../../d4/d11/Quaternion_8cpp.html" target="_top" xlink:title=" ">
<polygon fill="white" stroke="black" points="1329.5,-560.5 1329.5,-579.5 1420.5,-579.5 1420.5,-560.5 1329.5,-560.5"/>
<text text-anchor="middle" x="1375" y="-567.5" font-family="Helvetica,sans-Serif" font-size="10.00">Quaternion.cpp</text>
</a>
</g>
</g>
<!-- Node1&#45;&gt;Node49 -->
<g id="edge80" class="edge">
<title>Node1&#45;&gt;Node49</title>
<path fill="none" stroke="midnightblue" d="M1291.01,-611.86C1311.59,-601.85 1339.34,-588.35 1357.21,-579.65"/>
<polygon fill="midnightblue" stroke="midnightblue" points="1289.3,-608.8 1281.83,-616.32 1292.36,-615.1 1289.3,-608.8"/>
</g>
<!-- Node50 -->
<g id="node50" class="node">
<title>Node50</title>
<g id="a_node50"><a xlink:href="../../dd/d4e/Vector_8cpp.html" target="_top" xlink:title=" ">
<polygon fill="white" stroke="black" points="1438.5,-560.5 1438.5,-579.5 1505.5,-579.5 1505.5,-560.5 1438.5,-560.5"/>
<text text-anchor="middle" x="1472" y="-567.5" font-family="Helvetica,sans-Serif" font-size="10.00">Vector.cpp</text>
</a>
</g>
</g>
<!-- Node1&#45;&gt;Node50 -->
<g id="edge81" class="edge">
<title>Node1&#45;&gt;Node50</title>
<path fill="none" stroke="midnightblue" d="M1306.78,-613.89C1346.06,-603.7 1403.43,-588.8 1439.2,-579.52"/>
<polygon fill="midnightblue" stroke="midnightblue" points="1305.76,-610.54 1296.96,-616.44 1307.52,-617.32 1305.76,-610.54"/>
</g>
<!-- Node3 -->
<g id="node3" class="node">
<title>Node3</title>
<g id="a_node3"><a xlink:href="../../d2/d05/StaticSizeExtendedIOElement_8hpp.html" target="_top" xlink:title=" ">
<polygon fill="white" stroke="black" points="1350,-168.5 1350,-187.5 1532,-187.5 1532,-168.5 1350,-168.5"/>
<text text-anchor="middle" x="1441" y="-175.5" font-family="Helvetica,sans-Serif" font-size="10.00">StaticSizeExtendedIOElement.hpp</text>
</a>
</g>
</g>
<!-- Node2&#45;&gt;Node3 -->
<g id="edge2" class="edge">
<title>Node2&#45;&gt;Node3</title>
<path fill="none" stroke="midnightblue" d="M1242.63,-382.16C1244.86,-346.32 1254.82,-267.98 1299,-224 1318.25,-204.84 1345.59,-193.83 1371.16,-187.51"/>
<polygon fill="midnightblue" stroke="midnightblue" points="1239.13,-382.05 1242.15,-392.21 1246.12,-382.39 1239.13,-382.05"/>
</g>
<!-- Node4 -->
<g id="node4" class="node">
<title>Node4</title>
<g id="a_node4"><a xlink:href="../../d7/def/AnalogMultiplex_8hpp.html" target="_top" xlink:title=" ">
<polygon fill="white" stroke="black" points="773.5,-112.5 773.5,-131.5 890.5,-131.5 890.5,-112.5 773.5,-112.5"/>
<text text-anchor="middle" x="832" y="-119.5" font-family="Helvetica,sans-Serif" font-size="10.00">AnalogMultiplex.hpp</text>
</a>
</g>
</g>
<!-- Node3&#45;&gt;Node4 -->
<g id="edge3" class="edge">
<title>Node3&#45;&gt;Node4</title>
<path fill="none" stroke="midnightblue" d="M1339.76,-170.13C1230.77,-162.38 1052.38,-148.66 899,-132 896.32,-131.71 893.57,-131.4 890.81,-131.07"/>
<polygon fill="midnightblue" stroke="midnightblue" points="1339.54,-173.63 1349.76,-170.84 1340.03,-166.65 1339.54,-173.63"/>
</g>
<!-- Node5 -->
<g id="node5" class="node">
<title>Node5</title>
<g id="a_node5"><a xlink:href="../../d2/d25/MAX7219_8hpp.html" target="_top" xlink:title=" ">
<polygon fill="white" stroke="black" points="1399,-112.5 1399,-131.5 1483,-131.5 1483,-112.5 1399,-112.5"/>
<text text-anchor="middle" x="1441" y="-119.5" font-family="Helvetica,sans-Serif" font-size="10.00">MAX7219.hpp</text>
</a>
</g>
</g>
<!-- Node3&#45;&gt;Node5 -->
<g id="edge4" class="edge">
<title>Node3&#45;&gt;Node5</title>
<path fill="none" stroke="midnightblue" d="M1441,-157.8C1441,-148.91 1441,-138.78 1441,-131.75"/>
<polygon fill="midnightblue" stroke="midnightblue" points="1437.5,-158.08 1441,-168.08 1444.5,-158.08 1437.5,-158.08"/>
</g>
<!-- Node6 -->
<g id="node6" class="node">
<title>Node6</title>
<g id="a_node6"><a xlink:href="../../d7/dca/MCP23017_8hpp.html" target="_top" xlink:title=" ">
<polygon fill="white" stroke="black" points="1853.5,-112.5 1853.5,-131.5 1942.5,-131.5 1942.5,-112.5 1853.5,-112.5"/>
<text text-anchor="middle" x="1898" y="-119.5" font-family="Helvetica,sans-Serif" font-size="10.00">MCP23017.hpp</text>
</a>
</g>
</g>
<!-- Node3&#45;&gt;Node6 -->
<g id="edge5" class="edge">
<title>Node3&#45;&gt;Node6</title>
<path fill="none" stroke="midnightblue" d="M1523.19,-167.29C1619.82,-155.87 1776.7,-137.33 1853.2,-128.29"/>
<polygon fill="midnightblue" stroke="midnightblue" points="1522.68,-163.82 1513.16,-168.47 1523.5,-170.78 1522.68,-163.82"/>
</g>
<!-- Node8 -->
<g id="node8" class="node">
<title>Node8</title>
<g id="a_node8"><a xlink:href="../../d8/d93/ShiftRegisterOutBase_8hpp.html" target="_top" xlink:title=" ">
<polygon fill="white" stroke="black" points="908.5,-112.5 908.5,-131.5 1049.5,-131.5 1049.5,-112.5 908.5,-112.5"/>
<text text-anchor="middle" x="979" y="-119.5" font-family="Helvetica,sans-Serif" font-size="10.00">ShiftRegisterOutBase.hpp</text>
</a>
</g>
</g>
<!-- Node3&#45;&gt;Node8 -->
<g id="edge8" class="edge">
<title>Node3&#45;&gt;Node8</title>
<path fill="none" stroke="midnightblue" d="M1358.11,-167.31C1270.16,-157.03 1132.67,-140.96 1049.67,-131.26"/>
<polygon fill="midnightblue" stroke="midnightblue" points="1357.71,-170.79 1368.05,-168.47 1358.52,-163.84 1357.71,-170.79"/>
</g>
<!-- Node7 -->
<g id="node7" class="node">
<title>Node7</title>
<g id="a_node7"><a xlink:href="../../d2/d94/MCP23017_8ipp.html" target="_top" xlink:title=" ">
<polygon fill="white" stroke="black" points="1855,-56.5 1855,-75.5 1941,-75.5 1941,-56.5 1855,-56.5"/>
<text text-anchor="middle" x="1898" y="-63.5" font-family="Helvetica,sans-Serif" font-size="10.00">MCP23017.ipp</text>
</a>
</g>
</g>
<!-- Node6&#45;&gt;Node7 -->
<g id="edge6" class="edge">
<title>Node6&#45;&gt;Node7</title>
<path fill="none" stroke="midnightblue" d="M1891.53,-102.1C1890.9,-93.14 1891.34,-82.86 1892.87,-75.75"/>
<polygon fill="midnightblue" stroke="midnightblue" points="1888.07,-102.62 1892.83,-112.08 1895.01,-101.71 1888.07,-102.62"/>
</g>
<!-- Node7&#45;&gt;Node6 -->
<g id="edge7" class="edge">
<title>Node7&#45;&gt;Node6</title>
<path fill="none" stroke="midnightblue" d="M1904.46,-85.69C1905.11,-94.64 1904.68,-104.93 1903.17,-112.08"/>
<polygon fill="midnightblue" stroke="midnightblue" points="1907.92,-85.2 1903.13,-75.75 1900.98,-86.13 1907.92,-85.2"/>
</g>
<!-- Node9 -->
<g id="node9" class="node">
<title>Node9</title>
<g id="a_node9"><a xlink:href="../../d7/d88/SPIShiftRegisterOut_8hpp.html" target="_top" xlink:title=" ">
<polygon fill="white" stroke="black" points="782,-56.5 782,-75.5 914,-75.5 914,-56.5 782,-56.5"/>
<text text-anchor="middle" x="848" y="-63.5" font-family="Helvetica,sans-Serif" font-size="10.00">SPIShiftRegisterOut.hpp</text>
</a>
</g>
</g>
<!-- Node8&#45;&gt;Node9 -->
<g id="edge9" class="edge">
<title>Node8&#45;&gt;Node9</title>
<path fill="none" stroke="midnightblue" d="M948.68,-108.5C924.12,-98.38 890.18,-84.39 868.66,-75.52"/>
<polygon fill="midnightblue" stroke="midnightblue" points="947.66,-111.87 958.24,-112.44 950.33,-105.4 947.66,-111.87"/>
</g>
<!-- Node11 -->
<g id="node11" class="node">
<title>Node11</title>
<g id="a_node11"><a xlink:href="../../d0/db4/ShiftRegisterOut_8hpp.html" target="_top" xlink:title=" ">
<polygon fill="white" stroke="black" points="932.5,-56.5 932.5,-75.5 1049.5,-75.5 1049.5,-56.5 932.5,-56.5"/>
<text text-anchor="middle" x="991" y="-63.5" font-family="Helvetica,sans-Serif" font-size="10.00">ShiftRegisterOut.hpp</text>
</a>
</g>
</g>
<!-- Node8&#45;&gt;Node11 -->
<g id="edge12" class="edge">
<title>Node8&#45;&gt;Node11</title>
<path fill="none" stroke="midnightblue" d="M983.2,-102.1C985.19,-93.14 987.48,-82.86 989.06,-75.75"/>
<polygon fill="midnightblue" stroke="midnightblue" points="979.73,-101.56 980.98,-112.08 986.57,-103.08 979.73,-101.56"/>
</g>
<!-- Node13 -->
<g id="node13" class="node">
<title>Node13</title>
<g id="a_node13"><a xlink:href="../../d5/d47/ShiftRegisterOutBase_8ipp.html" target="_top" xlink:title=" ">
<polygon fill="white" stroke="black" points="626,-56.5 626,-75.5 764,-75.5 764,-56.5 626,-56.5"/>
<text text-anchor="middle" x="695" y="-63.5" font-family="Helvetica,sans-Serif" font-size="10.00">ShiftRegisterOutBase.ipp</text>
</a>
</g>
</g>
<!-- Node8&#45;&gt;Node13 -->
<g id="edge15" class="edge">
<title>Node8&#45;&gt;Node13</title>
<path fill="none" stroke="midnightblue" d="M918.85,-110.6C863.34,-100.4 782.59,-85.02 734.71,-75.52"/>
<polygon fill="midnightblue" stroke="midnightblue" points="918.44,-114.08 928.91,-112.44 919.71,-107.2 918.44,-114.08"/>
</g>
<!-- Node10 -->
<g id="node10" class="node">
<title>Node10</title>
<g id="a_node10"><a xlink:href="../../da/d45/SPIShiftRegisterOut_8ipp.html" target="_top" xlink:title=" ">
<polygon fill="white" stroke="black" points="783.5,-0.5 783.5,-19.5 912.5,-19.5 912.5,-0.5 783.5,-0.5"/>
<text text-anchor="middle" x="848" y="-7.5" font-family="Helvetica,sans-Serif" font-size="10.00">SPIShiftRegisterOut.ipp</text>
</a>
</g>
</g>
<!-- Node9&#45;&gt;Node10 -->
<g id="edge10" class="edge">
<title>Node9&#45;&gt;Node10</title>
<path fill="none" stroke="midnightblue" d="M841.53,-46.1C840.9,-37.14 841.34,-26.86 842.87,-19.75"/>
<polygon fill="midnightblue" stroke="midnightblue" points="838.07,-46.62 842.83,-56.08 845.01,-45.71 838.07,-46.62"/>
</g>
<!-- Node10&#45;&gt;Node9 -->
<g id="edge11" class="edge">
<title>Node10&#45;&gt;Node9</title>
<path fill="none" stroke="midnightblue" d="M854.46,-29.69C855.11,-38.64 854.68,-48.93 853.17,-56.08"/>
<polygon fill="midnightblue" stroke="midnightblue" points="857.92,-29.2 853.13,-19.75 850.98,-30.13 857.92,-29.2"/>
</g>
<!-- Node12 -->
<g id="node12" class="node">
<title>Node12</title>
<g id="a_node12"><a xlink:href="../../de/d95/ShiftRegisterOut_8ipp.html" target="_top" xlink:title=" ">
<polygon fill="white" stroke="black" points="934,-0.5 934,-19.5 1048,-19.5 1048,-0.5 934,-0.5"/>
<text text-anchor="middle" x="991" y="-7.5" font-family="Helvetica,sans-Serif" font-size="10.00">ShiftRegisterOut.ipp</text>
</a>
</g>
</g>
<!-- Node11&#45;&gt;Node12 -->
<g id="edge13" class="edge">
<title>Node11&#45;&gt;Node12</title>
<path fill="none" stroke="midnightblue" d="M984.53,-46.1C983.9,-37.14 984.34,-26.86 985.87,-19.75"/>
<polygon fill="midnightblue" stroke="midnightblue" points="981.07,-46.62 985.83,-56.08 988.01,-45.71 981.07,-46.62"/>
</g>
<!-- Node12&#45;&gt;Node11 -->
<g id="edge14" class="edge">
<title>Node12&#45;&gt;Node11</title>
<path fill="none" stroke="midnightblue" d="M997.46,-29.69C998.11,-38.64 997.68,-48.93 996.17,-56.08"/>
<polygon fill="midnightblue" stroke="midnightblue" points="1000.92,-29.2 996.13,-19.75 993.98,-30.13 1000.92,-29.2"/>
</g>
<!-- Node13&#45;&gt;Node8 -->
<g id="edge16" class="edge">
<title>Node13&#45;&gt;Node8</title>
<path fill="none" stroke="midnightblue" d="M754.91,-77.36C810.36,-87.55 891.11,-102.92 939.09,-112.44"/>
<polygon fill="midnightblue" stroke="midnightblue" points="755.34,-73.88 744.87,-75.52 754.08,-80.76 755.34,-73.88"/>
</g>
<!-- Node15 -->
<g id="node15" class="node">
<title>Node15</title>
<g id="a_node15"><a xlink:href="../../df/d66/Debug_8cpp.html" target="_top" xlink:title=" ">
<polygon fill="white" stroke="black" points="852,-504.5 852,-523.5 920,-523.5 920,-504.5 852,-504.5"/>
<text text-anchor="middle" x="886" y="-511.5" font-family="Helvetica,sans-Serif" font-size="10.00">Debug.cpp</text>
</a>
</g>
</g>
<!-- Node14&#45;&gt;Node15 -->
<g id="edge18" class="edge">
<title>Node14&#45;&gt;Node15</title>
<path fill="none" stroke="midnightblue" d="M1019.96,-557.3C987.74,-547.13 941.81,-532.62 912.97,-523.52"/>
<polygon fill="midnightblue" stroke="midnightblue" points="1019.31,-560.77 1029.9,-560.44 1021.42,-554.09 1019.31,-560.77"/>
</g>
<!-- Node16 -->
<g id="node16" class="node">
<title>Node16</title>
<g id="a_node16"><a xlink:href="../../d1/d93/Error_8hpp.html" target="_top" xlink:title=" ">
<polygon fill="white" stroke="black" points="1422,-504.5 1422,-523.5 1482,-523.5 1482,-504.5 1422,-504.5"/>
<text text-anchor="middle" x="1452" y="-511.5" font-family="Helvetica,sans-Serif" font-size="10.00">Error.hpp</text>
</a>
</g>
</g>
<!-- Node14&#45;&gt;Node16 -->
<g id="edge19" class="edge">
<title>Node14&#45;&gt;Node16</title>
<path fill="none" stroke="midnightblue" d="M1101.63,-562.9C1182.87,-551.79 1352.86,-528.55 1421.89,-519.12"/>
<polygon fill="midnightblue" stroke="midnightblue" points="1101.14,-559.43 1091.71,-564.26 1102.09,-566.37 1101.14,-559.43"/>
</g>
<!-- Node44 -->
<g id="node44" class="node">
<title>Node44</title>
<g id="a_node44"><a xlink:href="../../de/dd1/LinkedList_8hpp.html" target="_top" xlink:title=" ">
<polygon fill="white" stroke="black" points="1074,-504.5 1074,-523.5 1160,-523.5 1160,-504.5 1074,-504.5"/>
<text text-anchor="middle" x="1117" y="-511.5" font-family="Helvetica,sans-Serif" font-size="10.00">LinkedList.hpp</text>
</a>
</g>
</g>
<!-- Node14&#45;&gt;Node44 -->
<g id="edge69" class="edge">
<title>Node14&#45;&gt;Node44</title>
<path fill="none" stroke="midnightblue" d="M1074.18,-553.54C1084.88,-543.91 1098.26,-531.87 1107.18,-523.83"/>
<polygon fill="midnightblue" stroke="midnightblue" points="1071.73,-551.03 1066.64,-560.32 1076.41,-556.24 1071.73,-551.03"/>
</g>
<!-- Node45 -->
<g id="node45" class="node">
<title>Node45</title>
<g id="a_node45"><a xlink:href="../../d2/dd5/SettingsWrapper_8hpp.html" target="_top" xlink:title=" ">
<polygon fill="white" stroke="black" points="938,-504.5 938,-523.5 1056,-523.5 1056,-504.5 938,-504.5"/>
<text text-anchor="middle" x="997" y="-511.5" font-family="Helvetica,sans-Serif" font-size="10.00">SettingsWrapper.hpp</text>
</a>
</g>
</g>
<!-- Node14&#45;&gt;Node45 -->
<g id="edge71" class="edge">
<title>Node14&#45;&gt;Node45</title>
<path fill="none" stroke="midnightblue" d="M1034.34,-554.1C1022.44,-544.38 1009.03,-532.03 1001.67,-523.83"/>
<polygon fill="midnightblue" stroke="midnightblue" points="1032.22,-556.89 1042.25,-560.32 1036.55,-551.39 1032.22,-556.89"/>
</g>
<!-- Node17 -->
<g id="node17" class="node">
<title>Node17</title>
<g id="a_node17"><a xlink:href="../../de/d76/Array_8hpp.html" target="_top" xlink:title=" ">
<polygon fill="white" stroke="black" points="1216,-448.5 1216,-467.5 1278,-467.5 1278,-448.5 1216,-448.5"/>
<text text-anchor="middle" x="1247" y="-455.5" font-family="Helvetica,sans-Serif" font-size="10.00">Array.hpp</text>
</a>
</g>
</g>
<!-- Node16&#45;&gt;Node17 -->
<g id="edge20" class="edge">
<title>Node16&#45;&gt;Node17</title>
<path fill="none" stroke="midnightblue" d="M1411.99,-502.46C1372.78,-492.13 1313.84,-476.61 1278.04,-467.18"/>
<polygon fill="midnightblue" stroke="midnightblue" points="1411.19,-505.87 1421.75,-505.03 1412.97,-499.1 1411.19,-505.87"/>
</g>
<!-- Node31 -->
<g id="node31" class="node">
<title>Node31</title>
<g id="a_node31"><a xlink:href="../../da/d1f/ExtendedIOElement_8cpp.html" target="_top" xlink:title=" ">
<polygon fill="white" stroke="black" points="1708,-168.5 1708,-187.5 1842,-187.5 1842,-168.5 1708,-168.5"/>
<text text-anchor="middle" x="1775" y="-175.5" font-family="Helvetica,sans-Serif" font-size="10.00">ExtendedIOElement.cpp</text>
</a>
</g>
</g>
<!-- Node16&#45;&gt;Node31 -->
<g id="edge64" class="edge">
<title>Node16&#45;&gt;Node31</title>
<path fill="none" stroke="midnightblue" d="M1444.1,-494.51C1439.57,-481.01 1436.04,-462.61 1443,-448 1510.69,-306.04 1693.95,-214.72 1754.95,-187.53"/>
<polygon fill="midnightblue" stroke="midnightblue" points="1440.92,-496.01 1447.76,-504.11 1447.47,-493.52 1440.92,-496.01"/>
</g>
<!-- Node32 -->
<g id="node32" class="node">
<title>Node32</title>
<g id="a_node32"><a xlink:href="../../d6/d3c/ExtendedInputOutput_8cpp.html" target="_top" xlink:title=" ">
<polygon fill="white" stroke="black" points="1550,-168.5 1550,-187.5 1690,-187.5 1690,-168.5 1550,-168.5"/>
<text text-anchor="middle" x="1620" y="-175.5" font-family="Helvetica,sans-Serif" font-size="10.00">ExtendedInputOutput.cpp</text>
</a>
</g>
</g>
<!-- Node16&#45;&gt;Node32 -->
<g id="edge65" class="edge">
<title>Node16&#45;&gt;Node32</title>
<path fill="none" stroke="midnightblue" d="M1492.13,-511.33C1526.07,-507.79 1573.72,-497.44 1603,-468 1624.23,-446.66 1622,-433.1 1622,-403 1622,-403 1622,-403 1622,-289 1622,-251.18 1620.8,-206.06 1620.26,-187.56"/>
<polygon fill="midnightblue" stroke="midnightblue" points="1491.73,-507.86 1482.08,-512.23 1492.35,-514.83 1491.73,-507.86"/>
</g>
<!-- Node40 -->
<g id="node40" class="node">
<title>Node40</title>
<g id="a_node40"><a xlink:href="../../d1/d40/BitArray_8hpp.html" target="_top" xlink:title=" ">
<polygon fill="white" stroke="black" points="1860,-168.5 1860,-187.5 1936,-187.5 1936,-168.5 1860,-168.5"/>
<text text-anchor="middle" x="1898" y="-175.5" font-family="Helvetica,sans-Serif" font-size="10.00">BitArray.hpp</text>
</a>
</g>
</g>
<!-- Node16&#45;&gt;Node40 -->
<g id="edge59" class="edge">
<title>Node16&#45;&gt;Node40</title>
<path fill="none" stroke="midnightblue" d="M1492.45,-513.51C1619.47,-514.02 2002,-506.95 2002,-403 2002,-403 2002,-403 2002,-289 2002,-239.59 1945.91,-203.43 1916.12,-187.7"/>
<polygon fill="midnightblue" stroke="midnightblue" points="1492.37,-510.01 1482.35,-513.45 1492.33,-517.01 1492.37,-510.01"/>
</g>
<!-- Node41 -->
<g id="node41" class="node">
<title>Node41</title>
<g id="a_node41"><a xlink:href="../../d6/df4/Exit_8cpp.html" target="_top" xlink:title=" ">
<polygon fill="white" stroke="black" points="1452,-448.5 1452,-467.5 1508,-467.5 1508,-448.5 1452,-448.5"/>
<text text-anchor="middle" x="1480" y="-455.5" font-family="Helvetica,sans-Serif" font-size="10.00">Exit.cpp</text>
</a>
</g>
</g>
<!-- Node16&#45;&gt;Node41 -->
<g id="edge63" class="edge">
<title>Node16&#45;&gt;Node41</title>
<path fill="none" stroke="midnightblue" d="M1461.34,-494.98C1466.09,-485.82 1471.66,-475.09 1475.46,-467.75"/>
<polygon fill="midnightblue" stroke="midnightblue" points="1458.12,-493.59 1456.62,-504.08 1464.33,-496.82 1458.12,-493.59"/>
</g>
<!-- Node42 -->
<g id="node42" class="node">
<title>Node42</title>
<g id="a_node42"><a xlink:href="../../d4/d93/Updatable_8hpp.html" target="_top" xlink:title=" ">
<polygon fill="white" stroke="black" points="1304,-448.5 1304,-467.5 1392,-467.5 1392,-448.5 1304,-448.5"/>
<text text-anchor="middle" x="1348" y="-455.5" font-family="Helvetica,sans-Serif" font-size="10.00">Updatable.hpp</text>
</a>
</g>
</g>
<!-- Node16&#45;&gt;Node42 -->
<g id="edge66" class="edge">
<title>Node16&#45;&gt;Node42</title>
<path fill="none" stroke="midnightblue" d="M1426.17,-499.59C1406.94,-489.61 1381.26,-476.27 1364.67,-467.65"/>
<polygon fill="midnightblue" stroke="midnightblue" points="1424.8,-502.82 1435.29,-504.32 1428.03,-496.61 1424.8,-502.82"/>
</g>
<!-- Node43 -->
<g id="node43" class="node">
<title>Node43</title>
<g id="a_node43"><a xlink:href="../../d4/d1b/vector_8cpp.html" target="_top" xlink:title=" ">
<polygon fill="white" stroke="black" points="1526.5,-448.5 1526.5,-467.5 1593.5,-467.5 1593.5,-448.5 1526.5,-448.5"/>
<text text-anchor="middle" x="1560" y="-455.5" font-family="Helvetica,sans-Serif" font-size="10.00">vector.cpp</text>
</a>
</g>
</g>
<!-- Node16&#45;&gt;Node43 -->
<g id="edge68" class="edge">
<title>Node16&#45;&gt;Node43</title>
<path fill="none" stroke="midnightblue" d="M1478.55,-499.73C1498.55,-489.73 1525.39,-476.31 1542.69,-467.65"/>
<polygon fill="midnightblue" stroke="midnightblue" points="1476.73,-496.72 1469.35,-504.32 1479.86,-502.98 1476.73,-496.72"/>
</g>
<!-- Node17&#45;&gt;Node2 -->
<g id="edge22" class="edge">
<title>Node17&#45;&gt;Node2</title>
<path fill="none" stroke="midnightblue" d="M1245.25,-438.1C1244.42,-429.14 1243.47,-418.86 1242.81,-411.75"/>
<polygon fill="midnightblue" stroke="midnightblue" points="1241.77,-438.45 1246.17,-448.08 1248.74,-437.8 1241.77,-438.45"/>
</g>
<!-- Node17&#45;&gt;Node4 -->
<g id="edge21" class="edge">
<title>Node17&#45;&gt;Node4</title>
<path fill="none" stroke="midnightblue" d="M1205.8,-449.85C1154.07,-438.24 1072,-409.91 1072,-347 1072,-347 1072,-347 1072,-233 1072,-194.58 1047.84,-187.95 1015,-168 992.63,-154.41 926.74,-140.23 880.47,-131.5"/>
<polygon fill="midnightblue" stroke="midnightblue" points="1205.2,-453.31 1215.71,-451.96 1206.66,-446.46 1205.2,-453.31"/>
</g>
<!-- Node18 -->
<g id="node18" class="node">
<title>Node18</title>
<g id="a_node18"><a xlink:href="../../d4/d35/Hardware-Types_8hpp.html" target="_top" xlink:title=" ">
<polygon fill="white" stroke="black" points="835,-392.5 835,-411.5 951,-411.5 951,-392.5 835,-392.5"/>
<text text-anchor="middle" x="893" y="-399.5" font-family="Helvetica,sans-Serif" font-size="10.00">Hardware&#45;Types.hpp</text>
</a>
</g>
</g>
<!-- Node17&#45;&gt;Node18 -->
<g id="edge23" class="edge">
<title>Node17&#45;&gt;Node18</title>
<path fill="none" stroke="midnightblue" d="M1205.85,-450.72C1142.34,-441.04 1020.33,-422.42 948.89,-411.53"/>
<polygon fill="midnightblue" stroke="midnightblue" points="1205.48,-454.21 1215.9,-452.26 1206.54,-447.29 1205.48,-454.21"/>
</g>
<!-- Node39 -->
<g id="node39" class="node">
<title>Node39</title>
<g id="a_node39"><a xlink:href="../../dd/ddf/RegisterEncoders_8hpp.html" target="_top" xlink:title=" ">
<polygon fill="white" stroke="black" points="1294,-336.5 1294,-355.5 1416,-355.5 1416,-336.5 1294,-336.5"/>
<text text-anchor="middle" x="1355" y="-343.5" font-family="Helvetica,sans-Serif" font-size="10.00">RegisterEncoders.hpp</text>
</a>
</g>
</g>
<!-- Node17&#45;&gt;Node39 -->
<g id="edge57" class="edge">
<title>Node17&#45;&gt;Node39</title>
<path fill="none" stroke="midnightblue" d="M1266.99,-442.22C1277.81,-433.84 1291.13,-422.89 1302,-412 1320.52,-393.45 1339.2,-368.85 1348.66,-355.88"/>
<polygon fill="midnightblue" stroke="midnightblue" points="1264.8,-439.49 1258.95,-448.33 1269.03,-445.06 1264.8,-439.49"/>
</g>
<!-- Node19 -->
<g id="node19" class="node">
<title>Node19</title>
<g id="a_node19"><a xlink:href="../../d2/d3c/Arduino-Hardware-Types_8hpp.html" target="_top" xlink:title=" ">
<polygon fill="white" stroke="black" points="814.5,-336.5 814.5,-355.5 971.5,-355.5 971.5,-336.5 814.5,-336.5"/>
<text text-anchor="middle" x="893" y="-343.5" font-family="Helvetica,sans-Serif" font-size="10.00">Arduino&#45;Hardware&#45;Types.hpp</text>
</a>
</g>
</g>
<!-- Node18&#45;&gt;Node19 -->
<g id="edge24" class="edge">
<title>Node18&#45;&gt;Node19</title>
<path fill="none" stroke="midnightblue" d="M893,-381.8C893,-372.91 893,-362.78 893,-355.75"/>
<polygon fill="midnightblue" stroke="midnightblue" points="889.5,-382.08 893,-392.08 896.5,-382.08 889.5,-382.08"/>
</g>
<!-- Node29 -->
<g id="node29" class="node">
<title>Node29</title>
<g id="a_node29"><a xlink:href="../../d9/d4b/ButtonMatrix_8hpp.html" target="_top" xlink:title=" ">
<polygon fill="white" stroke="black" points="640.5,-168.5 640.5,-187.5 741.5,-187.5 741.5,-168.5 640.5,-168.5"/>
<text text-anchor="middle" x="691" y="-175.5" font-family="Helvetica,sans-Serif" font-size="10.00">ButtonMatrix.hpp</text>
</a>
</g>
</g>
<!-- Node18&#45;&gt;Node29 -->
<g id="edge54" class="edge">
<title>Node18&#45;&gt;Node29</title>
<path fill="none" stroke="midnightblue" d="M851.54,-389.29C792.49,-370.07 686.62,-325.57 644,-244 632.59,-222.15 659.42,-199.44 677.07,-187.51"/>
<polygon fill="midnightblue" stroke="midnightblue" points="850.7,-392.69 861.29,-392.37 852.81,-386.02 850.7,-392.69"/>
</g>
<!-- Node30 -->
<g id="node30" class="node">
<title>Node30</title>
<g id="a_node30"><a xlink:href="../../d4/d57/ExtendedIOElement_8hpp.html" target="_top" xlink:title=" ">
<polygon fill="white" stroke="black" points="1460,-224.5 1460,-243.5 1594,-243.5 1594,-224.5 1460,-224.5"/>
<text text-anchor="middle" x="1527" y="-231.5" font-family="Helvetica,sans-Serif" font-size="10.00">ExtendedIOElement.hpp</text>
</a>
</g>
</g>
<!-- Node18&#45;&gt;Node30 -->
<g id="edge55" class="edge">
<title>Node18&#45;&gt;Node30</title>
<path fill="none" stroke="midnightblue" d="M961.54,-398.13C1095.99,-392.07 1384.78,-376.81 1425,-356 1450.75,-342.68 1503.34,-269.12 1521.04,-243.67"/>
<polygon fill="midnightblue" stroke="midnightblue" points="961.19,-394.64 951.35,-398.58 961.5,-401.63 961.19,-394.64"/>
</g>
<!-- Node33 -->
<g id="node33" class="node">
<title>Node33</title>
<g id="a_node33"><a xlink:href="../../d8/df3/FilteredAnalog_8hpp.html" target="_top" xlink:title=" ">
<polygon fill="white" stroke="black" points="489,-224.5 489,-243.5 597,-243.5 597,-224.5 489,-224.5"/>
<text text-anchor="middle" x="543" y="-231.5" font-family="Helvetica,sans-Serif" font-size="10.00">FilteredAnalog.hpp</text>
</a>
</g>
</g>
<!-- Node18&#45;&gt;Node33 -->
<g id="edge56" class="edge">
<title>Node18&#45;&gt;Node33</title>
<path fill="none" stroke="midnightblue" d="M824.64,-393.59C766.91,-386.26 689.66,-373.58 664,-356 631.04,-333.42 644.4,-308.09 616,-280 600.02,-264.19 577.49,-251.37 561.7,-243.52"/>
<polygon fill="midnightblue" stroke="midnightblue" points="824.45,-397.1 834.81,-394.86 825.32,-390.15 824.45,-397.1"/>
</g>
<!-- Node20 -->
<g id="node20" class="node">
<title>Node20</title>
<g id="a_node20"><a xlink:href="../../dd/ddf/ExtendedInputOutput_8hpp.html" target="_top" xlink:title=" ">
<polygon fill="white" stroke="black" points="822.5,-280.5 822.5,-299.5 963.5,-299.5 963.5,-280.5 822.5,-280.5"/>
<text text-anchor="middle" x="893" y="-287.5" font-family="Helvetica,sans-Serif" font-size="10.00">ExtendedInputOutput.hpp</text>
</a>
</g>
</g>
<!-- Node19&#45;&gt;Node20 -->
<g id="edge25" class="edge">
<title>Node19&#45;&gt;Node20</title>
<path fill="none" stroke="midnightblue" d="M893,-325.8C893,-316.91 893,-306.78 893,-299.75"/>
<polygon fill="midnightblue" stroke="midnightblue" points="889.5,-326.08 893,-336.08 896.5,-326.08 889.5,-326.08"/>
</g>
<!-- Node20&#45;&gt;Node4 -->
<g id="edge26" class="edge">
<title>Node20&#45;&gt;Node4</title>
<path fill="none" stroke="midnightblue" d="M869.72,-274.44C859.28,-266.68 847.81,-256.22 841,-244 820.18,-206.65 826.72,-152.45 830.32,-131.61"/>
<polygon fill="midnightblue" stroke="midnightblue" points="867.92,-277.44 878.12,-280.29 871.92,-271.7 867.92,-277.44"/>
</g>
<!-- Node20&#45;&gt;Node6 -->
<g id="edge48" class="edge">
<title>Node20&#45;&gt;Node6</title>
<path fill="none" stroke="midnightblue" d="M973.73,-287.56C1209.17,-282.52 1882.38,-261.71 1945,-188 1961.32,-168.79 1931.07,-144.25 1911.94,-131.52"/>
<polygon fill="midnightblue" stroke="midnightblue" points="973.45,-284.07 963.53,-287.78 973.6,-291.07 973.45,-284.07"/>
</g>
<!-- Node20&#45;&gt;Node8 -->
<g id="edge52" class="edge">
<title>Node20&#45;&gt;Node8</title>
<path fill="none" stroke="midnightblue" d="M881.29,-271.83C865.88,-246.88 843.17,-200.09 865,-168 878.05,-148.82 900.65,-137.82 922.31,-131.5"/>
<polygon fill="midnightblue" stroke="midnightblue" points="878.36,-273.74 886.73,-280.24 884.24,-269.94 878.36,-273.74"/>
</g>
<!-- Node20&#45;&gt;Node10 -->
<g id="edge50" class="edge">
<title>Node20&#45;&gt;Node10</title>
<path fill="none" stroke="midnightblue" d="M811.99,-287.45C592.02,-282.17 0,-260.4 0,-179 0,-179 0,-179 0,-121 0,-42.09 584.98,-18.38 783.22,-12.61"/>
<polygon fill="midnightblue" stroke="midnightblue" points="812.1,-290.95 822.18,-287.69 812.27,-283.95 812.1,-290.95"/>
</g>
<!-- Node20&#45;&gt;Node12 -->
<g id="edge51" class="edge">
<title>Node20&#45;&gt;Node12</title>
<path fill="none" stroke="midnightblue" d="M921.44,-275.93C937.02,-267.98 956.13,-256.89 971,-244 1018.63,-202.72 1037.73,-191.68 1058,-132 1068.86,-100.02 1073.89,-85.81 1058,-56 1048.71,-38.56 1029.33,-26.68 1013.79,-19.53"/>
<polygon fill="midnightblue" stroke="midnightblue" points="919.69,-272.89 912.27,-280.46 922.78,-279.17 919.69,-272.89"/>
</g>
<!-- Node20&#45;&gt;Node13 -->
<g id="edge53" class="edge">
<title>Node20&#45;&gt;Node13</title>
<path fill="none" stroke="midnightblue" d="M869.39,-274.92C856.69,-266.75 841.19,-255.77 829,-244 770.22,-187.25 716.9,-103.11 700.31,-75.86"/>
<polygon fill="midnightblue" stroke="midnightblue" points="867.71,-278 878.05,-280.34 871.43,-272.07 867.71,-278"/>
</g>
<!-- Node21 -->
<g id="node21" class="node">
<title>Node21</title>
<g id="a_node21"><a xlink:href="../../d4/db3/Button_8hpp.html" target="_top" xlink:title=" ">
<polygon fill="white" stroke="black" points="331,-224.5 331,-243.5 401,-243.5 401,-224.5 331,-224.5"/>
<text text-anchor="middle" x="366" y="-231.5" font-family="Helvetica,sans-Serif" font-size="10.00">Button.hpp</text>
</a>
</g>
</g>
<!-- Node20&#45;&gt;Node21 -->
<g id="edge27" class="edge">
<title>Node20&#45;&gt;Node21</title>
<path fill="none" stroke="midnightblue" d="M812.51,-280.75C695.74,-268.79 484.24,-247.12 401,-238.59"/>
<polygon fill="midnightblue" stroke="midnightblue" points="812.17,-284.24 822.47,-281.77 812.88,-277.27 812.17,-284.24"/>
</g>
<!-- Node28 -->
<g id="node28" class="node">
<title>Node28</title>
<g id="a_node28"><a xlink:href="../../d5/d41/ButtonMatrix_8ipp.html" target="_top" xlink:title=" ">
<polygon fill="white" stroke="black" points="653,-224.5 653,-243.5 751,-243.5 751,-224.5 653,-224.5"/>
<text text-anchor="middle" x="702" y="-231.5" font-family="Helvetica,sans-Serif" font-size="10.00">ButtonMatrix.ipp</text>
</a>
</g>
</g>
<!-- Node20&#45;&gt;Node28 -->
<g id="edge34" class="edge">
<title>Node20&#45;&gt;Node28</title>
<path fill="none" stroke="midnightblue" d="M853.03,-277.7C816.98,-267.51 764.76,-252.74 732.12,-243.52"/>
<polygon fill="midnightblue" stroke="midnightblue" points="852.16,-281.09 862.74,-280.44 854.06,-274.35 852.16,-281.09"/>
</g>
<!-- Node20&#45;&gt;Node30 -->
<g id="edge37" class="edge">
<title>Node20&#45;&gt;Node30</title>
<path fill="none" stroke="midnightblue" d="M973.77,-283.44C1082.37,-275.74 1281.42,-260.87 1451,-244 1453.91,-243.71 1456.88,-243.4 1459.88,-243.09"/>
<polygon fill="midnightblue" stroke="midnightblue" points="973.27,-279.96 963.54,-284.16 973.77,-286.95 973.27,-279.96"/>
</g>
<!-- Node20&#45;&gt;Node32 -->
<g id="edge41" class="edge">
<title>Node20&#45;&gt;Node32</title>
<path fill="none" stroke="midnightblue" d="M973.73,-280.65C1040.6,-273.1 1137.94,-260.6 1222,-244 1256.69,-237.15 1264.32,-230.91 1299,-224 1346.12,-214.61 1473.19,-197.73 1552.59,-187.52"/>
<polygon fill="midnightblue" stroke="midnightblue" points="973.22,-277.19 963.68,-281.78 974,-284.15 973.22,-277.19"/>
</g>
<!-- Node20&#45;&gt;Node33 -->
<g id="edge42" class="edge">
<title>Node20&#45;&gt;Node33</title>
<path fill="none" stroke="midnightblue" d="M827.58,-278.91C761.05,-268.64 659.16,-252.92 597.05,-243.34"/>
<polygon fill="midnightblue" stroke="midnightblue" points="827.12,-282.38 837.54,-280.44 828.19,-275.46 827.12,-282.38"/>
</g>
<!-- Node34 -->
<g id="node34" class="node">
<title>Node34</title>
<g id="a_node34"><a xlink:href="../../d9/d4f/LEDs_8hpp.html" target="_top" xlink:title=" ">
<polygon fill="white" stroke="black" points="900,-224.5 900,-243.5 962,-243.5 962,-224.5 900,-224.5"/>
<text text-anchor="middle" x="931" y="-231.5" font-family="Helvetica,sans-Serif" font-size="10.00">LEDs.hpp</text>
</a>
</g>
</g>
<!-- Node20&#45;&gt;Node34 -->
<g id="edge43" class="edge">
<title>Node20&#45;&gt;Node34</title>
<path fill="none" stroke="midnightblue" d="M905.06,-271.86C911.64,-262.5 919.51,-251.33 924.84,-243.75"/>
<polygon fill="midnightblue" stroke="midnightblue" points="902.17,-269.89 899.27,-280.08 907.89,-273.92 902.17,-269.89"/>
</g>
<!-- Node36 -->
<g id="node36" class="node">
<title>Node36</title>
<g id="a_node36"><a xlink:href="../../d7/d13/MAX7219__Base_8hpp.html" target="_top" xlink:title=" ">
<polygon fill="white" stroke="black" points="1100.5,-224.5 1100.5,-243.5 1213.5,-243.5 1213.5,-224.5 1100.5,-224.5"/>
<text text-anchor="middle" x="1157" y="-231.5" font-family="Helvetica,sans-Serif" font-size="10.00">MAX7219_Base.hpp</text>
</a>
</g>
</g>
<!-- Node20&#45;&gt;Node36 -->
<g id="edge45" class="edge">
<title>Node20&#45;&gt;Node36</title>
<path fill="none" stroke="midnightblue" d="M944.78,-278.41C994.67,-268.2 1069.2,-252.96 1115.36,-243.52"/>
<polygon fill="midnightblue" stroke="midnightblue" points="943.93,-275.01 934.83,-280.44 945.33,-281.87 943.93,-275.01"/>
</g>
<!-- Node38 -->
<g id="node38" class="node">
<title>Node38</title>
<g id="a_node38"><a xlink:href="../../d8/dd2/MCP23017Encoders_8hpp.html" target="_top" xlink:title=" ">
<polygon fill="white" stroke="black" points="1308,-224.5 1308,-243.5 1442,-243.5 1442,-224.5 1308,-224.5"/>
<text text-anchor="middle" x="1375" y="-231.5" font-family="Helvetica,sans-Serif" font-size="10.00">MCP23017Encoders.hpp</text>
</a>
</g>
</g>
<!-- Node20&#45;&gt;Node38 -->
<g id="edge49" class="edge">
<title>Node20&#45;&gt;Node38</title>
<path fill="none" stroke="midnightblue" d="M973.6,-279.97C1067.26,-269.48 1220.13,-252.35 1307.71,-242.54"/>
<polygon fill="midnightblue" stroke="midnightblue" points="973.15,-276.5 963.6,-281.09 973.93,-283.45 973.15,-276.5"/>
</g>
<!-- Node22 -->
<g id="node22" class="node">
<title>Node22</title>
<g id="a_node22"><a xlink:href="../../de/dd1/Button_8cpp.html" target="_top" xlink:title=" ">
<polygon fill="white" stroke="black" points="28.5,-168.5 28.5,-187.5 97.5,-187.5 97.5,-168.5 28.5,-168.5"/>
<text text-anchor="middle" x="63" y="-175.5" font-family="Helvetica,sans-Serif" font-size="10.00">Button.cpp</text>
</a>
</g>
</g>
<!-- Node21&#45;&gt;Node22 -->
<g id="edge28" class="edge">
<title>Node21&#45;&gt;Node22</title>
<path fill="none" stroke="midnightblue" d="M320.71,-225.65C268.76,-217.11 181.09,-202.35 106,-188 103.3,-187.48 100.51,-186.94 97.71,-186.37"/>
<polygon fill="midnightblue" stroke="midnightblue" points="320.17,-229.11 330.6,-227.28 321.3,-222.2 320.17,-229.11"/>
</g>
<!-- Node23 -->
<g id="node23" class="node">
<title>Node23</title>
<g id="a_node23"><a xlink:href="../../d5/d04/IncrementButton_8hpp.html" target="_top" xlink:title=" ">
<polygon fill="white" stroke="black" points="115.5,-168.5 115.5,-187.5 234.5,-187.5 234.5,-168.5 115.5,-168.5"/>
<text text-anchor="middle" x="175" y="-175.5" font-family="Helvetica,sans-Serif" font-size="10.00">IncrementButton.hpp</text>
</a>
</g>
</g>
<!-- Node21&#45;&gt;Node23 -->
<g id="edge29" class="edge">
<title>Node21&#45;&gt;Node23</title>
<path fill="none" stroke="midnightblue" d="M326.03,-221.7C289.98,-211.51 237.76,-196.74 205.12,-187.52"/>
<polygon fill="midnightblue" stroke="midnightblue" points="325.16,-225.09 335.74,-224.44 327.06,-218.35 325.16,-225.09"/>
</g>
<!-- Node25 -->
<g id="node25" class="node">
<title>Node25</title>
<g id="a_node25"><a xlink:href="../../df/df5/IncrementDecrementButtons_8hpp.html" target="_top" xlink:title=" ">
<polygon fill="white" stroke="black" points="252.5,-168.5 252.5,-187.5 431.5,-187.5 431.5,-168.5 252.5,-168.5"/>
<text text-anchor="middle" x="342" y="-175.5" font-family="Helvetica,sans-Serif" font-size="10.00">IncrementDecrementButtons.hpp</text>
</a>
</g>
</g>
<!-- Node21&#45;&gt;Node25 -->
<g id="edge31" class="edge">
<title>Node21&#45;&gt;Node25</title>
<path fill="none" stroke="midnightblue" d="M357.86,-214.69C353.82,-205.59 349.12,-195.01 345.89,-187.75"/>
<polygon fill="midnightblue" stroke="midnightblue" points="354.78,-216.37 362.04,-224.08 361.17,-213.52 354.78,-216.37"/>
</g>
<!-- Node27 -->
<g id="node27" class="node">
<title>Node27</title>
<g id="a_node27"><a xlink:href="../../dc/dc5/MultiPurposeButton_8hpp.html" target="_top" xlink:title=" ">
<polygon fill="white" stroke="black" points="450,-168.5 450,-187.5 584,-187.5 584,-168.5 450,-168.5"/>
<text text-anchor="middle" x="517" y="-175.5" font-family="Helvetica,sans-Serif" font-size="10.00">MultiPurposeButton.hpp</text>
</a>
</g>
</g>
<!-- Node21&#45;&gt;Node27 -->
<g id="edge33" class="edge">
<title>Node21&#45;&gt;Node27</title>
<path fill="none" stroke="midnightblue" d="M399.45,-221.04C427.86,-210.88 467.94,-196.55 493.19,-187.52"/>
<polygon fill="midnightblue" stroke="midnightblue" points="398.16,-217.78 389.93,-224.44 400.52,-224.37 398.16,-217.78"/>
</g>
<!-- Node24 -->
<g id="node24" class="node">
<title>Node24</title>
<g id="a_node24"><a xlink:href="../../db/d9d/IncrementButton_8cpp.html" target="_top" xlink:title=" ">
<polygon fill="white" stroke="black" points="115.5,-112.5 115.5,-131.5 234.5,-131.5 234.5,-112.5 115.5,-112.5"/>
<text text-anchor="middle" x="175" y="-119.5" font-family="Helvetica,sans-Serif" font-size="10.00">IncrementButton.cpp</text>
</a>
</g>
</g>
<!-- Node23&#45;&gt;Node24 -->
<g id="edge30" class="edge">
<title>Node23&#45;&gt;Node24</title>
<path fill="none" stroke="midnightblue" d="M175,-157.8C175,-148.91 175,-138.78 175,-131.75"/>
<polygon fill="midnightblue" stroke="midnightblue" points="171.5,-158.08 175,-168.08 178.5,-158.08 171.5,-158.08"/>
</g>
<!-- Node26 -->
<g id="node26" class="node">
<title>Node26</title>
<g id="a_node26"><a xlink:href="../../da/d66/IncrementDecrementButtons_8cpp.html" target="_top" xlink:title=" ">
<polygon fill="white" stroke="black" points="253,-112.5 253,-131.5 431,-131.5 431,-112.5 253,-112.5"/>
<text text-anchor="middle" x="342" y="-119.5" font-family="Helvetica,sans-Serif" font-size="10.00">IncrementDecrementButtons.cpp</text>
</a>
</g>
</g>
<!-- Node25&#45;&gt;Node26 -->
<g id="edge32" class="edge">
<title>Node25&#45;&gt;Node26</title>
<path fill="none" stroke="midnightblue" d="M342,-157.8C342,-148.91 342,-138.78 342,-131.75"/>
<polygon fill="midnightblue" stroke="midnightblue" points="338.5,-158.08 342,-168.08 345.5,-158.08 338.5,-158.08"/>
</g>
<!-- Node28&#45;&gt;Node29 -->
<g id="edge35" class="edge">
<title>Node28&#45;&gt;Node29</title>
<path fill="none" stroke="midnightblue" d="M691.76,-214.4C689.26,-205.36 687.57,-194.94 687.65,-187.75"/>
<polygon fill="midnightblue" stroke="midnightblue" points="688.51,-215.72 695.02,-224.08 695.15,-213.49 688.51,-215.72"/>
</g>
<!-- Node29&#45;&gt;Node28 -->
<g id="edge36" class="edge">
<title>Node29&#45;&gt;Node28</title>
<path fill="none" stroke="midnightblue" d="M701.18,-197.4C703.7,-206.41 705.4,-216.85 705.35,-224.08"/>
<polygon fill="midnightblue" stroke="midnightblue" points="704.44,-196.1 697.91,-187.75 697.81,-198.35 704.44,-196.1"/>
</g>
<!-- Node30&#45;&gt;Node3 -->
<g id="edge40" class="edge">
<title>Node30&#45;&gt;Node3</title>
<path fill="none" stroke="midnightblue" d="M1504.55,-218.9C1488.78,-209 1468.19,-196.07 1454.78,-187.65"/>
<polygon fill="midnightblue" stroke="midnightblue" points="1502.85,-221.97 1513.18,-224.32 1506.57,-216.04 1502.85,-221.97"/>
</g>
<!-- Node30&#45;&gt;Node31 -->
<g id="edge38" class="edge">
<title>Node30&#45;&gt;Node31</title>
<path fill="none" stroke="midnightblue" d="M1576.23,-222.28C1623.09,-212.08 1692.7,-196.92 1735.89,-187.52"/>
<polygon fill="midnightblue" stroke="midnightblue" points="1575.32,-218.9 1566.3,-224.44 1576.81,-225.74 1575.32,-218.9"/>
</g>
<!-- Node30&#45;&gt;Node32 -->
<g id="edge39" class="edge">
<title>Node30&#45;&gt;Node32</title>
<path fill="none" stroke="midnightblue" d="M1550.81,-219.18C1567.92,-209.24 1590.47,-196.15 1605.1,-187.65"/>
<polygon fill="midnightblue" stroke="midnightblue" points="1548.83,-216.28 1541.94,-224.32 1552.35,-222.33 1548.83,-216.28"/>
</g>
<!-- Node35 -->
<g id="node35" class="node">
<title>Node35</title>
<g id="a_node35"><a xlink:href="../../d6/d3a/DotBarDisplayLEDs_8hpp.html" target="_top" xlink:title=" ">
<polygon fill="white" stroke="black" points="874,-168.5 874,-187.5 1006,-187.5 1006,-168.5 874,-168.5"/>
<text text-anchor="middle" x="940" y="-175.5" font-family="Helvetica,sans-Serif" font-size="10.00">DotBarDisplayLEDs.hpp</text>
</a>
</g>
</g>
<!-- Node34&#45;&gt;Node35 -->
<g id="edge44" class="edge">
<title>Node34&#45;&gt;Node35</title>
<path fill="none" stroke="midnightblue" d="M934.15,-214.1C935.64,-205.14 937.36,-194.86 938.54,-187.75"/>
<polygon fill="midnightblue" stroke="midnightblue" points="930.68,-213.64 932.49,-224.08 937.58,-214.79 930.68,-213.64"/>
</g>
<!-- Node36&#45;&gt;Node5 -->
<g id="edge46" class="edge">
<title>Node36&#45;&gt;Node5</title>
<path fill="none" stroke="midnightblue" d="M1200.92,-221.76C1230.3,-213.68 1269.56,-201.81 1303,-188 1320.64,-180.71 1323.85,-176.36 1341,-168 1368.38,-154.65 1400.6,-140.41 1420.91,-131.61"/>
<polygon fill="midnightblue" stroke="midnightblue" points="1199.7,-218.46 1190.96,-224.45 1201.53,-225.22 1199.7,-218.46"/>
</g>
<!-- Node37 -->
<g id="node37" class="node">
<title>Node37</title>
<g id="a_node37"><a xlink:href="../../d5/d0c/MAX7219SevenSegmentDisplay_8hpp.html" target="_top" xlink:title=" ">
<polygon fill="white" stroke="black" points="1100.5,-168.5 1100.5,-187.5 1293.5,-187.5 1293.5,-168.5 1100.5,-168.5"/>
<text text-anchor="middle" x="1197" y="-175.5" font-family="Helvetica,sans-Serif" font-size="10.00">MAX7219SevenSegmentDisplay.hpp</text>
</a>
</g>
</g>
<!-- Node36&#45;&gt;Node37 -->
<g id="edge47" class="edge">
<title>Node36&#45;&gt;Node37</title>
<path fill="none" stroke="midnightblue" d="M1169.7,-215.86C1176.63,-206.5 1184.91,-195.33 1190.52,-187.75"/>
<polygon fill="midnightblue" stroke="midnightblue" points="1166.75,-213.96 1163.61,-224.08 1172.37,-218.13 1166.75,-213.96"/>
</g>
<!-- Node39&#45;&gt;Node38 -->
<g id="edge58" class="edge">
<title>Node39&#45;&gt;Node38</title>
<path fill="none" stroke="midnightblue" d="M1358.39,-326.35C1362.77,-302.25 1370.22,-261.31 1373.44,-243.59"/>
<polygon fill="midnightblue" stroke="midnightblue" points="1354.91,-325.9 1356.57,-336.37 1361.8,-327.16 1354.91,-325.9"/>
</g>
<!-- Node40&#45;&gt;Node5 -->
<g id="edge60" class="edge">
<title>Node40&#45;&gt;Node5</title>
<path fill="none" stroke="midnightblue" d="M1849.77,-167.92C1709.73,-147.18 1555.73,-132.79 1483.05,-126.5"/>
<polygon fill="midnightblue" stroke="midnightblue" points="1849.42,-171.41 1859.82,-169.43 1850.45,-164.48 1849.42,-171.41"/>
</g>
<!-- Node40&#45;&gt;Node6 -->
<g id="edge61" class="edge">
<title>Node40&#45;&gt;Node6</title>
<path fill="none" stroke="midnightblue" d="M1898,-157.8C1898,-148.91 1898,-138.78 1898,-131.75"/>
<polygon fill="midnightblue" stroke="midnightblue" points="1894.5,-158.08 1898,-168.08 1901.5,-158.08 1894.5,-158.08"/>
</g>
<!-- Node40&#45;&gt;Node8 -->
<g id="edge62" class="edge">
<title>Node40&#45;&gt;Node8</title>
<path fill="none" stroke="midnightblue" d="M1849.55,-168C1546.74,-132 1196.75,-124.81 1049.64,-123.36"/>
<polygon fill="midnightblue" stroke="midnightblue" points="1849.5,-171.52 1859.85,-169.24 1850.34,-164.57 1849.5,-171.52"/>
</g>
<!-- Node42&#45;&gt;Node30 -->
<g id="edge67" class="edge">
<title>Node42&#45;&gt;Node30</title>
<path fill="none" stroke="midnightblue" d="M1367.21,-441.8C1398.9,-415.83 1462.35,-359.89 1500,-300 1511.71,-281.38 1520.3,-256.81 1524.37,-243.86"/>
<polygon fill="midnightblue" stroke="midnightblue" points="1364.74,-439.3 1359.17,-448.31 1369.14,-444.74 1364.74,-439.3"/>
</g>
<!-- Node44&#45;&gt;Node42 -->
<g id="edge70" class="edge">
<title>Node44&#45;&gt;Node42</title>
<path fill="none" stroke="midnightblue" d="M1163.4,-502.15C1207.05,-491.95 1271.51,-476.88 1311.57,-467.52"/>
<polygon fill="midnightblue" stroke="midnightblue" points="1162.54,-498.76 1153.6,-504.44 1164.14,-505.58 1162.54,-498.76"/>
</g>
<!-- Node45&#45;&gt;Node14 -->
<g id="edge73" class="edge">
<title>Node45&#45;&gt;Node14</title>
<path fill="none" stroke="midnightblue" d="M1019.73,-529.95C1031.57,-539.63 1044.9,-551.9 1052.26,-560.08"/>
<polygon fill="midnightblue" stroke="midnightblue" points="1021.88,-527.19 1011.85,-523.75 1017.54,-532.69 1021.88,-527.19"/>
</g>
<!-- Node45&#45;&gt;Node21 -->
<g id="edge72" class="edge">
<title>Node45&#45;&gt;Node21</title>
<path fill="none" stroke="midnightblue" d="M927.62,-504.03C792.25,-492.98 411,-517.3 411,-403 411,-403 411,-403 411,-345 411,-304.56 384.62,-261.56 372.26,-243.63"/>
<polygon fill="midnightblue" stroke="midnightblue" points="927.4,-507.52 937.68,-504.97 928.05,-500.55 927.4,-507.52"/>
</g>
<!-- Node45&#45;&gt;Node33 -->
<g id="edge74" class="edge">
<title>Node45&#45;&gt;Node33</title>
<path fill="none" stroke="midnightblue" d="M955.71,-501.66C885.92,-481.07 742.42,-432.46 642,-356 597.95,-322.46 561.24,-265.54 548.14,-243.8"/>
<polygon fill="midnightblue" stroke="midnightblue" points="954.88,-505.07 965.46,-504.5 956.83,-498.35 954.88,-505.07"/>
</g>
<!-- Node45&#45;&gt;Node42 -->
<g id="edge78" class="edge">
<title>Node45&#45;&gt;Node42</title>
<path fill="none" stroke="midnightblue" d="M1062.71,-502.89C1133.13,-492.06 1242.96,-475.16 1303.76,-465.81"/>
<polygon fill="midnightblue" stroke="midnightblue" points="1061.97,-499.46 1052.62,-504.44 1063.03,-506.38 1061.97,-499.46"/>
</g>
<!-- Node46 -->
<g id="node46" class="node">
<title>Node46</title>
<g id="a_node46"><a xlink:href="../../d1/d1f/ShiftRegisterOutRGB_8hpp.html" target="_top" xlink:title=" ">
<polygon fill="white" stroke="black" points="489,-448.5 489,-467.5 627,-467.5 627,-448.5 489,-448.5"/>
<text text-anchor="middle" x="558" y="-455.5" font-family="Helvetica,sans-Serif" font-size="10.00">ShiftRegisterOutRGB.hpp</text>
</a>
</g>
</g>
<!-- Node45&#45;&gt;Node46 -->
<g id="edge75" class="edge">
<title>Node45&#45;&gt;Node46</title>
<path fill="none" stroke="midnightblue" d="M927.64,-503.84C816.65,-489.8 699.43,-475.74 627.09,-467.15"/>
<polygon fill="midnightblue" stroke="midnightblue" points="927.31,-507.32 937.67,-505.11 928.19,-500.38 927.31,-507.32"/>
</g>
<!-- Node46&#45;&gt;Node13 -->
<g id="edge76" class="edge">
<title>Node46&#45;&gt;Node13</title>
<path fill="none" stroke="midnightblue" d="M523.89,-444.28C508.5,-436.98 491.28,-426.35 480,-412 461.41,-388.33 461,-377.1 461,-347 461,-347 461,-347 461,-289 461,-258.9 458.97,-245.54 480,-224 516.82,-186.28 549.18,-217.3 593,-188 639.82,-156.69 677.06,-97.93 690.04,-75.77"/>
<polygon fill="midnightblue" stroke="midnightblue" points="522.61,-447.54 533.17,-448.41 525.45,-441.15 522.61,-447.54"/>
</g>
<!-- Node47 -->
<g id="node47" class="node">
<title>Node47</title>
<g id="a_node47"><a xlink:href="../../db/d0b/ShiftRegisterOutRGB_8cpp.html" target="_top" xlink:title=" ">
<polygon fill="white" stroke="black" points="489.5,-392.5 489.5,-411.5 626.5,-411.5 626.5,-392.5 489.5,-392.5"/>
<text text-anchor="middle" x="558" y="-399.5" font-family="Helvetica,sans-Serif" font-size="10.00">ShiftRegisterOutRGB.cpp</text>
</a>
</g>
</g>
<!-- Node46&#45;&gt;Node47 -->
<g id="edge77" class="edge">
<title>Node46&#45;&gt;Node47</title>
<path fill="none" stroke="midnightblue" d="M558,-437.8C558,-428.91 558,-418.78 558,-411.75"/>
<polygon fill="midnightblue" stroke="midnightblue" points="554.5,-438.08 558,-448.08 561.5,-438.08 554.5,-438.08"/>
</g>
</g>
</svg>
