<?xml version="1.0" encoding="UTF-8" standalone="no"?>
<!DOCTYPE svg PUBLIC "-//W3C//DTD SVG 1.1//EN"
 "http://www.w3.org/Graphics/SVG/1.1/DTD/svg11.dtd">
<!-- Generated by graphviz version 2.43.0 (0)
 -->
<!-- Title: ExtendedInputOutput.cpp Pages: 1 -->
<svg width="1185pt" height="834pt"
 viewBox="0.00 0.00 1185.00 834.00" xmlns="http://www.w3.org/2000/svg" xmlns:xlink="http://www.w3.org/1999/xlink">
<g id="graph0" class="graph" transform="scale(1 1) rotate(0) translate(4 830)">
<title>ExtendedInputOutput.cpp</title>
<polygon fill="white" stroke="transparent" points="-4,4 -4,-830 1181,-830 1181,4 -4,4"/>
<!-- Node1 -->
<g id="node1" class="node">
<title>Node1</title>
<g id="a_node1"><a xlink:title=" ">
<polygon fill="#bfbfbf" stroke="black" points="396,-806.5 396,-825.5 536,-825.5 536,-806.5 396,-806.5"/>
<text text-anchor="middle" x="466" y="-813.5" font-family="Helvetica,sans-Serif" font-size="10.00">ExtendedInputOutput.cpp</text>
</a>
</g>
</g>
<!-- Node2 -->
<g id="node2" class="node">
<title>Node2</title>
<g id="a_node2"><a xlink:href="../../dd/ddf/ExtendedInputOutput_8hpp.html" target="_top" xlink:title=" ">
<polygon fill="white" stroke="black" points="297.5,-694.5 297.5,-713.5 438.5,-713.5 438.5,-694.5 297.5,-694.5"/>
<text text-anchor="middle" x="368" y="-701.5" font-family="Helvetica,sans-Serif" font-size="10.00">ExtendedInputOutput.hpp</text>
</a>
</g>
</g>
<!-- Node1&#45;&gt;Node2 -->
<g id="edge1" class="edge">
<title>Node1&#45;&gt;Node2</title>
<path fill="none" stroke="midnightblue" d="M442.72,-806.39C425.91,-799.08 403.81,-787.03 390,-770 379.22,-756.71 373.62,-737.88 370.77,-723.9"/>
<polygon fill="midnightblue" stroke="midnightblue" points="374.2,-723.18 369.03,-713.93 367.3,-724.38 374.2,-723.18"/>
</g>
<!-- Node6 -->
<g id="node6" class="node">
<title>Node6</title>
<g id="a_node6"><a xlink:href="../../d1/d93/Error_8hpp.html" target="_top" xlink:title=" ">
<polygon fill="white" stroke="black" points="501,-448.5 501,-467.5 605,-467.5 605,-448.5 501,-448.5"/>
<text text-anchor="middle" x="553" y="-455.5" font-family="Helvetica,sans-Serif" font-size="10.00">AH/Error/Error.hpp</text>
</a>
</g>
</g>
<!-- Node1&#45;&gt;Node6 -->
<g id="edge57" class="edge">
<title>Node1&#45;&gt;Node6</title>
<path fill="none" stroke="midnightblue" d="M489.85,-806.41C506.72,-799.16 528.64,-787.2 542,-770 560.46,-746.23 561,-735.1 561,-705 561,-705 561,-705 561,-574.5 561,-540.28 557.46,-500.5 555.09,-477.68"/>
<polygon fill="midnightblue" stroke="midnightblue" points="558.57,-477.25 554.01,-467.68 551.61,-478 558.57,-477.25"/>
</g>
<!-- Node29 -->
<g id="node29" class="node">
<title>Node29</title>
<g id="a_node29"><a xlink:href="../../d4/d57/ExtendedIOElement_8hpp.html" target="_top" xlink:title=" ">
<polygon fill="white" stroke="black" points="399,-750.5 399,-769.5 533,-769.5 533,-750.5 399,-750.5"/>
<text text-anchor="middle" x="466" y="-757.5" font-family="Helvetica,sans-Serif" font-size="10.00">ExtendedIOElement.hpp</text>
</a>
</g>
</g>
<!-- Node1&#45;&gt;Node29 -->
<g id="edge42" class="edge">
<title>Node1&#45;&gt;Node29</title>
<path fill="none" stroke="midnightblue" d="M466,-806.08C466,-799.01 466,-788.86 466,-779.99"/>
<polygon fill="midnightblue" stroke="midnightblue" points="469.5,-779.75 466,-769.75 462.5,-779.75 469.5,-779.75"/>
</g>
<!-- Node3 -->
<g id="node3" class="node">
<title>Node3</title>
<g id="a_node3"><a xlink:href="../../d2/d3c/Arduino-Hardware-Types_8hpp.html" target="_top" xlink:title=" ">
<polygon fill="white" stroke="black" points="211,-627.5 211,-657.5 333,-657.5 333,-627.5 211,-627.5"/>
<text text-anchor="start" x="219" y="-645.5" font-family="Helvetica,sans-Serif" font-size="10.00">AH/Hardware/Arduino</text>
<text text-anchor="middle" x="272" y="-634.5" font-family="Helvetica,sans-Serif" font-size="10.00">&#45;Hardware&#45;Types.hpp</text>
</a>
</g>
</g>
<!-- Node2&#45;&gt;Node3 -->
<g id="edge2" class="edge">
<title>Node2&#45;&gt;Node3</title>
<path fill="none" stroke="midnightblue" d="M354.25,-694.48C341,-686.27 320.5,-673.56 303.28,-662.88"/>
<polygon fill="midnightblue" stroke="midnightblue" points="304.97,-659.82 294.63,-657.52 301.28,-665.77 304.97,-659.82"/>
</g>
<!-- Node14 -->
<g id="node14" class="node">
<title>Node14</title>
<g id="a_node14"><a xlink:href="../../dc/dc7/NamespaceSettings_8hpp.html" target="_top" xlink:title=" ">
<polygon fill="white" stroke="black" points="443.5,-56.5 443.5,-75.5 638.5,-75.5 638.5,-56.5 443.5,-56.5"/>
<text text-anchor="middle" x="541" y="-63.5" font-family="Helvetica,sans-Serif" font-size="10.00">AH/Settings/NamespaceSettings.hpp</text>
</a>
</g>
</g>
<!-- Node2&#45;&gt;Node14 -->
<g id="edge41" class="edge">
<title>Node2&#45;&gt;Node14</title>
<path fill="none" stroke="midnightblue" d="M304.32,-694.47C198.99,-678.56 0,-640.09 0,-576.5 0,-576.5 0,-576.5 0,-177 0,-134.87 30.62,-129.38 69,-112 131.8,-83.56 314.47,-73.07 433.28,-69.22"/>
<polygon fill="midnightblue" stroke="midnightblue" points="433.61,-72.71 443.5,-68.9 433.39,-65.71 433.61,-72.71"/>
</g>
<!-- Node28 -->
<g id="node28" class="node">
<title>Node28</title>
<g id="a_node28"><a xlink:title=" ">
<polygon fill="white" stroke="#bfbfbf" points="351.5,-633 351.5,-652 438.5,-652 438.5,-633 351.5,-633"/>
<text text-anchor="middle" x="395" y="-640" font-family="Helvetica,sans-Serif" font-size="10.00">AH/STL/climits</text>
</a>
</g>
</g>
<!-- Node2&#45;&gt;Node28 -->
<g id="edge40" class="edge">
<title>Node2&#45;&gt;Node28</title>
<path fill="none" stroke="midnightblue" d="M371.87,-694.48C375.8,-685.82 382,-672.15 386.99,-661.15"/>
<polygon fill="midnightblue" stroke="midnightblue" points="390.19,-662.56 391.14,-652.01 383.82,-659.67 390.19,-662.56"/>
</g>
<!-- Node4 -->
<g id="node4" class="node">
<title>Node4</title>
<g id="a_node4"><a xlink:href="../../d4/d35/Hardware-Types_8hpp.html" target="_top" xlink:title=" ">
<polygon fill="white" stroke="black" points="397.5,-560.5 397.5,-590.5 528.5,-590.5 528.5,-560.5 397.5,-560.5"/>
<text text-anchor="start" x="405.5" y="-578.5" font-family="Helvetica,sans-Serif" font-size="10.00">AH/Hardware/Hardware</text>
<text text-anchor="middle" x="463" y="-567.5" font-family="Helvetica,sans-Serif" font-size="10.00">&#45;Types.hpp</text>
</a>
</g>
</g>
<!-- Node3&#45;&gt;Node4 -->
<g id="edge3" class="edge">
<title>Node3&#45;&gt;Node4</title>
<path fill="none" stroke="midnightblue" d="M313.44,-627.4C342.35,-617.56 381.11,-604.37 411.93,-593.88"/>
<polygon fill="midnightblue" stroke="midnightblue" points="413.3,-597.11 421.64,-590.58 411.04,-590.48 413.3,-597.11"/>
</g>
<!-- Node9 -->
<g id="node9" class="node">
<title>Node9</title>
<g id="a_node9"><a xlink:href="../../d6/ddf/Arduino-Wrapper_8h.html" target="_top" xlink:title=" ">
<polygon fill="white" stroke="black" points="779,-168.5 779,-187.5 903,-187.5 903,-168.5 779,-168.5"/>
<text text-anchor="middle" x="841" y="-175.5" font-family="Helvetica,sans-Serif" font-size="10.00">AH/Arduino&#45;Wrapper.h</text>
</a>
</g>
</g>
<!-- Node3&#45;&gt;Node9 -->
<g id="edge39" class="edge">
<title>Node3&#45;&gt;Node9</title>
<path fill="none" stroke="midnightblue" d="M283.84,-627.44C304.82,-602.54 349.88,-549.07 388,-504 430.16,-454.17 433.62,-434.69 483,-392 589.64,-299.82 629.2,-293.2 752,-224 772.36,-212.52 796,-200.64 813.79,-191.96"/>
<polygon fill="midnightblue" stroke="midnightblue" points="815.54,-195.01 823.02,-187.5 812.5,-188.71 815.54,-195.01"/>
</g>
<!-- Node25 -->
<g id="node25" class="node">
<title>Node25</title>
<g id="a_node25"><a xlink:href="../../d0/db1/FunctionTraits_8hpp.html" target="_top" xlink:title=" ">
<polygon fill="white" stroke="black" points="86.5,-566 86.5,-585 239.5,-585 239.5,-566 86.5,-566"/>
<text text-anchor="middle" x="163" y="-573" font-family="Helvetica,sans-Serif" font-size="10.00">AH/Types/FunctionTraits.hpp</text>
</a>
</g>
</g>
<!-- Node3&#45;&gt;Node25 -->
<g id="edge35" class="edge">
<title>Node3&#45;&gt;Node25</title>
<path fill="none" stroke="midnightblue" d="M248.35,-627.4C229.82,-616.34 204.19,-601.06 185.86,-590.13"/>
<polygon fill="midnightblue" stroke="midnightblue" points="187.65,-587.12 177.27,-585.01 184.06,-593.13 187.65,-587.12"/>
</g>
<!-- Node5 -->
<g id="node5" class="node">
<title>Node5</title>
<g id="a_node5"><a xlink:href="../../de/d76/Array_8hpp.html" target="_top" xlink:title=" ">
<polygon fill="white" stroke="black" points="397.5,-504.5 397.5,-523.5 532.5,-523.5 532.5,-504.5 397.5,-504.5"/>
<text text-anchor="middle" x="465" y="-511.5" font-family="Helvetica,sans-Serif" font-size="10.00">AH/Containers/Array.hpp</text>
</a>
</g>
</g>
<!-- Node4&#45;&gt;Node5 -->
<g id="edge4" class="edge">
<title>Node4&#45;&gt;Node5</title>
<path fill="none" stroke="midnightblue" d="M463.47,-560.4C463.74,-552.47 464.08,-542.46 464.37,-533.86"/>
<polygon fill="midnightblue" stroke="midnightblue" points="467.87,-533.77 464.71,-523.66 460.87,-533.53 467.87,-533.77"/>
</g>
<!-- Node4&#45;&gt;Node14 -->
<g id="edge33" class="edge">
<title>Node4&#45;&gt;Node14</title>
<path fill="none" stroke="midnightblue" d="M397.36,-561.07C374.69,-553.53 350.8,-541.88 334,-524 288.51,-475.59 278,-242.71 278,-235 278,-235 278,-235 278,-177 278,-105.98 360.64,-80.01 433.27,-70.91"/>
<polygon fill="midnightblue" stroke="midnightblue" points="433.91,-74.36 443.44,-69.74 433.11,-67.41 433.91,-74.36"/>
</g>
<!-- Node22 -->
<g id="node22" class="node">
<title>Node22</title>
<g id="a_node22"><a xlink:title=" ">
<polygon fill="white" stroke="#bfbfbf" points="344.5,-224.5 344.5,-243.5 397.5,-243.5 397.5,-224.5 344.5,-224.5"/>
<text text-anchor="middle" x="371" y="-231.5" font-family="Helvetica,sans-Serif" font-size="10.00">stdint.h</text>
</a>
</g>
</g>
<!-- Node4&#45;&gt;Node22 -->
<g id="edge34" class="edge">
<title>Node4&#45;&gt;Node22</title>
<path fill="none" stroke="midnightblue" d="M420.1,-560.44C377.97,-543.62 320,-511.02 320,-459 320,-459 320,-459 320,-345 320,-309.24 342.45,-272.51 357.56,-251.84"/>
<polygon fill="midnightblue" stroke="midnightblue" points="360.43,-253.85 363.69,-243.77 354.86,-249.61 360.43,-253.85"/>
</g>
<!-- Node5&#45;&gt;Node6 -->
<g id="edge5" class="edge">
<title>Node5&#45;&gt;Node6</title>
<path fill="none" stroke="midnightblue" d="M479.14,-504.32C492.87,-495.9 513.94,-482.97 530.06,-473.07"/>
<polygon fill="midnightblue" stroke="midnightblue" points="532.2,-475.87 538.9,-467.65 528.54,-469.9 532.2,-475.87"/>
</g>
<!-- Node15 -->
<g id="node15" class="node">
<title>Node15</title>
<g id="a_node15"><a xlink:title=" ">
<polygon fill="white" stroke="#bfbfbf" points="372.5,-112.5 372.5,-131.5 479.5,-131.5 479.5,-112.5 372.5,-112.5"/>
<text text-anchor="middle" x="426" y="-119.5" font-family="Helvetica,sans-Serif" font-size="10.00">AH/STL/type_traits</text>
</a>
</g>
</g>
<!-- Node5&#45;&gt;Node15 -->
<g id="edge31" class="edge">
<title>Node5&#45;&gt;Node15</title>
<path fill="none" stroke="midnightblue" d="M446.36,-504.44C415.71,-488.93 358,-453.09 358,-403 358,-403 358,-403 358,-345 358,-290.26 315.37,-275.1 335,-224 349.12,-187.24 383.49,-155.49 405.72,-137.84"/>
<polygon fill="midnightblue" stroke="midnightblue" points="408.06,-140.45 413.85,-131.58 403.79,-134.9 408.06,-140.45"/>
</g>
<!-- Node21 -->
<g id="node21" class="node">
<title>Node21</title>
<g id="a_node21"><a xlink:title=" ">
<polygon fill="white" stroke="#bfbfbf" points="1007,-224.5 1007,-243.5 1063,-243.5 1063,-224.5 1007,-224.5"/>
<text text-anchor="middle" x="1035" y="-231.5" font-family="Helvetica,sans-Serif" font-size="10.00">stddef.h</text>
</a>
</g>
</g>
<!-- Node5&#45;&gt;Node21 -->
<g id="edge32" class="edge">
<title>Node5&#45;&gt;Node21</title>
<path fill="none" stroke="midnightblue" d="M463.4,-504.16C461.44,-490.33 459.94,-463.55 474,-448 519.39,-397.78 558.55,-435.61 622,-412 640.26,-405.21 642.7,-398.69 661,-392 727.83,-367.58 748.97,-376.87 817,-356 883.05,-335.74 903.03,-335.99 962,-300 984.28,-286.4 1006.14,-265.68 1020.04,-251.3"/>
<polygon fill="midnightblue" stroke="midnightblue" points="1022.93,-253.34 1027.25,-243.67 1017.84,-248.54 1022.93,-253.34"/>
</g>
<!-- Node24 -->
<g id="node24" class="node">
<title>Node24</title>
<g id="a_node24"><a xlink:title=" ">
<polygon fill="white" stroke="#bfbfbf" points="670,-392.5 670,-411.5 760,-411.5 760,-392.5 670,-392.5"/>
<text text-anchor="middle" x="715" y="-399.5" font-family="Helvetica,sans-Serif" font-size="10.00">AH/STL/iterator</text>
</a>
</g>
</g>
<!-- Node5&#45;&gt;Node24 -->
<g id="edge30" class="edge">
<title>Node5&#45;&gt;Node24</title>
<path fill="none" stroke="midnightblue" d="M466.01,-504.32C468.15,-490.21 474.44,-462.43 492,-448 498.52,-442.64 595.94,-424.34 659.84,-412.8"/>
<polygon fill="midnightblue" stroke="midnightblue" points="660.56,-416.22 669.79,-411 659.32,-409.33 660.56,-416.22"/>
</g>
<!-- Node7 -->
<g id="node7" class="node">
<title>Node7</title>
<g id="a_node7"><a xlink:href="../../df/dee/Debug_8hpp.html" target="_top" xlink:title=" ">
<polygon fill="white" stroke="black" points="492.5,-392.5 492.5,-411.5 613.5,-411.5 613.5,-392.5 492.5,-392.5"/>
<text text-anchor="middle" x="553" y="-399.5" font-family="Helvetica,sans-Serif" font-size="10.00">AH/Debug/Debug.hpp</text>
</a>
</g>
</g>
<!-- Node6&#45;&gt;Node7 -->
<g id="edge6" class="edge">
<title>Node6&#45;&gt;Node7</title>
<path fill="none" stroke="midnightblue" d="M553,-448.08C553,-441.01 553,-430.86 553,-421.99"/>
<polygon fill="midnightblue" stroke="midnightblue" points="556.5,-421.75 553,-411.75 549.5,-421.75 556.5,-421.75"/>
</g>
<!-- Node8 -->
<g id="node8" class="node">
<title>Node8</title>
<g id="a_node8"><a xlink:href="../../dd/d80/PrintStream_8hpp.html" target="_top" xlink:title=" ">
<polygon fill="white" stroke="black" points="454.5,-224.5 454.5,-243.5 627.5,-243.5 627.5,-224.5 454.5,-224.5"/>
<text text-anchor="middle" x="541" y="-231.5" font-family="Helvetica,sans-Serif" font-size="10.00">AH/PrintStream/PrintStream.hpp</text>
</a>
</g>
</g>
<!-- Node7&#45;&gt;Node8 -->
<g id="edge7" class="edge">
<title>Node7&#45;&gt;Node8</title>
<path fill="none" stroke="midnightblue" d="M552.35,-392.08C550.47,-365.95 544.92,-289.21 542.34,-253.58"/>
<polygon fill="midnightblue" stroke="midnightblue" points="545.83,-253.29 541.62,-243.57 538.85,-253.79 545.83,-253.29"/>
</g>
<!-- Node16 -->
<g id="node16" class="node">
<title>Node16</title>
<g id="a_node16"><a xlink:href="../../d2/dd5/SettingsWrapper_8hpp.html" target="_top" xlink:title=" ">
<polygon fill="white" stroke="black" points="630,-336.5 630,-355.5 808,-355.5 808,-336.5 630,-336.5"/>
<text text-anchor="middle" x="719" y="-343.5" font-family="Helvetica,sans-Serif" font-size="10.00">AH/Settings/SettingsWrapper.hpp</text>
</a>
</g>
</g>
<!-- Node7&#45;&gt;Node16 -->
<g id="edge18" class="edge">
<title>Node7&#45;&gt;Node16</title>
<path fill="none" stroke="midnightblue" d="M574.21,-392.44C600.37,-383.28 645.05,-368.69 677.94,-358.52"/>
<polygon fill="midnightblue" stroke="midnightblue" points="679.2,-361.79 687.74,-355.52 677.15,-355.1 679.2,-361.79"/>
</g>
<!-- Node8&#45;&gt;Node9 -->
<g id="edge8" class="edge">
<title>Node8&#45;&gt;Node9</title>
<path fill="none" stroke="midnightblue" d="M588.54,-224.44C641.53,-214.9 727.2,-199.48 783.82,-189.29"/>
<polygon fill="midnightblue" stroke="midnightblue" points="784.46,-192.73 793.69,-187.52 783.22,-185.84 784.46,-192.73"/>
</g>
<!-- Node8&#45;&gt;Node14 -->
<g id="edge17" class="edge">
<title>Node8&#45;&gt;Node14</title>
<path fill="none" stroke="midnightblue" d="M541,-224.08C541,-197.95 541,-121.21 541,-85.58"/>
<polygon fill="midnightblue" stroke="midnightblue" points="544.5,-85.57 541,-75.57 537.5,-85.57 544.5,-85.57"/>
</g>
<!-- Node10 -->
<g id="node10" class="node">
<title>Node10</title>
<g id="a_node10"><a xlink:href="../../d7/d79/MinMaxFix_8hpp.html" target="_top" xlink:title=" ">
<polygon fill="white" stroke="black" points="685,-112.5 685,-131.5 821,-131.5 821,-112.5 685,-112.5"/>
<text text-anchor="middle" x="753" y="-119.5" font-family="Helvetica,sans-Serif" font-size="10.00">AH/Math/MinMaxFix.hpp</text>
</a>
</g>
</g>
<!-- Node9&#45;&gt;Node10 -->
<g id="edge9" class="edge">
<title>Node9&#45;&gt;Node10</title>
<path fill="none" stroke="midnightblue" d="M826.86,-168.32C813.13,-159.9 792.06,-146.97 775.94,-137.07"/>
<polygon fill="midnightblue" stroke="midnightblue" points="777.46,-133.9 767.1,-131.65 773.8,-139.87 777.46,-133.9"/>
</g>
<!-- Node13 -->
<g id="node13" class="node">
<title>Node13</title>
<g id="a_node13"><a xlink:title=" ">
<polygon fill="white" stroke="#bfbfbf" points="766.5,-0.5 766.5,-19.5 829.5,-19.5 829.5,-0.5 766.5,-0.5"/>
<text text-anchor="middle" x="798" y="-7.5" font-family="Helvetica,sans-Serif" font-size="10.00">Arduino.h</text>
</a>
</g>
</g>
<!-- Node9&#45;&gt;Node13 -->
<g id="edge16" class="edge">
<title>Node9&#45;&gt;Node13</title>
<path fill="none" stroke="midnightblue" d="M842.48,-168.4C845.61,-148.03 851.41,-95.58 836,-56 831.72,-44.99 823.56,-34.76 815.9,-26.84"/>
<polygon fill="midnightblue" stroke="midnightblue" points="818.19,-24.19 808.57,-19.75 813.33,-29.22 818.19,-24.19"/>
</g>
<!-- Node9&#45;&gt;Node15 -->
<g id="edge15" class="edge">
<title>Node9&#45;&gt;Node15</title>
<path fill="none" stroke="midnightblue" d="M778.87,-168.92C701.07,-158.79 568.49,-141.54 489.88,-131.31"/>
<polygon fill="midnightblue" stroke="midnightblue" points="490,-127.8 479.63,-129.98 489.1,-134.74 490,-127.8"/>
</g>
<!-- Node11 -->
<g id="node11" class="node">
<title>Node11</title>
<g id="a_node11"><a xlink:href="../../d6/d3b/FixArduinoMacros_8hpp.html" target="_top" xlink:title=" ">
<polygon fill="white" stroke="black" points="657,-56.5 657,-75.5 827,-75.5 827,-56.5 657,-56.5"/>
<text text-anchor="middle" x="742" y="-63.5" font-family="Helvetica,sans-Serif" font-size="10.00">AH/Math/FixArduinoMacros.hpp</text>
</a>
</g>
</g>
<!-- Node10&#45;&gt;Node11 -->
<g id="edge10" class="edge">
<title>Node10&#45;&gt;Node11</title>
<path fill="none" stroke="midnightblue" d="M751.18,-112.08C749.73,-104.93 747.63,-94.64 745.81,-85.69"/>
<polygon fill="midnightblue" stroke="midnightblue" points="749.21,-84.85 743.78,-75.75 742.35,-86.25 749.21,-84.85"/>
</g>
<!-- Node10&#45;&gt;Node14 -->
<g id="edge13" class="edge">
<title>Node10&#45;&gt;Node14</title>
<path fill="none" stroke="midnightblue" d="M719.41,-112.44C682.81,-103.12 624.16,-88.18 584.17,-78"/>
<polygon fill="midnightblue" stroke="midnightblue" points="584.99,-74.59 574.43,-75.52 583.26,-81.38 584.99,-74.59"/>
</g>
<!-- Node12 -->
<g id="node12" class="node">
<title>Node12</title>
<g id="a_node12"><a xlink:href="../../d1/d65/Warnings_8hpp.html" target="_top" xlink:title=" ">
<polygon fill="white" stroke="black" points="565.5,-0.5 565.5,-19.5 708.5,-19.5 708.5,-0.5 565.5,-0.5"/>
<text text-anchor="middle" x="637" y="-7.5" font-family="Helvetica,sans-Serif" font-size="10.00">AH/Settings/Warnings.hpp</text>
</a>
</g>
</g>
<!-- Node11&#45;&gt;Node12 -->
<g id="edge11" class="edge">
<title>Node11&#45;&gt;Node12</title>
<path fill="none" stroke="midnightblue" d="M725.13,-56.32C708.29,-47.66 682.19,-34.24 662.76,-24.25"/>
<polygon fill="midnightblue" stroke="midnightblue" points="664.32,-21.12 653.83,-19.65 661.12,-27.34 664.32,-21.12"/>
</g>
<!-- Node11&#45;&gt;Node13 -->
<g id="edge12" class="edge">
<title>Node11&#45;&gt;Node13</title>
<path fill="none" stroke="midnightblue" d="M751,-56.32C759.19,-48.42 771.51,-36.55 781.47,-26.94"/>
<polygon fill="midnightblue" stroke="midnightblue" points="784.07,-29.29 788.84,-19.83 779.21,-24.26 784.07,-29.29"/>
</g>
<!-- Node14&#45;&gt;Node12 -->
<g id="edge14" class="edge">
<title>Node14&#45;&gt;Node12</title>
<path fill="none" stroke="midnightblue" d="M556.42,-56.32C571.54,-47.82 594.82,-34.73 612.47,-24.8"/>
<polygon fill="midnightblue" stroke="midnightblue" points="614.61,-27.61 621.61,-19.65 611.18,-21.51 614.61,-27.61"/>
</g>
<!-- Node16&#45;&gt;Node7 -->
<g id="edge29" class="edge">
<title>Node16&#45;&gt;Node7</title>
<path fill="none" stroke="midnightblue" d="M697.9,-355.52C671.79,-364.66 627.13,-379.26 594.2,-389.44"/>
<polygon fill="midnightblue" stroke="midnightblue" points="592.93,-386.17 584.39,-392.44 594.98,-392.86 592.93,-386.17"/>
</g>
<!-- Node16&#45;&gt;Node14 -->
<g id="edge19" class="edge">
<title>Node16&#45;&gt;Node14</title>
<path fill="none" stroke="midnightblue" d="M709.27,-336.38C699.96,-327.79 685.9,-313.91 676,-300 653.99,-269.07 655.58,-257.11 637,-224 607.92,-172.19 570.43,-112.8 552.09,-84.18"/>
<polygon fill="midnightblue" stroke="midnightblue" points="555,-82.23 546.65,-75.72 549.11,-86.02 555,-82.23"/>
</g>
<!-- Node17 -->
<g id="node17" class="node">
<title>Node17</title>
<g id="a_node17"><a xlink:href="../../db/d02/Settings_8hpp.html" target="_top" xlink:title="All user settings and debugging options can be changed here.">
<polygon fill="white" stroke="black" points="684.5,-280.5 684.5,-299.5 761.5,-299.5 761.5,-280.5 684.5,-280.5"/>
<text text-anchor="middle" x="723" y="-287.5" font-family="Helvetica,sans-Serif" font-size="10.00">Settings.hpp</text>
</a>
</g>
</g>
<!-- Node16&#45;&gt;Node17 -->
<g id="edge20" class="edge">
<title>Node16&#45;&gt;Node17</title>
<path fill="none" stroke="midnightblue" d="M719.66,-336.08C720.18,-329.01 720.94,-318.86 721.59,-309.99"/>
<polygon fill="midnightblue" stroke="midnightblue" points="725.1,-309.98 722.35,-299.75 718.12,-309.47 725.1,-309.98"/>
</g>
<!-- Node23 -->
<g id="node23" class="node">
<title>Node23</title>
<g id="a_node23"><a xlink:href="../../d9/d98/TeensyUSBTypes_8hpp.html" target="_top" xlink:title=" ">
<polygon fill="white" stroke="black" points="779.5,-280.5 779.5,-299.5 952.5,-299.5 952.5,-280.5 779.5,-280.5"/>
<text text-anchor="middle" x="866" y="-287.5" font-family="Helvetica,sans-Serif" font-size="10.00">AH/Teensy/TeensyUSBTypes.hpp</text>
</a>
</g>
</g>
<!-- Node16&#45;&gt;Node23 -->
<g id="edge28" class="edge">
<title>Node16&#45;&gt;Node23</title>
<path fill="none" stroke="midnightblue" d="M742.29,-336.44C766.81,-327.44 805.6,-313.19 833.2,-303.05"/>
<polygon fill="midnightblue" stroke="midnightblue" points="834.64,-306.25 842.82,-299.52 832.22,-299.68 834.64,-306.25"/>
</g>
<!-- Node18 -->
<g id="node18" class="node">
<title>Node18</title>
<g id="a_node18"><a xlink:href="../../dc/d50/Frequency_8hpp.html" target="_top" xlink:title=" ">
<polygon fill="white" stroke="black" points="627,-168.5 627,-187.5 761,-187.5 761,-168.5 627,-168.5"/>
<text text-anchor="middle" x="694" y="-175.5" font-family="Helvetica,sans-Serif" font-size="10.00">AH/Types/Frequency.hpp</text>
</a>
</g>
</g>
<!-- Node17&#45;&gt;Node18 -->
<g id="edge21" class="edge">
<title>Node17&#45;&gt;Node18</title>
<path fill="none" stroke="midnightblue" d="M720.72,-280.37C716.02,-262.54 705.15,-221.3 698.82,-197.27"/>
<polygon fill="midnightblue" stroke="midnightblue" points="702.2,-196.37 696.27,-187.59 695.43,-198.15 702.2,-196.37"/>
</g>
<!-- Node19 -->
<g id="node19" class="node">
<title>Node19</title>
<g id="a_node19"><a xlink:href="../../d7/d7c/ADCConfig_8hpp.html" target="_top" xlink:title="This file contains the platform&#45;specific ADC resolutions.">
<polygon fill="white" stroke="black" points="831.5,-224.5 831.5,-243.5 988.5,-243.5 988.5,-224.5 831.5,-224.5"/>
<text text-anchor="middle" x="910" y="-231.5" font-family="Helvetica,sans-Serif" font-size="10.00">AH/Hardware/ADCConfig.hpp</text>
</a>
</g>
</g>
<!-- Node17&#45;&gt;Node19 -->
<g id="edge23" class="edge">
<title>Node17&#45;&gt;Node19</title>
<path fill="none" stroke="midnightblue" d="M752.63,-280.44C784.5,-271.24 835.33,-256.56 870.56,-246.39"/>
<polygon fill="midnightblue" stroke="midnightblue" points="871.87,-249.65 880.51,-243.52 869.93,-242.93 871.87,-249.65"/>
</g>
<!-- Node20 -->
<g id="node20" class="node">
<title>Node20</title>
<g id="a_node20"><a xlink:title=" ">
<polygon fill="white" stroke="#bfbfbf" points="760.5,-224.5 760.5,-243.5 813.5,-243.5 813.5,-224.5 760.5,-224.5"/>
<text text-anchor="middle" x="787" y="-231.5" font-family="Helvetica,sans-Serif" font-size="10.00">limits.h</text>
</a>
</g>
</g>
<!-- Node17&#45;&gt;Node20 -->
<g id="edge25" class="edge">
<title>Node17&#45;&gt;Node20</title>
<path fill="none" stroke="midnightblue" d="M733.28,-280.32C742.84,-272.26 757.28,-260.08 768.78,-250.37"/>
<polygon fill="midnightblue" stroke="midnightblue" points="771.14,-252.96 776.53,-243.83 766.63,-247.61 771.14,-252.96"/>
</g>
<!-- Node17&#45;&gt;Node21 -->
<g id="edge26" class="edge">
<title>Node17&#45;&gt;Node21</title>
<path fill="none" stroke="midnightblue" d="M761.76,-281.64C764.88,-281.07 767.99,-280.52 771,-280 868.51,-263.13 896.14,-264.01 996.8,-244.11"/>
<polygon fill="midnightblue" stroke="midnightblue" points="997.65,-247.51 1006.77,-242.12 996.28,-240.64 997.65,-247.51"/>
</g>
<!-- Node17&#45;&gt;Node22 -->
<g id="edge27" class="edge">
<title>Node17&#45;&gt;Node22</title>
<path fill="none" stroke="midnightblue" d="M684.32,-283.07C616,-272.59 474.87,-250.93 407.86,-240.66"/>
<polygon fill="midnightblue" stroke="midnightblue" points="408.18,-237.16 397.77,-239.11 407.12,-244.08 408.18,-237.16"/>
</g>
<!-- Node18&#45;&gt;Node14 -->
<g id="edge22" class="edge">
<title>Node18&#45;&gt;Node14</title>
<path fill="none" stroke="midnightblue" d="M683.82,-168.18C668.76,-155.29 639.46,-130.79 613,-112 597.32,-100.87 578.93,-89.4 564.66,-80.83"/>
<polygon fill="midnightblue" stroke="midnightblue" points="566.33,-77.75 555.95,-75.64 562.75,-83.76 566.33,-77.75"/>
</g>
<!-- Node19&#45;&gt;Node9 -->
<g id="edge24" class="edge">
<title>Node19&#45;&gt;Node9</title>
<path fill="none" stroke="midnightblue" d="M898.91,-224.32C888.51,-216.18 872.74,-203.84 860.28,-194.09"/>
<polygon fill="midnightblue" stroke="midnightblue" points="862.32,-191.24 852.29,-187.83 858.01,-196.75 862.32,-191.24"/>
</g>
<!-- Node25&#45;&gt;Node14 -->
<g id="edge38" class="edge">
<title>Node25&#45;&gt;Node14</title>
<path fill="none" stroke="midnightblue" d="M128.07,-565.94C104.83,-558.51 75.3,-545.5 57,-524 37.49,-501.08 38,-489.1 38,-459 38,-459 38,-459 38,-177 38,-96.72 285.63,-74.94 433.4,-69.09"/>
<polygon fill="midnightblue" stroke="midnightblue" points="433.56,-72.59 443.42,-68.71 433.3,-65.59 433.56,-72.59"/>
</g>
<!-- Node26 -->
<g id="node26" class="node">
<title>Node26</title>
<g id="a_node26"><a xlink:title=" ">
<polygon fill="white" stroke="#bfbfbf" points="66,-504.5 66,-523.5 156,-523.5 156,-504.5 66,-504.5"/>
<text text-anchor="middle" x="111" y="-511.5" font-family="Helvetica,sans-Serif" font-size="10.00">AH/STL/cstddef</text>
</a>
</g>
</g>
<!-- Node25&#45;&gt;Node26 -->
<g id="edge36" class="edge">
<title>Node25&#45;&gt;Node26</title>
<path fill="none" stroke="midnightblue" d="M155.55,-565.98C147.67,-556.96 135.06,-542.52 125.26,-531.31"/>
<polygon fill="midnightblue" stroke="midnightblue" points="127.65,-528.74 118.44,-523.51 122.38,-533.34 127.65,-528.74"/>
</g>
<!-- Node27 -->
<g id="node27" class="node">
<title>Node27</title>
<g id="a_node27"><a xlink:title=" ">
<polygon fill="white" stroke="#bfbfbf" points="174.5,-504.5 174.5,-523.5 253.5,-523.5 253.5,-504.5 174.5,-504.5"/>
<text text-anchor="middle" x="214" y="-511.5" font-family="Helvetica,sans-Serif" font-size="10.00">AH/STL/tuple</text>
</a>
</g>
</g>
<!-- Node25&#45;&gt;Node27 -->
<g id="edge37" class="edge">
<title>Node25&#45;&gt;Node27</title>
<path fill="none" stroke="midnightblue" d="M170.31,-565.98C178.03,-556.96 190.41,-542.52 200.02,-531.31"/>
<polygon fill="midnightblue" stroke="midnightblue" points="202.86,-533.38 206.71,-523.51 197.54,-528.82 202.86,-533.38"/>
</g>
<!-- Node29&#45;&gt;Node2 -->
<g id="edge43" class="edge">
<title>Node29&#45;&gt;Node2</title>
<path fill="none" stroke="midnightblue" d="M450.25,-750.32C434.68,-741.74 410.62,-728.49 392.54,-718.52"/>
<polygon fill="midnightblue" stroke="midnightblue" points="394.15,-715.42 383.71,-713.65 390.78,-721.55 394.15,-715.42"/>
</g>
<!-- Node29&#45;&gt;Node4 -->
<g id="edge56" class="edge">
<title>Node29&#45;&gt;Node4</title>
<path fill="none" stroke="midnightblue" d="M465.86,-750.2C465.41,-723.39 464.08,-642.09 463.4,-600.93"/>
<polygon fill="midnightblue" stroke="midnightblue" points="466.9,-600.64 463.23,-590.69 459.9,-600.75 466.9,-600.64"/>
</g>
<!-- Node30 -->
<g id="node30" class="node">
<title>Node30</title>
<g id="a_node30"><a xlink:href="../../d4/d93/Updatable_8hpp.html" target="_top" xlink:title=" ">
<polygon fill="white" stroke="black" points="641.5,-504.5 641.5,-523.5 802.5,-523.5 802.5,-504.5 641.5,-504.5"/>
<text text-anchor="middle" x="722" y="-511.5" font-family="Helvetica,sans-Serif" font-size="10.00">AH/Containers/Updatable.hpp</text>
</a>
</g>
</g>
<!-- Node29&#45;&gt;Node30 -->
<g id="edge44" class="edge">
<title>Node29&#45;&gt;Node30</title>
<path fill="none" stroke="midnightblue" d="M475.11,-750.32C512.75,-714.44 656.42,-577.5 705.47,-530.75"/>
<polygon fill="midnightblue" stroke="midnightblue" points="708.17,-533.01 713,-523.58 703.34,-527.95 708.17,-533.01"/>
</g>
<!-- Node30&#45;&gt;Node6 -->
<g id="edge51" class="edge">
<title>Node30&#45;&gt;Node6</title>
<path fill="none" stroke="midnightblue" d="M695.22,-504.44C666.67,-495.32 621.27,-480.81 589.46,-470.65"/>
<polygon fill="midnightblue" stroke="midnightblue" points="590.24,-467.23 579.65,-467.52 588.11,-473.89 590.24,-467.23"/>
</g>
<!-- Node30&#45;&gt;Node15 -->
<g id="edge52" class="edge">
<title>Node30&#45;&gt;Node15</title>
<path fill="none" stroke="midnightblue" d="M710.27,-504.45C691.04,-490.79 651.21,-463.95 614,-448 526.82,-410.63 426,-441.85 426,-347 426,-347 426,-347 426,-233 426,-200.95 426,-163.64 426,-141.75"/>
<polygon fill="midnightblue" stroke="midnightblue" points="429.5,-141.56 426,-131.56 422.5,-141.56 429.5,-141.56"/>
</g>
<!-- Node30&#45;&gt;Node16 -->
<g id="edge54" class="edge">
<title>Node30&#45;&gt;Node16</title>
<path fill="none" stroke="midnightblue" d="M711.98,-504.25C698.55,-491.44 677.75,-467.04 690,-448 710.87,-415.55 748.13,-444.45 769,-412 780.72,-393.79 760.86,-374.27 742.81,-361.43"/>
<polygon fill="midnightblue" stroke="midnightblue" points="744.5,-358.35 734.24,-355.69 740.61,-364.16 744.5,-358.35"/>
</g>
<!-- Node30&#45;&gt;Node21 -->
<g id="edge55" class="edge">
<title>Node30&#45;&gt;Node21</title>
<path fill="none" stroke="midnightblue" d="M802.6,-508.7C912.17,-502.14 1097.3,-488.22 1121,-468 1143.8,-448.54 1139,-432.98 1139,-403 1139,-403 1139,-403 1139,-345 1139,-300.22 1092.94,-266.32 1062.12,-248.66"/>
<polygon fill="midnightblue" stroke="midnightblue" points="1063.56,-245.46 1053.12,-243.7 1060.19,-251.59 1063.56,-245.46"/>
</g>
<!-- Node31 -->
<g id="node31" class="node">
<title>Node31</title>
<g id="a_node31"><a xlink:href="../../d4/dba/CRTP_8hpp.html" target="_top" xlink:title=" ">
<polygon fill="white" stroke="black" points="699,-448.5 699,-467.5 833,-467.5 833,-448.5 699,-448.5"/>
<text text-anchor="middle" x="766" y="-455.5" font-family="Helvetica,sans-Serif" font-size="10.00">AH/Containers/CRTP.hpp</text>
</a>
</g>
</g>
<!-- Node30&#45;&gt;Node31 -->
<g id="edge45" class="edge">
<title>Node30&#45;&gt;Node31</title>
<path fill="none" stroke="midnightblue" d="M729.27,-504.08C735.54,-496.38 744.79,-485.03 752.43,-475.65"/>
<polygon fill="midnightblue" stroke="midnightblue" points="755.27,-477.71 758.87,-467.75 749.84,-473.29 755.27,-477.71"/>
</g>
<!-- Node32 -->
<g id="node32" class="node">
<title>Node32</title>
<g id="a_node32"><a xlink:href="../../de/dd1/LinkedList_8hpp.html" target="_top" xlink:title=" ">
<polygon fill="white" stroke="black" points="952.5,-448.5 952.5,-467.5 1111.5,-467.5 1111.5,-448.5 952.5,-448.5"/>
<text text-anchor="middle" x="1032" y="-455.5" font-family="Helvetica,sans-Serif" font-size="10.00">AH/Containers/LinkedList.hpp</text>
</a>
</g>
</g>
<!-- Node30&#45;&gt;Node32 -->
<g id="edge46" class="edge">
<title>Node30&#45;&gt;Node32</title>
<path fill="none" stroke="midnightblue" d="M771.12,-504.44C825.88,-494.9 914.41,-479.48 972.91,-469.29"/>
<polygon fill="midnightblue" stroke="midnightblue" points="973.86,-472.68 983.11,-467.52 972.66,-465.78 973.86,-472.68"/>
</g>
<!-- Node34 -->
<g id="node34" class="node">
<title>Node34</title>
<g id="a_node34"><a xlink:title=" ">
<polygon fill="white" stroke="#bfbfbf" points="851.5,-448.5 851.5,-467.5 934.5,-467.5 934.5,-448.5 851.5,-448.5"/>
<text text-anchor="middle" x="893" y="-455.5" font-family="Helvetica,sans-Serif" font-size="10.00">AH/STL/utility</text>
</a>
</g>
</g>
<!-- Node30&#45;&gt;Node34 -->
<g id="edge53" class="edge">
<title>Node30&#45;&gt;Node34</title>
<path fill="none" stroke="midnightblue" d="M749.1,-504.44C777.99,-495.32 823.92,-480.81 856.11,-470.65"/>
<polygon fill="midnightblue" stroke="midnightblue" points="857.55,-473.87 866.03,-467.52 855.44,-467.19 857.55,-473.87"/>
</g>
<!-- Node32&#45;&gt;Node7 -->
<g id="edge47" class="edge">
<title>Node32&#45;&gt;Node7</title>
<path fill="none" stroke="midnightblue" d="M956.37,-448.47C865.11,-438.19 712.87,-421.02 623.82,-410.98"/>
<polygon fill="midnightblue" stroke="midnightblue" points="624.14,-407.5 613.81,-409.86 623.36,-414.45 624.14,-407.5"/>
</g>
<!-- Node32&#45;&gt;Node10 -->
<g id="edge48" class="edge">
<title>Node32&#45;&gt;Node10</title>
<path fill="none" stroke="midnightblue" d="M1063.46,-448.48C1106.11,-434.8 1177,-403.56 1177,-347 1177,-347 1177,-347 1177,-233 1177,-162.36 953.71,-136.32 831.21,-127.34"/>
<polygon fill="midnightblue" stroke="midnightblue" points="831.35,-123.85 821.12,-126.63 830.85,-130.83 831.35,-123.85"/>
</g>
<!-- Node32&#45;&gt;Node24 -->
<g id="edge50" class="edge">
<title>Node32&#45;&gt;Node24</title>
<path fill="none" stroke="midnightblue" d="M981.77,-448.44C924.09,-438.62 829.77,-422.55 770.11,-412.39"/>
<polygon fill="midnightblue" stroke="midnightblue" points="770.57,-408.92 760.12,-410.69 769.39,-415.82 770.57,-408.92"/>
</g>
<!-- Node33 -->
<g id="node33" class="node">
<title>Node33</title>
<g id="a_node33"><a xlink:title=" ">
<polygon fill="white" stroke="#bfbfbf" points="1005.5,-392.5 1005.5,-411.5 1058.5,-411.5 1058.5,-392.5 1005.5,-392.5"/>
<text text-anchor="middle" x="1032" y="-399.5" font-family="Helvetica,sans-Serif" font-size="10.00">stdlib.h</text>
</a>
</g>
</g>
<!-- Node32&#45;&gt;Node33 -->
<g id="edge49" class="edge">
<title>Node32&#45;&gt;Node33</title>
<path fill="none" stroke="midnightblue" d="M1032,-448.08C1032,-441.01 1032,-430.86 1032,-421.99"/>
<polygon fill="midnightblue" stroke="midnightblue" points="1035.5,-421.75 1032,-411.75 1028.5,-421.75 1035.5,-421.75"/>
</g>
</g>
</svg>
