<?xml version="1.0" encoding="UTF-8" standalone="no"?>
<!DOCTYPE svg PUBLIC "-//W3C//DTD SVG 1.1//EN"
 "http://www.w3.org/Graphics/SVG/1.1/DTD/svg11.dtd">
<!-- Generated by graphviz version 2.43.0 (0)
 -->
<!-- Title: Error.hpp Pages: 1 -->
<svg width="2002pt" height="532pt"
 viewBox="0.00 0.00 2001.66 532.00" xmlns="http://www.w3.org/2000/svg" xmlns:xlink="http://www.w3.org/1999/xlink">
<g id="graph0" class="graph" transform="scale(1 1) rotate(0) translate(4 528)">
<title>Error.hpp</title>
<polygon fill="white" stroke="transparent" points="-4,4 -4,-528 1997.66,-528 1997.66,4 -4,4"/>
<!-- Node1 -->
<g id="node1" class="node">
<title>Node1</title>
<g id="a_node1"><a xlink:title=" ">
<polygon fill="#bfbfbf" stroke="black" points="1756.16,-504.5 1756.16,-523.5 1816.16,-523.5 1816.16,-504.5 1756.16,-504.5"/>
<text text-anchor="middle" x="1786.16" y="-511.5" font-family="Helvetica,sans-Serif" font-size="10.00">Error.hpp</text>
</a>
</g>
</g>
<!-- Node2 -->
<g id="node2" class="node">
<title>Node2</title>
<g id="a_node2"><a xlink:href="../../de/d76/Array_8hpp.html" target="_top" xlink:title=" ">
<polygon fill="white" stroke="black" points="1432.16,-448.5 1432.16,-467.5 1494.16,-467.5 1494.16,-448.5 1432.16,-448.5"/>
<text text-anchor="middle" x="1463.16" y="-455.5" font-family="Helvetica,sans-Serif" font-size="10.00">Array.hpp</text>
</a>
</g>
</g>
<!-- Node1&#45;&gt;Node2 -->
<g id="edge1" class="edge">
<title>Node1&#45;&gt;Node2</title>
<path fill="none" stroke="midnightblue" d="M1746.16,-506.31C1680.96,-495.41 1553.15,-474.04 1494.25,-464.2"/>
<polygon fill="midnightblue" stroke="midnightblue" points="1745.63,-509.77 1756.07,-507.97 1746.78,-502.87 1745.63,-509.77"/>
</g>
<!-- Node28 -->
<g id="node28" class="node">
<title>Node28</title>
<g id="a_node28"><a xlink:href="../../da/d1f/ExtendedIOElement_8cpp.html" target="_top" xlink:title=" ">
<polygon fill="white" stroke="black" points="1719.16,-168.5 1719.16,-187.5 1853.16,-187.5 1853.16,-168.5 1719.16,-168.5"/>
<text text-anchor="middle" x="1786.16" y="-175.5" font-family="Helvetica,sans-Serif" font-size="10.00">ExtendedIOElement.cpp</text>
</a>
</g>
</g>
<!-- Node1&#45;&gt;Node28 -->
<g id="edge60" class="edge">
<title>Node1&#45;&gt;Node28</title>
<path fill="none" stroke="midnightblue" d="M1786.16,-494.25C1786.16,-472.36 1786.16,-435.05 1786.16,-403 1786.16,-403 1786.16,-403 1786.16,-289 1786.16,-251.19 1786.16,-206.06 1786.16,-187.56"/>
<polygon fill="midnightblue" stroke="midnightblue" points="1782.66,-494.44 1786.16,-504.44 1789.66,-494.44 1782.66,-494.44"/>
</g>
<!-- Node29 -->
<g id="node29" class="node">
<title>Node29</title>
<g id="a_node29"><a xlink:href="../../d6/d3c/ExtendedInputOutput_8cpp.html" target="_top" xlink:title=" ">
<polygon fill="white" stroke="black" points="1361.16,-168.5 1361.16,-187.5 1501.16,-187.5 1501.16,-168.5 1361.16,-168.5"/>
<text text-anchor="middle" x="1431.16" y="-175.5" font-family="Helvetica,sans-Serif" font-size="10.00">ExtendedInputOutput.cpp</text>
</a>
</g>
</g>
<!-- Node1&#45;&gt;Node29 -->
<g id="edge61" class="edge">
<title>Node1&#45;&gt;Node29</title>
<path fill="none" stroke="midnightblue" d="M1782.6,-494.24C1771.17,-436.11 1733.7,-260.73 1691.16,-224 1676.88,-211.67 1573.3,-196.57 1501.27,-187.38"/>
<polygon fill="midnightblue" stroke="midnightblue" points="1779.19,-495.07 1784.53,-504.22 1786.07,-493.74 1779.19,-495.07"/>
</g>
<!-- Node37 -->
<g id="node37" class="node">
<title>Node37</title>
<g id="a_node37"><a xlink:href="../../d1/d40/BitArray_8hpp.html" target="_top" xlink:title=" ">
<polygon fill="white" stroke="black" points="1871.16,-168.5 1871.16,-187.5 1947.16,-187.5 1947.16,-168.5 1871.16,-168.5"/>
<text text-anchor="middle" x="1909.16" y="-175.5" font-family="Helvetica,sans-Serif" font-size="10.00">BitArray.hpp</text>
</a>
</g>
</g>
<!-- Node1&#45;&gt;Node37 -->
<g id="edge55" class="edge">
<title>Node1&#45;&gt;Node37</title>
<path fill="none" stroke="midnightblue" d="M1796.31,-495.43C1807.56,-474.24 1824.16,-437.19 1824.16,-403 1824.16,-403 1824.16,-403 1824.16,-289 1824.16,-242.9 1871.48,-204.36 1895.51,-187.76"/>
<polygon fill="midnightblue" stroke="midnightblue" points="1793.22,-493.78 1791.45,-504.23 1799.34,-497.17 1793.22,-493.78"/>
</g>
<!-- Node38 -->
<g id="node38" class="node">
<title>Node38</title>
<g id="a_node38"><a xlink:href="../../d6/df4/Exit_8cpp.html" target="_top" xlink:title=" ">
<polygon fill="white" stroke="black" points="1852.16,-448.5 1852.16,-467.5 1908.16,-467.5 1908.16,-448.5 1852.16,-448.5"/>
<text text-anchor="middle" x="1880.16" y="-455.5" font-family="Helvetica,sans-Serif" font-size="10.00">Exit.cpp</text>
</a>
</g>
</g>
<!-- Node1&#45;&gt;Node38 -->
<g id="edge59" class="edge">
<title>Node1&#45;&gt;Node38</title>
<path fill="none" stroke="midnightblue" d="M1810.23,-499.18C1827.52,-489.24 1850.31,-476.15 1865.1,-467.65"/>
<polygon fill="midnightblue" stroke="midnightblue" points="1808.19,-496.31 1801.27,-504.32 1811.68,-502.38 1808.19,-496.31"/>
</g>
<!-- Node39 -->
<g id="node39" class="node">
<title>Node39</title>
<g id="a_node39"><a xlink:href="../../d4/d93/Updatable_8hpp.html" target="_top" xlink:title=" ">
<polygon fill="white" stroke="black" points="1628.16,-336.5 1628.16,-355.5 1716.16,-355.5 1716.16,-336.5 1628.16,-336.5"/>
<text text-anchor="middle" x="1672.16" y="-343.5" font-family="Helvetica,sans-Serif" font-size="10.00">Updatable.hpp</text>
</a>
</g>
</g>
<!-- Node1&#45;&gt;Node39 -->
<g id="edge62" class="edge">
<title>Node1&#45;&gt;Node39</title>
<path fill="none" stroke="midnightblue" d="M1763.83,-498.62C1752.67,-490.62 1739.58,-479.88 1730.16,-468 1700.78,-430.95 1681.53,-376.57 1674.81,-355.65"/>
<polygon fill="midnightblue" stroke="midnightblue" points="1762.04,-501.64 1772.26,-504.43 1766.01,-495.87 1762.04,-501.64"/>
</g>
<!-- Node40 -->
<g id="node40" class="node">
<title>Node40</title>
<g id="a_node40"><a xlink:href="../../d4/d1b/vector_8cpp.html" target="_top" xlink:title=" ">
<polygon fill="white" stroke="black" points="1926.66,-448.5 1926.66,-467.5 1993.66,-467.5 1993.66,-448.5 1926.66,-448.5"/>
<text text-anchor="middle" x="1960.16" y="-455.5" font-family="Helvetica,sans-Serif" font-size="10.00">vector.cpp</text>
</a>
</g>
</g>
<!-- Node1&#45;&gt;Node40 -->
<g id="edge64" class="edge">
<title>Node1&#45;&gt;Node40</title>
<path fill="none" stroke="midnightblue" d="M1823.42,-501.44C1856.23,-491.26 1903.25,-476.66 1932.72,-467.52"/>
<polygon fill="midnightblue" stroke="midnightblue" points="1822.25,-498.14 1813.73,-504.44 1824.32,-504.82 1822.25,-498.14"/>
</g>
<!-- Node3 -->
<g id="node3" class="node">
<title>Node3</title>
<g id="a_node3"><a xlink:href="../../d7/def/AnalogMultiplex_8hpp.html" target="_top" xlink:title=" ">
<polygon fill="white" stroke="black" points="27.66,-112.5 27.66,-131.5 144.66,-131.5 144.66,-112.5 27.66,-112.5"/>
<text text-anchor="middle" x="86.16" y="-119.5" font-family="Helvetica,sans-Serif" font-size="10.00">AnalogMultiplex.hpp</text>
</a>
</g>
</g>
<!-- Node2&#45;&gt;Node3 -->
<g id="edge2" class="edge">
<title>Node2&#45;&gt;Node3</title>
<path fill="none" stroke="midnightblue" d="M1421.9,-456.09C1185.17,-450.62 10.16,-419.8 10.16,-347 10.16,-347 10.16,-347 10.16,-289 10.16,-223.39 59.85,-155.35 78.88,-131.71"/>
<polygon fill="midnightblue" stroke="midnightblue" points="1422.07,-459.6 1432.14,-456.33 1422.23,-452.6 1422.07,-459.6"/>
</g>
<!-- Node4 -->
<g id="node4" class="node">
<title>Node4</title>
<g id="a_node4"><a xlink:href="../../d5/db6/ArrayHelpers_8hpp.html" target="_top" xlink:title=" ">
<polygon fill="white" stroke="black" points="1511.66,-392.5 1511.66,-411.5 1612.66,-411.5 1612.66,-392.5 1511.66,-392.5"/>
<text text-anchor="middle" x="1562.16" y="-399.5" font-family="Helvetica,sans-Serif" font-size="10.00">ArrayHelpers.hpp</text>
</a>
</g>
</g>
<!-- Node2&#45;&gt;Node4 -->
<g id="edge3" class="edge">
<title>Node2&#45;&gt;Node4</title>
<path fill="none" stroke="midnightblue" d="M1488,-443.45C1506.28,-433.48 1530.58,-420.23 1546.3,-411.65"/>
<polygon fill="midnightblue" stroke="midnightblue" points="1486.17,-440.46 1479.07,-448.32 1489.52,-446.61 1486.17,-440.46"/>
</g>
<!-- Node15 -->
<g id="node15" class="node">
<title>Node15</title>
<g id="a_node15"><a xlink:href="../../d4/d35/Hardware-Types_8hpp.html" target="_top" xlink:title=" ">
<polygon fill="white" stroke="black" points="1266.16,-392.5 1266.16,-411.5 1382.16,-411.5 1382.16,-392.5 1266.16,-392.5"/>
<text text-anchor="middle" x="1324.16" y="-399.5" font-family="Helvetica,sans-Serif" font-size="10.00">Hardware&#45;Types.hpp</text>
</a>
</g>
</g>
<!-- Node2&#45;&gt;Node15 -->
<g id="edge19" class="edge">
<title>Node2&#45;&gt;Node15</title>
<path fill="none" stroke="midnightblue" d="M1431.69,-444.77C1405.58,-434.63 1369.12,-420.47 1346.09,-411.52"/>
<polygon fill="midnightblue" stroke="midnightblue" points="1430.55,-448.08 1441.14,-448.44 1433.08,-441.56 1430.55,-448.08"/>
</g>
<!-- Node36 -->
<g id="node36" class="node">
<title>Node36</title>
<g id="a_node36"><a xlink:href="../../dd/ddf/RegisterEncoders_8hpp.html" target="_top" xlink:title=" ">
<polygon fill="white" stroke="black" points="1402.16,-280.5 1402.16,-299.5 1524.16,-299.5 1524.16,-280.5 1402.16,-280.5"/>
<text text-anchor="middle" x="1463.16" y="-287.5" font-family="Helvetica,sans-Serif" font-size="10.00">RegisterEncoders.hpp</text>
</a>
</g>
</g>
<!-- Node2&#45;&gt;Node36 -->
<g id="edge53" class="edge">
<title>Node2&#45;&gt;Node36</title>
<path fill="none" stroke="midnightblue" d="M1463.16,-437.93C1463.16,-401.92 1463.16,-325.23 1463.16,-299.57"/>
<polygon fill="midnightblue" stroke="midnightblue" points="1459.66,-438.08 1463.16,-448.08 1466.66,-438.08 1459.66,-438.08"/>
</g>
<!-- Node5 -->
<g id="node5" class="node">
<title>Node5</title>
<g id="a_node5"><a xlink:href="../../d2/d05/StaticSizeExtendedIOElement_8hpp.html" target="_top" xlink:title=" ">
<polygon fill="white" stroke="black" points="1519.16,-168.5 1519.16,-187.5 1701.16,-187.5 1701.16,-168.5 1519.16,-168.5"/>
<text text-anchor="middle" x="1610.16" y="-175.5" font-family="Helvetica,sans-Serif" font-size="10.00">StaticSizeExtendedIOElement.hpp</text>
</a>
</g>
</g>
<!-- Node4&#45;&gt;Node5 -->
<g id="edge4" class="edge">
<title>Node4&#45;&gt;Node5</title>
<path fill="none" stroke="midnightblue" d="M1576.69,-384.63C1609.15,-347.87 1685.19,-260.68 1691.16,-244 1694.16,-235.63 1695.67,-231.66 1691.16,-224 1680.39,-205.7 1659.2,-194.31 1641.19,-187.56"/>
<polygon fill="midnightblue" stroke="midnightblue" points="1573.79,-382.62 1569.78,-392.43 1579.03,-387.26 1573.79,-382.62"/>
</g>
<!-- Node5&#45;&gt;Node3 -->
<g id="edge5" class="edge">
<title>Node5&#45;&gt;Node3</title>
<path fill="none" stroke="midnightblue" d="M1508.91,-167.97C906.12,-133.47 751.18,-179.96 153.16,-132 150.47,-131.78 147.72,-131.53 144.95,-131.26"/>
<polygon fill="midnightblue" stroke="midnightblue" points="1508.98,-171.48 1519.16,-168.56 1509.38,-164.49 1508.98,-171.48"/>
</g>
<!-- Node6 -->
<g id="node6" class="node">
<title>Node6</title>
<g id="a_node6"><a xlink:href="../../d2/d25/MAX7219_8hpp.html" target="_top" xlink:title=" ">
<polygon fill="white" stroke="black" points="1456.16,-112.5 1456.16,-131.5 1540.16,-131.5 1540.16,-112.5 1456.16,-112.5"/>
<text text-anchor="middle" x="1498.16" y="-119.5" font-family="Helvetica,sans-Serif" font-size="10.00">MAX7219.hpp</text>
</a>
</g>
</g>
<!-- Node5&#45;&gt;Node6 -->
<g id="edge6" class="edge">
<title>Node5&#45;&gt;Node6</title>
<path fill="none" stroke="midnightblue" d="M1582.91,-163.86C1562.15,-153.85 1534.14,-140.35 1516.11,-131.65"/>
<polygon fill="midnightblue" stroke="midnightblue" points="1581.64,-167.13 1592.17,-168.32 1584.68,-160.83 1581.64,-167.13"/>
</g>
<!-- Node7 -->
<g id="node7" class="node">
<title>Node7</title>
<g id="a_node7"><a xlink:href="../../d7/dca/MCP23017_8hpp.html" target="_top" xlink:title=" ">
<polygon fill="white" stroke="black" points="1306.66,-112.5 1306.66,-131.5 1395.66,-131.5 1395.66,-112.5 1306.66,-112.5"/>
<text text-anchor="middle" x="1351.16" y="-119.5" font-family="Helvetica,sans-Serif" font-size="10.00">MCP23017.hpp</text>
</a>
</g>
</g>
<!-- Node5&#45;&gt;Node7 -->
<g id="edge7" class="edge">
<title>Node5&#45;&gt;Node7</title>
<path fill="none" stroke="midnightblue" d="M1559.06,-166.35C1510.12,-156.14 1437.21,-140.94 1392.01,-131.52"/>
<polygon fill="midnightblue" stroke="midnightblue" points="1558.62,-169.83 1569.12,-168.44 1560.05,-162.98 1558.62,-169.83"/>
</g>
<!-- Node9 -->
<g id="node9" class="node">
<title>Node9</title>
<g id="a_node9"><a xlink:href="../../d8/d93/ShiftRegisterOutBase_8hpp.html" target="_top" xlink:title=" ">
<polygon fill="white" stroke="black" points="1558.66,-112.5 1558.66,-131.5 1699.66,-131.5 1699.66,-112.5 1558.66,-112.5"/>
<text text-anchor="middle" x="1629.16" y="-119.5" font-family="Helvetica,sans-Serif" font-size="10.00">ShiftRegisterOutBase.hpp</text>
</a>
</g>
</g>
<!-- Node5&#45;&gt;Node9 -->
<g id="edge10" class="edge">
<title>Node5&#45;&gt;Node9</title>
<path fill="none" stroke="midnightblue" d="M1616.71,-158.4C1619.89,-149.36 1623.56,-138.94 1626.08,-131.75"/>
<polygon fill="midnightblue" stroke="midnightblue" points="1613.32,-157.49 1613.3,-168.08 1619.92,-159.81 1613.32,-157.49"/>
</g>
<!-- Node8 -->
<g id="node8" class="node">
<title>Node8</title>
<g id="a_node8"><a xlink:href="../../d2/d94/MCP23017_8ipp.html" target="_top" xlink:title=" ">
<polygon fill="white" stroke="black" points="1306.16,-56.5 1306.16,-75.5 1392.16,-75.5 1392.16,-56.5 1306.16,-56.5"/>
<text text-anchor="middle" x="1349.16" y="-63.5" font-family="Helvetica,sans-Serif" font-size="10.00">MCP23017.ipp</text>
</a>
</g>
</g>
<!-- Node7&#45;&gt;Node8 -->
<g id="edge8" class="edge">
<title>Node7&#45;&gt;Node8</title>
<path fill="none" stroke="midnightblue" d="M1343.99,-102.1C1343.03,-93.14 1343.09,-82.86 1344.36,-75.75"/>
<polygon fill="midnightblue" stroke="midnightblue" points="1340.56,-102.8 1345.67,-112.08 1347.46,-101.64 1340.56,-102.8"/>
</g>
<!-- Node8&#45;&gt;Node7 -->
<g id="edge9" class="edge">
<title>Node8&#45;&gt;Node7</title>
<path fill="none" stroke="midnightblue" d="M1356.31,-85.69C1357.29,-94.64 1357.24,-104.93 1356,-112.08"/>
<polygon fill="midnightblue" stroke="midnightblue" points="1359.75,-85.02 1354.62,-75.75 1352.85,-86.2 1359.75,-85.02"/>
</g>
<!-- Node10 -->
<g id="node10" class="node">
<title>Node10</title>
<g id="a_node10"><a xlink:href="../../d7/d88/SPIShiftRegisterOut_8hpp.html" target="_top" xlink:title=" ">
<polygon fill="white" stroke="black" points="1566.16,-56.5 1566.16,-75.5 1698.16,-75.5 1698.16,-56.5 1566.16,-56.5"/>
<text text-anchor="middle" x="1632.16" y="-63.5" font-family="Helvetica,sans-Serif" font-size="10.00">SPIShiftRegisterOut.hpp</text>
</a>
</g>
</g>
<!-- Node9&#45;&gt;Node10 -->
<g id="edge11" class="edge">
<title>Node9&#45;&gt;Node10</title>
<path fill="none" stroke="midnightblue" d="M1630.23,-101.8C1630.72,-92.91 1631.29,-82.78 1631.68,-75.75"/>
<polygon fill="midnightblue" stroke="midnightblue" points="1626.72,-101.9 1629.66,-112.08 1633.71,-102.29 1626.72,-101.9"/>
</g>
<!-- Node12 -->
<g id="node12" class="node">
<title>Node12</title>
<g id="a_node12"><a xlink:href="../../d0/db4/ShiftRegisterOut_8hpp.html" target="_top" xlink:title=" ">
<polygon fill="white" stroke="black" points="1716.66,-56.5 1716.66,-75.5 1833.66,-75.5 1833.66,-56.5 1716.66,-56.5"/>
<text text-anchor="middle" x="1775.16" y="-63.5" font-family="Helvetica,sans-Serif" font-size="10.00">ShiftRegisterOut.hpp</text>
</a>
</g>
</g>
<!-- Node9&#45;&gt;Node12 -->
<g id="edge14" class="edge">
<title>Node9&#45;&gt;Node12</title>
<path fill="none" stroke="midnightblue" d="M1661.86,-108.91C1689.31,-98.75 1727.83,-84.51 1752.14,-75.52"/>
<polygon fill="midnightblue" stroke="midnightblue" points="1660.46,-105.69 1652.3,-112.44 1662.89,-112.26 1660.46,-105.69"/>
</g>
<!-- Node14 -->
<g id="node14" class="node">
<title>Node14</title>
<g id="a_node14"><a xlink:href="../../d5/d47/ShiftRegisterOutBase_8ipp.html" target="_top" xlink:title=" ">
<polygon fill="white" stroke="black" points="1410.16,-56.5 1410.16,-75.5 1548.16,-75.5 1548.16,-56.5 1410.16,-56.5"/>
<text text-anchor="middle" x="1479.16" y="-63.5" font-family="Helvetica,sans-Serif" font-size="10.00">ShiftRegisterOutBase.ipp</text>
</a>
</g>
</g>
<!-- Node9&#45;&gt;Node14 -->
<g id="edge17" class="edge">
<title>Node9&#45;&gt;Node14</title>
<path fill="none" stroke="midnightblue" d="M1590.61,-109.17C1560.78,-99 1520.93,-84.59 1497.74,-75.52"/>
<polygon fill="midnightblue" stroke="midnightblue" points="1589.71,-112.56 1600.31,-112.44 1591.95,-105.93 1589.71,-112.56"/>
</g>
<!-- Node11 -->
<g id="node11" class="node">
<title>Node11</title>
<g id="a_node11"><a xlink:href="../../da/d45/SPIShiftRegisterOut_8ipp.html" target="_top" xlink:title=" ">
<polygon fill="white" stroke="black" points="1567.66,-0.5 1567.66,-19.5 1696.66,-19.5 1696.66,-0.5 1567.66,-0.5"/>
<text text-anchor="middle" x="1632.16" y="-7.5" font-family="Helvetica,sans-Serif" font-size="10.00">SPIShiftRegisterOut.ipp</text>
</a>
</g>
</g>
<!-- Node10&#45;&gt;Node11 -->
<g id="edge12" class="edge">
<title>Node10&#45;&gt;Node11</title>
<path fill="none" stroke="midnightblue" d="M1625.69,-46.1C1625.06,-37.14 1625.51,-26.86 1627.03,-19.75"/>
<polygon fill="midnightblue" stroke="midnightblue" points="1622.23,-46.62 1627,-56.08 1629.17,-45.71 1622.23,-46.62"/>
</g>
<!-- Node11&#45;&gt;Node10 -->
<g id="edge13" class="edge">
<title>Node11&#45;&gt;Node10</title>
<path fill="none" stroke="midnightblue" d="M1638.62,-29.69C1639.27,-38.64 1638.84,-48.93 1637.33,-56.08"/>
<polygon fill="midnightblue" stroke="midnightblue" points="1642.09,-29.2 1637.29,-19.75 1635.15,-30.13 1642.09,-29.2"/>
</g>
<!-- Node13 -->
<g id="node13" class="node">
<title>Node13</title>
<g id="a_node13"><a xlink:href="../../de/d95/ShiftRegisterOut_8ipp.html" target="_top" xlink:title=" ">
<polygon fill="white" stroke="black" points="1718.16,-0.5 1718.16,-19.5 1832.16,-19.5 1832.16,-0.5 1718.16,-0.5"/>
<text text-anchor="middle" x="1775.16" y="-7.5" font-family="Helvetica,sans-Serif" font-size="10.00">ShiftRegisterOut.ipp</text>
</a>
</g>
</g>
<!-- Node12&#45;&gt;Node13 -->
<g id="edge15" class="edge">
<title>Node12&#45;&gt;Node13</title>
<path fill="none" stroke="midnightblue" d="M1768.69,-46.1C1768.06,-37.14 1768.51,-26.86 1770.03,-19.75"/>
<polygon fill="midnightblue" stroke="midnightblue" points="1765.23,-46.62 1770,-56.08 1772.17,-45.71 1765.23,-46.62"/>
</g>
<!-- Node13&#45;&gt;Node12 -->
<g id="edge16" class="edge">
<title>Node13&#45;&gt;Node12</title>
<path fill="none" stroke="midnightblue" d="M1781.62,-29.69C1782.27,-38.64 1781.84,-48.93 1780.33,-56.08"/>
<polygon fill="midnightblue" stroke="midnightblue" points="1785.09,-29.2 1780.29,-19.75 1778.15,-30.13 1785.09,-29.2"/>
</g>
<!-- Node14&#45;&gt;Node9 -->
<g id="edge18" class="edge">
<title>Node14&#45;&gt;Node9</title>
<path fill="none" stroke="midnightblue" d="M1517.58,-78.78C1547.39,-88.94 1587.24,-103.36 1610.48,-112.44"/>
<polygon fill="midnightblue" stroke="midnightblue" points="1518.49,-75.4 1507.9,-75.52 1516.26,-82.03 1518.49,-75.4"/>
</g>
<!-- Node16 -->
<g id="node16" class="node">
<title>Node16</title>
<g id="a_node16"><a xlink:href="../../d2/d3c/Arduino-Hardware-Types_8hpp.html" target="_top" xlink:title=" ">
<polygon fill="white" stroke="black" points="1083.66,-336.5 1083.66,-355.5 1240.66,-355.5 1240.66,-336.5 1083.66,-336.5"/>
<text text-anchor="middle" x="1162.16" y="-343.5" font-family="Helvetica,sans-Serif" font-size="10.00">Arduino&#45;Hardware&#45;Types.hpp</text>
</a>
</g>
</g>
<!-- Node15&#45;&gt;Node16 -->
<g id="edge20" class="edge">
<title>Node15&#45;&gt;Node16</title>
<path fill="none" stroke="midnightblue" d="M1288.68,-389.17C1258.18,-379 1214.92,-364.59 1187.71,-355.52"/>
<polygon fill="midnightblue" stroke="midnightblue" points="1287.9,-392.6 1298.49,-392.44 1290.11,-385.96 1287.9,-392.6"/>
</g>
<!-- Node26 -->
<g id="node26" class="node">
<title>Node26</title>
<g id="a_node26"><a xlink:href="../../d9/d4b/ButtonMatrix_8hpp.html" target="_top" xlink:title=" ">
<polygon fill="white" stroke="black" points="727.66,-168.5 727.66,-187.5 828.66,-187.5 828.66,-168.5 727.66,-168.5"/>
<text text-anchor="middle" x="778.16" y="-175.5" font-family="Helvetica,sans-Serif" font-size="10.00">ButtonMatrix.hpp</text>
</a>
</g>
</g>
<!-- Node15&#45;&gt;Node26 -->
<g id="edge50" class="edge">
<title>Node15&#45;&gt;Node26</title>
<path fill="none" stroke="midnightblue" d="M1256.02,-393.92C1111.81,-377.36 783.7,-330.74 720.16,-244 704.35,-222.4 738.13,-199.6 760.48,-187.58"/>
<polygon fill="midnightblue" stroke="midnightblue" points="1255.75,-397.41 1266.08,-395.06 1256.54,-390.46 1255.75,-397.41"/>
</g>
<!-- Node27 -->
<g id="node27" class="node">
<title>Node27</title>
<g id="a_node27"><a xlink:href="../../d4/d57/ExtendedIOElement_8hpp.html" target="_top" xlink:title=" ">
<polygon fill="white" stroke="black" points="1548.16,-224.5 1548.16,-243.5 1682.16,-243.5 1682.16,-224.5 1548.16,-224.5"/>
<text text-anchor="middle" x="1615.16" y="-231.5" font-family="Helvetica,sans-Serif" font-size="10.00">ExtendedIOElement.hpp</text>
</a>
</g>
</g>
<!-- Node15&#45;&gt;Node27 -->
<g id="edge51" class="edge">
<title>Node15&#45;&gt;Node27</title>
<path fill="none" stroke="midnightblue" d="M1355.11,-388.59C1396.91,-371.25 1473.11,-337.67 1533.16,-300 1561.17,-282.43 1590.8,-256.99 1605.59,-243.75"/>
<polygon fill="midnightblue" stroke="midnightblue" points="1353.66,-385.4 1345.74,-392.43 1356.32,-391.87 1353.66,-385.4"/>
</g>
<!-- Node30 -->
<g id="node30" class="node">
<title>Node30</title>
<g id="a_node30"><a xlink:href="../../d8/df3/FilteredAnalog_8hpp.html" target="_top" xlink:title=" ">
<polygon fill="white" stroke="black" points="1270.16,-224.5 1270.16,-243.5 1378.16,-243.5 1378.16,-224.5 1270.16,-224.5"/>
<text text-anchor="middle" x="1324.16" y="-231.5" font-family="Helvetica,sans-Serif" font-size="10.00">FilteredAnalog.hpp</text>
</a>
</g>
</g>
<!-- Node15&#45;&gt;Node30 -->
<g id="edge52" class="edge">
<title>Node15&#45;&gt;Node30</title>
<path fill="none" stroke="midnightblue" d="M1324.16,-381.93C1324.16,-345.92 1324.16,-269.23 1324.16,-243.57"/>
<polygon fill="midnightblue" stroke="midnightblue" points="1320.66,-382.08 1324.16,-392.08 1327.66,-382.08 1320.66,-382.08"/>
</g>
<!-- Node17 -->
<g id="node17" class="node">
<title>Node17</title>
<g id="a_node17"><a xlink:href="../../dd/ddf/ExtendedInputOutput_8hpp.html" target="_top" xlink:title=" ">
<polygon fill="white" stroke="black" points="1036.66,-280.5 1036.66,-299.5 1177.66,-299.5 1177.66,-280.5 1036.66,-280.5"/>
<text text-anchor="middle" x="1107.16" y="-287.5" font-family="Helvetica,sans-Serif" font-size="10.00">ExtendedInputOutput.hpp</text>
</a>
</g>
</g>
<!-- Node16&#45;&gt;Node17 -->
<g id="edge21" class="edge">
<title>Node16&#45;&gt;Node17</title>
<path fill="none" stroke="midnightblue" d="M1145.87,-329C1136.12,-319.43 1124.11,-307.64 1116.08,-299.75"/>
<polygon fill="midnightblue" stroke="midnightblue" points="1143.49,-331.57 1153.08,-336.08 1148.4,-326.58 1143.49,-331.57"/>
</g>
<!-- Node17&#45;&gt;Node3 -->
<g id="edge22" class="edge">
<title>Node17&#45;&gt;Node3</title>
<path fill="none" stroke="midnightblue" d="M1026.51,-286.17C800.69,-277.52 174.04,-248.28 105.16,-188 88.71,-173.6 86.13,-145.81 85.96,-131.69"/>
<polygon fill="midnightblue" stroke="midnightblue" points="1026.51,-289.67 1036.64,-286.56 1026.78,-282.68 1026.51,-289.67"/>
</g>
<!-- Node17&#45;&gt;Node7 -->
<g id="edge44" class="edge">
<title>Node17&#45;&gt;Node7</title>
<path fill="none" stroke="midnightblue" d="M1026.1,-285.13C918.74,-279.16 740.52,-266.06 720.16,-244 697.25,-219.17 695.13,-192.73 718.16,-168 758.1,-125.12 1168.84,-122.43 1306.49,-122.75"/>
<polygon fill="midnightblue" stroke="midnightblue" points="1026.08,-288.63 1036.26,-285.68 1026.46,-281.64 1026.08,-288.63"/>
</g>
<!-- Node17&#45;&gt;Node9 -->
<g id="edge48" class="edge">
<title>Node17&#45;&gt;Node9</title>
<path fill="none" stroke="midnightblue" d="M1129.04,-274.84C1151.04,-260.92 1186.19,-239.57 1218.16,-224 1257.27,-204.95 1269.21,-205.18 1309.16,-188 1328.53,-179.68 1332.02,-174.19 1352.16,-168 1390.58,-156.19 1494.55,-140.91 1563.61,-131.54"/>
<polygon fill="midnightblue" stroke="midnightblue" points="1127.02,-271.98 1120.47,-280.31 1130.78,-277.88 1127.02,-271.98"/>
</g>
<!-- Node17&#45;&gt;Node11 -->
<g id="edge46" class="edge">
<title>Node17&#45;&gt;Node11</title>
<path fill="none" stroke="midnightblue" d="M1026.4,-288.43C838.12,-286.53 374.63,-278.41 223.16,-244 117.49,-220 -56.03,-190.98 18.16,-112 72.11,-54.58 1272.68,-20.19 1567.32,-12.6"/>
<polygon fill="midnightblue" stroke="midnightblue" points="1026.47,-291.93 1036.5,-288.53 1026.54,-284.93 1026.47,-291.93"/>
</g>
<!-- Node17&#45;&gt;Node13 -->
<g id="edge47" class="edge">
<title>Node17&#45;&gt;Node13</title>
<path fill="none" stroke="midnightblue" d="M1122.09,-272.65C1135.97,-258.23 1157.82,-237.49 1180.16,-224 1219.17,-200.45 1247.34,-223.29 1276.16,-188 1313.74,-141.99 1253.71,-96.51 1297.16,-56 1330.53,-24.89 1660.81,-24.95 1706.16,-20 1710.01,-19.58 1713.97,-19.13 1717.96,-18.65"/>
<polygon fill="midnightblue" stroke="midnightblue" points="1119.2,-270.61 1114.9,-280.3 1124.3,-275.41 1119.2,-270.61"/>
</g>
<!-- Node17&#45;&gt;Node14 -->
<g id="edge49" class="edge">
<title>Node17&#45;&gt;Node14</title>
<path fill="none" stroke="midnightblue" d="M1026.49,-281.78C995.36,-275.64 961.09,-264.43 935.16,-244 906.64,-221.52 880.43,-194.59 905.16,-168 943.03,-127.3 1352.81,-153.29 1404.16,-132 1434.09,-119.59 1460.51,-90.35 1472.43,-75.7"/>
<polygon fill="midnightblue" stroke="midnightblue" points="1026,-285.25 1036.47,-283.59 1027.26,-278.36 1026,-285.25"/>
</g>
<!-- Node18 -->
<g id="node18" class="node">
<title>Node18</title>
<g id="a_node18"><a xlink:href="../../d4/db3/Button_8hpp.html" target="_top" xlink:title=" ">
<polygon fill="white" stroke="black" points="481.16,-224.5 481.16,-243.5 551.16,-243.5 551.16,-224.5 481.16,-224.5"/>
<text text-anchor="middle" x="516.16" y="-231.5" font-family="Helvetica,sans-Serif" font-size="10.00">Button.hpp</text>
</a>
</g>
</g>
<!-- Node17&#45;&gt;Node18 -->
<g id="edge23" class="edge">
<title>Node17&#45;&gt;Node18</title>
<path fill="none" stroke="midnightblue" d="M1026.13,-281.6C895.57,-269.67 643.95,-246.68 551.42,-238.22"/>
<polygon fill="midnightblue" stroke="midnightblue" points="1026.19,-285.12 1036.46,-282.54 1026.82,-278.14 1026.19,-285.12"/>
</g>
<!-- Node25 -->
<g id="node25" class="node">
<title>Node25</title>
<g id="a_node25"><a xlink:href="../../d5/d41/ButtonMatrix_8ipp.html" target="_top" xlink:title=" ">
<polygon fill="white" stroke="black" points="729.16,-224.5 729.16,-243.5 827.16,-243.5 827.16,-224.5 729.16,-224.5"/>
<text text-anchor="middle" x="778.16" y="-231.5" font-family="Helvetica,sans-Serif" font-size="10.00">ButtonMatrix.ipp</text>
</a>
</g>
</g>
<!-- Node17&#45;&gt;Node25 -->
<g id="edge30" class="edge">
<title>Node17&#45;&gt;Node25</title>
<path fill="none" stroke="midnightblue" d="M1044.81,-278.77C981.67,-268.4 885.32,-252.59 827.36,-243.08"/>
<polygon fill="midnightblue" stroke="midnightblue" points="1044.6,-282.28 1055.03,-280.44 1045.73,-275.37 1044.6,-282.28"/>
</g>
<!-- Node17&#45;&gt;Node27 -->
<g id="edge33" class="edge">
<title>Node17&#45;&gt;Node27</title>
<path fill="none" stroke="midnightblue" d="M1187.96,-280.93C1274.78,-272.17 1416.79,-257.62 1539.16,-244 1542.07,-243.68 1545.04,-243.34 1548.03,-243"/>
<polygon fill="midnightblue" stroke="midnightblue" points="1187.51,-277.45 1177.91,-281.94 1188.21,-284.42 1187.51,-277.45"/>
</g>
<!-- Node17&#45;&gt;Node29 -->
<g id="edge37" class="edge">
<title>Node17&#45;&gt;Node29</title>
<path fill="none" stroke="midnightblue" d="M1138.74,-276.69C1161.05,-267.87 1191.59,-255.56 1218.16,-244 1237.49,-235.59 1241.34,-231.17 1261.16,-224 1304.66,-208.27 1356.21,-195.4 1391.05,-187.51"/>
<polygon fill="midnightblue" stroke="midnightblue" points="1137.44,-273.44 1129.41,-280.36 1140,-279.95 1137.44,-273.44"/>
</g>
<!-- Node17&#45;&gt;Node30 -->
<g id="edge38" class="edge">
<title>Node17&#45;&gt;Node30</title>
<path fill="none" stroke="midnightblue" d="M1151.27,-278.02C1192.26,-267.82 1252.47,-252.84 1289.94,-243.52"/>
<polygon fill="midnightblue" stroke="midnightblue" points="1150.41,-274.63 1141.55,-280.44 1152.1,-281.43 1150.41,-274.63"/>
</g>
<!-- Node31 -->
<g id="node31" class="node">
<title>Node31</title>
<g id="a_node31"><a xlink:href="../../d9/d4f/LEDs_8hpp.html" target="_top" xlink:title=" ">
<polygon fill="white" stroke="black" points="1076.16,-224.5 1076.16,-243.5 1138.16,-243.5 1138.16,-224.5 1076.16,-224.5"/>
<text text-anchor="middle" x="1107.16" y="-231.5" font-family="Helvetica,sans-Serif" font-size="10.00">LEDs.hpp</text>
</a>
</g>
</g>
<!-- Node17&#45;&gt;Node31 -->
<g id="edge39" class="edge">
<title>Node17&#45;&gt;Node31</title>
<path fill="none" stroke="midnightblue" d="M1107.16,-269.8C1107.16,-260.91 1107.16,-250.78 1107.16,-243.75"/>
<polygon fill="midnightblue" stroke="midnightblue" points="1103.66,-270.08 1107.16,-280.08 1110.66,-270.08 1103.66,-270.08"/>
</g>
<!-- Node33 -->
<g id="node33" class="node">
<title>Node33</title>
<g id="a_node33"><a xlink:href="../../d7/d13/MAX7219__Base_8hpp.html" target="_top" xlink:title=" ">
<polygon fill="white" stroke="black" points="944.66,-224.5 944.66,-243.5 1057.66,-243.5 1057.66,-224.5 944.66,-224.5"/>
<text text-anchor="middle" x="1001.16" y="-231.5" font-family="Helvetica,sans-Serif" font-size="10.00">MAX7219_Base.hpp</text>
</a>
</g>
</g>
<!-- Node17&#45;&gt;Node33 -->
<g id="edge41" class="edge">
<title>Node17&#45;&gt;Node33</title>
<path fill="none" stroke="midnightblue" d="M1081.11,-275.73C1061.48,-265.73 1035.14,-252.31 1018.15,-243.65"/>
<polygon fill="midnightblue" stroke="midnightblue" points="1079.63,-278.9 1090.13,-280.32 1082.81,-272.67 1079.63,-278.9"/>
</g>
<!-- Node35 -->
<g id="node35" class="node">
<title>Node35</title>
<g id="a_node35"><a xlink:href="../../d8/dd2/MCP23017Encoders_8hpp.html" target="_top" xlink:title=" ">
<polygon fill="white" stroke="black" points="1396.16,-224.5 1396.16,-243.5 1530.16,-243.5 1530.16,-224.5 1396.16,-224.5"/>
<text text-anchor="middle" x="1463.16" y="-231.5" font-family="Helvetica,sans-Serif" font-size="10.00">MCP23017Encoders.hpp</text>
</a>
</g>
</g>
<!-- Node17&#45;&gt;Node35 -->
<g id="edge45" class="edge">
<title>Node17&#45;&gt;Node35</title>
<path fill="none" stroke="midnightblue" d="M1173.64,-278.92C1240.89,-268.71 1343.72,-253.12 1407.02,-243.52"/>
<polygon fill="midnightblue" stroke="midnightblue" points="1172.93,-275.48 1163.57,-280.44 1173.98,-282.4 1172.93,-275.48"/>
</g>
<!-- Node19 -->
<g id="node19" class="node">
<title>Node19</title>
<g id="a_node19"><a xlink:href="../../de/dd1/Button_8cpp.html" target="_top" xlink:title=" ">
<polygon fill="white" stroke="black" points="601.66,-168.5 601.66,-187.5 670.66,-187.5 670.66,-168.5 601.66,-168.5"/>
<text text-anchor="middle" x="636.16" y="-175.5" font-family="Helvetica,sans-Serif" font-size="10.00">Button.cpp</text>
</a>
</g>
</g>
<!-- Node18&#45;&gt;Node19 -->
<g id="edge24" class="edge">
<title>Node18&#45;&gt;Node19</title>
<path fill="none" stroke="midnightblue" d="M544.54,-220.23C566.98,-210.13 597.7,-196.31 617.24,-187.52"/>
<polygon fill="midnightblue" stroke="midnightblue" points="542.86,-217.15 535.18,-224.44 545.73,-223.53 542.86,-217.15"/>
</g>
<!-- Node20 -->
<g id="node20" class="node">
<title>Node20</title>
<g id="a_node20"><a xlink:href="../../d5/d04/IncrementButton_8hpp.html" target="_top" xlink:title=" ">
<polygon fill="white" stroke="black" points="114.66,-168.5 114.66,-187.5 233.66,-187.5 233.66,-168.5 114.66,-168.5"/>
<text text-anchor="middle" x="174.16" y="-175.5" font-family="Helvetica,sans-Serif" font-size="10.00">IncrementButton.hpp</text>
</a>
</g>
</g>
<!-- Node18&#45;&gt;Node20 -->
<g id="edge25" class="edge">
<title>Node18&#45;&gt;Node20</title>
<path fill="none" stroke="midnightblue" d="M470.87,-225.85C408.23,-215.96 295.31,-198.13 228.3,-187.55"/>
<polygon fill="midnightblue" stroke="midnightblue" points="470.43,-229.32 480.85,-227.42 471.52,-222.41 470.43,-229.32"/>
</g>
<!-- Node22 -->
<g id="node22" class="node">
<title>Node22</title>
<g id="a_node22"><a xlink:href="../../df/df5/IncrementDecrementButtons_8hpp.html" target="_top" xlink:title=" ">
<polygon fill="white" stroke="black" points="251.66,-168.5 251.66,-187.5 430.66,-187.5 430.66,-168.5 251.66,-168.5"/>
<text text-anchor="middle" x="341.16" y="-175.5" font-family="Helvetica,sans-Serif" font-size="10.00">IncrementDecrementButtons.hpp</text>
</a>
</g>
</g>
<!-- Node18&#45;&gt;Node22 -->
<g id="edge27" class="edge">
<title>Node18&#45;&gt;Node22</title>
<path fill="none" stroke="midnightblue" d="M478.69,-221.44C445.69,-211.26 398.41,-196.66 368.76,-187.52"/>
<polygon fill="midnightblue" stroke="midnightblue" points="477.85,-224.84 488.43,-224.44 479.91,-218.15 477.85,-224.84"/>
</g>
<!-- Node24 -->
<g id="node24" class="node">
<title>Node24</title>
<g id="a_node24"><a xlink:href="../../dc/dc5/MultiPurposeButton_8hpp.html" target="_top" xlink:title=" ">
<polygon fill="white" stroke="black" points="449.16,-168.5 449.16,-187.5 583.16,-187.5 583.16,-168.5 449.16,-168.5"/>
<text text-anchor="middle" x="516.16" y="-175.5" font-family="Helvetica,sans-Serif" font-size="10.00">MultiPurposeButton.hpp</text>
</a>
</g>
</g>
<!-- Node18&#45;&gt;Node24 -->
<g id="edge29" class="edge">
<title>Node18&#45;&gt;Node24</title>
<path fill="none" stroke="midnightblue" d="M516.16,-213.8C516.16,-204.91 516.16,-194.78 516.16,-187.75"/>
<polygon fill="midnightblue" stroke="midnightblue" points="512.66,-214.08 516.16,-224.08 519.66,-214.08 512.66,-214.08"/>
</g>
<!-- Node21 -->
<g id="node21" class="node">
<title>Node21</title>
<g id="a_node21"><a xlink:href="../../db/d9d/IncrementButton_8cpp.html" target="_top" xlink:title=" ">
<polygon fill="white" stroke="black" points="162.66,-112.5 162.66,-131.5 281.66,-131.5 281.66,-112.5 162.66,-112.5"/>
<text text-anchor="middle" x="222.16" y="-119.5" font-family="Helvetica,sans-Serif" font-size="10.00">IncrementButton.cpp</text>
</a>
</g>
</g>
<!-- Node20&#45;&gt;Node21 -->
<g id="edge26" class="edge">
<title>Node20&#45;&gt;Node21</title>
<path fill="none" stroke="midnightblue" d="M188.89,-160.43C197.3,-150.97 207.51,-139.48 214.38,-131.75"/>
<polygon fill="midnightblue" stroke="midnightblue" points="186.12,-158.28 182.09,-168.08 191.35,-162.93 186.12,-158.28"/>
</g>
<!-- Node23 -->
<g id="node23" class="node">
<title>Node23</title>
<g id="a_node23"><a xlink:href="../../da/d66/IncrementDecrementButtons_8cpp.html" target="_top" xlink:title=" ">
<polygon fill="white" stroke="black" points="300.16,-112.5 300.16,-131.5 478.16,-131.5 478.16,-112.5 300.16,-112.5"/>
<text text-anchor="middle" x="389.16" y="-119.5" font-family="Helvetica,sans-Serif" font-size="10.00">IncrementDecrementButtons.cpp</text>
</a>
</g>
</g>
<!-- Node22&#45;&gt;Node23 -->
<g id="edge28" class="edge">
<title>Node22&#45;&gt;Node23</title>
<path fill="none" stroke="midnightblue" d="M355.89,-160.43C364.3,-150.97 374.51,-139.48 381.38,-131.75"/>
<polygon fill="midnightblue" stroke="midnightblue" points="353.12,-158.28 349.09,-168.08 358.35,-162.93 353.12,-158.28"/>
</g>
<!-- Node25&#45;&gt;Node26 -->
<g id="edge31" class="edge">
<title>Node25&#45;&gt;Node26</title>
<path fill="none" stroke="midnightblue" d="M771.69,-214.1C771.06,-205.14 771.51,-194.86 773.03,-187.75"/>
<polygon fill="midnightblue" stroke="midnightblue" points="768.23,-214.62 773,-224.08 775.17,-213.71 768.23,-214.62"/>
</g>
<!-- Node26&#45;&gt;Node25 -->
<g id="edge32" class="edge">
<title>Node26&#45;&gt;Node25</title>
<path fill="none" stroke="midnightblue" d="M784.62,-197.69C785.27,-206.64 784.84,-216.93 783.33,-224.08"/>
<polygon fill="midnightblue" stroke="midnightblue" points="788.09,-197.2 783.29,-187.75 781.15,-198.13 788.09,-197.2"/>
</g>
<!-- Node27&#45;&gt;Node5 -->
<g id="edge36" class="edge">
<title>Node27&#45;&gt;Node5</title>
<path fill="none" stroke="midnightblue" d="M1613.41,-214.1C1612.58,-205.14 1611.63,-194.86 1610.97,-187.75"/>
<polygon fill="midnightblue" stroke="midnightblue" points="1609.93,-214.45 1614.34,-224.08 1616.9,-213.8 1609.93,-214.45"/>
</g>
<!-- Node27&#45;&gt;Node28 -->
<g id="edge34" class="edge">
<title>Node27&#45;&gt;Node28</title>
<path fill="none" stroke="midnightblue" d="M1652.2,-221.3C1684.42,-211.13 1730.35,-196.62 1759.19,-187.52"/>
<polygon fill="midnightblue" stroke="midnightblue" points="1650.74,-218.09 1642.26,-224.44 1652.85,-224.77 1650.74,-218.09"/>
</g>
<!-- Node27&#45;&gt;Node29 -->
<g id="edge35" class="edge">
<title>Node27&#45;&gt;Node29</title>
<path fill="none" stroke="midnightblue" d="M1576.21,-221.57C1541.5,-211.38 1491.49,-196.7 1460.18,-187.52"/>
<polygon fill="midnightblue" stroke="midnightblue" points="1575.43,-224.99 1586.01,-224.44 1577.4,-218.27 1575.43,-224.99"/>
</g>
<!-- Node32 -->
<g id="node32" class="node">
<title>Node32</title>
<g id="a_node32"><a xlink:href="../../d6/d3a/DotBarDisplayLEDs_8hpp.html" target="_top" xlink:title=" ">
<polygon fill="white" stroke="black" points="1135.16,-168.5 1135.16,-187.5 1267.16,-187.5 1267.16,-168.5 1135.16,-168.5"/>
<text text-anchor="middle" x="1201.16" y="-175.5" font-family="Helvetica,sans-Serif" font-size="10.00">DotBarDisplayLEDs.hpp</text>
</a>
</g>
</g>
<!-- Node31&#45;&gt;Node32 -->
<g id="edge40" class="edge">
<title>Node31&#45;&gt;Node32</title>
<path fill="none" stroke="midnightblue" d="M1131.23,-219.18C1148.52,-209.24 1171.31,-196.15 1186.1,-187.65"/>
<polygon fill="midnightblue" stroke="midnightblue" points="1129.19,-216.31 1122.27,-224.32 1132.68,-222.38 1129.19,-216.31"/>
</g>
<!-- Node33&#45;&gt;Node6 -->
<g id="edge42" class="edge">
<title>Node33&#45;&gt;Node6</title>
<path fill="none" stroke="midnightblue" d="M963,-221.01C931.16,-209.13 893.99,-189.61 914.16,-168 953.99,-125.34 1380.15,-138.33 1438.16,-132 1443.92,-131.37 1449.98,-130.6 1455.93,-129.77"/>
<polygon fill="midnightblue" stroke="midnightblue" points="962.04,-224.39 972.64,-224.45 964.39,-217.8 962.04,-224.39"/>
</g>
<!-- Node34 -->
<g id="node34" class="node">
<title>Node34</title>
<g id="a_node34"><a xlink:href="../../d5/d0c/MAX7219SevenSegmentDisplay_8hpp.html" target="_top" xlink:title=" ">
<polygon fill="white" stroke="black" points="923.66,-168.5 923.66,-187.5 1116.66,-187.5 1116.66,-168.5 923.66,-168.5"/>
<text text-anchor="middle" x="1020.16" y="-175.5" font-family="Helvetica,sans-Serif" font-size="10.00">MAX7219SevenSegmentDisplay.hpp</text>
</a>
</g>
</g>
<!-- Node33&#45;&gt;Node34 -->
<g id="edge43" class="edge">
<title>Node33&#45;&gt;Node34</title>
<path fill="none" stroke="midnightblue" d="M1007.71,-214.4C1010.89,-205.36 1014.56,-194.94 1017.08,-187.75"/>
<polygon fill="midnightblue" stroke="midnightblue" points="1004.32,-213.49 1004.3,-224.08 1010.92,-215.81 1004.32,-213.49"/>
</g>
<!-- Node36&#45;&gt;Node35 -->
<g id="edge54" class="edge">
<title>Node36&#45;&gt;Node35</title>
<path fill="none" stroke="midnightblue" d="M1463.16,-269.8C1463.16,-260.91 1463.16,-250.78 1463.16,-243.75"/>
<polygon fill="midnightblue" stroke="midnightblue" points="1459.66,-270.08 1463.16,-280.08 1466.66,-270.08 1459.66,-270.08"/>
</g>
<!-- Node37&#45;&gt;Node6 -->
<g id="edge56" class="edge">
<title>Node37&#45;&gt;Node6</title>
<path fill="none" stroke="midnightblue" d="M1860.81,-167.9C1722,-147.05 1684.48,-151.7 1549.16,-132 1546.32,-131.59 1543.38,-131.13 1540.43,-130.66"/>
<polygon fill="midnightblue" stroke="midnightblue" points="1860.57,-171.4 1870.99,-169.44 1861.62,-164.48 1860.57,-171.4"/>
</g>
<!-- Node37&#45;&gt;Node7 -->
<g id="edge57" class="edge">
<title>Node37&#45;&gt;Node7</title>
<path fill="none" stroke="midnightblue" d="M1860.99,-167.97C1677.08,-142.76 1628.31,-148.35 1447.16,-132 1430.49,-130.5 1412.2,-128.79 1396.09,-127.28"/>
<polygon fill="midnightblue" stroke="midnightblue" points="1860.61,-171.45 1871,-169.35 1861.57,-164.52 1860.61,-171.45"/>
</g>
<!-- Node37&#45;&gt;Node9 -->
<g id="edge58" class="edge">
<title>Node37&#45;&gt;Node9</title>
<path fill="none" stroke="midnightblue" d="M1861.01,-167.71C1808.38,-157.56 1724.73,-141.43 1673.6,-131.57"/>
<polygon fill="midnightblue" stroke="midnightblue" points="1860.63,-171.2 1871.11,-169.66 1861.95,-164.33 1860.63,-171.2"/>
</g>
<!-- Node39&#45;&gt;Node27 -->
<g id="edge63" class="edge">
<title>Node39&#45;&gt;Node27</title>
<path fill="none" stroke="midnightblue" d="M1663,-327.32C1650.59,-303.37 1628.92,-261.55 1619.62,-243.59"/>
<polygon fill="midnightblue" stroke="midnightblue" points="1659.98,-329.1 1667.69,-336.37 1666.2,-325.88 1659.98,-329.1"/>
</g>
</g>
</svg>
