<?xml version="1.0" encoding="UTF-8" standalone="no"?>
<!DOCTYPE svg PUBLIC "-//W3C//DTD SVG 1.1//EN"
 "http://www.w3.org/Graphics/SVG/1.1/DTD/svg11.dtd">
<!-- Generated by graphviz version 2.43.0 (0)
 -->
<!-- Title: MCP23017Encoders.hpp Pages: 1 -->
<svg width="1280pt" height="789pt"
 viewBox="0.00 0.00 1280.00 789.00" xmlns="http://www.w3.org/2000/svg" xmlns:xlink="http://www.w3.org/1999/xlink">
<g id="graph0" class="graph" transform="scale(1 1) rotate(0) translate(4 785)">
<title>MCP23017Encoders.hpp</title>
<polygon fill="white" stroke="transparent" points="-4,4 -4,-785 1276,-785 1276,4 -4,4"/>
<!-- Node1 -->
<g id="node1" class="node">
<title>Node1</title>
<g id="a_node1"><a xlink:title=" ">
<polygon fill="#bfbfbf" stroke="black" points="791,-761.5 791,-780.5 925,-780.5 925,-761.5 791,-761.5"/>
<text text-anchor="middle" x="858" y="-768.5" font-family="Helvetica,sans-Serif" font-size="10.00">MCP23017Encoders.hpp</text>
</a>
</g>
</g>
<!-- Node2 -->
<g id="node2" class="node">
<title>Node2</title>
<g id="a_node2"><a xlink:href="../../d6/ddf/Arduino-Wrapper_8h.html" target="_top" xlink:title=" ">
<polygon fill="white" stroke="black" points="35,-168.5 35,-187.5 159,-187.5 159,-168.5 35,-168.5"/>
<text text-anchor="middle" x="97" y="-175.5" font-family="Helvetica,sans-Serif" font-size="10.00">AH/Arduino&#45;Wrapper.h</text>
</a>
</g>
</g>
<!-- Node1&#45;&gt;Node2 -->
<g id="edge1" class="edge">
<title>Node1&#45;&gt;Node2</title>
<path fill="none" stroke="midnightblue" d="M790.67,-767.15C588.41,-757.68 0,-723.3 0,-643.5 0,-643.5 0,-643.5 0,-289 0,-245.35 43.51,-210.83 72.24,-192.79"/>
<polygon fill="midnightblue" stroke="midnightblue" points="74.23,-195.68 80.98,-187.52 70.61,-189.68 74.23,-195.68"/>
</g>
<!-- Node7 -->
<g id="node7" class="node">
<title>Node7</title>
<g id="a_node7"><a xlink:href="../../dc/dc7/NamespaceSettings_8hpp.html" target="_top" xlink:title=" ">
<polygon fill="white" stroke="black" points="815.5,-56.5 815.5,-75.5 1010.5,-75.5 1010.5,-56.5 815.5,-56.5"/>
<text text-anchor="middle" x="913" y="-63.5" font-family="Helvetica,sans-Serif" font-size="10.00">AH/Settings/NamespaceSettings.hpp</text>
</a>
</g>
</g>
<!-- Node1&#45;&gt;Node7 -->
<g id="edge49" class="edge">
<title>Node1&#45;&gt;Node7</title>
<path fill="none" stroke="midnightblue" d="M925.44,-763.45C1042.75,-750.18 1272,-715.09 1272,-643.5 1272,-643.5 1272,-643.5 1272,-177 1272,-121.19 1111.4,-90.83 1005.03,-76.84"/>
<polygon fill="midnightblue" stroke="midnightblue" points="1005.28,-73.34 994.91,-75.54 1004.38,-80.28 1005.28,-73.34"/>
</g>
<!-- Node9 -->
<g id="node9" class="node">
<title>Node9</title>
<g id="a_node9"><a xlink:href="../../dd/ddf/ExtendedInputOutput_8hpp.html" target="_top" xlink:title=" ">
<polygon fill="white" stroke="black" points="932.5,-694.5 932.5,-724.5 1109.5,-724.5 1109.5,-694.5 932.5,-694.5"/>
<text text-anchor="start" x="940.5" y="-712.5" font-family="Helvetica,sans-Serif" font-size="10.00">AH/Hardware/ExtendedInput</text>
<text text-anchor="middle" x="1021" y="-701.5" font-family="Helvetica,sans-Serif" font-size="10.00">Output/ExtendedInputOutput.hpp</text>
</a>
</g>
</g>
<!-- Node1&#45;&gt;Node9 -->
<g id="edge10" class="edge">
<title>Node1&#45;&gt;Node9</title>
<path fill="none" stroke="midnightblue" d="M881.35,-761.48C905.18,-752.78 942.85,-739.03 973.06,-728"/>
<polygon fill="midnightblue" stroke="midnightblue" points="974.39,-731.24 982.58,-724.52 971.99,-724.66 974.39,-731.24"/>
</g>
<!-- Node29 -->
<g id="node29" class="node">
<title>Node29</title>
<g id="a_node29"><a xlink:href="../../dd/ddf/RegisterEncoders_8hpp.html" target="_top" xlink:title=" ">
<polygon fill="white" stroke="black" points="138,-566 138,-585 328,-585 328,-566 138,-566"/>
<text text-anchor="middle" x="233" y="-573" font-family="Helvetica,sans-Serif" font-size="10.00">AH/Hardware/RegisterEncoders.hpp</text>
</a>
</g>
</g>
<!-- Node1&#45;&gt;Node29 -->
<g id="edge43" class="edge">
<title>Node1&#45;&gt;Node29</title>
<path fill="none" stroke="midnightblue" d="M830.34,-761.44C730.01,-730.37 385.15,-623.61 270.44,-588.09"/>
<polygon fill="midnightblue" stroke="midnightblue" points="271.28,-584.69 260.7,-585.07 269.21,-591.38 271.28,-584.69"/>
</g>
<!-- Node3 -->
<g id="node3" class="node">
<title>Node3</title>
<g id="a_node3"><a xlink:href="../../d7/d79/MinMaxFix_8hpp.html" target="_top" xlink:title=" ">
<polygon fill="white" stroke="black" points="50,-112.5 50,-131.5 186,-131.5 186,-112.5 50,-112.5"/>
<text text-anchor="middle" x="118" y="-119.5" font-family="Helvetica,sans-Serif" font-size="10.00">AH/Math/MinMaxFix.hpp</text>
</a>
</g>
</g>
<!-- Node2&#45;&gt;Node3 -->
<g id="edge2" class="edge">
<title>Node2&#45;&gt;Node3</title>
<path fill="none" stroke="midnightblue" d="M100.47,-168.08C103.31,-160.77 107.43,-150.18 110.96,-141.1"/>
<polygon fill="midnightblue" stroke="midnightblue" points="114.23,-142.34 114.6,-131.75 107.71,-139.8 114.23,-142.34"/>
</g>
<!-- Node6 -->
<g id="node6" class="node">
<title>Node6</title>
<g id="a_node6"><a xlink:title=" ">
<polygon fill="white" stroke="#bfbfbf" points="46.5,-0.5 46.5,-19.5 109.5,-19.5 109.5,-0.5 46.5,-0.5"/>
<text text-anchor="middle" x="78" y="-7.5" font-family="Helvetica,sans-Serif" font-size="10.00">Arduino.h</text>
</a>
</g>
</g>
<!-- Node2&#45;&gt;Node6 -->
<g id="edge9" class="edge">
<title>Node2&#45;&gt;Node6</title>
<path fill="none" stroke="midnightblue" d="M79.5,-168.46C66.21,-160.92 48.92,-148.53 41,-132 26.4,-101.54 29.61,-87.8 41,-56 44.94,-45 52.86,-34.77 60.36,-26.85"/>
<polygon fill="midnightblue" stroke="midnightblue" points="62.89,-29.27 67.56,-19.76 57.98,-24.28 62.89,-29.27"/>
</g>
<!-- Node8 -->
<g id="node8" class="node">
<title>Node8</title>
<g id="a_node8"><a xlink:title=" ">
<polygon fill="white" stroke="#bfbfbf" points="242.5,-112.5 242.5,-131.5 349.5,-131.5 349.5,-112.5 242.5,-112.5"/>
<text text-anchor="middle" x="296" y="-119.5" font-family="Helvetica,sans-Serif" font-size="10.00">AH/STL/type_traits</text>
</a>
</g>
</g>
<!-- Node2&#45;&gt;Node8 -->
<g id="edge8" class="edge">
<title>Node2&#45;&gt;Node8</title>
<path fill="none" stroke="midnightblue" d="M128.53,-168.44C162.59,-159.2 217.01,-144.44 254.52,-134.26"/>
<polygon fill="midnightblue" stroke="midnightblue" points="255.88,-137.51 264.62,-131.52 254.05,-130.76 255.88,-137.51"/>
</g>
<!-- Node4 -->
<g id="node4" class="node">
<title>Node4</title>
<g id="a_node4"><a xlink:href="../../d6/d3b/FixArduinoMacros_8hpp.html" target="_top" xlink:title=" ">
<polygon fill="white" stroke="black" points="50,-56.5 50,-75.5 220,-75.5 220,-56.5 50,-56.5"/>
<text text-anchor="middle" x="135" y="-63.5" font-family="Helvetica,sans-Serif" font-size="10.00">AH/Math/FixArduinoMacros.hpp</text>
</a>
</g>
</g>
<!-- Node3&#45;&gt;Node4 -->
<g id="edge3" class="edge">
<title>Node3&#45;&gt;Node4</title>
<path fill="none" stroke="midnightblue" d="M120.81,-112.08C123.08,-104.85 126.37,-94.41 129.21,-85.4"/>
<polygon fill="midnightblue" stroke="midnightblue" points="132.58,-86.34 132.25,-75.75 125.9,-84.24 132.58,-86.34"/>
</g>
<!-- Node3&#45;&gt;Node7 -->
<g id="edge6" class="edge">
<title>Node3&#45;&gt;Node7</title>
<path fill="none" stroke="midnightblue" d="M186.43,-113.25C191.02,-112.8 195.58,-112.38 200,-112 414.28,-93.49 665.42,-79.41 805.16,-72.25"/>
<polygon fill="midnightblue" stroke="midnightblue" points="805.63,-75.73 815.44,-71.72 805.28,-68.74 805.63,-75.73"/>
</g>
<!-- Node5 -->
<g id="node5" class="node">
<title>Node5</title>
<g id="a_node5"><a xlink:href="../../d1/d65/Warnings_8hpp.html" target="_top" xlink:title=" ">
<polygon fill="white" stroke="black" points="447.5,-0.5 447.5,-19.5 590.5,-19.5 590.5,-0.5 447.5,-0.5"/>
<text text-anchor="middle" x="519" y="-7.5" font-family="Helvetica,sans-Serif" font-size="10.00">AH/Settings/Warnings.hpp</text>
</a>
</g>
</g>
<!-- Node4&#45;&gt;Node5 -->
<g id="edge4" class="edge">
<title>Node4&#45;&gt;Node5</title>
<path fill="none" stroke="midnightblue" d="M195.85,-56.44C264.52,-46.79 376.07,-31.1 448.49,-20.92"/>
<polygon fill="midnightblue" stroke="midnightblue" points="449.02,-24.37 458.44,-19.52 448.05,-17.44 449.02,-24.37"/>
</g>
<!-- Node4&#45;&gt;Node6 -->
<g id="edge5" class="edge">
<title>Node4&#45;&gt;Node6</title>
<path fill="none" stroke="midnightblue" d="M125.84,-56.32C117.5,-48.42 104.97,-36.55 94.82,-26.94"/>
<polygon fill="midnightblue" stroke="midnightblue" points="96.99,-24.17 87.32,-19.83 92.18,-29.25 96.99,-24.17"/>
</g>
<!-- Node7&#45;&gt;Node5 -->
<g id="edge7" class="edge">
<title>Node7&#45;&gt;Node5</title>
<path fill="none" stroke="midnightblue" d="M850.57,-56.44C780.11,-46.79 665.65,-31.1 591.35,-20.92"/>
<polygon fill="midnightblue" stroke="midnightblue" points="591.52,-17.41 581.14,-19.52 590.57,-24.34 591.52,-17.41"/>
</g>
<!-- Node9&#45;&gt;Node7 -->
<g id="edge42" class="edge">
<title>Node9&#45;&gt;Node7</title>
<path fill="none" stroke="midnightblue" d="M1049.15,-694.49C1084.45,-675.58 1144.62,-638.69 1180,-591 1217.1,-540.98 1227,-521.27 1227,-459 1227,-459 1227,-459 1227,-177 1227,-126.94 1180.96,-131.84 1135,-112 1094.47,-94.5 1046.81,-83.7 1006.05,-77.08"/>
<polygon fill="midnightblue" stroke="midnightblue" points="1006.54,-73.62 996.12,-75.53 1005.46,-80.53 1006.54,-73.62"/>
</g>
<!-- Node10 -->
<g id="node10" class="node">
<title>Node10</title>
<g id="a_node10"><a xlink:href="../../d2/d3c/Arduino-Hardware-Types_8hpp.html" target="_top" xlink:title=" ">
<polygon fill="white" stroke="black" points="916,-627.5 916,-657.5 1038,-657.5 1038,-627.5 916,-627.5"/>
<text text-anchor="start" x="924" y="-645.5" font-family="Helvetica,sans-Serif" font-size="10.00">AH/Hardware/Arduino</text>
<text text-anchor="middle" x="977" y="-634.5" font-family="Helvetica,sans-Serif" font-size="10.00">&#45;Hardware&#45;Types.hpp</text>
</a>
</g>
</g>
<!-- Node9&#45;&gt;Node10 -->
<g id="edge11" class="edge">
<title>Node9&#45;&gt;Node10</title>
<path fill="none" stroke="midnightblue" d="M1011.45,-694.4C1005.86,-686.13 998.67,-675.51 992.3,-666.1"/>
<polygon fill="midnightblue" stroke="midnightblue" points="995.03,-663.9 986.53,-657.58 989.24,-667.82 995.03,-663.9"/>
</g>
<!-- Node28 -->
<g id="node28" class="node">
<title>Node28</title>
<g id="a_node28"><a xlink:title=" ">
<polygon fill="white" stroke="#bfbfbf" points="1156.5,-633 1156.5,-652 1243.5,-652 1243.5,-633 1156.5,-633"/>
<text text-anchor="middle" x="1200" y="-640" font-family="Helvetica,sans-Serif" font-size="10.00">AH/STL/climits</text>
</a>
</g>
</g>
<!-- Node9&#45;&gt;Node28 -->
<g id="edge41" class="edge">
<title>Node9&#45;&gt;Node28</title>
<path fill="none" stroke="midnightblue" d="M1059.84,-694.4C1091.8,-682.79 1136.62,-666.51 1166.9,-655.52"/>
<polygon fill="midnightblue" stroke="midnightblue" points="1168.37,-658.71 1176.57,-652.01 1165.98,-652.13 1168.37,-658.71"/>
</g>
<!-- Node10&#45;&gt;Node2 -->
<g id="edge40" class="edge">
<title>Node10&#45;&gt;Node2</title>
<path fill="none" stroke="midnightblue" d="M915.93,-640.07C733.64,-635.48 201.53,-619.77 129,-591 80.02,-571.57 38,-567.69 38,-515 38,-515 38,-515 38,-289 38,-252.02 64.21,-215.47 81.69,-195.21"/>
<polygon fill="midnightblue" stroke="midnightblue" points="84.47,-197.34 88.55,-187.56 79.26,-192.67 84.47,-197.34"/>
</g>
<!-- Node11 -->
<g id="node11" class="node">
<title>Node11</title>
<g id="a_node11"><a xlink:href="../../d4/d35/Hardware-Types_8hpp.html" target="_top" xlink:title=" ">
<polygon fill="white" stroke="black" points="854.5,-560.5 854.5,-590.5 985.5,-590.5 985.5,-560.5 854.5,-560.5"/>
<text text-anchor="start" x="862.5" y="-578.5" font-family="Helvetica,sans-Serif" font-size="10.00">AH/Hardware/Hardware</text>
<text text-anchor="middle" x="920" y="-567.5" font-family="Helvetica,sans-Serif" font-size="10.00">&#45;Types.hpp</text>
</a>
</g>
</g>
<!-- Node10&#45;&gt;Node11 -->
<g id="edge12" class="edge">
<title>Node10&#45;&gt;Node11</title>
<path fill="none" stroke="midnightblue" d="M964.63,-627.4C957.16,-618.88 947.49,-607.85 939.06,-598.23"/>
<polygon fill="midnightblue" stroke="midnightblue" points="941.57,-595.79 932.34,-590.58 936.31,-600.4 941.57,-595.79"/>
</g>
<!-- Node25 -->
<g id="node25" class="node">
<title>Node25</title>
<g id="a_node25"><a xlink:href="../../d0/db1/FunctionTraits_8hpp.html" target="_top" xlink:title=" ">
<polygon fill="white" stroke="black" points="1017.5,-566 1017.5,-585 1170.5,-585 1170.5,-566 1017.5,-566"/>
<text text-anchor="middle" x="1094" y="-573" font-family="Helvetica,sans-Serif" font-size="10.00">AH/Types/FunctionTraits.hpp</text>
</a>
</g>
</g>
<!-- Node10&#45;&gt;Node25 -->
<g id="edge36" class="edge">
<title>Node10&#45;&gt;Node25</title>
<path fill="none" stroke="midnightblue" d="M1002.39,-627.4C1022.37,-616.29 1050.04,-600.92 1069.73,-589.98"/>
<polygon fill="midnightblue" stroke="midnightblue" points="1071.65,-592.92 1078.69,-585.01 1068.25,-586.8 1071.65,-592.92"/>
</g>
<!-- Node11&#45;&gt;Node7 -->
<g id="edge34" class="edge">
<title>Node11&#45;&gt;Node7</title>
<path fill="none" stroke="midnightblue" d="M923.37,-560.46C935.44,-508.46 974.97,-321.87 960,-168 957.54,-142.75 959.67,-135.01 949,-112 944.13,-101.49 936.3,-91.28 929.18,-83.25"/>
<polygon fill="midnightblue" stroke="midnightblue" points="931.56,-80.68 922.18,-75.75 926.45,-85.45 931.56,-80.68"/>
</g>
<!-- Node12 -->
<g id="node12" class="node">
<title>Node12</title>
<g id="a_node12"><a xlink:href="../../de/d76/Array_8hpp.html" target="_top" xlink:title=" ">
<polygon fill="white" stroke="black" points="576.5,-504.5 576.5,-523.5 711.5,-523.5 711.5,-504.5 576.5,-504.5"/>
<text text-anchor="middle" x="644" y="-511.5" font-family="Helvetica,sans-Serif" font-size="10.00">AH/Containers/Array.hpp</text>
</a>
</g>
</g>
<!-- Node11&#45;&gt;Node12 -->
<g id="edge13" class="edge">
<title>Node11&#45;&gt;Node12</title>
<path fill="none" stroke="midnightblue" d="M854.94,-560.47C805.45,-549.81 738.41,-535.35 693.3,-525.63"/>
<polygon fill="midnightblue" stroke="midnightblue" points="693.97,-522.19 683.46,-523.51 692.5,-529.04 693.97,-522.19"/>
</g>
<!-- Node22 -->
<g id="node22" class="node">
<title>Node22</title>
<g id="a_node22"><a xlink:title=" ">
<polygon fill="white" stroke="#bfbfbf" points="869.5,-224.5 869.5,-243.5 922.5,-243.5 922.5,-224.5 869.5,-224.5"/>
<text text-anchor="middle" x="896" y="-231.5" font-family="Helvetica,sans-Serif" font-size="10.00">stdint.h</text>
</a>
</g>
</g>
<!-- Node11&#45;&gt;Node22 -->
<g id="edge35" class="edge">
<title>Node11&#45;&gt;Node22</title>
<path fill="none" stroke="midnightblue" d="M917.37,-560.33C913.57,-538.61 907,-495.73 907,-459 907,-459 907,-459 907,-345 907,-312.79 902.27,-275.53 899.02,-253.69"/>
<polygon fill="midnightblue" stroke="midnightblue" points="902.43,-252.87 897.44,-243.53 895.51,-253.95 902.43,-252.87"/>
</g>
<!-- Node12&#45;&gt;Node8 -->
<g id="edge32" class="edge">
<title>Node12&#45;&gt;Node8</title>
<path fill="none" stroke="midnightblue" d="M594.89,-504.47C542.2,-492.16 466,-463.85 466,-403 466,-403 466,-403 466,-233 466,-176.81 399.72,-147.9 349.94,-134.12"/>
<polygon fill="midnightblue" stroke="midnightblue" points="350.78,-130.72 340.22,-131.56 349,-137.49 350.78,-130.72"/>
</g>
<!-- Node13 -->
<g id="node13" class="node">
<title>Node13</title>
<g id="a_node13"><a xlink:href="../../d1/d93/Error_8hpp.html" target="_top" xlink:title=" ">
<polygon fill="white" stroke="black" points="650,-448.5 650,-467.5 754,-467.5 754,-448.5 650,-448.5"/>
<text text-anchor="middle" x="702" y="-455.5" font-family="Helvetica,sans-Serif" font-size="10.00">AH/Error/Error.hpp</text>
</a>
</g>
</g>
<!-- Node12&#45;&gt;Node13 -->
<g id="edge14" class="edge">
<title>Node12&#45;&gt;Node13</title>
<path fill="none" stroke="midnightblue" d="M653.32,-504.32C661.89,-496.34 674.81,-484.31 685.19,-474.65"/>
<polygon fill="midnightblue" stroke="midnightblue" points="687.58,-477.21 692.51,-467.83 682.81,-472.09 687.58,-477.21"/>
</g>
<!-- Node21 -->
<g id="node21" class="node">
<title>Node21</title>
<g id="a_node21"><a xlink:title=" ">
<polygon fill="white" stroke="#bfbfbf" points="795,-224.5 795,-243.5 851,-243.5 851,-224.5 795,-224.5"/>
<text text-anchor="middle" x="823" y="-231.5" font-family="Helvetica,sans-Serif" font-size="10.00">stddef.h</text>
</a>
</g>
</g>
<!-- Node12&#45;&gt;Node21 -->
<g id="edge33" class="edge">
<title>Node12&#45;&gt;Node21</title>
<path fill="none" stroke="midnightblue" d="M711.51,-508.06C777.78,-499.09 869,-473.87 869,-403 869,-403 869,-403 869,-345 869,-309.82 848.72,-272.86 835.09,-252"/>
<polygon fill="midnightblue" stroke="midnightblue" points="837.91,-249.92 829.4,-243.61 832.12,-253.85 837.91,-249.92"/>
</g>
<!-- Node24 -->
<g id="node24" class="node">
<title>Node24</title>
<g id="a_node24"><a xlink:title=" ">
<polygon fill="white" stroke="#bfbfbf" points="542,-448.5 542,-467.5 632,-467.5 632,-448.5 542,-448.5"/>
<text text-anchor="middle" x="587" y="-455.5" font-family="Helvetica,sans-Serif" font-size="10.00">AH/STL/iterator</text>
</a>
</g>
</g>
<!-- Node12&#45;&gt;Node24 -->
<g id="edge31" class="edge">
<title>Node12&#45;&gt;Node24</title>
<path fill="none" stroke="midnightblue" d="M634.84,-504.32C626.5,-496.42 613.97,-484.55 603.82,-474.94"/>
<polygon fill="midnightblue" stroke="midnightblue" points="605.99,-472.17 596.32,-467.83 601.18,-477.25 605.99,-472.17"/>
</g>
<!-- Node14 -->
<g id="node14" class="node">
<title>Node14</title>
<g id="a_node14"><a xlink:href="../../df/dee/Debug_8hpp.html" target="_top" xlink:title=" ">
<polygon fill="white" stroke="black" points="641.5,-392.5 641.5,-411.5 762.5,-411.5 762.5,-392.5 641.5,-392.5"/>
<text text-anchor="middle" x="702" y="-399.5" font-family="Helvetica,sans-Serif" font-size="10.00">AH/Debug/Debug.hpp</text>
</a>
</g>
</g>
<!-- Node13&#45;&gt;Node14 -->
<g id="edge15" class="edge">
<title>Node13&#45;&gt;Node14</title>
<path fill="none" stroke="midnightblue" d="M702,-448.08C702,-441.01 702,-430.86 702,-421.99"/>
<polygon fill="midnightblue" stroke="midnightblue" points="705.5,-421.75 702,-411.75 698.5,-421.75 705.5,-421.75"/>
</g>
<!-- Node15 -->
<g id="node15" class="node">
<title>Node15</title>
<g id="a_node15"><a xlink:href="../../dd/d80/PrintStream_8hpp.html" target="_top" xlink:title=" ">
<polygon fill="white" stroke="black" points="494.5,-224.5 494.5,-243.5 667.5,-243.5 667.5,-224.5 494.5,-224.5"/>
<text text-anchor="middle" x="581" y="-231.5" font-family="Helvetica,sans-Serif" font-size="10.00">AH/PrintStream/PrintStream.hpp</text>
</a>
</g>
</g>
<!-- Node14&#45;&gt;Node15 -->
<g id="edge16" class="edge">
<title>Node14&#45;&gt;Node15</title>
<path fill="none" stroke="midnightblue" d="M664.63,-392.4C621.58,-380.18 553.26,-353.13 526,-300 515.86,-280.24 536.56,-261.29 555.39,-249"/>
<polygon fill="midnightblue" stroke="midnightblue" points="557.37,-251.9 564.07,-243.69 553.72,-245.93 557.37,-251.9"/>
</g>
<!-- Node16 -->
<g id="node16" class="node">
<title>Node16</title>
<g id="a_node16"><a xlink:href="../../d2/dd5/SettingsWrapper_8hpp.html" target="_top" xlink:title=" ">
<polygon fill="white" stroke="black" points="613,-336.5 613,-355.5 791,-355.5 791,-336.5 613,-336.5"/>
<text text-anchor="middle" x="702" y="-343.5" font-family="Helvetica,sans-Serif" font-size="10.00">AH/Settings/SettingsWrapper.hpp</text>
</a>
</g>
</g>
<!-- Node14&#45;&gt;Node16 -->
<g id="edge19" class="edge">
<title>Node14&#45;&gt;Node16</title>
<path fill="none" stroke="midnightblue" d="M696.83,-392.08C695.32,-384.93 694.89,-374.64 695.54,-365.69"/>
<polygon fill="midnightblue" stroke="midnightblue" points="699.02,-366.13 696.87,-355.75 692.08,-365.2 699.02,-366.13"/>
</g>
<!-- Node15&#45;&gt;Node2 -->
<g id="edge17" class="edge">
<title>Node15&#45;&gt;Node2</title>
<path fill="none" stroke="midnightblue" d="M504.58,-224.47C412.62,-214.21 259.39,-197.12 169.31,-187.07"/>
<polygon fill="midnightblue" stroke="midnightblue" points="169.51,-183.57 159.19,-185.94 168.74,-190.53 169.51,-183.57"/>
</g>
<!-- Node15&#45;&gt;Node7 -->
<g id="edge18" class="edge">
<title>Node15&#45;&gt;Node7</title>
<path fill="none" stroke="midnightblue" d="M598.38,-224.31C652.95,-197.02 821.11,-112.95 886.55,-80.22"/>
<polygon fill="midnightblue" stroke="midnightblue" points="888.41,-83.21 895.79,-75.61 885.28,-76.95 888.41,-83.21"/>
</g>
<!-- Node16&#45;&gt;Node7 -->
<g id="edge20" class="edge">
<title>Node16&#45;&gt;Node7</title>
<path fill="none" stroke="midnightblue" d="M766.06,-336.49C820.76,-325.45 896.1,-300.37 932,-244 964.05,-193.68 936.96,-118.61 921.7,-84.73"/>
<polygon fill="midnightblue" stroke="midnightblue" points="924.84,-83.17 917.42,-75.6 918.5,-86.14 924.84,-83.17"/>
</g>
<!-- Node16&#45;&gt;Node14 -->
<g id="edge30" class="edge">
<title>Node16&#45;&gt;Node14</title>
<path fill="none" stroke="midnightblue" d="M707.13,-355.75C708.66,-362.86 709.1,-373.14 708.47,-382.1"/>
<polygon fill="midnightblue" stroke="midnightblue" points="704.99,-381.71 707.17,-392.08 711.93,-382.62 704.99,-381.71"/>
</g>
<!-- Node17 -->
<g id="node17" class="node">
<title>Node17</title>
<g id="a_node17"><a xlink:href="../../db/d02/Settings_8hpp.html" target="_top" xlink:title="All user settings and debugging options can be changed here.">
<polygon fill="white" stroke="black" points="725.5,-280.5 725.5,-299.5 802.5,-299.5 802.5,-280.5 725.5,-280.5"/>
<text text-anchor="middle" x="764" y="-287.5" font-family="Helvetica,sans-Serif" font-size="10.00">Settings.hpp</text>
</a>
</g>
</g>
<!-- Node16&#45;&gt;Node17 -->
<g id="edge21" class="edge">
<title>Node16&#45;&gt;Node17</title>
<path fill="none" stroke="midnightblue" d="M711.96,-336.32C721.13,-328.34 734.94,-316.31 746.03,-306.65"/>
<polygon fill="midnightblue" stroke="midnightblue" points="748.62,-309.04 753.86,-299.83 744.02,-303.76 748.62,-309.04"/>
</g>
<!-- Node23 -->
<g id="node23" class="node">
<title>Node23</title>
<g id="a_node23"><a xlink:href="../../d9/d98/TeensyUSBTypes_8hpp.html" target="_top" xlink:title=" ">
<polygon fill="white" stroke="black" points="534.5,-280.5 534.5,-299.5 707.5,-299.5 707.5,-280.5 534.5,-280.5"/>
<text text-anchor="middle" x="621" y="-287.5" font-family="Helvetica,sans-Serif" font-size="10.00">AH/Teensy/TeensyUSBTypes.hpp</text>
</a>
</g>
</g>
<!-- Node16&#45;&gt;Node23 -->
<g id="edge29" class="edge">
<title>Node16&#45;&gt;Node23</title>
<path fill="none" stroke="midnightblue" d="M688.99,-336.32C676.47,-327.98 657.32,-315.21 642.53,-305.35"/>
<polygon fill="midnightblue" stroke="midnightblue" points="644.24,-302.29 633.98,-299.65 640.36,-308.11 644.24,-302.29"/>
</g>
<!-- Node18 -->
<g id="node18" class="node">
<title>Node18</title>
<g id="a_node18"><a xlink:href="../../dc/d50/Frequency_8hpp.html" target="_top" xlink:title=" ">
<polygon fill="white" stroke="black" points="736,-168.5 736,-187.5 870,-187.5 870,-168.5 736,-168.5"/>
<text text-anchor="middle" x="803" y="-175.5" font-family="Helvetica,sans-Serif" font-size="10.00">AH/Types/Frequency.hpp</text>
</a>
</g>
</g>
<!-- Node17&#45;&gt;Node18 -->
<g id="edge22" class="edge">
<title>Node17&#45;&gt;Node18</title>
<path fill="none" stroke="midnightblue" d="M766.89,-280.13C771.01,-267.59 778.85,-243.97 786,-224 789.17,-215.14 792.84,-205.37 795.96,-197.2"/>
<polygon fill="midnightblue" stroke="midnightblue" points="799.33,-198.18 799.65,-187.59 792.8,-195.67 799.33,-198.18"/>
</g>
<!-- Node19 -->
<g id="node19" class="node">
<title>Node19</title>
<g id="a_node19"><a xlink:href="../../d7/d7c/ADCConfig_8hpp.html" target="_top" xlink:title="This file contains the platform&#45;specific ADC resolutions.">
<polygon fill="white" stroke="black" points="280.5,-224.5 280.5,-243.5 437.5,-243.5 437.5,-224.5 280.5,-224.5"/>
<text text-anchor="middle" x="359" y="-231.5" font-family="Helvetica,sans-Serif" font-size="10.00">AH/Hardware/ADCConfig.hpp</text>
</a>
</g>
</g>
<!-- Node17&#45;&gt;Node19 -->
<g id="edge24" class="edge">
<title>Node17&#45;&gt;Node19</title>
<path fill="none" stroke="midnightblue" d="M725.31,-281.39C722.5,-280.9 719.71,-280.43 717,-280 625.56,-265.51 520.37,-252.75 447.79,-244.56"/>
<polygon fill="midnightblue" stroke="midnightblue" points="448.1,-241.07 437.77,-243.43 447.32,-248.03 448.1,-241.07"/>
</g>
<!-- Node20 -->
<g id="node20" class="node">
<title>Node20</title>
<g id="a_node20"><a xlink:title=" ">
<polygon fill="white" stroke="#bfbfbf" points="685.5,-224.5 685.5,-243.5 738.5,-243.5 738.5,-224.5 685.5,-224.5"/>
<text text-anchor="middle" x="712" y="-231.5" font-family="Helvetica,sans-Serif" font-size="10.00">limits.h</text>
</a>
</g>
</g>
<!-- Node17&#45;&gt;Node20 -->
<g id="edge26" class="edge">
<title>Node17&#45;&gt;Node20</title>
<path fill="none" stroke="midnightblue" d="M755.41,-280.08C747.84,-272.22 736.62,-260.57 727.49,-251.08"/>
<polygon fill="midnightblue" stroke="midnightblue" points="729.88,-248.53 720.43,-243.75 724.84,-253.38 729.88,-248.53"/>
</g>
<!-- Node17&#45;&gt;Node21 -->
<g id="edge27" class="edge">
<title>Node17&#45;&gt;Node21</title>
<path fill="none" stroke="midnightblue" d="M773.48,-280.32C782.2,-272.34 795.34,-260.31 805.9,-250.65"/>
<polygon fill="midnightblue" stroke="midnightblue" points="808.33,-253.17 813.35,-243.83 803.61,-248 808.33,-253.17"/>
</g>
<!-- Node17&#45;&gt;Node22 -->
<g id="edge28" class="edge">
<title>Node17&#45;&gt;Node22</title>
<path fill="none" stroke="midnightblue" d="M784.92,-280.44C806.74,-271.52 841.15,-257.44 865.89,-247.32"/>
<polygon fill="midnightblue" stroke="midnightblue" points="867.25,-250.54 875.18,-243.52 864.6,-244.06 867.25,-250.54"/>
</g>
<!-- Node18&#45;&gt;Node7 -->
<g id="edge23" class="edge">
<title>Node18&#45;&gt;Node7</title>
<path fill="none" stroke="midnightblue" d="M811.63,-168.37C830.11,-149.89 873.71,-106.29 897.26,-82.74"/>
<polygon fill="midnightblue" stroke="midnightblue" points="899.81,-85.14 904.41,-75.59 894.86,-80.19 899.81,-85.14"/>
</g>
<!-- Node19&#45;&gt;Node2 -->
<g id="edge25" class="edge">
<title>Node19&#45;&gt;Node2</title>
<path fill="none" stroke="midnightblue" d="M317.49,-224.44C271.59,-214.98 197.62,-199.74 148.17,-189.55"/>
<polygon fill="midnightblue" stroke="midnightblue" points="148.82,-186.11 138.32,-187.52 147.41,-192.96 148.82,-186.11"/>
</g>
<!-- Node25&#45;&gt;Node7 -->
<g id="edge39" class="edge">
<title>Node25&#45;&gt;Node7</title>
<path fill="none" stroke="midnightblue" d="M1114.37,-565.87C1131.61,-557.56 1155.73,-543.39 1170,-524 1187.84,-499.76 1189,-489.1 1189,-459 1189,-459 1189,-459 1189,-177 1189,-130.13 1049.92,-94.37 969.22,-77.57"/>
<polygon fill="midnightblue" stroke="midnightblue" points="969.7,-74.09 959.2,-75.52 968.29,-80.95 969.7,-74.09"/>
</g>
<!-- Node26 -->
<g id="node26" class="node">
<title>Node26</title>
<g id="a_node26"><a xlink:title=" ">
<polygon fill="white" stroke="#bfbfbf" points="973,-504.5 973,-523.5 1063,-523.5 1063,-504.5 973,-504.5"/>
<text text-anchor="middle" x="1018" y="-511.5" font-family="Helvetica,sans-Serif" font-size="10.00">AH/STL/cstddef</text>
</a>
</g>
</g>
<!-- Node25&#45;&gt;Node26 -->
<g id="edge37" class="edge">
<title>Node25&#45;&gt;Node26</title>
<path fill="none" stroke="midnightblue" d="M1083.11,-565.98C1071.03,-556.52 1051.33,-541.1 1036.76,-529.69"/>
<polygon fill="midnightblue" stroke="midnightblue" points="1038.9,-526.92 1028.87,-523.51 1034.59,-532.43 1038.9,-526.92"/>
</g>
<!-- Node27 -->
<g id="node27" class="node">
<title>Node27</title>
<g id="a_node27"><a xlink:title=" ">
<polygon fill="white" stroke="#bfbfbf" points="1081.5,-504.5 1081.5,-523.5 1160.5,-523.5 1160.5,-504.5 1081.5,-504.5"/>
<text text-anchor="middle" x="1121" y="-511.5" font-family="Helvetica,sans-Serif" font-size="10.00">AH/STL/tuple</text>
</a>
</g>
</g>
<!-- Node25&#45;&gt;Node27 -->
<g id="edge38" class="edge">
<title>Node25&#45;&gt;Node27</title>
<path fill="none" stroke="midnightblue" d="M1097.87,-565.98C1101.8,-557.32 1108,-543.65 1112.99,-532.65"/>
<polygon fill="midnightblue" stroke="midnightblue" points="1116.19,-534.06 1117.14,-523.51 1109.82,-531.17 1116.19,-534.06"/>
</g>
<!-- Node29&#45;&gt;Node2 -->
<g id="edge44" class="edge">
<title>Node29&#45;&gt;Node2</title>
<path fill="none" stroke="midnightblue" d="M175.94,-565.99C148.07,-559.06 116.09,-546.54 95,-524 74.44,-502.02 76,-489.1 76,-459 76,-459 76,-459 76,-289 76,-256.38 85.02,-219.28 91.23,-197.57"/>
<polygon fill="midnightblue" stroke="midnightblue" points="94.67,-198.32 94.17,-187.73 87.96,-196.32 94.67,-198.32"/>
</g>
<!-- Node29&#45;&gt;Node7 -->
<g id="edge45" class="edge">
<title>Node29&#45;&gt;Node7</title>
<path fill="none" stroke="midnightblue" d="M230.59,-565.89C225.48,-546.8 214,-499.44 214,-459 214,-459 214,-459 214,-177 214,-146.9 209.53,-130.84 233,-112 276.5,-77.09 624.84,-69.19 805.35,-67.46"/>
<polygon fill="midnightblue" stroke="midnightblue" points="805.43,-70.96 815.4,-67.36 805.37,-63.96 805.43,-70.96"/>
</g>
<!-- Node29&#45;&gt;Node8 -->
<g id="edge48" class="edge">
<title>Node29&#45;&gt;Node8</title>
<path fill="none" stroke="midnightblue" d="M235.41,-565.89C240.52,-546.8 252,-499.44 252,-459 252,-459 252,-459 252,-233 252,-198.04 271.4,-161.01 284.43,-140.07"/>
<polygon fill="midnightblue" stroke="midnightblue" points="287.39,-141.95 289.88,-131.65 281.51,-138.15 287.39,-141.95"/>
</g>
<!-- Node29&#45;&gt;Node12 -->
<g id="edge46" class="edge">
<title>Node29&#45;&gt;Node12</title>
<path fill="none" stroke="midnightblue" d="M291.89,-565.98C366.81,-555.13 496,-536.43 575.33,-524.94"/>
<polygon fill="midnightblue" stroke="midnightblue" points="575.83,-528.41 585.22,-523.51 574.82,-521.48 575.83,-528.41"/>
</g>
<!-- Node30 -->
<g id="node30" class="node">
<title>Node30</title>
<g id="a_node30"><a xlink:title=" ">
<polygon fill="white" stroke="#bfbfbf" points="104,-504.5 104,-523.5 186,-523.5 186,-504.5 104,-504.5"/>
<text text-anchor="middle" x="145" y="-511.5" font-family="Helvetica,sans-Serif" font-size="10.00">AH/STL/limits</text>
</a>
</g>
</g>
<!-- Node29&#45;&gt;Node30 -->
<g id="edge47" class="edge">
<title>Node29&#45;&gt;Node30</title>
<path fill="none" stroke="midnightblue" d="M220.39,-565.98C206.28,-556.43 183.17,-540.81 166.25,-529.37"/>
<polygon fill="midnightblue" stroke="midnightblue" points="167.83,-526.21 157.58,-523.51 163.91,-532.01 167.83,-526.21"/>
</g>
</g>
</svg>
