<?xml version="1.0" encoding="UTF-8" standalone="no"?>
<!DOCTYPE svg PUBLIC "-//W3C//DTD SVG 1.1//EN"
 "http://www.w3.org/Graphics/SVG/1.1/DTD/svg11.dtd">
<!-- Generated by graphviz version 2.43.0 (0)
 -->
<!-- Title: MCP23017.hpp Pages: 1 -->
<svg width="1275pt" height="890pt"
 viewBox="0.00 0.00 1275.00 890.00" xmlns="http://www.w3.org/2000/svg" xmlns:xlink="http://www.w3.org/1999/xlink">
<g id="graph0" class="graph" transform="scale(1 1) rotate(0) translate(4 886)">
<title>MCP23017.hpp</title>
<polygon fill="white" stroke="transparent" points="-4,4 -4,-886 1271,-886 1271,4 -4,4"/>
<!-- Node1 -->
<g id="node1" class="node">
<title>Node1</title>
<g id="a_node1"><a xlink:title=" ">
<polygon fill="#bfbfbf" stroke="black" points="1108.5,-862.5 1108.5,-881.5 1197.5,-881.5 1197.5,-862.5 1108.5,-862.5"/>
<text text-anchor="middle" x="1153" y="-869.5" font-family="Helvetica,sans-Serif" font-size="10.00">MCP23017.hpp</text>
</a>
</g>
</g>
<!-- Node2 -->
<g id="node2" class="node">
<title>Node2</title>
<g id="a_node2"><a xlink:href="../../dd/ddf/ExtendedInputOutput_8hpp.html" target="_top" xlink:title=" ">
<polygon fill="white" stroke="black" points="445.5,-694.5 445.5,-713.5 586.5,-713.5 586.5,-694.5 445.5,-694.5"/>
<text text-anchor="middle" x="516" y="-701.5" font-family="Helvetica,sans-Serif" font-size="10.00">ExtendedInputOutput.hpp</text>
</a>
</g>
</g>
<!-- Node1&#45;&gt;Node2 -->
<g id="edge1" class="edge">
<title>Node1&#45;&gt;Node2</title>
<path fill="none" stroke="midnightblue" d="M1108.32,-868.43C985.62,-860.62 646.77,-833.65 558,-770 541.66,-758.28 530.07,-738.05 523.26,-723.26"/>
<polygon fill="midnightblue" stroke="midnightblue" points="526.3,-721.47 519.15,-713.66 519.87,-724.23 526.3,-721.47"/>
</g>
<!-- Node29 -->
<g id="node29" class="node">
<title>Node29</title>
<g id="a_node29"><a xlink:href="../../d2/d05/StaticSizeExtendedIOElement_8hpp.html" target="_top" xlink:title=" ">
<polygon fill="white" stroke="black" points="789,-806.5 789,-825.5 971,-825.5 971,-806.5 789,-806.5"/>
<text text-anchor="middle" x="880" y="-813.5" font-family="Helvetica,sans-Serif" font-size="10.00">StaticSizeExtendedIOElement.hpp</text>
</a>
</g>
</g>
<!-- Node1&#45;&gt;Node29 -->
<g id="edge42" class="edge">
<title>Node1&#45;&gt;Node29</title>
<path fill="none" stroke="midnightblue" d="M1109.74,-862.44C1061.82,-852.96 984.52,-837.67 933,-827.48"/>
<polygon fill="midnightblue" stroke="midnightblue" points="933.54,-824.02 923.06,-825.52 932.19,-830.89 933.54,-824.02"/>
</g>
<!-- Node38 -->
<g id="node38" class="node">
<title>Node38</title>
<g id="a_node38"><a xlink:href="../../d1/d40/BitArray_8hpp.html" target="_top" xlink:title=" ">
<polygon fill="white" stroke="black" points="1008.5,-504.5 1008.5,-523.5 1157.5,-523.5 1157.5,-504.5 1008.5,-504.5"/>
<text text-anchor="middle" x="1083" y="-511.5" font-family="Helvetica,sans-Serif" font-size="10.00">AH/Containers/BitArray.hpp</text>
</a>
</g>
</g>
<!-- Node1&#45;&gt;Node38 -->
<g id="edge62" class="edge">
<title>Node1&#45;&gt;Node38</title>
<path fill="none" stroke="midnightblue" d="M1153,-862.44C1153,-843.94 1153,-798.81 1153,-761 1153,-761 1153,-761 1153,-641.5 1153,-597.01 1119.45,-553.49 1098.8,-530.92"/>
<polygon fill="midnightblue" stroke="midnightblue" points="1101.28,-528.45 1091.87,-523.59 1096.2,-533.26 1101.28,-528.45"/>
</g>
<!-- Node39 -->
<g id="node39" class="node">
<title>Node39</title>
<g id="a_node39"><a xlink:href="../../d2/d94/MCP23017_8ipp.html" target="_top" xlink:title=" ">
<polygon fill="white" stroke="black" points="1181,-806.5 1181,-825.5 1267,-825.5 1267,-806.5 1181,-806.5"/>
<text text-anchor="middle" x="1224" y="-813.5" font-family="Helvetica,sans-Serif" font-size="10.00">MCP23017.ipp</text>
</a>
</g>
</g>
<!-- Node1&#45;&gt;Node39 -->
<g id="edge66" class="edge">
<title>Node1&#45;&gt;Node39</title>
<path fill="none" stroke="midnightblue" d="M1159.29,-862.32C1168.46,-853.98 1184.93,-841.21 1199.09,-831.35"/>
<polygon fill="midnightblue" stroke="midnightblue" points="1201.19,-834.16 1207.51,-825.65 1197.27,-828.36 1201.19,-834.16"/>
</g>
<!-- Node3 -->
<g id="node3" class="node">
<title>Node3</title>
<g id="a_node3"><a xlink:href="../../d2/d3c/Arduino-Hardware-Types_8hpp.html" target="_top" xlink:title=" ">
<polygon fill="white" stroke="black" points="465,-627.5 465,-657.5 587,-657.5 587,-627.5 465,-627.5"/>
<text text-anchor="start" x="473" y="-645.5" font-family="Helvetica,sans-Serif" font-size="10.00">AH/Hardware/Arduino</text>
<text text-anchor="middle" x="526" y="-634.5" font-family="Helvetica,sans-Serif" font-size="10.00">&#45;Hardware&#45;Types.hpp</text>
</a>
</g>
</g>
<!-- Node2&#45;&gt;Node3 -->
<g id="edge2" class="edge">
<title>Node2&#45;&gt;Node3</title>
<path fill="none" stroke="midnightblue" d="M517.43,-694.48C518.62,-687.4 520.37,-676.97 521.98,-667.39"/>
<polygon fill="midnightblue" stroke="midnightblue" points="525.44,-667.96 523.64,-657.52 518.53,-666.8 525.44,-667.96"/>
</g>
<!-- Node14 -->
<g id="node14" class="node">
<title>Node14</title>
<g id="a_node14"><a xlink:href="../../dc/dc7/NamespaceSettings_8hpp.html" target="_top" xlink:title=" ">
<polygon fill="white" stroke="black" points="436.5,-56.5 436.5,-75.5 631.5,-75.5 631.5,-56.5 436.5,-56.5"/>
<text text-anchor="middle" x="534" y="-63.5" font-family="Helvetica,sans-Serif" font-size="10.00">AH/Settings/NamespaceSettings.hpp</text>
</a>
</g>
</g>
<!-- Node2&#45;&gt;Node14 -->
<g id="edge41" class="edge">
<title>Node2&#45;&gt;Node14</title>
<path fill="none" stroke="midnightblue" d="M445.33,-700.36C304.01,-693.16 0,-667.12 0,-576.5 0,-576.5 0,-576.5 0,-177 0,-137.08 26.09,-129.44 62,-112 124.06,-81.87 307.19,-71.9 426.25,-68.61"/>
<polygon fill="midnightblue" stroke="midnightblue" points="426.59,-72.1 436.5,-68.34 426.41,-65.11 426.59,-72.1"/>
</g>
<!-- Node28 -->
<g id="node28" class="node">
<title>Node28</title>
<g id="a_node28"><a xlink:title=" ">
<polygon fill="white" stroke="#bfbfbf" points="359.5,-633 359.5,-652 446.5,-652 446.5,-633 359.5,-633"/>
<text text-anchor="middle" x="403" y="-640" font-family="Helvetica,sans-Serif" font-size="10.00">AH/STL/climits</text>
</a>
</g>
</g>
<!-- Node2&#45;&gt;Node28 -->
<g id="edge40" class="edge">
<title>Node2&#45;&gt;Node28</title>
<path fill="none" stroke="midnightblue" d="M499.81,-694.48C481.1,-684.62 450.08,-668.29 428.2,-656.77"/>
<polygon fill="midnightblue" stroke="midnightblue" points="429.64,-653.57 419.16,-652.01 426.38,-659.77 429.64,-653.57"/>
</g>
<!-- Node4 -->
<g id="node4" class="node">
<title>Node4</title>
<g id="a_node4"><a xlink:href="../../d4/d35/Hardware-Types_8hpp.html" target="_top" xlink:title=" ">
<polygon fill="white" stroke="black" points="643.5,-560.5 643.5,-590.5 774.5,-590.5 774.5,-560.5 643.5,-560.5"/>
<text text-anchor="start" x="651.5" y="-578.5" font-family="Helvetica,sans-Serif" font-size="10.00">AH/Hardware/Hardware</text>
<text text-anchor="middle" x="709" y="-567.5" font-family="Helvetica,sans-Serif" font-size="10.00">&#45;Types.hpp</text>
</a>
</g>
</g>
<!-- Node3&#45;&gt;Node4 -->
<g id="edge3" class="edge">
<title>Node3&#45;&gt;Node4</title>
<path fill="none" stroke="midnightblue" d="M565.71,-627.4C593.29,-617.6 630.22,-604.48 659.69,-594.02"/>
<polygon fill="midnightblue" stroke="midnightblue" points="661.12,-597.22 669.37,-590.58 658.77,-590.63 661.12,-597.22"/>
</g>
<!-- Node9 -->
<g id="node9" class="node">
<title>Node9</title>
<g id="a_node9"><a xlink:href="../../d6/ddf/Arduino-Wrapper_8h.html" target="_top" xlink:title=" ">
<polygon fill="white" stroke="black" points="743,-168.5 743,-187.5 867,-187.5 867,-168.5 743,-168.5"/>
<text text-anchor="middle" x="805" y="-175.5" font-family="Helvetica,sans-Serif" font-size="10.00">AH/Arduino&#45;Wrapper.h</text>
</a>
</g>
</g>
<!-- Node3&#45;&gt;Node9 -->
<g id="edge39" class="edge">
<title>Node3&#45;&gt;Node9</title>
<path fill="none" stroke="midnightblue" d="M587.06,-640.55C733.9,-636.75 1099.56,-617.88 1166,-524 1171.13,-516.74 1169.77,-512.05 1166,-504 1136.31,-440.55 1045,-473.05 1045,-403 1045,-403 1045,-403 1045,-289 1045,-214.41 948,-190.2 877.34,-182.46"/>
<polygon fill="midnightblue" stroke="midnightblue" points="877.42,-178.95 867.12,-181.43 876.72,-185.92 877.42,-178.95"/>
</g>
<!-- Node25 -->
<g id="node25" class="node">
<title>Node25</title>
<g id="a_node25"><a xlink:href="../../d0/db1/FunctionTraits_8hpp.html" target="_top" xlink:title=" ">
<polygon fill="white" stroke="black" points="85.5,-566 85.5,-585 238.5,-585 238.5,-566 85.5,-566"/>
<text text-anchor="middle" x="162" y="-573" font-family="Helvetica,sans-Serif" font-size="10.00">AH/Types/FunctionTraits.hpp</text>
</a>
</g>
</g>
<!-- Node3&#45;&gt;Node25 -->
<g id="edge35" class="edge">
<title>Node3&#45;&gt;Node25</title>
<path fill="none" stroke="midnightblue" d="M464.83,-628.88C461.51,-628.24 458.21,-627.61 455,-627 375.52,-612.04 283.57,-596.47 224.19,-586.65"/>
<polygon fill="midnightblue" stroke="midnightblue" points="224.66,-583.18 214.22,-585 223.52,-590.08 224.66,-583.18"/>
</g>
<!-- Node5 -->
<g id="node5" class="node">
<title>Node5</title>
<g id="a_node5"><a xlink:href="../../de/d76/Array_8hpp.html" target="_top" xlink:title=" ">
<polygon fill="white" stroke="black" points="659.5,-504.5 659.5,-523.5 794.5,-523.5 794.5,-504.5 659.5,-504.5"/>
<text text-anchor="middle" x="727" y="-511.5" font-family="Helvetica,sans-Serif" font-size="10.00">AH/Containers/Array.hpp</text>
</a>
</g>
</g>
<!-- Node4&#45;&gt;Node5 -->
<g id="edge4" class="edge">
<title>Node4&#45;&gt;Node5</title>
<path fill="none" stroke="midnightblue" d="M713.27,-560.4C715.72,-552.29 718.83,-542.01 721.47,-533.28"/>
<polygon fill="midnightblue" stroke="midnightblue" points="724.84,-534.24 724.38,-523.66 718.14,-532.22 724.84,-534.24"/>
</g>
<!-- Node4&#45;&gt;Node14 -->
<g id="edge33" class="edge">
<title>Node4&#45;&gt;Node14</title>
<path fill="none" stroke="midnightblue" d="M643.22,-567.63C570.39,-559.49 449.69,-544.4 347,-524 334.84,-521.58 141.5,-474.6 131,-468 98.96,-447.86 76,-440.84 76,-403 76,-403 76,-403 76,-177 76,-105.3 290.91,-80.21 426.3,-71.52"/>
<polygon fill="midnightblue" stroke="midnightblue" points="426.55,-75.02 436.31,-70.9 426.11,-68.03 426.55,-75.02"/>
</g>
<!-- Node22 -->
<g id="node22" class="node">
<title>Node22</title>
<g id="a_node22"><a xlink:title=" ">
<polygon fill="white" stroke="#bfbfbf" points="923.5,-224.5 923.5,-243.5 976.5,-243.5 976.5,-224.5 923.5,-224.5"/>
<text text-anchor="middle" x="950" y="-231.5" font-family="Helvetica,sans-Serif" font-size="10.00">stdint.h</text>
</a>
</g>
</g>
<!-- Node4&#45;&gt;Node22 -->
<g id="edge34" class="edge">
<title>Node4&#45;&gt;Node22</title>
<path fill="none" stroke="midnightblue" d="M759.55,-560.44C825.62,-538.63 933,-489.81 933,-403 933,-403 933,-403 933,-345 933,-312.58 940.3,-275.42 945.33,-253.64"/>
<polygon fill="midnightblue" stroke="midnightblue" points="948.77,-254.31 947.71,-243.77 941.97,-252.67 948.77,-254.31"/>
</g>
<!-- Node6 -->
<g id="node6" class="node">
<title>Node6</title>
<g id="a_node6"><a xlink:href="../../d1/d93/Error_8hpp.html" target="_top" xlink:title=" ">
<polygon fill="white" stroke="black" points="687,-448.5 687,-467.5 791,-467.5 791,-448.5 687,-448.5"/>
<text text-anchor="middle" x="739" y="-455.5" font-family="Helvetica,sans-Serif" font-size="10.00">AH/Error/Error.hpp</text>
</a>
</g>
</g>
<!-- Node5&#45;&gt;Node6 -->
<g id="edge5" class="edge">
<title>Node5&#45;&gt;Node6</title>
<path fill="none" stroke="midnightblue" d="M728.98,-504.08C730.57,-496.93 732.86,-486.64 734.85,-477.69"/>
<polygon fill="midnightblue" stroke="midnightblue" points="738.3,-478.27 737.06,-467.75 731.47,-476.75 738.3,-478.27"/>
</g>
<!-- Node15 -->
<g id="node15" class="node">
<title>Node15</title>
<g id="a_node15"><a xlink:title=" ">
<polygon fill="white" stroke="#bfbfbf" points="243.5,-112.5 243.5,-131.5 350.5,-131.5 350.5,-112.5 243.5,-112.5"/>
<text text-anchor="middle" x="297" y="-119.5" font-family="Helvetica,sans-Serif" font-size="10.00">AH/STL/type_traits</text>
</a>
</g>
</g>
<!-- Node5&#45;&gt;Node15 -->
<g id="edge31" class="edge">
<title>Node5&#45;&gt;Node15</title>
<path fill="none" stroke="midnightblue" d="M659.45,-505.59C602.19,-498.24 525.42,-485.54 500,-468 377.75,-383.65 318.13,-199.68 301.78,-141.22"/>
<polygon fill="midnightblue" stroke="midnightblue" points="305.15,-140.27 299.15,-131.54 298.39,-142.11 305.15,-140.27"/>
</g>
<!-- Node21 -->
<g id="node21" class="node">
<title>Node21</title>
<g id="a_node21"><a xlink:title=" ">
<polygon fill="white" stroke="#bfbfbf" points="450,-224.5 450,-243.5 506,-243.5 506,-224.5 450,-224.5"/>
<text text-anchor="middle" x="478" y="-231.5" font-family="Helvetica,sans-Serif" font-size="10.00">stddef.h</text>
</a>
</g>
</g>
<!-- Node5&#45;&gt;Node21 -->
<g id="edge32" class="edge">
<title>Node5&#45;&gt;Node21</title>
<path fill="none" stroke="midnightblue" d="M756.04,-504.39C775.31,-497.36 799.92,-485.67 816,-468 839.67,-442 859.97,-419.46 838,-392 792.47,-335.08 738.14,-397.19 678,-356 644.44,-333.01 659.71,-304.18 627,-280 594.16,-255.72 548.16,-244.43 515.99,-239.25"/>
<polygon fill="midnightblue" stroke="midnightblue" points="516.47,-235.78 506.06,-237.77 515.44,-242.7 516.47,-235.78"/>
</g>
<!-- Node24 -->
<g id="node24" class="node">
<title>Node24</title>
<g id="a_node24"><a xlink:title=" ">
<polygon fill="white" stroke="#bfbfbf" points="739,-392.5 739,-411.5 829,-411.5 829,-392.5 739,-392.5"/>
<text text-anchor="middle" x="784" y="-399.5" font-family="Helvetica,sans-Serif" font-size="10.00">AH/STL/iterator</text>
</a>
</g>
</g>
<!-- Node5&#45;&gt;Node24 -->
<g id="edge30" class="edge">
<title>Node5&#45;&gt;Node24</title>
<path fill="none" stroke="midnightblue" d="M753.21,-504.41C769.85,-497.44 790.06,-485.81 800,-468 808.3,-453.14 801.86,-434.01 794.84,-420.36"/>
<polygon fill="midnightblue" stroke="midnightblue" points="797.8,-418.49 789.82,-411.52 791.72,-421.95 797.8,-418.49"/>
</g>
<!-- Node7 -->
<g id="node7" class="node">
<title>Node7</title>
<g id="a_node7"><a xlink:href="../../df/dee/Debug_8hpp.html" target="_top" xlink:title=" ">
<polygon fill="white" stroke="black" points="561.5,-392.5 561.5,-411.5 682.5,-411.5 682.5,-392.5 561.5,-392.5"/>
<text text-anchor="middle" x="622" y="-399.5" font-family="Helvetica,sans-Serif" font-size="10.00">AH/Debug/Debug.hpp</text>
</a>
</g>
</g>
<!-- Node6&#45;&gt;Node7 -->
<g id="edge6" class="edge">
<title>Node6&#45;&gt;Node7</title>
<path fill="none" stroke="midnightblue" d="M720.46,-448.44C701.38,-439.64 671.43,-425.81 649.56,-415.72"/>
<polygon fill="midnightblue" stroke="midnightblue" points="651,-412.53 640.45,-411.52 648.07,-418.88 651,-412.53"/>
</g>
<!-- Node8 -->
<g id="node8" class="node">
<title>Node8</title>
<g id="a_node8"><a xlink:href="../../dd/d80/PrintStream_8hpp.html" target="_top" xlink:title=" ">
<polygon fill="white" stroke="black" points="687.5,-336.5 687.5,-355.5 860.5,-355.5 860.5,-336.5 687.5,-336.5"/>
<text text-anchor="middle" x="774" y="-343.5" font-family="Helvetica,sans-Serif" font-size="10.00">AH/PrintStream/PrintStream.hpp</text>
</a>
</g>
</g>
<!-- Node7&#45;&gt;Node8 -->
<g id="edge7" class="edge">
<title>Node7&#45;&gt;Node8</title>
<path fill="none" stroke="midnightblue" d="M646.08,-392.44C671.54,-383.4 711.89,-369.06 740.46,-358.92"/>
<polygon fill="midnightblue" stroke="midnightblue" points="741.78,-362.16 750.03,-355.52 739.43,-355.57 741.78,-362.16"/>
</g>
<!-- Node16 -->
<g id="node16" class="node">
<title>Node16</title>
<g id="a_node16"><a xlink:href="../../d2/dd5/SettingsWrapper_8hpp.html" target="_top" xlink:title=" ">
<polygon fill="white" stroke="black" points="444,-336.5 444,-355.5 622,-355.5 622,-336.5 444,-336.5"/>
<text text-anchor="middle" x="533" y="-343.5" font-family="Helvetica,sans-Serif" font-size="10.00">AH/Settings/SettingsWrapper.hpp</text>
</a>
</g>
</g>
<!-- Node7&#45;&gt;Node16 -->
<g id="edge18" class="edge">
<title>Node7&#45;&gt;Node16</title>
<path fill="none" stroke="midnightblue" d="M602.59,-392.32C587.03,-383.98 565.67,-371.21 550.61,-361.35"/>
<polygon fill="midnightblue" stroke="midnightblue" points="552.4,-358.34 542.15,-355.65 548.49,-364.14 552.4,-358.34"/>
</g>
<!-- Node8&#45;&gt;Node9 -->
<g id="edge8" class="edge">
<title>Node8&#45;&gt;Node9</title>
<path fill="none" stroke="midnightblue" d="M781.8,-336.37C796.1,-319.89 826.08,-282.15 837,-244 839.45,-235.45 839.7,-232.47 837,-224 833.66,-213.54 826.9,-203.43 820.45,-195.45"/>
<polygon fill="midnightblue" stroke="midnightblue" points="822.94,-192.98 813.75,-187.71 817.65,-197.56 822.94,-192.98"/>
</g>
<!-- Node8&#45;&gt;Node14 -->
<g id="edge17" class="edge">
<title>Node8&#45;&gt;Node14</title>
<path fill="none" stroke="midnightblue" d="M759.96,-336.38C738.81,-323.52 697.39,-298.81 661,-280 627.08,-262.46 610.79,-270.18 583,-244 537.98,-201.58 533.05,-121.8 533.31,-85.65"/>
<polygon fill="midnightblue" stroke="midnightblue" points="536.81,-85.62 533.53,-75.55 529.81,-85.47 536.81,-85.62"/>
</g>
<!-- Node10 -->
<g id="node10" class="node">
<title>Node10</title>
<g id="a_node10"><a xlink:href="../../d7/d79/MinMaxFix_8hpp.html" target="_top" xlink:title=" ">
<polygon fill="white" stroke="black" points="737,-112.5 737,-131.5 873,-131.5 873,-112.5 737,-112.5"/>
<text text-anchor="middle" x="805" y="-119.5" font-family="Helvetica,sans-Serif" font-size="10.00">AH/Math/MinMaxFix.hpp</text>
</a>
</g>
</g>
<!-- Node9&#45;&gt;Node10 -->
<g id="edge9" class="edge">
<title>Node9&#45;&gt;Node10</title>
<path fill="none" stroke="midnightblue" d="M805,-168.08C805,-161.01 805,-150.86 805,-141.99"/>
<polygon fill="midnightblue" stroke="midnightblue" points="808.5,-141.75 805,-131.75 801.5,-141.75 808.5,-141.75"/>
</g>
<!-- Node13 -->
<g id="node13" class="node">
<title>Node13</title>
<g id="a_node13"><a xlink:title=" ">
<polygon fill="white" stroke="#bfbfbf" points="871.5,-0.5 871.5,-19.5 934.5,-19.5 934.5,-0.5 871.5,-0.5"/>
<text text-anchor="middle" x="903" y="-7.5" font-family="Helvetica,sans-Serif" font-size="10.00">Arduino.h</text>
</a>
</g>
</g>
<!-- Node9&#45;&gt;Node13 -->
<g id="edge16" class="edge">
<title>Node9&#45;&gt;Node13</title>
<path fill="none" stroke="midnightblue" d="M829.1,-168.44C846.17,-161.21 868.38,-149.26 882,-132 905.37,-102.4 906.47,-55.93 904.92,-30.04"/>
<polygon fill="midnightblue" stroke="midnightblue" points="908.38,-29.41 904.09,-19.72 901.4,-29.97 908.38,-29.41"/>
</g>
<!-- Node9&#45;&gt;Node15 -->
<g id="edge15" class="edge">
<title>Node9&#45;&gt;Node15</title>
<path fill="none" stroke="midnightblue" d="M742.96,-170.41C645.82,-160.08 458.8,-140.2 360.66,-129.77"/>
<polygon fill="midnightblue" stroke="midnightblue" points="360.9,-126.27 350.59,-128.7 360.16,-133.23 360.9,-126.27"/>
</g>
<!-- Node11 -->
<g id="node11" class="node">
<title>Node11</title>
<g id="a_node11"><a xlink:href="../../d6/d3b/FixArduinoMacros_8hpp.html" target="_top" xlink:title=" ">
<polygon fill="white" stroke="black" points="720,-56.5 720,-75.5 890,-75.5 890,-56.5 720,-56.5"/>
<text text-anchor="middle" x="805" y="-63.5" font-family="Helvetica,sans-Serif" font-size="10.00">AH/Math/FixArduinoMacros.hpp</text>
</a>
</g>
</g>
<!-- Node10&#45;&gt;Node11 -->
<g id="edge10" class="edge">
<title>Node10&#45;&gt;Node11</title>
<path fill="none" stroke="midnightblue" d="M805,-112.08C805,-105.01 805,-94.86 805,-85.99"/>
<polygon fill="midnightblue" stroke="midnightblue" points="808.5,-85.75 805,-75.75 801.5,-85.75 808.5,-85.75"/>
</g>
<!-- Node10&#45;&gt;Node14 -->
<g id="edge13" class="edge">
<title>Node10&#45;&gt;Node14</title>
<path fill="none" stroke="midnightblue" d="M762.06,-112.44C714.49,-102.96 637.76,-87.67 586.61,-77.48"/>
<polygon fill="midnightblue" stroke="midnightblue" points="587.23,-74.04 576.74,-75.52 585.86,-80.9 587.23,-74.04"/>
</g>
<!-- Node12 -->
<g id="node12" class="node">
<title>Node12</title>
<g id="a_node12"><a xlink:href="../../d1/d65/Warnings_8hpp.html" target="_top" xlink:title=" ">
<polygon fill="white" stroke="black" points="635.5,-0.5 635.5,-19.5 778.5,-19.5 778.5,-0.5 635.5,-0.5"/>
<text text-anchor="middle" x="707" y="-7.5" font-family="Helvetica,sans-Serif" font-size="10.00">AH/Settings/Warnings.hpp</text>
</a>
</g>
</g>
<!-- Node11&#45;&gt;Node12 -->
<g id="edge11" class="edge">
<title>Node11&#45;&gt;Node12</title>
<path fill="none" stroke="midnightblue" d="M789.25,-56.32C773.68,-47.74 749.62,-34.49 731.54,-24.52"/>
<polygon fill="midnightblue" stroke="midnightblue" points="733.15,-21.42 722.71,-19.65 729.78,-27.55 733.15,-21.42"/>
</g>
<!-- Node11&#45;&gt;Node13 -->
<g id="edge12" class="edge">
<title>Node11&#45;&gt;Node13</title>
<path fill="none" stroke="midnightblue" d="M820.75,-56.32C836.32,-47.74 860.38,-34.49 878.46,-24.52"/>
<polygon fill="midnightblue" stroke="midnightblue" points="880.22,-27.55 887.29,-19.65 876.85,-21.42 880.22,-27.55"/>
</g>
<!-- Node14&#45;&gt;Node12 -->
<g id="edge14" class="edge">
<title>Node14&#45;&gt;Node12</title>
<path fill="none" stroke="midnightblue" d="M561.41,-56.44C590.77,-47.28 637.52,-32.69 670.1,-22.52"/>
<polygon fill="midnightblue" stroke="midnightblue" points="671.21,-25.84 679.72,-19.52 669.13,-19.16 671.21,-25.84"/>
</g>
<!-- Node16&#45;&gt;Node7 -->
<g id="edge29" class="edge">
<title>Node16&#45;&gt;Node7</title>
<path fill="none" stroke="midnightblue" d="M552.37,-355.65C567.92,-363.99 589.28,-376.76 604.35,-386.62"/>
<polygon fill="midnightblue" stroke="midnightblue" points="602.57,-389.64 612.82,-392.32 606.48,-383.83 602.57,-389.64"/>
</g>
<!-- Node16&#45;&gt;Node14 -->
<g id="edge19" class="edge">
<title>Node16&#45;&gt;Node14</title>
<path fill="none" stroke="midnightblue" d="M497.28,-336.43C451.79,-323.13 379,-292.83 379,-235 379,-235 379,-235 379,-177 379,-123.05 442.23,-93.14 487.92,-78.57"/>
<polygon fill="midnightblue" stroke="midnightblue" points="489.11,-81.87 497.66,-75.61 487.07,-75.17 489.11,-81.87"/>
</g>
<!-- Node17 -->
<g id="node17" class="node">
<title>Node17</title>
<g id="a_node17"><a xlink:href="../../db/d02/Settings_8hpp.html" target="_top" xlink:title="All user settings and debugging options can be changed here.">
<polygon fill="white" stroke="black" points="713.5,-280.5 713.5,-299.5 790.5,-299.5 790.5,-280.5 713.5,-280.5"/>
<text text-anchor="middle" x="752" y="-287.5" font-family="Helvetica,sans-Serif" font-size="10.00">Settings.hpp</text>
</a>
</g>
</g>
<!-- Node16&#45;&gt;Node17 -->
<g id="edge20" class="edge">
<title>Node16&#45;&gt;Node17</title>
<path fill="none" stroke="midnightblue" d="M567.7,-336.44C605.58,-327.1 666.35,-312.12 707.66,-301.93"/>
<polygon fill="midnightblue" stroke="midnightblue" points="708.59,-305.31 717.46,-299.52 706.91,-298.51 708.59,-305.31"/>
</g>
<!-- Node23 -->
<g id="node23" class="node">
<title>Node23</title>
<g id="a_node23"><a xlink:href="../../d9/d98/TeensyUSBTypes_8hpp.html" target="_top" xlink:title=" ">
<polygon fill="white" stroke="black" points="445.5,-280.5 445.5,-299.5 618.5,-299.5 618.5,-280.5 445.5,-280.5"/>
<text text-anchor="middle" x="532" y="-287.5" font-family="Helvetica,sans-Serif" font-size="10.00">AH/Teensy/TeensyUSBTypes.hpp</text>
</a>
</g>
</g>
<!-- Node16&#45;&gt;Node23 -->
<g id="edge28" class="edge">
<title>Node16&#45;&gt;Node23</title>
<path fill="none" stroke="midnightblue" d="M532.83,-336.08C532.7,-329.01 532.52,-318.86 532.35,-309.99"/>
<polygon fill="midnightblue" stroke="midnightblue" points="535.85,-309.68 532.16,-299.75 528.85,-309.81 535.85,-309.68"/>
</g>
<!-- Node18 -->
<g id="node18" class="node">
<title>Node18</title>
<g id="a_node18"><a xlink:href="../../dc/d50/Frequency_8hpp.html" target="_top" xlink:title=" ">
<polygon fill="white" stroke="black" points="562,-168.5 562,-187.5 696,-187.5 696,-168.5 562,-168.5"/>
<text text-anchor="middle" x="629" y="-175.5" font-family="Helvetica,sans-Serif" font-size="10.00">AH/Types/Frequency.hpp</text>
</a>
</g>
</g>
<!-- Node17&#45;&gt;Node18 -->
<g id="edge21" class="edge">
<title>Node17&#45;&gt;Node18</title>
<path fill="none" stroke="midnightblue" d="M713.41,-280.77C668.22,-270.74 598.52,-253.91 591,-244 578.93,-228.1 594.79,-208.04 609.54,-194.44"/>
<polygon fill="midnightblue" stroke="midnightblue" points="612.16,-196.8 617.44,-187.61 607.59,-191.5 612.16,-196.8"/>
</g>
<!-- Node19 -->
<g id="node19" class="node">
<title>Node19</title>
<g id="a_node19"><a xlink:href="../../d7/d7c/ADCConfig_8hpp.html" target="_top" xlink:title="This file contains the platform&#45;specific ADC resolutions.">
<polygon fill="white" stroke="black" points="671.5,-224.5 671.5,-243.5 828.5,-243.5 828.5,-224.5 671.5,-224.5"/>
<text text-anchor="middle" x="750" y="-231.5" font-family="Helvetica,sans-Serif" font-size="10.00">AH/Hardware/ADCConfig.hpp</text>
</a>
</g>
</g>
<!-- Node17&#45;&gt;Node19 -->
<g id="edge23" class="edge">
<title>Node17&#45;&gt;Node19</title>
<path fill="none" stroke="midnightblue" d="M751.67,-280.08C751.41,-273.01 751.03,-262.86 750.7,-253.99"/>
<polygon fill="midnightblue" stroke="midnightblue" points="754.19,-253.61 750.32,-243.75 747.2,-253.87 754.19,-253.61"/>
</g>
<!-- Node20 -->
<g id="node20" class="node">
<title>Node20</title>
<g id="a_node20"><a xlink:title=" ">
<polygon fill="white" stroke="#bfbfbf" points="600.5,-224.5 600.5,-243.5 653.5,-243.5 653.5,-224.5 600.5,-224.5"/>
<text text-anchor="middle" x="627" y="-231.5" font-family="Helvetica,sans-Serif" font-size="10.00">limits.h</text>
</a>
</g>
</g>
<!-- Node17&#45;&gt;Node20 -->
<g id="edge25" class="edge">
<title>Node17&#45;&gt;Node20</title>
<path fill="none" stroke="midnightblue" d="M732.19,-280.44C711.71,-271.6 679.52,-257.69 656.14,-247.59"/>
<polygon fill="midnightblue" stroke="midnightblue" points="657.28,-244.27 646.71,-243.52 654.51,-250.7 657.28,-244.27"/>
</g>
<!-- Node17&#45;&gt;Node21 -->
<g id="edge26" class="edge">
<title>Node17&#45;&gt;Node21</title>
<path fill="none" stroke="midnightblue" d="M713.32,-281.38C660.91,-271.05 567.91,-252.72 515.9,-242.47"/>
<polygon fill="midnightblue" stroke="midnightblue" points="516.56,-239.03 506.07,-240.53 515.2,-245.9 516.56,-239.03"/>
</g>
<!-- Node17&#45;&gt;Node22 -->
<g id="edge27" class="edge">
<title>Node17&#45;&gt;Node22</title>
<path fill="none" stroke="midnightblue" d="M783.37,-280.44C818.66,-270.82 875.9,-255.21 913.25,-245.02"/>
<polygon fill="midnightblue" stroke="midnightblue" points="914.49,-248.31 923.22,-242.3 912.65,-241.56 914.49,-248.31"/>
</g>
<!-- Node18&#45;&gt;Node14 -->
<g id="edge22" class="edge">
<title>Node18&#45;&gt;Node14</title>
<path fill="none" stroke="midnightblue" d="M621.55,-168.37C605.73,-150.05 568.59,-107.05 548.13,-83.36"/>
<polygon fill="midnightblue" stroke="midnightblue" points="550.6,-80.87 541.42,-75.59 545.31,-85.45 550.6,-80.87"/>
</g>
<!-- Node19&#45;&gt;Node9 -->
<g id="edge24" class="edge">
<title>Node19&#45;&gt;Node9</title>
<path fill="none" stroke="midnightblue" d="M759.08,-224.08C767.17,-216.14 779.2,-204.34 788.91,-194.8"/>
<polygon fill="midnightblue" stroke="midnightblue" points="791.4,-197.25 796.09,-187.75 786.5,-192.26 791.4,-197.25"/>
</g>
<!-- Node25&#45;&gt;Node14 -->
<g id="edge38" class="edge">
<title>Node25&#45;&gt;Node14</title>
<path fill="none" stroke="midnightblue" d="M127.65,-565.93C104.58,-558.49 75.19,-545.44 57,-524 37.53,-501.05 38,-489.1 38,-459 38,-459 38,-459 38,-177 38,-133.23 71.91,-129.59 112,-112 166.5,-88.09 320.25,-76.44 426.29,-71.09"/>
<polygon fill="midnightblue" stroke="midnightblue" points="426.58,-74.58 436.4,-70.59 426.24,-67.59 426.58,-74.58"/>
</g>
<!-- Node26 -->
<g id="node26" class="node">
<title>Node26</title>
<g id="a_node26"><a xlink:title=" ">
<polygon fill="white" stroke="#bfbfbf" points="66,-504.5 66,-523.5 156,-523.5 156,-504.5 66,-504.5"/>
<text text-anchor="middle" x="111" y="-511.5" font-family="Helvetica,sans-Serif" font-size="10.00">AH/STL/cstddef</text>
</a>
</g>
</g>
<!-- Node25&#45;&gt;Node26 -->
<g id="edge36" class="edge">
<title>Node25&#45;&gt;Node26</title>
<path fill="none" stroke="midnightblue" d="M154.69,-565.98C146.97,-556.96 134.59,-542.52 124.98,-531.31"/>
<polygon fill="midnightblue" stroke="midnightblue" points="127.46,-528.82 118.29,-523.51 122.14,-533.38 127.46,-528.82"/>
</g>
<!-- Node27 -->
<g id="node27" class="node">
<title>Node27</title>
<g id="a_node27"><a xlink:title=" ">
<polygon fill="white" stroke="#bfbfbf" points="174.5,-504.5 174.5,-523.5 253.5,-523.5 253.5,-504.5 174.5,-504.5"/>
<text text-anchor="middle" x="214" y="-511.5" font-family="Helvetica,sans-Serif" font-size="10.00">AH/STL/tuple</text>
</a>
</g>
</g>
<!-- Node25&#45;&gt;Node27 -->
<g id="edge37" class="edge">
<title>Node25&#45;&gt;Node27</title>
<path fill="none" stroke="midnightblue" d="M169.45,-565.98C177.33,-556.96 189.94,-542.52 199.74,-531.31"/>
<polygon fill="midnightblue" stroke="midnightblue" points="202.62,-533.34 206.56,-523.51 197.35,-528.74 202.62,-533.34"/>
</g>
<!-- Node30 -->
<g id="node30" class="node">
<title>Node30</title>
<g id="a_node30"><a xlink:href="../../d4/d57/ExtendedIOElement_8hpp.html" target="_top" xlink:title=" ">
<polygon fill="white" stroke="black" points="567,-750.5 567,-769.5 701,-769.5 701,-750.5 567,-750.5"/>
<text text-anchor="middle" x="634" y="-757.5" font-family="Helvetica,sans-Serif" font-size="10.00">ExtendedIOElement.hpp</text>
</a>
</g>
</g>
<!-- Node29&#45;&gt;Node30 -->
<g id="edge43" class="edge">
<title>Node29&#45;&gt;Node30</title>
<path fill="none" stroke="midnightblue" d="M841.02,-806.44C798.11,-797.02 729.05,-781.87 682.63,-771.68"/>
<polygon fill="midnightblue" stroke="midnightblue" points="683.31,-768.24 672.8,-769.52 681.81,-775.08 683.31,-768.24"/>
</g>
<!-- Node36 -->
<g id="node36" class="node">
<title>Node36</title>
<g id="a_node36"><a xlink:href="../../d5/db6/ArrayHelpers_8hpp.html" target="_top" xlink:title=" ">
<polygon fill="white" stroke="black" points="793,-566 793,-585 967,-585 967,-566 793,-566"/>
<text text-anchor="middle" x="880" y="-573" font-family="Helvetica,sans-Serif" font-size="10.00">AH/Containers/ArrayHelpers.hpp</text>
</a>
</g>
</g>
<!-- Node29&#45;&gt;Node36 -->
<g id="edge58" class="edge">
<title>Node29&#45;&gt;Node36</title>
<path fill="none" stroke="midnightblue" d="M880,-806.23C880,-771.6 880,-643.93 880,-595.4"/>
<polygon fill="midnightblue" stroke="midnightblue" points="883.5,-595.1 880,-585.1 876.5,-595.1 883.5,-595.1"/>
</g>
<!-- Node30&#45;&gt;Node2 -->
<g id="edge44" class="edge">
<title>Node30&#45;&gt;Node2</title>
<path fill="none" stroke="midnightblue" d="M615.3,-750.44C596.06,-741.64 565.85,-727.81 543.8,-717.72"/>
<polygon fill="midnightblue" stroke="midnightblue" points="545.16,-714.5 534.61,-713.52 542.25,-720.86 545.16,-714.5"/>
</g>
<!-- Node30&#45;&gt;Node4 -->
<g id="edge57" class="edge">
<title>Node30&#45;&gt;Node4</title>
<path fill="none" stroke="midnightblue" d="M637.62,-750.2C648.7,-723.22 682.47,-641.05 699.28,-600.15"/>
<polygon fill="midnightblue" stroke="midnightblue" points="702.6,-601.27 703.17,-590.69 696.13,-598.61 702.6,-601.27"/>
</g>
<!-- Node31 -->
<g id="node31" class="node">
<title>Node31</title>
<g id="a_node31"><a xlink:href="../../d4/d93/Updatable_8hpp.html" target="_top" xlink:title=" ">
<polygon fill="white" stroke="black" points="356.5,-504.5 356.5,-523.5 517.5,-523.5 517.5,-504.5 356.5,-504.5"/>
<text text-anchor="middle" x="437" y="-511.5" font-family="Helvetica,sans-Serif" font-size="10.00">AH/Containers/Updatable.hpp</text>
</a>
</g>
</g>
<!-- Node30&#45;&gt;Node31 -->
<g id="edge45" class="edge">
<title>Node30&#45;&gt;Node31</title>
<path fill="none" stroke="midnightblue" d="M633.48,-750.44C631.74,-728.11 624.49,-667.02 596,-627 562.35,-579.73 502.23,-545.46 466.34,-528.03"/>
<polygon fill="midnightblue" stroke="midnightblue" points="467.44,-524.68 456.9,-523.56 464.45,-531 467.44,-524.68"/>
</g>
<!-- Node31&#45;&gt;Node6 -->
<g id="edge52" class="edge">
<title>Node31&#45;&gt;Node6</title>
<path fill="none" stroke="midnightblue" d="M484.85,-504.44C538.2,-494.9 624.44,-479.48 681.44,-469.29"/>
<polygon fill="midnightblue" stroke="midnightblue" points="682.14,-472.72 691.37,-467.52 680.91,-465.83 682.14,-472.72"/>
</g>
<!-- Node31&#45;&gt;Node15 -->
<g id="edge53" class="edge">
<title>Node31&#45;&gt;Node15</title>
<path fill="none" stroke="midnightblue" d="M356.3,-506.27C287.78,-499.38 195.69,-486.96 164,-468 132.72,-449.29 114,-439.45 114,-403 114,-403 114,-403 114,-233 114,-175.37 181.5,-147.16 234.51,-133.9"/>
<polygon fill="midnightblue" stroke="midnightblue" points="235.64,-137.23 244.56,-131.52 234.02,-130.42 235.64,-137.23"/>
</g>
<!-- Node31&#45;&gt;Node16 -->
<g id="edge55" class="edge">
<title>Node31&#45;&gt;Node16</title>
<path fill="none" stroke="midnightblue" d="M438.57,-504.39C442.68,-483.56 455.26,-429.37 481,-392 489.15,-380.17 501.12,-369.52 511.53,-361.55"/>
<polygon fill="midnightblue" stroke="midnightblue" points="513.77,-364.25 519.78,-355.53 509.64,-358.6 513.77,-364.25"/>
</g>
<!-- Node31&#45;&gt;Node21 -->
<g id="edge56" class="edge">
<title>Node31&#45;&gt;Node21</title>
<path fill="none" stroke="midnightblue" d="M356.2,-504.6C282.4,-496.09 183,-482.2 171,-468 165.26,-461.21 166.88,-455.88 171,-448 229.08,-337.02 374.19,-272.28 442.01,-247.16"/>
<polygon fill="midnightblue" stroke="midnightblue" points="443.61,-250.3 451.82,-243.61 441.23,-243.72 443.61,-250.3"/>
</g>
<!-- Node32 -->
<g id="node32" class="node">
<title>Node32</title>
<g id="a_node32"><a xlink:href="../../d4/dba/CRTP_8hpp.html" target="_top" xlink:title=" ">
<polygon fill="white" stroke="black" points="180,-448.5 180,-467.5 314,-467.5 314,-448.5 180,-448.5"/>
<text text-anchor="middle" x="247" y="-455.5" font-family="Helvetica,sans-Serif" font-size="10.00">AH/Containers/CRTP.hpp</text>
</a>
</g>
</g>
<!-- Node31&#45;&gt;Node32 -->
<g id="edge46" class="edge">
<title>Node31&#45;&gt;Node32</title>
<path fill="none" stroke="midnightblue" d="M406.89,-504.44C374.37,-495.2 322.42,-480.44 286.61,-470.26"/>
<polygon fill="midnightblue" stroke="midnightblue" points="287.54,-466.88 276.97,-467.52 285.63,-473.62 287.54,-466.88"/>
</g>
<!-- Node33 -->
<g id="node33" class="node">
<title>Node33</title>
<g id="a_node33"><a xlink:href="../../de/dd1/LinkedList_8hpp.html" target="_top" xlink:title=" ">
<polygon fill="white" stroke="black" points="509.5,-448.5 509.5,-467.5 668.5,-467.5 668.5,-448.5 509.5,-448.5"/>
<text text-anchor="middle" x="589" y="-455.5" font-family="Helvetica,sans-Serif" font-size="10.00">AH/Containers/LinkedList.hpp</text>
</a>
</g>
</g>
<!-- Node31&#45;&gt;Node33 -->
<g id="edge47" class="edge">
<title>Node31&#45;&gt;Node33</title>
<path fill="none" stroke="midnightblue" d="M461.08,-504.44C486.54,-495.4 526.89,-481.06 555.46,-470.92"/>
<polygon fill="midnightblue" stroke="midnightblue" points="556.78,-474.16 565.03,-467.52 554.43,-467.57 556.78,-474.16"/>
</g>
<!-- Node35 -->
<g id="node35" class="node">
<title>Node35</title>
<g id="a_node35"><a xlink:title=" ">
<polygon fill="white" stroke="#bfbfbf" points="332.5,-448.5 332.5,-467.5 415.5,-467.5 415.5,-448.5 332.5,-448.5"/>
<text text-anchor="middle" x="374" y="-455.5" font-family="Helvetica,sans-Serif" font-size="10.00">AH/STL/utility</text>
</a>
</g>
</g>
<!-- Node31&#45;&gt;Node35 -->
<g id="edge54" class="edge">
<title>Node31&#45;&gt;Node35</title>
<path fill="none" stroke="midnightblue" d="M426.88,-504.32C417.47,-496.26 403.26,-484.08 391.93,-474.37"/>
<polygon fill="midnightblue" stroke="midnightblue" points="394.18,-471.68 384.31,-467.83 389.62,-477 394.18,-471.68"/>
</g>
<!-- Node33&#45;&gt;Node7 -->
<g id="edge48" class="edge">
<title>Node33&#45;&gt;Node7</title>
<path fill="none" stroke="midnightblue" d="M594.45,-448.08C599.01,-440.61 605.67,-429.72 611.29,-420.52"/>
<polygon fill="midnightblue" stroke="midnightblue" points="614.42,-422.11 616.65,-411.75 608.45,-418.46 614.42,-422.11"/>
</g>
<!-- Node33&#45;&gt;Node10 -->
<g id="edge49" class="edge">
<title>Node33&#45;&gt;Node10</title>
<path fill="none" stroke="midnightblue" d="M609.48,-448.38C630.19,-439.57 663.04,-425.32 691,-412 708.59,-403.62 711.79,-398.93 730,-392 789.64,-369.3 828.9,-405.64 869,-356 921.54,-290.96 916.3,-241.26 876,-168 868.11,-153.66 853.51,-143.25 839.6,-136.08"/>
<polygon fill="midnightblue" stroke="midnightblue" points="840.7,-132.73 830.16,-131.62 837.71,-139.06 840.7,-132.73"/>
</g>
<!-- Node33&#45;&gt;Node24 -->
<g id="edge51" class="edge">
<title>Node33&#45;&gt;Node24</title>
<path fill="none" stroke="midnightblue" d="M619.9,-448.44C653.27,-439.2 706.59,-424.44 743.35,-414.26"/>
<polygon fill="midnightblue" stroke="midnightblue" points="744.54,-417.56 753.25,-411.52 742.67,-410.81 744.54,-417.56"/>
</g>
<!-- Node34 -->
<g id="node34" class="node">
<title>Node34</title>
<g id="a_node34"><a xlink:title=" ">
<polygon fill="white" stroke="#bfbfbf" points="490.5,-392.5 490.5,-411.5 543.5,-411.5 543.5,-392.5 490.5,-392.5"/>
<text text-anchor="middle" x="517" y="-399.5" font-family="Helvetica,sans-Serif" font-size="10.00">stdlib.h</text>
</a>
</g>
</g>
<!-- Node33&#45;&gt;Node34 -->
<g id="edge50" class="edge">
<title>Node33&#45;&gt;Node34</title>
<path fill="none" stroke="midnightblue" d="M577.43,-448.32C566.58,-440.18 550.12,-427.84 537.12,-418.09"/>
<polygon fill="midnightblue" stroke="midnightblue" points="538.88,-415.03 528.78,-411.83 534.68,-420.63 538.88,-415.03"/>
</g>
<!-- Node36&#45;&gt;Node5 -->
<g id="edge59" class="edge">
<title>Node36&#45;&gt;Node5</title>
<path fill="none" stroke="midnightblue" d="M858.08,-565.98C831.95,-555.81 788.09,-538.76 758.37,-527.2"/>
<polygon fill="midnightblue" stroke="midnightblue" points="759.47,-523.87 748.88,-523.51 756.93,-530.4 759.47,-523.87"/>
</g>
<!-- Node36&#45;&gt;Node8 -->
<g id="edge61" class="edge">
<title>Node36&#45;&gt;Node8</title>
<path fill="none" stroke="midnightblue" d="M879.82,-565.61C879.05,-530 875.9,-399.27 871,-392 860.32,-376.15 842.55,-365.77 825.11,-359.03"/>
<polygon fill="midnightblue" stroke="midnightblue" points="826.1,-355.66 815.51,-355.64 823.77,-362.27 826.1,-355.66"/>
</g>
<!-- Node37 -->
<g id="node37" class="node">
<title>Node37</title>
<g id="a_node37"><a xlink:title=" ">
<polygon fill="white" stroke="#bfbfbf" points="889.5,-504.5 889.5,-523.5 990.5,-523.5 990.5,-504.5 889.5,-504.5"/>
<text text-anchor="middle" x="940" y="-511.5" font-family="Helvetica,sans-Serif" font-size="10.00">AH/STL/algorithm</text>
</a>
</g>
</g>
<!-- Node36&#45;&gt;Node37 -->
<g id="edge60" class="edge">
<title>Node36&#45;&gt;Node37</title>
<path fill="none" stroke="midnightblue" d="M888.6,-565.98C897.86,-556.78 912.82,-541.96 924.21,-530.66"/>
<polygon fill="midnightblue" stroke="midnightblue" points="926.78,-533.04 931.42,-523.51 921.85,-528.07 926.78,-533.04"/>
</g>
<!-- Node38&#45;&gt;Node6 -->
<g id="edge63" class="edge">
<title>Node38&#45;&gt;Node6</title>
<path fill="none" stroke="midnightblue" d="M1028.49,-504.44C966.63,-494.73 865.93,-478.92 801.09,-468.75"/>
<polygon fill="midnightblue" stroke="midnightblue" points="801.42,-465.26 791,-467.16 800.34,-472.17 801.42,-465.26"/>
</g>
<!-- Node38&#45;&gt;Node14 -->
<g id="edge64" class="edge">
<title>Node38&#45;&gt;Node14</title>
<path fill="none" stroke="midnightblue" d="M1083,-504.44C1083,-485.94 1083,-440.81 1083,-403 1083,-403 1083,-403 1083,-177 1083,-131.4 788.08,-93.55 630.56,-76.59"/>
<polygon fill="midnightblue" stroke="midnightblue" points="630.7,-73.09 620.39,-75.5 629.96,-80.05 630.7,-73.09"/>
</g>
<!-- Node38&#45;&gt;Node22 -->
<g id="edge65" class="edge">
<title>Node38&#45;&gt;Node22</title>
<path fill="none" stroke="midnightblue" d="M1068.86,-504.36C1043.99,-487.95 995,-449.71 995,-403 995,-403 995,-403 995,-345 995,-309.93 975.16,-272.94 961.83,-252.04"/>
<polygon fill="midnightblue" stroke="midnightblue" points="964.7,-250.03 956.26,-243.63 958.87,-253.9 964.7,-250.03"/>
</g>
<!-- Node39&#45;&gt;Node1 -->
<g id="edge67" class="edge">
<title>Node39&#45;&gt;Node1</title>
<path fill="none" stroke="midnightblue" d="M1217.53,-825.83C1208.33,-834.18 1191.96,-846.86 1177.9,-856.66"/>
<polygon fill="midnightblue" stroke="midnightblue" points="1175.84,-853.82 1169.52,-862.32 1179.77,-859.62 1175.84,-853.82"/>
</g>
</g>
</svg>
