<?xml version="1.0" encoding="UTF-8" standalone="no"?>
<!DOCTYPE svg PUBLIC "-//W3C//DTD SVG 1.1//EN"
 "http://www.w3.org/Graphics/SVG/1.1/DTD/svg11.dtd">
<!-- Generated by graphviz version 2.43.0 (0)
 -->
<!-- Title: Settings.hpp Pages: 1 -->
<svg width="626pt" height="308pt"
 viewBox="0.00 0.00 626.00 308.00" xmlns="http://www.w3.org/2000/svg" xmlns:xlink="http://www.w3.org/1999/xlink">
<g id="graph0" class="graph" transform="scale(1 1) rotate(0) translate(4 304)">
<title>Settings.hpp</title>
<polygon fill="white" stroke="transparent" points="-4,4 -4,-304 622,-304 622,4 -4,4"/>
<!-- Node1 -->
<g id="node1" class="node">
<title>Node1</title>
<g id="a_node1"><a xlink:title="All user settings and debugging options can be changed here.">
<polygon fill="#bfbfbf" stroke="black" points="407,-280.5 407,-299.5 484,-299.5 484,-280.5 407,-280.5"/>
<text text-anchor="middle" x="445.5" y="-287.5" font-family="Helvetica,sans-Serif" font-size="10.00">Settings.hpp</text>
</a>
</g>
</g>
<!-- Node2 -->
<g id="node2" class="node">
<title>Node2</title>
<g id="a_node2"><a xlink:href="../../dc/d50/Frequency_8hpp.html" target="_top" xlink:title=" ">
<polygon fill="white" stroke="black" points="118.5,-168.5 118.5,-187.5 252.5,-187.5 252.5,-168.5 118.5,-168.5"/>
<text text-anchor="middle" x="185.5" y="-175.5" font-family="Helvetica,sans-Serif" font-size="10.00">AH/Types/Frequency.hpp</text>
</a>
</g>
</g>
<!-- Node1&#45;&gt;Node2 -->
<g id="edge1" class="edge">
<title>Node1&#45;&gt;Node2</title>
<path fill="none" stroke="midnightblue" d="M406.65,-288.69C361.85,-286.63 287.56,-277.82 234.5,-244 216.49,-232.52 202.67,-211.94 194.37,-197.01"/>
<polygon fill="midnightblue" stroke="midnightblue" points="197.26,-194.99 189.52,-187.75 191.06,-198.24 197.26,-194.99"/>
</g>
<!-- Node5 -->
<g id="node5" class="node">
<title>Node5</title>
<g id="a_node5"><a xlink:href="../../d7/d7c/ADCConfig_8hpp.html" target="_top" xlink:title="This file contains the platform&#45;specific ADC resolutions.">
<polygon fill="white" stroke="black" points="244,-224.5 244,-243.5 401,-243.5 401,-224.5 244,-224.5"/>
<text text-anchor="middle" x="322.5" y="-231.5" font-family="Helvetica,sans-Serif" font-size="10.00">AH/Hardware/ADCConfig.hpp</text>
</a>
</g>
</g>
<!-- Node1&#45;&gt;Node5 -->
<g id="edge4" class="edge">
<title>Node1&#45;&gt;Node5</title>
<path fill="none" stroke="midnightblue" d="M426.01,-280.44C405.86,-271.6 374.18,-257.69 351.17,-247.59"/>
<polygon fill="midnightblue" stroke="midnightblue" points="352.46,-244.33 341.9,-243.52 349.65,-250.74 352.46,-244.33"/>
</g>
<!-- Node11 -->
<g id="node11" class="node">
<title>Node11</title>
<g id="a_node11"><a xlink:title=" ">
<polygon fill="white" stroke="#bfbfbf" points="419,-224.5 419,-243.5 472,-243.5 472,-224.5 419,-224.5"/>
<text text-anchor="middle" x="445.5" y="-231.5" font-family="Helvetica,sans-Serif" font-size="10.00">limits.h</text>
</a>
</g>
</g>
<!-- Node1&#45;&gt;Node11 -->
<g id="edge13" class="edge">
<title>Node1&#45;&gt;Node11</title>
<path fill="none" stroke="midnightblue" d="M445.5,-280.08C445.5,-273.01 445.5,-262.86 445.5,-253.99"/>
<polygon fill="midnightblue" stroke="midnightblue" points="449,-253.75 445.5,-243.75 442,-253.75 449,-253.75"/>
</g>
<!-- Node12 -->
<g id="node12" class="node">
<title>Node12</title>
<g id="a_node12"><a xlink:title=" ">
<polygon fill="white" stroke="#bfbfbf" points="490.5,-224.5 490.5,-243.5 546.5,-243.5 546.5,-224.5 490.5,-224.5"/>
<text text-anchor="middle" x="518.5" y="-231.5" font-family="Helvetica,sans-Serif" font-size="10.00">stddef.h</text>
</a>
</g>
</g>
<!-- Node1&#45;&gt;Node12 -->
<g id="edge14" class="edge">
<title>Node1&#45;&gt;Node12</title>
<path fill="none" stroke="midnightblue" d="M457.23,-280.32C468.34,-272.11 485.24,-259.6 498.48,-249.81"/>
<polygon fill="midnightblue" stroke="midnightblue" points="500.6,-252.59 506.56,-243.83 496.44,-246.97 500.6,-252.59"/>
</g>
<!-- Node13 -->
<g id="node13" class="node">
<title>Node13</title>
<g id="a_node13"><a xlink:title=" ">
<polygon fill="white" stroke="#bfbfbf" points="565,-224.5 565,-243.5 618,-243.5 618,-224.5 565,-224.5"/>
<text text-anchor="middle" x="591.5" y="-231.5" font-family="Helvetica,sans-Serif" font-size="10.00">stdint.h</text>
</a>
</g>
</g>
<!-- Node1&#45;&gt;Node13 -->
<g id="edge15" class="edge">
<title>Node1&#45;&gt;Node13</title>
<path fill="none" stroke="midnightblue" d="M468.63,-280.44C492.98,-271.44 531.51,-257.19 558.92,-247.05"/>
<polygon fill="midnightblue" stroke="midnightblue" points="560.31,-250.27 568.47,-243.52 557.88,-243.7 560.31,-250.27"/>
</g>
<!-- Node3 -->
<g id="node3" class="node">
<title>Node3</title>
<g id="a_node3"><a xlink:href="../../dc/dc7/NamespaceSettings_8hpp.html" target="_top" xlink:title=" ">
<polygon fill="white" stroke="black" points="0,-56.5 0,-75.5 195,-75.5 195,-56.5 0,-56.5"/>
<text text-anchor="middle" x="97.5" y="-63.5" font-family="Helvetica,sans-Serif" font-size="10.00">AH/Settings/NamespaceSettings.hpp</text>
</a>
</g>
</g>
<!-- Node2&#45;&gt;Node3 -->
<g id="edge2" class="edge">
<title>Node2&#45;&gt;Node3</title>
<path fill="none" stroke="midnightblue" d="M178.59,-168.37C164.01,-150.14 129.84,-107.43 110.84,-83.68"/>
<polygon fill="midnightblue" stroke="midnightblue" points="113.35,-81.21 104.37,-75.59 107.89,-85.59 113.35,-81.21"/>
</g>
<!-- Node4 -->
<g id="node4" class="node">
<title>Node4</title>
<g id="a_node4"><a xlink:href="../../d1/d65/Warnings_8hpp.html" target="_top" xlink:title=" ">
<polygon fill="white" stroke="black" points="122,-0.5 122,-19.5 265,-19.5 265,-0.5 122,-0.5"/>
<text text-anchor="middle" x="193.5" y="-7.5" font-family="Helvetica,sans-Serif" font-size="10.00">AH/Settings/Warnings.hpp</text>
</a>
</g>
</g>
<!-- Node3&#45;&gt;Node4 -->
<g id="edge3" class="edge">
<title>Node3&#45;&gt;Node4</title>
<path fill="none" stroke="midnightblue" d="M112.92,-56.32C128.04,-47.82 151.32,-34.73 168.97,-24.8"/>
<polygon fill="midnightblue" stroke="midnightblue" points="171.11,-27.61 178.11,-19.65 167.68,-21.51 171.11,-27.61"/>
</g>
<!-- Node6 -->
<g id="node6" class="node">
<title>Node6</title>
<g id="a_node6"><a xlink:href="../../d6/ddf/Arduino-Wrapper_8h.html" target="_top" xlink:title=" ">
<polygon fill="white" stroke="black" points="285.5,-168.5 285.5,-187.5 409.5,-187.5 409.5,-168.5 285.5,-168.5"/>
<text text-anchor="middle" x="347.5" y="-175.5" font-family="Helvetica,sans-Serif" font-size="10.00">AH/Arduino&#45;Wrapper.h</text>
</a>
</g>
</g>
<!-- Node5&#45;&gt;Node6 -->
<g id="edge5" class="edge">
<title>Node5&#45;&gt;Node6</title>
<path fill="none" stroke="midnightblue" d="M326.63,-224.08C330.01,-216.77 334.92,-206.18 339.12,-197.1"/>
<polygon fill="midnightblue" stroke="midnightblue" points="342.42,-198.3 343.45,-187.75 336.07,-195.36 342.42,-198.3"/>
</g>
<!-- Node7 -->
<g id="node7" class="node">
<title>Node7</title>
<g id="a_node7"><a xlink:href="../../d7/d79/MinMaxFix_8hpp.html" target="_top" xlink:title=" ">
<polygon fill="white" stroke="black" points="230.5,-112.5 230.5,-131.5 366.5,-131.5 366.5,-112.5 230.5,-112.5"/>
<text text-anchor="middle" x="298.5" y="-119.5" font-family="Helvetica,sans-Serif" font-size="10.00">AH/Math/MinMaxFix.hpp</text>
</a>
</g>
</g>
<!-- Node6&#45;&gt;Node7 -->
<g id="edge6" class="edge">
<title>Node6&#45;&gt;Node7</title>
<path fill="none" stroke="midnightblue" d="M339.41,-168.08C332.34,-160.3 321.91,-148.8 313.35,-139.37"/>
<polygon fill="midnightblue" stroke="midnightblue" points="315.75,-136.8 306.44,-131.75 310.57,-141.51 315.75,-136.8"/>
</g>
<!-- Node9 -->
<g id="node9" class="node">
<title>Node9</title>
<g id="a_node9"><a xlink:title=" ">
<polygon fill="white" stroke="#bfbfbf" points="323,-0.5 323,-19.5 386,-19.5 386,-0.5 323,-0.5"/>
<text text-anchor="middle" x="354.5" y="-7.5" font-family="Helvetica,sans-Serif" font-size="10.00">Arduino.h</text>
</a>
</g>
</g>
<!-- Node6&#45;&gt;Node9 -->
<g id="edge12" class="edge">
<title>Node6&#45;&gt;Node9</title>
<path fill="none" stroke="midnightblue" d="M353.79,-168.42C360,-159.63 369.42,-145.41 375.5,-132 386.24,-108.31 388.68,-101.73 392.5,-76 393.81,-67.21 395.55,-64.35 392.5,-56 388.44,-44.91 380.31,-34.67 372.61,-26.76"/>
<polygon fill="midnightblue" stroke="midnightblue" points="374.86,-24.07 365.21,-19.7 370.03,-29.14 374.86,-24.07"/>
</g>
<!-- Node10 -->
<g id="node10" class="node">
<title>Node10</title>
<g id="a_node10"><a xlink:title=" ">
<polygon fill="white" stroke="#bfbfbf" points="440,-112.5 440,-131.5 547,-131.5 547,-112.5 440,-112.5"/>
<text text-anchor="middle" x="493.5" y="-119.5" font-family="Helvetica,sans-Serif" font-size="10.00">AH/STL/type_traits</text>
</a>
</g>
</g>
<!-- Node6&#45;&gt;Node10 -->
<g id="edge11" class="edge">
<title>Node6&#45;&gt;Node10</title>
<path fill="none" stroke="midnightblue" d="M370.63,-168.44C394.98,-159.44 433.51,-145.19 460.92,-135.05"/>
<polygon fill="midnightblue" stroke="midnightblue" points="462.31,-138.27 470.47,-131.52 459.88,-131.7 462.31,-138.27"/>
</g>
<!-- Node7&#45;&gt;Node3 -->
<g id="edge10" class="edge">
<title>Node7&#45;&gt;Node3</title>
<path fill="none" stroke="midnightblue" d="M266.65,-112.44C232.1,-103.16 176.82,-88.31 138.92,-78.13"/>
<polygon fill="midnightblue" stroke="midnightblue" points="139.77,-74.73 129.2,-75.52 137.95,-81.49 139.77,-74.73"/>
</g>
<!-- Node8 -->
<g id="node8" class="node">
<title>Node8</title>
<g id="a_node8"><a xlink:href="../../d6/d3b/FixArduinoMacros_8hpp.html" target="_top" xlink:title=" ">
<polygon fill="white" stroke="black" points="213.5,-56.5 213.5,-75.5 383.5,-75.5 383.5,-56.5 213.5,-56.5"/>
<text text-anchor="middle" x="298.5" y="-63.5" font-family="Helvetica,sans-Serif" font-size="10.00">AH/Math/FixArduinoMacros.hpp</text>
</a>
</g>
</g>
<!-- Node7&#45;&gt;Node8 -->
<g id="edge7" class="edge">
<title>Node7&#45;&gt;Node8</title>
<path fill="none" stroke="midnightblue" d="M298.5,-112.08C298.5,-105.01 298.5,-94.86 298.5,-85.99"/>
<polygon fill="midnightblue" stroke="midnightblue" points="302,-85.75 298.5,-75.75 295,-85.75 302,-85.75"/>
</g>
<!-- Node8&#45;&gt;Node4 -->
<g id="edge8" class="edge">
<title>Node8&#45;&gt;Node4</title>
<path fill="none" stroke="midnightblue" d="M281.63,-56.32C264.79,-47.66 238.69,-34.24 219.26,-24.25"/>
<polygon fill="midnightblue" stroke="midnightblue" points="220.82,-21.12 210.33,-19.65 217.62,-27.34 220.82,-21.12"/>
</g>
<!-- Node8&#45;&gt;Node9 -->
<g id="edge9" class="edge">
<title>Node8&#45;&gt;Node9</title>
<path fill="none" stroke="midnightblue" d="M307.5,-56.32C315.69,-48.42 328.01,-36.55 337.97,-26.94"/>
<polygon fill="midnightblue" stroke="midnightblue" points="340.57,-29.29 345.34,-19.83 335.71,-24.26 340.57,-29.29"/>
</g>
</g>
</svg>
