<?xml version="1.0" encoding="UTF-8" standalone="no"?>
<!DOCTYPE svg PUBLIC "-//W3C//DTD SVG 1.1//EN"
 "http://www.w3.org/Graphics/SVG/1.1/DTD/svg11.dtd">
<!-- Generated by graphviz version 2.43.0 (0)
 -->
<!-- Title: LinkedList.hpp Pages: 1 -->
<svg width="698pt" height="476pt"
 viewBox="0.00 0.00 697.50 476.00" xmlns="http://www.w3.org/2000/svg" xmlns:xlink="http://www.w3.org/1999/xlink">
<g id="graph0" class="graph" transform="scale(1 1) rotate(0) translate(4 472)">
<title>LinkedList.hpp</title>
<polygon fill="white" stroke="transparent" points="-4,4 -4,-472 693.5,-472 693.5,4 -4,4"/>
<!-- Node1 -->
<g id="node1" class="node">
<title>Node1</title>
<g id="a_node1"><a xlink:title=" ">
<polygon fill="#bfbfbf" stroke="black" points="382,-448.5 382,-467.5 468,-467.5 468,-448.5 382,-448.5"/>
<text text-anchor="middle" x="425" y="-455.5" font-family="Helvetica,sans-Serif" font-size="10.00">LinkedList.hpp</text>
</a>
</g>
</g>
<!-- Node2 -->
<g id="node2" class="node">
<title>Node2</title>
<g id="a_node2"><a xlink:href="../../df/dee/Debug_8hpp.html" target="_top" xlink:title=" ">
<polygon fill="white" stroke="black" points="312.5,-392.5 312.5,-411.5 433.5,-411.5 433.5,-392.5 312.5,-392.5"/>
<text text-anchor="middle" x="373" y="-399.5" font-family="Helvetica,sans-Serif" font-size="10.00">AH/Debug/Debug.hpp</text>
</a>
</g>
</g>
<!-- Node1&#45;&gt;Node2 -->
<g id="edge1" class="edge">
<title>Node1&#45;&gt;Node2</title>
<path fill="none" stroke="midnightblue" d="M416.41,-448.08C408.84,-440.22 397.62,-428.57 388.49,-419.08"/>
<polygon fill="midnightblue" stroke="midnightblue" points="390.88,-416.53 381.43,-411.75 385.84,-421.38 390.88,-416.53"/>
</g>
<!-- Node5 -->
<g id="node5" class="node">
<title>Node5</title>
<g id="a_node5"><a xlink:href="../../d7/d79/MinMaxFix_8hpp.html" target="_top" xlink:title=" ">
<polygon fill="white" stroke="black" points="131,-112.5 131,-131.5 267,-131.5 267,-112.5 131,-112.5"/>
<text text-anchor="middle" x="199" y="-119.5" font-family="Helvetica,sans-Serif" font-size="10.00">AH/Math/MinMaxFix.hpp</text>
</a>
</g>
</g>
<!-- Node1&#45;&gt;Node5 -->
<g id="edge25" class="edge">
<title>Node1&#45;&gt;Node5</title>
<path fill="none" stroke="midnightblue" d="M381.91,-454.99C273.86,-448.78 0,-425.31 0,-347 0,-347 0,-347 0,-233 0,-174.07 67.67,-146.46 124.09,-133.69"/>
<polygon fill="midnightblue" stroke="midnightblue" points="125.07,-137.06 134.12,-131.54 123.6,-130.21 125.07,-137.06"/>
</g>
<!-- Node19 -->
<g id="node19" class="node">
<title>Node19</title>
<g id="a_node19"><a xlink:title=" ">
<polygon fill="white" stroke="#bfbfbf" points="451.5,-392.5 451.5,-411.5 504.5,-411.5 504.5,-392.5 451.5,-392.5"/>
<text text-anchor="middle" x="478" y="-399.5" font-family="Helvetica,sans-Serif" font-size="10.00">stdlib.h</text>
</a>
</g>
</g>
<!-- Node1&#45;&gt;Node19 -->
<g id="edge26" class="edge">
<title>Node1&#45;&gt;Node19</title>
<path fill="none" stroke="midnightblue" d="M433.75,-448.08C441.47,-440.22 452.9,-428.57 462.22,-419.08"/>
<polygon fill="midnightblue" stroke="midnightblue" points="464.9,-421.34 469.41,-411.75 459.91,-416.44 464.9,-421.34"/>
</g>
<!-- Node20 -->
<g id="node20" class="node">
<title>Node20</title>
<g id="a_node20"><a xlink:title=" ">
<polygon fill="white" stroke="#bfbfbf" points="523,-392.5 523,-411.5 613,-411.5 613,-392.5 523,-392.5"/>
<text text-anchor="middle" x="568" y="-399.5" font-family="Helvetica,sans-Serif" font-size="10.00">AH/STL/iterator</text>
</a>
</g>
</g>
<!-- Node1&#45;&gt;Node20 -->
<g id="edge27" class="edge">
<title>Node1&#45;&gt;Node20</title>
<path fill="none" stroke="midnightblue" d="M447.66,-448.44C471.4,-439.48 508.91,-425.31 535.74,-415.18"/>
<polygon fill="midnightblue" stroke="midnightblue" points="537.33,-418.32 545.45,-411.52 534.86,-411.77 537.33,-418.32"/>
</g>
<!-- Node3 -->
<g id="node3" class="node">
<title>Node3</title>
<g id="a_node3"><a xlink:href="../../dd/d80/PrintStream_8hpp.html" target="_top" xlink:title=" ">
<polygon fill="white" stroke="black" points="516.5,-224.5 516.5,-243.5 689.5,-243.5 689.5,-224.5 516.5,-224.5"/>
<text text-anchor="middle" x="603" y="-231.5" font-family="Helvetica,sans-Serif" font-size="10.00">AH/PrintStream/PrintStream.hpp</text>
</a>
</g>
</g>
<!-- Node2&#45;&gt;Node3 -->
<g id="edge2" class="edge">
<title>Node2&#45;&gt;Node3</title>
<path fill="none" stroke="midnightblue" d="M397.05,-392.39C417.59,-384.49 447.45,-371.64 471,-356 518.47,-324.48 565.63,-276.07 588.59,-251.11"/>
<polygon fill="midnightblue" stroke="midnightblue" points="591.28,-253.36 595.41,-243.61 586.1,-248.65 591.28,-253.36"/>
</g>
<!-- Node11 -->
<g id="node11" class="node">
<title>Node11</title>
<g id="a_node11"><a xlink:href="../../d2/dd5/SettingsWrapper_8hpp.html" target="_top" xlink:title=" ">
<polygon fill="white" stroke="black" points="284,-336.5 284,-355.5 462,-355.5 462,-336.5 284,-336.5"/>
<text text-anchor="middle" x="373" y="-343.5" font-family="Helvetica,sans-Serif" font-size="10.00">AH/Settings/SettingsWrapper.hpp</text>
</a>
</g>
</g>
<!-- Node2&#45;&gt;Node11 -->
<g id="edge13" class="edge">
<title>Node2&#45;&gt;Node11</title>
<path fill="none" stroke="midnightblue" d="M367.83,-392.08C366.32,-384.93 365.89,-374.64 366.54,-365.69"/>
<polygon fill="midnightblue" stroke="midnightblue" points="370.02,-366.13 367.87,-355.75 363.08,-365.2 370.02,-366.13"/>
</g>
<!-- Node4 -->
<g id="node4" class="node">
<title>Node4</title>
<g id="a_node4"><a xlink:href="../../d6/ddf/Arduino-Wrapper_8h.html" target="_top" xlink:title=" ">
<polygon fill="white" stroke="black" points="137,-168.5 137,-187.5 261,-187.5 261,-168.5 137,-168.5"/>
<text text-anchor="middle" x="199" y="-175.5" font-family="Helvetica,sans-Serif" font-size="10.00">AH/Arduino&#45;Wrapper.h</text>
</a>
</g>
</g>
<!-- Node3&#45;&gt;Node4 -->
<g id="edge3" class="edge">
<title>Node3&#45;&gt;Node4</title>
<path fill="none" stroke="midnightblue" d="M538.98,-224.44C466.06,-214.7 347.16,-198.8 271.04,-188.63"/>
<polygon fill="midnightblue" stroke="midnightblue" points="271.43,-185.15 261.06,-187.29 270.51,-192.09 271.43,-185.15"/>
</g>
<!-- Node9 -->
<g id="node9" class="node">
<title>Node9</title>
<g id="a_node9"><a xlink:href="../../dc/dc7/NamespaceSettings_8hpp.html" target="_top" xlink:title=" ">
<polygon fill="white" stroke="black" points="323.5,-56.5 323.5,-75.5 518.5,-75.5 518.5,-56.5 323.5,-56.5"/>
<text text-anchor="middle" x="421" y="-63.5" font-family="Helvetica,sans-Serif" font-size="10.00">AH/Settings/NamespaceSettings.hpp</text>
</a>
</g>
</g>
<!-- Node3&#45;&gt;Node9 -->
<g id="edge12" class="edge">
<title>Node3&#45;&gt;Node9</title>
<path fill="none" stroke="midnightblue" d="M597.52,-224.46C583.61,-203.29 545.01,-147.58 502,-112 486.25,-98.97 466.18,-87.79 449.96,-79.83"/>
<polygon fill="midnightblue" stroke="midnightblue" points="451.45,-76.66 440.91,-75.53 448.44,-82.99 451.45,-76.66"/>
</g>
<!-- Node4&#45;&gt;Node5 -->
<g id="edge4" class="edge">
<title>Node4&#45;&gt;Node5</title>
<path fill="none" stroke="midnightblue" d="M199,-168.08C199,-161.01 199,-150.86 199,-141.99"/>
<polygon fill="midnightblue" stroke="midnightblue" points="202.5,-141.75 199,-131.75 195.5,-141.75 202.5,-141.75"/>
</g>
<!-- Node8 -->
<g id="node8" class="node">
<title>Node8</title>
<g id="a_node8"><a xlink:title=" ">
<polygon fill="white" stroke="#bfbfbf" points="127.5,-0.5 127.5,-19.5 190.5,-19.5 190.5,-0.5 127.5,-0.5"/>
<text text-anchor="middle" x="159" y="-7.5" font-family="Helvetica,sans-Serif" font-size="10.00">Arduino.h</text>
</a>
</g>
</g>
<!-- Node4&#45;&gt;Node8 -->
<g id="edge11" class="edge">
<title>Node4&#45;&gt;Node8</title>
<path fill="none" stroke="midnightblue" d="M170.63,-168.49C153.25,-161.65 132.4,-150.13 122,-132 105.19,-102.7 110.61,-87.8 122,-56 125.94,-45 133.86,-34.77 141.36,-26.85"/>
<polygon fill="midnightblue" stroke="midnightblue" points="143.89,-29.27 148.56,-19.76 138.98,-24.28 143.89,-29.27"/>
</g>
<!-- Node10 -->
<g id="node10" class="node">
<title>Node10</title>
<g id="a_node10"><a xlink:title=" ">
<polygon fill="white" stroke="#bfbfbf" points="285.5,-112.5 285.5,-131.5 392.5,-131.5 392.5,-112.5 285.5,-112.5"/>
<text text-anchor="middle" x="339" y="-119.5" font-family="Helvetica,sans-Serif" font-size="10.00">AH/STL/type_traits</text>
</a>
</g>
</g>
<!-- Node4&#45;&gt;Node10 -->
<g id="edge10" class="edge">
<title>Node4&#45;&gt;Node10</title>
<path fill="none" stroke="midnightblue" d="M221.18,-168.44C244.43,-159.48 281.15,-145.31 307.42,-135.18"/>
<polygon fill="midnightblue" stroke="midnightblue" points="308.85,-138.38 316.92,-131.52 306.33,-131.85 308.85,-138.38"/>
</g>
<!-- Node6 -->
<g id="node6" class="node">
<title>Node6</title>
<g id="a_node6"><a xlink:href="../../d6/d3b/FixArduinoMacros_8hpp.html" target="_top" xlink:title=" ">
<polygon fill="white" stroke="black" points="131,-56.5 131,-75.5 301,-75.5 301,-56.5 131,-56.5"/>
<text text-anchor="middle" x="216" y="-63.5" font-family="Helvetica,sans-Serif" font-size="10.00">AH/Math/FixArduinoMacros.hpp</text>
</a>
</g>
</g>
<!-- Node5&#45;&gt;Node6 -->
<g id="edge5" class="edge">
<title>Node5&#45;&gt;Node6</title>
<path fill="none" stroke="midnightblue" d="M201.81,-112.08C204.08,-104.85 207.37,-94.41 210.21,-85.4"/>
<polygon fill="midnightblue" stroke="midnightblue" points="213.58,-86.34 213.25,-75.75 206.9,-84.24 213.58,-86.34"/>
</g>
<!-- Node5&#45;&gt;Node9 -->
<g id="edge8" class="edge">
<title>Node5&#45;&gt;Node9</title>
<path fill="none" stroke="midnightblue" d="M234.18,-112.44C272.58,-103.1 334.18,-88.12 376.06,-77.93"/>
<polygon fill="midnightblue" stroke="midnightblue" points="377.1,-81.28 385.99,-75.52 375.44,-74.48 377.1,-81.28"/>
</g>
<!-- Node7 -->
<g id="node7" class="node">
<title>Node7</title>
<g id="a_node7"><a xlink:href="../../d1/d65/Warnings_8hpp.html" target="_top" xlink:title=" ">
<polygon fill="white" stroke="black" points="278.5,-0.5 278.5,-19.5 421.5,-19.5 421.5,-0.5 278.5,-0.5"/>
<text text-anchor="middle" x="350" y="-7.5" font-family="Helvetica,sans-Serif" font-size="10.00">AH/Settings/Warnings.hpp</text>
</a>
</g>
</g>
<!-- Node6&#45;&gt;Node7 -->
<g id="edge6" class="edge">
<title>Node6&#45;&gt;Node7</title>
<path fill="none" stroke="midnightblue" d="M237.23,-56.44C259.38,-47.52 294.32,-33.44 319.44,-23.32"/>
<polygon fill="midnightblue" stroke="midnightblue" points="320.9,-26.5 328.87,-19.52 318.28,-20.01 320.9,-26.5"/>
</g>
<!-- Node6&#45;&gt;Node8 -->
<g id="edge7" class="edge">
<title>Node6&#45;&gt;Node8</title>
<path fill="none" stroke="midnightblue" d="M206.84,-56.32C198.5,-48.42 185.97,-36.55 175.82,-26.94"/>
<polygon fill="midnightblue" stroke="midnightblue" points="177.99,-24.17 168.32,-19.83 173.18,-29.25 177.99,-24.17"/>
</g>
<!-- Node9&#45;&gt;Node7 -->
<g id="edge9" class="edge">
<title>Node9&#45;&gt;Node7</title>
<path fill="none" stroke="midnightblue" d="M409.59,-56.32C398.89,-48.18 382.66,-35.84 369.84,-26.09"/>
<polygon fill="midnightblue" stroke="midnightblue" points="371.69,-23.1 361.61,-19.83 367.46,-28.67 371.69,-23.1"/>
</g>
<!-- Node11&#45;&gt;Node2 -->
<g id="edge24" class="edge">
<title>Node11&#45;&gt;Node2</title>
<path fill="none" stroke="midnightblue" d="M378.13,-355.75C379.66,-362.86 380.1,-373.14 379.47,-382.1"/>
<polygon fill="midnightblue" stroke="midnightblue" points="375.99,-381.71 378.17,-392.08 382.93,-382.62 375.99,-381.71"/>
</g>
<!-- Node11&#45;&gt;Node9 -->
<g id="edge14" class="edge">
<title>Node11&#45;&gt;Node9</title>
<path fill="none" stroke="midnightblue" d="M408.09,-336.39C428.54,-329.67 453.31,-318.31 469,-300 488.58,-277.14 488,-265.1 488,-235 488,-235 488,-235 488,-177 488,-138.7 458.01,-102.42 438.16,-82.59"/>
<polygon fill="midnightblue" stroke="midnightblue" points="440.52,-80 430.89,-75.6 435.67,-85.05 440.52,-80"/>
</g>
<!-- Node12 -->
<g id="node12" class="node">
<title>Node12</title>
<g id="a_node12"><a xlink:href="../../db/d02/Settings_8hpp.html" target="_top" xlink:title="All user settings and debugging options can be changed here.">
<polygon fill="white" stroke="black" points="191.5,-280.5 191.5,-299.5 268.5,-299.5 268.5,-280.5 191.5,-280.5"/>
<text text-anchor="middle" x="230" y="-287.5" font-family="Helvetica,sans-Serif" font-size="10.00">Settings.hpp</text>
</a>
</g>
</g>
<!-- Node11&#45;&gt;Node12 -->
<g id="edge15" class="edge">
<title>Node11&#45;&gt;Node12</title>
<path fill="none" stroke="midnightblue" d="M350.34,-336.44C326.6,-327.48 289.09,-313.31 262.26,-303.18"/>
<polygon fill="midnightblue" stroke="midnightblue" points="263.14,-299.77 252.55,-299.52 260.67,-306.32 263.14,-299.77"/>
</g>
<!-- Node18 -->
<g id="node18" class="node">
<title>Node18</title>
<g id="a_node18"><a xlink:href="../../d9/d98/TeensyUSBTypes_8hpp.html" target="_top" xlink:title=" ">
<polygon fill="white" stroke="black" points="286.5,-280.5 286.5,-299.5 459.5,-299.5 459.5,-280.5 286.5,-280.5"/>
<text text-anchor="middle" x="373" y="-287.5" font-family="Helvetica,sans-Serif" font-size="10.00">AH/Teensy/TeensyUSBTypes.hpp</text>
</a>
</g>
</g>
<!-- Node11&#45;&gt;Node18 -->
<g id="edge23" class="edge">
<title>Node11&#45;&gt;Node18</title>
<path fill="none" stroke="midnightblue" d="M373,-336.08C373,-329.01 373,-318.86 373,-309.99"/>
<polygon fill="midnightblue" stroke="midnightblue" points="376.5,-309.75 373,-299.75 369.5,-309.75 376.5,-309.75"/>
</g>
<!-- Node13 -->
<g id="node13" class="node">
<title>Node13</title>
<g id="a_node13"><a xlink:href="../../dc/d50/Frequency_8hpp.html" target="_top" xlink:title=" ">
<polygon fill="white" stroke="black" points="326,-168.5 326,-187.5 460,-187.5 460,-168.5 326,-168.5"/>
<text text-anchor="middle" x="393" y="-175.5" font-family="Helvetica,sans-Serif" font-size="10.00">AH/Types/Frequency.hpp</text>
</a>
</g>
</g>
<!-- Node12&#45;&gt;Node13 -->
<g id="edge16" class="edge">
<title>Node12&#45;&gt;Node13</title>
<path fill="none" stroke="midnightblue" d="M268.93,-280.59C320.79,-269.21 406.56,-249.68 411,-244 421.78,-230.21 413.83,-210.36 405.35,-196.23"/>
<polygon fill="midnightblue" stroke="midnightblue" points="408.04,-193.94 399.62,-187.5 402.19,-197.78 408.04,-193.94"/>
</g>
<!-- Node14 -->
<g id="node14" class="node">
<title>Node14</title>
<g id="a_node14"><a xlink:href="../../d7/d7c/ADCConfig_8hpp.html" target="_top" xlink:title="This file contains the platform&#45;specific ADC resolutions.">
<polygon fill="white" stroke="black" points="28.5,-224.5 28.5,-243.5 185.5,-243.5 185.5,-224.5 28.5,-224.5"/>
<text text-anchor="middle" x="107" y="-231.5" font-family="Helvetica,sans-Serif" font-size="10.00">AH/Hardware/ADCConfig.hpp</text>
</a>
</g>
</g>
<!-- Node12&#45;&gt;Node14 -->
<g id="edge18" class="edge">
<title>Node12&#45;&gt;Node14</title>
<path fill="none" stroke="midnightblue" d="M210.51,-280.44C190.36,-271.6 158.68,-257.69 135.67,-247.59"/>
<polygon fill="midnightblue" stroke="midnightblue" points="136.96,-244.33 126.4,-243.52 134.15,-250.74 136.96,-244.33"/>
</g>
<!-- Node15 -->
<g id="node15" class="node">
<title>Node15</title>
<g id="a_node15"><a xlink:title=" ">
<polygon fill="white" stroke="#bfbfbf" points="274.5,-224.5 274.5,-243.5 327.5,-243.5 327.5,-224.5 274.5,-224.5"/>
<text text-anchor="middle" x="301" y="-231.5" font-family="Helvetica,sans-Serif" font-size="10.00">limits.h</text>
</a>
</g>
</g>
<!-- Node12&#45;&gt;Node15 -->
<g id="edge20" class="edge">
<title>Node12&#45;&gt;Node15</title>
<path fill="none" stroke="midnightblue" d="M241.41,-280.32C252.11,-272.18 268.34,-259.84 281.16,-250.09"/>
<polygon fill="midnightblue" stroke="midnightblue" points="283.54,-252.67 289.39,-243.83 279.31,-247.1 283.54,-252.67"/>
</g>
<!-- Node16 -->
<g id="node16" class="node">
<title>Node16</title>
<g id="a_node16"><a xlink:title=" ">
<polygon fill="white" stroke="#bfbfbf" points="346,-224.5 346,-243.5 402,-243.5 402,-224.5 346,-224.5"/>
<text text-anchor="middle" x="374" y="-231.5" font-family="Helvetica,sans-Serif" font-size="10.00">stddef.h</text>
</a>
</g>
</g>
<!-- Node12&#45;&gt;Node16 -->
<g id="edge21" class="edge">
<title>Node12&#45;&gt;Node16</title>
<path fill="none" stroke="midnightblue" d="M252.82,-280.44C276.83,-271.44 314.83,-257.19 341.87,-247.05"/>
<polygon fill="midnightblue" stroke="midnightblue" points="343.16,-250.3 351.29,-243.52 340.7,-243.75 343.16,-250.3"/>
</g>
<!-- Node17 -->
<g id="node17" class="node">
<title>Node17</title>
<g id="a_node17"><a xlink:title=" ">
<polygon fill="white" stroke="#bfbfbf" points="203.5,-224.5 203.5,-243.5 256.5,-243.5 256.5,-224.5 203.5,-224.5"/>
<text text-anchor="middle" x="230" y="-231.5" font-family="Helvetica,sans-Serif" font-size="10.00">stdint.h</text>
</a>
</g>
</g>
<!-- Node12&#45;&gt;Node17 -->
<g id="edge22" class="edge">
<title>Node12&#45;&gt;Node17</title>
<path fill="none" stroke="midnightblue" d="M230,-280.08C230,-273.01 230,-262.86 230,-253.99"/>
<polygon fill="midnightblue" stroke="midnightblue" points="233.5,-253.75 230,-243.75 226.5,-253.75 233.5,-253.75"/>
</g>
<!-- Node13&#45;&gt;Node9 -->
<g id="edge17" class="edge">
<title>Node13&#45;&gt;Node9</title>
<path fill="none" stroke="midnightblue" d="M395.2,-168.37C399.72,-150.62 410.14,-109.67 416.27,-85.6"/>
<polygon fill="midnightblue" stroke="midnightblue" points="419.74,-86.15 418.81,-75.59 412.95,-84.42 419.74,-86.15"/>
</g>
<!-- Node14&#45;&gt;Node4 -->
<g id="edge19" class="edge">
<title>Node14&#45;&gt;Node4</title>
<path fill="none" stroke="midnightblue" d="M121.78,-224.32C136.27,-215.82 158.57,-202.73 175.49,-192.8"/>
<polygon fill="midnightblue" stroke="midnightblue" points="177.4,-195.74 184.26,-187.65 173.86,-189.7 177.4,-195.74"/>
</g>
</g>
</svg>
