<?xml version="1.0" encoding="UTF-8" standalone="no"?>
<!DOCTYPE svg PUBLIC "-//W3C//DTD SVG 1.1//EN"
 "http://www.w3.org/Graphics/SVG/1.1/DTD/svg11.dtd">
<!-- Generated by graphviz version 2.43.0 (0)
 -->
<!-- Title: MCP23017.ipp Pages: 1 -->
<svg width="1750pt" height="946pt"
 viewBox="0.00 0.00 1750.00 946.00" xmlns="http://www.w3.org/2000/svg" xmlns:xlink="http://www.w3.org/1999/xlink">
<g id="graph0" class="graph" transform="scale(1 1) rotate(0) translate(4 942)">
<title>MCP23017.ipp</title>
<polygon fill="white" stroke="transparent" points="-4,4 -4,-942 1746,-942 1746,4 -4,4"/>
<!-- Node1 -->
<g id="node1" class="node">
<title>Node1</title>
<g id="a_node1"><a xlink:title=" ">
<polygon fill="#bfbfbf" stroke="black" points="1586,-918.5 1586,-937.5 1672,-937.5 1672,-918.5 1586,-918.5"/>
<text text-anchor="middle" x="1629" y="-925.5" font-family="Helvetica,sans-Serif" font-size="10.00">MCP23017.ipp</text>
</a>
</g>
</g>
<!-- Node2 -->
<g id="node2" class="node">
<title>Node2</title>
<g id="a_node2"><a xlink:href="../../d7/dca/MCP23017_8hpp.html" target="_top" xlink:title=" ">
<polygon fill="white" stroke="black" points="1584.5,-862.5 1584.5,-881.5 1673.5,-881.5 1673.5,-862.5 1584.5,-862.5"/>
<text text-anchor="middle" x="1629" y="-869.5" font-family="Helvetica,sans-Serif" font-size="10.00">MCP23017.hpp</text>
</a>
</g>
</g>
<!-- Node1&#45;&gt;Node2 -->
<g id="edge1" class="edge">
<title>Node1&#45;&gt;Node2</title>
<path fill="none" stroke="midnightblue" d="M1623.83,-918.08C1622.32,-910.93 1621.89,-900.64 1622.54,-891.69"/>
<polygon fill="midnightblue" stroke="midnightblue" points="1626.02,-892.13 1623.87,-881.75 1619.08,-891.2 1626.02,-892.13"/>
</g>
<!-- Node2&#45;&gt;Node1 -->
<g id="edge87" class="edge">
<title>Node2&#45;&gt;Node1</title>
<path fill="none" stroke="midnightblue" d="M1634.13,-881.75C1635.66,-888.86 1636.1,-899.14 1635.47,-908.1"/>
<polygon fill="midnightblue" stroke="midnightblue" points="1631.99,-907.71 1634.17,-918.08 1638.93,-908.62 1631.99,-907.71"/>
</g>
<!-- Node3 -->
<g id="node3" class="node">
<title>Node3</title>
<g id="a_node3"><a xlink:href="../../d1/d65/Warnings_8hpp.html" target="_top" xlink:title=" ">
<polygon fill="white" stroke="black" points="1191.5,-0.5 1191.5,-19.5 1334.5,-19.5 1334.5,-0.5 1191.5,-0.5"/>
<text text-anchor="middle" x="1263" y="-7.5" font-family="Helvetica,sans-Serif" font-size="10.00">AH/Settings/Warnings.hpp</text>
</a>
</g>
</g>
<!-- Node2&#45;&gt;Node3 -->
<g id="edge2" class="edge">
<title>Node2&#45;&gt;Node3</title>
<path fill="none" stroke="midnightblue" d="M1649.2,-862.49C1681.7,-847.29 1742,-812.2 1742,-761 1742,-761 1742,-761 1742,-121 1742,-40.46 1481.54,-18.89 1344.74,-13.11"/>
<polygon fill="midnightblue" stroke="midnightblue" points="1344.84,-9.61 1334.71,-12.71 1344.56,-16.61 1344.84,-9.61"/>
</g>
<!-- Node4 -->
<g id="node4" class="node">
<title>Node4</title>
<g id="a_node4"><a xlink:href="../../dd/ddf/ExtendedInputOutput_8hpp.html" target="_top" xlink:title=" ">
<polygon fill="white" stroke="black" points="287.5,-694.5 287.5,-713.5 428.5,-713.5 428.5,-694.5 287.5,-694.5"/>
<text text-anchor="middle" x="358" y="-701.5" font-family="Helvetica,sans-Serif" font-size="10.00">ExtendedInputOutput.hpp</text>
</a>
</g>
</g>
<!-- Node2&#45;&gt;Node4 -->
<g id="edge3" class="edge">
<title>Node2&#45;&gt;Node4</title>
<path fill="none" stroke="midnightblue" d="M1584.32,-869.76C1397.89,-864.17 681.86,-838.56 468,-770 433.25,-758.86 397.74,-735.2 376.8,-719.71"/>
<polygon fill="midnightblue" stroke="midnightblue" points="378.84,-716.87 368.75,-713.63 374.62,-722.45 378.84,-716.87"/>
</g>
<!-- Node31 -->
<g id="node31" class="node">
<title>Node31</title>
<g id="a_node31"><a xlink:href="../../d2/d05/StaticSizeExtendedIOElement_8hpp.html" target="_top" xlink:title=" ">
<polygon fill="white" stroke="black" points="1287,-806.5 1287,-825.5 1469,-825.5 1469,-806.5 1287,-806.5"/>
<text text-anchor="middle" x="1378" y="-813.5" font-family="Helvetica,sans-Serif" font-size="10.00">StaticSizeExtendedIOElement.hpp</text>
</a>
</g>
</g>
<!-- Node2&#45;&gt;Node31 -->
<g id="edge57" class="edge">
<title>Node2&#45;&gt;Node31</title>
<path fill="none" stroke="midnightblue" d="M1589.23,-862.44C1545.44,-853.02 1474.99,-837.87 1427.62,-827.68"/>
<polygon fill="midnightblue" stroke="midnightblue" points="1428.1,-824.2 1417.59,-825.52 1426.63,-831.04 1428.1,-824.2"/>
</g>
<!-- Node40 -->
<g id="node40" class="node">
<title>Node40</title>
<g id="a_node40"><a xlink:href="../../d1/d40/BitArray_8hpp.html" target="_top" xlink:title=" ">
<polygon fill="white" stroke="black" points="1489.5,-504.5 1489.5,-523.5 1638.5,-523.5 1638.5,-504.5 1489.5,-504.5"/>
<text text-anchor="middle" x="1564" y="-511.5" font-family="Helvetica,sans-Serif" font-size="10.00">AH/Containers/BitArray.hpp</text>
</a>
</g>
</g>
<!-- Node2&#45;&gt;Node40 -->
<g id="edge82" class="edge">
<title>Node2&#45;&gt;Node40</title>
<path fill="none" stroke="midnightblue" d="M1633.99,-862.49C1644.09,-844.44 1666,-800.69 1666,-761 1666,-761 1666,-761 1666,-641.5 1666,-591.64 1617.39,-550.34 1587.29,-529.54"/>
<polygon fill="midnightblue" stroke="midnightblue" points="1588.88,-526.39 1578.61,-523.75 1584.99,-532.21 1588.88,-526.39"/>
</g>
<!-- Node4&#45;&gt;Node3 -->
<g id="edge56" class="edge">
<title>Node4&#45;&gt;Node3</title>
<path fill="none" stroke="midnightblue" d="M287.25,-696.27C236.74,-689.83 175.03,-678.06 159,-658 150.4,-647.24 155.97,-640.44 159,-627 189.3,-492.6 292,-484.77 292,-347 292,-347 292,-347 292,-121 292,-82.28 315.07,-72.69 350,-56 387.15,-38.25 964.35,-19.7 1181.36,-13.32"/>
<polygon fill="midnightblue" stroke="midnightblue" points="1181.52,-16.81 1191.42,-13.02 1181.32,-9.81 1181.52,-16.81"/>
</g>
<!-- Node5 -->
<g id="node5" class="node">
<title>Node5</title>
<g id="a_node5"><a xlink:href="../../d2/d3c/Arduino-Hardware-Types_8hpp.html" target="_top" xlink:title=" ">
<polygon fill="white" stroke="black" points="168,-627.5 168,-657.5 290,-657.5 290,-627.5 168,-627.5"/>
<text text-anchor="start" x="176" y="-645.5" font-family="Helvetica,sans-Serif" font-size="10.00">AH/Hardware/Arduino</text>
<text text-anchor="middle" x="229" y="-634.5" font-family="Helvetica,sans-Serif" font-size="10.00">&#45;Hardware&#45;Types.hpp</text>
</a>
</g>
</g>
<!-- Node4&#45;&gt;Node5 -->
<g id="edge4" class="edge">
<title>Node4&#45;&gt;Node5</title>
<path fill="none" stroke="midnightblue" d="M339.52,-694.48C321.07,-685.96 292.13,-672.62 268.5,-661.72"/>
<polygon fill="midnightblue" stroke="midnightblue" points="269.95,-658.53 259.4,-657.52 267.02,-664.89 269.95,-658.53"/>
</g>
<!-- Node11 -->
<g id="node11" class="node">
<title>Node11</title>
<g id="a_node11"><a xlink:href="../../dc/dc7/NamespaceSettings_8hpp.html" target="_top" xlink:title=" ">
<polygon fill="white" stroke="black" points="707.5,-56.5 707.5,-75.5 902.5,-75.5 902.5,-56.5 707.5,-56.5"/>
<text text-anchor="middle" x="805" y="-63.5" font-family="Helvetica,sans-Serif" font-size="10.00">AH/Settings/NamespaceSettings.hpp</text>
</a>
</g>
</g>
<!-- Node4&#45;&gt;Node11 -->
<g id="edge55" class="edge">
<title>Node4&#45;&gt;Node11</title>
<path fill="none" stroke="midnightblue" d="M371.79,-694.19C382.83,-686.24 397.5,-673.45 404,-658 409.34,-645.3 407.09,-640.43 404,-627 392.6,-577.41 365.4,-573.59 354,-524 340.86,-466.82 341.86,-449.4 354,-392 382.17,-258.84 369.27,-193.86 478,-112 511.81,-86.55 615.43,-75.49 697.07,-70.68"/>
<polygon fill="midnightblue" stroke="midnightblue" points="697.63,-74.16 707.42,-70.1 697.24,-67.17 697.63,-74.16"/>
</g>
<!-- Node30 -->
<g id="node30" class="node">
<title>Node30</title>
<g id="a_node30"><a xlink:title=" ">
<polygon fill="white" stroke="#bfbfbf" points="308.5,-633 308.5,-652 395.5,-652 395.5,-633 308.5,-633"/>
<text text-anchor="middle" x="352" y="-640" font-family="Helvetica,sans-Serif" font-size="10.00">AH/STL/climits</text>
</a>
</g>
</g>
<!-- Node4&#45;&gt;Node30 -->
<g id="edge54" class="edge">
<title>Node4&#45;&gt;Node30</title>
<path fill="none" stroke="midnightblue" d="M357.14,-694.48C356.29,-686.08 354.97,-672.98 353.88,-662.16"/>
<polygon fill="midnightblue" stroke="midnightblue" points="357.34,-661.61 352.86,-652.01 350.38,-662.31 357.34,-661.61"/>
</g>
<!-- Node5&#45;&gt;Node3 -->
<g id="edge5" class="edge">
<title>Node5&#45;&gt;Node3</title>
<path fill="none" stroke="midnightblue" d="M233.7,-627.26C240.94,-604.03 254,-556.42 254,-515 254,-515 254,-515 254,-121 254,-90.2 253.14,-74.18 278,-56 296.15,-42.73 948.12,-20.93 1181.2,-13.54"/>
<polygon fill="midnightblue" stroke="midnightblue" points="1181.43,-17.03 1191.31,-13.22 1181.2,-10.04 1181.43,-17.03"/>
</g>
<!-- Node6 -->
<g id="node6" class="node">
<title>Node6</title>
<g id="a_node6"><a xlink:href="../../d4/d35/Hardware-Types_8hpp.html" target="_top" xlink:title=" ">
<polygon fill="white" stroke="black" points="478.5,-560.5 478.5,-590.5 609.5,-590.5 609.5,-560.5 478.5,-560.5"/>
<text text-anchor="start" x="486.5" y="-578.5" font-family="Helvetica,sans-Serif" font-size="10.00">AH/Hardware/Hardware</text>
<text text-anchor="middle" x="544" y="-567.5" font-family="Helvetica,sans-Serif" font-size="10.00">&#45;Types.hpp</text>
</a>
</g>
</g>
<!-- Node5&#45;&gt;Node6 -->
<g id="edge6" class="edge">
<title>Node5&#45;&gt;Node6</title>
<path fill="none" stroke="midnightblue" d="M290.08,-628.84C293.1,-628.22 296.08,-627.6 299,-627 355.78,-615.27 419.97,-602.04 468.4,-592.06"/>
<polygon fill="midnightblue" stroke="midnightblue" points="469.4,-595.43 478.48,-589.99 467.98,-588.58 469.4,-595.43"/>
</g>
<!-- Node12 -->
<g id="node12" class="node">
<title>Node12</title>
<g id="a_node12"><a xlink:href="../../d6/ddf/Arduino-Wrapper_8h.html" target="_top" xlink:title=" ">
<polygon fill="white" stroke="black" points="582,-168.5 582,-187.5 706,-187.5 706,-168.5 582,-168.5"/>
<text text-anchor="middle" x="644" y="-175.5" font-family="Helvetica,sans-Serif" font-size="10.00">AH/Arduino&#45;Wrapper.h</text>
</a>
</g>
</g>
<!-- Node5&#45;&gt;Node12 -->
<g id="edge53" class="edge">
<title>Node5&#45;&gt;Node12</title>
<path fill="none" stroke="midnightblue" d="M241.65,-627.41C302.35,-559.76 563.55,-268.66 629.06,-195.65"/>
<polygon fill="midnightblue" stroke="midnightblue" points="631.97,-197.64 636.05,-187.86 626.76,-192.97 631.97,-197.64"/>
</g>
<!-- Node27 -->
<g id="node27" class="node">
<title>Node27</title>
<g id="a_node27"><a xlink:href="../../d0/db1/FunctionTraits_8hpp.html" target="_top" xlink:title=" ">
<polygon fill="white" stroke="black" points="72.5,-112.5 72.5,-131.5 225.5,-131.5 225.5,-112.5 72.5,-112.5"/>
<text text-anchor="middle" x="149" y="-119.5" font-family="Helvetica,sans-Serif" font-size="10.00">AH/Types/FunctionTraits.hpp</text>
</a>
</g>
</g>
<!-- Node5&#45;&gt;Node27 -->
<g id="edge48" class="edge">
<title>Node5&#45;&gt;Node27</title>
<path fill="none" stroke="midnightblue" d="M219.17,-627.45C204.35,-604.86 178,-558.57 178,-515 178,-515 178,-515 178,-233 178,-199.72 165.43,-162.58 156.84,-141.09"/>
<polygon fill="midnightblue" stroke="midnightblue" points="159.98,-139.53 152.91,-131.64 153.52,-142.21 159.98,-139.53"/>
</g>
<!-- Node6&#45;&gt;Node3 -->
<g id="edge7" class="edge">
<title>Node6&#45;&gt;Node3</title>
<path fill="none" stroke="midnightblue" d="M483.75,-560.46C462.63,-552.82 440.36,-541.27 425,-524 405,-501.51 406,-489.1 406,-459 406,-459 406,-459 406,-345 406,-241.06 356.92,-189.65 426,-112 475.75,-56.07 980.46,-25.03 1181.25,-14.82"/>
<polygon fill="midnightblue" stroke="midnightblue" points="1181.63,-18.31 1191.44,-14.31 1181.28,-11.31 1181.63,-18.31"/>
</g>
<!-- Node7 -->
<g id="node7" class="node">
<title>Node7</title>
<g id="a_node7"><a xlink:href="../../de/d76/Array_8hpp.html" target="_top" xlink:title=" ">
<polygon fill="white" stroke="black" points="770.5,-504.5 770.5,-523.5 905.5,-523.5 905.5,-504.5 770.5,-504.5"/>
<text text-anchor="middle" x="838" y="-511.5" font-family="Helvetica,sans-Serif" font-size="10.00">AH/Containers/Array.hpp</text>
</a>
</g>
</g>
<!-- Node6&#45;&gt;Node7 -->
<g id="edge8" class="edge">
<title>Node6&#45;&gt;Node7</title>
<path fill="none" stroke="midnightblue" d="M609.61,-561.22C662.7,-550.48 736.47,-535.55 785.65,-525.6"/>
<polygon fill="midnightblue" stroke="midnightblue" points="786.64,-528.96 795.75,-523.55 785.25,-522.1 786.64,-528.96"/>
</g>
<!-- Node10 -->
<g id="node10" class="node">
<title>Node10</title>
<g id="a_node10"><a xlink:href="../../dd/d80/PrintStream_8hpp.html" target="_top" xlink:title=" ">
<polygon fill="white" stroke="black" points="658.5,-336.5 658.5,-355.5 831.5,-355.5 831.5,-336.5 658.5,-336.5"/>
<text text-anchor="middle" x="745" y="-343.5" font-family="Helvetica,sans-Serif" font-size="10.00">AH/PrintStream/PrintStream.hpp</text>
</a>
</g>
</g>
<!-- Node6&#45;&gt;Node10 -->
<g id="edge44" class="edge">
<title>Node6&#45;&gt;Node10</title>
<path fill="none" stroke="midnightblue" d="M548.4,-560.31C556.64,-535.47 576.25,-483.38 606,-448 638.56,-409.27 689.01,-377.52 719.34,-360.5"/>
<polygon fill="midnightblue" stroke="midnightblue" points="721.35,-363.39 728.43,-355.51 717.98,-357.26 721.35,-363.39"/>
</g>
<!-- Node6&#45;&gt;Node11 -->
<g id="edge46" class="edge">
<title>Node6&#45;&gt;Node11</title>
<path fill="none" stroke="midnightblue" d="M540.33,-560.42C536.58,-546.17 530.55,-523.51 525,-504 505.08,-433.94 478,-419.84 478,-347 478,-347 478,-347 478,-177 478,-146.9 474.29,-131.75 497,-112 512.5,-98.52 618.27,-85.18 701.59,-76.56"/>
<polygon fill="midnightblue" stroke="midnightblue" points="702.04,-80.04 711.63,-75.54 701.33,-73.07 702.04,-80.04"/>
</g>
<!-- Node23 -->
<g id="node23" class="node">
<title>Node23</title>
<g id="a_node23"><a xlink:title=" ">
<polygon fill="white" stroke="#bfbfbf" points="1207.5,-224.5 1207.5,-243.5 1260.5,-243.5 1260.5,-224.5 1207.5,-224.5"/>
<text text-anchor="middle" x="1234" y="-231.5" font-family="Helvetica,sans-Serif" font-size="10.00">stdint.h</text>
</a>
</g>
</g>
<!-- Node6&#45;&gt;Node23 -->
<g id="edge47" class="edge">
<title>Node6&#45;&gt;Node23</title>
<path fill="none" stroke="midnightblue" d="M567.46,-560.32C619.45,-529.03 748.5,-452.08 859,-392 883.1,-378.9 1053.49,-290.09 1079,-280 1118.62,-264.33 1165.85,-251.4 1197.68,-243.48"/>
<polygon fill="midnightblue" stroke="midnightblue" points="1198.56,-246.87 1207.44,-241.09 1196.9,-240.07 1198.56,-246.87"/>
</g>
<!-- Node26 -->
<g id="node26" class="node">
<title>Node26</title>
<g id="a_node26"><a xlink:title=" ">
<polygon fill="white" stroke="#bfbfbf" points="434,-504.5 434,-523.5 516,-523.5 516,-504.5 434,-504.5"/>
<text text-anchor="middle" x="475" y="-511.5" font-family="Helvetica,sans-Serif" font-size="10.00">AH/STL/limits</text>
</a>
</g>
</g>
<!-- Node6&#45;&gt;Node26 -->
<g id="edge45" class="edge">
<title>Node6&#45;&gt;Node26</title>
<path fill="none" stroke="midnightblue" d="M527.65,-560.4C517.1,-551.31 503.4,-539.49 492.62,-530.19"/>
<polygon fill="midnightblue" stroke="midnightblue" points="494.9,-527.54 485.04,-523.66 490.33,-532.84 494.9,-527.54"/>
</g>
<!-- Node7&#45;&gt;Node3 -->
<g id="edge9" class="edge">
<title>Node7&#45;&gt;Node3</title>
<path fill="none" stroke="midnightblue" d="M895.87,-504.46C956.81,-495.09 1048.48,-479.82 1082,-468 1099.63,-461.78 1101.52,-454.62 1119,-448 1185.14,-422.96 1207.84,-436.98 1274,-412 1323.11,-393.45 1332.78,-382.67 1378,-356 1423.98,-328.88 1479,-344.38 1479,-291 1479,-291 1479,-291 1479,-121 1479,-58.31 1405.87,-31.34 1344.71,-19.73"/>
<polygon fill="midnightblue" stroke="midnightblue" points="1345.08,-16.24 1334.62,-17.94 1343.86,-23.14 1345.08,-16.24"/>
</g>
<!-- Node8 -->
<g id="node8" class="node">
<title>Node8</title>
<g id="a_node8"><a xlink:href="../../d1/d93/Error_8hpp.html" target="_top" xlink:title=" ">
<polygon fill="white" stroke="black" points="1280,-448.5 1280,-467.5 1384,-467.5 1384,-448.5 1280,-448.5"/>
<text text-anchor="middle" x="1332" y="-455.5" font-family="Helvetica,sans-Serif" font-size="10.00">AH/Error/Error.hpp</text>
</a>
</g>
</g>
<!-- Node7&#45;&gt;Node8 -->
<g id="edge10" class="edge">
<title>Node7&#45;&gt;Node8</title>
<path fill="none" stroke="midnightblue" d="M905.6,-505.04C908.78,-504.68 911.92,-504.34 915,-504 1069.85,-487.12 1111.49,-487.58 1269.69,-468.11"/>
<polygon fill="midnightblue" stroke="midnightblue" points="1270.28,-471.57 1279.78,-466.87 1269.42,-464.62 1270.28,-471.57"/>
</g>
<!-- Node16 -->
<g id="node16" class="node">
<title>Node16</title>
<g id="a_node16"><a xlink:title=" ">
<polygon fill="white" stroke="#bfbfbf" points="506.5,-112.5 506.5,-131.5 613.5,-131.5 613.5,-112.5 506.5,-112.5"/>
<text text-anchor="middle" x="560" y="-119.5" font-family="Helvetica,sans-Serif" font-size="10.00">AH/STL/type_traits</text>
</a>
</g>
</g>
<!-- Node7&#45;&gt;Node16 -->
<g id="edge42" class="edge">
<title>Node7&#45;&gt;Node16</title>
<path fill="none" stroke="midnightblue" d="M770.5,-507.82C676.08,-496.49 516,-460.52 516,-347 516,-347 516,-347 516,-233 516,-198.04 535.4,-161.01 548.43,-140.07"/>
<polygon fill="midnightblue" stroke="midnightblue" points="551.39,-141.95 553.88,-131.65 545.51,-138.15 551.39,-141.95"/>
</g>
<!-- Node22 -->
<g id="node22" class="node">
<title>Node22</title>
<g id="a_node22"><a xlink:title=" ">
<polygon fill="white" stroke="#bfbfbf" points="734,-224.5 734,-243.5 790,-243.5 790,-224.5 734,-224.5"/>
<text text-anchor="middle" x="762" y="-231.5" font-family="Helvetica,sans-Serif" font-size="10.00">stddef.h</text>
</a>
</g>
</g>
<!-- Node7&#45;&gt;Node22 -->
<g id="edge43" class="edge">
<title>Node7&#45;&gt;Node22</title>
<path fill="none" stroke="midnightblue" d="M819.12,-504.4C778.79,-484.83 684.97,-432.65 649,-356 626.9,-308.91 692.53,-267.92 732.89,-247.95"/>
<polygon fill="midnightblue" stroke="midnightblue" points="734.54,-251.04 742.05,-243.56 731.52,-244.72 734.54,-251.04"/>
</g>
<!-- Node25 -->
<g id="node25" class="node">
<title>Node25</title>
<g id="a_node25"><a xlink:title=" ">
<polygon fill="white" stroke="#bfbfbf" points="881,-392.5 881,-411.5 971,-411.5 971,-392.5 881,-392.5"/>
<text text-anchor="middle" x="926" y="-399.5" font-family="Helvetica,sans-Serif" font-size="10.00">AH/STL/iterator</text>
</a>
</g>
</g>
<!-- Node7&#45;&gt;Node25 -->
<g id="edge41" class="edge">
<title>Node7&#45;&gt;Node25</title>
<path fill="none" stroke="midnightblue" d="M844.91,-504.37C859.49,-486.14 893.66,-443.43 912.66,-419.68"/>
<polygon fill="midnightblue" stroke="midnightblue" points="915.61,-421.59 919.13,-411.59 910.15,-417.21 915.61,-421.59"/>
</g>
<!-- Node8&#45;&gt;Node3 -->
<g id="edge11" class="edge">
<title>Node8&#45;&gt;Node3</title>
<path fill="none" stroke="midnightblue" d="M1384.03,-448.88C1438.74,-437.03 1517,-409.22 1517,-347 1517,-347 1517,-347 1517,-121 1517,-90.2 1516.45,-75.96 1493,-56 1470.82,-37.12 1401.53,-25.29 1344.74,-18.52"/>
<polygon fill="midnightblue" stroke="midnightblue" points="1345,-15.03 1334.66,-17.35 1344.2,-21.98 1345,-15.03"/>
</g>
<!-- Node9 -->
<g id="node9" class="node">
<title>Node9</title>
<g id="a_node9"><a xlink:href="../../df/dee/Debug_8hpp.html" target="_top" xlink:title=" ">
<polygon fill="white" stroke="black" points="1098.5,-392.5 1098.5,-411.5 1219.5,-411.5 1219.5,-392.5 1098.5,-392.5"/>
<text text-anchor="middle" x="1159" y="-399.5" font-family="Helvetica,sans-Serif" font-size="10.00">AH/Debug/Debug.hpp</text>
</a>
</g>
</g>
<!-- Node8&#45;&gt;Node9 -->
<g id="edge12" class="edge">
<title>Node8&#45;&gt;Node9</title>
<path fill="none" stroke="midnightblue" d="M1304.59,-448.44C1275.23,-439.28 1228.48,-424.69 1195.9,-414.52"/>
<polygon fill="midnightblue" stroke="midnightblue" points="1196.87,-411.16 1186.28,-411.52 1194.79,-417.84 1196.87,-411.16"/>
</g>
<!-- Node9&#45;&gt;Node3 -->
<g id="edge13" class="edge">
<title>Node9&#45;&gt;Node3</title>
<path fill="none" stroke="midnightblue" d="M1219.69,-394.35C1280.46,-383.93 1365,-357.49 1365,-291 1365,-291 1365,-291 1365,-121 1365,-76.39 1319.34,-42.23 1289.12,-24.51"/>
<polygon fill="midnightblue" stroke="midnightblue" points="1290.73,-21.4 1280.3,-19.55 1287.3,-27.5 1290.73,-21.4"/>
</g>
<!-- Node9&#45;&gt;Node10 -->
<g id="edge14" class="edge">
<title>Node9&#45;&gt;Node10</title>
<path fill="none" stroke="midnightblue" d="M1098.36,-393.09C1024.59,-383.47 900.05,-367.22 820.24,-356.81"/>
<polygon fill="midnightblue" stroke="midnightblue" points="820.62,-353.33 810.25,-355.51 819.71,-360.27 820.62,-353.33"/>
</g>
<!-- Node17 -->
<g id="node17" class="node">
<title>Node17</title>
<g id="a_node17"><a xlink:href="../../d2/dd5/SettingsWrapper_8hpp.html" target="_top" xlink:title=" ">
<polygon fill="white" stroke="black" points="1070,-336.5 1070,-355.5 1248,-355.5 1248,-336.5 1070,-336.5"/>
<text text-anchor="middle" x="1159" y="-343.5" font-family="Helvetica,sans-Serif" font-size="10.00">AH/Settings/SettingsWrapper.hpp</text>
</a>
</g>
</g>
<!-- Node9&#45;&gt;Node17 -->
<g id="edge26" class="edge">
<title>Node9&#45;&gt;Node17</title>
<path fill="none" stroke="midnightblue" d="M1153.83,-392.08C1152.32,-384.93 1151.89,-374.64 1152.54,-365.69"/>
<polygon fill="midnightblue" stroke="midnightblue" points="1156.02,-366.13 1153.87,-355.75 1149.08,-365.2 1156.02,-366.13"/>
</g>
<!-- Node10&#45;&gt;Node3 -->
<g id="edge16" class="edge">
<title>Node10&#45;&gt;Node3</title>
<path fill="none" stroke="midnightblue" d="M825.02,-336.47C876.39,-329.67 944.09,-318.19 1002,-300 1022.11,-293.68 1025.58,-288.18 1045,-280 1086.61,-262.47 1106.16,-273.9 1140,-244 1209.37,-182.7 1245.93,-72.7 1258.2,-29.31"/>
<polygon fill="midnightblue" stroke="midnightblue" points="1261.6,-30.14 1260.86,-19.57 1254.85,-28.3 1261.6,-30.14"/>
</g>
<!-- Node10&#45;&gt;Node11 -->
<g id="edge15" class="edge">
<title>Node10&#45;&gt;Node11</title>
<path fill="none" stroke="midnightblue" d="M741.24,-336.41C733.04,-316.47 715.01,-265.61 725,-224 738.16,-169.19 773.83,-111.94 792.78,-84.16"/>
<polygon fill="midnightblue" stroke="midnightblue" points="795.88,-85.82 798.72,-75.62 790.14,-81.83 795.88,-85.82"/>
</g>
<!-- Node10&#45;&gt;Node12 -->
<g id="edge17" class="edge">
<title>Node10&#45;&gt;Node12</title>
<path fill="none" stroke="midnightblue" d="M731.62,-336.45C719.81,-328.32 702.83,-315.1 692,-300 668.81,-267.67 654.82,-222.59 648.34,-197.58"/>
<polygon fill="midnightblue" stroke="midnightblue" points="651.67,-196.49 645.88,-187.62 644.88,-198.17 651.67,-196.49"/>
</g>
<!-- Node13 -->
<g id="node13" class="node">
<title>Node13</title>
<g id="a_node13"><a xlink:href="../../d7/d79/MinMaxFix_8hpp.html" target="_top" xlink:title=" ">
<polygon fill="white" stroke="black" points="845,-112.5 845,-131.5 981,-131.5 981,-112.5 845,-112.5"/>
<text text-anchor="middle" x="913" y="-119.5" font-family="Helvetica,sans-Serif" font-size="10.00">AH/Math/MinMaxFix.hpp</text>
</a>
</g>
</g>
<!-- Node12&#45;&gt;Node13 -->
<g id="edge18" class="edge">
<title>Node12&#45;&gt;Node13</title>
<path fill="none" stroke="midnightblue" d="M686.62,-168.44C733.75,-158.98 809.69,-143.74 860.46,-133.55"/>
<polygon fill="midnightblue" stroke="midnightblue" points="861.46,-136.92 870.58,-131.52 860.08,-130.05 861.46,-136.92"/>
</g>
<!-- Node15 -->
<g id="node15" class="node">
<title>Node15</title>
<g id="a_node15"><a xlink:title=" ">
<polygon fill="white" stroke="#bfbfbf" points="792.5,-0.5 792.5,-19.5 855.5,-19.5 855.5,-0.5 792.5,-0.5"/>
<text text-anchor="middle" x="824" y="-7.5" font-family="Helvetica,sans-Serif" font-size="10.00">Arduino.h</text>
</a>
</g>
</g>
<!-- Node12&#45;&gt;Node15 -->
<g id="edge25" class="edge">
<title>Node12&#45;&gt;Node15</title>
<path fill="none" stroke="midnightblue" d="M645.54,-168.32C649.87,-146.37 664.22,-88.07 699,-56 722.08,-34.72 755.95,-23.35 782.62,-17.36"/>
<polygon fill="midnightblue" stroke="midnightblue" points="783.37,-20.78 792.45,-15.32 781.95,-13.93 783.37,-20.78"/>
</g>
<!-- Node12&#45;&gt;Node16 -->
<g id="edge24" class="edge">
<title>Node12&#45;&gt;Node16</title>
<path fill="none" stroke="midnightblue" d="M630.5,-168.32C617.4,-159.9 597.29,-146.97 581.89,-137.07"/>
<polygon fill="midnightblue" stroke="midnightblue" points="583.77,-134.12 573.46,-131.65 579.98,-140.01 583.77,-134.12"/>
</g>
<!-- Node13&#45;&gt;Node3 -->
<g id="edge19" class="edge">
<title>Node13&#45;&gt;Node3</title>
<path fill="none" stroke="midnightblue" d="M960.28,-112.46C998.56,-104.87 1053.57,-92.44 1100,-76 1119.49,-69.1 1122.96,-64.06 1142,-56 1170.85,-43.8 1204.26,-31.51 1228.65,-22.86"/>
<polygon fill="midnightblue" stroke="midnightblue" points="1229.91,-26.13 1238.18,-19.51 1227.59,-19.52 1229.91,-26.13"/>
</g>
<!-- Node13&#45;&gt;Node11 -->
<g id="edge23" class="edge">
<title>Node13&#45;&gt;Node11</title>
<path fill="none" stroke="midnightblue" d="M895.65,-112.32C878.33,-103.66 851.48,-90.24 831.5,-80.25"/>
<polygon fill="midnightblue" stroke="midnightblue" points="832.82,-77 822.31,-75.65 829.69,-83.26 832.82,-77"/>
</g>
<!-- Node14 -->
<g id="node14" class="node">
<title>Node14</title>
<g id="a_node14"><a xlink:href="../../d6/d3b/FixArduinoMacros_8hpp.html" target="_top" xlink:title=" ">
<polygon fill="white" stroke="black" points="921,-56.5 921,-75.5 1091,-75.5 1091,-56.5 921,-56.5"/>
<text text-anchor="middle" x="1006" y="-63.5" font-family="Helvetica,sans-Serif" font-size="10.00">AH/Math/FixArduinoMacros.hpp</text>
</a>
</g>
</g>
<!-- Node13&#45;&gt;Node14 -->
<g id="edge20" class="edge">
<title>Node13&#45;&gt;Node14</title>
<path fill="none" stroke="midnightblue" d="M927.94,-112.32C942.59,-103.82 965.13,-90.73 982.24,-80.8"/>
<polygon fill="midnightblue" stroke="midnightblue" points="984.2,-83.7 991.1,-75.65 980.69,-77.65 984.2,-83.7"/>
</g>
<!-- Node14&#45;&gt;Node3 -->
<g id="edge21" class="edge">
<title>Node14&#45;&gt;Node3</title>
<path fill="none" stroke="midnightblue" d="M1046.72,-56.44C1091.65,-47 1164,-31.8 1212.5,-21.61"/>
<polygon fill="midnightblue" stroke="midnightblue" points="1213.4,-25 1222.47,-19.52 1211.96,-18.15 1213.4,-25"/>
</g>
<!-- Node14&#45;&gt;Node15 -->
<g id="edge22" class="edge">
<title>Node14&#45;&gt;Node15</title>
<path fill="none" stroke="midnightblue" d="M977.16,-56.44C946.14,-47.24 896.67,-32.56 862.38,-22.39"/>
<polygon fill="midnightblue" stroke="midnightblue" points="863.29,-19.01 852.7,-19.52 861.29,-25.72 863.29,-19.01"/>
</g>
<!-- Node17&#45;&gt;Node3 -->
<g id="edge27" class="edge">
<title>Node17&#45;&gt;Node3</title>
<path fill="none" stroke="midnightblue" d="M1204.14,-336.47C1226.77,-330.01 1252.92,-318.9 1270,-300 1290.18,-277.67 1289,-265.1 1289,-235 1289,-235 1289,-235 1289,-121 1289,-87.93 1277.73,-50.73 1270.03,-29.17"/>
<polygon fill="midnightblue" stroke="midnightblue" points="1273.27,-27.83 1266.51,-19.68 1266.71,-30.27 1273.27,-27.83"/>
</g>
<!-- Node17&#45;&gt;Node9 -->
<g id="edge40" class="edge">
<title>Node17&#45;&gt;Node9</title>
<path fill="none" stroke="midnightblue" d="M1164.13,-355.75C1165.66,-362.86 1166.1,-373.14 1165.47,-382.1"/>
<polygon fill="midnightblue" stroke="midnightblue" points="1161.99,-381.71 1164.17,-392.08 1168.93,-382.62 1161.99,-381.71"/>
</g>
<!-- Node17&#45;&gt;Node11 -->
<g id="edge28" class="edge">
<title>Node17&#45;&gt;Node11</title>
<path fill="none" stroke="midnightblue" d="M1069.83,-337.21C1008.18,-330.32 932.8,-318.46 907,-300 833.99,-247.77 812.61,-131.55 806.91,-85.91"/>
<polygon fill="midnightblue" stroke="midnightblue" points="810.35,-85.23 805.75,-75.69 803.4,-86.02 810.35,-85.23"/>
</g>
<!-- Node18 -->
<g id="node18" class="node">
<title>Node18</title>
<g id="a_node18"><a xlink:href="../../db/d02/Settings_8hpp.html" target="_top" xlink:title="All user settings and debugging options can be changed here.">
<polygon fill="white" stroke="black" points="915.5,-280.5 915.5,-299.5 992.5,-299.5 992.5,-280.5 915.5,-280.5"/>
<text text-anchor="middle" x="954" y="-287.5" font-family="Helvetica,sans-Serif" font-size="10.00">Settings.hpp</text>
</a>
</g>
</g>
<!-- Node17&#45;&gt;Node18 -->
<g id="edge29" class="edge">
<title>Node17&#45;&gt;Node18</title>
<path fill="none" stroke="midnightblue" d="M1126.52,-336.44C1091.28,-327.16 1034.9,-312.31 996.24,-302.13"/>
<polygon fill="midnightblue" stroke="midnightblue" points="996.89,-298.68 986.33,-299.52 995.11,-305.45 996.89,-298.68"/>
</g>
<!-- Node24 -->
<g id="node24" class="node">
<title>Node24</title>
<g id="a_node24"><a xlink:href="../../d9/d98/TeensyUSBTypes_8hpp.html" target="_top" xlink:title=" ">
<polygon fill="white" stroke="black" points="1087.5,-280.5 1087.5,-299.5 1260.5,-299.5 1260.5,-280.5 1087.5,-280.5"/>
<text text-anchor="middle" x="1174" y="-287.5" font-family="Helvetica,sans-Serif" font-size="10.00">AH/Teensy/TeensyUSBTypes.hpp</text>
</a>
</g>
</g>
<!-- Node17&#45;&gt;Node24 -->
<g id="edge39" class="edge">
<title>Node17&#45;&gt;Node24</title>
<path fill="none" stroke="midnightblue" d="M1161.48,-336.08C1163.49,-328.85 1166.39,-318.41 1168.89,-309.4"/>
<polygon fill="midnightblue" stroke="midnightblue" points="1172.26,-310.32 1171.57,-299.75 1165.52,-308.45 1172.26,-310.32"/>
</g>
<!-- Node19 -->
<g id="node19" class="node">
<title>Node19</title>
<g id="a_node19"><a xlink:href="../../dc/d50/Frequency_8hpp.html" target="_top" xlink:title=" ">
<polygon fill="white" stroke="black" points="999,-112.5 999,-131.5 1133,-131.5 1133,-112.5 999,-112.5"/>
<text text-anchor="middle" x="1066" y="-119.5" font-family="Helvetica,sans-Serif" font-size="10.00">AH/Types/Frequency.hpp</text>
</a>
</g>
</g>
<!-- Node18&#45;&gt;Node19 -->
<g id="edge30" class="edge">
<title>Node18&#45;&gt;Node19</title>
<path fill="none" stroke="midnightblue" d="M992.61,-281.23C1039.69,-271.37 1114.03,-254.39 1122,-244 1147.81,-210.36 1108.02,-162.91 1083.28,-138.64"/>
<polygon fill="midnightblue" stroke="midnightblue" points="1085.55,-135.96 1075.89,-131.62 1080.73,-141.04 1085.55,-135.96"/>
</g>
<!-- Node20 -->
<g id="node20" class="node">
<title>Node20</title>
<g id="a_node20"><a xlink:href="../../d7/d7c/ADCConfig_8hpp.html" target="_top" xlink:title="This file contains the platform&#45;specific ADC resolutions.">
<polygon fill="white" stroke="black" points="884.5,-224.5 884.5,-243.5 1041.5,-243.5 1041.5,-224.5 884.5,-224.5"/>
<text text-anchor="middle" x="963" y="-231.5" font-family="Helvetica,sans-Serif" font-size="10.00">AH/Hardware/ADCConfig.hpp</text>
</a>
</g>
</g>
<!-- Node18&#45;&gt;Node20 -->
<g id="edge33" class="edge">
<title>Node18&#45;&gt;Node20</title>
<path fill="none" stroke="midnightblue" d="M955.49,-280.08C956.68,-272.93 958.39,-262.64 959.88,-253.69"/>
<polygon fill="midnightblue" stroke="midnightblue" points="963.35,-254.19 961.54,-243.75 956.45,-253.04 963.35,-254.19"/>
</g>
<!-- Node21 -->
<g id="node21" class="node">
<title>Node21</title>
<g id="a_node21"><a xlink:title=" ">
<polygon fill="white" stroke="#bfbfbf" points="1059.5,-224.5 1059.5,-243.5 1112.5,-243.5 1112.5,-224.5 1059.5,-224.5"/>
<text text-anchor="middle" x="1086" y="-231.5" font-family="Helvetica,sans-Serif" font-size="10.00">limits.h</text>
</a>
</g>
</g>
<!-- Node18&#45;&gt;Node21 -->
<g id="edge36" class="edge">
<title>Node18&#45;&gt;Node21</title>
<path fill="none" stroke="midnightblue" d="M974.92,-280.44C996.74,-271.52 1031.15,-257.44 1055.89,-247.32"/>
<polygon fill="midnightblue" stroke="midnightblue" points="1057.25,-250.54 1065.18,-243.52 1054.6,-244.06 1057.25,-250.54"/>
</g>
<!-- Node18&#45;&gt;Node22 -->
<g id="edge37" class="edge">
<title>Node18&#45;&gt;Node22</title>
<path fill="none" stroke="midnightblue" d="M923.58,-280.44C890.04,-271.01 836.05,-255.83 799.81,-245.63"/>
<polygon fill="midnightblue" stroke="midnightblue" points="800.67,-242.24 790.09,-242.9 798.77,-248.98 800.67,-242.24"/>
</g>
<!-- Node18&#45;&gt;Node23 -->
<g id="edge38" class="edge">
<title>Node18&#45;&gt;Node23</title>
<path fill="none" stroke="midnightblue" d="M992.64,-281.55C1046.79,-271.11 1144.54,-252.25 1197.51,-242.04"/>
<polygon fill="midnightblue" stroke="midnightblue" points="1198.32,-245.45 1207.48,-240.12 1197,-238.57 1198.32,-245.45"/>
</g>
<!-- Node19&#45;&gt;Node3 -->
<g id="edge31" class="edge">
<title>Node19&#45;&gt;Node3</title>
<path fill="none" stroke="midnightblue" d="M1081.46,-112.37C1115.62,-93.29 1197.77,-47.42 1238.81,-24.51"/>
<polygon fill="midnightblue" stroke="midnightblue" points="1240.59,-27.52 1247.61,-19.59 1237.18,-21.41 1240.59,-27.52"/>
</g>
<!-- Node19&#45;&gt;Node11 -->
<g id="edge32" class="edge">
<title>Node19&#45;&gt;Node11</title>
<path fill="none" stroke="midnightblue" d="M1024.64,-112.44C978.92,-102.98 905.24,-87.74 855.98,-77.55"/>
<polygon fill="midnightblue" stroke="midnightblue" points="856.66,-74.12 846.16,-75.52 855.25,-80.97 856.66,-74.12"/>
</g>
<!-- Node20&#45;&gt;Node3 -->
<g id="edge34" class="edge">
<title>Node20&#45;&gt;Node3</title>
<path fill="none" stroke="midnightblue" d="M981.79,-224.5C1015.56,-208.78 1088.01,-173.01 1142,-132 1164.5,-114.91 1220.37,-56.41 1247.6,-27.48"/>
<polygon fill="midnightblue" stroke="midnightblue" points="1250.47,-29.53 1254.76,-19.84 1245.37,-24.74 1250.47,-29.53"/>
</g>
<!-- Node20&#45;&gt;Node12 -->
<g id="edge35" class="edge">
<title>Node20&#45;&gt;Node12</title>
<path fill="none" stroke="midnightblue" d="M912.45,-224.44C855.99,-214.89 764.63,-199.42 704.43,-189.23"/>
<polygon fill="midnightblue" stroke="midnightblue" points="704.75,-185.73 694.31,-187.52 703.59,-192.64 704.75,-185.73"/>
</g>
<!-- Node27&#45;&gt;Node3 -->
<g id="edge51" class="edge">
<title>Node27&#45;&gt;Node3</title>
<path fill="none" stroke="midnightblue" d="M157.55,-112.2C172.59,-97.38 205.49,-67.9 240,-56 284.19,-40.76 946.59,-20.18 1181.3,-13.33"/>
<polygon fill="midnightblue" stroke="midnightblue" points="1181.59,-16.82 1191.48,-13.03 1181.39,-9.82 1181.59,-16.82"/>
</g>
<!-- Node27&#45;&gt;Node11 -->
<g id="edge52" class="edge">
<title>Node27&#45;&gt;Node11</title>
<path fill="none" stroke="midnightblue" d="M225.54,-114.7C342.06,-105.11 564.4,-86.81 697.22,-75.87"/>
<polygon fill="midnightblue" stroke="midnightblue" points="697.73,-79.34 707.41,-75.03 697.16,-72.37 697.73,-79.34"/>
</g>
<!-- Node28 -->
<g id="node28" class="node">
<title>Node28</title>
<g id="a_node28"><a xlink:title=" ">
<polygon fill="white" stroke="#bfbfbf" points="0,-56.5 0,-75.5 90,-75.5 90,-56.5 0,-56.5"/>
<text text-anchor="middle" x="45" y="-63.5" font-family="Helvetica,sans-Serif" font-size="10.00">AH/STL/cstddef</text>
</a>
</g>
</g>
<!-- Node27&#45;&gt;Node28 -->
<g id="edge49" class="edge">
<title>Node27&#45;&gt;Node28</title>
<path fill="none" stroke="midnightblue" d="M132.29,-112.32C115.69,-103.7 90,-90.36 70.78,-80.39"/>
<polygon fill="midnightblue" stroke="midnightblue" points="72.16,-77.16 61.67,-75.65 68.93,-83.37 72.16,-77.16"/>
</g>
<!-- Node29 -->
<g id="node29" class="node">
<title>Node29</title>
<g id="a_node29"><a xlink:title=" ">
<polygon fill="white" stroke="#bfbfbf" points="108.5,-56.5 108.5,-75.5 187.5,-75.5 187.5,-56.5 108.5,-56.5"/>
<text text-anchor="middle" x="148" y="-63.5" font-family="Helvetica,sans-Serif" font-size="10.00">AH/STL/tuple</text>
</a>
</g>
</g>
<!-- Node27&#45;&gt;Node29 -->
<g id="edge50" class="edge">
<title>Node27&#45;&gt;Node29</title>
<path fill="none" stroke="midnightblue" d="M148.83,-112.08C148.7,-105.01 148.52,-94.86 148.35,-85.99"/>
<polygon fill="midnightblue" stroke="midnightblue" points="151.85,-85.68 148.16,-75.75 144.85,-85.81 151.85,-85.68"/>
</g>
<!-- Node31&#45;&gt;Node3 -->
<g id="edge58" class="edge">
<title>Node31&#45;&gt;Node3</title>
<path fill="none" stroke="midnightblue" d="M1465.36,-806.49C1561.93,-791.7 1704,-751.58 1704,-643.5 1704,-643.5 1704,-643.5 1704,-121 1704,-74.84 1665.51,-73.99 1623,-56 1574.41,-35.44 1435.22,-22.52 1344.84,-16.04"/>
<polygon fill="midnightblue" stroke="midnightblue" points="1344.83,-12.53 1334.61,-15.32 1344.34,-19.51 1344.83,-12.53"/>
</g>
<!-- Node32 -->
<g id="node32" class="node">
<title>Node32</title>
<g id="a_node32"><a xlink:href="../../d4/d57/ExtendedIOElement_8hpp.html" target="_top" xlink:title=" ">
<polygon fill="white" stroke="black" points="477,-750.5 477,-769.5 611,-769.5 611,-750.5 477,-750.5"/>
<text text-anchor="middle" x="544" y="-757.5" font-family="Helvetica,sans-Serif" font-size="10.00">ExtendedIOElement.hpp</text>
</a>
</g>
</g>
<!-- Node31&#45;&gt;Node32 -->
<g id="edge59" class="edge">
<title>Node31&#45;&gt;Node32</title>
<path fill="none" stroke="midnightblue" d="M1286.76,-809.09C1121.6,-798.4 775.88,-776.01 621.43,-766.01"/>
<polygon fill="midnightblue" stroke="midnightblue" points="621.29,-762.5 611.09,-765.34 620.84,-769.48 621.29,-762.5"/>
</g>
<!-- Node38 -->
<g id="node38" class="node">
<title>Node38</title>
<g id="a_node38"><a xlink:href="../../d5/db6/ArrayHelpers_8hpp.html" target="_top" xlink:title=" ">
<polygon fill="white" stroke="black" points="1129,-566 1129,-585 1303,-585 1303,-566 1129,-566"/>
<text text-anchor="middle" x="1216" y="-573" font-family="Helvetica,sans-Serif" font-size="10.00">AH/Containers/ArrayHelpers.hpp</text>
</a>
</g>
</g>
<!-- Node31&#45;&gt;Node38 -->
<g id="edge77" class="edge">
<title>Node31&#45;&gt;Node38</title>
<path fill="none" stroke="midnightblue" d="M1372.04,-806.23C1348.22,-771.16 1259.59,-640.68 1227.61,-593.59"/>
<polygon fill="midnightblue" stroke="midnightblue" points="1230.36,-591.41 1221.84,-585.1 1224.56,-595.34 1230.36,-591.41"/>
</g>
<!-- Node32&#45;&gt;Node3 -->
<g id="edge60" class="edge">
<title>Node32&#45;&gt;Node3</title>
<path fill="none" stroke="midnightblue" d="M537.32,-750.42C505.17,-708.8 368,-527.23 368,-459 368,-459 368,-459 368,-345 368,-271.2 364,-252.8 364,-179 364,-179 364,-179 364,-121 364,-43.01 450.89,-73.04 527,-56 649.51,-28.57 1016.35,-16.76 1181.2,-12.73"/>
<polygon fill="midnightblue" stroke="midnightblue" points="1181.37,-16.23 1191.28,-12.49 1181.2,-9.23 1181.37,-16.23"/>
</g>
<!-- Node32&#45;&gt;Node4 -->
<g id="edge61" class="edge">
<title>Node32&#45;&gt;Node4</title>
<path fill="none" stroke="midnightblue" d="M514.53,-750.44C482.83,-741.24 432.27,-726.56 397.23,-716.39"/>
<polygon fill="midnightblue" stroke="midnightblue" points="397.91,-712.94 387.33,-713.52 395.96,-719.67 397.91,-712.94"/>
</g>
<!-- Node32&#45;&gt;Node6 -->
<g id="edge76" class="edge">
<title>Node32&#45;&gt;Node6</title>
<path fill="none" stroke="midnightblue" d="M544,-750.2C544,-723.39 544,-642.09 544,-600.93"/>
<polygon fill="midnightblue" stroke="midnightblue" points="547.5,-600.69 544,-590.69 540.5,-600.69 547.5,-600.69"/>
</g>
<!-- Node33 -->
<g id="node33" class="node">
<title>Node33</title>
<g id="a_node33"><a xlink:href="../../d4/d93/Updatable_8hpp.html" target="_top" xlink:title=" ">
<polygon fill="white" stroke="black" points="923.5,-504.5 923.5,-523.5 1084.5,-523.5 1084.5,-504.5 923.5,-504.5"/>
<text text-anchor="middle" x="1004" y="-511.5" font-family="Helvetica,sans-Serif" font-size="10.00">AH/Containers/Updatable.hpp</text>
</a>
</g>
</g>
<!-- Node32&#45;&gt;Node33 -->
<g id="edge62" class="edge">
<title>Node32&#45;&gt;Node33</title>
<path fill="none" stroke="midnightblue" d="M560.1,-750.46C628.48,-714.19 895.07,-572.78 978.74,-528.4"/>
<polygon fill="midnightblue" stroke="midnightblue" points="980.6,-531.38 987.79,-523.6 977.32,-525.19 980.6,-531.38"/>
</g>
<!-- Node33&#45;&gt;Node3 -->
<g id="edge63" class="edge">
<title>Node33&#45;&gt;Node3</title>
<path fill="none" stroke="midnightblue" d="M1084.67,-507.66C1219.67,-498.44 1478.35,-479.41 1495,-468 1544.51,-434.06 1555,-407.03 1555,-347 1555,-347 1555,-347 1555,-121 1555,-87.08 1543.04,-75.09 1515,-56 1487.77,-37.46 1407.57,-25.3 1344.88,-18.35"/>
<polygon fill="midnightblue" stroke="midnightblue" points="1344.91,-14.83 1334.59,-17.24 1344.15,-21.79 1344.91,-14.83"/>
</g>
<!-- Node33&#45;&gt;Node8 -->
<g id="edge71" class="edge">
<title>Node33&#45;&gt;Node8</title>
<path fill="none" stroke="midnightblue" d="M1055.97,-504.44C1114.15,-494.87 1208.36,-479.36 1270.25,-469.17"/>
<polygon fill="midnightblue" stroke="midnightblue" points="1270.97,-472.59 1280.27,-467.52 1269.83,-465.69 1270.97,-472.59"/>
</g>
<!-- Node33&#45;&gt;Node16 -->
<g id="edge72" class="edge">
<title>Node33&#45;&gt;Node16</title>
<path fill="none" stroke="midnightblue" d="M956.9,-504.46C881.67,-488.46 734.24,-446.98 649,-356 589.48,-292.47 568.56,-185.03 562.32,-141.83"/>
<polygon fill="midnightblue" stroke="midnightblue" points="565.78,-141.3 560.98,-131.86 558.84,-142.23 565.78,-141.3"/>
</g>
<!-- Node33&#45;&gt;Node17 -->
<g id="edge74" class="edge">
<title>Node33&#45;&gt;Node17</title>
<path fill="none" stroke="midnightblue" d="M973.09,-504.39C952.02,-497.31 924.51,-485.55 905,-468 877.62,-443.38 848.06,-419.98 872,-392 896.03,-363.91 986.66,-353.23 1059.73,-349.24"/>
<polygon fill="midnightblue" stroke="midnightblue" points="1060.11,-352.72 1069.92,-348.72 1059.75,-345.73 1060.11,-352.72"/>
</g>
<!-- Node33&#45;&gt;Node22 -->
<g id="edge75" class="edge">
<title>Node33&#45;&gt;Node22</title>
<path fill="none" stroke="midnightblue" d="M950,-504.42C925.57,-498.05 897.98,-487.02 879,-468 835.89,-424.78 867.45,-391.02 841,-336 824.87,-302.44 796.09,-269.62 778.08,-250.9"/>
<polygon fill="midnightblue" stroke="midnightblue" points="780.38,-248.24 770.87,-243.56 775.38,-253.15 780.38,-248.24"/>
</g>
<!-- Node34 -->
<g id="node34" class="node">
<title>Node34</title>
<g id="a_node34"><a xlink:href="../../d4/dba/CRTP_8hpp.html" target="_top" xlink:title=" ">
<polygon fill="white" stroke="black" points="1128,-448.5 1128,-467.5 1262,-467.5 1262,-448.5 1128,-448.5"/>
<text text-anchor="middle" x="1195" y="-455.5" font-family="Helvetica,sans-Serif" font-size="10.00">AH/Containers/CRTP.hpp</text>
</a>
</g>
</g>
<!-- Node33&#45;&gt;Node34 -->
<g id="edge64" class="edge">
<title>Node33&#45;&gt;Node34</title>
<path fill="none" stroke="midnightblue" d="M1034.26,-504.44C1066.96,-495.2 1119.18,-480.44 1155.18,-470.26"/>
<polygon fill="midnightblue" stroke="midnightblue" points="1156.21,-473.61 1164.88,-467.52 1154.3,-466.87 1156.21,-473.61"/>
</g>
<!-- Node35 -->
<g id="node35" class="node">
<title>Node35</title>
<g id="a_node35"><a xlink:href="../../de/dd1/LinkedList_8hpp.html" target="_top" xlink:title=" ">
<polygon fill="white" stroke="black" points="913.5,-448.5 913.5,-467.5 1072.5,-467.5 1072.5,-448.5 913.5,-448.5"/>
<text text-anchor="middle" x="993" y="-455.5" font-family="Helvetica,sans-Serif" font-size="10.00">AH/Containers/LinkedList.hpp</text>
</a>
</g>
</g>
<!-- Node33&#45;&gt;Node35 -->
<g id="edge65" class="edge">
<title>Node33&#45;&gt;Node35</title>
<path fill="none" stroke="midnightblue" d="M1002.18,-504.08C1000.73,-496.93 998.63,-486.64 996.81,-477.69"/>
<polygon fill="midnightblue" stroke="midnightblue" points="1000.21,-476.85 994.78,-467.75 993.35,-478.25 1000.21,-476.85"/>
</g>
<!-- Node37 -->
<g id="node37" class="node">
<title>Node37</title>
<g id="a_node37"><a xlink:title=" ">
<polygon fill="white" stroke="#bfbfbf" points="1402.5,-448.5 1402.5,-467.5 1485.5,-467.5 1485.5,-448.5 1402.5,-448.5"/>
<text text-anchor="middle" x="1444" y="-455.5" font-family="Helvetica,sans-Serif" font-size="10.00">AH/STL/utility</text>
</a>
</g>
</g>
<!-- Node33&#45;&gt;Node37 -->
<g id="edge73" class="edge">
<title>Node33&#45;&gt;Node37</title>
<path fill="none" stroke="midnightblue" d="M1084.64,-505.09C1161.13,-497.25 1279.53,-484.3 1392.11,-468.05"/>
<polygon fill="midnightblue" stroke="midnightblue" points="1392.89,-471.47 1402.28,-466.57 1391.88,-464.55 1392.89,-471.47"/>
</g>
<!-- Node35&#45;&gt;Node3 -->
<g id="edge66" class="edge">
<title>Node35&#45;&gt;Node3</title>
<path fill="none" stroke="midnightblue" d="M1060.69,-448.48C1108.45,-441.41 1173.55,-429.63 1229,-412 1286.24,-393.8 1305.37,-393.86 1352,-356 1403.83,-313.92 1441,-301.76 1441,-235 1441,-235 1441,-235 1441,-121 1441,-63.84 1373.75,-35.39 1321.92,-21.95"/>
<polygon fill="midnightblue" stroke="midnightblue" points="1322.66,-18.53 1312.11,-19.53 1320.98,-25.32 1322.66,-18.53"/>
</g>
<!-- Node35&#45;&gt;Node9 -->
<g id="edge67" class="edge">
<title>Node35&#45;&gt;Node9</title>
<path fill="none" stroke="midnightblue" d="M1019.3,-448.44C1047.35,-439.32 1091.94,-424.81 1123.18,-414.65"/>
<polygon fill="midnightblue" stroke="midnightblue" points="1124.39,-417.94 1132.82,-411.52 1122.23,-411.28 1124.39,-417.94"/>
</g>
<!-- Node35&#45;&gt;Node13 -->
<g id="edge68" class="edge">
<title>Node35&#45;&gt;Node13</title>
<path fill="none" stroke="midnightblue" d="M992.55,-448.18C991.6,-435.29 988.71,-410.79 980,-392 946.19,-319.06 896.11,-321.84 876,-244 866.34,-206.61 887.39,-163.52 901.53,-140.18"/>
<polygon fill="midnightblue" stroke="midnightblue" points="904.49,-142.05 906.89,-131.73 898.58,-138.31 904.49,-142.05"/>
</g>
<!-- Node35&#45;&gt;Node25 -->
<g id="edge70" class="edge">
<title>Node35&#45;&gt;Node25</title>
<path fill="none" stroke="midnightblue" d="M982.24,-448.32C972.23,-440.26 957.11,-428.08 945.07,-418.37"/>
<polygon fill="midnightblue" stroke="midnightblue" points="946.94,-415.38 936.96,-411.83 942.55,-420.83 946.94,-415.38"/>
</g>
<!-- Node36 -->
<g id="node36" class="node">
<title>Node36</title>
<g id="a_node36"><a xlink:title=" ">
<polygon fill="white" stroke="#bfbfbf" points="1027.5,-392.5 1027.5,-411.5 1080.5,-411.5 1080.5,-392.5 1027.5,-392.5"/>
<text text-anchor="middle" x="1054" y="-399.5" font-family="Helvetica,sans-Serif" font-size="10.00">stdlib.h</text>
</a>
</g>
</g>
<!-- Node35&#45;&gt;Node36 -->
<g id="edge69" class="edge">
<title>Node35&#45;&gt;Node36</title>
<path fill="none" stroke="midnightblue" d="M1002.8,-448.32C1011.82,-440.34 1025.41,-428.31 1036.32,-418.65"/>
<polygon fill="midnightblue" stroke="midnightblue" points="1038.85,-421.08 1044.02,-411.83 1034.21,-415.84 1038.85,-421.08"/>
</g>
<!-- Node38&#45;&gt;Node3 -->
<g id="edge78" class="edge">
<title>Node38&#45;&gt;Node3</title>
<path fill="none" stroke="midnightblue" d="M1303.31,-575.44C1414.38,-574.81 1597.83,-566.99 1648,-524 1670.76,-504.49 1666,-488.98 1666,-459 1666,-459 1666,-459 1666,-121 1666,-74.15 1626.12,-74.33 1583,-56 1506.51,-23.48 1411.39,-13.53 1344.81,-10.91"/>
<polygon fill="midnightblue" stroke="midnightblue" points="1344.9,-7.42 1334.79,-10.57 1344.66,-14.41 1344.9,-7.42"/>
</g>
<!-- Node38&#45;&gt;Node7 -->
<g id="edge79" class="edge">
<title>Node38&#45;&gt;Node7</title>
<path fill="none" stroke="midnightblue" d="M1161.84,-565.98C1093.21,-555.17 975.09,-536.58 902.05,-525.08"/>
<polygon fill="midnightblue" stroke="midnightblue" points="902.48,-521.61 892.06,-523.51 901.39,-528.52 902.48,-521.61"/>
</g>
<!-- Node38&#45;&gt;Node10 -->
<g id="edge81" class="edge">
<title>Node38&#45;&gt;Node10</title>
<path fill="none" stroke="midnightblue" d="M1128.93,-570.65C1004.31,-564.26 787.22,-549.6 762,-524 719.97,-481.33 731.88,-401.68 740.11,-365.61"/>
<polygon fill="midnightblue" stroke="midnightblue" points="743.6,-366.07 742.58,-355.53 736.8,-364.41 743.6,-366.07"/>
</g>
<!-- Node39 -->
<g id="node39" class="node">
<title>Node39</title>
<g id="a_node39"><a xlink:title=" ">
<polygon fill="white" stroke="#bfbfbf" points="1165.5,-504.5 1165.5,-523.5 1266.5,-523.5 1266.5,-504.5 1165.5,-504.5"/>
<text text-anchor="middle" x="1216" y="-511.5" font-family="Helvetica,sans-Serif" font-size="10.00">AH/STL/algorithm</text>
</a>
</g>
</g>
<!-- Node38&#45;&gt;Node39 -->
<g id="edge80" class="edge">
<title>Node38&#45;&gt;Node39</title>
<path fill="none" stroke="midnightblue" d="M1216,-565.98C1216,-557.58 1216,-544.48 1216,-533.66"/>
<polygon fill="midnightblue" stroke="midnightblue" points="1219.5,-533.51 1216,-523.51 1212.5,-533.51 1219.5,-533.51"/>
</g>
<!-- Node40&#45;&gt;Node3 -->
<g id="edge83" class="edge">
<title>Node40&#45;&gt;Node3</title>
<path fill="none" stroke="midnightblue" d="M1573.44,-504.31C1591.25,-486.93 1628,-445.86 1628,-403 1628,-403 1628,-403 1628,-121 1628,-72.73 1585.44,-74.84 1541,-56 1478.37,-29.44 1401.69,-18.46 1344.74,-13.97"/>
<polygon fill="midnightblue" stroke="midnightblue" points="1344.93,-10.47 1334.7,-13.23 1344.42,-17.45 1344.93,-10.47"/>
</g>
<!-- Node40&#45;&gt;Node8 -->
<g id="edge84" class="edge">
<title>Node40&#45;&gt;Node8</title>
<path fill="none" stroke="midnightblue" d="M1527.24,-504.44C1486.94,-495.06 1422.19,-479.99 1378.42,-469.8"/>
<polygon fill="midnightblue" stroke="midnightblue" points="1379.12,-466.37 1368.59,-467.52 1377.54,-473.19 1379.12,-466.37"/>
</g>
<!-- Node40&#45;&gt;Node11 -->
<g id="edge85" class="edge">
<title>Node40&#45;&gt;Node11</title>
<path fill="none" stroke="midnightblue" d="M1558.77,-504.12C1550.94,-491.14 1535.33,-466.54 1519,-448 1370.69,-279.54 1346.4,-204.7 1142,-112 1120.14,-102.09 990.02,-86.6 898.03,-76.63"/>
<polygon fill="midnightblue" stroke="midnightblue" points="898.17,-73.13 887.85,-75.53 897.42,-80.09 898.17,-73.13"/>
</g>
<!-- Node40&#45;&gt;Node23 -->
<g id="edge86" class="edge">
<title>Node40&#45;&gt;Node23</title>
<path fill="none" stroke="midnightblue" d="M1555.26,-504.38C1542.34,-491.73 1517.27,-467.53 1495,-448 1406.97,-370.79 1297,-284.07 1253.24,-249.94"/>
<polygon fill="midnightblue" stroke="midnightblue" points="1255.21,-247.04 1245.17,-243.65 1250.91,-252.56 1255.21,-247.04"/>
</g>
</g>
</svg>
