<?xml version="1.0" encoding="UTF-8" standalone="no"?>
<!DOCTYPE svg PUBLIC "-//W3C//DTD SVG 1.1//EN"
 "http://www.w3.org/Graphics/SVG/1.1/DTD/svg11.dtd">
<!-- Generated by graphviz version 2.43.0 (0)
 -->
<!-- Title: MillisMicrosTimer.hpp Pages: 1 -->
<svg width="555pt" height="252pt"
 viewBox="0.00 0.00 555.00 252.00" xmlns="http://www.w3.org/2000/svg" xmlns:xlink="http://www.w3.org/1999/xlink">
<g id="graph0" class="graph" transform="scale(1 1) rotate(0) translate(4 248)">
<title>MillisMicrosTimer.hpp</title>
<polygon fill="white" stroke="transparent" points="-4,4 -4,-248 551,-248 551,4 -4,4"/>
<!-- Node1 -->
<g id="node1" class="node">
<title>Node1</title>
<g id="a_node1"><a xlink:title=" ">
<polygon fill="#bfbfbf" stroke="black" points="136.5,-224.5 136.5,-243.5 260.5,-243.5 260.5,-224.5 136.5,-224.5"/>
<text text-anchor="middle" x="198.5" y="-231.5" font-family="Helvetica,sans-Serif" font-size="10.00">MillisMicrosTimer.hpp</text>
</a>
</g>
</g>
<!-- Node2 -->
<g id="node2" class="node">
<title>Node2</title>
<g id="a_node2"><a xlink:href="../../dc/dc7/NamespaceSettings_8hpp.html" target="_top" xlink:title=" ">
<polygon fill="white" stroke="black" points="0,-56.5 0,-75.5 195,-75.5 195,-56.5 0,-56.5"/>
<text text-anchor="middle" x="97.5" y="-63.5" font-family="Helvetica,sans-Serif" font-size="10.00">AH/Settings/NamespaceSettings.hpp</text>
</a>
</g>
</g>
<!-- Node1&#45;&gt;Node2 -->
<g id="edge1" class="edge">
<title>Node1&#45;&gt;Node2</title>
<path fill="none" stroke="midnightblue" d="M193.07,-224.08C176.97,-197.61 129.27,-119.21 107.97,-84.21"/>
<polygon fill="midnightblue" stroke="midnightblue" points="110.9,-82.29 102.71,-75.57 104.92,-85.93 110.9,-82.29"/>
</g>
<!-- Node4 -->
<g id="node4" class="node">
<title>Node4</title>
<g id="a_node4"><a xlink:href="../../d6/ddf/Arduino-Wrapper_8h.html" target="_top" xlink:title=" ">
<polygon fill="white" stroke="black" points="292.5,-168.5 292.5,-187.5 416.5,-187.5 416.5,-168.5 292.5,-168.5"/>
<text text-anchor="middle" x="354.5" y="-175.5" font-family="Helvetica,sans-Serif" font-size="10.00">AH/Arduino&#45;Wrapper.h</text>
</a>
</g>
</g>
<!-- Node1&#45;&gt;Node4 -->
<g id="edge3" class="edge">
<title>Node1&#45;&gt;Node4</title>
<path fill="none" stroke="midnightblue" d="M223.22,-224.44C249.35,-215.4 290.76,-201.06 320.08,-190.92"/>
<polygon fill="midnightblue" stroke="midnightblue" points="321.59,-194.1 329.9,-187.52 319.3,-187.48 321.59,-194.1"/>
</g>
<!-- Node3 -->
<g id="node3" class="node">
<title>Node3</title>
<g id="a_node3"><a xlink:href="../../d1/d65/Warnings_8hpp.html" target="_top" xlink:title=" ">
<polygon fill="white" stroke="black" points="122,-0.5 122,-19.5 265,-19.5 265,-0.5 122,-0.5"/>
<text text-anchor="middle" x="193.5" y="-7.5" font-family="Helvetica,sans-Serif" font-size="10.00">AH/Settings/Warnings.hpp</text>
</a>
</g>
</g>
<!-- Node2&#45;&gt;Node3 -->
<g id="edge2" class="edge">
<title>Node2&#45;&gt;Node3</title>
<path fill="none" stroke="midnightblue" d="M112.92,-56.32C128.04,-47.82 151.32,-34.73 168.97,-24.8"/>
<polygon fill="midnightblue" stroke="midnightblue" points="171.11,-27.61 178.11,-19.65 167.68,-21.51 171.11,-27.61"/>
</g>
<!-- Node5 -->
<g id="node5" class="node">
<title>Node5</title>
<g id="a_node5"><a xlink:href="../../d7/d79/MinMaxFix_8hpp.html" target="_top" xlink:title=" ">
<polygon fill="white" stroke="black" points="230.5,-112.5 230.5,-131.5 366.5,-131.5 366.5,-112.5 230.5,-112.5"/>
<text text-anchor="middle" x="298.5" y="-119.5" font-family="Helvetica,sans-Serif" font-size="10.00">AH/Math/MinMaxFix.hpp</text>
</a>
</g>
</g>
<!-- Node4&#45;&gt;Node5 -->
<g id="edge4" class="edge">
<title>Node4&#45;&gt;Node5</title>
<path fill="none" stroke="midnightblue" d="M345.5,-168.32C337.31,-160.42 324.99,-148.55 315.03,-138.94"/>
<polygon fill="midnightblue" stroke="midnightblue" points="317.29,-136.26 307.66,-131.83 312.43,-141.29 317.29,-136.26"/>
</g>
<!-- Node7 -->
<g id="node7" class="node">
<title>Node7</title>
<g id="a_node7"><a xlink:title=" ">
<polygon fill="white" stroke="#bfbfbf" points="323,-0.5 323,-19.5 386,-19.5 386,-0.5 323,-0.5"/>
<text text-anchor="middle" x="354.5" y="-7.5" font-family="Helvetica,sans-Serif" font-size="10.00">Arduino.h</text>
</a>
</g>
</g>
<!-- Node4&#45;&gt;Node7 -->
<g id="edge10" class="edge">
<title>Node4&#45;&gt;Node7</title>
<path fill="none" stroke="midnightblue" d="M361.11,-168.4C375.61,-148.45 407.7,-97.56 392.5,-56 388.44,-44.91 380.31,-34.67 372.61,-26.76"/>
<polygon fill="midnightblue" stroke="midnightblue" points="374.86,-24.07 365.21,-19.7 370.03,-29.14 374.86,-24.07"/>
</g>
<!-- Node8 -->
<g id="node8" class="node">
<title>Node8</title>
<g id="a_node8"><a xlink:title=" ">
<polygon fill="white" stroke="#bfbfbf" points="440,-112.5 440,-131.5 547,-131.5 547,-112.5 440,-112.5"/>
<text text-anchor="middle" x="493.5" y="-119.5" font-family="Helvetica,sans-Serif" font-size="10.00">AH/STL/type_traits</text>
</a>
</g>
</g>
<!-- Node4&#45;&gt;Node8 -->
<g id="edge9" class="edge">
<title>Node4&#45;&gt;Node8</title>
<path fill="none" stroke="midnightblue" d="M376.52,-168.44C399.6,-159.48 436.06,-145.31 462.14,-135.18"/>
<polygon fill="midnightblue" stroke="midnightblue" points="463.52,-138.4 471.58,-131.52 460.99,-131.88 463.52,-138.4"/>
</g>
<!-- Node5&#45;&gt;Node2 -->
<g id="edge8" class="edge">
<title>Node5&#45;&gt;Node2</title>
<path fill="none" stroke="midnightblue" d="M266.65,-112.44C232.1,-103.16 176.82,-88.31 138.92,-78.13"/>
<polygon fill="midnightblue" stroke="midnightblue" points="139.77,-74.73 129.2,-75.52 137.95,-81.49 139.77,-74.73"/>
</g>
<!-- Node6 -->
<g id="node6" class="node">
<title>Node6</title>
<g id="a_node6"><a xlink:href="../../d6/d3b/FixArduinoMacros_8hpp.html" target="_top" xlink:title=" ">
<polygon fill="white" stroke="black" points="213.5,-56.5 213.5,-75.5 383.5,-75.5 383.5,-56.5 213.5,-56.5"/>
<text text-anchor="middle" x="298.5" y="-63.5" font-family="Helvetica,sans-Serif" font-size="10.00">AH/Math/FixArduinoMacros.hpp</text>
</a>
</g>
</g>
<!-- Node5&#45;&gt;Node6 -->
<g id="edge5" class="edge">
<title>Node5&#45;&gt;Node6</title>
<path fill="none" stroke="midnightblue" d="M298.5,-112.08C298.5,-105.01 298.5,-94.86 298.5,-85.99"/>
<polygon fill="midnightblue" stroke="midnightblue" points="302,-85.75 298.5,-75.75 295,-85.75 302,-85.75"/>
</g>
<!-- Node6&#45;&gt;Node3 -->
<g id="edge6" class="edge">
<title>Node6&#45;&gt;Node3</title>
<path fill="none" stroke="midnightblue" d="M281.63,-56.32C264.79,-47.66 238.69,-34.24 219.26,-24.25"/>
<polygon fill="midnightblue" stroke="midnightblue" points="220.82,-21.12 210.33,-19.65 217.62,-27.34 220.82,-21.12"/>
</g>
<!-- Node6&#45;&gt;Node7 -->
<g id="edge7" class="edge">
<title>Node6&#45;&gt;Node7</title>
<path fill="none" stroke="midnightblue" d="M307.5,-56.32C315.69,-48.42 328.01,-36.55 337.97,-26.94"/>
<polygon fill="midnightblue" stroke="midnightblue" points="340.57,-29.29 345.34,-19.83 335.71,-24.26 340.57,-29.29"/>
</g>
</g>
</svg>
