<?xml version="1.0" encoding="UTF-8" standalone="no"?>
<!DOCTYPE svg PUBLIC "-//W3C//DTD SVG 1.1//EN"
 "http://www.w3.org/Graphics/SVG/1.1/DTD/svg11.dtd">
<!-- Generated by graphviz version 2.43.0 (0)
 -->
<!-- Title: ExtendedIOElement.cpp Pages: 1 -->
<svg width="1018pt" height="834pt"
 viewBox="0.00 0.00 1018.02 834.00" xmlns="http://www.w3.org/2000/svg" xmlns:xlink="http://www.w3.org/1999/xlink">
<g id="graph0" class="graph" transform="scale(1 1) rotate(0) translate(4 830)">
<title>ExtendedIOElement.cpp</title>
<polygon fill="white" stroke="transparent" points="-4,4 -4,-830 1014.02,-830 1014.02,4 -4,4"/>
<!-- Node1 -->
<g id="node1" class="node">
<title>Node1</title>
<g id="a_node1"><a xlink:title=" ">
<polygon fill="#bfbfbf" stroke="black" points="832.02,-806.5 832.02,-825.5 966.02,-825.5 966.02,-806.5 832.02,-806.5"/>
<text text-anchor="middle" x="899.02" y="-813.5" font-family="Helvetica,sans-Serif" font-size="10.00">ExtendedIOElement.cpp</text>
</a>
</g>
</g>
<!-- Node2 -->
<g id="node2" class="node">
<title>Node2</title>
<g id="a_node2"><a xlink:href="../../d4/d57/ExtendedIOElement_8hpp.html" target="_top" xlink:title=" ">
<polygon fill="white" stroke="black" points="498.02,-750.5 498.02,-769.5 632.02,-769.5 632.02,-750.5 498.02,-750.5"/>
<text text-anchor="middle" x="565.02" y="-757.5" font-family="Helvetica,sans-Serif" font-size="10.00">ExtendedIOElement.hpp</text>
</a>
</g>
</g>
<!-- Node1&#45;&gt;Node2 -->
<g id="edge1" class="edge">
<title>Node1&#45;&gt;Node2</title>
<path fill="none" stroke="midnightblue" d="M846.1,-806.44C786.86,-796.87 690.93,-781.36 627.91,-771.17"/>
<polygon fill="midnightblue" stroke="midnightblue" points="628.13,-767.66 617.7,-769.52 627.01,-774.57 628.13,-767.66"/>
</g>
<!-- Node7 -->
<g id="node7" class="node">
<title>Node7</title>
<g id="a_node7"><a xlink:href="../../d1/d93/Error_8hpp.html" target="_top" xlink:title=" ">
<polygon fill="white" stroke="black" points="690.02,-448.5 690.02,-467.5 794.02,-467.5 794.02,-448.5 690.02,-448.5"/>
<text text-anchor="middle" x="742.02" y="-455.5" font-family="Helvetica,sans-Serif" font-size="10.00">AH/Error/Error.hpp</text>
</a>
</g>
</g>
<!-- Node1&#45;&gt;Node7 -->
<g id="edge56" class="edge">
<title>Node1&#45;&gt;Node7</title>
<path fill="none" stroke="midnightblue" d="M899.02,-806.44C899.02,-787.94 899.02,-742.81 899.02,-705 899.02,-705 899.02,-705 899.02,-574.5 899.02,-517.79 831.75,-485.84 785.27,-470.52"/>
<polygon fill="midnightblue" stroke="midnightblue" points="786.29,-467.18 775.7,-467.51 784.19,-473.85 786.29,-467.18"/>
</g>
<!-- Node16 -->
<g id="node16" class="node">
<title>Node16</title>
<g id="a_node16"><a xlink:title=" ">
<polygon fill="white" stroke="#bfbfbf" points="899.52,-112.5 899.52,-131.5 1006.52,-131.5 1006.52,-112.5 899.52,-112.5"/>
<text text-anchor="middle" x="953.02" y="-119.5" font-family="Helvetica,sans-Serif" font-size="10.00">AH/STL/type_traits</text>
</a>
</g>
</g>
<!-- Node1&#45;&gt;Node16 -->
<g id="edge57" class="edge">
<title>Node1&#45;&gt;Node16</title>
<path fill="none" stroke="midnightblue" d="M918.87,-806.39C950.8,-791.04 1010.02,-755.73 1010.02,-705 1010.02,-705 1010.02,-705 1010.02,-233 1010.02,-196.3 984.7,-159.66 967.81,-139.3"/>
<polygon fill="midnightblue" stroke="midnightblue" points="970.37,-136.9 961.19,-131.62 965.07,-141.48 970.37,-136.9"/>
</g>
<!-- Node3 -->
<g id="node3" class="node">
<title>Node3</title>
<g id="a_node3"><a xlink:href="../../dd/ddf/ExtendedInputOutput_8hpp.html" target="_top" xlink:title=" ">
<polygon fill="white" stroke="black" points="416.52,-694.5 416.52,-713.5 557.52,-713.5 557.52,-694.5 416.52,-694.5"/>
<text text-anchor="middle" x="487.02" y="-701.5" font-family="Helvetica,sans-Serif" font-size="10.00">ExtendedInputOutput.hpp</text>
</a>
</g>
</g>
<!-- Node2&#45;&gt;Node3 -->
<g id="edge2" class="edge">
<title>Node2&#45;&gt;Node3</title>
<path fill="none" stroke="midnightblue" d="M552.49,-750.32C540.44,-741.98 522,-729.21 507.75,-719.35"/>
<polygon fill="midnightblue" stroke="midnightblue" points="509.74,-716.47 499.52,-713.65 505.75,-722.22 509.74,-716.47"/>
</g>
<!-- Node5 -->
<g id="node5" class="node">
<title>Node5</title>
<g id="a_node5"><a xlink:href="../../d4/d35/Hardware-Types_8hpp.html" target="_top" xlink:title=" ">
<polygon fill="white" stroke="black" points="576.52,-560.5 576.52,-590.5 707.52,-590.5 707.52,-560.5 576.52,-560.5"/>
<text text-anchor="start" x="584.52" y="-578.5" font-family="Helvetica,sans-Serif" font-size="10.00">AH/Hardware/Hardware</text>
<text text-anchor="middle" x="642.02" y="-567.5" font-family="Helvetica,sans-Serif" font-size="10.00">&#45;Types.hpp</text>
</a>
</g>
</g>
<!-- Node2&#45;&gt;Node5 -->
<g id="edge55" class="edge">
<title>Node2&#45;&gt;Node5</title>
<path fill="none" stroke="midnightblue" d="M571.23,-750.26C583.02,-733.28 608.72,-694.31 623.02,-658 630.36,-639.37 635.3,-617.18 638.31,-600.66"/>
<polygon fill="midnightblue" stroke="midnightblue" points="641.77,-601.17 640,-590.72 634.87,-599.99 641.77,-601.17"/>
</g>
<!-- Node30 -->
<g id="node30" class="node">
<title>Node30</title>
<g id="a_node30"><a xlink:href="../../d4/d93/Updatable_8hpp.html" target="_top" xlink:title=" ">
<polygon fill="white" stroke="black" points="322.52,-504.5 322.52,-523.5 483.52,-523.5 483.52,-504.5 322.52,-504.5"/>
<text text-anchor="middle" x="403.02" y="-511.5" font-family="Helvetica,sans-Serif" font-size="10.00">AH/Containers/Updatable.hpp</text>
</a>
</g>
</g>
<!-- Node2&#45;&gt;Node30 -->
<g id="edge43" class="edge">
<title>Node2&#45;&gt;Node30</title>
<path fill="none" stroke="midnightblue" d="M497.67,-751.89C467.34,-745.85 432.68,-734.67 407.02,-714 385.04,-696.28 383.9,-685.39 377.02,-658 365.91,-613.71 383.5,-560.57 394.77,-533.23"/>
<polygon fill="midnightblue" stroke="midnightblue" points="398.1,-534.36 398.84,-523.79 391.67,-531.59 398.1,-534.36"/>
</g>
<!-- Node4 -->
<g id="node4" class="node">
<title>Node4</title>
<g id="a_node4"><a xlink:href="../../d2/d3c/Arduino-Hardware-Types_8hpp.html" target="_top" xlink:title=" ">
<polygon fill="white" stroke="black" points="492.02,-627.5 492.02,-657.5 614.02,-657.5 614.02,-627.5 492.02,-627.5"/>
<text text-anchor="start" x="500.02" y="-645.5" font-family="Helvetica,sans-Serif" font-size="10.00">AH/Hardware/Arduino</text>
<text text-anchor="middle" x="553.02" y="-634.5" font-family="Helvetica,sans-Serif" font-size="10.00">&#45;Hardware&#45;Types.hpp</text>
</a>
</g>
</g>
<!-- Node3&#45;&gt;Node4 -->
<g id="edge3" class="edge">
<title>Node3&#45;&gt;Node4</title>
<path fill="none" stroke="midnightblue" d="M496.48,-694.48C505.17,-686.64 518.4,-674.71 529.88,-664.37"/>
<polygon fill="midnightblue" stroke="midnightblue" points="532.39,-666.82 537.47,-657.52 527.7,-661.62 532.39,-666.82"/>
</g>
<!-- Node15 -->
<g id="node15" class="node">
<title>Node15</title>
<g id="a_node15"><a xlink:href="../../dc/dc7/NamespaceSettings_8hpp.html" target="_top" xlink:title=" ">
<polygon fill="white" stroke="black" points="127.52,-56.5 127.52,-75.5 322.52,-75.5 322.52,-56.5 127.52,-56.5"/>
<text text-anchor="middle" x="225.02" y="-63.5" font-family="Helvetica,sans-Serif" font-size="10.00">AH/Settings/NamespaceSettings.hpp</text>
</a>
</g>
</g>
<!-- Node3&#45;&gt;Node15 -->
<g id="edge42" class="edge">
<title>Node3&#45;&gt;Node15</title>
<path fill="none" stroke="midnightblue" d="M416.16,-695.02C301.21,-680.6 81.63,-646.45 29.02,-591 -12.07,-547.68 4.02,-518.71 4.02,-459 4.02,-459 4.02,-459 4.02,-177 4.02,-117.22 69.63,-89.93 129.36,-77.47"/>
<polygon fill="midnightblue" stroke="midnightblue" points="130.13,-80.88 139.26,-75.52 128.78,-74.01 130.13,-80.88"/>
</g>
<!-- Node29 -->
<g id="node29" class="node">
<title>Node29</title>
<g id="a_node29"><a xlink:title=" ">
<polygon fill="white" stroke="#bfbfbf" points="386.52,-633 386.52,-652 473.52,-652 473.52,-633 386.52,-633"/>
<text text-anchor="middle" x="430.02" y="-640" font-family="Helvetica,sans-Serif" font-size="10.00">AH/STL/climits</text>
</a>
</g>
</g>
<!-- Node3&#45;&gt;Node29 -->
<g id="edge41" class="edge">
<title>Node3&#45;&gt;Node29</title>
<path fill="none" stroke="midnightblue" d="M478.86,-694.48C470.14,-685.37 456.12,-670.74 445.34,-659.48"/>
<polygon fill="midnightblue" stroke="midnightblue" points="447.62,-656.81 438.18,-652.01 442.57,-661.65 447.62,-656.81"/>
</g>
<!-- Node4&#45;&gt;Node5 -->
<g id="edge4" class="edge">
<title>Node4&#45;&gt;Node5</title>
<path fill="none" stroke="midnightblue" d="M572.34,-627.4C584.7,-618.37 600.93,-606.51 614.61,-596.52"/>
<polygon fill="midnightblue" stroke="midnightblue" points="616.74,-599.3 622.75,-590.58 612.61,-593.65 616.74,-599.3"/>
</g>
<!-- Node10 -->
<g id="node10" class="node">
<title>Node10</title>
<g id="a_node10"><a xlink:href="../../d6/ddf/Arduino-Wrapper_8h.html" target="_top" xlink:title=" ">
<polygon fill="white" stroke="black" points="782.02,-168.5 782.02,-187.5 906.02,-187.5 906.02,-168.5 782.02,-168.5"/>
<text text-anchor="middle" x="844.02" y="-175.5" font-family="Helvetica,sans-Serif" font-size="10.00">AH/Arduino&#45;Wrapper.h</text>
</a>
</g>
</g>
<!-- Node4&#45;&gt;Node10 -->
<g id="edge40" class="edge">
<title>Node4&#45;&gt;Node10</title>
<path fill="none" stroke="midnightblue" d="M614.32,-632.74C679.53,-620.16 781.1,-590.65 839.02,-524 922.46,-427.99 870.92,-253.89 850.92,-197.3"/>
<polygon fill="midnightblue" stroke="midnightblue" points="854.1,-195.81 847.39,-187.61 847.52,-198.2 854.1,-195.81"/>
</g>
<!-- Node26 -->
<g id="node26" class="node">
<title>Node26</title>
<g id="a_node26"><a xlink:href="../../d0/db1/FunctionTraits_8hpp.html" target="_top" xlink:title=" ">
<polygon fill="white" stroke="black" points="38.52,-566 38.52,-585 191.52,-585 191.52,-566 38.52,-566"/>
<text text-anchor="middle" x="115.02" y="-573" font-family="Helvetica,sans-Serif" font-size="10.00">AH/Types/FunctionTraits.hpp</text>
</a>
</g>
</g>
<!-- Node4&#45;&gt;Node26 -->
<g id="edge36" class="edge">
<title>Node4&#45;&gt;Node26</title>
<path fill="none" stroke="midnightblue" d="M491.88,-628.75C488.55,-628.14 485.25,-627.55 482.02,-627 384.54,-610.36 271.75,-595.49 197.22,-586.27"/>
<polygon fill="midnightblue" stroke="midnightblue" points="197.32,-582.75 186.96,-585 196.46,-589.7 197.32,-582.75"/>
</g>
<!-- Node6 -->
<g id="node6" class="node">
<title>Node6</title>
<g id="a_node6"><a xlink:href="../../de/d76/Array_8hpp.html" target="_top" xlink:title=" ">
<polygon fill="white" stroke="black" points="674.52,-504.5 674.52,-523.5 809.52,-523.5 809.52,-504.5 674.52,-504.5"/>
<text text-anchor="middle" x="742.02" y="-511.5" font-family="Helvetica,sans-Serif" font-size="10.00">AH/Containers/Array.hpp</text>
</a>
</g>
</g>
<!-- Node5&#45;&gt;Node6 -->
<g id="edge5" class="edge">
<title>Node5&#45;&gt;Node6</title>
<path fill="none" stroke="midnightblue" d="M665.72,-560.4C681.75,-550.86 702.82,-538.32 718.76,-528.84"/>
<polygon fill="midnightblue" stroke="midnightblue" points="720.67,-531.78 727.47,-523.66 717.09,-525.76 720.67,-531.78"/>
</g>
<!-- Node5&#45;&gt;Node15 -->
<g id="edge34" class="edge">
<title>Node5&#45;&gt;Node15</title>
<path fill="none" stroke="midnightblue" d="M576.38,-569.29C509.23,-562.84 402.37,-549.43 313.02,-524 291.19,-517.78 287.66,-510.87 266.02,-504 193.65,-481.03 154.61,-519.72 99.02,-468 76.99,-447.5 80.02,-433.1 80.02,-403 80.02,-403 80.02,-403 80.02,-177 80.02,-124.53 141.04,-93.84 183.91,-78.76"/>
<polygon fill="midnightblue" stroke="midnightblue" points="185.2,-82.02 193.56,-75.52 182.97,-75.39 185.2,-82.02"/>
</g>
<!-- Node23 -->
<g id="node23" class="node">
<title>Node23</title>
<g id="a_node23"><a xlink:title=" ">
<polygon fill="white" stroke="#bfbfbf" points="776.52,-224.5 776.52,-243.5 829.52,-243.5 829.52,-224.5 776.52,-224.5"/>
<text text-anchor="middle" x="803.02" y="-231.5" font-family="Helvetica,sans-Serif" font-size="10.00">stdint.h</text>
</a>
</g>
</g>
<!-- Node5&#45;&gt;Node23 -->
<g id="edge35" class="edge">
<title>Node5&#45;&gt;Node23</title>
<path fill="none" stroke="midnightblue" d="M707.93,-564.15C752.39,-555.67 805.36,-542.11 819.02,-524 881.91,-440.67 832.19,-302.25 811.21,-253.04"/>
<polygon fill="midnightblue" stroke="midnightblue" points="814.34,-251.46 807.12,-243.71 807.93,-254.27 814.34,-251.46"/>
</g>
<!-- Node6&#45;&gt;Node7 -->
<g id="edge6" class="edge">
<title>Node6&#45;&gt;Node7</title>
<path fill="none" stroke="midnightblue" d="M742.02,-504.08C742.02,-497.01 742.02,-486.86 742.02,-477.99"/>
<polygon fill="midnightblue" stroke="midnightblue" points="745.52,-477.75 742.02,-467.75 738.52,-477.75 745.52,-477.75"/>
</g>
<!-- Node6&#45;&gt;Node16 -->
<g id="edge32" class="edge">
<title>Node6&#45;&gt;Node16</title>
<path fill="none" stroke="midnightblue" d="M764.08,-504.34C821.64,-480.13 972.02,-405.88 972.02,-291 972.02,-291 972.02,-291 972.02,-233 972.02,-200.49 963.86,-163.35 958.24,-141.61"/>
<polygon fill="midnightblue" stroke="midnightblue" points="961.57,-140.5 955.59,-131.75 954.81,-142.32 961.57,-140.5"/>
</g>
<!-- Node22 -->
<g id="node22" class="node">
<title>Node22</title>
<g id="a_node22"><a xlink:title=" ">
<polygon fill="white" stroke="#bfbfbf" points="227.02,-224.5 227.02,-243.5 283.02,-243.5 283.02,-224.5 227.02,-224.5"/>
<text text-anchor="middle" x="255.02" y="-231.5" font-family="Helvetica,sans-Serif" font-size="10.00">stddef.h</text>
</a>
</g>
</g>
<!-- Node6&#45;&gt;Node22 -->
<g id="edge33" class="edge">
<title>Node6&#45;&gt;Node22</title>
<path fill="none" stroke="midnightblue" d="M760.89,-504.48C782.95,-493.2 815.02,-471.93 803.02,-448 784.38,-410.81 763.27,-414.09 728.02,-392 726.59,-391.1 513.62,-280.54 512.02,-280 491.66,-273.12 360.16,-251.7 293.56,-241.08"/>
<polygon fill="midnightblue" stroke="midnightblue" points="293.88,-237.59 283.46,-239.48 292.78,-244.5 293.88,-237.59"/>
</g>
<!-- Node25 -->
<g id="node25" class="node">
<title>Node25</title>
<g id="a_node25"><a xlink:title=" ">
<polygon fill="white" stroke="#bfbfbf" points="419.02,-392.5 419.02,-411.5 509.02,-411.5 509.02,-392.5 419.02,-392.5"/>
<text text-anchor="middle" x="464.02" y="-399.5" font-family="Helvetica,sans-Serif" font-size="10.00">AH/STL/iterator</text>
</a>
</g>
</g>
<!-- Node6&#45;&gt;Node25 -->
<g id="edge31" class="edge">
<title>Node6&#45;&gt;Node25</title>
<path fill="none" stroke="midnightblue" d="M674.51,-511.5C601.73,-508.31 492.71,-498.43 466.02,-468 455.11,-455.55 456.04,-436.04 458.83,-421.64"/>
<polygon fill="midnightblue" stroke="midnightblue" points="462.26,-422.36 461.16,-411.83 455.44,-420.75 462.26,-422.36"/>
</g>
<!-- Node8 -->
<g id="node8" class="node">
<title>Node8</title>
<g id="a_node8"><a xlink:href="../../df/dee/Debug_8hpp.html" target="_top" xlink:title=" ">
<polygon fill="white" stroke="black" points="598.52,-392.5 598.52,-411.5 719.52,-411.5 719.52,-392.5 598.52,-392.5"/>
<text text-anchor="middle" x="659.02" y="-399.5" font-family="Helvetica,sans-Serif" font-size="10.00">AH/Debug/Debug.hpp</text>
</a>
</g>
</g>
<!-- Node7&#45;&gt;Node8 -->
<g id="edge7" class="edge">
<title>Node7&#45;&gt;Node8</title>
<path fill="none" stroke="midnightblue" d="M728.69,-448.32C715.86,-439.98 696.24,-427.21 681.08,-417.35"/>
<polygon fill="midnightblue" stroke="midnightblue" points="682.62,-414.17 672.33,-411.65 678.8,-420.04 682.62,-414.17"/>
</g>
<!-- Node9 -->
<g id="node9" class="node">
<title>Node9</title>
<g id="a_node9"><a xlink:href="../../dd/d80/PrintStream_8hpp.html" target="_top" xlink:title=" ">
<polygon fill="white" stroke="black" points="585.52,-224.5 585.52,-243.5 758.52,-243.5 758.52,-224.5 585.52,-224.5"/>
<text text-anchor="middle" x="672.02" y="-231.5" font-family="Helvetica,sans-Serif" font-size="10.00">AH/PrintStream/PrintStream.hpp</text>
</a>
</g>
</g>
<!-- Node8&#45;&gt;Node9 -->
<g id="edge8" class="edge">
<title>Node8&#45;&gt;Node9</title>
<path fill="none" stroke="midnightblue" d="M659.72,-392.08C661.77,-365.95 667.78,-289.21 670.57,-253.58"/>
<polygon fill="midnightblue" stroke="midnightblue" points="674.06,-253.81 671.35,-243.57 667.08,-253.26 674.06,-253.81"/>
</g>
<!-- Node17 -->
<g id="node17" class="node">
<title>Node17</title>
<g id="a_node17"><a xlink:href="../../d2/dd5/SettingsWrapper_8hpp.html" target="_top" xlink:title=" ">
<polygon fill="white" stroke="black" points="351.02,-336.5 351.02,-355.5 529.02,-355.5 529.02,-336.5 351.02,-336.5"/>
<text text-anchor="middle" x="440.02" y="-343.5" font-family="Helvetica,sans-Serif" font-size="10.00">AH/Settings/SettingsWrapper.hpp</text>
</a>
</g>
</g>
<!-- Node8&#45;&gt;Node17 -->
<g id="edge19" class="edge">
<title>Node8&#45;&gt;Node17</title>
<path fill="none" stroke="midnightblue" d="M619.23,-392.44C579.47,-383.14 518.9,-368.25 479.31,-358.06"/>
<polygon fill="midnightblue" stroke="midnightblue" points="480.04,-354.63 469.48,-355.52 478.29,-361.41 480.04,-354.63"/>
</g>
<!-- Node9&#45;&gt;Node10 -->
<g id="edge9" class="edge">
<title>Node9&#45;&gt;Node10</title>
<path fill="none" stroke="midnightblue" d="M699.28,-224.44C728.46,-215.28 774.94,-200.69 807.33,-190.52"/>
<polygon fill="midnightblue" stroke="midnightblue" points="808.4,-193.85 816.9,-187.52 806.31,-187.17 808.4,-193.85"/>
</g>
<!-- Node9&#45;&gt;Node15 -->
<g id="edge18" class="edge">
<title>Node9&#45;&gt;Node15</title>
<path fill="none" stroke="midnightblue" d="M648.93,-224.42C574.9,-196.93 343.32,-110.93 257.47,-79.05"/>
<polygon fill="midnightblue" stroke="midnightblue" points="258.57,-75.72 247.98,-75.52 256.13,-82.29 258.57,-75.72"/>
</g>
<!-- Node11 -->
<g id="node11" class="node">
<title>Node11</title>
<g id="a_node11"><a xlink:href="../../d7/d79/MinMaxFix_8hpp.html" target="_top" xlink:title=" ">
<polygon fill="white" stroke="black" points="672.02,-112.5 672.02,-131.5 808.02,-131.5 808.02,-112.5 672.02,-112.5"/>
<text text-anchor="middle" x="740.02" y="-119.5" font-family="Helvetica,sans-Serif" font-size="10.00">AH/Math/MinMaxFix.hpp</text>
</a>
</g>
</g>
<!-- Node10&#45;&gt;Node11 -->
<g id="edge10" class="edge">
<title>Node10&#45;&gt;Node11</title>
<path fill="none" stroke="midnightblue" d="M827.31,-168.32C810.71,-159.7 785.02,-146.36 765.8,-136.39"/>
<polygon fill="midnightblue" stroke="midnightblue" points="767.18,-133.16 756.69,-131.65 763.95,-139.37 767.18,-133.16"/>
</g>
<!-- Node14 -->
<g id="node14" class="node">
<title>Node14</title>
<g id="a_node14"><a xlink:title=" ">
<polygon fill="white" stroke="#bfbfbf" points="755.52,-0.5 755.52,-19.5 818.52,-19.5 818.52,-0.5 755.52,-0.5"/>
<text text-anchor="middle" x="787.02" y="-7.5" font-family="Helvetica,sans-Serif" font-size="10.00">Arduino.h</text>
</a>
</g>
</g>
<!-- Node10&#45;&gt;Node14 -->
<g id="edge17" class="edge">
<title>Node10&#45;&gt;Node14</title>
<path fill="none" stroke="midnightblue" d="M844.23,-168.34C844.38,-147.82 842.87,-95.07 825.02,-56 820.05,-45.12 811.69,-34.78 804.07,-26.77"/>
<polygon fill="midnightblue" stroke="midnightblue" points="806.41,-24.16 796.85,-19.59 801.48,-29.13 806.41,-24.16"/>
</g>
<!-- Node10&#45;&gt;Node16 -->
<g id="edge16" class="edge">
<title>Node10&#45;&gt;Node16</title>
<path fill="none" stroke="midnightblue" d="M861.54,-168.32C879.1,-159.62 906.36,-146.12 926.55,-136.11"/>
<polygon fill="midnightblue" stroke="midnightblue" points="928.15,-139.23 935.55,-131.65 925.04,-132.96 928.15,-139.23"/>
</g>
<!-- Node12 -->
<g id="node12" class="node">
<title>Node12</title>
<g id="a_node12"><a xlink:href="../../d6/d3b/FixArduinoMacros_8hpp.html" target="_top" xlink:title=" ">
<polygon fill="white" stroke="black" points="646.02,-56.5 646.02,-75.5 816.02,-75.5 816.02,-56.5 646.02,-56.5"/>
<text text-anchor="middle" x="731.02" y="-63.5" font-family="Helvetica,sans-Serif" font-size="10.00">AH/Math/FixArduinoMacros.hpp</text>
</a>
</g>
</g>
<!-- Node11&#45;&gt;Node12 -->
<g id="edge11" class="edge">
<title>Node11&#45;&gt;Node12</title>
<path fill="none" stroke="midnightblue" d="M738.54,-112.08C737.34,-104.93 735.63,-94.64 734.14,-85.69"/>
<polygon fill="midnightblue" stroke="midnightblue" points="737.58,-85.04 732.48,-75.75 730.67,-86.19 737.58,-85.04"/>
</g>
<!-- Node11&#45;&gt;Node15 -->
<g id="edge14" class="edge">
<title>Node11&#45;&gt;Node15</title>
<path fill="none" stroke="midnightblue" d="M671.9,-113.86C580.49,-104.27 417.89,-87.22 316.06,-76.55"/>
<polygon fill="midnightblue" stroke="midnightblue" points="316.41,-73.06 306.1,-75.5 315.68,-80.02 316.41,-73.06"/>
</g>
<!-- Node13 -->
<g id="node13" class="node">
<title>Node13</title>
<g id="a_node13"><a xlink:href="../../d1/d65/Warnings_8hpp.html" target="_top" xlink:title=" ">
<polygon fill="white" stroke="black" points="445.52,-0.5 445.52,-19.5 588.52,-19.5 588.52,-0.5 445.52,-0.5"/>
<text text-anchor="middle" x="517.02" y="-7.5" font-family="Helvetica,sans-Serif" font-size="10.00">AH/Settings/Warnings.hpp</text>
</a>
</g>
</g>
<!-- Node12&#45;&gt;Node13 -->
<g id="edge12" class="edge">
<title>Node12&#45;&gt;Node13</title>
<path fill="none" stroke="midnightblue" d="M697.11,-56.44C660.17,-47.12 600.97,-32.18 560.61,-22"/>
<polygon fill="midnightblue" stroke="midnightblue" points="561.33,-18.57 550.77,-19.52 559.61,-25.36 561.33,-18.57"/>
</g>
<!-- Node12&#45;&gt;Node14 -->
<g id="edge13" class="edge">
<title>Node12&#45;&gt;Node14</title>
<path fill="none" stroke="midnightblue" d="M740.02,-56.32C748.22,-48.42 760.53,-36.55 770.5,-26.94"/>
<polygon fill="midnightblue" stroke="midnightblue" points="773.09,-29.29 777.86,-19.83 768.23,-24.26 773.09,-29.29"/>
</g>
<!-- Node15&#45;&gt;Node13 -->
<g id="edge15" class="edge">
<title>Node15&#45;&gt;Node13</title>
<path fill="none" stroke="midnightblue" d="M271.29,-56.44C322.76,-46.92 405.92,-31.55 461.02,-21.36"/>
<polygon fill="midnightblue" stroke="midnightblue" points="461.78,-24.78 470.97,-19.52 460.5,-17.89 461.78,-24.78"/>
</g>
<!-- Node17&#45;&gt;Node8 -->
<g id="edge30" class="edge">
<title>Node17&#45;&gt;Node8</title>
<path fill="none" stroke="midnightblue" d="M479.64,-355.52C519.35,-364.8 579.92,-379.7 619.56,-389.89"/>
<polygon fill="midnightblue" stroke="midnightblue" points="618.85,-393.33 629.41,-392.44 620.61,-386.55 618.85,-393.33"/>
</g>
<!-- Node17&#45;&gt;Node15 -->
<g id="edge20" class="edge">
<title>Node17&#45;&gt;Node15</title>
<path fill="none" stroke="midnightblue" d="M378.77,-336.48C325.39,-325.38 251.46,-300.23 218.02,-244 187.82,-193.19 206.91,-118.91 218.31,-85.03"/>
<polygon fill="midnightblue" stroke="midnightblue" points="221.63,-86.13 221.66,-75.54 215.03,-83.8 221.63,-86.13"/>
</g>
<!-- Node18 -->
<g id="node18" class="node">
<title>Node18</title>
<g id="a_node18"><a xlink:href="../../db/d02/Settings_8hpp.html" target="_top" xlink:title="All user settings and debugging options can be changed here.">
<polygon fill="white" stroke="black" points="560.52,-280.5 560.52,-299.5 637.52,-299.5 637.52,-280.5 560.52,-280.5"/>
<text text-anchor="middle" x="599.02" y="-287.5" font-family="Helvetica,sans-Serif" font-size="10.00">Settings.hpp</text>
</a>
</g>
</g>
<!-- Node17&#45;&gt;Node18 -->
<g id="edge21" class="edge">
<title>Node17&#45;&gt;Node18</title>
<path fill="none" stroke="midnightblue" d="M465.22,-336.44C491.97,-327.36 534.43,-312.94 564.33,-302.78"/>
<polygon fill="midnightblue" stroke="midnightblue" points="565.6,-306.05 573.95,-299.52 563.35,-299.42 565.6,-306.05"/>
</g>
<!-- Node24 -->
<g id="node24" class="node">
<title>Node24</title>
<g id="a_node24"><a xlink:href="../../d9/d98/TeensyUSBTypes_8hpp.html" target="_top" xlink:title=" ">
<polygon fill="white" stroke="black" points="330.52,-280.5 330.52,-299.5 503.52,-299.5 503.52,-280.5 330.52,-280.5"/>
<text text-anchor="middle" x="417.02" y="-287.5" font-family="Helvetica,sans-Serif" font-size="10.00">AH/Teensy/TeensyUSBTypes.hpp</text>
</a>
</g>
</g>
<!-- Node17&#45;&gt;Node24 -->
<g id="edge29" class="edge">
<title>Node17&#45;&gt;Node24</title>
<path fill="none" stroke="midnightblue" d="M436.23,-336.08C433.11,-328.77 428.6,-318.18 424.73,-309.1"/>
<polygon fill="midnightblue" stroke="midnightblue" points="427.89,-307.58 420.75,-299.75 421.45,-310.32 427.89,-307.58"/>
</g>
<!-- Node19 -->
<g id="node19" class="node">
<title>Node19</title>
<g id="a_node19"><a xlink:href="../../dc/d50/Frequency_8hpp.html" target="_top" xlink:title=" ">
<polygon fill="white" stroke="black" points="236.02,-168.5 236.02,-187.5 370.02,-187.5 370.02,-168.5 236.02,-168.5"/>
<text text-anchor="middle" x="303.02" y="-175.5" font-family="Helvetica,sans-Serif" font-size="10.00">AH/Types/Frequency.hpp</text>
</a>
</g>
</g>
<!-- Node18&#45;&gt;Node19 -->
<g id="edge22" class="edge">
<title>Node18&#45;&gt;Node19</title>
<path fill="none" stroke="midnightblue" d="M560.24,-282.4C555.45,-281.59 550.63,-280.77 546.02,-280 450.05,-263.85 406.24,-304.52 330.02,-244 315.84,-232.74 309.03,-212.73 305.81,-197.87"/>
<polygon fill="midnightblue" stroke="midnightblue" points="309.2,-196.97 303.98,-187.75 302.31,-198.21 309.2,-196.97"/>
</g>
<!-- Node20 -->
<g id="node20" class="node">
<title>Node20</title>
<g id="a_node20"><a xlink:href="../../d7/d7c/ADCConfig_8hpp.html" target="_top" xlink:title="This file contains the platform&#45;specific ADC resolutions.">
<polygon fill="white" stroke="black" points="410.52,-224.5 410.52,-243.5 567.52,-243.5 567.52,-224.5 410.52,-224.5"/>
<text text-anchor="middle" x="489.02" y="-231.5" font-family="Helvetica,sans-Serif" font-size="10.00">AH/Hardware/ADCConfig.hpp</text>
</a>
</g>
</g>
<!-- Node18&#45;&gt;Node20 -->
<g id="edge24" class="edge">
<title>Node18&#45;&gt;Node20</title>
<path fill="none" stroke="midnightblue" d="M581.35,-280.32C563.63,-271.62 536.12,-258.12 515.74,-248.11"/>
<polygon fill="midnightblue" stroke="midnightblue" points="517.17,-244.92 506.65,-243.65 514.09,-251.2 517.17,-244.92"/>
</g>
<!-- Node21 -->
<g id="node21" class="node">
<title>Node21</title>
<g id="a_node21"><a xlink:title=" ">
<polygon fill="white" stroke="#bfbfbf" points="339.52,-224.5 339.52,-243.5 392.52,-243.5 392.52,-224.5 339.52,-224.5"/>
<text text-anchor="middle" x="366.02" y="-231.5" font-family="Helvetica,sans-Serif" font-size="10.00">limits.h</text>
</a>
</g>
</g>
<!-- Node18&#45;&gt;Node21 -->
<g id="edge26" class="edge">
<title>Node18&#45;&gt;Node21</title>
<path fill="none" stroke="midnightblue" d="M560.25,-280.53C522.38,-272.18 462.88,-258.86 402.79,-244.38"/>
<polygon fill="midnightblue" stroke="midnightblue" points="403.3,-240.91 392.76,-241.96 401.65,-247.71 403.3,-240.91"/>
</g>
<!-- Node18&#45;&gt;Node22 -->
<g id="edge27" class="edge">
<title>Node18&#45;&gt;Node22</title>
<path fill="none" stroke="midnightblue" d="M560.25,-282.3C555.46,-281.51 550.63,-280.72 546.02,-280 435.56,-262.64 407.09,-263.73 297.02,-244 295.79,-243.78 294.53,-243.55 293.26,-243.31"/>
<polygon fill="midnightblue" stroke="midnightblue" points="293.93,-239.87 283.44,-241.36 292.57,-246.74 293.93,-239.87"/>
</g>
<!-- Node18&#45;&gt;Node23 -->
<g id="edge28" class="edge">
<title>Node18&#45;&gt;Node23</title>
<path fill="none" stroke="midnightblue" d="M631.35,-280.44C668.17,-270.7 728.19,-254.81 766.62,-244.64"/>
<polygon fill="midnightblue" stroke="midnightblue" points="767.6,-248 776.38,-242.05 765.81,-241.23 767.6,-248"/>
</g>
<!-- Node19&#45;&gt;Node15 -->
<g id="edge23" class="edge">
<title>Node19&#45;&gt;Node15</title>
<path fill="none" stroke="midnightblue" d="M296.9,-168.37C284.03,-150.22 253.96,-107.8 237.07,-83.99"/>
<polygon fill="midnightblue" stroke="midnightblue" points="239.76,-81.72 231.12,-75.59 234.05,-85.77 239.76,-81.72"/>
</g>
<!-- Node20&#45;&gt;Node10 -->
<g id="edge25" class="edge">
<title>Node20&#45;&gt;Node10</title>
<path fill="none" stroke="midnightblue" d="M545.27,-224.44C608.5,-214.83 711.05,-199.23 778.01,-189.04"/>
<polygon fill="midnightblue" stroke="midnightblue" points="778.68,-192.48 788.04,-187.52 777.62,-185.56 778.68,-192.48"/>
</g>
<!-- Node26&#45;&gt;Node15 -->
<g id="edge39" class="edge">
<title>Node26&#45;&gt;Node15</title>
<path fill="none" stroke="midnightblue" d="M102.48,-565.9C90.19,-556.84 71.79,-541.49 61.02,-524 45.25,-498.37 42.02,-489.1 42.02,-459 42.02,-459 42.02,-459 42.02,-177 42.02,-146.2 43.42,-132.91 66.02,-112 84.07,-95.31 107.85,-84.75 131.51,-78.08"/>
<polygon fill="midnightblue" stroke="midnightblue" points="132.46,-81.45 141.26,-75.55 130.7,-74.68 132.46,-81.45"/>
</g>
<!-- Node27 -->
<g id="node27" class="node">
<title>Node27</title>
<g id="a_node27"><a xlink:title=" ">
<polygon fill="white" stroke="#bfbfbf" points="70.02,-504.5 70.02,-523.5 160.02,-523.5 160.02,-504.5 70.02,-504.5"/>
<text text-anchor="middle" x="115.02" y="-511.5" font-family="Helvetica,sans-Serif" font-size="10.00">AH/STL/cstddef</text>
</a>
</g>
</g>
<!-- Node26&#45;&gt;Node27 -->
<g id="edge37" class="edge">
<title>Node26&#45;&gt;Node27</title>
<path fill="none" stroke="midnightblue" d="M115.02,-565.98C115.02,-557.58 115.02,-544.48 115.02,-533.66"/>
<polygon fill="midnightblue" stroke="midnightblue" points="118.52,-533.51 115.02,-523.51 111.52,-533.51 118.52,-533.51"/>
</g>
<!-- Node28 -->
<g id="node28" class="node">
<title>Node28</title>
<g id="a_node28"><a xlink:title=" ">
<polygon fill="white" stroke="#bfbfbf" points="178.52,-504.5 178.52,-523.5 257.52,-523.5 257.52,-504.5 178.52,-504.5"/>
<text text-anchor="middle" x="218.02" y="-511.5" font-family="Helvetica,sans-Serif" font-size="10.00">AH/STL/tuple</text>
</a>
</g>
</g>
<!-- Node26&#45;&gt;Node28 -->
<g id="edge38" class="edge">
<title>Node26&#45;&gt;Node28</title>
<path fill="none" stroke="midnightblue" d="M129.78,-565.98C146.68,-556.21 174.61,-540.08 194.51,-528.58"/>
<polygon fill="midnightblue" stroke="midnightblue" points="196.39,-531.54 203.29,-523.51 192.88,-525.48 196.39,-531.54"/>
</g>
<!-- Node30&#45;&gt;Node7 -->
<g id="edge50" class="edge">
<title>Node30&#45;&gt;Node7</title>
<path fill="none" stroke="midnightblue" d="M456.74,-504.44C517.44,-494.78 616.08,-479.06 680,-468.88"/>
<polygon fill="midnightblue" stroke="midnightblue" points="680.63,-472.32 689.95,-467.29 679.52,-465.41 680.63,-472.32"/>
</g>
<!-- Node30&#45;&gt;Node16 -->
<g id="edge51" class="edge">
<title>Node30&#45;&gt;Node16</title>
<path fill="none" stroke="midnightblue" d="M480.47,-504.46C528.25,-497.74 590.27,-486.36 643.02,-468 661.05,-461.73 664,-456.62 681.02,-448 799.09,-388.23 934.02,-423.34 934.02,-291 934.02,-291 934.02,-291 934.02,-233 934.02,-200.49 942.18,-163.35 947.81,-141.61"/>
<polygon fill="midnightblue" stroke="midnightblue" points="951.24,-142.32 950.46,-131.75 944.48,-140.5 951.24,-142.32"/>
</g>
<!-- Node30&#45;&gt;Node17 -->
<g id="edge53" class="edge">
<title>Node30&#45;&gt;Node17</title>
<path fill="none" stroke="midnightblue" d="M402,-504.2C399.94,-483.83 396.6,-432.11 410.02,-392 413.48,-381.67 419.97,-371.46 426.03,-363.38"/>
<polygon fill="midnightblue" stroke="midnightblue" points="428.77,-365.55 432.27,-355.55 423.3,-361.19 428.77,-365.55"/>
</g>
<!-- Node30&#45;&gt;Node22 -->
<g id="edge54" class="edge">
<title>Node30&#45;&gt;Node22</title>
<path fill="none" stroke="midnightblue" d="M398.43,-504.38C377.71,-465.46 292.72,-305.81 264.32,-252.45"/>
<polygon fill="midnightblue" stroke="midnightblue" points="267.35,-250.71 259.56,-243.52 261.17,-254 267.35,-250.71"/>
</g>
<!-- Node31 -->
<g id="node31" class="node">
<title>Node31</title>
<g id="a_node31"><a xlink:href="../../d4/dba/CRTP_8hpp.html" target="_top" xlink:title=" ">
<polygon fill="white" stroke="black" points="210.02,-448.5 210.02,-467.5 344.02,-467.5 344.02,-448.5 210.02,-448.5"/>
<text text-anchor="middle" x="277.02" y="-455.5" font-family="Helvetica,sans-Serif" font-size="10.00">AH/Containers/CRTP.hpp</text>
</a>
</g>
</g>
<!-- Node30&#45;&gt;Node31 -->
<g id="edge44" class="edge">
<title>Node30&#45;&gt;Node31</title>
<path fill="none" stroke="midnightblue" d="M383.06,-504.44C362.41,-495.6 329.96,-481.69 306.39,-471.59"/>
<polygon fill="midnightblue" stroke="midnightblue" points="307.47,-468.24 296.9,-467.52 304.71,-474.67 307.47,-468.24"/>
</g>
<!-- Node32 -->
<g id="node32" class="node">
<title>Node32</title>
<g id="a_node32"><a xlink:href="../../de/dd1/LinkedList_8hpp.html" target="_top" xlink:title=" ">
<polygon fill="white" stroke="black" points="475.52,-448.5 475.52,-467.5 634.52,-467.5 634.52,-448.5 475.52,-448.5"/>
<text text-anchor="middle" x="555.02" y="-455.5" font-family="Helvetica,sans-Serif" font-size="10.00">AH/Containers/LinkedList.hpp</text>
</a>
</g>
</g>
<!-- Node30&#45;&gt;Node32 -->
<g id="edge45" class="edge">
<title>Node30&#45;&gt;Node32</title>
<path fill="none" stroke="midnightblue" d="M427.11,-504.44C452.57,-495.4 492.92,-481.06 521.48,-470.92"/>
<polygon fill="midnightblue" stroke="midnightblue" points="522.8,-474.16 531.05,-467.52 520.46,-467.57 522.8,-474.16"/>
</g>
<!-- Node34 -->
<g id="node34" class="node">
<title>Node34</title>
<g id="a_node34"><a xlink:title=" ">
<polygon fill="white" stroke="#bfbfbf" points="108.52,-448.5 108.52,-467.5 191.52,-467.5 191.52,-448.5 108.52,-448.5"/>
<text text-anchor="middle" x="150.02" y="-455.5" font-family="Helvetica,sans-Serif" font-size="10.00">AH/STL/utility</text>
</a>
</g>
</g>
<!-- Node30&#45;&gt;Node34 -->
<g id="edge52" class="edge">
<title>Node30&#45;&gt;Node34</title>
<path fill="none" stroke="midnightblue" d="M362.94,-504.44C318.71,-495 247.49,-479.8 199.74,-469.61"/>
<polygon fill="midnightblue" stroke="midnightblue" points="200.44,-466.18 189.92,-467.52 198.97,-473.03 200.44,-466.18"/>
</g>
<!-- Node32&#45;&gt;Node8 -->
<g id="edge46" class="edge">
<title>Node32&#45;&gt;Node8</title>
<path fill="none" stroke="midnightblue" d="M571.73,-448.32C588.34,-439.7 614.03,-426.36 633.24,-416.39"/>
<polygon fill="midnightblue" stroke="midnightblue" points="635.09,-419.37 642.36,-411.65 631.87,-413.16 635.09,-419.37"/>
</g>
<!-- Node32&#45;&gt;Node11 -->
<g id="edge47" class="edge">
<title>Node32&#45;&gt;Node11</title>
<path fill="none" stroke="midnightblue" d="M634.73,-448.73C666.03,-442.45 700.88,-431.4 728.02,-412 800.82,-359.95 813.27,-329.71 839.02,-244 841.58,-235.49 843.56,-231.64 839.02,-224 821.97,-195.27 796.3,-211.97 773.02,-188 760.1,-174.69 751.15,-155.3 745.87,-141.17"/>
<polygon fill="midnightblue" stroke="midnightblue" points="749.12,-139.87 742.54,-131.57 742.51,-142.16 749.12,-139.87"/>
</g>
<!-- Node32&#45;&gt;Node25 -->
<g id="edge49" class="edge">
<title>Node32&#45;&gt;Node25</title>
<path fill="none" stroke="midnightblue" d="M540.4,-448.32C526.07,-439.82 504.01,-426.73 487.28,-416.8"/>
<polygon fill="midnightblue" stroke="midnightblue" points="488.99,-413.75 478.61,-411.65 485.42,-419.77 488.99,-413.75"/>
</g>
<!-- Node33 -->
<g id="node33" class="node">
<title>Node33</title>
<g id="a_node33"><a xlink:title=" ">
<polygon fill="white" stroke="#bfbfbf" points="527.52,-392.5 527.52,-411.5 580.52,-411.5 580.52,-392.5 527.52,-392.5"/>
<text text-anchor="middle" x="554.02" y="-399.5" font-family="Helvetica,sans-Serif" font-size="10.00">stdlib.h</text>
</a>
</g>
</g>
<!-- Node32&#45;&gt;Node33 -->
<g id="edge48" class="edge">
<title>Node32&#45;&gt;Node33</title>
<path fill="none" stroke="midnightblue" d="M554.86,-448.08C554.73,-441.01 554.54,-430.86 554.38,-421.99"/>
<polygon fill="midnightblue" stroke="midnightblue" points="557.87,-421.68 554.19,-411.75 550.87,-421.81 557.87,-421.68"/>
</g>
</g>
</svg>
