<?xml version="1.0" encoding="UTF-8" standalone="no"?>
<!DOCTYPE svg PUBLIC "-//W3C//DTD SVG 1.1//EN"
 "http://www.w3.org/Graphics/SVG/1.1/DTD/svg11.dtd">
<!-- Generated by graphviz version 2.43.0 (0)
 -->
<!-- Title: ButtonMatrix.ipp Pages: 1 -->
<svg width="1378pt" height="789pt"
 viewBox="0.00 0.00 1378.00 789.00" xmlns="http://www.w3.org/2000/svg" xmlns:xlink="http://www.w3.org/1999/xlink">
<g id="graph0" class="graph" transform="scale(1 1) rotate(0) translate(4 785)">
<title>ButtonMatrix.ipp</title>
<polygon fill="white" stroke="transparent" points="-4,4 -4,-785 1374,-785 1374,4 -4,4"/>
<!-- Node1 -->
<g id="node1" class="node">
<title>Node1</title>
<g id="a_node1"><a xlink:title=" ">
<polygon fill="#bfbfbf" stroke="black" points="695.5,-761.5 695.5,-780.5 793.5,-780.5 793.5,-761.5 695.5,-761.5"/>
<text text-anchor="middle" x="744.5" y="-768.5" font-family="Helvetica,sans-Serif" font-size="10.00">ButtonMatrix.ipp</text>
</a>
</g>
</g>
<!-- Node2 -->
<g id="node2" class="node">
<title>Node2</title>
<g id="a_node2"><a xlink:href="../../d9/d4b/ButtonMatrix_8hpp.html" target="_top" xlink:title=" ">
<polygon fill="white" stroke="black" points="0,-633 0,-652 101,-652 101,-633 0,-633"/>
<text text-anchor="middle" x="50.5" y="-640" font-family="Helvetica,sans-Serif" font-size="10.00">ButtonMatrix.hpp</text>
</a>
</g>
</g>
<!-- Node1&#45;&gt;Node2 -->
<g id="edge1" class="edge">
<title>Node1&#45;&gt;Node2</title>
<path fill="none" stroke="midnightblue" d="M695.1,-762.72C587.53,-745.77 324.83,-701.77 106.5,-658 100.69,-656.84 94.6,-655.56 88.65,-654.25"/>
<polygon fill="midnightblue" stroke="midnightblue" points="89.36,-650.83 78.84,-652.06 87.83,-657.66 89.36,-650.83"/>
</g>
<!-- Node25 -->
<g id="node25" class="node">
<title>Node25</title>
<g id="a_node25"><a xlink:href="../../d4/dba/CRTP_8hpp.html" target="_top" xlink:title=" ">
<polygon fill="white" stroke="black" points="851.5,-700 851.5,-719 985.5,-719 985.5,-700 851.5,-700"/>
<text text-anchor="middle" x="918.5" y="-707" font-family="Helvetica,sans-Serif" font-size="10.00">AH/Containers/CRTP.hpp</text>
</a>
</g>
</g>
<!-- Node1&#45;&gt;Node25 -->
<g id="edge46" class="edge">
<title>Node1&#45;&gt;Node25</title>
<path fill="none" stroke="midnightblue" d="M769.43,-761.48C799.54,-751.18 850.33,-733.81 884.14,-722.25"/>
<polygon fill="midnightblue" stroke="midnightblue" points="885.29,-725.56 893.62,-719.01 883.02,-718.93 885.29,-725.56"/>
</g>
<!-- Node26 -->
<g id="node26" class="node">
<title>Node26</title>
<g id="a_node26"><a xlink:href="../../dd/ddf/ExtendedInputOutput_8hpp.html" target="_top" xlink:title=" ">
<polygon fill="white" stroke="black" points="656,-694.5 656,-724.5 833,-724.5 833,-694.5 656,-694.5"/>
<text text-anchor="start" x="664" y="-712.5" font-family="Helvetica,sans-Serif" font-size="10.00">AH/Hardware/ExtendedInput</text>
<text text-anchor="middle" x="744.5" y="-701.5" font-family="Helvetica,sans-Serif" font-size="10.00">Output/ExtendedInputOutput.hpp</text>
</a>
</g>
</g>
<!-- Node1&#45;&gt;Node26 -->
<g id="edge47" class="edge">
<title>Node1&#45;&gt;Node26</title>
<path fill="none" stroke="midnightblue" d="M744.5,-761.48C744.5,-754.47 744.5,-744.19 744.5,-734.7"/>
<polygon fill="midnightblue" stroke="midnightblue" points="748,-734.52 744.5,-724.52 741,-734.52 748,-734.52"/>
</g>
<!-- Node32 -->
<g id="node32" class="node">
<title>Node32</title>
<g id="a_node32"><a xlink:title=" ">
<polygon fill="white" stroke="#bfbfbf" points="1004,-700 1004,-719 1057,-719 1057,-700 1004,-700"/>
<text text-anchor="middle" x="1030.5" y="-707" font-family="Helvetica,sans-Serif" font-size="10.00">string.h</text>
</a>
</g>
</g>
<!-- Node1&#45;&gt;Node32 -->
<g id="edge60" class="edge">
<title>Node1&#45;&gt;Node32</title>
<path fill="none" stroke="midnightblue" d="M793.57,-764.19C844.48,-757.47 926.06,-744.72 994.5,-725 996.94,-724.3 999.43,-723.49 1001.92,-722.62"/>
<polygon fill="midnightblue" stroke="midnightblue" points="1003.21,-725.88 1011.32,-719.07 1000.73,-719.33 1003.21,-725.88"/>
</g>
<!-- Node2&#45;&gt;Node1 -->
<g id="edge45" class="edge">
<title>Node2&#45;&gt;Node1</title>
<path fill="none" stroke="midnightblue" d="M96.29,-652.06C105.68,-654.08 115.43,-656.18 124.5,-658 331,-699.4 577.2,-741 686.94,-759.73"/>
<polygon fill="midnightblue" stroke="midnightblue" points="686.68,-763.24 697.13,-761.47 687.86,-756.34 686.68,-763.24"/>
</g>
<!-- Node3 -->
<g id="node3" class="node">
<title>Node3</title>
<g id="a_node3"><a xlink:href="../../d1/d65/Warnings_8hpp.html" target="_top" xlink:title=" ">
<polygon fill="white" stroke="black" points="295,-0.5 295,-19.5 438,-19.5 438,-0.5 295,-0.5"/>
<text text-anchor="middle" x="366.5" y="-7.5" font-family="Helvetica,sans-Serif" font-size="10.00">AH/Settings/Warnings.hpp</text>
</a>
</g>
</g>
<!-- Node2&#45;&gt;Node3 -->
<g id="edge2" class="edge">
<title>Node2&#45;&gt;Node3</title>
<path fill="none" stroke="midnightblue" d="M50.5,-632.91C50.5,-612.48 50.5,-559.36 50.5,-515 50.5,-515 50.5,-515 50.5,-121 50.5,-90.2 50.65,-75.48 74.5,-56 105.85,-30.39 209.53,-19.25 284.44,-14.48"/>
<polygon fill="midnightblue" stroke="midnightblue" points="285.04,-17.95 294.81,-13.85 284.61,-10.96 285.04,-17.95"/>
</g>
<!-- Node4 -->
<g id="node4" class="node">
<title>Node4</title>
<g id="a_node4"><a xlink:href="../../d4/d35/Hardware-Types_8hpp.html" target="_top" xlink:title=" ">
<polygon fill="white" stroke="black" points="270,-560.5 270,-590.5 401,-590.5 401,-560.5 270,-560.5"/>
<text text-anchor="start" x="278" y="-578.5" font-family="Helvetica,sans-Serif" font-size="10.00">AH/Hardware/Hardware</text>
<text text-anchor="middle" x="335.5" y="-567.5" font-family="Helvetica,sans-Serif" font-size="10.00">&#45;Types.hpp</text>
</a>
</g>
</g>
<!-- Node2&#45;&gt;Node4 -->
<g id="edge3" class="edge">
<title>Node2&#45;&gt;Node4</title>
<path fill="none" stroke="midnightblue" d="M88.05,-632.94C132.68,-622.76 208.13,-605.55 264.01,-592.8"/>
<polygon fill="midnightblue" stroke="midnightblue" points="264.88,-596.2 273.86,-590.56 263.33,-589.37 264.88,-596.2"/>
</g>
<!-- Node4&#45;&gt;Node3 -->
<g id="edge4" class="edge">
<title>Node4&#45;&gt;Node3</title>
<path fill="none" stroke="midnightblue" d="M269.94,-566.05C208.65,-554.04 126.5,-525.54 126.5,-459 126.5,-459 126.5,-459 126.5,-121 126.5,-49.68 215.16,-24.42 284.71,-15.58"/>
<polygon fill="midnightblue" stroke="midnightblue" points="285.29,-19.03 294.82,-14.39 284.48,-12.08 285.29,-19.03"/>
</g>
<!-- Node5 -->
<g id="node5" class="node">
<title>Node5</title>
<g id="a_node5"><a xlink:href="../../de/d76/Array_8hpp.html" target="_top" xlink:title=" ">
<polygon fill="white" stroke="black" points="331,-504.5 331,-523.5 466,-523.5 466,-504.5 331,-504.5"/>
<text text-anchor="middle" x="398.5" y="-511.5" font-family="Helvetica,sans-Serif" font-size="10.00">AH/Containers/Array.hpp</text>
</a>
</g>
</g>
<!-- Node4&#45;&gt;Node5 -->
<g id="edge5" class="edge">
<title>Node4&#45;&gt;Node5</title>
<path fill="none" stroke="midnightblue" d="M350.43,-560.4C359.87,-551.49 372.08,-539.95 381.83,-530.74"/>
<polygon fill="midnightblue" stroke="midnightblue" points="384.47,-533.07 389.33,-523.66 379.66,-527.98 384.47,-533.07"/>
</g>
<!-- Node8 -->
<g id="node8" class="node">
<title>Node8</title>
<g id="a_node8"><a xlink:href="../../dd/d80/PrintStream_8hpp.html" target="_top" xlink:title=" ">
<polygon fill="white" stroke="black" points="814,-224.5 814,-243.5 987,-243.5 987,-224.5 814,-224.5"/>
<text text-anchor="middle" x="900.5" y="-231.5" font-family="Helvetica,sans-Serif" font-size="10.00">AH/PrintStream/PrintStream.hpp</text>
</a>
</g>
</g>
<!-- Node4&#45;&gt;Node8 -->
<g id="edge41" class="edge">
<title>Node4&#45;&gt;Node8</title>
<path fill="none" stroke="midnightblue" d="M401.14,-574.74C550.02,-573.52 900.5,-559.93 900.5,-459 900.5,-459 900.5,-459 900.5,-345 900.5,-312.95 900.5,-275.64 900.5,-253.75"/>
<polygon fill="midnightblue" stroke="midnightblue" points="904,-253.56 900.5,-243.56 897,-253.56 904,-253.56"/>
</g>
<!-- Node9 -->
<g id="node9" class="node">
<title>Node9</title>
<g id="a_node9"><a xlink:href="../../dc/dc7/NamespaceSettings_8hpp.html" target="_top" xlink:title=" ">
<polygon fill="white" stroke="black" points="616,-56.5 616,-75.5 811,-75.5 811,-56.5 616,-56.5"/>
<text text-anchor="middle" x="713.5" y="-63.5" font-family="Helvetica,sans-Serif" font-size="10.00">AH/Settings/NamespaceSettings.hpp</text>
</a>
</g>
</g>
<!-- Node4&#45;&gt;Node9 -->
<g id="edge43" class="edge">
<title>Node4&#45;&gt;Node9</title>
<path fill="none" stroke="midnightblue" d="M401.3,-564.17C427.32,-556.96 455.5,-544.72 474.5,-524 491.91,-505.01 486.14,-493.55 489.5,-468 490.66,-459.19 493.55,-455.91 489.5,-448 477.02,-423.63 458.83,-431.4 439.5,-412 374.74,-346.99 347.5,-331.38 319.5,-244 301.78,-188.7 351.12,-131.69 379.5,-112 415.3,-87.16 522.51,-76 605.91,-71"/>
<polygon fill="midnightblue" stroke="midnightblue" points="606.17,-74.49 615.95,-70.42 605.77,-67.5 606.17,-74.49"/>
</g>
<!-- Node21 -->
<g id="node21" class="node">
<title>Node21</title>
<g id="a_node21"><a xlink:title=" ">
<polygon fill="white" stroke="#bfbfbf" points="345,-224.5 345,-243.5 398,-243.5 398,-224.5 345,-224.5"/>
<text text-anchor="middle" x="371.5" y="-231.5" font-family="Helvetica,sans-Serif" font-size="10.00">stdint.h</text>
</a>
</g>
</g>
<!-- Node4&#45;&gt;Node21 -->
<g id="edge44" class="edge">
<title>Node4&#45;&gt;Node21</title>
<path fill="none" stroke="midnightblue" d="M279.22,-560.48C258.55,-552.78 236.54,-541.18 221.5,-524 201.67,-501.35 202.5,-489.1 202.5,-459 202.5,-459 202.5,-459 202.5,-345 202.5,-282.41 284.93,-253.59 334.65,-241.9"/>
<polygon fill="midnightblue" stroke="midnightblue" points="335.72,-245.25 344.72,-239.66 334.2,-238.42 335.72,-245.25"/>
</g>
<!-- Node24 -->
<g id="node24" class="node">
<title>Node24</title>
<g id="a_node24"><a xlink:title=" ">
<polygon fill="white" stroke="#bfbfbf" points="230.5,-504.5 230.5,-523.5 312.5,-523.5 312.5,-504.5 230.5,-504.5"/>
<text text-anchor="middle" x="271.5" y="-511.5" font-family="Helvetica,sans-Serif" font-size="10.00">AH/STL/limits</text>
</a>
</g>
</g>
<!-- Node4&#45;&gt;Node24 -->
<g id="edge42" class="edge">
<title>Node4&#45;&gt;Node24</title>
<path fill="none" stroke="midnightblue" d="M320.33,-560.4C310.75,-551.49 298.34,-539.95 288.43,-530.74"/>
<polygon fill="midnightblue" stroke="midnightblue" points="290.52,-527.9 280.81,-523.66 285.75,-533.03 290.52,-527.9"/>
</g>
<!-- Node5&#45;&gt;Node3 -->
<g id="edge6" class="edge">
<title>Node5&#45;&gt;Node3</title>
<path fill="none" stroke="midnightblue" d="M350.13,-504.45C318.28,-497.54 276.36,-485.97 242.5,-468 202.64,-446.85 164.5,-448.13 164.5,-403 164.5,-403 164.5,-403 164.5,-121 164.5,-61.86 232.11,-34.33 289.1,-21.63"/>
<polygon fill="midnightblue" stroke="midnightblue" points="290.17,-24.98 299.24,-19.5 288.73,-18.13 290.17,-24.98"/>
</g>
<!-- Node6 -->
<g id="node6" class="node">
<title>Node6</title>
<g id="a_node6"><a xlink:href="../../d1/d93/Error_8hpp.html" target="_top" xlink:title=" ">
<polygon fill="white" stroke="black" points="268.5,-448.5 268.5,-467.5 372.5,-467.5 372.5,-448.5 268.5,-448.5"/>
<text text-anchor="middle" x="320.5" y="-455.5" font-family="Helvetica,sans-Serif" font-size="10.00">AH/Error/Error.hpp</text>
</a>
</g>
</g>
<!-- Node5&#45;&gt;Node6 -->
<g id="edge7" class="edge">
<title>Node5&#45;&gt;Node6</title>
<path fill="none" stroke="midnightblue" d="M385.97,-504.32C373.91,-495.98 355.47,-483.21 341.23,-473.35"/>
<polygon fill="midnightblue" stroke="midnightblue" points="343.22,-470.47 333,-467.65 339.23,-476.22 343.22,-470.47"/>
</g>
<!-- Node14 -->
<g id="node14" class="node">
<title>Node14</title>
<g id="a_node14"><a xlink:title=" ">
<polygon fill="white" stroke="#bfbfbf" points="956,-112.5 956,-131.5 1063,-131.5 1063,-112.5 956,-112.5"/>
<text text-anchor="middle" x="1009.5" y="-119.5" font-family="Helvetica,sans-Serif" font-size="10.00">AH/STL/type_traits</text>
</a>
</g>
</g>
<!-- Node5&#45;&gt;Node14 -->
<g id="edge39" class="edge">
<title>Node5&#45;&gt;Node14</title>
<path fill="none" stroke="midnightblue" d="M465.88,-504.46C593.12,-484.43 867.49,-421.85 996.5,-244 1018.45,-213.75 1016.27,-167.52 1012.83,-141.85"/>
<polygon fill="midnightblue" stroke="midnightblue" points="1016.23,-140.97 1011.24,-131.63 1009.32,-142.05 1016.23,-140.97"/>
</g>
<!-- Node20 -->
<g id="node20" class="node">
<title>Node20</title>
<g id="a_node20"><a xlink:title=" ">
<polygon fill="white" stroke="#bfbfbf" points="416.5,-224.5 416.5,-243.5 472.5,-243.5 472.5,-224.5 416.5,-224.5"/>
<text text-anchor="middle" x="444.5" y="-231.5" font-family="Helvetica,sans-Serif" font-size="10.00">stddef.h</text>
</a>
</g>
</g>
<!-- Node5&#45;&gt;Node20 -->
<g id="edge40" class="edge">
<title>Node5&#45;&gt;Node20</title>
<path fill="none" stroke="midnightblue" d="M330.91,-504.71C305.54,-498.42 278.33,-487.37 259.5,-468 238.53,-446.41 240.5,-433.1 240.5,-403 240.5,-403 240.5,-403 240.5,-345 240.5,-307.53 348.45,-266.37 407.3,-246.71"/>
<polygon fill="midnightblue" stroke="midnightblue" points="408.58,-249.97 416.99,-243.52 406.39,-243.32 408.58,-249.97"/>
</g>
<!-- Node23 -->
<g id="node23" class="node">
<title>Node23</title>
<g id="a_node23"><a xlink:title=" ">
<polygon fill="white" stroke="#bfbfbf" points="390.5,-448.5 390.5,-467.5 480.5,-467.5 480.5,-448.5 390.5,-448.5"/>
<text text-anchor="middle" x="435.5" y="-455.5" font-family="Helvetica,sans-Serif" font-size="10.00">AH/STL/iterator</text>
</a>
</g>
</g>
<!-- Node5&#45;&gt;Node23 -->
<g id="edge38" class="edge">
<title>Node5&#45;&gt;Node23</title>
<path fill="none" stroke="midnightblue" d="M404.61,-504.08C409.78,-496.53 417.35,-485.49 423.69,-476.23"/>
<polygon fill="midnightblue" stroke="midnightblue" points="426.74,-477.98 429.5,-467.75 420.96,-474.02 426.74,-477.98"/>
</g>
<!-- Node6&#45;&gt;Node3 -->
<g id="edge8" class="edge">
<title>Node6&#45;&gt;Node3</title>
<path fill="none" stroke="midnightblue" d="M315.78,-448.33C294.66,-408.26 212.06,-237.73 264.5,-112 280.48,-73.69 318.84,-42.48 343.69,-25.35"/>
<polygon fill="midnightblue" stroke="midnightblue" points="345.8,-28.15 352.17,-19.68 341.91,-22.33 345.8,-28.15"/>
</g>
<!-- Node7 -->
<g id="node7" class="node">
<title>Node7</title>
<g id="a_node7"><a xlink:href="../../df/dee/Debug_8hpp.html" target="_top" xlink:title=" ">
<polygon fill="white" stroke="black" points="449,-392.5 449,-411.5 570,-411.5 570,-392.5 449,-392.5"/>
<text text-anchor="middle" x="509.5" y="-399.5" font-family="Helvetica,sans-Serif" font-size="10.00">AH/Debug/Debug.hpp</text>
</a>
</g>
</g>
<!-- Node6&#45;&gt;Node7 -->
<g id="edge9" class="edge">
<title>Node6&#45;&gt;Node7</title>
<path fill="none" stroke="midnightblue" d="M350.45,-448.44C382.66,-439.24 434.03,-424.56 469.64,-414.39"/>
<polygon fill="midnightblue" stroke="midnightblue" points="471.04,-417.63 479.69,-411.52 469.12,-410.9 471.04,-417.63"/>
</g>
<!-- Node7&#45;&gt;Node3 -->
<g id="edge10" class="edge">
<title>Node7&#45;&gt;Node3</title>
<path fill="none" stroke="midnightblue" d="M483.32,-392.43C462.59,-384.86 433.55,-372.46 411.5,-356 331.99,-296.65 299.4,-280.88 264.5,-188 252.62,-156.38 251.5,-143.17 264.5,-112 280.48,-73.69 318.84,-42.48 343.69,-25.35"/>
<polygon fill="midnightblue" stroke="midnightblue" points="345.8,-28.15 352.17,-19.68 341.91,-22.33 345.8,-28.15"/>
</g>
<!-- Node7&#45;&gt;Node8 -->
<g id="edge11" class="edge">
<title>Node7&#45;&gt;Node8</title>
<path fill="none" stroke="midnightblue" d="M541.81,-392.46C596.45,-377.44 709.88,-343.68 799.5,-300 829.41,-285.42 861.27,-263.77 881.03,-249.52"/>
<polygon fill="midnightblue" stroke="midnightblue" points="883.2,-252.27 889.21,-243.54 879.07,-246.62 883.2,-252.27"/>
</g>
<!-- Node15 -->
<g id="node15" class="node">
<title>Node15</title>
<g id="a_node15"><a xlink:href="../../d2/dd5/SettingsWrapper_8hpp.html" target="_top" xlink:title=" ">
<polygon fill="white" stroke="black" points="420.5,-336.5 420.5,-355.5 598.5,-355.5 598.5,-336.5 420.5,-336.5"/>
<text text-anchor="middle" x="509.5" y="-343.5" font-family="Helvetica,sans-Serif" font-size="10.00">AH/Settings/SettingsWrapper.hpp</text>
</a>
</g>
</g>
<!-- Node7&#45;&gt;Node15 -->
<g id="edge23" class="edge">
<title>Node7&#45;&gt;Node15</title>
<path fill="none" stroke="midnightblue" d="M504.33,-392.08C502.82,-384.93 502.39,-374.64 503.04,-365.69"/>
<polygon fill="midnightblue" stroke="midnightblue" points="506.52,-366.13 504.37,-355.75 499.58,-365.2 506.52,-366.13"/>
</g>
<!-- Node8&#45;&gt;Node3 -->
<g id="edge13" class="edge">
<title>Node8&#45;&gt;Node3</title>
<path fill="none" stroke="midnightblue" d="M880.06,-224.48C800.79,-191.45 516.11,-72.84 475.5,-56 448.93,-44.98 418.7,-32.51 396.82,-23.49"/>
<polygon fill="midnightblue" stroke="midnightblue" points="397.98,-20.18 387.4,-19.61 395.32,-26.65 397.98,-20.18"/>
</g>
<!-- Node8&#45;&gt;Node9 -->
<g id="edge12" class="edge">
<title>Node8&#45;&gt;Node9</title>
<path fill="none" stroke="midnightblue" d="M883.56,-224.26C854.54,-208.69 794.59,-173.83 754.5,-132 740.98,-117.89 729.51,-98.65 722.17,-84.77"/>
<polygon fill="midnightblue" stroke="midnightblue" points="725.24,-83.08 717.59,-75.76 719,-86.26 725.24,-83.08"/>
</g>
<!-- Node10 -->
<g id="node10" class="node">
<title>Node10</title>
<g id="a_node10"><a xlink:href="../../d6/ddf/Arduino-Wrapper_8h.html" target="_top" xlink:title=" ">
<polygon fill="white" stroke="black" points="851.5,-168.5 851.5,-187.5 975.5,-187.5 975.5,-168.5 851.5,-168.5"/>
<text text-anchor="middle" x="913.5" y="-175.5" font-family="Helvetica,sans-Serif" font-size="10.00">AH/Arduino&#45;Wrapper.h</text>
</a>
</g>
</g>
<!-- Node8&#45;&gt;Node10 -->
<g id="edge14" class="edge">
<title>Node8&#45;&gt;Node10</title>
<path fill="none" stroke="midnightblue" d="M902.65,-224.08C904.37,-216.93 906.85,-206.64 909,-197.69"/>
<polygon fill="midnightblue" stroke="midnightblue" points="912.46,-198.29 911.39,-187.75 905.65,-196.65 912.46,-198.29"/>
</g>
<!-- Node11 -->
<g id="node11" class="node">
<title>Node11</title>
<g id="a_node11"><a xlink:href="../../d7/d79/MinMaxFix_8hpp.html" target="_top" xlink:title=" ">
<polygon fill="white" stroke="black" points="763.5,-112.5 763.5,-131.5 899.5,-131.5 899.5,-112.5 763.5,-112.5"/>
<text text-anchor="middle" x="831.5" y="-119.5" font-family="Helvetica,sans-Serif" font-size="10.00">AH/Math/MinMaxFix.hpp</text>
</a>
</g>
</g>
<!-- Node10&#45;&gt;Node11 -->
<g id="edge15" class="edge">
<title>Node10&#45;&gt;Node11</title>
<path fill="none" stroke="midnightblue" d="M900.33,-168.32C887.65,-159.98 868.27,-147.21 853.29,-137.35"/>
<polygon fill="midnightblue" stroke="midnightblue" points="854.92,-134.23 844.64,-131.65 851.07,-140.08 854.92,-134.23"/>
</g>
<!-- Node13 -->
<g id="node13" class="node">
<title>Node13</title>
<g id="a_node13"><a xlink:title=" ">
<polygon fill="white" stroke="#bfbfbf" points="1052,-0.5 1052,-19.5 1115,-19.5 1115,-0.5 1052,-0.5"/>
<text text-anchor="middle" x="1083.5" y="-7.5" font-family="Helvetica,sans-Serif" font-size="10.00">Arduino.h</text>
</a>
</g>
</g>
<!-- Node10&#45;&gt;Node13 -->
<g id="edge22" class="edge">
<title>Node10&#45;&gt;Node13</title>
<path fill="none" stroke="midnightblue" d="M915.49,-168.28C919.21,-154.12 928.59,-126.27 947.5,-112 1010.54,-64.43 1071.64,-137.24 1121.5,-76 1134.29,-60.29 1117.67,-39.78 1102.56,-26.04"/>
<polygon fill="midnightblue" stroke="midnightblue" points="1104.83,-23.37 1094.96,-19.53 1100.28,-28.69 1104.83,-23.37"/>
</g>
<!-- Node10&#45;&gt;Node14 -->
<g id="edge21" class="edge">
<title>Node10&#45;&gt;Node14</title>
<path fill="none" stroke="midnightblue" d="M928.92,-168.32C944.04,-159.82 967.32,-146.73 984.97,-136.8"/>
<polygon fill="midnightblue" stroke="midnightblue" points="987.11,-139.61 994.11,-131.65 983.68,-133.51 987.11,-139.61"/>
</g>
<!-- Node11&#45;&gt;Node3 -->
<g id="edge16" class="edge">
<title>Node11&#45;&gt;Node3</title>
<path fill="none" stroke="midnightblue" d="M832.82,-112.32C834.43,-98.21 835.21,-70.45 819.5,-56 792.8,-31.44 571.42,-18.97 448.32,-13.87"/>
<polygon fill="midnightblue" stroke="midnightblue" points="448.31,-10.37 438.18,-13.46 448.03,-17.36 448.31,-10.37"/>
</g>
<!-- Node11&#45;&gt;Node9 -->
<g id="edge20" class="edge">
<title>Node11&#45;&gt;Node9</title>
<path fill="none" stroke="midnightblue" d="M812.8,-112.44C793.56,-103.64 763.35,-89.81 741.3,-79.72"/>
<polygon fill="midnightblue" stroke="midnightblue" points="742.66,-76.5 732.11,-75.52 739.75,-82.86 742.66,-76.5"/>
</g>
<!-- Node12 -->
<g id="node12" class="node">
<title>Node12</title>
<g id="a_node12"><a xlink:href="../../d6/d3b/FixArduinoMacros_8hpp.html" target="_top" xlink:title=" ">
<polygon fill="white" stroke="black" points="942.5,-56.5 942.5,-75.5 1112.5,-75.5 1112.5,-56.5 942.5,-56.5"/>
<text text-anchor="middle" x="1027.5" y="-63.5" font-family="Helvetica,sans-Serif" font-size="10.00">AH/Math/FixArduinoMacros.hpp</text>
</a>
</g>
</g>
<!-- Node11&#45;&gt;Node12 -->
<g id="edge17" class="edge">
<title>Node11&#45;&gt;Node12</title>
<path fill="none" stroke="midnightblue" d="M862.56,-112.44C896.1,-103.2 949.7,-88.44 986.64,-78.26"/>
<polygon fill="midnightblue" stroke="midnightblue" points="987.88,-81.55 996.59,-75.52 986.02,-74.8 987.88,-81.55"/>
</g>
<!-- Node12&#45;&gt;Node3 -->
<g id="edge18" class="edge">
<title>Node12&#45;&gt;Node3</title>
<path fill="none" stroke="midnightblue" d="M942.45,-57.21C937.73,-56.79 933.06,-56.39 928.5,-56 757.79,-41.41 557.79,-25.73 448.36,-17.28"/>
<polygon fill="midnightblue" stroke="midnightblue" points="448.62,-13.79 438.38,-16.51 448.08,-20.77 448.62,-13.79"/>
</g>
<!-- Node12&#45;&gt;Node13 -->
<g id="edge19" class="edge">
<title>Node12&#45;&gt;Node13</title>
<path fill="none" stroke="midnightblue" d="M1036.5,-56.32C1044.69,-48.42 1057.01,-36.55 1066.97,-26.94"/>
<polygon fill="midnightblue" stroke="midnightblue" points="1069.57,-29.29 1074.34,-19.83 1064.71,-24.26 1069.57,-29.29"/>
</g>
<!-- Node15&#45;&gt;Node3 -->
<g id="edge24" class="edge">
<title>Node15&#45;&gt;Node3</title>
<path fill="none" stroke="midnightblue" d="M482.21,-336.44C443.77,-322.99 374.06,-293.21 335.5,-244 316.94,-220.31 316.5,-209.1 316.5,-179 316.5,-179 316.5,-179 316.5,-121 316.5,-85.18 338.74,-48.21 353.55,-27.56"/>
<polygon fill="midnightblue" stroke="midnightblue" points="356.38,-29.63 359.55,-19.52 350.77,-25.45 356.38,-29.63"/>
</g>
<!-- Node15&#45;&gt;Node7 -->
<g id="edge37" class="edge">
<title>Node15&#45;&gt;Node7</title>
<path fill="none" stroke="midnightblue" d="M514.63,-355.75C516.16,-362.86 516.6,-373.14 515.97,-382.1"/>
<polygon fill="midnightblue" stroke="midnightblue" points="512.49,-381.71 514.67,-392.08 519.43,-382.62 512.49,-381.71"/>
</g>
<!-- Node15&#45;&gt;Node9 -->
<g id="edge25" class="edge">
<title>Node15&#45;&gt;Node9</title>
<path fill="none" stroke="midnightblue" d="M592.93,-336.49C648.72,-329.34 715.9,-317.46 738.5,-300 766.87,-278.08 771.21,-259.39 765.5,-224 764.93,-220.45 733.32,-126.05 719.67,-85.37"/>
<polygon fill="midnightblue" stroke="midnightblue" points="722.91,-84.01 716.41,-75.65 716.27,-86.24 722.91,-84.01"/>
</g>
<!-- Node16 -->
<g id="node16" class="node">
<title>Node16</title>
<g id="a_node16"><a xlink:href="../../db/d02/Settings_8hpp.html" target="_top" xlink:title="All user settings and debugging options can be changed here.">
<polygon fill="white" stroke="black" points="462,-280.5 462,-299.5 539,-299.5 539,-280.5 462,-280.5"/>
<text text-anchor="middle" x="500.5" y="-287.5" font-family="Helvetica,sans-Serif" font-size="10.00">Settings.hpp</text>
</a>
</g>
</g>
<!-- Node15&#45;&gt;Node16 -->
<g id="edge26" class="edge">
<title>Node15&#45;&gt;Node16</title>
<path fill="none" stroke="midnightblue" d="M508.01,-336.08C506.82,-328.93 505.11,-318.64 503.62,-309.69"/>
<polygon fill="midnightblue" stroke="midnightblue" points="507.05,-309.04 501.96,-299.75 500.15,-310.19 507.05,-309.04"/>
</g>
<!-- Node22 -->
<g id="node22" class="node">
<title>Node22</title>
<g id="a_node22"><a xlink:href="../../d9/d98/TeensyUSBTypes_8hpp.html" target="_top" xlink:title=" ">
<polygon fill="white" stroke="black" points="557,-280.5 557,-299.5 730,-299.5 730,-280.5 557,-280.5"/>
<text text-anchor="middle" x="643.5" y="-287.5" font-family="Helvetica,sans-Serif" font-size="10.00">AH/Teensy/TeensyUSBTypes.hpp</text>
</a>
</g>
</g>
<!-- Node15&#45;&gt;Node22 -->
<g id="edge36" class="edge">
<title>Node15&#45;&gt;Node22</title>
<path fill="none" stroke="midnightblue" d="M530.73,-336.44C552.88,-327.52 587.82,-313.44 612.94,-303.32"/>
<polygon fill="midnightblue" stroke="midnightblue" points="614.4,-306.5 622.37,-299.52 611.78,-300.01 614.4,-306.5"/>
</g>
<!-- Node17 -->
<g id="node17" class="node">
<title>Node17</title>
<g id="a_node17"><a xlink:href="../../dc/d50/Frequency_8hpp.html" target="_top" xlink:title=" ">
<polygon fill="white" stroke="black" points="388.5,-112.5 388.5,-131.5 522.5,-131.5 522.5,-112.5 388.5,-112.5"/>
<text text-anchor="middle" x="455.5" y="-119.5" font-family="Helvetica,sans-Serif" font-size="10.00">AH/Types/Frequency.hpp</text>
</a>
</g>
</g>
<!-- Node16&#45;&gt;Node17 -->
<g id="edge27" class="edge">
<title>Node16&#45;&gt;Node17</title>
<path fill="none" stroke="midnightblue" d="M498.08,-280.08C491,-253.95 470.2,-177.21 460.54,-141.58"/>
<polygon fill="midnightblue" stroke="midnightblue" points="463.82,-140.3 457.82,-131.57 457.06,-142.14 463.82,-140.3"/>
</g>
<!-- Node18 -->
<g id="node18" class="node">
<title>Node18</title>
<g id="a_node18"><a xlink:href="../../d7/d7c/ADCConfig_8hpp.html" target="_top" xlink:title="This file contains the platform&#45;specific ADC resolutions.">
<polygon fill="white" stroke="black" points="600,-224.5 600,-243.5 757,-243.5 757,-224.5 600,-224.5"/>
<text text-anchor="middle" x="678.5" y="-231.5" font-family="Helvetica,sans-Serif" font-size="10.00">AH/Hardware/ADCConfig.hpp</text>
</a>
</g>
</g>
<!-- Node16&#45;&gt;Node18 -->
<g id="edge30" class="edge">
<title>Node16&#45;&gt;Node18</title>
<path fill="none" stroke="midnightblue" d="M528.7,-280.44C558.91,-271.28 607.01,-256.69 640.53,-246.52"/>
<polygon fill="midnightblue" stroke="midnightblue" points="641.87,-249.77 650.43,-243.52 639.84,-243.07 641.87,-249.77"/>
</g>
<!-- Node19 -->
<g id="node19" class="node">
<title>Node19</title>
<g id="a_node19"><a xlink:title=" ">
<polygon fill="white" stroke="#bfbfbf" points="529,-224.5 529,-243.5 582,-243.5 582,-224.5 529,-224.5"/>
<text text-anchor="middle" x="555.5" y="-231.5" font-family="Helvetica,sans-Serif" font-size="10.00">limits.h</text>
</a>
</g>
</g>
<!-- Node16&#45;&gt;Node19 -->
<g id="edge33" class="edge">
<title>Node16&#45;&gt;Node19</title>
<path fill="none" stroke="midnightblue" d="M509.58,-280.08C517.67,-272.14 529.7,-260.34 539.41,-250.8"/>
<polygon fill="midnightblue" stroke="midnightblue" points="541.9,-253.25 546.59,-243.75 537,-248.26 541.9,-253.25"/>
</g>
<!-- Node16&#45;&gt;Node20 -->
<g id="edge34" class="edge">
<title>Node16&#45;&gt;Node20</title>
<path fill="none" stroke="midnightblue" d="M491.5,-280.32C483.31,-272.42 470.99,-260.55 461.03,-250.94"/>
<polygon fill="midnightblue" stroke="midnightblue" points="463.29,-248.26 453.66,-243.83 458.43,-253.29 463.29,-248.26"/>
</g>
<!-- Node16&#45;&gt;Node21 -->
<g id="edge35" class="edge">
<title>Node16&#45;&gt;Node21</title>
<path fill="none" stroke="midnightblue" d="M480.06,-280.44C458.83,-271.56 425.4,-257.56 401.25,-247.45"/>
<polygon fill="midnightblue" stroke="midnightblue" points="402.42,-244.15 391.84,-243.52 399.72,-250.61 402.42,-244.15"/>
</g>
<!-- Node17&#45;&gt;Node3 -->
<g id="edge28" class="edge">
<title>Node17&#45;&gt;Node3</title>
<path fill="none" stroke="midnightblue" d="M448.52,-112.37C433.76,-94.14 399.21,-51.43 379.99,-27.68"/>
<polygon fill="midnightblue" stroke="midnightblue" points="382.46,-25.16 373.45,-19.59 377.02,-29.57 382.46,-25.16"/>
</g>
<!-- Node17&#45;&gt;Node9 -->
<g id="edge29" class="edge">
<title>Node17&#45;&gt;Node9</title>
<path fill="none" stroke="midnightblue" d="M496.38,-112.44C541.48,-103 614.11,-87.8 662.8,-77.61"/>
<polygon fill="midnightblue" stroke="midnightblue" points="663.74,-80.99 672.81,-75.52 662.31,-74.14 663.74,-80.99"/>
</g>
<!-- Node18&#45;&gt;Node3 -->
<g id="edge31" class="edge">
<title>Node18&#45;&gt;Node3</title>
<path fill="none" stroke="midnightblue" d="M668.9,-224.29C645.97,-203.68 585.88,-150.74 531.5,-112 483.45,-77.77 423.65,-42.96 390.85,-24.48"/>
<polygon fill="midnightblue" stroke="midnightblue" points="392.4,-21.34 381.97,-19.51 388.98,-27.45 392.4,-21.34"/>
</g>
<!-- Node18&#45;&gt;Node10 -->
<g id="edge32" class="edge">
<title>Node18&#45;&gt;Node10</title>
<path fill="none" stroke="midnightblue" d="M715.74,-224.44C756.56,-215.06 822.14,-199.99 866.48,-189.8"/>
<polygon fill="midnightblue" stroke="midnightblue" points="867.48,-193.17 876.44,-187.52 865.91,-186.34 867.48,-193.17"/>
</g>
<!-- Node26&#45;&gt;Node3 -->
<g id="edge59" class="edge">
<title>Node26&#45;&gt;Node3</title>
<path fill="none" stroke="midnightblue" d="M658.74,-694.46C480.92,-662.91 88.5,-579.63 88.5,-459 88.5,-459 88.5,-459 88.5,-121 88.5,-84.28 108.21,-75.21 139.5,-56 182.95,-29.32 239.1,-18.04 284.69,-13.44"/>
<polygon fill="midnightblue" stroke="midnightblue" points="285.2,-16.91 294.84,-12.51 284.56,-9.94 285.2,-16.91"/>
</g>
<!-- Node26&#45;&gt;Node9 -->
<g id="edge58" class="edge">
<title>Node26&#45;&gt;Node9</title>
<path fill="none" stroke="midnightblue" d="M765.94,-694.46C841.6,-643.03 1091.5,-456.41 1091.5,-235 1091.5,-235 1091.5,-235 1091.5,-177 1091.5,-146.9 1095.41,-131.52 1072.5,-112 1053.52,-95.83 919.95,-82.41 821.26,-74.54"/>
<polygon fill="midnightblue" stroke="midnightblue" points="821.46,-71.05 811.22,-73.75 820.91,-78.03 821.46,-71.05"/>
</g>
<!-- Node27 -->
<g id="node27" class="node">
<title>Node27</title>
<g id="a_node27"><a xlink:href="../../d2/d3c/Arduino-Hardware-Types_8hpp.html" target="_top" xlink:title=" ">
<polygon fill="white" stroke="black" points="1068.5,-627.5 1068.5,-657.5 1190.5,-657.5 1190.5,-627.5 1068.5,-627.5"/>
<text text-anchor="start" x="1076.5" y="-645.5" font-family="Helvetica,sans-Serif" font-size="10.00">AH/Hardware/Arduino</text>
<text text-anchor="middle" x="1129.5" y="-634.5" font-family="Helvetica,sans-Serif" font-size="10.00">&#45;Hardware&#45;Types.hpp</text>
</a>
</g>
</g>
<!-- Node26&#45;&gt;Node27 -->
<g id="edge48" class="edge">
<title>Node26&#45;&gt;Node27</title>
<path fill="none" stroke="midnightblue" d="M833.28,-695.37C894.02,-686.12 976.62,-673.05 1058.47,-658.14"/>
<polygon fill="midnightblue" stroke="midnightblue" points="1059.24,-661.56 1068.45,-656.32 1057.98,-654.67 1059.24,-661.56"/>
</g>
<!-- Node31 -->
<g id="node31" class="node">
<title>Node31</title>
<g id="a_node31"><a xlink:title=" ">
<polygon fill="white" stroke="#bfbfbf" points="963,-633 963,-652 1050,-652 1050,-633 963,-633"/>
<text text-anchor="middle" x="1006.5" y="-640" font-family="Helvetica,sans-Serif" font-size="10.00">AH/STL/climits</text>
</a>
</g>
</g>
<!-- Node26&#45;&gt;Node31 -->
<g id="edge57" class="edge">
<title>Node26&#45;&gt;Node31</title>
<path fill="none" stroke="midnightblue" d="M801.23,-694.49C842.16,-684.38 898.75,-670.38 948.5,-658 953.1,-656.85 957.91,-655.66 962.71,-654.46"/>
<polygon fill="midnightblue" stroke="midnightblue" points="963.61,-657.84 972.46,-652.02 961.91,-651.05 963.61,-657.84"/>
</g>
<!-- Node27&#45;&gt;Node3 -->
<g id="edge49" class="edge">
<title>Node27&#45;&gt;Node3</title>
<path fill="none" stroke="midnightblue" d="M1129.5,-627.46C1129.5,-604.12 1129.5,-555.85 1129.5,-515 1129.5,-515 1129.5,-515 1129.5,-177 1129.5,-143.98 1120.37,-131.19 1093.5,-112 1018.94,-58.74 978.7,-100.85 890.5,-76 867.07,-69.4 863.18,-61.65 839.5,-56 704.8,-23.85 543.35,-14.51 448.16,-11.9"/>
<polygon fill="midnightblue" stroke="midnightblue" points="448.11,-8.39 438.03,-11.64 447.94,-15.39 448.11,-8.39"/>
</g>
<!-- Node27&#45;&gt;Node4 -->
<g id="edge50" class="edge">
<title>Node27&#45;&gt;Node4</title>
<path fill="none" stroke="midnightblue" d="M1068.12,-628.3C1065.21,-627.83 1062.33,-627.39 1059.5,-627 824.41,-594.6 543.35,-582.54 411.22,-578.43"/>
<polygon fill="midnightblue" stroke="midnightblue" points="411.3,-574.93 401.2,-578.12 411.08,-581.93 411.3,-574.93"/>
</g>
<!-- Node27&#45;&gt;Node10 -->
<g id="edge56" class="edge">
<title>Node27&#45;&gt;Node10</title>
<path fill="none" stroke="midnightblue" d="M1103.06,-627.4C1069.38,-607.31 1015.5,-567.03 1015.5,-515 1015.5,-515 1015.5,-515 1015.5,-289 1015.5,-258.9 1015.41,-247.42 996.5,-224 984.62,-209.29 966.6,-198.7 950.37,-191.5"/>
<polygon fill="midnightblue" stroke="midnightblue" points="951.67,-188.25 941.09,-187.65 948.99,-194.71 951.67,-188.25"/>
</g>
<!-- Node28 -->
<g id="node28" class="node">
<title>Node28</title>
<g id="a_node28"><a xlink:href="../../d0/db1/FunctionTraits_8hpp.html" target="_top" xlink:title=" ">
<polygon fill="white" stroke="black" points="1158,-112.5 1158,-131.5 1311,-131.5 1311,-112.5 1158,-112.5"/>
<text text-anchor="middle" x="1234.5" y="-119.5" font-family="Helvetica,sans-Serif" font-size="10.00">AH/Types/FunctionTraits.hpp</text>
</a>
</g>
</g>
<!-- Node27&#45;&gt;Node28 -->
<g id="edge51" class="edge">
<title>Node27&#45;&gt;Node28</title>
<path fill="none" stroke="midnightblue" d="M1143.87,-627.39C1164.61,-605.44 1200.5,-560.84 1200.5,-515 1200.5,-515 1200.5,-515 1200.5,-233 1200.5,-199.16 1215.37,-161.97 1225.44,-140.66"/>
<polygon fill="midnightblue" stroke="midnightblue" points="1228.64,-142.08 1229.91,-131.56 1222.36,-138.99 1228.64,-142.08"/>
</g>
<!-- Node28&#45;&gt;Node3 -->
<g id="edge54" class="edge">
<title>Node28&#45;&gt;Node3</title>
<path fill="none" stroke="midnightblue" d="M1161.21,-112.49C1086.17,-103.34 974.87,-88.43 933.5,-76 913.31,-69.94 910.87,-61.43 890.5,-56 809.41,-34.38 574.57,-20.61 448.62,-14.56"/>
<polygon fill="midnightblue" stroke="midnightblue" points="448.41,-11.04 438.26,-14.07 448.08,-18.04 448.41,-11.04"/>
</g>
<!-- Node28&#45;&gt;Node9 -->
<g id="edge55" class="edge">
<title>Node28&#45;&gt;Node9</title>
<path fill="none" stroke="midnightblue" d="M1157.9,-113.06C1064.25,-103.35 905.85,-86.94 805.63,-76.55"/>
<polygon fill="midnightblue" stroke="midnightblue" points="805.82,-73.05 795.52,-75.5 805.1,-80.01 805.82,-73.05"/>
</g>
<!-- Node29 -->
<g id="node29" class="node">
<title>Node29</title>
<g id="a_node29"><a xlink:title=" ">
<polygon fill="white" stroke="#bfbfbf" points="1182.5,-56.5 1182.5,-75.5 1272.5,-75.5 1272.5,-56.5 1182.5,-56.5"/>
<text text-anchor="middle" x="1227.5" y="-63.5" font-family="Helvetica,sans-Serif" font-size="10.00">AH/STL/cstddef</text>
</a>
</g>
</g>
<!-- Node28&#45;&gt;Node29 -->
<g id="edge52" class="edge">
<title>Node28&#45;&gt;Node29</title>
<path fill="none" stroke="midnightblue" d="M1233.34,-112.08C1232.42,-104.93 1231.08,-94.64 1229.92,-85.69"/>
<polygon fill="midnightblue" stroke="midnightblue" points="1233.39,-85.22 1228.63,-75.75 1226.45,-86.12 1233.39,-85.22"/>
</g>
<!-- Node30 -->
<g id="node30" class="node">
<title>Node30</title>
<g id="a_node30"><a xlink:title=" ">
<polygon fill="white" stroke="#bfbfbf" points="1291,-56.5 1291,-75.5 1370,-75.5 1370,-56.5 1291,-56.5"/>
<text text-anchor="middle" x="1330.5" y="-63.5" font-family="Helvetica,sans-Serif" font-size="10.00">AH/STL/tuple</text>
</a>
</g>
</g>
<!-- Node28&#45;&gt;Node30 -->
<g id="edge53" class="edge">
<title>Node28&#45;&gt;Node30</title>
<path fill="none" stroke="midnightblue" d="M1249.92,-112.32C1265.04,-103.82 1288.32,-90.73 1305.97,-80.8"/>
<polygon fill="midnightblue" stroke="midnightblue" points="1308.11,-83.61 1315.11,-75.65 1304.68,-77.51 1308.11,-83.61"/>
</g>
</g>
</svg>
