<?xml version="1.0" encoding="UTF-8" standalone="no"?>
<!DOCTYPE svg PUBLIC "-//W3C//DTD SVG 1.1//EN"
 "http://www.w3.org/Graphics/SVG/1.1/DTD/svg11.dtd">
<!-- Generated by graphviz version 2.43.0 (0)
 -->
<!-- Title: Vector.cpp Pages: 1 -->
<svg width="435pt" height="308pt"
 viewBox="0.00 0.00 435.00 308.00" xmlns="http://www.w3.org/2000/svg" xmlns:xlink="http://www.w3.org/1999/xlink">
<g id="graph0" class="graph" transform="scale(1 1) rotate(0) translate(4 304)">
<title>Vector.cpp</title>
<polygon fill="white" stroke="transparent" points="-4,4 -4,-304 431,-304 431,4 -4,4"/>
<!-- Node1 -->
<g id="node1" class="node">
<title>Node1</title>
<g id="a_node1"><a xlink:title=" ">
<polygon fill="#bfbfbf" stroke="black" points="139,-280.5 139,-299.5 206,-299.5 206,-280.5 139,-280.5"/>
<text text-anchor="middle" x="172.5" y="-287.5" font-family="Helvetica,sans-Serif" font-size="10.00">Vector.cpp</text>
</a>
</g>
</g>
<!-- Node2 -->
<g id="node2" class="node">
<title>Node2</title>
<g id="a_node2"><a xlink:href="../../de/dd9/Vector_8hpp.html" target="_top" xlink:title="Definition of Vec2f and Vec3f.">
<polygon fill="white" stroke="black" points="69.5,-224.5 69.5,-243.5 137.5,-243.5 137.5,-224.5 69.5,-224.5"/>
<text text-anchor="middle" x="103.5" y="-231.5" font-family="Helvetica,sans-Serif" font-size="10.00">Vector.hpp</text>
</a>
</g>
</g>
<!-- Node1&#45;&gt;Node2 -->
<g id="edge1" class="edge">
<title>Node1&#45;&gt;Node2</title>
<path fill="none" stroke="midnightblue" d="M161.41,-280.32C151.01,-272.18 135.24,-259.84 122.78,-250.09"/>
<polygon fill="midnightblue" stroke="midnightblue" points="124.82,-247.24 114.79,-243.83 120.51,-252.75 124.82,-247.24"/>
</g>
<!-- Node11 -->
<g id="node11" class="node">
<title>Node11</title>
<g id="a_node11"><a xlink:href="../../dd/d80/PrintStream_8hpp.html" target="_top" xlink:title=" ">
<polygon fill="white" stroke="black" points="156,-224.5 156,-243.5 329,-243.5 329,-224.5 156,-224.5"/>
<text text-anchor="middle" x="242.5" y="-231.5" font-family="Helvetica,sans-Serif" font-size="10.00">AH/PrintStream/PrintStream.hpp</text>
</a>
</g>
</g>
<!-- Node1&#45;&gt;Node11 -->
<g id="edge12" class="edge">
<title>Node1&#45;&gt;Node11</title>
<path fill="none" stroke="midnightblue" d="M183.75,-280.32C194.3,-272.18 210.3,-259.84 222.94,-250.09"/>
<polygon fill="midnightblue" stroke="midnightblue" points="225.27,-252.71 231.05,-243.83 220.99,-247.17 225.27,-252.71"/>
</g>
<!-- Node3 -->
<g id="node3" class="node">
<title>Node3</title>
<g id="a_node3"><a xlink:href="../../d6/ddf/Arduino-Wrapper_8h.html" target="_top" xlink:title=" ">
<polygon fill="white" stroke="black" points="103.5,-168.5 103.5,-187.5 227.5,-187.5 227.5,-168.5 103.5,-168.5"/>
<text text-anchor="middle" x="165.5" y="-175.5" font-family="Helvetica,sans-Serif" font-size="10.00">AH/Arduino&#45;Wrapper.h</text>
</a>
</g>
</g>
<!-- Node2&#45;&gt;Node3 -->
<g id="edge2" class="edge">
<title>Node2&#45;&gt;Node3</title>
<path fill="none" stroke="midnightblue" d="M113.46,-224.32C122.63,-216.34 136.44,-204.31 147.53,-194.65"/>
<polygon fill="midnightblue" stroke="midnightblue" points="150.12,-197.04 155.36,-187.83 145.52,-191.76 150.12,-197.04"/>
</g>
<!-- Node10 -->
<g id="node10" class="node">
<title>Node10</title>
<g id="a_node10"><a xlink:title=" ">
<polygon fill="white" stroke="#bfbfbf" points="0,-168.5 0,-187.5 85,-187.5 85,-168.5 0,-168.5"/>
<text text-anchor="middle" x="42.5" y="-175.5" font-family="Helvetica,sans-Serif" font-size="10.00">AH/STL/cmath</text>
</a>
</g>
</g>
<!-- Node2&#45;&gt;Node10 -->
<g id="edge11" class="edge">
<title>Node2&#45;&gt;Node10</title>
<path fill="none" stroke="midnightblue" d="M93.7,-224.32C84.68,-216.34 71.09,-204.31 60.18,-194.65"/>
<polygon fill="midnightblue" stroke="midnightblue" points="62.29,-191.84 52.48,-187.83 57.65,-197.08 62.29,-191.84"/>
</g>
<!-- Node4 -->
<g id="node4" class="node">
<title>Node4</title>
<g id="a_node4"><a xlink:href="../../d7/d79/MinMaxFix_8hpp.html" target="_top" xlink:title=" ">
<polygon fill="white" stroke="black" points="167.5,-112.5 167.5,-131.5 303.5,-131.5 303.5,-112.5 167.5,-112.5"/>
<text text-anchor="middle" x="235.5" y="-119.5" font-family="Helvetica,sans-Serif" font-size="10.00">AH/Math/MinMaxFix.hpp</text>
</a>
</g>
</g>
<!-- Node3&#45;&gt;Node4 -->
<g id="edge3" class="edge">
<title>Node3&#45;&gt;Node4</title>
<path fill="none" stroke="midnightblue" d="M176.75,-168.32C187.3,-160.18 203.3,-147.84 215.94,-138.09"/>
<polygon fill="midnightblue" stroke="midnightblue" points="218.27,-140.71 224.05,-131.83 213.99,-135.17 218.27,-140.71"/>
</g>
<!-- Node7 -->
<g id="node7" class="node">
<title>Node7</title>
<g id="a_node7"><a xlink:title=" ">
<polygon fill="white" stroke="#bfbfbf" points="38,-0.5 38,-19.5 101,-19.5 101,-0.5 38,-0.5"/>
<text text-anchor="middle" x="69.5" y="-7.5" font-family="Helvetica,sans-Serif" font-size="10.00">Arduino.h</text>
</a>
</g>
</g>
<!-- Node3&#45;&gt;Node7 -->
<g id="edge10" class="edge">
<title>Node3&#45;&gt;Node7</title>
<path fill="none" stroke="midnightblue" d="M123.85,-168.45C89.05,-160.35 43.4,-147.2 32.5,-132 26.55,-123.7 20.81,-93.7 34.5,-56 38.41,-45.23 45.94,-35 53.02,-27.02"/>
<polygon fill="midnightblue" stroke="midnightblue" points="55.72,-29.26 60.06,-19.59 50.64,-24.44 55.72,-29.26"/>
</g>
<!-- Node9 -->
<g id="node9" class="node">
<title>Node9</title>
<g id="a_node9"><a xlink:title=" ">
<polygon fill="white" stroke="#bfbfbf" points="42,-112.5 42,-131.5 149,-131.5 149,-112.5 42,-112.5"/>
<text text-anchor="middle" x="95.5" y="-119.5" font-family="Helvetica,sans-Serif" font-size="10.00">AH/STL/type_traits</text>
</a>
</g>
</g>
<!-- Node3&#45;&gt;Node9 -->
<g id="edge9" class="edge">
<title>Node3&#45;&gt;Node9</title>
<path fill="none" stroke="midnightblue" d="M154.25,-168.32C143.7,-160.18 127.7,-147.84 115.06,-138.09"/>
<polygon fill="midnightblue" stroke="midnightblue" points="117.01,-135.17 106.95,-131.83 112.73,-140.71 117.01,-135.17"/>
</g>
<!-- Node5 -->
<g id="node5" class="node">
<title>Node5</title>
<g id="a_node5"><a xlink:href="../../d6/d3b/FixArduinoMacros_8hpp.html" target="_top" xlink:title=" ">
<polygon fill="white" stroke="black" points="43.5,-56.5 43.5,-75.5 213.5,-75.5 213.5,-56.5 43.5,-56.5"/>
<text text-anchor="middle" x="128.5" y="-63.5" font-family="Helvetica,sans-Serif" font-size="10.00">AH/Math/FixArduinoMacros.hpp</text>
</a>
</g>
</g>
<!-- Node4&#45;&gt;Node5 -->
<g id="edge4" class="edge">
<title>Node4&#45;&gt;Node5</title>
<path fill="none" stroke="midnightblue" d="M218.31,-112.32C201.15,-103.66 174.55,-90.24 154.75,-80.25"/>
<polygon fill="midnightblue" stroke="midnightblue" points="156.15,-77.04 145.65,-75.65 153,-83.28 156.15,-77.04"/>
</g>
<!-- Node8 -->
<g id="node8" class="node">
<title>Node8</title>
<g id="a_node8"><a xlink:href="../../dc/dc7/NamespaceSettings_8hpp.html" target="_top" xlink:title=" ">
<polygon fill="white" stroke="black" points="232,-56.5 232,-75.5 427,-75.5 427,-56.5 232,-56.5"/>
<text text-anchor="middle" x="329.5" y="-63.5" font-family="Helvetica,sans-Serif" font-size="10.00">AH/Settings/NamespaceSettings.hpp</text>
</a>
</g>
</g>
<!-- Node4&#45;&gt;Node8 -->
<g id="edge7" class="edge">
<title>Node4&#45;&gt;Node8</title>
<path fill="none" stroke="midnightblue" d="M250.6,-112.32C265.4,-103.82 288.19,-90.73 305.48,-80.8"/>
<polygon fill="midnightblue" stroke="midnightblue" points="307.51,-83.67 314.43,-75.65 304.02,-77.6 307.51,-83.67"/>
</g>
<!-- Node6 -->
<g id="node6" class="node">
<title>Node6</title>
<g id="a_node6"><a xlink:href="../../d1/d65/Warnings_8hpp.html" target="_top" xlink:title=" ">
<polygon fill="white" stroke="black" points="187,-0.5 187,-19.5 330,-19.5 330,-0.5 187,-0.5"/>
<text text-anchor="middle" x="258.5" y="-7.5" font-family="Helvetica,sans-Serif" font-size="10.00">AH/Settings/Warnings.hpp</text>
</a>
</g>
</g>
<!-- Node5&#45;&gt;Node6 -->
<g id="edge5" class="edge">
<title>Node5&#45;&gt;Node6</title>
<path fill="none" stroke="midnightblue" d="M149.1,-56.44C170.49,-47.56 204.18,-33.56 228.52,-23.45"/>
<polygon fill="midnightblue" stroke="midnightblue" points="230.11,-26.58 238,-19.52 227.42,-20.12 230.11,-26.58"/>
</g>
<!-- Node5&#45;&gt;Node7 -->
<g id="edge6" class="edge">
<title>Node5&#45;&gt;Node7</title>
<path fill="none" stroke="midnightblue" d="M119.02,-56.32C110.3,-48.34 97.16,-36.31 86.6,-26.65"/>
<polygon fill="midnightblue" stroke="midnightblue" points="88.89,-24 79.15,-19.83 84.17,-29.17 88.89,-24"/>
</g>
<!-- Node8&#45;&gt;Node6 -->
<g id="edge8" class="edge">
<title>Node8&#45;&gt;Node6</title>
<path fill="none" stroke="midnightblue" d="M318.09,-56.32C307.39,-48.18 291.16,-35.84 278.34,-26.09"/>
<polygon fill="midnightblue" stroke="midnightblue" points="280.19,-23.1 270.11,-19.83 275.96,-28.67 280.19,-23.1"/>
</g>
<!-- Node11&#45;&gt;Node3 -->
<g id="edge13" class="edge">
<title>Node11&#45;&gt;Node3</title>
<path fill="none" stroke="midnightblue" d="M230.13,-224.32C218.34,-216.06 200.37,-203.45 186.36,-193.63"/>
<polygon fill="midnightblue" stroke="midnightblue" points="188.04,-190.53 177.84,-187.65 184.02,-196.26 188.04,-190.53"/>
</g>
<!-- Node11&#45;&gt;Node8 -->
<g id="edge14" class="edge">
<title>Node11&#45;&gt;Node8</title>
<path fill="none" stroke="midnightblue" d="M250.01,-224.46C264.25,-207.82 295.3,-169.41 312.5,-132 319.35,-117.1 323.81,-98.95 326.43,-85.63"/>
<polygon fill="midnightblue" stroke="midnightblue" points="329.88,-86.2 328.21,-75.74 322.99,-84.96 329.88,-86.2"/>
</g>
</g>
</svg>
