<?xml version="1.0" encoding="UTF-8" standalone="no"?>
<!DOCTYPE svg PUBLIC "-//W3C//DTD SVG 1.1//EN"
 "http://www.w3.org/Graphics/SVG/1.1/DTD/svg11.dtd">
<!-- Generated by graphviz version 2.43.0 (0)
 -->
<!-- Title: ExtendedInputOutput.cpp Pages: 1 -->
<svg width="1560pt" height="834pt"
 viewBox="0.00 0.00 1560.00 834.00" xmlns="http://www.w3.org/2000/svg" xmlns:xlink="http://www.w3.org/1999/xlink">
<g id="graph0" class="graph" transform="scale(1 1) rotate(0) translate(4 830)">
<title>ExtendedInputOutput.cpp</title>
<polygon fill="white" stroke="transparent" points="-4,4 -4,-830 1556,-830 1556,4 -4,4"/>
<!-- Node1 -->
<g id="node1" class="node">
<title>Node1</title>
<g id="a_node1"><a xlink:title=" ">
<polygon fill="#bfbfbf" stroke="black" points="712,-806.5 712,-825.5 852,-825.5 852,-806.5 712,-806.5"/>
<text text-anchor="middle" x="782" y="-813.5" font-family="Helvetica,sans-Serif" font-size="10.00">ExtendedInputOutput.cpp</text>
</a>
</g>
</g>
<!-- Node2 -->
<g id="node2" class="node">
<title>Node2</title>
<g id="a_node2"><a xlink:href="../../d1/d65/Warnings_8hpp.html" target="_top" xlink:title=" ">
<polygon fill="white" stroke="black" points="849.5,-0.5 849.5,-19.5 992.5,-19.5 992.5,-0.5 849.5,-0.5"/>
<text text-anchor="middle" x="921" y="-7.5" font-family="Helvetica,sans-Serif" font-size="10.00">AH/Settings/Warnings.hpp</text>
</a>
</g>
</g>
<!-- Node1&#45;&gt;Node2 -->
<g id="edge1" class="edge">
<title>Node1&#45;&gt;Node2</title>
<path fill="none" stroke="midnightblue" d="M852.03,-812.3C1041.85,-804.05 1552,-775.35 1552,-705 1552,-705 1552,-705 1552,-121 1552,-75.87 1515.77,-73.07 1474,-56 1390.85,-22.02 1135.31,-13.67 1002.73,-11.64"/>
<polygon fill="midnightblue" stroke="midnightblue" points="1002.67,-8.13 992.62,-11.49 1002.57,-15.13 1002.67,-8.13"/>
</g>
<!-- Node3 -->
<g id="node3" class="node">
<title>Node3</title>
<g id="a_node3"><a xlink:href="../../d4/d57/ExtendedIOElement_8hpp.html" target="_top" xlink:title=" ">
<polygon fill="white" stroke="black" points="668,-750.5 668,-769.5 802,-769.5 802,-750.5 668,-750.5"/>
<text text-anchor="middle" x="735" y="-757.5" font-family="Helvetica,sans-Serif" font-size="10.00">ExtendedIOElement.hpp</text>
</a>
</g>
</g>
<!-- Node1&#45;&gt;Node3 -->
<g id="edge2" class="edge">
<title>Node1&#45;&gt;Node3</title>
<path fill="none" stroke="midnightblue" d="M774.24,-806.08C767.46,-798.3 757.46,-786.8 749.24,-777.37"/>
<polygon fill="midnightblue" stroke="midnightblue" points="751.82,-775 742.62,-769.75 746.54,-779.59 751.82,-775"/>
</g>
<!-- Node4 -->
<g id="node4" class="node">
<title>Node4</title>
<g id="a_node4"><a xlink:href="../../dd/ddf/ExtendedInputOutput_8hpp.html" target="_top" xlink:title=" ">
<polygon fill="white" stroke="black" points="513.5,-694.5 513.5,-713.5 654.5,-713.5 654.5,-694.5 513.5,-694.5"/>
<text text-anchor="middle" x="584" y="-701.5" font-family="Helvetica,sans-Serif" font-size="10.00">ExtendedInputOutput.hpp</text>
</a>
</g>
</g>
<!-- Node1&#45;&gt;Node4 -->
<g id="edge73" class="edge">
<title>Node1&#45;&gt;Node4</title>
<path fill="none" stroke="midnightblue" d="M748.97,-806.47C723.34,-799.03 687.51,-786.79 659,-770 635.95,-756.42 613.28,-735.41 599,-720.97"/>
<polygon fill="midnightblue" stroke="midnightblue" points="601.45,-718.47 591.98,-713.71 596.42,-723.33 601.45,-718.47"/>
</g>
<!-- Node8 -->
<g id="node8" class="node">
<title>Node8</title>
<g id="a_node8"><a xlink:href="../../d1/d93/Error_8hpp.html" target="_top" xlink:title=" ">
<polygon fill="white" stroke="black" points="762,-448.5 762,-467.5 866,-467.5 866,-448.5 762,-448.5"/>
<text text-anchor="middle" x="814" y="-455.5" font-family="Helvetica,sans-Serif" font-size="10.00">AH/Error/Error.hpp</text>
</a>
</g>
</g>
<!-- Node1&#45;&gt;Node8 -->
<g id="edge74" class="edge">
<title>Node1&#45;&gt;Node8</title>
<path fill="none" stroke="midnightblue" d="M788.67,-806.44C801.86,-788.62 830,-745.84 830,-705 830,-705 830,-705 830,-574.5 830,-540.04 822.92,-500.33 818.18,-477.6"/>
<polygon fill="midnightblue" stroke="midnightblue" points="821.56,-476.67 816.03,-467.64 814.72,-478.15 821.56,-476.67"/>
</g>
<!-- Node3&#45;&gt;Node2 -->
<g id="edge3" class="edge">
<title>Node3&#45;&gt;Node2</title>
<path fill="none" stroke="midnightblue" d="M802.09,-756.07C991.05,-746.94 1514,-715.19 1514,-643.5 1514,-643.5 1514,-643.5 1514,-121 1514,-75.87 1477.72,-73.2 1436,-56 1359.83,-24.61 1128.05,-15.1 1003.02,-12.23"/>
<polygon fill="midnightblue" stroke="midnightblue" points="1002.81,-8.72 992.73,-12 1002.65,-15.72 1002.81,-8.72"/>
</g>
<!-- Node3&#45;&gt;Node4 -->
<g id="edge4" class="edge">
<title>Node3&#45;&gt;Node4</title>
<path fill="none" stroke="midnightblue" d="M711.07,-750.44C685.78,-741.4 645.7,-727.06 617.32,-716.92"/>
<polygon fill="midnightblue" stroke="midnightblue" points="618.41,-713.59 607.81,-713.52 616.05,-720.18 618.41,-713.59"/>
</g>
<!-- Node6 -->
<g id="node6" class="node">
<title>Node6</title>
<g id="a_node6"><a xlink:href="../../d4/d35/Hardware-Types_8hpp.html" target="_top" xlink:title=" ">
<polygon fill="white" stroke="black" points="415.5,-560.5 415.5,-590.5 546.5,-590.5 546.5,-560.5 415.5,-560.5"/>
<text text-anchor="start" x="423.5" y="-578.5" font-family="Helvetica,sans-Serif" font-size="10.00">AH/Hardware/Hardware</text>
<text text-anchor="middle" x="481" y="-567.5" font-family="Helvetica,sans-Serif" font-size="10.00">&#45;Types.hpp</text>
</a>
</g>
</g>
<!-- Node3&#45;&gt;Node6 -->
<g id="edge72" class="edge">
<title>Node3&#45;&gt;Node6</title>
<path fill="none" stroke="midnightblue" d="M729.53,-750.27C714.53,-726.99 670.34,-662.76 618,-627 596.75,-612.48 570.81,-601.54 547.25,-593.62"/>
<polygon fill="midnightblue" stroke="midnightblue" points="548.25,-590.26 537.66,-590.51 546.09,-596.92 548.25,-590.26"/>
</g>
<!-- Node31 -->
<g id="node31" class="node">
<title>Node31</title>
<g id="a_node31"><a xlink:href="../../d4/d93/Updatable_8hpp.html" target="_top" xlink:title=" ">
<polygon fill="white" stroke="black" points="1027.5,-504.5 1027.5,-523.5 1188.5,-523.5 1188.5,-504.5 1027.5,-504.5"/>
<text text-anchor="middle" x="1108" y="-511.5" font-family="Helvetica,sans-Serif" font-size="10.00">AH/Containers/Updatable.hpp</text>
</a>
</g>
</g>
<!-- Node3&#45;&gt;Node31 -->
<g id="edge58" class="edge">
<title>Node3&#45;&gt;Node31</title>
<path fill="none" stroke="midnightblue" d="M748.28,-750.32C803.79,-714 1017.67,-574.09 1086.51,-529.05"/>
<polygon fill="midnightblue" stroke="midnightblue" points="1088.43,-531.98 1094.88,-523.58 1084.6,-526.13 1088.43,-531.98"/>
</g>
<!-- Node4&#45;&gt;Node2 -->
<g id="edge57" class="edge">
<title>Node4&#45;&gt;Node2</title>
<path fill="none" stroke="midnightblue" d="M592.25,-694.42C600.02,-685.87 611.44,-672.01 618,-658 669.49,-548.07 633.12,-503.97 680,-392 744.02,-239.1 867.05,-78.43 907.64,-27.49"/>
<polygon fill="midnightblue" stroke="midnightblue" points="910.51,-29.51 914.03,-19.52 905.05,-25.13 910.51,-29.51"/>
</g>
<!-- Node5 -->
<g id="node5" class="node">
<title>Node5</title>
<g id="a_node5"><a xlink:href="../../d2/d3c/Arduino-Hardware-Types_8hpp.html" target="_top" xlink:title=" ">
<polygon fill="white" stroke="black" points="250,-627.5 250,-657.5 372,-657.5 372,-627.5 250,-627.5"/>
<text text-anchor="start" x="258" y="-645.5" font-family="Helvetica,sans-Serif" font-size="10.00">AH/Hardware/Arduino</text>
<text text-anchor="middle" x="311" y="-634.5" font-family="Helvetica,sans-Serif" font-size="10.00">&#45;Hardware&#45;Types.hpp</text>
</a>
</g>
</g>
<!-- Node4&#45;&gt;Node5 -->
<g id="edge5" class="edge">
<title>Node4&#45;&gt;Node5</title>
<path fill="none" stroke="midnightblue" d="M544.89,-694.48C502.5,-685.24 433.98,-670.3 382.03,-658.98"/>
<polygon fill="midnightblue" stroke="midnightblue" points="382.72,-655.55 372.21,-656.84 381.23,-662.39 382.72,-655.55"/>
</g>
<!-- Node11 -->
<g id="node11" class="node">
<title>Node11</title>
<g id="a_node11"><a xlink:href="../../dc/dc7/NamespaceSettings_8hpp.html" target="_top" xlink:title=" ">
<polygon fill="white" stroke="black" points="357.5,-56.5 357.5,-75.5 552.5,-75.5 552.5,-56.5 357.5,-56.5"/>
<text text-anchor="middle" x="455" y="-63.5" font-family="Helvetica,sans-Serif" font-size="10.00">AH/Settings/NamespaceSettings.hpp</text>
</a>
</g>
</g>
<!-- Node4&#45;&gt;Node11 -->
<g id="edge56" class="edge">
<title>Node4&#45;&gt;Node11</title>
<path fill="none" stroke="midnightblue" d="M513.46,-701.2C426.2,-697.72 283.91,-687.55 241,-658 207.1,-634.65 197,-617.66 197,-576.5 197,-576.5 197,-576.5 197,-345 197,-210.69 360.78,-113.93 427.36,-80.14"/>
<polygon fill="midnightblue" stroke="midnightblue" points="429.05,-83.21 436.45,-75.61 425.93,-76.94 429.05,-83.21"/>
</g>
<!-- Node30 -->
<g id="node30" class="node">
<title>Node30</title>
<g id="a_node30"><a xlink:title=" ">
<polygon fill="white" stroke="#bfbfbf" points="522.5,-633 522.5,-652 609.5,-652 609.5,-633 522.5,-633"/>
<text text-anchor="middle" x="566" y="-640" font-family="Helvetica,sans-Serif" font-size="10.00">AH/STL/climits</text>
</a>
</g>
</g>
<!-- Node4&#45;&gt;Node30 -->
<g id="edge55" class="edge">
<title>Node4&#45;&gt;Node30</title>
<path fill="none" stroke="midnightblue" d="M581.42,-694.48C578.85,-685.99 574.83,-672.7 571.54,-661.82"/>
<polygon fill="midnightblue" stroke="midnightblue" points="574.82,-660.57 568.57,-652.01 568.12,-662.59 574.82,-660.57"/>
</g>
<!-- Node5&#45;&gt;Node2 -->
<g id="edge6" class="edge">
<title>Node5&#45;&gt;Node2</title>
<path fill="none" stroke="midnightblue" d="M303.85,-627.5C292.84,-604.59 273,-557.42 273,-515 273,-515 273,-515 273,-233 273,-150.49 262.63,-105.02 329,-56 369.07,-26.41 686.18,-15.85 839.09,-12.45"/>
<polygon fill="midnightblue" stroke="midnightblue" points="839.44,-15.94 849.36,-12.23 839.29,-8.94 839.44,-15.94"/>
</g>
<!-- Node5&#45;&gt;Node6 -->
<g id="edge7" class="edge">
<title>Node5&#45;&gt;Node6</title>
<path fill="none" stroke="midnightblue" d="M347.89,-627.4C373.39,-617.64 407.52,-604.59 434.83,-594.15"/>
<polygon fill="midnightblue" stroke="midnightblue" points="436.09,-597.42 444.18,-590.58 433.59,-590.88 436.09,-597.42"/>
</g>
<!-- Node12 -->
<g id="node12" class="node">
<title>Node12</title>
<g id="a_node12"><a xlink:href="../../d6/ddf/Arduino-Wrapper_8h.html" target="_top" xlink:title=" ">
<polygon fill="white" stroke="black" points="491,-168.5 491,-187.5 615,-187.5 615,-168.5 491,-168.5"/>
<text text-anchor="middle" x="553" y="-175.5" font-family="Helvetica,sans-Serif" font-size="10.00">AH/Arduino&#45;Wrapper.h</text>
</a>
</g>
</g>
<!-- Node5&#45;&gt;Node12 -->
<g id="edge54" class="edge">
<title>Node5&#45;&gt;Node12</title>
<path fill="none" stroke="midnightblue" d="M311,-627.46C311,-604.12 311,-555.85 311,-515 311,-515 311,-515 311,-345 311,-253.46 430.19,-208.65 501.28,-190.06"/>
<polygon fill="midnightblue" stroke="midnightblue" points="502.56,-193.35 511.4,-187.51 500.85,-186.56 502.56,-193.35"/>
</g>
<!-- Node27 -->
<g id="node27" class="node">
<title>Node27</title>
<g id="a_node27"><a xlink:href="../../d0/db1/FunctionTraits_8hpp.html" target="_top" xlink:title=" ">
<polygon fill="white" stroke="black" points="79.5,-112.5 79.5,-131.5 232.5,-131.5 232.5,-112.5 79.5,-112.5"/>
<text text-anchor="middle" x="156" y="-119.5" font-family="Helvetica,sans-Serif" font-size="10.00">AH/Types/FunctionTraits.hpp</text>
</a>
</g>
</g>
<!-- Node5&#45;&gt;Node27 -->
<g id="edge49" class="edge">
<title>Node5&#45;&gt;Node27</title>
<path fill="none" stroke="midnightblue" d="M292.36,-627.38C281.28,-618.12 267.72,-605.14 259,-591 240.4,-560.86 235,-550.42 235,-515 235,-515 235,-515 235,-345 235,-264.98 188.88,-177.63 167.11,-140.87"/>
<polygon fill="midnightblue" stroke="midnightblue" points="169.85,-138.64 161.68,-131.9 163.86,-142.26 169.85,-138.64"/>
</g>
<!-- Node6&#45;&gt;Node2 -->
<g id="edge8" class="edge">
<title>Node6&#45;&gt;Node2</title>
<path fill="none" stroke="midnightblue" d="M443.53,-560.45C404.5,-543.11 349,-509.55 349,-459 349,-459 349,-459 349,-345 349,-216.55 260.8,-150.31 348,-56 380.63,-20.7 688.8,-13.05 839.2,-11.42"/>
<polygon fill="midnightblue" stroke="midnightblue" points="839.35,-14.92 849.32,-11.32 839.28,-7.92 839.35,-14.92"/>
</g>
<!-- Node7 -->
<g id="node7" class="node">
<title>Node7</title>
<g id="a_node7"><a xlink:href="../../de/d76/Array_8hpp.html" target="_top" xlink:title=" ">
<polygon fill="white" stroke="black" points="666.5,-504.5 666.5,-523.5 801.5,-523.5 801.5,-504.5 666.5,-504.5"/>
<text text-anchor="middle" x="734" y="-511.5" font-family="Helvetica,sans-Serif" font-size="10.00">AH/Containers/Array.hpp</text>
</a>
</g>
</g>
<!-- Node6&#45;&gt;Node7 -->
<g id="edge9" class="edge">
<title>Node6&#45;&gt;Node7</title>
<path fill="none" stroke="midnightblue" d="M540.64,-560.47C585.71,-549.87 646.69,-535.53 688.03,-525.81"/>
<polygon fill="midnightblue" stroke="midnightblue" points="688.9,-529.2 697.83,-523.51 687.29,-522.39 688.9,-529.2"/>
</g>
<!-- Node10 -->
<g id="node10" class="node">
<title>Node10</title>
<g id="a_node10"><a xlink:href="../../dd/d80/PrintStream_8hpp.html" target="_top" xlink:title=" ">
<polygon fill="white" stroke="black" points="491.5,-224.5 491.5,-243.5 664.5,-243.5 664.5,-224.5 491.5,-224.5"/>
<text text-anchor="middle" x="578" y="-231.5" font-family="Helvetica,sans-Serif" font-size="10.00">AH/PrintStream/PrintStream.hpp</text>
</a>
</g>
</g>
<!-- Node6&#45;&gt;Node10 -->
<g id="edge45" class="edge">
<title>Node6&#45;&gt;Node10</title>
<path fill="none" stroke="midnightblue" d="M480.94,-560.31C481.12,-545.97 482.1,-523.24 486,-504 505.81,-406.34 551.59,-295.41 570.06,-252.88"/>
<polygon fill="midnightblue" stroke="midnightblue" points="573.33,-254.16 574.14,-243.59 566.91,-251.35 573.33,-254.16"/>
</g>
<!-- Node6&#45;&gt;Node11 -->
<g id="edge47" class="edge">
<title>Node6&#45;&gt;Node11</title>
<path fill="none" stroke="midnightblue" d="M458.25,-560.39C430.43,-541.18 387,-503.99 387,-459 387,-459 387,-459 387,-345 387,-241.4 345.92,-203.77 394,-112 401.13,-98.4 414.43,-87.85 426.8,-80.39"/>
<polygon fill="midnightblue" stroke="midnightblue" points="428.51,-83.44 435.54,-75.51 425.1,-77.33 428.51,-83.44"/>
</g>
<!-- Node23 -->
<g id="node23" class="node">
<title>Node23</title>
<g id="a_node23"><a xlink:title=" ">
<polygon fill="white" stroke="#bfbfbf" points="911.5,-224.5 911.5,-243.5 964.5,-243.5 964.5,-224.5 911.5,-224.5"/>
<text text-anchor="middle" x="938" y="-231.5" font-family="Helvetica,sans-Serif" font-size="10.00">stdint.h</text>
</a>
</g>
</g>
<!-- Node6&#45;&gt;Node23 -->
<g id="edge48" class="edge">
<title>Node6&#45;&gt;Node23</title>
<path fill="none" stroke="midnightblue" d="M486.31,-560.32C492.49,-545.16 503.82,-521.01 519,-504 636.34,-372.53 832.48,-279.87 907.53,-247.58"/>
<polygon fill="midnightblue" stroke="midnightblue" points="909.05,-250.73 916.88,-243.59 906.31,-244.29 909.05,-250.73"/>
</g>
<!-- Node26 -->
<g id="node26" class="node">
<title>Node26</title>
<g id="a_node26"><a xlink:title=" ">
<polygon fill="white" stroke="#bfbfbf" points="528,-504.5 528,-523.5 610,-523.5 610,-504.5 528,-504.5"/>
<text text-anchor="middle" x="569" y="-511.5" font-family="Helvetica,sans-Serif" font-size="10.00">AH/STL/limits</text>
</a>
</g>
</g>
<!-- Node6&#45;&gt;Node26 -->
<g id="edge46" class="edge">
<title>Node6&#45;&gt;Node26</title>
<path fill="none" stroke="midnightblue" d="M501.85,-560.4C515.7,-551.04 533.81,-538.79 547.74,-529.38"/>
<polygon fill="midnightblue" stroke="midnightblue" points="549.87,-532.16 556.2,-523.66 545.95,-526.36 549.87,-532.16"/>
</g>
<!-- Node7&#45;&gt;Node2 -->
<g id="edge10" class="edge">
<title>Node7&#45;&gt;Node2</title>
<path fill="none" stroke="midnightblue" d="M725.74,-504.33C708.38,-485.05 670.46,-436.77 680,-392 715.71,-224.42 755.15,-184.04 869,-56 878.79,-44.99 891.23,-34.13 901.49,-25.84"/>
<polygon fill="midnightblue" stroke="midnightblue" points="903.8,-28.48 909.48,-19.54 899.46,-22.98 903.8,-28.48"/>
</g>
<!-- Node7&#45;&gt;Node8 -->
<g id="edge11" class="edge">
<title>Node7&#45;&gt;Node8</title>
<path fill="none" stroke="midnightblue" d="M746.85,-504.32C759.22,-495.98 778.13,-483.21 792.74,-473.35"/>
<polygon fill="midnightblue" stroke="midnightblue" points="794.85,-476.15 801.18,-467.65 790.93,-470.35 794.85,-476.15"/>
</g>
<!-- Node16 -->
<g id="node16" class="node">
<title>Node16</title>
<g id="a_node16"><a xlink:title=" ">
<polygon fill="white" stroke="#bfbfbf" points="403.5,-112.5 403.5,-131.5 510.5,-131.5 510.5,-112.5 403.5,-112.5"/>
<text text-anchor="middle" x="457" y="-119.5" font-family="Helvetica,sans-Serif" font-size="10.00">AH/STL/type_traits</text>
</a>
</g>
</g>
<!-- Node7&#45;&gt;Node16 -->
<g id="edge43" class="edge">
<title>Node7&#45;&gt;Node16</title>
<path fill="none" stroke="midnightblue" d="M702.14,-504.4C658.33,-491.13 579.34,-461.86 530,-412 471.69,-353.08 467.46,-324.81 449,-244 440.86,-208.39 447.43,-165.46 452.51,-141.5"/>
<polygon fill="midnightblue" stroke="midnightblue" points="455.95,-142.17 454.75,-131.64 449.12,-140.62 455.95,-142.17"/>
</g>
<!-- Node22 -->
<g id="node22" class="node">
<title>Node22</title>
<g id="a_node22"><a xlink:title=" ">
<polygon fill="white" stroke="#bfbfbf" points="1306,-224.5 1306,-243.5 1362,-243.5 1362,-224.5 1306,-224.5"/>
<text text-anchor="middle" x="1334" y="-231.5" font-family="Helvetica,sans-Serif" font-size="10.00">stddef.h</text>
</a>
</g>
</g>
<!-- Node7&#45;&gt;Node22 -->
<g id="edge44" class="edge">
<title>Node7&#45;&gt;Node22</title>
<path fill="none" stroke="midnightblue" d="M801.85,-509C890.34,-503 1039.77,-489.96 1090,-468 1196.36,-421.49 1212.27,-386.23 1290,-300 1303.36,-285.18 1315.84,-266.04 1324.06,-252.38"/>
<polygon fill="midnightblue" stroke="midnightblue" points="1327.21,-253.93 1329.26,-243.54 1321.18,-250.39 1327.21,-253.93"/>
</g>
<!-- Node25 -->
<g id="node25" class="node">
<title>Node25</title>
<g id="a_node25"><a xlink:title=" ">
<polygon fill="white" stroke="#bfbfbf" points="689,-392.5 689,-411.5 779,-411.5 779,-392.5 689,-392.5"/>
<text text-anchor="middle" x="734" y="-399.5" font-family="Helvetica,sans-Serif" font-size="10.00">AH/STL/iterator</text>
</a>
</g>
</g>
<!-- Node7&#45;&gt;Node25 -->
<g id="edge42" class="edge">
<title>Node7&#45;&gt;Node25</title>
<path fill="none" stroke="midnightblue" d="M734,-504.37C734,-486.62 734,-445.67 734,-421.6"/>
<polygon fill="midnightblue" stroke="midnightblue" points="737.5,-421.59 734,-411.59 730.5,-421.59 737.5,-421.59"/>
</g>
<!-- Node8&#45;&gt;Node2 -->
<g id="edge12" class="edge">
<title>Node8&#45;&gt;Node2</title>
<path fill="none" stroke="midnightblue" d="M818.18,-448.39C826.64,-430.16 845,-386.09 845,-347 845,-347 845,-347 845,-289 845,-238.51 881.83,-236.16 897,-188 914.51,-132.42 919.24,-63.06 920.52,-30.1"/>
<polygon fill="midnightblue" stroke="midnightblue" points="924.04,-29.81 920.86,-19.7 917.04,-29.58 924.04,-29.81"/>
</g>
<!-- Node9 -->
<g id="node9" class="node">
<title>Node9</title>
<g id="a_node9"><a xlink:href="../../df/dee/Debug_8hpp.html" target="_top" xlink:title=" ">
<polygon fill="white" stroke="black" points="873.5,-392.5 873.5,-411.5 994.5,-411.5 994.5,-392.5 873.5,-392.5"/>
<text text-anchor="middle" x="934" y="-399.5" font-family="Helvetica,sans-Serif" font-size="10.00">AH/Debug/Debug.hpp</text>
</a>
</g>
</g>
<!-- Node8&#45;&gt;Node9 -->
<g id="edge13" class="edge">
<title>Node8&#45;&gt;Node9</title>
<path fill="none" stroke="midnightblue" d="M833.01,-448.44C852.59,-439.64 883.31,-425.81 905.73,-415.72"/>
<polygon fill="midnightblue" stroke="midnightblue" points="907.39,-418.81 915.07,-411.52 904.52,-412.43 907.39,-418.81"/>
</g>
<!-- Node9&#45;&gt;Node2 -->
<g id="edge14" class="edge">
<title>Node9&#45;&gt;Node2</title>
<path fill="none" stroke="midnightblue" d="M931.64,-392.24C925.41,-368.56 908.6,-301.24 903,-244 902.13,-235.15 899.84,-232.31 903,-224 910.61,-203.99 927.39,-208.01 935,-188 955.85,-133.16 943.81,-114 935,-56 933.63,-47 930.81,-37.33 928.05,-29.26"/>
<polygon fill="midnightblue" stroke="midnightblue" points="931.31,-27.98 924.6,-19.78 924.73,-30.37 931.31,-27.98"/>
</g>
<!-- Node9&#45;&gt;Node10 -->
<g id="edge15" class="edge">
<title>Node9&#45;&gt;Node10</title>
<path fill="none" stroke="midnightblue" d="M915.36,-392.31C856.73,-364.97 675.79,-280.6 605.93,-248.02"/>
<polygon fill="midnightblue" stroke="midnightblue" points="607,-244.66 596.45,-243.61 604.04,-251 607,-244.66"/>
</g>
<!-- Node17 -->
<g id="node17" class="node">
<title>Node17</title>
<g id="a_node17"><a xlink:href="../../d2/dd5/SettingsWrapper_8hpp.html" target="_top" xlink:title=" ">
<polygon fill="white" stroke="black" points="949,-336.5 949,-355.5 1127,-355.5 1127,-336.5 949,-336.5"/>
<text text-anchor="middle" x="1038" y="-343.5" font-family="Helvetica,sans-Serif" font-size="10.00">AH/Settings/SettingsWrapper.hpp</text>
</a>
</g>
</g>
<!-- Node9&#45;&gt;Node17 -->
<g id="edge27" class="edge">
<title>Node9&#45;&gt;Node17</title>
<path fill="none" stroke="midnightblue" d="M945.59,-392.32C960.53,-383.59 986.45,-370 1007.14,-359.98"/>
<polygon fill="midnightblue" stroke="midnightblue" points="1008.7,-363.11 1016.22,-355.65 1005.69,-356.79 1008.7,-363.11"/>
</g>
<!-- Node10&#45;&gt;Node2 -->
<g id="edge17" class="edge">
<title>Node10&#45;&gt;Node2</title>
<path fill="none" stroke="midnightblue" d="M595.39,-224.44C627.36,-208.34 697.04,-171.62 750,-132 789.53,-102.43 790.5,-84.22 831,-56 849.5,-43.11 872.23,-31.77 890.22,-23.71"/>
<polygon fill="midnightblue" stroke="midnightblue" points="891.91,-26.79 899.67,-19.57 889.1,-20.37 891.91,-26.79"/>
</g>
<!-- Node10&#45;&gt;Node11 -->
<g id="edge16" class="edge">
<title>Node10&#45;&gt;Node11</title>
<path fill="none" stroke="midnightblue" d="M591.7,-224.43C609.06,-212.43 635.43,-189.64 624,-168 598.57,-119.83 539.31,-92.49 498.19,-78.72"/>
<polygon fill="midnightblue" stroke="midnightblue" points="499.01,-75.31 488.42,-75.58 496.88,-81.97 499.01,-75.31"/>
</g>
<!-- Node10&#45;&gt;Node12 -->
<g id="edge18" class="edge">
<title>Node10&#45;&gt;Node12</title>
<path fill="none" stroke="midnightblue" d="M573.87,-224.08C570.49,-216.77 565.58,-206.18 561.38,-197.1"/>
<polygon fill="midnightblue" stroke="midnightblue" points="564.43,-195.36 557.05,-187.75 558.08,-198.3 564.43,-195.36"/>
</g>
<!-- Node13 -->
<g id="node13" class="node">
<title>Node13</title>
<g id="a_node13"><a xlink:href="../../d7/d79/MinMaxFix_8hpp.html" target="_top" xlink:title=" ">
<polygon fill="white" stroke="black" points="605,-112.5 605,-131.5 741,-131.5 741,-112.5 605,-112.5"/>
<text text-anchor="middle" x="673" y="-119.5" font-family="Helvetica,sans-Serif" font-size="10.00">AH/Math/MinMaxFix.hpp</text>
</a>
</g>
</g>
<!-- Node12&#45;&gt;Node13 -->
<g id="edge19" class="edge">
<title>Node12&#45;&gt;Node13</title>
<path fill="none" stroke="midnightblue" d="M572.01,-168.44C591.59,-159.64 622.31,-145.81 644.73,-135.72"/>
<polygon fill="midnightblue" stroke="midnightblue" points="646.39,-138.81 654.07,-131.52 643.52,-132.43 646.39,-138.81"/>
</g>
<!-- Node15 -->
<g id="node15" class="node">
<title>Node15</title>
<g id="a_node15"><a xlink:title=" ">
<polygon fill="white" stroke="#bfbfbf" points="404.5,-0.5 404.5,-19.5 467.5,-19.5 467.5,-0.5 404.5,-0.5"/>
<text text-anchor="middle" x="436" y="-7.5" font-family="Helvetica,sans-Serif" font-size="10.00">Arduino.h</text>
</a>
</g>
</g>
<!-- Node12&#45;&gt;Node15 -->
<g id="edge26" class="edge">
<title>Node12&#45;&gt;Node15</title>
<path fill="none" stroke="midnightblue" d="M551,-168.29C547.28,-154.13 537.88,-126.3 519,-112 457.09,-65.11 396.94,-136.31 348,-76 329.56,-53.28 365.19,-34.36 396.48,-22.9"/>
<polygon fill="midnightblue" stroke="midnightblue" points="397.7,-26.18 405.99,-19.59 395.4,-19.57 397.7,-26.18"/>
</g>
<!-- Node12&#45;&gt;Node16 -->
<g id="edge25" class="edge">
<title>Node12&#45;&gt;Node16</title>
<path fill="none" stroke="midnightblue" d="M537.58,-168.32C522.46,-159.82 499.18,-146.73 481.53,-136.8"/>
<polygon fill="midnightblue" stroke="midnightblue" points="482.82,-133.51 472.39,-131.65 479.39,-139.61 482.82,-133.51"/>
</g>
<!-- Node13&#45;&gt;Node2 -->
<g id="edge20" class="edge">
<title>Node13&#45;&gt;Node2</title>
<path fill="none" stroke="midnightblue" d="M687.04,-112.44C709.07,-99.24 753.36,-73.57 793,-56 822.47,-42.94 857,-30.98 882.77,-22.68"/>
<polygon fill="midnightblue" stroke="midnightblue" points="884.07,-25.94 892.54,-19.58 881.95,-19.27 884.07,-25.94"/>
</g>
<!-- Node13&#45;&gt;Node11 -->
<g id="edge24" class="edge">
<title>Node13&#45;&gt;Node11</title>
<path fill="none" stroke="midnightblue" d="M638.46,-112.44C600.75,-103.1 540.26,-88.12 499.14,-77.93"/>
<polygon fill="midnightblue" stroke="midnightblue" points="499.93,-74.52 489.38,-75.52 498.25,-81.32 499.93,-74.52"/>
</g>
<!-- Node14 -->
<g id="node14" class="node">
<title>Node14</title>
<g id="a_node14"><a xlink:href="../../d6/d3b/FixArduinoMacros_8hpp.html" target="_top" xlink:title=" ">
<polygon fill="white" stroke="black" points="571,-56.5 571,-75.5 741,-75.5 741,-56.5 571,-56.5"/>
<text text-anchor="middle" x="656" y="-63.5" font-family="Helvetica,sans-Serif" font-size="10.00">AH/Math/FixArduinoMacros.hpp</text>
</a>
</g>
</g>
<!-- Node13&#45;&gt;Node14 -->
<g id="edge21" class="edge">
<title>Node13&#45;&gt;Node14</title>
<path fill="none" stroke="midnightblue" d="M670.19,-112.08C667.92,-104.85 664.63,-94.41 661.79,-85.4"/>
<polygon fill="midnightblue" stroke="midnightblue" points="665.1,-84.24 658.75,-75.75 658.42,-86.34 665.1,-84.24"/>
</g>
<!-- Node14&#45;&gt;Node2 -->
<g id="edge22" class="edge">
<title>Node14&#45;&gt;Node2</title>
<path fill="none" stroke="midnightblue" d="M697.99,-56.44C744.41,-46.98 819.23,-31.74 869.24,-21.55"/>
<polygon fill="midnightblue" stroke="midnightblue" points="870.11,-24.94 879.21,-19.52 868.71,-18.08 870.11,-24.94"/>
</g>
<!-- Node14&#45;&gt;Node15 -->
<g id="edge23" class="edge">
<title>Node14&#45;&gt;Node15</title>
<path fill="none" stroke="midnightblue" d="M621.14,-56.44C582.19,-46.88 519.16,-31.41 477.64,-21.22"/>
<polygon fill="midnightblue" stroke="midnightblue" points="478.39,-17.8 467.84,-18.82 476.72,-24.6 478.39,-17.8"/>
</g>
<!-- Node17&#45;&gt;Node2 -->
<g id="edge28" class="edge">
<title>Node17&#45;&gt;Node2</title>
<path fill="none" stroke="midnightblue" d="M1127.18,-336.84C1179.52,-330.17 1238.86,-318.71 1257,-300 1295,-260.81 1278,-233.58 1278,-179 1278,-179 1278,-179 1278,-121 1278,-63.75 1108.2,-33.15 1002.81,-19.66"/>
<polygon fill="midnightblue" stroke="midnightblue" points="1003.17,-16.18 992.81,-18.41 1002.3,-23.13 1003.17,-16.18"/>
</g>
<!-- Node17&#45;&gt;Node9 -->
<g id="edge41" class="edge">
<title>Node17&#45;&gt;Node9</title>
<path fill="none" stroke="midnightblue" d="M1026.68,-355.52C1011.75,-364.27 985.55,-378.01 964.71,-388.1"/>
<polygon fill="midnightblue" stroke="midnightblue" points="963.09,-384.99 955.57,-392.44 966.1,-391.31 963.09,-384.99"/>
</g>
<!-- Node17&#45;&gt;Node11 -->
<g id="edge29" class="edge">
<title>Node17&#45;&gt;Node11</title>
<path fill="none" stroke="midnightblue" d="M1024.39,-336.41C1010.66,-327.62 988.98,-313.39 971,-300 939.6,-276.61 932.93,-269.23 903,-244 834.33,-186.12 831.57,-149.57 750,-112 716.53,-96.58 629.17,-84.41 558.14,-76.63"/>
<polygon fill="midnightblue" stroke="midnightblue" points="558.11,-73.1 547.79,-75.51 557.36,-80.06 558.11,-73.1"/>
</g>
<!-- Node18 -->
<g id="node18" class="node">
<title>Node18</title>
<g id="a_node18"><a xlink:href="../../db/d02/Settings_8hpp.html" target="_top" xlink:title="All user settings and debugging options can be changed here.">
<polygon fill="white" stroke="black" points="979.5,-280.5 979.5,-299.5 1056.5,-299.5 1056.5,-280.5 979.5,-280.5"/>
<text text-anchor="middle" x="1018" y="-287.5" font-family="Helvetica,sans-Serif" font-size="10.00">Settings.hpp</text>
</a>
</g>
</g>
<!-- Node17&#45;&gt;Node18 -->
<g id="edge30" class="edge">
<title>Node17&#45;&gt;Node18</title>
<path fill="none" stroke="midnightblue" d="M1034.7,-336.08C1032.02,-328.85 1028.15,-318.41 1024.81,-309.4"/>
<polygon fill="midnightblue" stroke="midnightblue" points="1028,-307.91 1021.24,-299.75 1021.43,-310.34 1028,-307.91"/>
</g>
<!-- Node24 -->
<g id="node24" class="node">
<title>Node24</title>
<g id="a_node24"><a xlink:href="../../d9/d98/TeensyUSBTypes_8hpp.html" target="_top" xlink:title=" ">
<polygon fill="white" stroke="black" points="1074.5,-280.5 1074.5,-299.5 1247.5,-299.5 1247.5,-280.5 1074.5,-280.5"/>
<text text-anchor="middle" x="1161" y="-287.5" font-family="Helvetica,sans-Serif" font-size="10.00">AH/Teensy/TeensyUSBTypes.hpp</text>
</a>
</g>
</g>
<!-- Node17&#45;&gt;Node24 -->
<g id="edge40" class="edge">
<title>Node17&#45;&gt;Node24</title>
<path fill="none" stroke="midnightblue" d="M1057.49,-336.44C1077.64,-327.6 1109.32,-313.69 1132.33,-303.59"/>
<polygon fill="midnightblue" stroke="midnightblue" points="1133.85,-306.74 1141.6,-299.52 1131.04,-300.33 1133.85,-306.74"/>
</g>
<!-- Node19 -->
<g id="node19" class="node">
<title>Node19</title>
<g id="a_node19"><a xlink:href="../../dc/d50/Frequency_8hpp.html" target="_top" xlink:title=" ">
<polygon fill="white" stroke="black" points="1025,-112.5 1025,-131.5 1159,-131.5 1159,-112.5 1025,-112.5"/>
<text text-anchor="middle" x="1092" y="-119.5" font-family="Helvetica,sans-Serif" font-size="10.00">AH/Types/Frequency.hpp</text>
</a>
</g>
</g>
<!-- Node18&#45;&gt;Node19 -->
<g id="edge31" class="edge">
<title>Node18&#45;&gt;Node19</title>
<path fill="none" stroke="midnightblue" d="M1056.7,-280.91C1091.25,-272.81 1138.03,-259.36 1149,-244 1173.59,-209.55 1134.27,-162.82 1109.58,-138.76"/>
<polygon fill="midnightblue" stroke="midnightblue" points="1111.86,-136.09 1102.18,-131.78 1107.06,-141.19 1111.86,-136.09"/>
</g>
<!-- Node20 -->
<g id="node20" class="node">
<title>Node20</title>
<g id="a_node20"><a xlink:href="../../d7/d7c/ADCConfig_8hpp.html" target="_top" xlink:title="This file contains the platform&#45;specific ADC resolutions.">
<polygon fill="white" stroke="black" points="982.5,-224.5 982.5,-243.5 1139.5,-243.5 1139.5,-224.5 982.5,-224.5"/>
<text text-anchor="middle" x="1061" y="-231.5" font-family="Helvetica,sans-Serif" font-size="10.00">AH/Hardware/ADCConfig.hpp</text>
</a>
</g>
</g>
<!-- Node18&#45;&gt;Node20 -->
<g id="edge34" class="edge">
<title>Node18&#45;&gt;Node20</title>
<path fill="none" stroke="midnightblue" d="M1025.1,-280.08C1031.24,-272.38 1040.27,-261.03 1047.74,-251.65"/>
<polygon fill="midnightblue" stroke="midnightblue" points="1050.54,-253.75 1054.03,-243.75 1045.06,-249.39 1050.54,-253.75"/>
</g>
<!-- Node21 -->
<g id="node21" class="node">
<title>Node21</title>
<g id="a_node21"><a xlink:title=" ">
<polygon fill="white" stroke="#bfbfbf" points="1196.5,-224.5 1196.5,-243.5 1249.5,-243.5 1249.5,-224.5 1196.5,-224.5"/>
<text text-anchor="middle" x="1223" y="-231.5" font-family="Helvetica,sans-Serif" font-size="10.00">limits.h</text>
</a>
</g>
</g>
<!-- Node18&#45;&gt;Node21 -->
<g id="edge37" class="edge">
<title>Node18&#45;&gt;Node21</title>
<path fill="none" stroke="midnightblue" d="M1050.48,-280.44C1087.48,-270.7 1147.79,-254.81 1186.42,-244.64"/>
<polygon fill="midnightblue" stroke="midnightblue" points="1187.44,-247.99 1196.22,-242.05 1185.66,-241.22 1187.44,-247.99"/>
</g>
<!-- Node18&#45;&gt;Node22 -->
<g id="edge38" class="edge">
<title>Node18&#45;&gt;Node22</title>
<path fill="none" stroke="midnightblue" d="M1056.5,-281.71C1059.71,-281.13 1062.91,-280.55 1066,-280 1147.7,-265.48 1243.64,-249.67 1295.69,-241.2"/>
<polygon fill="midnightblue" stroke="midnightblue" points="1296.49,-244.61 1305.8,-239.55 1295.37,-237.7 1296.49,-244.61"/>
</g>
<!-- Node18&#45;&gt;Node23 -->
<g id="edge39" class="edge">
<title>Node18&#45;&gt;Node23</title>
<path fill="none" stroke="midnightblue" d="M1005.15,-280.32C992.78,-271.98 973.87,-259.21 959.26,-249.35"/>
<polygon fill="midnightblue" stroke="midnightblue" points="961.07,-246.35 950.82,-243.65 957.15,-252.15 961.07,-246.35"/>
</g>
<!-- Node19&#45;&gt;Node2 -->
<g id="edge32" class="edge">
<title>Node19&#45;&gt;Node2</title>
<path fill="none" stroke="midnightblue" d="M1082.53,-112.28C1067.91,-99.09 1038.63,-73.71 1011,-56 991.64,-43.59 968.4,-32.05 950.38,-23.76"/>
<polygon fill="midnightblue" stroke="midnightblue" points="951.52,-20.43 940.97,-19.5 948.64,-26.81 951.52,-20.43"/>
</g>
<!-- Node19&#45;&gt;Node11 -->
<g id="edge33" class="edge">
<title>Node19&#45;&gt;Node11</title>
<path fill="none" stroke="midnightblue" d="M1024.73,-115.3C914.63,-105.96 694.99,-87.34 562.91,-76.15"/>
<polygon fill="midnightblue" stroke="midnightblue" points="563.03,-72.65 552.77,-75.29 562.44,-79.62 563.03,-72.65"/>
</g>
<!-- Node20&#45;&gt;Node2 -->
<g id="edge35" class="edge">
<title>Node20&#45;&gt;Node2</title>
<path fill="none" stroke="midnightblue" d="M1057.27,-224.41C1043.62,-193.13 995.92,-85.56 973,-56 964.2,-44.65 952.19,-34.03 941.92,-25.96"/>
<polygon fill="midnightblue" stroke="midnightblue" points="943.91,-23.07 933.82,-19.82 939.68,-28.65 943.91,-23.07"/>
</g>
<!-- Node20&#45;&gt;Node12 -->
<g id="edge36" class="edge">
<title>Node20&#45;&gt;Node12</title>
<path fill="none" stroke="midnightblue" d="M982.46,-224.65C884.92,-214.28 719.86,-196.74 625.31,-186.69"/>
<polygon fill="midnightblue" stroke="midnightblue" points="625.57,-183.19 615.26,-185.62 624.83,-190.16 625.57,-183.19"/>
</g>
<!-- Node27&#45;&gt;Node2 -->
<g id="edge52" class="edge">
<title>Node27&#45;&gt;Node2</title>
<path fill="none" stroke="midnightblue" d="M168.07,-112.31C189.17,-97.67 234.63,-68.46 278,-56 381.1,-26.39 690.41,-15.89 839.24,-12.49"/>
<polygon fill="midnightblue" stroke="midnightblue" points="839.32,-15.98 849.24,-12.26 839.16,-8.99 839.32,-15.98"/>
</g>
<!-- Node27&#45;&gt;Node11 -->
<g id="edge53" class="edge">
<title>Node27&#45;&gt;Node11</title>
<path fill="none" stroke="midnightblue" d="M203.38,-112.44C256.08,-102.92 341.23,-87.55 397.66,-77.36"/>
<polygon fill="midnightblue" stroke="midnightblue" points="398.63,-80.74 407.84,-75.52 397.38,-73.85 398.63,-80.74"/>
</g>
<!-- Node28 -->
<g id="node28" class="node">
<title>Node28</title>
<g id="a_node28"><a xlink:title=" ">
<polygon fill="white" stroke="#bfbfbf" points="0,-56.5 0,-75.5 90,-75.5 90,-56.5 0,-56.5"/>
<text text-anchor="middle" x="45" y="-63.5" font-family="Helvetica,sans-Serif" font-size="10.00">AH/STL/cstddef</text>
</a>
</g>
</g>
<!-- Node27&#45;&gt;Node28 -->
<g id="edge50" class="edge">
<title>Node27&#45;&gt;Node28</title>
<path fill="none" stroke="midnightblue" d="M138.17,-112.32C120.28,-103.62 92.52,-90.12 71.95,-80.11"/>
<polygon fill="midnightblue" stroke="midnightblue" points="73.31,-76.88 62.79,-75.65 70.25,-83.18 73.31,-76.88"/>
</g>
<!-- Node29 -->
<g id="node29" class="node">
<title>Node29</title>
<g id="a_node29"><a xlink:title=" ">
<polygon fill="white" stroke="#bfbfbf" points="108.5,-56.5 108.5,-75.5 187.5,-75.5 187.5,-56.5 108.5,-56.5"/>
<text text-anchor="middle" x="148" y="-63.5" font-family="Helvetica,sans-Serif" font-size="10.00">AH/STL/tuple</text>
</a>
</g>
</g>
<!-- Node27&#45;&gt;Node29 -->
<g id="edge51" class="edge">
<title>Node27&#45;&gt;Node29</title>
<path fill="none" stroke="midnightblue" d="M154.68,-112.08C153.62,-104.93 152.09,-94.64 150.77,-85.69"/>
<polygon fill="midnightblue" stroke="midnightblue" points="154.22,-85.13 149.3,-75.75 147.3,-86.16 154.22,-85.13"/>
</g>
<!-- Node31&#45;&gt;Node2 -->
<g id="edge59" class="edge">
<title>Node31&#45;&gt;Node2</title>
<path fill="none" stroke="midnightblue" d="M1188.73,-512.54C1279.06,-510.36 1417.88,-501.45 1457,-468 1479.88,-448.44 1476,-433.1 1476,-403 1476,-403 1476,-403 1476,-121 1476,-25.76 1157.54,-11.69 1003.08,-10.47"/>
<polygon fill="midnightblue" stroke="midnightblue" points="1002.73,-6.96 992.7,-10.4 1002.68,-13.96 1002.73,-6.96"/>
</g>
<!-- Node31&#45;&gt;Node8 -->
<g id="edge67" class="edge">
<title>Node31&#45;&gt;Node8</title>
<path fill="none" stroke="midnightblue" d="M1061.41,-504.44C1009.59,-494.92 925.87,-479.55 870.38,-469.36"/>
<polygon fill="midnightblue" stroke="midnightblue" points="870.84,-465.88 860.37,-467.52 869.57,-472.77 870.84,-465.88"/>
</g>
<!-- Node31&#45;&gt;Node16 -->
<g id="edge68" class="edge">
<title>Node31&#45;&gt;Node16</title>
<path fill="none" stroke="midnightblue" d="M1054.37,-504.47C1014.57,-497.23 959.41,-485.24 913,-468 895.11,-461.35 893.03,-454.25 875,-448 791.73,-419.15 759.62,-449.78 680,-412 575.74,-362.52 540.89,-343.25 482,-244 462.82,-211.67 458.18,-166.9 457.17,-141.87"/>
<polygon fill="midnightblue" stroke="midnightblue" points="460.66,-141.51 456.91,-131.6 453.66,-141.68 460.66,-141.51"/>
</g>
<!-- Node31&#45;&gt;Node17 -->
<g id="edge70" class="edge">
<title>Node31&#45;&gt;Node17</title>
<path fill="none" stroke="midnightblue" d="M1106.91,-504.34C1104.07,-483.82 1095.2,-431.07 1075,-392 1069.56,-381.49 1061.37,-371.19 1054.07,-363.1"/>
<polygon fill="midnightblue" stroke="midnightblue" points="1056.62,-360.69 1047.21,-355.82 1051.52,-365.5 1056.62,-360.69"/>
</g>
<!-- Node31&#45;&gt;Node22 -->
<g id="edge71" class="edge">
<title>Node31&#45;&gt;Node22</title>
<path fill="none" stroke="midnightblue" d="M1120.02,-504.4C1150.62,-482.13 1233.11,-419.88 1290,-356 1310,-333.54 1317.85,-328.31 1328,-300 1333.32,-285.15 1334.63,-267.23 1334.72,-253.97"/>
<polygon fill="midnightblue" stroke="midnightblue" points="1338.21,-253.65 1334.55,-243.71 1331.21,-253.76 1338.21,-253.65"/>
</g>
<!-- Node32 -->
<g id="node32" class="node">
<title>Node32</title>
<g id="a_node32"><a xlink:href="../../d4/dba/CRTP_8hpp.html" target="_top" xlink:title=" ">
<polygon fill="white" stroke="black" points="1212,-448.5 1212,-467.5 1346,-467.5 1346,-448.5 1212,-448.5"/>
<text text-anchor="middle" x="1279" y="-455.5" font-family="Helvetica,sans-Serif" font-size="10.00">AH/Containers/CRTP.hpp</text>
</a>
</g>
</g>
<!-- Node31&#45;&gt;Node32 -->
<g id="edge60" class="edge">
<title>Node31&#45;&gt;Node32</title>
<path fill="none" stroke="midnightblue" d="M1135.1,-504.44C1163.99,-495.32 1209.92,-480.81 1242.11,-470.65"/>
<polygon fill="midnightblue" stroke="midnightblue" points="1243.55,-473.87 1252.03,-467.52 1241.44,-467.19 1243.55,-473.87"/>
</g>
<!-- Node33 -->
<g id="node33" class="node">
<title>Node33</title>
<g id="a_node33"><a xlink:href="../../de/dd1/LinkedList_8hpp.html" target="_top" xlink:title=" ">
<polygon fill="white" stroke="black" points="921.5,-448.5 921.5,-467.5 1080.5,-467.5 1080.5,-448.5 921.5,-448.5"/>
<text text-anchor="middle" x="1001" y="-455.5" font-family="Helvetica,sans-Serif" font-size="10.00">AH/Containers/LinkedList.hpp</text>
</a>
</g>
</g>
<!-- Node31&#45;&gt;Node33 -->
<g id="edge61" class="edge">
<title>Node31&#45;&gt;Node33</title>
<path fill="none" stroke="midnightblue" d="M1090.81,-504.32C1073.65,-495.66 1047.05,-482.24 1027.25,-472.25"/>
<polygon fill="midnightblue" stroke="midnightblue" points="1028.65,-469.04 1018.15,-467.65 1025.5,-475.28 1028.65,-469.04"/>
</g>
<!-- Node35 -->
<g id="node35" class="node">
<title>Node35</title>
<g id="a_node35"><a xlink:title=" ">
<polygon fill="white" stroke="#bfbfbf" points="1364.5,-448.5 1364.5,-467.5 1447.5,-467.5 1447.5,-448.5 1364.5,-448.5"/>
<text text-anchor="middle" x="1406" y="-455.5" font-family="Helvetica,sans-Serif" font-size="10.00">AH/STL/utility</text>
</a>
</g>
</g>
<!-- Node31&#45;&gt;Node35 -->
<g id="edge69" class="edge">
<title>Node31&#45;&gt;Node35</title>
<path fill="none" stroke="midnightblue" d="M1155.22,-504.44C1209.45,-494.62 1298.13,-478.55 1354.21,-468.38"/>
<polygon fill="midnightblue" stroke="midnightblue" points="1355.08,-471.79 1364.29,-466.56 1353.83,-464.9 1355.08,-471.79"/>
</g>
<!-- Node33&#45;&gt;Node2 -->
<g id="edge62" class="edge">
<title>Node33&#45;&gt;Node2</title>
<path fill="none" stroke="midnightblue" d="M1074.17,-448.44C1186.85,-430.73 1390,-378.85 1390,-235 1390,-235 1390,-235 1390,-121 1390,-42.45 1137.45,-19.95 1003,-13.53"/>
<polygon fill="midnightblue" stroke="midnightblue" points="1002.89,-10.03 992.74,-13.07 1002.57,-17.02 1002.89,-10.03"/>
</g>
<!-- Node33&#45;&gt;Node9 -->
<g id="edge63" class="edge">
<title>Node33&#45;&gt;Node9</title>
<path fill="none" stroke="midnightblue" d="M990.24,-448.32C980.23,-440.26 965.11,-428.08 953.07,-418.37"/>
<polygon fill="midnightblue" stroke="midnightblue" points="954.94,-415.38 944.96,-411.83 950.55,-420.83 954.94,-415.38"/>
</g>
<!-- Node33&#45;&gt;Node13 -->
<g id="edge64" class="edge">
<title>Node33&#45;&gt;Node13</title>
<path fill="none" stroke="midnightblue" d="M956.09,-448.45C928.22,-441.67 892.59,-430.24 865,-412 781.99,-357.13 767.77,-329.58 717,-244 697.02,-210.33 683.78,-166.08 677.41,-141.5"/>
<polygon fill="midnightblue" stroke="midnightblue" points="680.79,-140.55 674.97,-131.7 673.99,-142.25 680.79,-140.55"/>
</g>
<!-- Node33&#45;&gt;Node25 -->
<g id="edge66" class="edge">
<title>Node33&#45;&gt;Node25</title>
<path fill="none" stroke="midnightblue" d="M958.69,-448.44C911.92,-438.98 836.54,-423.74 786.15,-413.55"/>
<polygon fill="midnightblue" stroke="midnightblue" points="786.6,-410.07 776.11,-411.52 785.22,-416.93 786.6,-410.07"/>
</g>
<!-- Node34 -->
<g id="node34" class="node">
<title>Node34</title>
<g id="a_node34"><a xlink:title=" ">
<polygon fill="white" stroke="#bfbfbf" points="1012.5,-392.5 1012.5,-411.5 1065.5,-411.5 1065.5,-392.5 1012.5,-392.5"/>
<text text-anchor="middle" x="1039" y="-399.5" font-family="Helvetica,sans-Serif" font-size="10.00">stdlib.h</text>
</a>
</g>
</g>
<!-- Node33&#45;&gt;Node34 -->
<g id="edge65" class="edge">
<title>Node33&#45;&gt;Node34</title>
<path fill="none" stroke="midnightblue" d="M1007.27,-448.08C1012.64,-440.46 1020.52,-429.26 1027.08,-419.94"/>
<polygon fill="midnightblue" stroke="midnightblue" points="1029.95,-421.94 1032.84,-411.75 1024.22,-417.91 1029.95,-421.94"/>
</g>
</g>
</svg>
