<?xml version="1.0" encoding="UTF-8" standalone="no"?>
<!DOCTYPE svg PUBLIC "-//W3C//DTD SVG 1.1//EN"
 "http://www.w3.org/Graphics/SVG/1.1/DTD/svg11.dtd">
<!-- Generated by graphviz version 2.43.0 (0)
 -->
<!-- Title: MAX7219.hpp Pages: 1 -->
<svg width="1406pt" height="901pt"
 viewBox="0.00 0.00 1406.00 901.00" xmlns="http://www.w3.org/2000/svg" xmlns:xlink="http://www.w3.org/1999/xlink">
<g id="graph0" class="graph" transform="scale(1 1) rotate(0) translate(4 897)">
<title>MAX7219.hpp</title>
<polygon fill="white" stroke="transparent" points="-4,4 -4,-897 1402,-897 1402,4 -4,4"/>
<!-- Node1 -->
<g id="node1" class="node">
<title>Node1</title>
<g id="a_node1"><a xlink:title=" ">
<polygon fill="#bfbfbf" stroke="black" points="441,-873.5 441,-892.5 525,-892.5 525,-873.5 441,-873.5"/>
<text text-anchor="middle" x="483" y="-880.5" font-family="Helvetica,sans-Serif" font-size="10.00">MAX7219.hpp</text>
</a>
</g>
</g>
<!-- Node2 -->
<g id="node2" class="node">
<title>Node2</title>
<g id="a_node2"><a xlink:href="../../d2/d05/StaticSizeExtendedIOElement_8hpp.html" target="_top" xlink:title=" ">
<polygon fill="white" stroke="black" points="582,-812 582,-831 764,-831 764,-812 582,-812"/>
<text text-anchor="middle" x="673" y="-819" font-family="Helvetica,sans-Serif" font-size="10.00">StaticSizeExtendedIOElement.hpp</text>
</a>
</g>
</g>
<!-- Node1&#45;&gt;Node2 -->
<g id="edge1" class="edge">
<title>Node1&#45;&gt;Node2</title>
<path fill="none" stroke="midnightblue" d="M510.22,-873.48C543.24,-863.14 599.04,-845.66 635.95,-834.1"/>
<polygon fill="midnightblue" stroke="midnightblue" points="637.33,-837.34 645.83,-831.01 635.24,-830.66 637.33,-837.34"/>
</g>
<!-- Node38 -->
<g id="node38" class="node">
<title>Node38</title>
<g id="a_node38"><a xlink:href="../../d1/d40/BitArray_8hpp.html" target="_top" xlink:title=" ">
<polygon fill="white" stroke="black" points="272.5,-504.5 272.5,-523.5 421.5,-523.5 421.5,-504.5 272.5,-504.5"/>
<text text-anchor="middle" x="347" y="-511.5" font-family="Helvetica,sans-Serif" font-size="10.00">AH/Containers/BitArray.hpp</text>
</a>
</g>
</g>
<!-- Node1&#45;&gt;Node38 -->
<g id="edge61" class="edge">
<title>Node1&#45;&gt;Node38</title>
<path fill="none" stroke="midnightblue" d="M456.45,-873.42C437.43,-866.18 412.24,-854.22 395,-837 368.14,-810.17 356,-798.97 356,-761 356,-761 356,-761 356,-641.5 356,-603.11 351.82,-558.32 349.16,-533.67"/>
<polygon fill="midnightblue" stroke="midnightblue" points="352.62,-533.12 348.03,-523.57 345.67,-533.9 352.62,-533.12"/>
</g>
<!-- Node39 -->
<g id="node39" class="node">
<title>Node39</title>
<g id="a_node39"><a xlink:href="../../d7/d13/MAX7219__Base_8hpp.html" target="_top" xlink:title=" ">
<polygon fill="white" stroke="black" points="404,-806.5 404,-836.5 562,-836.5 562,-806.5 404,-806.5"/>
<text text-anchor="start" x="412" y="-824.5" font-family="Helvetica,sans-Serif" font-size="10.00">AH/Hardware/LEDs/MAX7219</text>
<text text-anchor="middle" x="483" y="-813.5" font-family="Helvetica,sans-Serif" font-size="10.00">_Base.hpp</text>
</a>
</g>
</g>
<!-- Node1&#45;&gt;Node39 -->
<g id="edge65" class="edge">
<title>Node1&#45;&gt;Node39</title>
<path fill="none" stroke="midnightblue" d="M483,-873.48C483,-866.47 483,-856.19 483,-846.7"/>
<polygon fill="midnightblue" stroke="midnightblue" points="486.5,-846.52 483,-836.52 479.5,-846.52 486.5,-846.52"/>
</g>
<!-- Node3 -->
<g id="node3" class="node">
<title>Node3</title>
<g id="a_node3"><a xlink:href="../../d4/d57/ExtendedIOElement_8hpp.html" target="_top" xlink:title=" ">
<polygon fill="white" stroke="black" points="606,-750.5 606,-769.5 740,-769.5 740,-750.5 606,-750.5"/>
<text text-anchor="middle" x="673" y="-757.5" font-family="Helvetica,sans-Serif" font-size="10.00">ExtendedIOElement.hpp</text>
</a>
</g>
</g>
<!-- Node2&#45;&gt;Node3 -->
<g id="edge2" class="edge">
<title>Node2&#45;&gt;Node3</title>
<path fill="none" stroke="midnightblue" d="M673,-811.98C673,-803.58 673,-790.48 673,-779.66"/>
<polygon fill="midnightblue" stroke="midnightblue" points="676.5,-779.51 673,-769.51 669.5,-779.51 676.5,-779.51"/>
</g>
<!-- Node36 -->
<g id="node36" class="node">
<title>Node36</title>
<g id="a_node36"><a xlink:href="../../d5/db6/ArrayHelpers_8hpp.html" target="_top" xlink:title=" ">
<polygon fill="white" stroke="black" points="1105,-566 1105,-585 1279,-585 1279,-566 1105,-566"/>
<text text-anchor="middle" x="1192" y="-573" font-family="Helvetica,sans-Serif" font-size="10.00">AH/Containers/ArrayHelpers.hpp</text>
</a>
</g>
</g>
<!-- Node2&#45;&gt;Node36 -->
<g id="edge57" class="edge">
<title>Node2&#45;&gt;Node36</title>
<path fill="none" stroke="midnightblue" d="M691.17,-811.96C768.62,-775.54 1071.55,-633.13 1164.64,-589.36"/>
<polygon fill="midnightblue" stroke="midnightblue" points="1166.15,-592.52 1173.71,-585.1 1163.17,-586.19 1166.15,-592.52"/>
</g>
<!-- Node4 -->
<g id="node4" class="node">
<title>Node4</title>
<g id="a_node4"><a xlink:href="../../dd/ddf/ExtendedInputOutput_8hpp.html" target="_top" xlink:title=" ">
<polygon fill="white" stroke="black" points="410.5,-694.5 410.5,-713.5 551.5,-713.5 551.5,-694.5 410.5,-694.5"/>
<text text-anchor="middle" x="481" y="-701.5" font-family="Helvetica,sans-Serif" font-size="10.00">ExtendedInputOutput.hpp</text>
</a>
</g>
</g>
<!-- Node3&#45;&gt;Node4 -->
<g id="edge3" class="edge">
<title>Node3&#45;&gt;Node4</title>
<path fill="none" stroke="midnightblue" d="M642.58,-750.44C609.72,-741.2 557.22,-726.44 521.03,-716.26"/>
<polygon fill="midnightblue" stroke="midnightblue" points="521.85,-712.85 511.28,-713.52 519.96,-719.59 521.85,-712.85"/>
</g>
<!-- Node6 -->
<g id="node6" class="node">
<title>Node6</title>
<g id="a_node6"><a xlink:href="../../d4/d35/Hardware-Types_8hpp.html" target="_top" xlink:title=" ">
<polygon fill="white" stroke="black" points="421.5,-560.5 421.5,-590.5 552.5,-590.5 552.5,-560.5 421.5,-560.5"/>
<text text-anchor="start" x="429.5" y="-578.5" font-family="Helvetica,sans-Serif" font-size="10.00">AH/Hardware/Hardware</text>
<text text-anchor="middle" x="487" y="-567.5" font-family="Helvetica,sans-Serif" font-size="10.00">&#45;Types.hpp</text>
</a>
</g>
</g>
<!-- Node3&#45;&gt;Node6 -->
<g id="edge56" class="edge">
<title>Node3&#45;&gt;Node6</title>
<path fill="none" stroke="midnightblue" d="M674.61,-750.34C678.38,-727.22 685.24,-663.34 654,-627 631.36,-600.67 595.51,-587.79 562.82,-581.6"/>
<polygon fill="midnightblue" stroke="midnightblue" points="563.24,-578.12 552.79,-579.89 562.06,-585.02 563.24,-578.12"/>
</g>
<!-- Node31 -->
<g id="node31" class="node">
<title>Node31</title>
<g id="a_node31"><a xlink:href="../../d4/d93/Updatable_8hpp.html" target="_top" xlink:title=" ">
<polygon fill="white" stroke="black" points="765.5,-504.5 765.5,-523.5 926.5,-523.5 926.5,-504.5 765.5,-504.5"/>
<text text-anchor="middle" x="846" y="-511.5" font-family="Helvetica,sans-Serif" font-size="10.00">AH/Containers/Updatable.hpp</text>
</a>
</g>
</g>
<!-- Node3&#45;&gt;Node31 -->
<g id="edge44" class="edge">
<title>Node3&#45;&gt;Node31</title>
<path fill="none" stroke="midnightblue" d="M679.16,-750.32C704.38,-714.74 800.08,-579.76 834,-531.93"/>
<polygon fill="midnightblue" stroke="midnightblue" points="836.99,-533.76 839.92,-523.58 831.28,-529.71 836.99,-533.76"/>
</g>
<!-- Node5 -->
<g id="node5" class="node">
<title>Node5</title>
<g id="a_node5"><a xlink:href="../../d2/d3c/Arduino-Hardware-Types_8hpp.html" target="_top" xlink:title=" ">
<polygon fill="white" stroke="black" points="417,-627.5 417,-657.5 539,-657.5 539,-627.5 417,-627.5"/>
<text text-anchor="start" x="425" y="-645.5" font-family="Helvetica,sans-Serif" font-size="10.00">AH/Hardware/Arduino</text>
<text text-anchor="middle" x="478" y="-634.5" font-family="Helvetica,sans-Serif" font-size="10.00">&#45;Hardware&#45;Types.hpp</text>
</a>
</g>
</g>
<!-- Node4&#45;&gt;Node5 -->
<g id="edge4" class="edge">
<title>Node4&#45;&gt;Node5</title>
<path fill="none" stroke="midnightblue" d="M480.57,-694.48C480.22,-687.47 479.7,-677.19 479.22,-667.7"/>
<polygon fill="midnightblue" stroke="midnightblue" points="482.71,-667.33 478.71,-657.52 475.72,-667.69 482.71,-667.33"/>
</g>
<!-- Node16 -->
<g id="node16" class="node">
<title>Node16</title>
<g id="a_node16"><a xlink:href="../../dc/dc7/NamespaceSettings_8hpp.html" target="_top" xlink:title=" ">
<polygon fill="white" stroke="black" points="424.5,-56.5 424.5,-75.5 619.5,-75.5 619.5,-56.5 424.5,-56.5"/>
<text text-anchor="middle" x="522" y="-63.5" font-family="Helvetica,sans-Serif" font-size="10.00">AH/Settings/NamespaceSettings.hpp</text>
</a>
</g>
</g>
<!-- Node4&#45;&gt;Node16 -->
<g id="edge43" class="edge">
<title>Node4&#45;&gt;Node16</title>
<path fill="none" stroke="midnightblue" d="M410.29,-699.09C276.58,-689.75 0,-660.31 0,-576.5 0,-576.5 0,-576.5 0,-177 0,-93.14 261.2,-72.88 414.07,-68.2"/>
<polygon fill="midnightblue" stroke="midnightblue" points="414.53,-71.69 424.43,-67.9 414.33,-64.69 414.53,-71.69"/>
</g>
<!-- Node30 -->
<g id="node30" class="node">
<title>Node30</title>
<g id="a_node30"><a xlink:title=" ">
<polygon fill="white" stroke="#bfbfbf" points="557.5,-633 557.5,-652 644.5,-652 644.5,-633 557.5,-633"/>
<text text-anchor="middle" x="601" y="-640" font-family="Helvetica,sans-Serif" font-size="10.00">AH/STL/climits</text>
</a>
</g>
</g>
<!-- Node4&#45;&gt;Node30 -->
<g id="edge42" class="edge">
<title>Node4&#45;&gt;Node30</title>
<path fill="none" stroke="midnightblue" d="M498.19,-694.48C518.24,-684.53 551.6,-667.99 574.86,-656.46"/>
<polygon fill="midnightblue" stroke="midnightblue" points="576.43,-659.59 583.84,-652.01 573.32,-653.32 576.43,-659.59"/>
</g>
<!-- Node5&#45;&gt;Node6 -->
<g id="edge5" class="edge">
<title>Node5&#45;&gt;Node6</title>
<path fill="none" stroke="midnightblue" d="M479.95,-627.4C481.04,-619.56 482.42,-609.6 483.67,-600.57"/>
<polygon fill="midnightblue" stroke="midnightblue" points="487.15,-600.96 485.05,-590.58 480.21,-600 487.15,-600.96"/>
</g>
<!-- Node11 -->
<g id="node11" class="node">
<title>Node11</title>
<g id="a_node11"><a xlink:href="../../d6/ddf/Arduino-Wrapper_8h.html" target="_top" xlink:title=" ">
<polygon fill="white" stroke="black" points="1115,-168.5 1115,-187.5 1239,-187.5 1239,-168.5 1115,-168.5"/>
<text text-anchor="middle" x="1177" y="-175.5" font-family="Helvetica,sans-Serif" font-size="10.00">AH/Arduino&#45;Wrapper.h</text>
</a>
</g>
</g>
<!-- Node5&#45;&gt;Node11 -->
<g id="edge41" class="edge">
<title>Node5&#45;&gt;Node11</title>
<path fill="none" stroke="midnightblue" d="M539.09,-628.41C542.44,-627.88 545.75,-627.41 549,-627 712.13,-606.49 1132.28,-643.75 1288,-591 1344.28,-571.93 1398,-574.42 1398,-515 1398,-515 1398,-515 1398,-457 1398,-331.14 1257.48,-229.23 1200.54,-193.11"/>
<polygon fill="midnightblue" stroke="midnightblue" points="1202.18,-190.01 1191.84,-187.7 1198.48,-195.95 1202.18,-190.01"/>
</g>
<!-- Node27 -->
<g id="node27" class="node">
<title>Node27</title>
<g id="a_node27"><a xlink:href="../../d0/db1/FunctionTraits_8hpp.html" target="_top" xlink:title=" ">
<polygon fill="white" stroke="black" points="80.5,-566 80.5,-585 233.5,-585 233.5,-566 80.5,-566"/>
<text text-anchor="middle" x="157" y="-573" font-family="Helvetica,sans-Serif" font-size="10.00">AH/Types/FunctionTraits.hpp</text>
</a>
</g>
</g>
<!-- Node5&#45;&gt;Node27 -->
<g id="edge37" class="edge">
<title>Node5&#45;&gt;Node27</title>
<path fill="none" stroke="midnightblue" d="M416.87,-629.12C356.63,-616.92 265.62,-598.49 208.83,-587"/>
<polygon fill="midnightblue" stroke="midnightblue" points="209.48,-583.56 198.99,-585 208.09,-590.42 209.48,-583.56"/>
</g>
<!-- Node7 -->
<g id="node7" class="node">
<title>Node7</title>
<g id="a_node7"><a xlink:href="../../de/d76/Array_8hpp.html" target="_top" xlink:title=" ">
<polygon fill="white" stroke="black" points="1076.5,-504.5 1076.5,-523.5 1211.5,-523.5 1211.5,-504.5 1076.5,-504.5"/>
<text text-anchor="middle" x="1144" y="-511.5" font-family="Helvetica,sans-Serif" font-size="10.00">AH/Containers/Array.hpp</text>
</a>
</g>
</g>
<!-- Node6&#45;&gt;Node7 -->
<g id="edge6" class="edge">
<title>Node6&#45;&gt;Node7</title>
<path fill="none" stroke="midnightblue" d="M552.7,-568.55C674.68,-557.5 935.58,-533.87 1066.18,-522.05"/>
<polygon fill="midnightblue" stroke="midnightblue" points="1066.85,-525.5 1076.49,-521.11 1066.22,-518.53 1066.85,-525.5"/>
</g>
<!-- Node6&#45;&gt;Node16 -->
<g id="edge35" class="edge">
<title>Node6&#45;&gt;Node16</title>
<path fill="none" stroke="midnightblue" d="M475.5,-560.33C448.82,-525.98 385,-434.65 385,-347 385,-347 385,-347 385,-177 385,-126 443.45,-94.69 483.99,-79.11"/>
<polygon fill="midnightblue" stroke="midnightblue" points="485.43,-82.31 493.61,-75.58 483.02,-75.74 485.43,-82.31"/>
</g>
<!-- Node24 -->
<g id="node24" class="node">
<title>Node24</title>
<g id="a_node24"><a xlink:title=" ">
<polygon fill="white" stroke="#bfbfbf" points="434.5,-224.5 434.5,-243.5 487.5,-243.5 487.5,-224.5 434.5,-224.5"/>
<text text-anchor="middle" x="461" y="-231.5" font-family="Helvetica,sans-Serif" font-size="10.00">stdint.h</text>
</a>
</g>
</g>
<!-- Node6&#45;&gt;Node24 -->
<g id="edge36" class="edge">
<title>Node6&#45;&gt;Node24</title>
<path fill="none" stroke="midnightblue" d="M483.38,-560.38C476.24,-531.2 461,-462.02 461,-403 461,-403 461,-403 461,-345 461,-312.95 461,-275.64 461,-253.75"/>
<polygon fill="midnightblue" stroke="midnightblue" points="464.5,-253.56 461,-243.56 457.5,-253.56 464.5,-253.56"/>
</g>
<!-- Node8 -->
<g id="node8" class="node">
<title>Node8</title>
<g id="a_node8"><a xlink:href="../../d1/d93/Error_8hpp.html" target="_top" xlink:title=" ">
<polygon fill="white" stroke="black" points="679,-448.5 679,-467.5 783,-467.5 783,-448.5 679,-448.5"/>
<text text-anchor="middle" x="731" y="-455.5" font-family="Helvetica,sans-Serif" font-size="10.00">AH/Error/Error.hpp</text>
</a>
</g>
</g>
<!-- Node7&#45;&gt;Node8 -->
<g id="edge7" class="edge">
<title>Node7&#45;&gt;Node8</title>
<path fill="none" stroke="midnightblue" d="M1076.34,-504.66C1005.62,-495.87 891.46,-481.46 793,-468 792.9,-467.99 792.8,-467.97 792.7,-467.96"/>
<polygon fill="midnightblue" stroke="midnightblue" points="793.47,-464.53 783.09,-466.63 792.51,-471.47 793.47,-464.53"/>
</g>
<!-- Node17 -->
<g id="node17" class="node">
<title>Node17</title>
<g id="a_node17"><a xlink:title=" ">
<polygon fill="white" stroke="#bfbfbf" points="1230.5,-112.5 1230.5,-131.5 1337.5,-131.5 1337.5,-112.5 1230.5,-112.5"/>
<text text-anchor="middle" x="1284" y="-119.5" font-family="Helvetica,sans-Serif" font-size="10.00">AH/STL/type_traits</text>
</a>
</g>
</g>
<!-- Node7&#45;&gt;Node17 -->
<g id="edge33" class="edge">
<title>Node7&#45;&gt;Node17</title>
<path fill="none" stroke="midnightblue" d="M1211.75,-506.7C1275.1,-496.63 1360,-470.54 1360,-403 1360,-403 1360,-403 1360,-233 1360,-193.28 1326.04,-157.5 1303.52,-138.15"/>
<polygon fill="midnightblue" stroke="midnightblue" points="1305.48,-135.24 1295.54,-131.57 1301.02,-140.63 1305.48,-135.24"/>
</g>
<!-- Node23 -->
<g id="node23" class="node">
<title>Node23</title>
<g id="a_node23"><a xlink:title=" ">
<polygon fill="white" stroke="#bfbfbf" points="988,-224.5 988,-243.5 1044,-243.5 1044,-224.5 988,-224.5"/>
<text text-anchor="middle" x="1016" y="-231.5" font-family="Helvetica,sans-Serif" font-size="10.00">stddef.h</text>
</a>
</g>
</g>
<!-- Node7&#45;&gt;Node23 -->
<g id="edge34" class="edge">
<title>Node7&#45;&gt;Node23</title>
<path fill="none" stroke="midnightblue" d="M1142.31,-504.34C1138.06,-483.82 1125.7,-431.07 1104,-392 1093.89,-373.79 1085.25,-373.52 1074,-356 1051.85,-321.51 1032.75,-277.27 1022.97,-252.97"/>
<polygon fill="midnightblue" stroke="midnightblue" points="1026.19,-251.61 1019.26,-243.59 1019.68,-254.18 1026.19,-251.61"/>
</g>
<!-- Node26 -->
<g id="node26" class="node">
<title>Node26</title>
<g id="a_node26"><a xlink:title=" ">
<polygon fill="white" stroke="#bfbfbf" points="972,-392.5 972,-411.5 1062,-411.5 1062,-392.5 972,-392.5"/>
<text text-anchor="middle" x="1017" y="-399.5" font-family="Helvetica,sans-Serif" font-size="10.00">AH/STL/iterator</text>
</a>
</g>
</g>
<!-- Node7&#45;&gt;Node26 -->
<g id="edge32" class="edge">
<title>Node7&#45;&gt;Node26</title>
<path fill="none" stroke="midnightblue" d="M1134.64,-504.49C1120.83,-491.97 1094.14,-467.94 1071,-448 1059.18,-437.82 1045.7,-426.59 1035.17,-417.89"/>
<polygon fill="midnightblue" stroke="midnightblue" points="1037.38,-415.18 1027.44,-411.53 1032.93,-420.58 1037.38,-415.18"/>
</g>
<!-- Node9 -->
<g id="node9" class="node">
<title>Node9</title>
<g id="a_node9"><a xlink:href="../../df/dee/Debug_8hpp.html" target="_top" xlink:title=" ">
<polygon fill="white" stroke="black" points="670.5,-392.5 670.5,-411.5 791.5,-411.5 791.5,-392.5 670.5,-392.5"/>
<text text-anchor="middle" x="731" y="-399.5" font-family="Helvetica,sans-Serif" font-size="10.00">AH/Debug/Debug.hpp</text>
</a>
</g>
</g>
<!-- Node8&#45;&gt;Node9 -->
<g id="edge8" class="edge">
<title>Node8&#45;&gt;Node9</title>
<path fill="none" stroke="midnightblue" d="M731,-448.08C731,-441.01 731,-430.86 731,-421.99"/>
<polygon fill="midnightblue" stroke="midnightblue" points="734.5,-421.75 731,-411.75 727.5,-421.75 734.5,-421.75"/>
</g>
<!-- Node10 -->
<g id="node10" class="node">
<title>Node10</title>
<g id="a_node10"><a xlink:href="../../dd/d80/PrintStream_8hpp.html" target="_top" xlink:title=" ">
<polygon fill="white" stroke="black" points="1082.5,-336.5 1082.5,-355.5 1255.5,-355.5 1255.5,-336.5 1082.5,-336.5"/>
<text text-anchor="middle" x="1169" y="-343.5" font-family="Helvetica,sans-Serif" font-size="10.00">AH/PrintStream/PrintStream.hpp</text>
</a>
</g>
</g>
<!-- Node9&#45;&gt;Node10 -->
<g id="edge9" class="edge">
<title>Node9&#45;&gt;Node10</title>
<path fill="none" stroke="midnightblue" d="M791.9,-393.49C869.68,-383.9 1004.43,-367.29 1090.03,-356.74"/>
<polygon fill="midnightblue" stroke="midnightblue" points="1090.46,-360.21 1099.96,-355.51 1089.61,-353.26 1090.46,-360.21"/>
</g>
<!-- Node18 -->
<g id="node18" class="node">
<title>Node18</title>
<g id="a_node18"><a xlink:href="../../d2/dd5/SettingsWrapper_8hpp.html" target="_top" xlink:title=" ">
<polygon fill="white" stroke="black" points="595,-336.5 595,-355.5 773,-355.5 773,-336.5 595,-336.5"/>
<text text-anchor="middle" x="684" y="-343.5" font-family="Helvetica,sans-Serif" font-size="10.00">AH/Settings/SettingsWrapper.hpp</text>
</a>
</g>
</g>
<!-- Node9&#45;&gt;Node18 -->
<g id="edge20" class="edge">
<title>Node9&#45;&gt;Node18</title>
<path fill="none" stroke="midnightblue" d="M718.33,-392.32C710.08,-384.73 699.89,-373.48 692.55,-364.09"/>
<polygon fill="midnightblue" stroke="midnightblue" points="695.25,-361.86 686.54,-355.83 689.59,-365.98 695.25,-361.86"/>
</g>
<!-- Node10&#45;&gt;Node11 -->
<g id="edge10" class="edge">
<title>Node10&#45;&gt;Node11</title>
<path fill="none" stroke="midnightblue" d="M1169.43,-336.08C1170.69,-309.95 1174.39,-233.21 1176.1,-197.58"/>
<polygon fill="midnightblue" stroke="midnightblue" points="1179.6,-197.73 1176.59,-187.57 1172.61,-197.39 1179.6,-197.73"/>
</g>
<!-- Node10&#45;&gt;Node16 -->
<g id="edge19" class="edge">
<title>Node10&#45;&gt;Node16</title>
<path fill="none" stroke="midnightblue" d="M1163.09,-336.2C1147.69,-313.95 1103.95,-255.03 1053,-224 906.84,-135 707.21,-93.86 599.13,-77.05"/>
<polygon fill="midnightblue" stroke="midnightblue" points="599.37,-73.55 588.96,-75.5 598.32,-80.47 599.37,-73.55"/>
</g>
<!-- Node12 -->
<g id="node12" class="node">
<title>Node12</title>
<g id="a_node12"><a xlink:href="../../d7/d79/MinMaxFix_8hpp.html" target="_top" xlink:title=" ">
<polygon fill="white" stroke="black" points="1030,-112.5 1030,-131.5 1166,-131.5 1166,-112.5 1030,-112.5"/>
<text text-anchor="middle" x="1098" y="-119.5" font-family="Helvetica,sans-Serif" font-size="10.00">AH/Math/MinMaxFix.hpp</text>
</a>
</g>
</g>
<!-- Node11&#45;&gt;Node12 -->
<g id="edge11" class="edge">
<title>Node11&#45;&gt;Node12</title>
<path fill="none" stroke="midnightblue" d="M1164.31,-168.32C1152.1,-159.98 1133.42,-147.21 1119,-137.35"/>
<polygon fill="midnightblue" stroke="midnightblue" points="1120.89,-134.41 1110.66,-131.65 1116.94,-140.19 1120.89,-134.41"/>
</g>
<!-- Node15 -->
<g id="node15" class="node">
<title>Node15</title>
<g id="a_node15"><a xlink:title=" ">
<polygon fill="white" stroke="#bfbfbf" points="1105.5,-0.5 1105.5,-19.5 1168.5,-19.5 1168.5,-0.5 1105.5,-0.5"/>
<text text-anchor="middle" x="1137" y="-7.5" font-family="Helvetica,sans-Serif" font-size="10.00">Arduino.h</text>
</a>
</g>
</g>
<!-- Node11&#45;&gt;Node15 -->
<g id="edge18" class="edge">
<title>Node11&#45;&gt;Node15</title>
<path fill="none" stroke="midnightblue" d="M1178.76,-168.42C1182.53,-148.1 1189.91,-95.74 1175,-56 1170.85,-44.94 1162.71,-34.7 1155.03,-26.79"/>
<polygon fill="midnightblue" stroke="midnightblue" points="1157.29,-24.12 1147.66,-19.72 1152.45,-29.17 1157.29,-24.12"/>
</g>
<!-- Node11&#45;&gt;Node17 -->
<g id="edge17" class="edge">
<title>Node11&#45;&gt;Node17</title>
<path fill="none" stroke="midnightblue" d="M1194.19,-168.32C1211.35,-159.66 1237.95,-146.24 1257.75,-136.25"/>
<polygon fill="midnightblue" stroke="midnightblue" points="1259.5,-139.28 1266.85,-131.65 1256.35,-133.04 1259.5,-139.28"/>
</g>
<!-- Node13 -->
<g id="node13" class="node">
<title>Node13</title>
<g id="a_node13"><a xlink:href="../../d6/d3b/FixArduinoMacros_8hpp.html" target="_top" xlink:title=" ">
<polygon fill="white" stroke="black" points="996,-56.5 996,-75.5 1166,-75.5 1166,-56.5 996,-56.5"/>
<text text-anchor="middle" x="1081" y="-63.5" font-family="Helvetica,sans-Serif" font-size="10.00">AH/Math/FixArduinoMacros.hpp</text>
</a>
</g>
</g>
<!-- Node12&#45;&gt;Node13 -->
<g id="edge12" class="edge">
<title>Node12&#45;&gt;Node13</title>
<path fill="none" stroke="midnightblue" d="M1095.19,-112.08C1092.92,-104.85 1089.63,-94.41 1086.79,-85.4"/>
<polygon fill="midnightblue" stroke="midnightblue" points="1090.1,-84.24 1083.75,-75.75 1083.42,-86.34 1090.1,-84.24"/>
</g>
<!-- Node12&#45;&gt;Node16 -->
<g id="edge15" class="edge">
<title>Node12&#45;&gt;Node16</title>
<path fill="none" stroke="midnightblue" d="M1030,-113.44C1025.26,-112.94 1020.56,-112.46 1016,-112 883.04,-98.65 729.77,-84.95 629.66,-76.23"/>
<polygon fill="midnightblue" stroke="midnightblue" points="629.8,-72.73 619.53,-75.35 629.19,-79.7 629.8,-72.73"/>
</g>
<!-- Node14 -->
<g id="node14" class="node">
<title>Node14</title>
<g id="a_node14"><a xlink:href="../../d1/d65/Warnings_8hpp.html" target="_top" xlink:title=" ">
<polygon fill="white" stroke="black" points="744.5,-0.5 744.5,-19.5 887.5,-19.5 887.5,-0.5 744.5,-0.5"/>
<text text-anchor="middle" x="816" y="-7.5" font-family="Helvetica,sans-Serif" font-size="10.00">AH/Settings/Warnings.hpp</text>
</a>
</g>
</g>
<!-- Node13&#45;&gt;Node14 -->
<g id="edge13" class="edge">
<title>Node13&#45;&gt;Node14</title>
<path fill="none" stroke="midnightblue" d="M1039.01,-56.44C992.59,-46.98 917.77,-31.74 867.76,-21.55"/>
<polygon fill="midnightblue" stroke="midnightblue" points="868.29,-18.08 857.79,-19.52 866.89,-24.94 868.29,-18.08"/>
</g>
<!-- Node13&#45;&gt;Node15 -->
<g id="edge14" class="edge">
<title>Node13&#45;&gt;Node15</title>
<path fill="none" stroke="midnightblue" d="M1090,-56.32C1098.19,-48.42 1110.51,-36.55 1120.47,-26.94"/>
<polygon fill="midnightblue" stroke="midnightblue" points="1123.07,-29.29 1127.84,-19.83 1118.21,-24.26 1123.07,-29.29"/>
</g>
<!-- Node16&#45;&gt;Node14 -->
<g id="edge16" class="edge">
<title>Node16&#45;&gt;Node14</title>
<path fill="none" stroke="midnightblue" d="M568.59,-56.44C620.41,-46.92 704.13,-31.55 759.62,-21.36"/>
<polygon fill="midnightblue" stroke="midnightblue" points="760.43,-24.77 769.63,-19.52 759.16,-17.88 760.43,-24.77"/>
</g>
<!-- Node18&#45;&gt;Node9 -->
<g id="edge31" class="edge">
<title>Node18&#45;&gt;Node9</title>
<path fill="none" stroke="midnightblue" d="M696.75,-355.75C704.97,-363.33 715.1,-374.5 722.41,-383.86"/>
<polygon fill="midnightblue" stroke="midnightblue" points="719.69,-386.06 728.41,-392.08 725.35,-381.94 719.69,-386.06"/>
</g>
<!-- Node18&#45;&gt;Node16 -->
<g id="edge21" class="edge">
<title>Node18&#45;&gt;Node16</title>
<path fill="none" stroke="midnightblue" d="M613.29,-336.44C587.92,-330.11 560.94,-319.1 542,-300 520.72,-278.54 522,-265.23 522,-235 522,-235 522,-235 522,-177 522,-144.95 522,-107.64 522,-85.75"/>
<polygon fill="midnightblue" stroke="midnightblue" points="525.5,-85.56 522,-75.56 518.5,-85.56 525.5,-85.56"/>
</g>
<!-- Node19 -->
<g id="node19" class="node">
<title>Node19</title>
<g id="a_node19"><a xlink:href="../../db/d02/Settings_8hpp.html" target="_top" xlink:title="All user settings and debugging options can be changed here.">
<polygon fill="white" stroke="black" points="741.5,-280.5 741.5,-299.5 818.5,-299.5 818.5,-280.5 741.5,-280.5"/>
<text text-anchor="middle" x="780" y="-287.5" font-family="Helvetica,sans-Serif" font-size="10.00">Settings.hpp</text>
</a>
</g>
</g>
<!-- Node18&#45;&gt;Node19 -->
<g id="edge22" class="edge">
<title>Node18&#45;&gt;Node19</title>
<path fill="none" stroke="midnightblue" d="M699.42,-336.32C714.54,-327.82 737.82,-314.73 755.47,-304.8"/>
<polygon fill="midnightblue" stroke="midnightblue" points="757.61,-307.61 764.61,-299.65 754.18,-301.51 757.61,-307.61"/>
</g>
<!-- Node25 -->
<g id="node25" class="node">
<title>Node25</title>
<g id="a_node25"><a xlink:href="../../d9/d98/TeensyUSBTypes_8hpp.html" target="_top" xlink:title=" ">
<polygon fill="white" stroke="black" points="550.5,-280.5 550.5,-299.5 723.5,-299.5 723.5,-280.5 550.5,-280.5"/>
<text text-anchor="middle" x="637" y="-287.5" font-family="Helvetica,sans-Serif" font-size="10.00">AH/Teensy/TeensyUSBTypes.hpp</text>
</a>
</g>
</g>
<!-- Node18&#45;&gt;Node25 -->
<g id="edge30" class="edge">
<title>Node18&#45;&gt;Node25</title>
<path fill="none" stroke="midnightblue" d="M676.24,-336.08C669.46,-328.3 659.46,-316.8 651.24,-307.37"/>
<polygon fill="midnightblue" stroke="midnightblue" points="653.82,-305 644.62,-299.75 648.54,-309.59 653.82,-305"/>
</g>
<!-- Node20 -->
<g id="node20" class="node">
<title>Node20</title>
<g id="a_node20"><a xlink:href="../../dc/d50/Frequency_8hpp.html" target="_top" xlink:title=" ">
<polygon fill="white" stroke="black" points="556,-168.5 556,-187.5 690,-187.5 690,-168.5 556,-168.5"/>
<text text-anchor="middle" x="623" y="-175.5" font-family="Helvetica,sans-Serif" font-size="10.00">AH/Types/Frequency.hpp</text>
</a>
</g>
</g>
<!-- Node19&#45;&gt;Node20 -->
<g id="edge23" class="edge">
<title>Node19&#45;&gt;Node20</title>
<path fill="none" stroke="midnightblue" d="M752.54,-280.48C731.18,-273.01 701.49,-260.72 679,-244 660.96,-230.58 644.72,-210.39 634.44,-196.08"/>
<polygon fill="midnightblue" stroke="midnightblue" points="637.16,-193.86 628.58,-187.65 631.41,-197.86 637.16,-193.86"/>
</g>
<!-- Node21 -->
<g id="node21" class="node">
<title>Node21</title>
<g id="a_node21"><a xlink:href="../../d7/d7c/ADCConfig_8hpp.html" target="_top" xlink:title="This file contains the platform&#45;specific ADC resolutions.">
<polygon fill="white" stroke="black" points="758.5,-224.5 758.5,-243.5 915.5,-243.5 915.5,-224.5 758.5,-224.5"/>
<text text-anchor="middle" x="837" y="-231.5" font-family="Helvetica,sans-Serif" font-size="10.00">AH/Hardware/ADCConfig.hpp</text>
</a>
</g>
</g>
<!-- Node19&#45;&gt;Node21 -->
<g id="edge25" class="edge">
<title>Node19&#45;&gt;Node21</title>
<path fill="none" stroke="midnightblue" d="M789.16,-280.32C797.5,-272.42 810.03,-260.55 820.18,-250.94"/>
<polygon fill="midnightblue" stroke="midnightblue" points="822.82,-253.25 827.68,-243.83 818.01,-248.17 822.82,-253.25"/>
</g>
<!-- Node22 -->
<g id="node22" class="node">
<title>Node22</title>
<g id="a_node22"><a xlink:title=" ">
<polygon fill="white" stroke="#bfbfbf" points="687.5,-224.5 687.5,-243.5 740.5,-243.5 740.5,-224.5 687.5,-224.5"/>
<text text-anchor="middle" x="714" y="-231.5" font-family="Helvetica,sans-Serif" font-size="10.00">limits.h</text>
</a>
</g>
</g>
<!-- Node19&#45;&gt;Node22 -->
<g id="edge27" class="edge">
<title>Node19&#45;&gt;Node22</title>
<path fill="none" stroke="midnightblue" d="M769.4,-280.32C759.54,-272.26 744.65,-260.08 732.78,-250.37"/>
<polygon fill="midnightblue" stroke="midnightblue" points="734.75,-247.46 724.8,-243.83 730.32,-252.88 734.75,-247.46"/>
</g>
<!-- Node19&#45;&gt;Node23 -->
<g id="edge28" class="edge">
<title>Node19&#45;&gt;Node23</title>
<path fill="none" stroke="midnightblue" d="M817.39,-280.44C861.29,-270.4 933.68,-253.84 977.88,-243.72"/>
<polygon fill="midnightblue" stroke="midnightblue" points="978.7,-247.13 987.67,-241.48 977.14,-240.3 978.7,-247.13"/>
</g>
<!-- Node19&#45;&gt;Node24 -->
<g id="edge29" class="edge">
<title>Node19&#45;&gt;Node24</title>
<path fill="none" stroke="midnightblue" d="M741.29,-281.51C738.48,-280.99 735.7,-280.48 733,-280 649.02,-265.02 550.14,-249.08 497.81,-240.79"/>
<polygon fill="midnightblue" stroke="midnightblue" points="498.1,-237.29 487.68,-239.18 497.01,-244.2 498.1,-237.29"/>
</g>
<!-- Node20&#45;&gt;Node16 -->
<g id="edge24" class="edge">
<title>Node20&#45;&gt;Node16</title>
<path fill="none" stroke="midnightblue" d="M615.07,-168.37C598.19,-149.97 558.43,-106.67 536.74,-83.05"/>
<polygon fill="midnightblue" stroke="midnightblue" points="539.23,-80.59 529.89,-75.59 534.07,-85.32 539.23,-80.59"/>
</g>
<!-- Node21&#45;&gt;Node11 -->
<g id="edge26" class="edge">
<title>Node21&#45;&gt;Node11</title>
<path fill="none" stroke="midnightblue" d="M890.87,-224.44C951.31,-214.85 1049.24,-199.29 1113.38,-189.1"/>
<polygon fill="midnightblue" stroke="midnightblue" points="1114.05,-192.54 1123.38,-187.52 1112.95,-185.63 1114.05,-192.54"/>
</g>
<!-- Node27&#45;&gt;Node16 -->
<g id="edge40" class="edge">
<title>Node27&#45;&gt;Node16</title>
<path fill="none" stroke="midnightblue" d="M125.21,-565.85C103.09,-558.26 74.54,-545.08 57,-524 37.75,-500.86 38,-489.1 38,-459 38,-459 38,-459 38,-177 38,-100.37 271.62,-77.12 414.24,-70.07"/>
<polygon fill="midnightblue" stroke="midnightblue" points="414.52,-73.56 424.35,-69.59 414.19,-66.57 414.52,-73.56"/>
</g>
<!-- Node28 -->
<g id="node28" class="node">
<title>Node28</title>
<g id="a_node28"><a xlink:title=" ">
<polygon fill="white" stroke="#bfbfbf" points="164,-504.5 164,-523.5 254,-523.5 254,-504.5 164,-504.5"/>
<text text-anchor="middle" x="209" y="-511.5" font-family="Helvetica,sans-Serif" font-size="10.00">AH/STL/cstddef</text>
</a>
</g>
</g>
<!-- Node27&#45;&gt;Node28 -->
<g id="edge38" class="edge">
<title>Node27&#45;&gt;Node28</title>
<path fill="none" stroke="midnightblue" d="M164.45,-565.98C172.33,-556.96 184.94,-542.52 194.74,-531.31"/>
<polygon fill="midnightblue" stroke="midnightblue" points="197.62,-533.34 201.56,-523.51 192.35,-528.74 197.62,-533.34"/>
</g>
<!-- Node29 -->
<g id="node29" class="node">
<title>Node29</title>
<g id="a_node29"><a xlink:title=" ">
<polygon fill="white" stroke="#bfbfbf" points="66.5,-504.5 66.5,-523.5 145.5,-523.5 145.5,-504.5 66.5,-504.5"/>
<text text-anchor="middle" x="106" y="-511.5" font-family="Helvetica,sans-Serif" font-size="10.00">AH/STL/tuple</text>
</a>
</g>
</g>
<!-- Node27&#45;&gt;Node29 -->
<g id="edge39" class="edge">
<title>Node27&#45;&gt;Node29</title>
<path fill="none" stroke="midnightblue" d="M149.69,-565.98C141.97,-556.96 129.59,-542.52 119.98,-531.31"/>
<polygon fill="midnightblue" stroke="midnightblue" points="122.46,-528.82 113.29,-523.51 117.14,-533.38 122.46,-528.82"/>
</g>
<!-- Node31&#45;&gt;Node8 -->
<g id="edge51" class="edge">
<title>Node31&#45;&gt;Node8</title>
<path fill="none" stroke="midnightblue" d="M827.78,-504.44C809.1,-495.68 779.84,-481.94 758.38,-471.86"/>
<polygon fill="midnightblue" stroke="midnightblue" points="759.68,-468.6 749.14,-467.52 756.7,-474.93 759.68,-468.6"/>
</g>
<!-- Node31&#45;&gt;Node17 -->
<g id="edge52" class="edge">
<title>Node31&#45;&gt;Node17</title>
<path fill="none" stroke="midnightblue" d="M926.59,-507.82C1053.09,-494.85 1284,-449.46 1284,-291 1284,-291 1284,-291 1284,-233 1284,-200.95 1284,-163.64 1284,-141.75"/>
<polygon fill="midnightblue" stroke="midnightblue" points="1287.5,-141.56 1284,-131.56 1280.5,-141.56 1287.5,-141.56"/>
</g>
<!-- Node31&#45;&gt;Node18 -->
<g id="edge54" class="edge">
<title>Node31&#45;&gt;Node18</title>
<path fill="none" stroke="midnightblue" d="M765.29,-513.57C678.74,-512.25 549.45,-504.06 518,-468 474.81,-418.48 579.77,-377.57 642,-358.52"/>
<polygon fill="midnightblue" stroke="midnightblue" points="643.39,-361.76 651.97,-355.54 641.38,-355.05 643.39,-361.76"/>
</g>
<!-- Node31&#45;&gt;Node23 -->
<g id="edge55" class="edge">
<title>Node31&#45;&gt;Node23</title>
<path fill="none" stroke="midnightblue" d="M926.78,-507.46C983.66,-501.69 1052.78,-490.22 1071,-468 1119.73,-408.56 1053.86,-373.06 1030,-300 1025.01,-284.72 1021.31,-266.84 1018.97,-253.7"/>
<polygon fill="midnightblue" stroke="midnightblue" points="1022.37,-252.84 1017.26,-243.56 1015.47,-254 1022.37,-252.84"/>
</g>
<!-- Node32 -->
<g id="node32" class="node">
<title>Node32</title>
<g id="a_node32"><a xlink:href="../../d4/dba/CRTP_8hpp.html" target="_top" xlink:title=" ">
<polygon fill="white" stroke="black" points="527,-448.5 527,-467.5 661,-467.5 661,-448.5 527,-448.5"/>
<text text-anchor="middle" x="594" y="-455.5" font-family="Helvetica,sans-Serif" font-size="10.00">AH/Containers/CRTP.hpp</text>
</a>
</g>
</g>
<!-- Node31&#45;&gt;Node32 -->
<g id="edge45" class="edge">
<title>Node31&#45;&gt;Node32</title>
<path fill="none" stroke="midnightblue" d="M806.07,-504.44C762.11,-495.02 691.37,-479.87 643.82,-469.68"/>
<polygon fill="midnightblue" stroke="midnightblue" points="644.25,-466.19 633.74,-467.52 642.79,-473.03 644.25,-466.19"/>
</g>
<!-- Node33 -->
<g id="node33" class="node">
<title>Node33</title>
<g id="a_node33"><a xlink:href="../../de/dd1/LinkedList_8hpp.html" target="_top" xlink:title=" ">
<polygon fill="white" stroke="black" points="801.5,-448.5 801.5,-467.5 960.5,-467.5 960.5,-448.5 801.5,-448.5"/>
<text text-anchor="middle" x="881" y="-455.5" font-family="Helvetica,sans-Serif" font-size="10.00">AH/Containers/LinkedList.hpp</text>
</a>
</g>
</g>
<!-- Node31&#45;&gt;Node33 -->
<g id="edge46" class="edge">
<title>Node31&#45;&gt;Node33</title>
<path fill="none" stroke="midnightblue" d="M851.78,-504.08C856.67,-496.53 863.83,-485.49 869.83,-476.23"/>
<polygon fill="midnightblue" stroke="midnightblue" points="872.83,-478.05 875.33,-467.75 866.95,-474.24 872.83,-478.05"/>
</g>
<!-- Node35 -->
<g id="node35" class="node">
<title>Node35</title>
<g id="a_node35"><a xlink:title=" ">
<polygon fill="white" stroke="#bfbfbf" points="978.5,-448.5 978.5,-467.5 1061.5,-467.5 1061.5,-448.5 978.5,-448.5"/>
<text text-anchor="middle" x="1020" y="-455.5" font-family="Helvetica,sans-Serif" font-size="10.00">AH/STL/utility</text>
</a>
</g>
</g>
<!-- Node31&#45;&gt;Node35 -->
<g id="edge53" class="edge">
<title>Node31&#45;&gt;Node35</title>
<path fill="none" stroke="midnightblue" d="M873.57,-504.44C903.1,-495.28 950.12,-480.69 982.88,-470.52"/>
<polygon fill="midnightblue" stroke="midnightblue" points="984.04,-473.82 992.56,-467.52 981.97,-467.14 984.04,-473.82"/>
</g>
<!-- Node33&#45;&gt;Node9 -->
<g id="edge47" class="edge">
<title>Node33&#45;&gt;Node9</title>
<path fill="none" stroke="midnightblue" d="M857.23,-448.44C832.11,-439.4 792.29,-425.06 764.1,-414.92"/>
<polygon fill="midnightblue" stroke="midnightblue" points="765.25,-411.61 754.66,-411.52 762.88,-418.2 765.25,-411.61"/>
</g>
<!-- Node33&#45;&gt;Node12 -->
<g id="edge48" class="edge">
<title>Node33&#45;&gt;Node12</title>
<path fill="none" stroke="midnightblue" d="M890.3,-448.28C907.82,-430.85 944,-389.69 944,-347 944,-347 944,-347 944,-233 944,-179.13 1007.18,-149.14 1052.6,-134.54"/>
<polygon fill="midnightblue" stroke="midnightblue" points="1053.75,-137.85 1062.28,-131.57 1051.7,-131.16 1053.75,-137.85"/>
</g>
<!-- Node33&#45;&gt;Node26 -->
<g id="edge50" class="edge">
<title>Node33&#45;&gt;Node26</title>
<path fill="none" stroke="midnightblue" d="M902.55,-448.44C925.03,-439.52 960.49,-425.44 985.98,-415.32"/>
<polygon fill="midnightblue" stroke="midnightblue" points="987.55,-418.46 995.55,-411.52 984.97,-411.95 987.55,-418.46"/>
</g>
<!-- Node34 -->
<g id="node34" class="node">
<title>Node34</title>
<g id="a_node34"><a xlink:title=" ">
<polygon fill="white" stroke="#bfbfbf" points="854.5,-392.5 854.5,-411.5 907.5,-411.5 907.5,-392.5 854.5,-392.5"/>
<text text-anchor="middle" x="881" y="-399.5" font-family="Helvetica,sans-Serif" font-size="10.00">stdlib.h</text>
</a>
</g>
</g>
<!-- Node33&#45;&gt;Node34 -->
<g id="edge49" class="edge">
<title>Node33&#45;&gt;Node34</title>
<path fill="none" stroke="midnightblue" d="M881,-448.08C881,-441.01 881,-430.86 881,-421.99"/>
<polygon fill="midnightblue" stroke="midnightblue" points="884.5,-421.75 881,-411.75 877.5,-421.75 884.5,-421.75"/>
</g>
<!-- Node36&#45;&gt;Node7 -->
<g id="edge58" class="edge">
<title>Node36&#45;&gt;Node7</title>
<path fill="none" stroke="midnightblue" d="M1185.12,-565.98C1177.85,-556.96 1166.2,-542.52 1157.16,-531.31"/>
<polygon fill="midnightblue" stroke="midnightblue" points="1159.87,-529.09 1150.86,-523.51 1154.42,-533.49 1159.87,-529.09"/>
</g>
<!-- Node36&#45;&gt;Node10 -->
<g id="edge60" class="edge">
<title>Node36&#45;&gt;Node10</title>
<path fill="none" stroke="midnightblue" d="M1198.89,-565.83C1206.03,-556.24 1216.73,-540.02 1221,-524 1224.67,-510.24 1223.82,-470.53 1218,-448 1209.96,-416.84 1191.91,-383.86 1180.1,-364.37"/>
<polygon fill="midnightblue" stroke="midnightblue" points="1182.98,-362.37 1174.73,-355.72 1177.03,-366.06 1182.98,-362.37"/>
</g>
<!-- Node37 -->
<g id="node37" class="node">
<title>Node37</title>
<g id="a_node37"><a xlink:title=" ">
<polygon fill="white" stroke="#bfbfbf" points="1268.5,-504.5 1268.5,-523.5 1369.5,-523.5 1369.5,-504.5 1268.5,-504.5"/>
<text text-anchor="middle" x="1319" y="-511.5" font-family="Helvetica,sans-Serif" font-size="10.00">AH/STL/algorithm</text>
</a>
</g>
</g>
<!-- Node36&#45;&gt;Node37 -->
<g id="edge59" class="edge">
<title>Node36&#45;&gt;Node37</title>
<path fill="none" stroke="midnightblue" d="M1210.2,-565.98C1231.51,-555.99 1267.03,-539.35 1291.66,-527.81"/>
<polygon fill="midnightblue" stroke="midnightblue" points="1293.27,-530.92 1300.84,-523.51 1290.3,-524.58 1293.27,-530.92"/>
</g>
<!-- Node38&#45;&gt;Node8 -->
<g id="edge62" class="edge">
<title>Node38&#45;&gt;Node8</title>
<path fill="none" stroke="midnightblue" d="M409.24,-504.48C472.14,-495.84 572.42,-481.96 668.84,-468.16"/>
<polygon fill="midnightblue" stroke="midnightblue" points="669.36,-471.62 678.76,-466.74 668.37,-464.69 669.36,-471.62"/>
</g>
<!-- Node38&#45;&gt;Node16 -->
<g id="edge63" class="edge">
<title>Node38&#45;&gt;Node16</title>
<path fill="none" stroke="midnightblue" d="M347,-504.44C347,-485.94 347,-440.81 347,-403 347,-403 347,-403 347,-177 347,-146.2 348.54,-133.07 371,-112 388.81,-95.3 412.55,-84.77 435.93,-78.15"/>
<polygon fill="midnightblue" stroke="midnightblue" points="437.12,-81.45 445.91,-75.54 435.35,-74.68 437.12,-81.45"/>
</g>
<!-- Node38&#45;&gt;Node24 -->
<g id="edge64" class="edge">
<title>Node38&#45;&gt;Node24</title>
<path fill="none" stroke="midnightblue" d="M350.54,-504.38C366.46,-465.54 431.69,-306.47 453.71,-252.79"/>
<polygon fill="midnightblue" stroke="midnightblue" points="456.95,-254.1 457.5,-243.52 450.47,-251.45 456.95,-254.1"/>
</g>
<!-- Node39&#45;&gt;Node4 -->
<g id="edge66" class="edge">
<title>Node39&#45;&gt;Node4</title>
<path fill="none" stroke="midnightblue" d="M482.75,-806.34C482.4,-785.62 481.73,-747.02 481.33,-723.9"/>
<polygon fill="midnightblue" stroke="midnightblue" points="484.82,-723.61 481.15,-713.67 477.82,-723.73 484.82,-723.61"/>
</g>
<!-- Node40 -->
<g id="node40" class="node">
<title>Node40</title>
<g id="a_node40"><a xlink:title=" ">
<polygon fill="white" stroke="#bfbfbf" points="509.5,-750.5 509.5,-769.5 550.5,-769.5 550.5,-750.5 509.5,-750.5"/>
<text text-anchor="middle" x="530" y="-757.5" font-family="Helvetica,sans-Serif" font-size="10.00">SPI.h</text>
</a>
</g>
</g>
<!-- Node39&#45;&gt;Node40 -->
<g id="edge67" class="edge">
<title>Node39&#45;&gt;Node40</title>
<path fill="none" stroke="midnightblue" d="M494.14,-806.4C500.97,-797.75 509.74,-786.64 516.91,-777.58"/>
<polygon fill="midnightblue" stroke="midnightblue" points="519.71,-779.67 523.16,-769.66 514.22,-775.34 519.71,-779.67"/>
</g>
</g>
</svg>
