<?xml version="1.0" encoding="UTF-8" standalone="no"?>
<!DOCTYPE svg PUBLIC "-//W3C//DTD SVG 1.1//EN"
 "http://www.w3.org/Graphics/SVG/1.1/DTD/svg11.dtd">
<!-- Generated by graphviz version 2.43.0 (0)
 -->
<!-- Title: AnalogMultiplex&lt; N &gt; Pages: 1 -->
<svg width="401pt" height="512pt"
 viewBox="0.00 0.00 401.00 512.00" xmlns="http://www.w3.org/2000/svg" xmlns:xlink="http://www.w3.org/1999/xlink">
<g id="graph0" class="graph" transform="scale(1 1) rotate(0) translate(4 508)">
<title>AnalogMultiplex&lt; N &gt;</title>
<polygon fill="white" stroke="transparent" points="-4,4 -4,-508 397,-508 397,4 -4,4"/>
<!-- Node1 -->
<g id="node1" class="node">
<title>Node1</title>
<g id="a_node1"><a xlink:title="A class for reading multiplexed analog inputs.">
<polygon fill="#bfbfbf" stroke="black" points="151,-0.5 151,-266.5 300,-266.5 300,-0.5 151,-0.5"/>
<text text-anchor="middle" x="225.5" y="-254.5" font-family="Helvetica,sans-Serif" font-size="10.00">AnalogMultiplex&lt; N &gt;</text>
<polyline fill="none" stroke="black" points="151,-247.5 300,-247.5 "/>
<text text-anchor="start" x="159" y="-235.5" font-family="Helvetica,sans-Serif" font-size="10.00"># discardFirstReading_</text>
<text text-anchor="start" x="159" y="-224.5" font-family="Helvetica,sans-Serif" font-size="10.00"># MUX_ENABLED</text>
<text text-anchor="start" x="159" y="-213.5" font-family="Helvetica,sans-Serif" font-size="10.00"># MUX_DISABLED</text>
<polyline fill="none" stroke="black" points="151,-206.5 300,-206.5 "/>
<text text-anchor="start" x="159" y="-194.5" font-family="Helvetica,sans-Serif" font-size="10.00">+ AnalogMultiplex()</text>
<text text-anchor="start" x="159" y="-183.5" font-family="Helvetica,sans-Serif" font-size="10.00">+ pinMode()</text>
<text text-anchor="start" x="159" y="-172.5" font-family="Helvetica,sans-Serif" font-size="10.00">+ pinModeBuffered()</text>
<text text-anchor="start" x="159" y="-161.5" font-family="Helvetica,sans-Serif" font-size="10.00">+ digitalWrite()</text>
<text text-anchor="start" x="159" y="-150.5" font-family="Helvetica,sans-Serif" font-size="10.00">+ digitalWriteBuffered()</text>
<text text-anchor="start" x="159" y="-139.5" font-family="Helvetica,sans-Serif" font-size="10.00">+ digitalRead()</text>
<text text-anchor="start" x="159" y="-128.5" font-family="Helvetica,sans-Serif" font-size="10.00">+ digitalReadBuffered()</text>
<text text-anchor="start" x="159" y="-117.5" font-family="Helvetica,sans-Serif" font-size="10.00">+ analogRead()</text>
<text text-anchor="start" x="159" y="-106.5" font-family="Helvetica,sans-Serif" font-size="10.00">+ analogReadBuffered()</text>
<text text-anchor="start" x="159" y="-95.5" font-family="Helvetica,sans-Serif" font-size="10.00">+ analogWrite()</text>
<text text-anchor="start" x="159" y="-84.5" font-family="Helvetica,sans-Serif" font-size="10.00">+ analogWriteBuffered()</text>
<text text-anchor="start" x="159" y="-73.5" font-family="Helvetica,sans-Serif" font-size="10.00">+ begin()</text>
<text text-anchor="start" x="159" y="-62.5" font-family="Helvetica,sans-Serif" font-size="10.00">+ updateBufferedOutputs()</text>
<text text-anchor="start" x="159" y="-51.5" font-family="Helvetica,sans-Serif" font-size="10.00">+ updateBufferedInputs()</text>
<text text-anchor="start" x="159" y="-40.5" font-family="Helvetica,sans-Serif" font-size="10.00">+ discardFirstReading()</text>
<text text-anchor="start" x="159" y="-29.5" font-family="Helvetica,sans-Serif" font-size="10.00"># setMuxAddress()</text>
<text text-anchor="start" x="159" y="-18.5" font-family="Helvetica,sans-Serif" font-size="10.00"># prepareReading()</text>
<text text-anchor="start" x="159" y="-7.5" font-family="Helvetica,sans-Serif" font-size="10.00"># afterReading()</text>
</a>
</g>
</g>
<!-- Node2 -->
<g id="node2" class="node">
<title>Node2</title>
<g id="a_node2"><a xlink:title=" ">
<polygon fill="white" stroke="black" points="0,-380.5 0,-448.5 161,-448.5 161,-380.5 0,-380.5"/>
<text text-anchor="start" x="8" y="-436.5" font-family="Helvetica,sans-Serif" font-size="10.00">StaticSizeExtendedIOElement</text>
<text text-anchor="middle" x="80.5" y="-425.5" font-family="Helvetica,sans-Serif" font-size="10.00">&lt; 1&lt;&lt; N &gt;</text>
<polyline fill="none" stroke="black" points="0,-418.5 161,-418.5 "/>
<text text-anchor="middle" x="80.5" y="-406.5" font-family="Helvetica,sans-Serif" font-size="10.00"> </text>
<polyline fill="none" stroke="black" points="0,-399.5 161,-399.5 "/>
<text text-anchor="middle" x="80.5" y="-387.5" font-family="Helvetica,sans-Serif" font-size="10.00"> </text>
</a>
</g>
</g>
<!-- Node2&#45;&gt;Node1 -->
<g id="edge1" class="edge">
<title>Node2&#45;&gt;Node1</title>
<path fill="none" stroke="midnightblue" d="M102.44,-371.28C117.06,-343.15 137.15,-304.5 156.85,-266.59"/>
<polygon fill="none" stroke="midnightblue" points="99.21,-369.91 97.7,-380.4 105.42,-373.14 99.21,-369.91"/>
</g>
<!-- Node3 -->
<g id="node3" class="node">
<title>Node3</title>
<g id="a_node3"><a xlink:href="../../d6/dd0/structExtIO_1_1pin__t.html" target="_top" xlink:title="Type for storing pin numbers of Extended Input/Output elements.">
<polygon fill="white" stroke="black" points="179,-347.5 179,-481.5 272,-481.5 272,-347.5 179,-347.5"/>
<text text-anchor="middle" x="225.5" y="-469.5" font-family="Helvetica,sans-Serif" font-size="10.00">pin_t</text>
<polyline fill="none" stroke="black" points="179,-462.5 272,-462.5 "/>
<text text-anchor="start" x="187" y="-450.5" font-family="Helvetica,sans-Serif" font-size="10.00">+ pin</text>
<polyline fill="none" stroke="black" points="179,-443.5 272,-443.5 "/>
<text text-anchor="start" x="187" y="-431.5" font-family="Helvetica,sans-Serif" font-size="10.00">+ pin_t()</text>
<text text-anchor="start" x="187" y="-420.5" font-family="Helvetica,sans-Serif" font-size="10.00">+ pin_t()</text>
<text text-anchor="start" x="187" y="-409.5" font-family="Helvetica,sans-Serif" font-size="10.00">+ operator+=()</text>
<text text-anchor="start" x="187" y="-398.5" font-family="Helvetica,sans-Serif" font-size="10.00">+ operator++()</text>
<text text-anchor="start" x="187" y="-387.5" font-family="Helvetica,sans-Serif" font-size="10.00">+ operator++()</text>
<text text-anchor="start" x="187" y="-376.5" font-family="Helvetica,sans-Serif" font-size="10.00">+ operator&#45;=()</text>
<text text-anchor="start" x="187" y="-365.5" font-family="Helvetica,sans-Serif" font-size="10.00">+ operator&#45;&#45;()</text>
<text text-anchor="start" x="187" y="-354.5" font-family="Helvetica,sans-Serif" font-size="10.00">+ operator&#45;&#45;()</text>
</a>
</g>
</g>
<!-- Node3&#45;&gt;Node1 -->
<g id="edge2" class="edge">
<title>Node3&#45;&gt;Node1</title>
<path fill="none" stroke="#404040" d="M225.5,-347.38C225.5,-326.63 225.5,-302.86 225.5,-278.89"/>
<polygon fill="none" stroke="#404040" points="225.5,-278.74 221.5,-272.74 225.5,-266.74 229.5,-272.74 225.5,-278.74"/>
<text text-anchor="middle" x="255.5" y="-299" font-family="Helvetica,sans-Serif" font-size="10.00"> #analogPin</text>
<text text-anchor="middle" x="255.5" y="-288" font-family="Helvetica,sans-Serif" font-size="10.00">#enablePin</text>
</g>
<!-- Node4 -->
<g id="node4" class="node">
<title>Node4</title>
<g id="a_node4"><a xlink:href="../../d7/d6a/structArray.html" target="_top" xlink:title=" ">
<polygon fill="white" stroke="black" points="290,-325.5 290,-503.5 393,-503.5 393,-325.5 290,-325.5"/>
<text text-anchor="middle" x="341.5" y="-491.5" font-family="Helvetica,sans-Serif" font-size="10.00">Array&lt; pin_t, N &gt;</text>
<polyline fill="none" stroke="black" points="290,-484.5 393,-484.5 "/>
<text text-anchor="start" x="298" y="-472.5" font-family="Helvetica,sans-Serif" font-size="10.00">+ data</text>
<text text-anchor="start" x="298" y="-461.5" font-family="Helvetica,sans-Serif" font-size="10.00">+ length</text>
<polyline fill="none" stroke="black" points="290,-454.5 393,-454.5 "/>
<text text-anchor="start" x="298" y="-442.5" font-family="Helvetica,sans-Serif" font-size="10.00">+ operator[]()</text>
<text text-anchor="start" x="298" y="-431.5" font-family="Helvetica,sans-Serif" font-size="10.00">+ operator[]()</text>
<text text-anchor="start" x="298" y="-420.5" font-family="Helvetica,sans-Serif" font-size="10.00">+ begin()</text>
<text text-anchor="start" x="298" y="-409.5" font-family="Helvetica,sans-Serif" font-size="10.00">+ begin()</text>
<text text-anchor="start" x="298" y="-398.5" font-family="Helvetica,sans-Serif" font-size="10.00">+ end()</text>
<text text-anchor="start" x="298" y="-387.5" font-family="Helvetica,sans-Serif" font-size="10.00">+ end()</text>
<text text-anchor="start" x="298" y="-376.5" font-family="Helvetica,sans-Serif" font-size="10.00">+ operator==()</text>
<text text-anchor="start" x="298" y="-365.5" font-family="Helvetica,sans-Serif" font-size="10.00">+ operator!=()</text>
<text text-anchor="start" x="298" y="-354.5" font-family="Helvetica,sans-Serif" font-size="10.00">+ slice()</text>
<text text-anchor="start" x="298" y="-343.5" font-family="Helvetica,sans-Serif" font-size="10.00">+ slice()</text>
<text text-anchor="start" x="298" y="-332.5" font-family="Helvetica,sans-Serif" font-size="10.00">+ cslice()</text>
</a>
</g>
</g>
<!-- Node4&#45;&gt;Node1 -->
<g id="edge3" class="edge">
<title>Node4&#45;&gt;Node1</title>
<path fill="none" stroke="#404040" d="M306.04,-325.28C300.54,-311.77 294.9,-298 289.5,-285 288.52,-282.64 287.53,-280.27 286.54,-277.88"/>
<polygon fill="none" stroke="#404040" points="286.45,-277.66 280.44,-273.66 281.82,-266.58 287.83,-270.58 286.45,-277.66"/>
<text text-anchor="middle" x="332.5" y="-293.5" font-family="Helvetica,sans-Serif" font-size="10.00"> #addressPins</text>
</g>
</g>
</svg>
