<?xml version="1.0" encoding="UTF-8" standalone="no"?>
<!DOCTYPE svg PUBLIC "-//W3C//DTD SVG 1.1//EN"
 "http://www.w3.org/Graphics/SVG/1.1/DTD/svg11.dtd">
<!-- Generated by graphviz version 2.43.0 (0)
 -->
<!-- Title: StaticSizeExtendedIOElement.hpp Pages: 1 -->
<svg width="1314pt" height="834pt"
 viewBox="0.00 0.00 1313.50 834.00" xmlns="http://www.w3.org/2000/svg" xmlns:xlink="http://www.w3.org/1999/xlink">
<g id="graph0" class="graph" transform="scale(1 1) rotate(0) translate(4 830)">
<title>StaticSizeExtendedIOElement.hpp</title>
<polygon fill="white" stroke="transparent" points="-4,4 -4,-830 1309.5,-830 1309.5,4 -4,4"/>
<!-- Node1 -->
<g id="node1" class="node">
<title>Node1</title>
<g id="a_node1"><a xlink:title=" ">
<polygon fill="#bfbfbf" stroke="black" points="489,-806.5 489,-825.5 671,-825.5 671,-806.5 489,-806.5"/>
<text text-anchor="middle" x="580" y="-813.5" font-family="Helvetica,sans-Serif" font-size="10.00">StaticSizeExtendedIOElement.hpp</text>
</a>
</g>
</g>
<!-- Node2 -->
<g id="node2" class="node">
<title>Node2</title>
<g id="a_node2"><a xlink:href="../../d4/d57/ExtendedIOElement_8hpp.html" target="_top" xlink:title=" ">
<polygon fill="white" stroke="black" points="466,-750.5 466,-769.5 600,-769.5 600,-750.5 466,-750.5"/>
<text text-anchor="middle" x="533" y="-757.5" font-family="Helvetica,sans-Serif" font-size="10.00">ExtendedIOElement.hpp</text>
</a>
</g>
</g>
<!-- Node1&#45;&gt;Node2 -->
<g id="edge1" class="edge">
<title>Node1&#45;&gt;Node2</title>
<path fill="none" stroke="midnightblue" d="M572.24,-806.08C565.46,-798.3 555.46,-786.8 547.24,-777.37"/>
<polygon fill="midnightblue" stroke="midnightblue" points="549.82,-775 540.62,-769.75 544.54,-779.59 549.82,-775"/>
</g>
<!-- Node35 -->
<g id="node35" class="node">
<title>Node35</title>
<g id="a_node35"><a xlink:href="../../d5/db6/ArrayHelpers_8hpp.html" target="_top" xlink:title=" ">
<polygon fill="white" stroke="black" points="848,-566 848,-585 1022,-585 1022,-566 848,-566"/>
<text text-anchor="middle" x="935" y="-573" font-family="Helvetica,sans-Serif" font-size="10.00">AH/Containers/ArrayHelpers.hpp</text>
</a>
</g>
</g>
<!-- Node1&#45;&gt;Node35 -->
<g id="edge56" class="edge">
<title>Node1&#45;&gt;Node35</title>
<path fill="none" stroke="midnightblue" d="M593.06,-806.23C646.34,-770.43 847.64,-635.19 913.79,-590.75"/>
<polygon fill="midnightblue" stroke="midnightblue" points="915.85,-593.58 922.2,-585.1 911.95,-587.77 915.85,-593.58"/>
</g>
<!-- Node3 -->
<g id="node3" class="node">
<title>Node3</title>
<g id="a_node3"><a xlink:href="../../dd/ddf/ExtendedInputOutput_8hpp.html" target="_top" xlink:title=" ">
<polygon fill="white" stroke="black" points="296.5,-694.5 296.5,-713.5 437.5,-713.5 437.5,-694.5 296.5,-694.5"/>
<text text-anchor="middle" x="367" y="-701.5" font-family="Helvetica,sans-Serif" font-size="10.00">ExtendedInputOutput.hpp</text>
</a>
</g>
</g>
<!-- Node2&#45;&gt;Node3 -->
<g id="edge2" class="edge">
<title>Node2&#45;&gt;Node3</title>
<path fill="none" stroke="midnightblue" d="M506.7,-750.44C478.65,-741.32 434.06,-726.81 402.82,-716.65"/>
<polygon fill="midnightblue" stroke="midnightblue" points="403.77,-713.28 393.18,-713.52 401.61,-719.94 403.77,-713.28"/>
</g>
<!-- Node5 -->
<g id="node5" class="node">
<title>Node5</title>
<g id="a_node5"><a xlink:href="../../d4/d35/Hardware-Types_8hpp.html" target="_top" xlink:title=" ">
<polygon fill="white" stroke="black" points="330.5,-560.5 330.5,-590.5 461.5,-590.5 461.5,-560.5 330.5,-560.5"/>
<text text-anchor="start" x="338.5" y="-578.5" font-family="Helvetica,sans-Serif" font-size="10.00">AH/Hardware/Hardware</text>
<text text-anchor="middle" x="396" y="-567.5" font-family="Helvetica,sans-Serif" font-size="10.00">&#45;Types.hpp</text>
</a>
</g>
</g>
<!-- Node2&#45;&gt;Node5 -->
<g id="edge55" class="edge">
<title>Node2&#45;&gt;Node5</title>
<path fill="none" stroke="midnightblue" d="M529.32,-750.3C519.66,-728.15 491.96,-668.43 457,-627 447.6,-615.86 435.53,-605.29 424.61,-596.73"/>
<polygon fill="midnightblue" stroke="midnightblue" points="426.63,-593.86 416.55,-590.59 422.39,-599.43 426.63,-593.86"/>
</g>
<!-- Node30 -->
<g id="node30" class="node">
<title>Node30</title>
<g id="a_node30"><a xlink:href="../../d4/d93/Updatable_8hpp.html" target="_top" xlink:title=" ">
<polygon fill="white" stroke="black" points="637.5,-504.5 637.5,-523.5 798.5,-523.5 798.5,-504.5 637.5,-504.5"/>
<text text-anchor="middle" x="718" y="-511.5" font-family="Helvetica,sans-Serif" font-size="10.00">AH/Containers/Updatable.hpp</text>
</a>
</g>
</g>
<!-- Node2&#45;&gt;Node30 -->
<g id="edge43" class="edge">
<title>Node2&#45;&gt;Node30</title>
<path fill="none" stroke="midnightblue" d="M539.55,-750.35C555.52,-729.26 597.74,-673.51 633,-627 658.67,-593.15 688.72,-553.57 705.33,-531.69"/>
<polygon fill="midnightblue" stroke="midnightblue" points="708.12,-533.79 711.38,-523.71 702.55,-529.56 708.12,-533.79"/>
</g>
<!-- Node4 -->
<g id="node4" class="node">
<title>Node4</title>
<g id="a_node4"><a xlink:href="../../d2/d3c/Arduino-Hardware-Types_8hpp.html" target="_top" xlink:title=" ">
<polygon fill="white" stroke="black" points="221,-627.5 221,-657.5 343,-657.5 343,-627.5 221,-627.5"/>
<text text-anchor="start" x="229" y="-645.5" font-family="Helvetica,sans-Serif" font-size="10.00">AH/Hardware/Arduino</text>
<text text-anchor="middle" x="282" y="-634.5" font-family="Helvetica,sans-Serif" font-size="10.00">&#45;Hardware&#45;Types.hpp</text>
</a>
</g>
</g>
<!-- Node3&#45;&gt;Node4 -->
<g id="edge3" class="edge">
<title>Node3&#45;&gt;Node4</title>
<path fill="none" stroke="midnightblue" d="M354.82,-694.48C343.31,-686.42 325.6,-674.02 310.53,-663.47"/>
<polygon fill="midnightblue" stroke="midnightblue" points="312.23,-660.39 302.03,-657.52 308.22,-666.12 312.23,-660.39"/>
</g>
<!-- Node15 -->
<g id="node15" class="node">
<title>Node15</title>
<g id="a_node15"><a xlink:href="../../dc/dc7/NamespaceSettings_8hpp.html" target="_top" xlink:title=" ">
<polygon fill="white" stroke="black" points="470.5,-56.5 470.5,-75.5 665.5,-75.5 665.5,-56.5 470.5,-56.5"/>
<text text-anchor="middle" x="568" y="-63.5" font-family="Helvetica,sans-Serif" font-size="10.00">AH/Settings/NamespaceSettings.hpp</text>
</a>
</g>
</g>
<!-- Node3&#45;&gt;Node15 -->
<g id="edge42" class="edge">
<title>Node3&#45;&gt;Node15</title>
<path fill="none" stroke="midnightblue" d="M303.49,-694.44C198.45,-678.48 0,-639.93 0,-576.5 0,-576.5 0,-576.5 0,-177 0,-84.27 295.46,-68.08 460.19,-66.26"/>
<polygon fill="midnightblue" stroke="midnightblue" points="460.39,-69.76 470.36,-66.16 460.32,-62.76 460.39,-69.76"/>
</g>
<!-- Node29 -->
<g id="node29" class="node">
<title>Node29</title>
<g id="a_node29"><a xlink:title=" ">
<polygon fill="white" stroke="#bfbfbf" points="361.5,-633 361.5,-652 448.5,-652 448.5,-633 361.5,-633"/>
<text text-anchor="middle" x="405" y="-640" font-family="Helvetica,sans-Serif" font-size="10.00">AH/STL/climits</text>
</a>
</g>
</g>
<!-- Node3&#45;&gt;Node29 -->
<g id="edge41" class="edge">
<title>Node3&#45;&gt;Node29</title>
<path fill="none" stroke="midnightblue" d="M372.44,-694.48C378.09,-685.64 387.06,-671.59 394.16,-660.48"/>
<polygon fill="midnightblue" stroke="midnightblue" points="397.13,-662.32 399.57,-652.01 391.23,-658.55 397.13,-662.32"/>
</g>
<!-- Node4&#45;&gt;Node5 -->
<g id="edge4" class="edge">
<title>Node4&#45;&gt;Node5</title>
<path fill="none" stroke="midnightblue" d="M306.74,-627.4C323.02,-618.11 344.54,-605.84 362.37,-595.67"/>
<polygon fill="midnightblue" stroke="midnightblue" points="364.36,-598.57 371.31,-590.58 360.89,-592.49 364.36,-598.57"/>
</g>
<!-- Node10 -->
<g id="node10" class="node">
<title>Node10</title>
<g id="a_node10"><a xlink:href="../../d6/ddf/Arduino-Wrapper_8h.html" target="_top" xlink:title=" ">
<polygon fill="white" stroke="black" points="724,-168.5 724,-187.5 848,-187.5 848,-168.5 724,-168.5"/>
<text text-anchor="middle" x="786" y="-175.5" font-family="Helvetica,sans-Serif" font-size="10.00">AH/Arduino&#45;Wrapper.h</text>
</a>
</g>
</g>
<!-- Node4&#45;&gt;Node10 -->
<g id="edge40" class="edge">
<title>Node4&#45;&gt;Node10</title>
<path fill="none" stroke="midnightblue" d="M282.94,-627.4C287.74,-567.28 315.13,-330.6 453,-224 455.58,-222.01 616.78,-200.87 713.92,-188.29"/>
<polygon fill="midnightblue" stroke="midnightblue" points="714.51,-191.74 723.98,-186.99 713.61,-184.8 714.51,-191.74"/>
</g>
<!-- Node26 -->
<g id="node26" class="node">
<title>Node26</title>
<g id="a_node26"><a xlink:href="../../d0/db1/FunctionTraits_8hpp.html" target="_top" xlink:title=" ">
<polygon fill="white" stroke="black" points="67.5,-566 67.5,-585 220.5,-585 220.5,-566 67.5,-566"/>
<text text-anchor="middle" x="144" y="-573" font-family="Helvetica,sans-Serif" font-size="10.00">AH/Types/FunctionTraits.hpp</text>
</a>
</g>
</g>
<!-- Node4&#45;&gt;Node26 -->
<g id="edge36" class="edge">
<title>Node4&#45;&gt;Node26</title>
<path fill="none" stroke="midnightblue" d="M252.06,-627.4C228.06,-616.09 194.66,-600.36 171.37,-589.39"/>
<polygon fill="midnightblue" stroke="midnightblue" points="172.6,-586.1 162.06,-585.01 169.62,-592.43 172.6,-586.1"/>
</g>
<!-- Node6 -->
<g id="node6" class="node">
<title>Node6</title>
<g id="a_node6"><a xlink:href="../../de/d76/Array_8hpp.html" target="_top" xlink:title=" ">
<polygon fill="white" stroke="black" points="433.5,-504.5 433.5,-523.5 568.5,-523.5 568.5,-504.5 433.5,-504.5"/>
<text text-anchor="middle" x="501" y="-511.5" font-family="Helvetica,sans-Serif" font-size="10.00">AH/Containers/Array.hpp</text>
</a>
</g>
</g>
<!-- Node5&#45;&gt;Node6 -->
<g id="edge5" class="edge">
<title>Node5&#45;&gt;Node6</title>
<path fill="none" stroke="midnightblue" d="M420.88,-560.4C437.71,-550.86 459.84,-538.32 476.57,-528.84"/>
<polygon fill="midnightblue" stroke="midnightblue" points="478.75,-531.63 485.72,-523.66 475.3,-525.54 478.75,-531.63"/>
</g>
<!-- Node5&#45;&gt;Node15 -->
<g id="edge34" class="edge">
<title>Node5&#45;&gt;Node15</title>
<path fill="none" stroke="midnightblue" d="M378.75,-560.43C356.33,-540.44 320,-501.49 320,-459 320,-459 320,-459 320,-177 320,-146.9 316.78,-132.3 339,-112 357.72,-94.9 412.87,-83.76 464.36,-76.85"/>
<polygon fill="midnightblue" stroke="midnightblue" points="465.13,-80.28 474.59,-75.52 464.22,-73.34 465.13,-80.28"/>
</g>
<!-- Node23 -->
<g id="node23" class="node">
<title>Node23</title>
<g id="a_node23"><a xlink:title=" ">
<polygon fill="white" stroke="#bfbfbf" points="462.5,-224.5 462.5,-243.5 515.5,-243.5 515.5,-224.5 462.5,-224.5"/>
<text text-anchor="middle" x="489" y="-231.5" font-family="Helvetica,sans-Serif" font-size="10.00">stdint.h</text>
</a>
</g>
</g>
<!-- Node5&#45;&gt;Node23 -->
<g id="edge35" class="edge">
<title>Node5&#45;&gt;Node23</title>
<path fill="none" stroke="midnightblue" d="M399.88,-560.34C414.64,-506.47 467.3,-314.23 483.93,-253.51"/>
<polygon fill="midnightblue" stroke="midnightblue" points="487.33,-254.34 486.6,-243.77 480.58,-252.49 487.33,-254.34"/>
</g>
<!-- Node7 -->
<g id="node7" class="node">
<title>Node7</title>
<g id="a_node7"><a xlink:href="../../d1/d93/Error_8hpp.html" target="_top" xlink:title=" ">
<polygon fill="white" stroke="black" points="538,-448.5 538,-467.5 642,-467.5 642,-448.5 538,-448.5"/>
<text text-anchor="middle" x="590" y="-455.5" font-family="Helvetica,sans-Serif" font-size="10.00">AH/Error/Error.hpp</text>
</a>
</g>
</g>
<!-- Node6&#45;&gt;Node7 -->
<g id="edge6" class="edge">
<title>Node6&#45;&gt;Node7</title>
<path fill="none" stroke="midnightblue" d="M515.3,-504.32C529.18,-495.9 550.49,-482.97 566.8,-473.07"/>
<polygon fill="midnightblue" stroke="midnightblue" points="569,-475.83 575.74,-467.65 565.37,-469.85 569,-475.83"/>
</g>
<!-- Node16 -->
<g id="node16" class="node">
<title>Node16</title>
<g id="a_node16"><a xlink:title=" ">
<polygon fill="white" stroke="#bfbfbf" points="348.5,-112.5 348.5,-131.5 455.5,-131.5 455.5,-112.5 348.5,-112.5"/>
<text text-anchor="middle" x="402" y="-119.5" font-family="Helvetica,sans-Serif" font-size="10.00">AH/STL/type_traits</text>
</a>
</g>
</g>
<!-- Node6&#45;&gt;Node16 -->
<g id="edge32" class="edge">
<title>Node6&#45;&gt;Node16</title>
<path fill="none" stroke="midnightblue" d="M470.32,-504.46C428.3,-490.68 358,-459.22 358,-403 358,-403 358,-403 358,-233 358,-198.04 377.4,-161.01 390.43,-140.07"/>
<polygon fill="midnightblue" stroke="midnightblue" points="393.39,-141.95 395.88,-131.65 387.51,-138.15 393.39,-141.95"/>
</g>
<!-- Node22 -->
<g id="node22" class="node">
<title>Node22</title>
<g id="a_node22"><a xlink:title=" ">
<polygon fill="white" stroke="#bfbfbf" points="860,-224.5 860,-243.5 916,-243.5 916,-224.5 860,-224.5"/>
<text text-anchor="middle" x="888" y="-231.5" font-family="Helvetica,sans-Serif" font-size="10.00">stddef.h</text>
</a>
</g>
</g>
<!-- Node6&#45;&gt;Node22 -->
<g id="edge33" class="edge">
<title>Node6&#45;&gt;Node22</title>
<path fill="none" stroke="midnightblue" d="M500.38,-504.44C499.83,-491.44 500.27,-466.31 510,-448 562.41,-349.33 597.94,-331.67 697,-280 756.52,-248.95 780.46,-259.25 849.65,-244.2"/>
<polygon fill="midnightblue" stroke="midnightblue" points="850.75,-247.54 859.72,-241.91 849.2,-240.72 850.75,-247.54"/>
</g>
<!-- Node25 -->
<g id="node25" class="node">
<title>Node25</title>
<g id="a_node25"><a xlink:title=" ">
<polygon fill="white" stroke="#bfbfbf" points="698,-392.5 698,-411.5 788,-411.5 788,-392.5 698,-392.5"/>
<text text-anchor="middle" x="743" y="-399.5" font-family="Helvetica,sans-Serif" font-size="10.00">AH/STL/iterator</text>
</a>
</g>
</g>
<!-- Node6&#45;&gt;Node25 -->
<g id="edge31" class="edge">
<title>Node6&#45;&gt;Node25</title>
<path fill="none" stroke="midnightblue" d="M502.17,-504.32C504.55,-490.23 511.31,-462.47 529,-448 552.86,-428.48 632.56,-415.62 687.66,-408.82"/>
<polygon fill="midnightblue" stroke="midnightblue" points="688.13,-412.29 697.64,-407.62 687.29,-405.34 688.13,-412.29"/>
</g>
<!-- Node8 -->
<g id="node8" class="node">
<title>Node8</title>
<g id="a_node8"><a xlink:href="../../df/dee/Debug_8hpp.html" target="_top" xlink:title=" ">
<polygon fill="white" stroke="black" points="806.5,-392.5 806.5,-411.5 927.5,-411.5 927.5,-392.5 806.5,-392.5"/>
<text text-anchor="middle" x="867" y="-399.5" font-family="Helvetica,sans-Serif" font-size="10.00">AH/Debug/Debug.hpp</text>
</a>
</g>
</g>
<!-- Node7&#45;&gt;Node8 -->
<g id="edge7" class="edge">
<title>Node7&#45;&gt;Node8</title>
<path fill="none" stroke="midnightblue" d="M633.89,-448.44C682.52,-438.96 760.95,-423.67 813.22,-413.48"/>
<polygon fill="midnightblue" stroke="midnightblue" points="814.17,-416.87 823.31,-411.52 812.83,-409.99 814.17,-416.87"/>
</g>
<!-- Node9 -->
<g id="node9" class="node">
<title>Node9</title>
<g id="a_node9"><a xlink:href="../../dd/d80/PrintStream_8hpp.html" target="_top" xlink:title=" ">
<polygon fill="white" stroke="black" points="936.5,-336.5 936.5,-355.5 1109.5,-355.5 1109.5,-336.5 936.5,-336.5"/>
<text text-anchor="middle" x="1023" y="-343.5" font-family="Helvetica,sans-Serif" font-size="10.00">AH/PrintStream/PrintStream.hpp</text>
</a>
</g>
</g>
<!-- Node8&#45;&gt;Node9 -->
<g id="edge8" class="edge">
<title>Node8&#45;&gt;Node9</title>
<path fill="none" stroke="midnightblue" d="M891.72,-392.44C917.85,-383.4 959.26,-369.06 988.58,-358.92"/>
<polygon fill="midnightblue" stroke="midnightblue" points="990.09,-362.1 998.4,-355.52 987.8,-355.48 990.09,-362.1"/>
</g>
<!-- Node17 -->
<g id="node17" class="node">
<title>Node17</title>
<g id="a_node17"><a xlink:href="../../d2/dd5/SettingsWrapper_8hpp.html" target="_top" xlink:title=" ">
<polygon fill="white" stroke="black" points="676,-336.5 676,-355.5 854,-355.5 854,-336.5 676,-336.5"/>
<text text-anchor="middle" x="765" y="-343.5" font-family="Helvetica,sans-Serif" font-size="10.00">AH/Settings/SettingsWrapper.hpp</text>
</a>
</g>
</g>
<!-- Node8&#45;&gt;Node17 -->
<g id="edge19" class="edge">
<title>Node8&#45;&gt;Node17</title>
<path fill="none" stroke="midnightblue" d="M845.75,-392.44C827.76,-383.91 802.47,-370.67 784.89,-360.68"/>
<polygon fill="midnightblue" stroke="midnightblue" points="786.41,-357.52 776.01,-355.52 782.89,-363.57 786.41,-357.52"/>
</g>
<!-- Node9&#45;&gt;Node10 -->
<g id="edge9" class="edge">
<title>Node9&#45;&gt;Node10</title>
<path fill="none" stroke="midnightblue" d="M1010.61,-336.35C999.17,-327.96 982.14,-314.39 970,-300 944.69,-269.99 955.66,-248.52 925,-224 904.02,-207.22 876.6,-196.62 851.66,-189.96"/>
<polygon fill="midnightblue" stroke="midnightblue" points="852.43,-186.54 841.88,-187.51 850.73,-193.33 852.43,-186.54"/>
</g>
<!-- Node9&#45;&gt;Node15 -->
<g id="edge18" class="edge">
<title>Node9&#45;&gt;Node15</title>
<path fill="none" stroke="midnightblue" d="M1017.58,-336.25C1006.86,-318.1 984,-274.71 984,-235 984,-235 984,-235 984,-177 984,-113.24 799.04,-85.6 675.78,-74.26"/>
<polygon fill="midnightblue" stroke="midnightblue" points="675.81,-70.75 665.53,-73.34 675.18,-77.72 675.81,-70.75"/>
</g>
<!-- Node11 -->
<g id="node11" class="node">
<title>Node11</title>
<g id="a_node11"><a xlink:href="../../d7/d79/MinMaxFix_8hpp.html" target="_top" xlink:title=" ">
<polygon fill="white" stroke="black" points="1012,-112.5 1012,-131.5 1148,-131.5 1148,-112.5 1012,-112.5"/>
<text text-anchor="middle" x="1080" y="-119.5" font-family="Helvetica,sans-Serif" font-size="10.00">AH/Math/MinMaxFix.hpp</text>
</a>
</g>
</g>
<!-- Node10&#45;&gt;Node11 -->
<g id="edge10" class="edge">
<title>Node10&#45;&gt;Node11</title>
<path fill="none" stroke="midnightblue" d="M832.59,-168.44C884.41,-158.92 968.13,-143.55 1023.62,-133.36"/>
<polygon fill="midnightblue" stroke="midnightblue" points="1024.43,-136.77 1033.63,-131.52 1023.16,-129.88 1024.43,-136.77"/>
</g>
<!-- Node14 -->
<g id="node14" class="node">
<title>Node14</title>
<g id="a_node14"><a xlink:title=" ">
<polygon fill="white" stroke="#bfbfbf" points="810.5,-0.5 810.5,-19.5 873.5,-19.5 873.5,-0.5 810.5,-0.5"/>
<text text-anchor="middle" x="842" y="-7.5" font-family="Helvetica,sans-Serif" font-size="10.00">Arduino.h</text>
</a>
</g>
</g>
<!-- Node10&#45;&gt;Node14 -->
<g id="edge17" class="edge">
<title>Node10&#45;&gt;Node14</title>
<path fill="none" stroke="midnightblue" d="M785.83,-168.35C785.75,-147.87 787.41,-95.19 805,-56 809.85,-45.2 817.99,-34.88 825.41,-26.84"/>
<polygon fill="midnightblue" stroke="midnightblue" points="827.95,-29.25 832.43,-19.65 822.94,-24.36 827.95,-29.25"/>
</g>
<!-- Node10&#45;&gt;Node16 -->
<g id="edge16" class="edge">
<title>Node10&#45;&gt;Node16</title>
<path fill="none" stroke="midnightblue" d="M725.15,-168.44C654.4,-158.49 538.14,-142.15 466.05,-132.01"/>
<polygon fill="midnightblue" stroke="midnightblue" points="466.14,-128.48 455.75,-130.56 465.16,-135.42 466.14,-128.48"/>
</g>
<!-- Node12 -->
<g id="node12" class="node">
<title>Node12</title>
<g id="a_node12"><a xlink:href="../../d6/d3b/FixArduinoMacros_8hpp.html" target="_top" xlink:title=" ">
<polygon fill="white" stroke="black" points="814,-56.5 814,-75.5 984,-75.5 984,-56.5 814,-56.5"/>
<text text-anchor="middle" x="899" y="-63.5" font-family="Helvetica,sans-Serif" font-size="10.00">AH/Math/FixArduinoMacros.hpp</text>
</a>
</g>
</g>
<!-- Node11&#45;&gt;Node12 -->
<g id="edge11" class="edge">
<title>Node11&#45;&gt;Node12</title>
<path fill="none" stroke="midnightblue" d="M1051.32,-112.44C1020.47,-103.24 971.27,-88.56 937.17,-78.39"/>
<polygon fill="midnightblue" stroke="midnightblue" points="938.13,-75.02 927.55,-75.52 936.13,-81.73 938.13,-75.02"/>
</g>
<!-- Node11&#45;&gt;Node15 -->
<g id="edge14" class="edge">
<title>Node11&#45;&gt;Node15</title>
<path fill="none" stroke="midnightblue" d="M1011.99,-113.51C1007.26,-113 1002.56,-112.49 998,-112 881.7,-99.53 747.66,-85.57 660.57,-76.55"/>
<polygon fill="midnightblue" stroke="midnightblue" points="660.75,-73.05 650.45,-75.5 660.03,-80.01 660.75,-73.05"/>
</g>
<!-- Node13 -->
<g id="node13" class="node">
<title>Node13</title>
<g id="a_node13"><a xlink:href="../../d1/d65/Warnings_8hpp.html" target="_top" xlink:title=" ">
<polygon fill="white" stroke="black" points="636.5,-0.5 636.5,-19.5 779.5,-19.5 779.5,-0.5 636.5,-0.5"/>
<text text-anchor="middle" x="708" y="-7.5" font-family="Helvetica,sans-Serif" font-size="10.00">AH/Settings/Warnings.hpp</text>
</a>
</g>
</g>
<!-- Node12&#45;&gt;Node13 -->
<g id="edge12" class="edge">
<title>Node12&#45;&gt;Node13</title>
<path fill="none" stroke="midnightblue" d="M868.74,-56.44C836.04,-47.2 783.82,-32.44 747.82,-22.26"/>
<polygon fill="midnightblue" stroke="midnightblue" points="748.7,-18.87 738.12,-19.52 746.79,-25.61 748.7,-18.87"/>
</g>
<!-- Node12&#45;&gt;Node14 -->
<g id="edge13" class="edge">
<title>Node12&#45;&gt;Node14</title>
<path fill="none" stroke="midnightblue" d="M889.84,-56.32C881.5,-48.42 868.97,-36.55 858.82,-26.94"/>
<polygon fill="midnightblue" stroke="midnightblue" points="860.99,-24.17 851.32,-19.83 856.18,-29.25 860.99,-24.17"/>
</g>
<!-- Node15&#45;&gt;Node13 -->
<g id="edge15" class="edge">
<title>Node15&#45;&gt;Node13</title>
<path fill="none" stroke="midnightblue" d="M590.18,-56.44C613.43,-47.48 650.15,-33.31 676.42,-23.18"/>
<polygon fill="midnightblue" stroke="midnightblue" points="677.85,-26.38 685.92,-19.52 675.33,-19.85 677.85,-26.38"/>
</g>
<!-- Node17&#45;&gt;Node8 -->
<g id="edge30" class="edge">
<title>Node17&#45;&gt;Node8</title>
<path fill="none" stroke="midnightblue" d="M786.46,-355.65C804.35,-364.15 829.36,-377.24 846.87,-387.18"/>
<polygon fill="midnightblue" stroke="midnightblue" points="845.32,-390.33 855.73,-392.32 848.84,-384.27 845.32,-390.33"/>
</g>
<!-- Node17&#45;&gt;Node15 -->
<g id="edge20" class="edge">
<title>Node17&#45;&gt;Node15</title>
<path fill="none" stroke="midnightblue" d="M691.05,-336.48C641.31,-329.29 581.55,-317.38 563,-300 541.04,-279.42 544,-265.1 544,-235 544,-235 544,-235 544,-177 544,-144.06 554.4,-106.82 561.51,-85.21"/>
<polygon fill="midnightblue" stroke="midnightblue" points="564.84,-86.29 564.76,-75.7 558.22,-84.03 564.84,-86.29"/>
</g>
<!-- Node18 -->
<g id="node18" class="node">
<title>Node18</title>
<g id="a_node18"><a xlink:href="../../db/d02/Settings_8hpp.html" target="_top" xlink:title="All user settings and debugging options can be changed here.">
<polygon fill="white" stroke="black" points="572.5,-280.5 572.5,-299.5 649.5,-299.5 649.5,-280.5 572.5,-280.5"/>
<text text-anchor="middle" x="611" y="-287.5" font-family="Helvetica,sans-Serif" font-size="10.00">Settings.hpp</text>
</a>
</g>
</g>
<!-- Node17&#45;&gt;Node18 -->
<g id="edge21" class="edge">
<title>Node17&#45;&gt;Node18</title>
<path fill="none" stroke="midnightblue" d="M740.6,-336.44C714.8,-327.4 673.92,-313.06 644.98,-302.92"/>
<polygon fill="midnightblue" stroke="midnightblue" points="645.88,-299.52 635.29,-299.52 643.57,-306.13 645.88,-299.52"/>
</g>
<!-- Node24 -->
<g id="node24" class="node">
<title>Node24</title>
<g id="a_node24"><a xlink:href="../../d9/d98/TeensyUSBTypes_8hpp.html" target="_top" xlink:title=" ">
<polygon fill="white" stroke="black" points="706.5,-280.5 706.5,-299.5 879.5,-299.5 879.5,-280.5 706.5,-280.5"/>
<text text-anchor="middle" x="793" y="-287.5" font-family="Helvetica,sans-Serif" font-size="10.00">AH/Teensy/TeensyUSBTypes.hpp</text>
</a>
</g>
</g>
<!-- Node17&#45;&gt;Node24 -->
<g id="edge29" class="edge">
<title>Node17&#45;&gt;Node24</title>
<path fill="none" stroke="midnightblue" d="M769.62,-336.08C773.46,-328.69 779.02,-317.95 783.76,-308.81"/>
<polygon fill="midnightblue" stroke="midnightblue" points="786.97,-310.24 788.46,-299.75 780.75,-307.02 786.97,-310.24"/>
</g>
<!-- Node19 -->
<g id="node19" class="node">
<title>Node19</title>
<g id="a_node19"><a xlink:href="../../dc/d50/Frequency_8hpp.html" target="_top" xlink:title=" ">
<polygon fill="white" stroke="black" points="572,-168.5 572,-187.5 706,-187.5 706,-168.5 572,-168.5"/>
<text text-anchor="middle" x="639" y="-175.5" font-family="Helvetica,sans-Serif" font-size="10.00">AH/Types/Frequency.hpp</text>
</a>
</g>
</g>
<!-- Node18&#45;&gt;Node19 -->
<g id="edge22" class="edge">
<title>Node18&#45;&gt;Node19</title>
<path fill="none" stroke="midnightblue" d="M607.76,-280.32C603.52,-267.61 597.37,-243.32 604,-224 607.72,-213.16 615.23,-202.92 622.35,-194.96"/>
<polygon fill="midnightblue" stroke="midnightblue" points="625.05,-197.19 629.44,-187.55 620,-192.35 625.05,-197.19"/>
</g>
<!-- Node20 -->
<g id="node20" class="node">
<title>Node20</title>
<g id="a_node20"><a xlink:href="../../d7/d7c/ADCConfig_8hpp.html" target="_top" xlink:title="This file contains the platform&#45;specific ADC resolutions.">
<polygon fill="white" stroke="black" points="684.5,-224.5 684.5,-243.5 841.5,-243.5 841.5,-224.5 684.5,-224.5"/>
<text text-anchor="middle" x="763" y="-231.5" font-family="Helvetica,sans-Serif" font-size="10.00">AH/Hardware/ADCConfig.hpp</text>
</a>
</g>
</g>
<!-- Node18&#45;&gt;Node20 -->
<g id="edge24" class="edge">
<title>Node18&#45;&gt;Node20</title>
<path fill="none" stroke="midnightblue" d="M635.08,-280.44C660.54,-271.4 700.89,-257.06 729.46,-246.92"/>
<polygon fill="midnightblue" stroke="midnightblue" points="730.78,-250.16 739.03,-243.52 728.43,-243.57 730.78,-250.16"/>
</g>
<!-- Node21 -->
<g id="node21" class="node">
<title>Node21</title>
<g id="a_node21"><a xlink:title=" ">
<polygon fill="white" stroke="#bfbfbf" points="613.5,-224.5 613.5,-243.5 666.5,-243.5 666.5,-224.5 613.5,-224.5"/>
<text text-anchor="middle" x="640" y="-231.5" font-family="Helvetica,sans-Serif" font-size="10.00">limits.h</text>
</a>
</g>
</g>
<!-- Node18&#45;&gt;Node21 -->
<g id="edge26" class="edge">
<title>Node18&#45;&gt;Node21</title>
<path fill="none" stroke="midnightblue" d="M615.79,-280.08C619.76,-272.69 625.53,-261.95 630.43,-252.81"/>
<polygon fill="midnightblue" stroke="midnightblue" points="633.65,-254.22 635.3,-243.75 627.49,-250.91 633.65,-254.22"/>
</g>
<!-- Node18&#45;&gt;Node22 -->
<g id="edge27" class="edge">
<title>Node18&#45;&gt;Node22</title>
<path fill="none" stroke="midnightblue" d="M649.78,-282.38C695.39,-274.46 773.59,-260.42 849.97,-244.14"/>
<polygon fill="midnightblue" stroke="midnightblue" points="850.71,-247.56 859.75,-242.03 849.24,-240.71 850.71,-247.56"/>
</g>
<!-- Node18&#45;&gt;Node23 -->
<g id="edge28" class="edge">
<title>Node18&#45;&gt;Node23</title>
<path fill="none" stroke="midnightblue" d="M591.67,-280.44C571.68,-271.6 540.26,-257.69 517.44,-247.59"/>
<polygon fill="midnightblue" stroke="midnightblue" points="518.8,-244.36 508.24,-243.52 515.97,-250.76 518.8,-244.36"/>
</g>
<!-- Node19&#45;&gt;Node15 -->
<g id="edge23" class="edge">
<title>Node19&#45;&gt;Node15</title>
<path fill="none" stroke="midnightblue" d="M633.43,-168.37C621.76,-150.3 594.58,-108.18 579.17,-84.31"/>
<polygon fill="midnightblue" stroke="midnightblue" points="581.91,-82.1 573.55,-75.59 576.03,-85.89 581.91,-82.1"/>
</g>
<!-- Node20&#45;&gt;Node10 -->
<g id="edge25" class="edge">
<title>Node20&#45;&gt;Node10</title>
<path fill="none" stroke="midnightblue" d="M766.8,-224.08C769.91,-216.77 774.42,-206.18 778.29,-197.1"/>
<polygon fill="midnightblue" stroke="midnightblue" points="781.57,-198.32 782.27,-187.75 775.13,-195.58 781.57,-198.32"/>
</g>
<!-- Node26&#45;&gt;Node15 -->
<g id="edge39" class="edge">
<title>Node26&#45;&gt;Node15</title>
<path fill="none" stroke="midnightblue" d="M119.12,-565.98C99.53,-558.05 72.94,-544.35 57,-524 38.44,-500.31 38,-489.1 38,-459 38,-459 38,-459 38,-177 38,-91.54 305.53,-71.99 460.44,-67.83"/>
<polygon fill="midnightblue" stroke="midnightblue" points="460.57,-71.33 470.48,-67.58 460.4,-64.33 460.57,-71.33"/>
</g>
<!-- Node27 -->
<g id="node27" class="node">
<title>Node27</title>
<g id="a_node27"><a xlink:title=" ">
<polygon fill="white" stroke="#bfbfbf" points="66,-504.5 66,-523.5 156,-523.5 156,-504.5 66,-504.5"/>
<text text-anchor="middle" x="111" y="-511.5" font-family="Helvetica,sans-Serif" font-size="10.00">AH/STL/cstddef</text>
</a>
</g>
</g>
<!-- Node26&#45;&gt;Node27 -->
<g id="edge37" class="edge">
<title>Node26&#45;&gt;Node27</title>
<path fill="none" stroke="midnightblue" d="M139.27,-565.98C134.42,-557.23 126.73,-543.37 120.6,-532.31"/>
<polygon fill="midnightblue" stroke="midnightblue" points="123.63,-530.56 115.72,-523.51 117.51,-533.95 123.63,-530.56"/>
</g>
<!-- Node28 -->
<g id="node28" class="node">
<title>Node28</title>
<g id="a_node28"><a xlink:title=" ">
<polygon fill="white" stroke="#bfbfbf" points="174.5,-504.5 174.5,-523.5 253.5,-523.5 253.5,-504.5 174.5,-504.5"/>
<text text-anchor="middle" x="214" y="-511.5" font-family="Helvetica,sans-Serif" font-size="10.00">AH/STL/tuple</text>
</a>
</g>
</g>
<!-- Node26&#45;&gt;Node28 -->
<g id="edge38" class="edge">
<title>Node26&#45;&gt;Node28</title>
<path fill="none" stroke="midnightblue" d="M154.03,-565.98C165.05,-556.61 182.96,-541.38 196.34,-530.01"/>
<polygon fill="midnightblue" stroke="midnightblue" points="198.64,-532.65 203.99,-523.51 194.1,-527.32 198.64,-532.65"/>
</g>
<!-- Node30&#45;&gt;Node7 -->
<g id="edge50" class="edge">
<title>Node30&#45;&gt;Node7</title>
<path fill="none" stroke="midnightblue" d="M697.72,-504.44C676.65,-495.56 643.48,-481.56 619.51,-471.45"/>
<polygon fill="midnightblue" stroke="midnightblue" points="620.76,-468.18 610.19,-467.52 618.04,-474.63 620.76,-468.18"/>
</g>
<!-- Node30&#45;&gt;Node16 -->
<g id="edge51" class="edge">
<title>Node30&#45;&gt;Node16</title>
<path fill="none" stroke="midnightblue" d="M637.28,-506.2C601.8,-500.2 561.02,-488.98 529,-468 446.7,-414.07 396,-389.4 396,-291 396,-291 396,-291 396,-233 396,-200.9 398.58,-163.61 400.36,-141.73"/>
<polygon fill="midnightblue" stroke="midnightblue" points="403.86,-141.81 401.22,-131.55 396.89,-141.22 403.86,-141.81"/>
</g>
<!-- Node30&#45;&gt;Node17 -->
<g id="edge53" class="edge">
<title>Node30&#45;&gt;Node17</title>
<path fill="none" stroke="midnightblue" d="M710.33,-504.46C703.22,-495.93 693.15,-482.09 689,-468 679.46,-435.6 672.27,-421.34 689,-392 697.41,-377.25 712.77,-366.84 727.48,-359.77"/>
<polygon fill="midnightblue" stroke="midnightblue" points="729.24,-362.83 736.98,-355.6 726.42,-356.42 729.24,-362.83"/>
</g>
<!-- Node30&#45;&gt;Node22 -->
<g id="edge54" class="edge">
<title>Node30&#45;&gt;Node22</title>
<path fill="none" stroke="midnightblue" d="M798.61,-509.64C909.8,-504.16 1098.99,-491.49 1120,-468 1150.23,-434.2 1106.77,-415.47 1067,-392 1012.04,-359.56 974.59,-399.61 928,-356 899.16,-329 891.09,-280.79 888.85,-254.1"/>
<polygon fill="midnightblue" stroke="midnightblue" points="892.32,-253.56 888.19,-243.8 885.34,-254.01 892.32,-253.56"/>
</g>
<!-- Node31 -->
<g id="node31" class="node">
<title>Node31</title>
<g id="a_node31"><a xlink:href="../../d4/dba/CRTP_8hpp.html" target="_top" xlink:title=" ">
<polygon fill="white" stroke="black" points="698,-448.5 698,-467.5 832,-467.5 832,-448.5 698,-448.5"/>
<text text-anchor="middle" x="765" y="-455.5" font-family="Helvetica,sans-Serif" font-size="10.00">AH/Containers/CRTP.hpp</text>
</a>
</g>
</g>
<!-- Node30&#45;&gt;Node31 -->
<g id="edge44" class="edge">
<title>Node30&#45;&gt;Node31</title>
<path fill="none" stroke="midnightblue" d="M725.76,-504.08C732.54,-496.3 742.54,-484.8 750.76,-475.37"/>
<polygon fill="midnightblue" stroke="midnightblue" points="753.46,-477.59 757.38,-467.75 748.18,-473 753.46,-477.59"/>
</g>
<!-- Node32 -->
<g id="node32" class="node">
<title>Node32</title>
<g id="a_node32"><a xlink:href="../../de/dd1/LinkedList_8hpp.html" target="_top" xlink:title=" ">
<polygon fill="white" stroke="black" points="951.5,-448.5 951.5,-467.5 1110.5,-467.5 1110.5,-448.5 951.5,-448.5"/>
<text text-anchor="middle" x="1031" y="-455.5" font-family="Helvetica,sans-Serif" font-size="10.00">AH/Containers/LinkedList.hpp</text>
</a>
</g>
</g>
<!-- Node30&#45;&gt;Node32 -->
<g id="edge45" class="edge">
<title>Node30&#45;&gt;Node32</title>
<path fill="none" stroke="midnightblue" d="M767.6,-504.44C823,-494.89 912.64,-479.42 971.71,-469.23"/>
<polygon fill="midnightblue" stroke="midnightblue" points="972.38,-472.67 981.64,-467.52 971.19,-465.77 972.38,-472.67"/>
</g>
<!-- Node34 -->
<g id="node34" class="node">
<title>Node34</title>
<g id="a_node34"><a xlink:title=" ">
<polygon fill="white" stroke="#bfbfbf" points="850.5,-448.5 850.5,-467.5 933.5,-467.5 933.5,-448.5 850.5,-448.5"/>
<text text-anchor="middle" x="892" y="-455.5" font-family="Helvetica,sans-Serif" font-size="10.00">AH/STL/utility</text>
</a>
</g>
</g>
<!-- Node30&#45;&gt;Node34 -->
<g id="edge52" class="edge">
<title>Node30&#45;&gt;Node34</title>
<path fill="none" stroke="midnightblue" d="M745.57,-504.44C775.1,-495.28 822.12,-480.69 854.88,-470.52"/>
<polygon fill="midnightblue" stroke="midnightblue" points="856.04,-473.82 864.56,-467.52 853.97,-467.14 856.04,-473.82"/>
</g>
<!-- Node32&#45;&gt;Node8 -->
<g id="edge46" class="edge">
<title>Node32&#45;&gt;Node8</title>
<path fill="none" stroke="midnightblue" d="M1005.01,-448.44C977.3,-439.32 933.25,-424.81 902.38,-414.65"/>
<polygon fill="midnightblue" stroke="midnightblue" points="903.46,-411.32 892.86,-411.52 901.27,-417.97 903.46,-411.32"/>
</g>
<!-- Node32&#45;&gt;Node11 -->
<g id="edge47" class="edge">
<title>Node32&#45;&gt;Node11</title>
<path fill="none" stroke="midnightblue" d="M1083.44,-448.48C1137.52,-436.35 1214,-408.35 1214,-347 1214,-347 1214,-347 1214,-233 1214,-182.39 1156.2,-150.81 1116.52,-135.09"/>
<polygon fill="midnightblue" stroke="midnightblue" points="1117.71,-131.8 1107.12,-131.53 1115.23,-138.35 1117.71,-131.8"/>
</g>
<!-- Node32&#45;&gt;Node25 -->
<g id="edge49" class="edge">
<title>Node32&#45;&gt;Node25</title>
<path fill="none" stroke="midnightblue" d="M985.37,-448.44C934.7,-438.94 852.93,-423.61 798.57,-413.42"/>
<polygon fill="midnightblue" stroke="midnightblue" points="798.89,-409.92 788.42,-411.52 797.6,-416.8 798.89,-409.92"/>
</g>
<!-- Node33 -->
<g id="node33" class="node">
<title>Node33</title>
<g id="a_node33"><a xlink:title=" ">
<polygon fill="white" stroke="#bfbfbf" points="1004.5,-392.5 1004.5,-411.5 1057.5,-411.5 1057.5,-392.5 1004.5,-392.5"/>
<text text-anchor="middle" x="1031" y="-399.5" font-family="Helvetica,sans-Serif" font-size="10.00">stdlib.h</text>
</a>
</g>
</g>
<!-- Node32&#45;&gt;Node33 -->
<g id="edge48" class="edge">
<title>Node32&#45;&gt;Node33</title>
<path fill="none" stroke="midnightblue" d="M1031,-448.08C1031,-441.01 1031,-430.86 1031,-421.99"/>
<polygon fill="midnightblue" stroke="midnightblue" points="1034.5,-421.75 1031,-411.75 1027.5,-421.75 1034.5,-421.75"/>
</g>
<!-- Node35&#45;&gt;Node6 -->
<g id="edge57" class="edge">
<title>Node35&#45;&gt;Node6</title>
<path fill="none" stroke="midnightblue" d="M872.82,-565.98C793.54,-555.11 656.73,-536.35 573.01,-524.87"/>
<polygon fill="midnightblue" stroke="midnightblue" points="573.45,-521.4 563.07,-523.51 572.5,-528.33 573.45,-521.4"/>
</g>
<!-- Node35&#45;&gt;Node9 -->
<g id="edge59" class="edge">
<title>Node35&#45;&gt;Node9</title>
<path fill="none" stroke="midnightblue" d="M983.88,-565.97C1035.82,-554.02 1115.38,-526.77 1152,-468 1167.29,-443.47 1134.78,-400.58 1126,-392 1110.12,-376.48 1088.01,-365.87 1068.35,-358.86"/>
<polygon fill="midnightblue" stroke="midnightblue" points="1069.22,-355.47 1058.63,-355.62 1067.01,-362.11 1069.22,-355.47"/>
</g>
<!-- Node36 -->
<g id="node36" class="node">
<title>Node36</title>
<g id="a_node36"><a xlink:title=" ">
<polygon fill="white" stroke="#bfbfbf" points="1204.5,-504.5 1204.5,-523.5 1305.5,-523.5 1305.5,-504.5 1204.5,-504.5"/>
<text text-anchor="middle" x="1255" y="-511.5" font-family="Helvetica,sans-Serif" font-size="10.00">AH/STL/algorithm</text>
</a>
</g>
</g>
<!-- Node35&#45;&gt;Node36 -->
<g id="edge58" class="edge">
<title>Node35&#45;&gt;Node36</title>
<path fill="none" stroke="midnightblue" d="M980.85,-565.98C1038.47,-555.26 1137.31,-536.88 1199.25,-525.37"/>
<polygon fill="midnightblue" stroke="midnightblue" points="1200.05,-528.78 1209.24,-523.51 1198.77,-521.9 1200.05,-528.78"/>
</g>
</g>
</svg>
