<?xml version="1.0" encoding="UTF-8" standalone="no"?>
<!DOCTYPE svg PUBLIC "-//W3C//DTD SVG 1.1//EN"
 "http://www.w3.org/Graphics/SVG/1.1/DTD/svg11.dtd">
<!-- Generated by graphviz version 2.43.0 (0)
 -->
<!-- Title: FilteredAnalog.hpp Pages: 1 -->
<svg width="1365pt" height="789pt"
 viewBox="0.00 0.00 1364.50 789.00" xmlns="http://www.w3.org/2000/svg" xmlns:xlink="http://www.w3.org/1999/xlink">
<g id="graph0" class="graph" transform="scale(1 1) rotate(0) translate(4 785)">
<title>FilteredAnalog.hpp</title>
<polygon fill="white" stroke="transparent" points="-4,4 -4,-785 1360.5,-785 1360.5,4 -4,4"/>
<!-- Node1 -->
<g id="node1" class="node">
<title>Node1</title>
<g id="a_node1"><a xlink:title=" ">
<polygon fill="#bfbfbf" stroke="black" points="971,-761.5 971,-780.5 1079,-780.5 1079,-761.5 971,-761.5"/>
<text text-anchor="middle" x="1025" y="-768.5" font-family="Helvetica,sans-Serif" font-size="10.00">FilteredAnalog.hpp</text>
</a>
</g>
</g>
<!-- Node2 -->
<g id="node2" class="node">
<title>Node2</title>
<g id="a_node2"><a xlink:href="../../d3/df0/EMA_8hpp.html" target="_top" xlink:title=" ">
<polygon fill="white" stroke="black" points="48,-280.5 48,-299.5 158,-299.5 158,-280.5 48,-280.5"/>
<text text-anchor="middle" x="103" y="-287.5" font-family="Helvetica,sans-Serif" font-size="10.00">AH/Filters/EMA.hpp</text>
</a>
</g>
</g>
<!-- Node1&#45;&gt;Node2 -->
<g id="edge1" class="edge">
<title>Node1&#45;&gt;Node2</title>
<path fill="none" stroke="midnightblue" d="M970.97,-770.14C794.06,-770.18 239.67,-766.94 172,-725 136.65,-703.09 126,-685.09 126,-643.5 126,-643.5 126,-643.5 126,-401 126,-368.12 116.03,-330.86 109.22,-309.24"/>
<polygon fill="midnightblue" stroke="midnightblue" points="112.54,-308.12 106.1,-299.71 105.89,-310.3 112.54,-308.12"/>
</g>
<!-- Node5 -->
<g id="node5" class="node">
<title>Node5</title>
<g id="a_node5"><a xlink:title=" ">
<polygon fill="white" stroke="#bfbfbf" points="448.5,-112.5 448.5,-131.5 555.5,-131.5 555.5,-112.5 448.5,-112.5"/>
<text text-anchor="middle" x="502" y="-119.5" font-family="Helvetica,sans-Serif" font-size="10.00">AH/STL/type_traits</text>
</a>
</g>
</g>
<!-- Node1&#45;&gt;Node5 -->
<g id="edge56" class="edge">
<title>Node1&#45;&gt;Node5</title>
<path fill="none" stroke="midnightblue" d="M970.69,-770.9C863.03,-771.63 615.44,-767.95 413,-725 308.14,-702.75 186,-750.69 186,-643.5 186,-643.5 186,-643.5 186,-233 186,-180.09 346.02,-146.78 438.31,-131.97"/>
<polygon fill="midnightblue" stroke="midnightblue" points="439.06,-135.39 448.39,-130.38 437.97,-128.48 439.06,-135.39"/>
</g>
<!-- Node8 -->
<g id="node8" class="node">
<title>Node8</title>
<g id="a_node8"><a xlink:href="../../d3/d09/Hysteresis_8hpp.html" target="_top" xlink:title=" ">
<polygon fill="white" stroke="black" points="214,-280.5 214,-299.5 354,-299.5 354,-280.5 214,-280.5"/>
<text text-anchor="middle" x="284" y="-287.5" font-family="Helvetica,sans-Serif" font-size="10.00">AH/Filters/Hysteresis.hpp</text>
</a>
</g>
</g>
<!-- Node1&#45;&gt;Node8 -->
<g id="edge7" class="edge">
<title>Node1&#45;&gt;Node8</title>
<path fill="none" stroke="midnightblue" d="M970.98,-766.1C805.05,-753.4 314,-710.18 314,-643.5 314,-643.5 314,-643.5 314,-401 314,-367.64 301,-330.53 292.11,-309.07"/>
<polygon fill="midnightblue" stroke="midnightblue" points="295.22,-307.42 288.05,-299.62 288.79,-310.19 295.22,-307.42"/>
</g>
<!-- Node9 -->
<g id="node9" class="node">
<title>Node9</title>
<g id="a_node9"><a xlink:href="../../dd/ddf/ExtendedInputOutput_8hpp.html" target="_top" xlink:title=" ">
<polygon fill="white" stroke="black" points="781.5,-694.5 781.5,-724.5 958.5,-724.5 958.5,-694.5 781.5,-694.5"/>
<text text-anchor="start" x="789.5" y="-712.5" font-family="Helvetica,sans-Serif" font-size="10.00">AH/Hardware/ExtendedInput</text>
<text text-anchor="middle" x="870" y="-701.5" font-family="Helvetica,sans-Serif" font-size="10.00">Output/ExtendedInputOutput.hpp</text>
</a>
</g>
</g>
<!-- Node1&#45;&gt;Node9 -->
<g id="edge10" class="edge">
<title>Node1&#45;&gt;Node9</title>
<path fill="none" stroke="midnightblue" d="M1002.79,-761.48C980.23,-752.81 944.62,-739.15 915.96,-728.14"/>
<polygon fill="midnightblue" stroke="midnightblue" points="917.12,-724.84 906.53,-724.52 914.61,-731.37 917.12,-724.84"/>
</g>
<!-- Node11 -->
<g id="node11" class="node">
<title>Node11</title>
<g id="a_node11"><a xlink:href="../../d4/d35/Hardware-Types_8hpp.html" target="_top" xlink:title=" ">
<polygon fill="white" stroke="black" points="715.5,-560.5 715.5,-590.5 846.5,-590.5 846.5,-560.5 715.5,-560.5"/>
<text text-anchor="start" x="723.5" y="-578.5" font-family="Helvetica,sans-Serif" font-size="10.00">AH/Hardware/Hardware</text>
<text text-anchor="middle" x="781" y="-567.5" font-family="Helvetica,sans-Serif" font-size="10.00">&#45;Types.hpp</text>
</a>
</g>
</g>
<!-- Node1&#45;&gt;Node11 -->
<g id="edge50" class="edge">
<title>Node1&#45;&gt;Node11</title>
<path fill="none" stroke="midnightblue" d="M1026.89,-761.21C1031.64,-736.49 1041.34,-665.62 1006,-627 986.02,-605.16 914.05,-591.7 856.82,-584.23"/>
<polygon fill="midnightblue" stroke="midnightblue" points="857.04,-580.73 846.68,-582.95 856.17,-587.68 857.04,-580.73"/>
</g>
<!-- Node17 -->
<g id="node17" class="node">
<title>Node17</title>
<g id="a_node17"><a xlink:href="../../d7/d79/MinMaxFix_8hpp.html" target="_top" xlink:title=" ">
<polygon fill="white" stroke="black" points="612,-112.5 612,-131.5 748,-131.5 748,-112.5 612,-112.5"/>
<text text-anchor="middle" x="680" y="-119.5" font-family="Helvetica,sans-Serif" font-size="10.00">AH/Math/MinMaxFix.hpp</text>
</a>
</g>
</g>
<!-- Node1&#45;&gt;Node17 -->
<g id="edge55" class="edge">
<title>Node1&#45;&gt;Node17</title>
<path fill="none" stroke="midnightblue" d="M1047.62,-761.38C1086.53,-744.9 1162,-705.01 1162,-643.5 1162,-643.5 1162,-643.5 1162,-233 1162,-151.23 894.99,-130.24 758.44,-124.86"/>
<polygon fill="midnightblue" stroke="midnightblue" points="758.16,-121.35 748.04,-124.47 757.9,-128.34 758.16,-121.35"/>
</g>
<!-- Node20 -->
<g id="node20" class="node">
<title>Node20</title>
<g id="a_node20"><a xlink:href="../../d2/dd5/SettingsWrapper_8hpp.html" target="_top" xlink:title=" ">
<polygon fill="white" stroke="black" points="677,-336.5 677,-355.5 855,-355.5 855,-336.5 677,-336.5"/>
<text text-anchor="middle" x="766" y="-343.5" font-family="Helvetica,sans-Serif" font-size="10.00">AH/Settings/SettingsWrapper.hpp</text>
</a>
</g>
</g>
<!-- Node1&#45;&gt;Node20 -->
<g id="edge58" class="edge">
<title>Node1&#45;&gt;Node20</title>
<path fill="none" stroke="midnightblue" d="M1079.02,-766.55C1111.16,-761.74 1150.51,-750.57 1176,-725 1202.66,-698.26 1200,-681.26 1200,-643.5 1200,-643.5 1200,-643.5 1200,-457 1200,-388.37 993.48,-362.08 865.37,-352.37"/>
<polygon fill="midnightblue" stroke="midnightblue" points="865.37,-348.87 855.14,-351.62 864.85,-355.85 865.37,-348.87"/>
</g>
<!-- Node32 -->
<g id="node32" class="node">
<title>Node32</title>
<g id="a_node32"><a xlink:href="../../d5/dee/IncreaseBitDepth_8hpp.html" target="_top" xlink:title=" ">
<polygon fill="white" stroke="black" points="1189.5,-280.5 1189.5,-299.5 1356.5,-299.5 1356.5,-280.5 1189.5,-280.5"/>
<text text-anchor="middle" x="1273" y="-287.5" font-family="Helvetica,sans-Serif" font-size="10.00">AH/Math/IncreaseBitDepth.hpp</text>
</a>
</g>
</g>
<!-- Node1&#45;&gt;Node32 -->
<g id="edge51" class="edge">
<title>Node1&#45;&gt;Node32</title>
<path fill="none" stroke="midnightblue" d="M1079.02,-767.98C1116.69,-763.97 1166.09,-753.16 1200,-725 1230.74,-699.46 1238,-683.47 1238,-643.5 1238,-643.5 1238,-643.5 1238,-401 1238,-367.07 1253.31,-329.91 1263.68,-308.63"/>
<polygon fill="midnightblue" stroke="midnightblue" points="1266.88,-310.05 1268.28,-299.54 1260.64,-306.88 1266.88,-310.05"/>
</g>
<!-- Node33 -->
<g id="node33" class="node">
<title>Node33</title>
<g id="a_node33"><a xlink:title=" ">
<polygon fill="white" stroke="#bfbfbf" points="1266.5,-700 1266.5,-719 1349.5,-719 1349.5,-700 1266.5,-700"/>
<text text-anchor="middle" x="1308" y="-707" font-family="Helvetica,sans-Serif" font-size="10.00">AH/STL/utility</text>
</a>
</g>
</g>
<!-- Node1&#45;&gt;Node33 -->
<g id="edge57" class="edge">
<title>Node1&#45;&gt;Node33</title>
<path fill="none" stroke="midnightblue" d="M1072.12,-761.48C1118.15,-752.96 1190.11,-739.13 1252,-725 1256.71,-723.92 1261.62,-722.74 1266.5,-721.53"/>
<polygon fill="midnightblue" stroke="midnightblue" points="1267.55,-724.87 1276.39,-719.02 1265.84,-718.09 1267.55,-724.87"/>
</g>
<!-- Node3 -->
<g id="node3" class="node">
<title>Node3</title>
<g id="a_node3"><a xlink:title=" ">
<polygon fill="white" stroke="#bfbfbf" points="300.5,-224.5 300.5,-243.5 353.5,-243.5 353.5,-224.5 300.5,-224.5"/>
<text text-anchor="middle" x="327" y="-231.5" font-family="Helvetica,sans-Serif" font-size="10.00">stdint.h</text>
</a>
</g>
</g>
<!-- Node2&#45;&gt;Node3 -->
<g id="edge2" class="edge">
<title>Node2&#45;&gt;Node3</title>
<path fill="none" stroke="midnightblue" d="M138.49,-280.44C180.09,-270.42 248.66,-253.89 290.63,-243.77"/>
<polygon fill="midnightblue" stroke="midnightblue" points="291.54,-247.15 300.44,-241.4 289.9,-240.34 291.54,-247.15"/>
</g>
<!-- Node4 -->
<g id="node4" class="node">
<title>Node4</title>
<g id="a_node4"><a xlink:title=" ">
<polygon fill="white" stroke="#bfbfbf" points="0,-224.5 0,-243.5 82,-243.5 82,-224.5 0,-224.5"/>
<text text-anchor="middle" x="41" y="-231.5" font-family="Helvetica,sans-Serif" font-size="10.00">AH/STL/limits</text>
</a>
</g>
</g>
<!-- Node2&#45;&gt;Node4 -->
<g id="edge3" class="edge">
<title>Node2&#45;&gt;Node4</title>
<path fill="none" stroke="midnightblue" d="M93.04,-280.32C83.87,-272.34 70.06,-260.31 58.97,-250.65"/>
<polygon fill="midnightblue" stroke="midnightblue" points="60.98,-247.76 51.14,-243.83 56.38,-253.04 60.98,-247.76"/>
</g>
<!-- Node2&#45;&gt;Node5 -->
<g id="edge4" class="edge">
<title>Node2&#45;&gt;Node5</title>
<path fill="none" stroke="midnightblue" d="M105.06,-280.48C111.01,-257.84 130.52,-196.02 172,-168 214.2,-139.5 354.57,-128.91 438.03,-125.08"/>
<polygon fill="midnightblue" stroke="midnightblue" points="438.33,-128.57 448.17,-124.64 438.02,-121.58 438.33,-128.57"/>
</g>
<!-- Node6 -->
<g id="node6" class="node">
<title>Node6</title>
<g id="a_node6"><a xlink:href="../../dc/dc7/NamespaceSettings_8hpp.html" target="_top" xlink:title=" ">
<polygon fill="white" stroke="black" points="364.5,-56.5 364.5,-75.5 559.5,-75.5 559.5,-56.5 364.5,-56.5"/>
<text text-anchor="middle" x="462" y="-63.5" font-family="Helvetica,sans-Serif" font-size="10.00">AH/Settings/NamespaceSettings.hpp</text>
</a>
</g>
</g>
<!-- Node2&#45;&gt;Node6 -->
<g id="edge5" class="edge">
<title>Node2&#45;&gt;Node6</title>
<path fill="none" stroke="midnightblue" d="M105.59,-280.28C112.57,-258.22 133.89,-199.7 172,-168 235.03,-115.57 326.97,-89.69 390.35,-77.37"/>
<polygon fill="midnightblue" stroke="midnightblue" points="391.09,-80.8 400.27,-75.51 389.8,-73.92 391.09,-80.8"/>
</g>
<!-- Node7 -->
<g id="node7" class="node">
<title>Node7</title>
<g id="a_node7"><a xlink:href="../../d1/d65/Warnings_8hpp.html" target="_top" xlink:title=" ">
<polygon fill="white" stroke="black" points="486.5,-0.5 486.5,-19.5 629.5,-19.5 629.5,-0.5 486.5,-0.5"/>
<text text-anchor="middle" x="558" y="-7.5" font-family="Helvetica,sans-Serif" font-size="10.00">AH/Settings/Warnings.hpp</text>
</a>
</g>
</g>
<!-- Node6&#45;&gt;Node7 -->
<g id="edge6" class="edge">
<title>Node6&#45;&gt;Node7</title>
<path fill="none" stroke="midnightblue" d="M477.42,-56.32C492.54,-47.82 515.82,-34.73 533.47,-24.8"/>
<polygon fill="midnightblue" stroke="midnightblue" points="535.61,-27.61 542.61,-19.65 532.18,-21.51 535.61,-27.61"/>
</g>
<!-- Node8&#45;&gt;Node3 -->
<g id="edge9" class="edge">
<title>Node8&#45;&gt;Node3</title>
<path fill="none" stroke="midnightblue" d="M291.1,-280.08C297.24,-272.38 306.27,-261.03 313.74,-251.65"/>
<polygon fill="midnightblue" stroke="midnightblue" points="316.54,-253.75 320.03,-243.75 311.06,-249.39 316.54,-253.75"/>
</g>
<!-- Node8&#45;&gt;Node6 -->
<g id="edge8" class="edge">
<title>Node8&#45;&gt;Node6</title>
<path fill="none" stroke="midnightblue" d="M283.79,-280.28C283.77,-267.51 284.8,-243.16 292,-224 313.15,-167.69 322.4,-151.24 368,-112 384.82,-97.53 407.09,-86.6 425.74,-79.13"/>
<polygon fill="midnightblue" stroke="midnightblue" points="427.02,-82.39 435.11,-75.55 424.52,-75.85 427.02,-82.39"/>
</g>
<!-- Node9&#45;&gt;Node6 -->
<g id="edge49" class="edge">
<title>Node9&#45;&gt;Node6</title>
<path fill="none" stroke="midnightblue" d="M781.34,-702.67C640.65,-690.95 382,-658.29 382,-576.5 382,-576.5 382,-576.5 382,-177 382,-136.62 417.69,-101.11 441.4,-81.97"/>
<polygon fill="midnightblue" stroke="midnightblue" points="443.74,-84.58 449.5,-75.69 439.45,-79.05 443.74,-84.58"/>
</g>
<!-- Node10 -->
<g id="node10" class="node">
<title>Node10</title>
<g id="a_node10"><a xlink:href="../../d2/d3c/Arduino-Hardware-Types_8hpp.html" target="_top" xlink:title=" ">
<polygon fill="white" stroke="black" points="769,-627.5 769,-657.5 891,-657.5 891,-627.5 769,-627.5"/>
<text text-anchor="start" x="777" y="-645.5" font-family="Helvetica,sans-Serif" font-size="10.00">AH/Hardware/Arduino</text>
<text text-anchor="middle" x="830" y="-634.5" font-family="Helvetica,sans-Serif" font-size="10.00">&#45;Hardware&#45;Types.hpp</text>
</a>
</g>
</g>
<!-- Node9&#45;&gt;Node10 -->
<g id="edge11" class="edge">
<title>Node9&#45;&gt;Node10</title>
<path fill="none" stroke="midnightblue" d="M861.32,-694.4C856.24,-686.13 849.7,-675.51 843.91,-666.1"/>
<polygon fill="midnightblue" stroke="midnightblue" points="846.88,-664.26 838.66,-657.58 840.92,-667.93 846.88,-664.26"/>
</g>
<!-- Node31 -->
<g id="node31" class="node">
<title>Node31</title>
<g id="a_node31"><a xlink:title=" ">
<polygon fill="white" stroke="#bfbfbf" points="909.5,-633 909.5,-652 996.5,-652 996.5,-633 909.5,-633"/>
<text text-anchor="middle" x="953" y="-640" font-family="Helvetica,sans-Serif" font-size="10.00">AH/STL/climits</text>
</a>
</g>
</g>
<!-- Node9&#45;&gt;Node31 -->
<g id="edge48" class="edge">
<title>Node9&#45;&gt;Node31</title>
<path fill="none" stroke="midnightblue" d="M888.01,-694.4C901.59,-683.76 920.18,-669.2 934,-658.38"/>
<polygon fill="midnightblue" stroke="midnightblue" points="936.18,-661.12 941.9,-652.19 931.87,-655.6 936.18,-661.12"/>
</g>
<!-- Node10&#45;&gt;Node11 -->
<g id="edge12" class="edge">
<title>Node10&#45;&gt;Node11</title>
<path fill="none" stroke="midnightblue" d="M819.37,-627.4C813.08,-619.05 804.96,-608.29 797.82,-598.81"/>
<polygon fill="midnightblue" stroke="midnightblue" points="800.43,-596.45 791.61,-590.58 794.84,-600.67 800.43,-596.45"/>
</g>
<!-- Node16 -->
<g id="node16" class="node">
<title>Node16</title>
<g id="a_node16"><a xlink:href="../../d6/ddf/Arduino-Wrapper_8h.html" target="_top" xlink:title=" ">
<polygon fill="white" stroke="black" points="623,-168.5 623,-187.5 747,-187.5 747,-168.5 623,-168.5"/>
<text text-anchor="middle" x="685" y="-175.5" font-family="Helvetica,sans-Serif" font-size="10.00">AH/Arduino&#45;Wrapper.h</text>
</a>
</g>
</g>
<!-- Node10&#45;&gt;Node16 -->
<g id="edge47" class="edge">
<title>Node10&#45;&gt;Node16</title>
<path fill="none" stroke="midnightblue" d="M837.44,-627.3C855.67,-592.58 901.24,-506.09 904,-504 963.19,-459.27 1012.81,-518.67 1067,-468 1088.98,-447.44 1086,-433.1 1086,-403 1086,-403 1086,-403 1086,-289 1086,-258.9 1089.98,-243.43 1067,-224 1055.33,-214.13 864.95,-195.36 757.46,-185.47"/>
<polygon fill="midnightblue" stroke="midnightblue" points="757.6,-181.97 747.33,-184.54 756.96,-188.94 757.6,-181.97"/>
</g>
<!-- Node28 -->
<g id="node28" class="node">
<title>Node28</title>
<g id="a_node28"><a xlink:href="../../d0/db1/FunctionTraits_8hpp.html" target="_top" xlink:title=" ">
<polygon fill="white" stroke="black" points="911.5,-566 911.5,-585 1064.5,-585 1064.5,-566 911.5,-566"/>
<text text-anchor="middle" x="988" y="-573" font-family="Helvetica,sans-Serif" font-size="10.00">AH/Types/FunctionTraits.hpp</text>
</a>
</g>
</g>
<!-- Node10&#45;&gt;Node28 -->
<g id="edge43" class="edge">
<title>Node10&#45;&gt;Node28</title>
<path fill="none" stroke="midnightblue" d="M864.28,-627.4C892.13,-615.94 931.03,-599.94 957.73,-588.95"/>
<polygon fill="midnightblue" stroke="midnightblue" points="959.41,-592.05 967.32,-585.01 956.74,-585.57 959.41,-592.05"/>
</g>
<!-- Node11&#45;&gt;Node3 -->
<g id="edge42" class="edge">
<title>Node11&#45;&gt;Node3</title>
<path fill="none" stroke="midnightblue" d="M715.4,-572.45C629.35,-568.47 484.5,-556.95 444,-524 420.11,-504.57 420,-489.8 420,-459 420,-459 420,-459 420,-345 420,-302.31 378.65,-267.64 351.09,-249.28"/>
<polygon fill="midnightblue" stroke="midnightblue" points="352.67,-246.13 342.36,-243.69 348.89,-252.03 352.67,-246.13"/>
</g>
<!-- Node11&#45;&gt;Node6 -->
<g id="edge41" class="edge">
<title>Node11&#45;&gt;Node6</title>
<path fill="none" stroke="midnightblue" d="M715.25,-564.65C620.81,-548.61 458,-513.12 458,-459 458,-459 458,-459 458,-345 458,-250 444,-226.92 440,-132 439.63,-123.12 438,-120.66 440,-112 442.23,-102.36 446.82,-92.41 451.24,-84.31"/>
<polygon fill="midnightblue" stroke="midnightblue" points="454.35,-85.92 456.36,-75.52 448.3,-82.4 454.35,-85.92"/>
</g>
<!-- Node12 -->
<g id="node12" class="node">
<title>Node12</title>
<g id="a_node12"><a xlink:href="../../de/d76/Array_8hpp.html" target="_top" xlink:title=" ">
<polygon fill="white" stroke="black" points="713.5,-504.5 713.5,-523.5 848.5,-523.5 848.5,-504.5 713.5,-504.5"/>
<text text-anchor="middle" x="781" y="-511.5" font-family="Helvetica,sans-Serif" font-size="10.00">AH/Containers/Array.hpp</text>
</a>
</g>
</g>
<!-- Node11&#45;&gt;Node12 -->
<g id="edge13" class="edge">
<title>Node11&#45;&gt;Node12</title>
<path fill="none" stroke="midnightblue" d="M781,-560.4C781,-552.47 781,-542.46 781,-533.86"/>
<polygon fill="midnightblue" stroke="midnightblue" points="784.5,-533.66 781,-523.66 777.5,-533.66 784.5,-533.66"/>
</g>
<!-- Node12&#45;&gt;Node5 -->
<g id="edge39" class="edge">
<title>Node12&#45;&gt;Node5</title>
<path fill="none" stroke="midnightblue" d="M731.68,-504.45C650.11,-488.9 496,-452.92 496,-403 496,-403 496,-403 496,-345 496,-290.63 471.67,-278 478,-224 481.45,-194.55 490.38,-161.23 496.32,-141.19"/>
<polygon fill="midnightblue" stroke="midnightblue" points="499.7,-142.11 499.26,-131.53 493,-140.07 499.7,-142.11"/>
</g>
<!-- Node13 -->
<g id="node13" class="node">
<title>Node13</title>
<g id="a_node13"><a xlink:href="../../d1/d93/Error_8hpp.html" target="_top" xlink:title=" ">
<polygon fill="white" stroke="black" points="719,-448.5 719,-467.5 823,-467.5 823,-448.5 719,-448.5"/>
<text text-anchor="middle" x="771" y="-455.5" font-family="Helvetica,sans-Serif" font-size="10.00">AH/Error/Error.hpp</text>
</a>
</g>
</g>
<!-- Node12&#45;&gt;Node13 -->
<g id="edge14" class="edge">
<title>Node12&#45;&gt;Node13</title>
<path fill="none" stroke="midnightblue" d="M779.35,-504.08C778.02,-496.93 776.12,-486.64 774.46,-477.69"/>
<polygon fill="midnightblue" stroke="midnightblue" points="777.88,-476.95 772.62,-467.75 771,-478.22 777.88,-476.95"/>
</g>
<!-- Node25 -->
<g id="node25" class="node">
<title>Node25</title>
<g id="a_node25"><a xlink:title=" ">
<polygon fill="white" stroke="#bfbfbf" points="1002,-224.5 1002,-243.5 1058,-243.5 1058,-224.5 1002,-224.5"/>
<text text-anchor="middle" x="1030" y="-231.5" font-family="Helvetica,sans-Serif" font-size="10.00">stddef.h</text>
</a>
</g>
</g>
<!-- Node12&#45;&gt;Node25 -->
<g id="edge40" class="edge">
<title>Node12&#45;&gt;Node25</title>
<path fill="none" stroke="midnightblue" d="M792.95,-504.37C829.06,-477.74 938.45,-393.08 1002,-300 1011.95,-285.43 1019.55,-266.75 1024.3,-253.16"/>
<polygon fill="midnightblue" stroke="midnightblue" points="1027.67,-254.12 1027.49,-243.52 1021.03,-251.91 1027.67,-254.12"/>
</g>
<!-- Node27 -->
<g id="node27" class="node">
<title>Node27</title>
<g id="a_node27"><a xlink:title=" ">
<polygon fill="white" stroke="#bfbfbf" points="968,-448.5 968,-467.5 1058,-467.5 1058,-448.5 968,-448.5"/>
<text text-anchor="middle" x="1013" y="-455.5" font-family="Helvetica,sans-Serif" font-size="10.00">AH/STL/iterator</text>
</a>
</g>
</g>
<!-- Node12&#45;&gt;Node27 -->
<g id="edge38" class="edge">
<title>Node12&#45;&gt;Node27</title>
<path fill="none" stroke="midnightblue" d="M817.76,-504.44C858.06,-495.06 922.81,-479.99 966.58,-469.8"/>
<polygon fill="midnightblue" stroke="midnightblue" points="967.46,-473.19 976.41,-467.52 965.88,-466.37 967.46,-473.19"/>
</g>
<!-- Node14 -->
<g id="node14" class="node">
<title>Node14</title>
<g id="a_node14"><a xlink:href="../../df/dee/Debug_8hpp.html" target="_top" xlink:title=" ">
<polygon fill="white" stroke="black" points="705.5,-392.5 705.5,-411.5 826.5,-411.5 826.5,-392.5 705.5,-392.5"/>
<text text-anchor="middle" x="766" y="-399.5" font-family="Helvetica,sans-Serif" font-size="10.00">AH/Debug/Debug.hpp</text>
</a>
</g>
</g>
<!-- Node13&#45;&gt;Node14 -->
<g id="edge15" class="edge">
<title>Node13&#45;&gt;Node14</title>
<path fill="none" stroke="midnightblue" d="M770.17,-448.08C769.52,-441.01 768.58,-430.86 767.76,-421.99"/>
<polygon fill="midnightblue" stroke="midnightblue" points="771.22,-421.39 766.81,-411.75 764.25,-422.03 771.22,-421.39"/>
</g>
<!-- Node15 -->
<g id="node15" class="node">
<title>Node15</title>
<g id="a_node15"><a xlink:href="../../dd/d80/PrintStream_8hpp.html" target="_top" xlink:title=" ">
<polygon fill="white" stroke="black" points="486.5,-224.5 486.5,-243.5 659.5,-243.5 659.5,-224.5 486.5,-224.5"/>
<text text-anchor="middle" x="573" y="-231.5" font-family="Helvetica,sans-Serif" font-size="10.00">AH/PrintStream/PrintStream.hpp</text>
</a>
</g>
</g>
<!-- Node14&#45;&gt;Node15 -->
<g id="edge16" class="edge">
<title>Node14&#45;&gt;Node15</title>
<path fill="none" stroke="midnightblue" d="M738.73,-392.44C717.92,-385.02 689.31,-372.81 668,-356 630.07,-326.08 598.31,-278.03 582.94,-252.41"/>
<polygon fill="midnightblue" stroke="midnightblue" points="585.95,-250.63 577.87,-243.77 579.91,-254.17 585.95,-250.63"/>
</g>
<!-- Node14&#45;&gt;Node20 -->
<g id="edge26" class="edge">
<title>Node14&#45;&gt;Node20</title>
<path fill="none" stroke="midnightblue" d="M760.83,-392.08C759.32,-384.93 758.89,-374.64 759.54,-365.69"/>
<polygon fill="midnightblue" stroke="midnightblue" points="763.02,-366.13 760.87,-355.75 756.08,-365.2 763.02,-366.13"/>
</g>
<!-- Node15&#45;&gt;Node6 -->
<g id="edge25" class="edge">
<title>Node15&#45;&gt;Node6</title>
<path fill="none" stroke="midnightblue" d="M575.2,-224.4C580.11,-203.11 589.69,-147.14 565,-112 553.68,-95.89 535.29,-85.49 517.16,-78.8"/>
<polygon fill="midnightblue" stroke="midnightblue" points="518.05,-75.41 507.45,-75.54 515.82,-82.04 518.05,-75.41"/>
</g>
<!-- Node15&#45;&gt;Node16 -->
<g id="edge17" class="edge">
<title>Node15&#45;&gt;Node16</title>
<path fill="none" stroke="midnightblue" d="M590.99,-224.32C609.04,-215.62 637.05,-202.12 657.8,-192.11"/>
<polygon fill="midnightblue" stroke="midnightblue" points="659.56,-195.15 667.05,-187.65 656.52,-188.84 659.56,-195.15"/>
</g>
<!-- Node16&#45;&gt;Node5 -->
<g id="edge23" class="edge">
<title>Node16&#45;&gt;Node5</title>
<path fill="none" stroke="midnightblue" d="M656,-168.44C624.82,-159.24 575.07,-144.56 540.59,-134.39"/>
<polygon fill="midnightblue" stroke="midnightblue" points="541.44,-130.99 530.86,-131.52 539.46,-137.7 541.44,-130.99"/>
</g>
<!-- Node16&#45;&gt;Node17 -->
<g id="edge18" class="edge">
<title>Node16&#45;&gt;Node17</title>
<path fill="none" stroke="midnightblue" d="M684.17,-168.08C683.52,-161.01 682.58,-150.86 681.76,-141.99"/>
<polygon fill="midnightblue" stroke="midnightblue" points="685.22,-141.39 680.81,-131.75 678.25,-142.03 685.22,-141.39"/>
</g>
<!-- Node19 -->
<g id="node19" class="node">
<title>Node19</title>
<g id="a_node19"><a xlink:title=" ">
<polygon fill="white" stroke="#bfbfbf" points="687.5,-0.5 687.5,-19.5 750.5,-19.5 750.5,-0.5 687.5,-0.5"/>
<text text-anchor="middle" x="719" y="-7.5" font-family="Helvetica,sans-Serif" font-size="10.00">Arduino.h</text>
</a>
</g>
</g>
<!-- Node16&#45;&gt;Node19 -->
<g id="edge24" class="edge">
<title>Node16&#45;&gt;Node19</title>
<path fill="none" stroke="midnightblue" d="M710.5,-168.47C726.99,-161.48 747.14,-149.79 757,-132 773.37,-102.46 768.6,-87.72 757,-56 752.94,-44.91 744.81,-34.67 737.11,-26.76"/>
<polygon fill="midnightblue" stroke="midnightblue" points="739.36,-24.07 729.71,-19.7 734.53,-29.14 739.36,-24.07"/>
</g>
<!-- Node17&#45;&gt;Node6 -->
<g id="edge22" class="edge">
<title>Node17&#45;&gt;Node6</title>
<path fill="none" stroke="midnightblue" d="M645.46,-112.44C607.75,-103.1 547.26,-88.12 506.14,-77.93"/>
<polygon fill="midnightblue" stroke="midnightblue" points="506.93,-74.52 496.38,-75.52 505.25,-81.32 506.93,-74.52"/>
</g>
<!-- Node18 -->
<g id="node18" class="node">
<title>Node18</title>
<g id="a_node18"><a xlink:href="../../d6/d3b/FixArduinoMacros_8hpp.html" target="_top" xlink:title=" ">
<polygon fill="white" stroke="black" points="578,-56.5 578,-75.5 748,-75.5 748,-56.5 578,-56.5"/>
<text text-anchor="middle" x="663" y="-63.5" font-family="Helvetica,sans-Serif" font-size="10.00">AH/Math/FixArduinoMacros.hpp</text>
</a>
</g>
</g>
<!-- Node17&#45;&gt;Node18 -->
<g id="edge19" class="edge">
<title>Node17&#45;&gt;Node18</title>
<path fill="none" stroke="midnightblue" d="M677.19,-112.08C674.92,-104.85 671.63,-94.41 668.79,-85.4"/>
<polygon fill="midnightblue" stroke="midnightblue" points="672.1,-84.24 665.75,-75.75 665.42,-86.34 672.1,-84.24"/>
</g>
<!-- Node18&#45;&gt;Node7 -->
<g id="edge20" class="edge">
<title>Node18&#45;&gt;Node7</title>
<path fill="none" stroke="midnightblue" d="M646.13,-56.32C629.29,-47.66 603.19,-34.24 583.76,-24.25"/>
<polygon fill="midnightblue" stroke="midnightblue" points="585.32,-21.12 574.83,-19.65 582.12,-27.34 585.32,-21.12"/>
</g>
<!-- Node18&#45;&gt;Node19 -->
<g id="edge21" class="edge">
<title>Node18&#45;&gt;Node19</title>
<path fill="none" stroke="midnightblue" d="M672,-56.32C680.19,-48.42 692.51,-36.55 702.47,-26.94"/>
<polygon fill="midnightblue" stroke="midnightblue" points="705.07,-29.29 709.84,-19.83 700.21,-24.26 705.07,-29.29"/>
</g>
<!-- Node20&#45;&gt;Node6 -->
<g id="edge27" class="edge">
<title>Node20&#45;&gt;Node6</title>
<path fill="none" stroke="midnightblue" d="M751.62,-336.19C739.99,-328.25 724.24,-315.46 716,-300 704.17,-277.82 709.78,-269.08 708,-244 707.37,-235.13 704.02,-231.95 708,-224 719.93,-200.15 743.86,-211.74 756,-188 771.38,-157.92 779.01,-137.62 757,-112 744.54,-97.49 648.28,-84.75 569.05,-76.56"/>
<polygon fill="midnightblue" stroke="midnightblue" points="569.29,-73.06 558.99,-75.53 568.58,-80.03 569.29,-73.06"/>
</g>
<!-- Node20&#45;&gt;Node14 -->
<g id="edge37" class="edge">
<title>Node20&#45;&gt;Node14</title>
<path fill="none" stroke="midnightblue" d="M771.13,-355.75C772.66,-362.86 773.1,-373.14 772.47,-382.1"/>
<polygon fill="midnightblue" stroke="midnightblue" points="768.99,-381.71 771.17,-392.08 775.93,-382.62 768.99,-381.71"/>
</g>
<!-- Node21 -->
<g id="node21" class="node">
<title>Node21</title>
<g id="a_node21"><a xlink:href="../../db/d02/Settings_8hpp.html" target="_top" xlink:title="All user settings and debugging options can be changed here.">
<polygon fill="white" stroke="black" points="724.5,-280.5 724.5,-299.5 801.5,-299.5 801.5,-280.5 724.5,-280.5"/>
<text text-anchor="middle" x="763" y="-287.5" font-family="Helvetica,sans-Serif" font-size="10.00">Settings.hpp</text>
</a>
</g>
</g>
<!-- Node20&#45;&gt;Node21 -->
<g id="edge28" class="edge">
<title>Node20&#45;&gt;Node21</title>
<path fill="none" stroke="midnightblue" d="M765.5,-336.08C765.11,-329.01 764.55,-318.86 764.05,-309.99"/>
<polygon fill="midnightblue" stroke="midnightblue" points="767.54,-309.54 763.49,-299.75 760.55,-309.93 767.54,-309.54"/>
</g>
<!-- Node26 -->
<g id="node26" class="node">
<title>Node26</title>
<g id="a_node26"><a xlink:href="../../d9/d98/TeensyUSBTypes_8hpp.html" target="_top" xlink:title=" ">
<polygon fill="white" stroke="black" points="819.5,-280.5 819.5,-299.5 992.5,-299.5 992.5,-280.5 819.5,-280.5"/>
<text text-anchor="middle" x="906" y="-287.5" font-family="Helvetica,sans-Serif" font-size="10.00">AH/Teensy/TeensyUSBTypes.hpp</text>
</a>
</g>
</g>
<!-- Node20&#45;&gt;Node26 -->
<g id="edge36" class="edge">
<title>Node20&#45;&gt;Node26</title>
<path fill="none" stroke="midnightblue" d="M788.18,-336.44C811.43,-327.48 848.15,-313.31 874.42,-303.18"/>
<polygon fill="midnightblue" stroke="midnightblue" points="875.85,-306.38 883.92,-299.52 873.33,-299.85 875.85,-306.38"/>
</g>
<!-- Node21&#45;&gt;Node3 -->
<g id="edge35" class="edge">
<title>Node21&#45;&gt;Node3</title>
<path fill="none" stroke="midnightblue" d="M724.31,-284.21C641.04,-273.89 445.77,-249.71 364.02,-239.59"/>
<polygon fill="midnightblue" stroke="midnightblue" points="364.07,-236.06 353.72,-238.31 363.21,-243.01 364.07,-236.06"/>
</g>
<!-- Node22 -->
<g id="node22" class="node">
<title>Node22</title>
<g id="a_node22"><a xlink:href="../../dc/d50/Frequency_8hpp.html" target="_top" xlink:title=" ">
<polygon fill="white" stroke="black" points="826,-168.5 826,-187.5 960,-187.5 960,-168.5 826,-168.5"/>
<text text-anchor="middle" x="893" y="-175.5" font-family="Helvetica,sans-Serif" font-size="10.00">AH/Types/Frequency.hpp</text>
</a>
</g>
</g>
<!-- Node21&#45;&gt;Node22 -->
<g id="edge29" class="edge">
<title>Node21&#45;&gt;Node22</title>
<path fill="none" stroke="midnightblue" d="M796.82,-280.43C828.26,-271.76 871.85,-257.73 883,-244 893.45,-231.13 895.27,-211.96 894.88,-197.76"/>
<polygon fill="midnightblue" stroke="midnightblue" points="898.36,-197.41 894.22,-187.66 891.38,-197.87 898.36,-197.41"/>
</g>
<!-- Node23 -->
<g id="node23" class="node">
<title>Node23</title>
<g id="a_node23"><a xlink:href="../../d7/d7c/ADCConfig_8hpp.html" target="_top" xlink:title="This file contains the platform&#45;specific ADC resolutions.">
<polygon fill="white" stroke="black" points="716.5,-224.5 716.5,-243.5 873.5,-243.5 873.5,-224.5 716.5,-224.5"/>
<text text-anchor="middle" x="795" y="-231.5" font-family="Helvetica,sans-Serif" font-size="10.00">AH/Hardware/ADCConfig.hpp</text>
</a>
</g>
</g>
<!-- Node21&#45;&gt;Node23 -->
<g id="edge31" class="edge">
<title>Node21&#45;&gt;Node23</title>
<path fill="none" stroke="midnightblue" d="M768.28,-280.08C772.71,-272.61 779.16,-261.72 784.62,-252.52"/>
<polygon fill="midnightblue" stroke="midnightblue" points="787.73,-254.14 789.81,-243.75 781.71,-250.57 787.73,-254.14"/>
</g>
<!-- Node24 -->
<g id="node24" class="node">
<title>Node24</title>
<g id="a_node24"><a xlink:title=" ">
<polygon fill="white" stroke="#bfbfbf" points="930.5,-224.5 930.5,-243.5 983.5,-243.5 983.5,-224.5 930.5,-224.5"/>
<text text-anchor="middle" x="957" y="-231.5" font-family="Helvetica,sans-Serif" font-size="10.00">limits.h</text>
</a>
</g>
</g>
<!-- Node21&#45;&gt;Node24 -->
<g id="edge33" class="edge">
<title>Node21&#45;&gt;Node24</title>
<path fill="none" stroke="midnightblue" d="M793.74,-280.44C828.21,-270.85 884.08,-255.3 920.68,-245.11"/>
<polygon fill="midnightblue" stroke="midnightblue" points="921.76,-248.44 930.46,-242.39 919.88,-241.7 921.76,-248.44"/>
</g>
<!-- Node21&#45;&gt;Node25 -->
<g id="edge34" class="edge">
<title>Node21&#45;&gt;Node25</title>
<path fill="none" stroke="midnightblue" d="M801.86,-281.62C853.7,-271.74 943.72,-254.44 991.86,-244.16"/>
<polygon fill="midnightblue" stroke="midnightblue" points="992.72,-247.55 1001.75,-242.01 991.23,-240.71 992.72,-247.55"/>
</g>
<!-- Node22&#45;&gt;Node6 -->
<g id="edge30" class="edge">
<title>Node22&#45;&gt;Node6</title>
<path fill="none" stroke="midnightblue" d="M887.39,-168.46C877.38,-154.04 854.97,-125.15 828,-112 804.98,-100.77 667.76,-86 568.09,-76.5"/>
<polygon fill="midnightblue" stroke="midnightblue" points="568.24,-73 557.96,-75.54 567.58,-79.97 568.24,-73"/>
</g>
<!-- Node23&#45;&gt;Node16 -->
<g id="edge32" class="edge">
<title>Node23&#45;&gt;Node16</title>
<path fill="none" stroke="midnightblue" d="M777.33,-224.32C759.61,-215.62 732.1,-202.12 711.71,-192.11"/>
<polygon fill="midnightblue" stroke="midnightblue" points="713.15,-188.92 702.63,-187.65 710.06,-195.2 713.15,-188.92"/>
</g>
<!-- Node28&#45;&gt;Node6 -->
<g id="edge46" class="edge">
<title>Node28&#45;&gt;Node6</title>
<path fill="none" stroke="midnightblue" d="M973.74,-565.86C953.29,-552.4 919.87,-525.7 937,-504 979.76,-449.85 1033.06,-509.73 1088,-468 1114.3,-448.03 1124,-436.02 1124,-403 1124,-403 1124,-403 1124,-177 1124,-54 976.11,-133.48 855,-112 799.73,-102.2 654.81,-86.57 557.26,-76.55"/>
<polygon fill="midnightblue" stroke="midnightblue" points="557.39,-73.04 547.09,-75.5 556.68,-80 557.39,-73.04"/>
</g>
<!-- Node29 -->
<g id="node29" class="node">
<title>Node29</title>
<g id="a_node29"><a xlink:title=" ">
<polygon fill="white" stroke="#bfbfbf" points="946,-504.5 946,-523.5 1036,-523.5 1036,-504.5 946,-504.5"/>
<text text-anchor="middle" x="991" y="-511.5" font-family="Helvetica,sans-Serif" font-size="10.00">AH/STL/cstddef</text>
</a>
</g>
</g>
<!-- Node28&#45;&gt;Node29 -->
<g id="edge44" class="edge">
<title>Node28&#45;&gt;Node29</title>
<path fill="none" stroke="midnightblue" d="M988.43,-565.98C988.85,-557.58 989.51,-544.48 990.06,-533.66"/>
<polygon fill="midnightblue" stroke="midnightblue" points="993.56,-533.67 990.57,-523.51 986.57,-533.32 993.56,-533.67"/>
</g>
<!-- Node30 -->
<g id="node30" class="node">
<title>Node30</title>
<g id="a_node30"><a xlink:title=" ">
<polygon fill="white" stroke="#bfbfbf" points="1054.5,-504.5 1054.5,-523.5 1133.5,-523.5 1133.5,-504.5 1054.5,-504.5"/>
<text text-anchor="middle" x="1094" y="-511.5" font-family="Helvetica,sans-Serif" font-size="10.00">AH/STL/tuple</text>
</a>
</g>
</g>
<!-- Node28&#45;&gt;Node30 -->
<g id="edge45" class="edge">
<title>Node28&#45;&gt;Node30</title>
<path fill="none" stroke="midnightblue" d="M1003.19,-565.98C1020.66,-556.17 1049.58,-539.93 1070.08,-528.42"/>
<polygon fill="midnightblue" stroke="midnightblue" points="1071.83,-531.46 1078.84,-523.51 1068.41,-525.35 1071.83,-531.46"/>
</g>
<!-- Node32&#45;&gt;Node5 -->
<g id="edge52" class="edge">
<title>Node32&#45;&gt;Node5</title>
<path fill="none" stroke="midnightblue" d="M1256.41,-280.44C1211.51,-257.7 1083.29,-195.66 969,-168 949.7,-163.33 688.8,-139.66 565.59,-128.65"/>
<polygon fill="midnightblue" stroke="midnightblue" points="565.81,-125.15 555.53,-127.75 565.18,-132.13 565.81,-125.15"/>
</g>
<!-- Node32&#45;&gt;Node24 -->
<g id="edge53" class="edge">
<title>Node32&#45;&gt;Node24</title>
<path fill="none" stroke="midnightblue" d="M1210.17,-280.47C1155.57,-272.71 1074.17,-260.27 993.96,-244.04"/>
<polygon fill="midnightblue" stroke="midnightblue" points="994.18,-240.51 983.68,-241.94 992.77,-247.37 994.18,-240.51"/>
</g>
<!-- Node32&#45;&gt;Node25 -->
<g id="edge54" class="edge">
<title>Node32&#45;&gt;Node25</title>
<path fill="none" stroke="midnightblue" d="M1234.5,-280.44C1188.93,-270.32 1113.53,-253.56 1068.13,-243.47"/>
<polygon fill="midnightblue" stroke="midnightblue" points="1068.62,-240 1058.1,-241.24 1067.1,-246.83 1068.62,-240"/>
</g>
</g>
</svg>
