<?xml version="1.0" encoding="UTF-8" standalone="no"?>
<!DOCTYPE svg PUBLIC "-//W3C//DTD SVG 1.1//EN"
 "http://www.w3.org/Graphics/SVG/1.1/DTD/svg11.dtd">
<!-- Generated by graphviz version 2.43.0 (0)
 -->
<!-- Title: Arduino&#45;Hardware&#45;Types.hpp Pages: 1 -->
<svg width="1351pt" height="655pt"
 viewBox="0.00 0.00 1350.50 655.00" xmlns="http://www.w3.org/2000/svg" xmlns:xlink="http://www.w3.org/1999/xlink">
<g id="graph0" class="graph" transform="scale(1 1) rotate(0) translate(4 651)">
<title>Arduino&#45;Hardware&#45;Types.hpp</title>
<polygon fill="white" stroke="transparent" points="-4,4 -4,-651 1346.5,-651 1346.5,4 -4,4"/>
<!-- Node1 -->
<g id="node1" class="node">
<title>Node1</title>
<g id="a_node1"><a xlink:title=" ">
<polygon fill="#bfbfbf" stroke="black" points="276.5,-627.5 276.5,-646.5 433.5,-646.5 433.5,-627.5 276.5,-627.5"/>
<text text-anchor="middle" x="355" y="-634.5" font-family="Helvetica,sans-Serif" font-size="10.00">Arduino&#45;Hardware&#45;Types.hpp</text>
</a>
</g>
</g>
<!-- Node2 -->
<g id="node2" class="node">
<title>Node2</title>
<g id="a_node2"><a xlink:href="../../d1/d65/Warnings_8hpp.html" target="_top" xlink:title=" ">
<polygon fill="white" stroke="black" points="556.5,-0.5 556.5,-19.5 699.5,-19.5 699.5,-0.5 556.5,-0.5"/>
<text text-anchor="middle" x="628" y="-7.5" font-family="Helvetica,sans-Serif" font-size="10.00">AH/Settings/Warnings.hpp</text>
</a>
</g>
</g>
<!-- Node1&#45;&gt;Node2 -->
<g id="edge1" class="edge">
<title>Node1&#45;&gt;Node2</title>
<path fill="none" stroke="midnightblue" d="M290.3,-627.45C187.91,-612.09 0,-575.64 0,-515 0,-515 0,-515 0,-121 0,-85.35 15.9,-73.44 47,-56 89.46,-32.19 396.44,-18.75 546.22,-13.54"/>
<polygon fill="midnightblue" stroke="midnightblue" points="546.42,-17.04 556.29,-13.2 546.18,-10.04 546.42,-17.04"/>
</g>
<!-- Node3 -->
<g id="node3" class="node">
<title>Node3</title>
<g id="a_node3"><a xlink:href="../../d4/d35/Hardware-Types_8hpp.html" target="_top" xlink:title=" ">
<polygon fill="white" stroke="black" points="402.5,-560.5 402.5,-590.5 533.5,-590.5 533.5,-560.5 402.5,-560.5"/>
<text text-anchor="start" x="410.5" y="-578.5" font-family="Helvetica,sans-Serif" font-size="10.00">AH/Hardware/Hardware</text>
<text text-anchor="middle" x="468" y="-567.5" font-family="Helvetica,sans-Serif" font-size="10.00">&#45;Types.hpp</text>
</a>
</g>
</g>
<!-- Node1&#45;&gt;Node3 -->
<g id="edge2" class="edge">
<title>Node1&#45;&gt;Node3</title>
<path fill="none" stroke="midnightblue" d="M371.19,-627.48C387.07,-619.12 411.8,-606.09 432.3,-595.3"/>
<polygon fill="midnightblue" stroke="midnightblue" points="434.15,-598.28 441.37,-590.52 430.89,-592.09 434.15,-598.28"/>
</g>
<!-- Node9 -->
<g id="node9" class="node">
<title>Node9</title>
<g id="a_node9"><a xlink:href="../../d6/ddf/Arduino-Wrapper_8h.html" target="_top" xlink:title=" ">
<polygon fill="white" stroke="black" points="1036,-168.5 1036,-187.5 1160,-187.5 1160,-168.5 1036,-168.5"/>
<text text-anchor="middle" x="1098" y="-175.5" font-family="Helvetica,sans-Serif" font-size="10.00">AH/Arduino&#45;Wrapper.h</text>
</a>
</g>
</g>
<!-- Node1&#45;&gt;Node9 -->
<g id="edge49" class="edge">
<title>Node1&#45;&gt;Node9</title>
<path fill="none" stroke="midnightblue" d="M433.61,-632.53C638.12,-622.44 1171,-589.07 1171,-515 1171,-515 1171,-515 1171,-289 1171,-258.77 1167.63,-249.24 1151,-224 1143.11,-212.03 1131.14,-201.48 1120.57,-193.61"/>
<polygon fill="midnightblue" stroke="midnightblue" points="1122.32,-190.57 1112.14,-187.66 1118.29,-196.29 1122.32,-190.57"/>
</g>
<!-- Node24 -->
<g id="node24" class="node">
<title>Node24</title>
<g id="a_node24"><a xlink:href="../../d0/db1/FunctionTraits_8hpp.html" target="_top" xlink:title=" ">
<polygon fill="white" stroke="black" points="100.5,-112.5 100.5,-131.5 253.5,-131.5 253.5,-112.5 100.5,-112.5"/>
<text text-anchor="middle" x="177" y="-119.5" font-family="Helvetica,sans-Serif" font-size="10.00">AH/Types/FunctionTraits.hpp</text>
</a>
</g>
</g>
<!-- Node1&#45;&gt;Node24 -->
<g id="edge44" class="edge">
<title>Node1&#45;&gt;Node24</title>
<path fill="none" stroke="midnightblue" d="M328.4,-627.49C286.54,-612.23 210,-575.98 210,-515 210,-515 210,-515 210,-233 210,-199.25 195.57,-162.03 185.79,-140.69"/>
<polygon fill="midnightblue" stroke="midnightblue" points="188.91,-139.1 181.45,-131.58 182.59,-142.11 188.91,-139.1"/>
</g>
<!-- Node3&#45;&gt;Node2 -->
<g id="edge3" class="edge">
<title>Node3&#45;&gt;Node2</title>
<path fill="none" stroke="midnightblue" d="M402.42,-561.84C348.87,-547.25 282,-517.35 282,-459 282,-459 282,-459 282,-121 282,-75.53 319.63,-74.86 361,-56 419.59,-29.29 491.92,-18.28 546.51,-13.82"/>
<polygon fill="midnightblue" stroke="midnightblue" points="546.79,-17.31 556.49,-13.06 546.26,-10.33 546.79,-17.31"/>
</g>
<!-- Node4 -->
<g id="node4" class="node">
<title>Node4</title>
<g id="a_node4"><a xlink:href="../../de/d76/Array_8hpp.html" target="_top" xlink:title=" ">
<polygon fill="white" stroke="black" points="858.5,-504.5 858.5,-523.5 993.5,-523.5 993.5,-504.5 858.5,-504.5"/>
<text text-anchor="middle" x="926" y="-511.5" font-family="Helvetica,sans-Serif" font-size="10.00">AH/Containers/Array.hpp</text>
</a>
</g>
</g>
<!-- Node3&#45;&gt;Node4 -->
<g id="edge4" class="edge">
<title>Node3&#45;&gt;Node4</title>
<path fill="none" stroke="midnightblue" d="M533.62,-565.98C617.46,-555.08 762.25,-536.27 850.55,-524.8"/>
<polygon fill="midnightblue" stroke="midnightblue" points="851.04,-528.27 860.5,-523.51 850.13,-521.33 851.04,-528.27"/>
</g>
<!-- Node7 -->
<g id="node7" class="node">
<title>Node7</title>
<g id="a_node7"><a xlink:href="../../dd/d80/PrintStream_8hpp.html" target="_top" xlink:title=" ">
<polygon fill="white" stroke="black" points="969.5,-224.5 969.5,-243.5 1142.5,-243.5 1142.5,-224.5 969.5,-224.5"/>
<text text-anchor="middle" x="1056" y="-231.5" font-family="Helvetica,sans-Serif" font-size="10.00">AH/PrintStream/PrintStream.hpp</text>
</a>
</g>
</g>
<!-- Node3&#45;&gt;Node7 -->
<g id="edge40" class="edge">
<title>Node3&#45;&gt;Node7</title>
<path fill="none" stroke="midnightblue" d="M533.88,-571.28C656.62,-564.78 915.69,-548.58 1002,-524 1064.51,-506.2 1133,-524 1133,-459 1133,-459 1133,-459 1133,-345 1133,-304.93 1098.29,-269.08 1075.47,-249.84"/>
<polygon fill="midnightblue" stroke="midnightblue" points="1077.67,-247.11 1067.69,-243.53 1073.26,-252.55 1077.67,-247.11"/>
</g>
<!-- Node8 -->
<g id="node8" class="node">
<title>Node8</title>
<g id="a_node8"><a xlink:href="../../dc/dc7/NamespaceSettings_8hpp.html" target="_top" xlink:title=" ">
<polygon fill="white" stroke="black" points="530.5,-56.5 530.5,-75.5 725.5,-75.5 725.5,-56.5 530.5,-56.5"/>
<text text-anchor="middle" x="628" y="-63.5" font-family="Helvetica,sans-Serif" font-size="10.00">AH/Settings/NamespaceSettings.hpp</text>
</a>
</g>
</g>
<!-- Node3&#45;&gt;Node8 -->
<g id="edge42" class="edge">
<title>Node3&#45;&gt;Node8</title>
<path fill="none" stroke="midnightblue" d="M468,-560.28C468,-538.48 468,-495.49 468,-459 468,-459 468,-459 468,-177 468,-146.9 465.98,-133.54 487,-112 503.26,-95.34 525.67,-84.83 547.84,-78.22"/>
<polygon fill="midnightblue" stroke="midnightblue" points="548.92,-81.55 557.64,-75.53 547.07,-74.8 548.92,-81.55"/>
</g>
<!-- Node20 -->
<g id="node20" class="node">
<title>Node20</title>
<g id="a_node20"><a xlink:title=" ">
<polygon fill="white" stroke="#bfbfbf" points="348.5,-224.5 348.5,-243.5 401.5,-243.5 401.5,-224.5 348.5,-224.5"/>
<text text-anchor="middle" x="375" y="-231.5" font-family="Helvetica,sans-Serif" font-size="10.00">stdint.h</text>
</a>
</g>
</g>
<!-- Node3&#45;&gt;Node20 -->
<g id="edge43" class="edge">
<title>Node3&#45;&gt;Node20</title>
<path fill="none" stroke="midnightblue" d="M422.39,-560.42C378.9,-543.83 320,-511.64 320,-459 320,-459 320,-459 320,-345 320,-308.57 344.43,-271.84 360.73,-251.39"/>
<polygon fill="midnightblue" stroke="midnightblue" points="363.44,-253.6 367.12,-243.67 358.05,-249.14 363.44,-253.6"/>
</g>
<!-- Node23 -->
<g id="node23" class="node">
<title>Node23</title>
<g id="a_node23"><a xlink:title=" ">
<polygon fill="white" stroke="#bfbfbf" points="496,-504.5 496,-523.5 578,-523.5 578,-504.5 496,-504.5"/>
<text text-anchor="middle" x="537" y="-511.5" font-family="Helvetica,sans-Serif" font-size="10.00">AH/STL/limits</text>
</a>
</g>
</g>
<!-- Node3&#45;&gt;Node23 -->
<g id="edge41" class="edge">
<title>Node3&#45;&gt;Node23</title>
<path fill="none" stroke="midnightblue" d="M484.35,-560.4C494.9,-551.31 508.6,-539.49 519.38,-530.19"/>
<polygon fill="midnightblue" stroke="midnightblue" points="521.67,-532.84 526.96,-523.66 517.1,-527.54 521.67,-532.84"/>
</g>
<!-- Node4&#45;&gt;Node2 -->
<g id="edge5" class="edge">
<title>Node4&#45;&gt;Node2</title>
<path fill="none" stroke="midnightblue" d="M928.56,-504.25C933.75,-485.74 945,-441.18 945,-403 945,-403 945,-403 945,-345 945,-204.7 931.82,-138.03 818,-56 786.7,-33.44 745.69,-22.05 709.78,-16.35"/>
<polygon fill="midnightblue" stroke="midnightblue" points="710.2,-12.87 699.79,-14.89 709.18,-19.8 710.2,-12.87"/>
</g>
<!-- Node5 -->
<g id="node5" class="node">
<title>Node5</title>
<g id="a_node5"><a xlink:href="../../d1/d93/Error_8hpp.html" target="_top" xlink:title=" ">
<polygon fill="white" stroke="black" points="775,-448.5 775,-467.5 879,-467.5 879,-448.5 775,-448.5"/>
<text text-anchor="middle" x="827" y="-455.5" font-family="Helvetica,sans-Serif" font-size="10.00">AH/Error/Error.hpp</text>
</a>
</g>
</g>
<!-- Node4&#45;&gt;Node5 -->
<g id="edge6" class="edge">
<title>Node4&#45;&gt;Node5</title>
<path fill="none" stroke="midnightblue" d="M910.09,-504.32C894.36,-495.74 870.06,-482.49 851.79,-472.52"/>
<polygon fill="midnightblue" stroke="midnightblue" points="853.32,-469.37 842.87,-467.65 849.97,-475.52 853.32,-469.37"/>
</g>
<!-- Node13 -->
<g id="node13" class="node">
<title>Node13</title>
<g id="a_node13"><a xlink:title=" ">
<polygon fill="white" stroke="#bfbfbf" points="1235.5,-112.5 1235.5,-131.5 1342.5,-131.5 1342.5,-112.5 1235.5,-112.5"/>
<text text-anchor="middle" x="1289" y="-119.5" font-family="Helvetica,sans-Serif" font-size="10.00">AH/STL/type_traits</text>
</a>
</g>
</g>
<!-- Node4&#45;&gt;Node13 -->
<g id="edge38" class="edge">
<title>Node4&#45;&gt;Node13</title>
<path fill="none" stroke="midnightblue" d="M967.88,-504.48C1005.47,-496.08 1056.98,-482.42 1072,-468 1094.11,-446.78 1095,-433.64 1095,-403 1095,-403 1095,-403 1095,-345 1095,-291.89 1222.5,-178.99 1270.78,-138.14"/>
<polygon fill="midnightblue" stroke="midnightblue" points="1273.17,-140.71 1278.57,-131.6 1268.66,-135.35 1273.17,-140.71"/>
</g>
<!-- Node19 -->
<g id="node19" class="node">
<title>Node19</title>
<g id="a_node19"><a xlink:title=" ">
<polygon fill="white" stroke="#bfbfbf" points="857,-224.5 857,-243.5 913,-243.5 913,-224.5 857,-224.5"/>
<text text-anchor="middle" x="885" y="-231.5" font-family="Helvetica,sans-Serif" font-size="10.00">stddef.h</text>
</a>
</g>
</g>
<!-- Node4&#45;&gt;Node19 -->
<g id="edge39" class="edge">
<title>Node4&#45;&gt;Node19</title>
<path fill="none" stroke="midnightblue" d="M923.44,-504.25C918.25,-485.74 907,-441.18 907,-403 907,-403 907,-403 907,-345 907,-312.33 897.55,-275.24 891.04,-253.55"/>
<polygon fill="midnightblue" stroke="midnightblue" points="894.29,-252.22 887.97,-243.72 887.61,-254.31 894.29,-252.22"/>
</g>
<!-- Node22 -->
<g id="node22" class="node">
<title>Node22</title>
<g id="a_node22"><a xlink:title=" ">
<polygon fill="white" stroke="#bfbfbf" points="973,-448.5 973,-467.5 1063,-467.5 1063,-448.5 973,-448.5"/>
<text text-anchor="middle" x="1018" y="-455.5" font-family="Helvetica,sans-Serif" font-size="10.00">AH/STL/iterator</text>
</a>
</g>
</g>
<!-- Node4&#45;&gt;Node22 -->
<g id="edge37" class="edge">
<title>Node4&#45;&gt;Node22</title>
<path fill="none" stroke="midnightblue" d="M940.78,-504.32C955.27,-495.82 977.57,-482.73 994.49,-472.8"/>
<polygon fill="midnightblue" stroke="midnightblue" points="996.4,-475.74 1003.26,-467.65 992.86,-469.7 996.4,-475.74"/>
</g>
<!-- Node5&#45;&gt;Node2 -->
<g id="edge7" class="edge">
<title>Node5&#45;&gt;Node2</title>
<path fill="none" stroke="midnightblue" d="M827.11,-448.35C827.52,-414.17 829,-285.18 829,-179 829,-179 829,-179 829,-121 829,-61.99 761.51,-34.43 704.74,-21.69"/>
<polygon fill="midnightblue" stroke="midnightblue" points="705.16,-18.2 694.65,-19.55 703.71,-25.05 705.16,-18.2"/>
</g>
<!-- Node6 -->
<g id="node6" class="node">
<title>Node6</title>
<g id="a_node6"><a xlink:href="../../df/dee/Debug_8hpp.html" target="_top" xlink:title=" ">
<polygon fill="white" stroke="black" points="524.5,-392.5 524.5,-411.5 645.5,-411.5 645.5,-392.5 524.5,-392.5"/>
<text text-anchor="middle" x="585" y="-399.5" font-family="Helvetica,sans-Serif" font-size="10.00">AH/Debug/Debug.hpp</text>
</a>
</g>
</g>
<!-- Node5&#45;&gt;Node6 -->
<g id="edge8" class="edge">
<title>Node5&#45;&gt;Node6</title>
<path fill="none" stroke="midnightblue" d="M788.65,-448.44C746.53,-439.04 678.79,-423.93 633.13,-413.74"/>
<polygon fill="midnightblue" stroke="midnightblue" points="633.69,-410.28 623.17,-411.52 632.16,-417.11 633.69,-410.28"/>
</g>
<!-- Node6&#45;&gt;Node2 -->
<g id="edge9" class="edge">
<title>Node6&#45;&gt;Node2</title>
<path fill="none" stroke="midnightblue" d="M556.64,-392.4C488.28,-369.71 320,-301.44 320,-179 320,-179 320,-179 320,-121 320,-70.31 469.84,-36.82 560.49,-21.19"/>
<polygon fill="midnightblue" stroke="midnightblue" points="561.15,-24.63 570.43,-19.51 559.98,-17.73 561.15,-24.63"/>
</g>
<!-- Node6&#45;&gt;Node7 -->
<g id="edge10" class="edge">
<title>Node6&#45;&gt;Node7</title>
<path fill="none" stroke="midnightblue" d="M609.33,-392.42C687.5,-364.88 932.34,-278.58 1022.36,-246.86"/>
<polygon fill="midnightblue" stroke="midnightblue" points="1023.55,-250.15 1031.81,-243.52 1021.22,-243.55 1023.55,-250.15"/>
</g>
<!-- Node14 -->
<g id="node14" class="node">
<title>Node14</title>
<g id="a_node14"><a xlink:href="../../d2/dd5/SettingsWrapper_8hpp.html" target="_top" xlink:title=" ">
<polygon fill="white" stroke="black" points="496,-336.5 496,-355.5 674,-355.5 674,-336.5 496,-336.5"/>
<text text-anchor="middle" x="585" y="-343.5" font-family="Helvetica,sans-Serif" font-size="10.00">AH/Settings/SettingsWrapper.hpp</text>
</a>
</g>
</g>
<!-- Node6&#45;&gt;Node14 -->
<g id="edge22" class="edge">
<title>Node6&#45;&gt;Node14</title>
<path fill="none" stroke="midnightblue" d="M579.83,-392.08C578.32,-384.93 577.89,-374.64 578.54,-365.69"/>
<polygon fill="midnightblue" stroke="midnightblue" points="582.02,-366.13 579.87,-355.75 575.08,-365.2 582.02,-366.13"/>
</g>
<!-- Node7&#45;&gt;Node2 -->
<g id="edge12" class="edge">
<title>Node7&#45;&gt;Node2</title>
<path fill="none" stroke="midnightblue" d="M1050.54,-224.33C1029.86,-191.78 955.65,-77.61 919,-56 884.51,-35.66 783.29,-23.37 709.91,-16.89"/>
<polygon fill="midnightblue" stroke="midnightblue" points="710.01,-13.38 699.74,-16.01 709.41,-20.36 710.01,-13.38"/>
</g>
<!-- Node7&#45;&gt;Node8 -->
<g id="edge11" class="edge">
<title>Node7&#45;&gt;Node8</title>
<path fill="none" stroke="midnightblue" d="M1033.89,-224.42C963.08,-196.96 741.72,-111.11 659.32,-79.15"/>
<polygon fill="midnightblue" stroke="midnightblue" points="660.57,-75.88 649.98,-75.52 658.04,-82.4 660.57,-75.88"/>
</g>
<!-- Node7&#45;&gt;Node9 -->
<g id="edge13" class="edge">
<title>Node7&#45;&gt;Node9</title>
<path fill="none" stroke="midnightblue" d="M1062.94,-224.08C1068.93,-216.38 1077.75,-205.03 1085.05,-195.65"/>
<polygon fill="midnightblue" stroke="midnightblue" points="1087.82,-197.79 1091.19,-187.75 1082.29,-193.5 1087.82,-197.79"/>
</g>
<!-- Node10 -->
<g id="node10" class="node">
<title>Node10</title>
<g id="a_node10"><a xlink:href="../../d7/d79/MinMaxFix_8hpp.html" target="_top" xlink:title=" ">
<polygon fill="white" stroke="black" points="998,-112.5 998,-131.5 1134,-131.5 1134,-112.5 998,-112.5"/>
<text text-anchor="middle" x="1066" y="-119.5" font-family="Helvetica,sans-Serif" font-size="10.00">AH/Math/MinMaxFix.hpp</text>
</a>
</g>
</g>
<!-- Node9&#45;&gt;Node10 -->
<g id="edge14" class="edge">
<title>Node9&#45;&gt;Node10</title>
<path fill="none" stroke="midnightblue" d="M1092.72,-168.08C1088.29,-160.61 1081.84,-149.72 1076.38,-140.52"/>
<polygon fill="midnightblue" stroke="midnightblue" points="1079.29,-138.57 1071.19,-131.75 1073.27,-142.14 1079.29,-138.57"/>
</g>
<!-- Node12 -->
<g id="node12" class="node">
<title>Node12</title>
<g id="a_node12"><a xlink:title=" ">
<polygon fill="white" stroke="#bfbfbf" points="1118.5,-0.5 1118.5,-19.5 1181.5,-19.5 1181.5,-0.5 1118.5,-0.5"/>
<text text-anchor="middle" x="1150" y="-7.5" font-family="Helvetica,sans-Serif" font-size="10.00">Arduino.h</text>
</a>
</g>
</g>
<!-- Node9&#45;&gt;Node12 -->
<g id="edge21" class="edge">
<title>Node9&#45;&gt;Node12</title>
<path fill="none" stroke="midnightblue" d="M1110.24,-168.47C1131.23,-152.97 1173.26,-117.87 1188,-76 1190.95,-67.62 1191.05,-64.35 1188,-56 1183.94,-44.91 1175.81,-34.67 1168.11,-26.76"/>
<polygon fill="midnightblue" stroke="midnightblue" points="1170.36,-24.07 1160.71,-19.7 1165.53,-29.14 1170.36,-24.07"/>
</g>
<!-- Node9&#45;&gt;Node13 -->
<g id="edge20" class="edge">
<title>Node9&#45;&gt;Node13</title>
<path fill="none" stroke="midnightblue" d="M1128.26,-168.44C1160.96,-159.2 1213.18,-144.44 1249.18,-134.26"/>
<polygon fill="midnightblue" stroke="midnightblue" points="1250.21,-137.61 1258.88,-131.52 1248.3,-130.87 1250.21,-137.61"/>
</g>
<!-- Node10&#45;&gt;Node2 -->
<g id="edge15" class="edge">
<title>Node10&#45;&gt;Node2</title>
<path fill="none" stroke="midnightblue" d="M1053.09,-112.4C1028.83,-96.4 977.07,-63.03 957,-56 875.88,-27.59 777.65,-17.01 709.76,-13.13"/>
<polygon fill="midnightblue" stroke="midnightblue" points="709.72,-9.62 699.55,-12.58 709.35,-16.61 709.72,-9.62"/>
</g>
<!-- Node10&#45;&gt;Node8 -->
<g id="edge19" class="edge">
<title>Node10&#45;&gt;Node8</title>
<path fill="none" stroke="midnightblue" d="M997.56,-112.56C918.92,-102.87 790.07,-86.98 707.17,-76.76"/>
<polygon fill="midnightblue" stroke="midnightblue" points="707.39,-73.26 697.04,-75.51 706.54,-80.21 707.39,-73.26"/>
</g>
<!-- Node11 -->
<g id="node11" class="node">
<title>Node11</title>
<g id="a_node11"><a xlink:href="../../d6/d3b/FixArduinoMacros_8hpp.html" target="_top" xlink:title=" ">
<polygon fill="white" stroke="black" points="1009,-56.5 1009,-75.5 1179,-75.5 1179,-56.5 1009,-56.5"/>
<text text-anchor="middle" x="1094" y="-63.5" font-family="Helvetica,sans-Serif" font-size="10.00">AH/Math/FixArduinoMacros.hpp</text>
</a>
</g>
</g>
<!-- Node10&#45;&gt;Node11 -->
<g id="edge16" class="edge">
<title>Node10&#45;&gt;Node11</title>
<path fill="none" stroke="midnightblue" d="M1070.62,-112.08C1074.46,-104.69 1080.02,-93.95 1084.76,-84.81"/>
<polygon fill="midnightblue" stroke="midnightblue" points="1087.97,-86.24 1089.46,-75.75 1081.75,-83.02 1087.97,-86.24"/>
</g>
<!-- Node11&#45;&gt;Node2 -->
<g id="edge17" class="edge">
<title>Node11&#45;&gt;Node2</title>
<path fill="none" stroke="midnightblue" d="M1020.42,-56.47C935.92,-46.68 797.68,-30.66 709.85,-20.49"/>
<polygon fill="midnightblue" stroke="midnightblue" points="710,-16.98 699.67,-19.3 709.2,-23.93 710,-16.98"/>
</g>
<!-- Node11&#45;&gt;Node12 -->
<g id="edge18" class="edge">
<title>Node11&#45;&gt;Node12</title>
<path fill="none" stroke="midnightblue" d="M1103,-56.32C1111.19,-48.42 1123.51,-36.55 1133.47,-26.94"/>
<polygon fill="midnightblue" stroke="midnightblue" points="1136.07,-29.29 1140.84,-19.83 1131.21,-24.26 1136.07,-29.29"/>
</g>
<!-- Node14&#45;&gt;Node2 -->
<g id="edge23" class="edge">
<title>Node14&#45;&gt;Node2</title>
<path fill="none" stroke="midnightblue" d="M548.66,-336.39C502.85,-323.12 430,-292.91 430,-235 430,-235 430,-235 430,-121 430,-62.11 497.76,-34.48 554,-21.68"/>
<polygon fill="midnightblue" stroke="midnightblue" points="554.95,-25.06 563.99,-19.54 553.48,-18.22 554.95,-25.06"/>
</g>
<!-- Node14&#45;&gt;Node6 -->
<g id="edge36" class="edge">
<title>Node14&#45;&gt;Node6</title>
<path fill="none" stroke="midnightblue" d="M590.13,-355.75C591.66,-362.86 592.1,-373.14 591.47,-382.1"/>
<polygon fill="midnightblue" stroke="midnightblue" points="587.99,-381.71 590.17,-392.08 594.93,-382.62 587.99,-381.71"/>
</g>
<!-- Node14&#45;&gt;Node8 -->
<g id="edge24" class="edge">
<title>Node14&#45;&gt;Node8</title>
<path fill="none" stroke="midnightblue" d="M565.7,-336.48C551.57,-329.08 533.44,-316.89 525,-300 521.02,-292.05 522.39,-288.5 525,-280 533.83,-251.25 544.96,-248.07 563,-224 594.81,-181.57 621.05,-181.91 639,-132 644.5,-116.7 640.51,-98.37 635.87,-85.08"/>
<polygon fill="midnightblue" stroke="midnightblue" points="639.08,-83.69 632.18,-75.66 632.57,-86.25 639.08,-83.69"/>
</g>
<!-- Node15 -->
<g id="node15" class="node">
<title>Node15</title>
<g id="a_node15"><a xlink:href="../../db/d02/Settings_8hpp.html" target="_top" xlink:title="All user settings and debugging options can be changed here.">
<polygon fill="white" stroke="black" points="534.5,-280.5 534.5,-299.5 611.5,-299.5 611.5,-280.5 534.5,-280.5"/>
<text text-anchor="middle" x="573" y="-287.5" font-family="Helvetica,sans-Serif" font-size="10.00">Settings.hpp</text>
</a>
</g>
</g>
<!-- Node14&#45;&gt;Node15 -->
<g id="edge25" class="edge">
<title>Node14&#45;&gt;Node15</title>
<path fill="none" stroke="midnightblue" d="M583.02,-336.08C581.43,-328.93 579.14,-318.64 577.15,-309.69"/>
<polygon fill="midnightblue" stroke="midnightblue" points="580.53,-308.75 574.94,-299.75 573.7,-310.27 580.53,-308.75"/>
</g>
<!-- Node21 -->
<g id="node21" class="node">
<title>Node21</title>
<g id="a_node21"><a xlink:href="../../d9/d98/TeensyUSBTypes_8hpp.html" target="_top" xlink:title=" ">
<polygon fill="white" stroke="black" points="629.5,-280.5 629.5,-299.5 802.5,-299.5 802.5,-280.5 629.5,-280.5"/>
<text text-anchor="middle" x="716" y="-287.5" font-family="Helvetica,sans-Serif" font-size="10.00">AH/Teensy/TeensyUSBTypes.hpp</text>
</a>
</g>
</g>
<!-- Node14&#45;&gt;Node21 -->
<g id="edge35" class="edge">
<title>Node14&#45;&gt;Node21</title>
<path fill="none" stroke="midnightblue" d="M605.76,-336.44C627.32,-327.56 661.26,-313.56 685.79,-303.45"/>
<polygon fill="midnightblue" stroke="midnightblue" points="687.43,-306.56 695.34,-299.52 684.76,-300.09 687.43,-306.56"/>
</g>
<!-- Node16 -->
<g id="node16" class="node">
<title>Node16</title>
<g id="a_node16"><a xlink:href="../../dc/d50/Frequency_8hpp.html" target="_top" xlink:title=" ">
<polygon fill="white" stroke="black" points="496,-112.5 496,-131.5 630,-131.5 630,-112.5 496,-112.5"/>
<text text-anchor="middle" x="563" y="-119.5" font-family="Helvetica,sans-Serif" font-size="10.00">AH/Types/Frequency.hpp</text>
</a>
</g>
</g>
<!-- Node15&#45;&gt;Node16 -->
<g id="edge26" class="edge">
<title>Node15&#45;&gt;Node16</title>
<path fill="none" stroke="midnightblue" d="M570.52,-280.47C568.04,-271.48 564.41,-256.89 563,-244 559.04,-207.93 560.42,-165.45 561.74,-141.63"/>
<polygon fill="midnightblue" stroke="midnightblue" points="565.24,-141.74 562.36,-131.54 558.26,-141.31 565.24,-141.74"/>
</g>
<!-- Node17 -->
<g id="node17" class="node">
<title>Node17</title>
<g id="a_node17"><a xlink:href="../../d7/d7c/ADCConfig_8hpp.html" target="_top" xlink:title="This file contains the platform&#45;specific ADC resolutions.">
<polygon fill="white" stroke="black" points="643.5,-224.5 643.5,-243.5 800.5,-243.5 800.5,-224.5 643.5,-224.5"/>
<text text-anchor="middle" x="722" y="-231.5" font-family="Helvetica,sans-Serif" font-size="10.00">AH/Hardware/ADCConfig.hpp</text>
</a>
</g>
</g>
<!-- Node15&#45;&gt;Node17 -->
<g id="edge29" class="edge">
<title>Node15&#45;&gt;Node17</title>
<path fill="none" stroke="midnightblue" d="M596.61,-280.44C621.46,-271.44 660.77,-257.19 688.75,-247.05"/>
<polygon fill="midnightblue" stroke="midnightblue" points="690.29,-250.21 698.5,-243.52 687.91,-243.63 690.29,-250.21"/>
</g>
<!-- Node18 -->
<g id="node18" class="node">
<title>Node18</title>
<g id="a_node18"><a xlink:title=" ">
<polygon fill="white" stroke="#bfbfbf" points="572.5,-224.5 572.5,-243.5 625.5,-243.5 625.5,-224.5 572.5,-224.5"/>
<text text-anchor="middle" x="599" y="-231.5" font-family="Helvetica,sans-Serif" font-size="10.00">limits.h</text>
</a>
</g>
</g>
<!-- Node15&#45;&gt;Node18 -->
<g id="edge32" class="edge">
<title>Node15&#45;&gt;Node18</title>
<path fill="none" stroke="midnightblue" d="M577.29,-280.08C580.85,-272.69 586.02,-261.95 590.42,-252.81"/>
<polygon fill="midnightblue" stroke="midnightblue" points="593.6,-254.28 594.79,-243.75 587.29,-251.24 593.6,-254.28"/>
</g>
<!-- Node15&#45;&gt;Node19 -->
<g id="edge33" class="edge">
<title>Node15&#45;&gt;Node19</title>
<path fill="none" stroke="midnightblue" d="M611.72,-281.52C614.52,-281 617.3,-280.49 620,-280 700.55,-265.45 795.14,-249.71 846.7,-241.24"/>
<polygon fill="midnightblue" stroke="midnightblue" points="847.43,-244.67 856.73,-239.6 846.29,-237.76 847.43,-244.67"/>
</g>
<!-- Node15&#45;&gt;Node20 -->
<g id="edge34" class="edge">
<title>Node15&#45;&gt;Node20</title>
<path fill="none" stroke="midnightblue" d="M541.63,-280.44C506.34,-270.82 449.1,-255.21 411.75,-245.02"/>
<polygon fill="midnightblue" stroke="midnightblue" points="412.35,-241.56 401.78,-242.3 410.51,-248.31 412.35,-241.56"/>
</g>
<!-- Node16&#45;&gt;Node2 -->
<g id="edge27" class="edge">
<title>Node16&#45;&gt;Node2</title>
<path fill="none" stroke="midnightblue" d="M550.27,-112.33C533.53,-99.83 507.69,-76.03 521,-56 531.78,-39.78 549.66,-29.39 567.76,-22.75"/>
<polygon fill="midnightblue" stroke="midnightblue" points="569.1,-25.99 577.49,-19.51 566.9,-19.34 569.1,-25.99"/>
</g>
<!-- Node16&#45;&gt;Node8 -->
<g id="edge28" class="edge">
<title>Node16&#45;&gt;Node8</title>
<path fill="none" stroke="midnightblue" d="M573.44,-112.32C583.15,-104.26 597.82,-92.08 609.5,-82.37"/>
<polygon fill="midnightblue" stroke="midnightblue" points="611.91,-84.92 617.37,-75.83 607.44,-79.53 611.91,-84.92"/>
</g>
<!-- Node17&#45;&gt;Node2 -->
<g id="edge30" class="edge">
<title>Node17&#45;&gt;Node2</title>
<path fill="none" stroke="midnightblue" d="M725.97,-224.33C737.86,-196.91 770.21,-110.71 734,-56 723.34,-39.89 705.63,-29.53 687.71,-22.88"/>
<polygon fill="midnightblue" stroke="midnightblue" points="688.37,-19.41 677.77,-19.55 686.14,-26.05 688.37,-19.41"/>
</g>
<!-- Node17&#45;&gt;Node9 -->
<g id="edge31" class="edge">
<title>Node17&#45;&gt;Node9</title>
<path fill="none" stroke="midnightblue" d="M781.58,-224.44C848.68,-214.81 957.6,-199.16 1028.52,-188.98"/>
<polygon fill="midnightblue" stroke="midnightblue" points="1029.3,-192.4 1038.7,-187.52 1028.3,-185.47 1029.3,-192.4"/>
</g>
<!-- Node24&#45;&gt;Node2 -->
<g id="edge47" class="edge">
<title>Node24&#45;&gt;Node2</title>
<path fill="none" stroke="midnightblue" d="M129.4,-112.45C85.58,-102.61 31.03,-84.1 57,-56 89.49,-20.84 396.22,-13.12 546.2,-11.44"/>
<polygon fill="midnightblue" stroke="midnightblue" points="546.33,-14.94 556.29,-11.34 546.25,-7.94 546.33,-14.94"/>
</g>
<!-- Node24&#45;&gt;Node8 -->
<g id="edge48" class="edge">
<title>Node24&#45;&gt;Node8</title>
<path fill="none" stroke="midnightblue" d="M248.46,-112.44C329.61,-102.73 461.74,-86.91 546.75,-76.73"/>
<polygon fill="midnightblue" stroke="midnightblue" points="547.36,-80.18 556.87,-75.52 546.53,-73.23 547.36,-80.18"/>
</g>
<!-- Node25 -->
<g id="node25" class="node">
<title>Node25</title>
<g id="a_node25"><a xlink:title=" ">
<polygon fill="white" stroke="#bfbfbf" points="66,-56.5 66,-75.5 156,-75.5 156,-56.5 66,-56.5"/>
<text text-anchor="middle" x="111" y="-63.5" font-family="Helvetica,sans-Serif" font-size="10.00">AH/STL/cstddef</text>
</a>
</g>
</g>
<!-- Node24&#45;&gt;Node25 -->
<g id="edge45" class="edge">
<title>Node24&#45;&gt;Node25</title>
<path fill="none" stroke="midnightblue" d="M166.4,-112.32C156.54,-104.26 141.65,-92.08 129.78,-82.37"/>
<polygon fill="midnightblue" stroke="midnightblue" points="131.75,-79.46 121.8,-75.83 127.32,-84.88 131.75,-79.46"/>
</g>
<!-- Node26 -->
<g id="node26" class="node">
<title>Node26</title>
<g id="a_node26"><a xlink:title=" ">
<polygon fill="white" stroke="#bfbfbf" points="174.5,-56.5 174.5,-75.5 253.5,-75.5 253.5,-56.5 174.5,-56.5"/>
<text text-anchor="middle" x="214" y="-63.5" font-family="Helvetica,sans-Serif" font-size="10.00">AH/STL/tuple</text>
</a>
</g>
</g>
<!-- Node24&#45;&gt;Node26 -->
<g id="edge46" class="edge">
<title>Node24&#45;&gt;Node26</title>
<path fill="none" stroke="midnightblue" d="M183.11,-112.08C188.28,-104.53 195.85,-93.49 202.19,-84.23"/>
<polygon fill="midnightblue" stroke="midnightblue" points="205.24,-85.98 208,-75.75 199.46,-82.02 205.24,-85.98"/>
</g>
</g>
</svg>
