<?xml version="1.0" encoding="UTF-8" standalone="no"?>
<!DOCTYPE svg PUBLIC "-//W3C//DTD SVG 1.1//EN"
 "http://www.w3.org/Graphics/SVG/1.1/DTD/svg11.dtd">
<!-- Generated by graphviz version 2.43.0 (0)
 -->
<!-- Title: AnalogMultiplex.hpp Pages: 1 -->
<svg width="1158pt" height="890pt"
 viewBox="0.00 0.00 1158.26 890.00" xmlns="http://www.w3.org/2000/svg" xmlns:xlink="http://www.w3.org/1999/xlink">
<g id="graph0" class="graph" transform="scale(1 1) rotate(0) translate(4 886)">
<title>AnalogMultiplex.hpp</title>
<polygon fill="white" stroke="transparent" points="-4,4 -4,-886 1154.26,-886 1154.26,4 -4,4"/>
<!-- Node1 -->
<g id="node1" class="node">
<title>Node1</title>
<g id="a_node1"><a xlink:title=" ">
<polygon fill="#bfbfbf" stroke="black" points="705.5,-862.5 705.5,-881.5 822.5,-881.5 822.5,-862.5 705.5,-862.5"/>
<text text-anchor="middle" x="764" y="-869.5" font-family="Helvetica,sans-Serif" font-size="10.00">AnalogMultiplex.hpp</text>
</a>
</g>
</g>
<!-- Node2 -->
<g id="node2" class="node">
<title>Node2</title>
<g id="a_node2"><a xlink:href="../../dd/ddf/ExtendedInputOutput_8hpp.html" target="_top" xlink:title=" ">
<polygon fill="white" stroke="black" points="372.5,-694.5 372.5,-713.5 513.5,-713.5 513.5,-694.5 372.5,-694.5"/>
<text text-anchor="middle" x="443" y="-701.5" font-family="Helvetica,sans-Serif" font-size="10.00">ExtendedInputOutput.hpp</text>
</a>
</g>
</g>
<!-- Node1&#45;&gt;Node2 -->
<g id="edge1" class="edge">
<title>Node1&#45;&gt;Node2</title>
<path fill="none" stroke="midnightblue" d="M714.06,-862.45C655.85,-850.37 559.33,-823.52 494,-770 477.41,-756.41 462.81,-736.53 453.52,-722.33"/>
<polygon fill="midnightblue" stroke="midnightblue" points="456.29,-720.15 447.99,-713.56 450.37,-723.89 456.29,-720.15"/>
</g>
<!-- Node5 -->
<g id="node5" class="node">
<title>Node5</title>
<g id="a_node5"><a xlink:href="../../de/d76/Array_8hpp.html" target="_top" xlink:title=" ">
<polygon fill="white" stroke="black" points="756.5,-504.5 756.5,-523.5 891.5,-523.5 891.5,-504.5 756.5,-504.5"/>
<text text-anchor="middle" x="824" y="-511.5" font-family="Helvetica,sans-Serif" font-size="10.00">AH/Containers/Array.hpp</text>
</a>
</g>
</g>
<!-- Node1&#45;&gt;Node5 -->
<g id="edge62" class="edge">
<title>Node1&#45;&gt;Node5</title>
<path fill="none" stroke="midnightblue" d="M774.19,-862.35C783.47,-853.94 796.93,-840.38 805,-826 819.74,-799.76 824,-791.1 824,-761 824,-761 824,-761 824,-641.5 824,-603.2 824,-558.38 824,-533.7"/>
<polygon fill="midnightblue" stroke="midnightblue" points="827.5,-533.59 824,-523.59 820.5,-533.59 827.5,-533.59"/>
</g>
<!-- Node29 -->
<g id="node29" class="node">
<title>Node29</title>
<g id="a_node29"><a xlink:href="../../d2/d05/StaticSizeExtendedIOElement_8hpp.html" target="_top" xlink:title=" ">
<polygon fill="white" stroke="black" points="614,-806.5 614,-825.5 796,-825.5 796,-806.5 614,-806.5"/>
<text text-anchor="middle" x="705" y="-813.5" font-family="Helvetica,sans-Serif" font-size="10.00">StaticSizeExtendedIOElement.hpp</text>
</a>
</g>
</g>
<!-- Node1&#45;&gt;Node29 -->
<g id="edge42" class="edge">
<title>Node1&#45;&gt;Node29</title>
<path fill="none" stroke="midnightblue" d="M754.52,-862.32C745.8,-854.34 732.66,-842.31 722.1,-832.65"/>
<polygon fill="midnightblue" stroke="midnightblue" points="724.39,-830 714.65,-825.83 719.67,-835.17 724.39,-830"/>
</g>
<!-- Node34 -->
<g id="node34" class="node">
<title>Node34</title>
<g id="a_node34"><a xlink:title=" ">
<polygon fill="white" stroke="#bfbfbf" points="1056.5,-392.5 1056.5,-411.5 1109.5,-411.5 1109.5,-392.5 1056.5,-392.5"/>
<text text-anchor="middle" x="1083" y="-399.5" font-family="Helvetica,sans-Serif" font-size="10.00">stdlib.h</text>
</a>
</g>
</g>
<!-- Node1&#45;&gt;Node34 -->
<g id="edge63" class="edge">
<title>Node1&#45;&gt;Node34</title>
<path fill="none" stroke="midnightblue" d="M822.52,-864.55C920.95,-852.05 1109,-820.41 1109,-761 1109,-761 1109,-761 1109,-574.5 1109,-518.44 1095.25,-453.24 1087.75,-421.82"/>
<polygon fill="midnightblue" stroke="midnightblue" points="1091.09,-420.73 1085.31,-411.86 1084.29,-422.4 1091.09,-420.73"/>
</g>
<!-- Node3 -->
<g id="node3" class="node">
<title>Node3</title>
<g id="a_node3"><a xlink:href="../../d2/d3c/Arduino-Hardware-Types_8hpp.html" target="_top" xlink:title=" ">
<polygon fill="white" stroke="black" points="387,-627.5 387,-657.5 509,-657.5 509,-627.5 387,-627.5"/>
<text text-anchor="start" x="395" y="-645.5" font-family="Helvetica,sans-Serif" font-size="10.00">AH/Hardware/Arduino</text>
<text text-anchor="middle" x="448" y="-634.5" font-family="Helvetica,sans-Serif" font-size="10.00">&#45;Hardware&#45;Types.hpp</text>
</a>
</g>
</g>
<!-- Node2&#45;&gt;Node3 -->
<g id="edge2" class="edge">
<title>Node2&#45;&gt;Node3</title>
<path fill="none" stroke="midnightblue" d="M443.72,-694.48C444.3,-687.47 445.17,-677.19 445.97,-667.7"/>
<polygon fill="midnightblue" stroke="midnightblue" points="449.47,-667.78 446.82,-657.52 442.5,-667.19 449.47,-667.78"/>
</g>
<!-- Node14 -->
<g id="node14" class="node">
<title>Node14</title>
<g id="a_node14"><a xlink:href="../../dc/dc7/NamespaceSettings_8hpp.html" target="_top" xlink:title=" ">
<polygon fill="white" stroke="black" points="261.5,-56.5 261.5,-75.5 456.5,-75.5 456.5,-56.5 261.5,-56.5"/>
<text text-anchor="middle" x="359" y="-63.5" font-family="Helvetica,sans-Serif" font-size="10.00">AH/Settings/NamespaceSettings.hpp</text>
</a>
</g>
</g>
<!-- Node2&#45;&gt;Node14 -->
<g id="edge41" class="edge">
<title>Node2&#45;&gt;Node14</title>
<path fill="none" stroke="midnightblue" d="M372.32,-697.49C247.24,-685.79 0,-652.98 0,-576.5 0,-576.5 0,-576.5 0,-177 0,-130.84 38.82,-130.75 81,-112 134.2,-88.35 198.05,-76.96 251.14,-71.55"/>
<polygon fill="midnightblue" stroke="midnightblue" points="251.65,-75.02 261.27,-70.58 250.98,-68.05 251.65,-75.02"/>
</g>
<!-- Node28 -->
<g id="node28" class="node">
<title>Node28</title>
<g id="a_node28"><a xlink:title=" ">
<polygon fill="white" stroke="#bfbfbf" points="281.5,-633 281.5,-652 368.5,-652 368.5,-633 281.5,-633"/>
<text text-anchor="middle" x="325" y="-640" font-family="Helvetica,sans-Serif" font-size="10.00">AH/STL/climits</text>
</a>
</g>
</g>
<!-- Node2&#45;&gt;Node28 -->
<g id="edge40" class="edge">
<title>Node2&#45;&gt;Node28</title>
<path fill="none" stroke="midnightblue" d="M426.09,-694.48C406.47,-684.58 373.87,-668.14 351.01,-656.62"/>
<polygon fill="midnightblue" stroke="midnightblue" points="352.38,-653.39 341.88,-652.01 349.23,-659.64 352.38,-653.39"/>
</g>
<!-- Node4 -->
<g id="node4" class="node">
<title>Node4</title>
<g id="a_node4"><a xlink:href="../../d4/d35/Hardware-Types_8hpp.html" target="_top" xlink:title=" ">
<polygon fill="white" stroke="black" points="382.5,-560.5 382.5,-590.5 513.5,-590.5 513.5,-560.5 382.5,-560.5"/>
<text text-anchor="start" x="390.5" y="-578.5" font-family="Helvetica,sans-Serif" font-size="10.00">AH/Hardware/Hardware</text>
<text text-anchor="middle" x="448" y="-567.5" font-family="Helvetica,sans-Serif" font-size="10.00">&#45;Types.hpp</text>
</a>
</g>
</g>
<!-- Node3&#45;&gt;Node4 -->
<g id="edge3" class="edge">
<title>Node3&#45;&gt;Node4</title>
<path fill="none" stroke="midnightblue" d="M448,-627.4C448,-619.64 448,-609.81 448,-600.86"/>
<polygon fill="midnightblue" stroke="midnightblue" points="451.5,-600.58 448,-590.58 444.5,-600.58 451.5,-600.58"/>
</g>
<!-- Node9 -->
<g id="node9" class="node">
<title>Node9</title>
<g id="a_node9"><a xlink:href="../../d6/ddf/Arduino-Wrapper_8h.html" target="_top" xlink:title=" ">
<polygon fill="white" stroke="black" points="858,-168.5 858,-187.5 982,-187.5 982,-168.5 858,-168.5"/>
<text text-anchor="middle" x="920" y="-175.5" font-family="Helvetica,sans-Serif" font-size="10.00">AH/Arduino&#45;Wrapper.h</text>
</a>
</g>
</g>
<!-- Node3&#45;&gt;Node9 -->
<g id="edge39" class="edge">
<title>Node3&#45;&gt;Node9</title>
<path fill="none" stroke="midnightblue" d="M509.19,-639.07C650.96,-633.05 993.37,-616.09 1039,-591 1125.39,-543.5 1175.15,-482.91 1137,-392 1096.97,-296.62 991.1,-222.47 943.62,-192.92"/>
<polygon fill="midnightblue" stroke="midnightblue" points="945.3,-189.85 934.94,-187.61 941.65,-195.82 945.3,-189.85"/>
</g>
<!-- Node25 -->
<g id="node25" class="node">
<title>Node25</title>
<g id="a_node25"><a xlink:href="../../d0/db1/FunctionTraits_8hpp.html" target="_top" xlink:title=" ">
<polygon fill="white" stroke="black" points="81.5,-566 81.5,-585 234.5,-585 234.5,-566 81.5,-566"/>
<text text-anchor="middle" x="158" y="-573" font-family="Helvetica,sans-Serif" font-size="10.00">AH/Types/FunctionTraits.hpp</text>
</a>
</g>
</g>
<!-- Node3&#45;&gt;Node25 -->
<g id="edge35" class="edge">
<title>Node3&#45;&gt;Node25</title>
<path fill="none" stroke="midnightblue" d="M386.85,-627.79C332.91,-615.7 255.37,-598.32 205.84,-587.22"/>
<polygon fill="midnightblue" stroke="midnightblue" points="206.54,-583.79 196.02,-585.02 205.01,-590.62 206.54,-583.79"/>
</g>
<!-- Node4&#45;&gt;Node5 -->
<g id="edge4" class="edge">
<title>Node4&#45;&gt;Node5</title>
<path fill="none" stroke="midnightblue" d="M513.92,-564.07C583.14,-553.11 691.25,-536.01 759.8,-525.16"/>
<polygon fill="midnightblue" stroke="midnightblue" points="760.71,-528.56 770.04,-523.54 759.62,-521.65 760.71,-528.56"/>
</g>
<!-- Node4&#45;&gt;Node14 -->
<g id="edge33" class="edge">
<title>Node4&#45;&gt;Node14</title>
<path fill="none" stroke="midnightblue" d="M405.23,-560.34C345.42,-537.52 244,-486.52 244,-403 244,-403 244,-403 244,-177 244,-129.9 294.99,-96.75 329.07,-79.86"/>
<polygon fill="midnightblue" stroke="midnightblue" points="330.65,-82.98 338.17,-75.53 327.64,-76.66 330.65,-82.98"/>
</g>
<!-- Node22 -->
<g id="node22" class="node">
<title>Node22</title>
<g id="a_node22"><a xlink:title=" ">
<polygon fill="white" stroke="#bfbfbf" points="386.5,-224.5 386.5,-243.5 439.5,-243.5 439.5,-224.5 386.5,-224.5"/>
<text text-anchor="middle" x="413" y="-231.5" font-family="Helvetica,sans-Serif" font-size="10.00">stdint.h</text>
</a>
</g>
</g>
<!-- Node4&#45;&gt;Node22 -->
<g id="edge34" class="edge">
<title>Node4&#45;&gt;Node22</title>
<path fill="none" stroke="midnightblue" d="M431.45,-560.31C411.02,-541.59 377.35,-506.49 364,-468 336.96,-390.04 381.88,-291.99 402.98,-252.58"/>
<polygon fill="midnightblue" stroke="midnightblue" points="406.13,-254.12 407.89,-243.67 400,-250.75 406.13,-254.12"/>
</g>
<!-- Node6 -->
<g id="node6" class="node">
<title>Node6</title>
<g id="a_node6"><a xlink:href="../../d1/d93/Error_8hpp.html" target="_top" xlink:title=" ">
<polygon fill="white" stroke="black" points="678,-448.5 678,-467.5 782,-467.5 782,-448.5 678,-448.5"/>
<text text-anchor="middle" x="730" y="-455.5" font-family="Helvetica,sans-Serif" font-size="10.00">AH/Error/Error.hpp</text>
</a>
</g>
</g>
<!-- Node5&#45;&gt;Node6 -->
<g id="edge5" class="edge">
<title>Node5&#45;&gt;Node6</title>
<path fill="none" stroke="midnightblue" d="M808.9,-504.32C794.1,-495.82 771.31,-482.73 754.02,-472.8"/>
<polygon fill="midnightblue" stroke="midnightblue" points="755.48,-469.6 745.07,-467.65 751.99,-475.67 755.48,-469.6"/>
</g>
<!-- Node15 -->
<g id="node15" class="node">
<title>Node15</title>
<g id="a_node15"><a xlink:title=" ">
<polygon fill="white" stroke="#bfbfbf" points="310.5,-112.5 310.5,-131.5 417.5,-131.5 417.5,-112.5 310.5,-112.5"/>
<text text-anchor="middle" x="364" y="-119.5" font-family="Helvetica,sans-Serif" font-size="10.00">AH/STL/type_traits</text>
</a>
</g>
</g>
<!-- Node5&#45;&gt;Node15 -->
<g id="edge31" class="edge">
<title>Node5&#45;&gt;Node15</title>
<path fill="none" stroke="midnightblue" d="M822.01,-504.45C818.32,-490.54 809.1,-463.05 791,-448 763.12,-424.83 508.82,-375.07 478,-356 421,-320.73 403.9,-305.39 377,-244 362.22,-210.25 361.54,-166.34 362.61,-141.76"/>
<polygon fill="midnightblue" stroke="midnightblue" points="366.11,-141.85 363.21,-131.66 359.13,-141.44 366.11,-141.85"/>
</g>
<!-- Node21 -->
<g id="node21" class="node">
<title>Node21</title>
<g id="a_node21"><a xlink:title=" ">
<polygon fill="white" stroke="#bfbfbf" points="743,-224.5 743,-243.5 799,-243.5 799,-224.5 743,-224.5"/>
<text text-anchor="middle" x="771" y="-231.5" font-family="Helvetica,sans-Serif" font-size="10.00">stddef.h</text>
</a>
</g>
</g>
<!-- Node5&#45;&gt;Node21 -->
<g id="edge32" class="edge">
<title>Node5&#45;&gt;Node21</title>
<path fill="none" stroke="midnightblue" d="M824.46,-504.36C825.36,-486.91 827.32,-446.21 828,-412 828.18,-403.11 829.54,-400.75 828,-392 826.75,-384.87 792.77,-293.33 777.88,-253.41"/>
<polygon fill="midnightblue" stroke="midnightblue" points="781.08,-251.98 774.3,-243.84 774.52,-254.43 781.08,-251.98"/>
</g>
<!-- Node24 -->
<g id="node24" class="node">
<title>Node24</title>
<g id="a_node24"><a xlink:title=" ">
<polygon fill="white" stroke="#bfbfbf" points="893,-392.5 893,-411.5 983,-411.5 983,-392.5 893,-392.5"/>
<text text-anchor="middle" x="938" y="-399.5" font-family="Helvetica,sans-Serif" font-size="10.00">AH/STL/iterator</text>
</a>
</g>
</g>
<!-- Node5&#45;&gt;Node24 -->
<g id="edge30" class="edge">
<title>Node5&#45;&gt;Node24</title>
<path fill="none" stroke="midnightblue" d="M832.95,-504.37C852.09,-485.89 897.28,-442.29 921.68,-418.74"/>
<polygon fill="midnightblue" stroke="midnightblue" points="924.33,-421.05 929.1,-411.59 919.47,-416.02 924.33,-421.05"/>
</g>
<!-- Node7 -->
<g id="node7" class="node">
<title>Node7</title>
<g id="a_node7"><a xlink:href="../../df/dee/Debug_8hpp.html" target="_top" xlink:title=" ">
<polygon fill="white" stroke="black" points="698.5,-392.5 698.5,-411.5 819.5,-411.5 819.5,-392.5 698.5,-392.5"/>
<text text-anchor="middle" x="759" y="-399.5" font-family="Helvetica,sans-Serif" font-size="10.00">AH/Debug/Debug.hpp</text>
</a>
</g>
</g>
<!-- Node6&#45;&gt;Node7 -->
<g id="edge6" class="edge">
<title>Node6&#45;&gt;Node7</title>
<path fill="none" stroke="midnightblue" d="M734.79,-448.08C738.76,-440.69 744.53,-429.95 749.43,-420.81"/>
<polygon fill="midnightblue" stroke="midnightblue" points="752.65,-422.22 754.3,-411.75 746.49,-418.91 752.65,-422.22"/>
</g>
<!-- Node8 -->
<g id="node8" class="node">
<title>Node8</title>
<g id="a_node8"><a xlink:href="../../dd/d80/PrintStream_8hpp.html" target="_top" xlink:title=" ">
<polygon fill="white" stroke="black" points="824.5,-336.5 824.5,-355.5 997.5,-355.5 997.5,-336.5 824.5,-336.5"/>
<text text-anchor="middle" x="911" y="-343.5" font-family="Helvetica,sans-Serif" font-size="10.00">AH/PrintStream/PrintStream.hpp</text>
</a>
</g>
</g>
<!-- Node7&#45;&gt;Node8 -->
<g id="edge7" class="edge">
<title>Node7&#45;&gt;Node8</title>
<path fill="none" stroke="midnightblue" d="M783.08,-392.44C808.54,-383.4 848.89,-369.06 877.46,-358.92"/>
<polygon fill="midnightblue" stroke="midnightblue" points="878.78,-362.16 887.03,-355.52 876.43,-355.57 878.78,-362.16"/>
</g>
<!-- Node16 -->
<g id="node16" class="node">
<title>Node16</title>
<g id="a_node16"><a xlink:href="../../d2/dd5/SettingsWrapper_8hpp.html" target="_top" xlink:title=" ">
<polygon fill="white" stroke="black" points="487,-336.5 487,-355.5 665,-355.5 665,-336.5 487,-336.5"/>
<text text-anchor="middle" x="576" y="-343.5" font-family="Helvetica,sans-Serif" font-size="10.00">AH/Settings/SettingsWrapper.hpp</text>
</a>
</g>
</g>
<!-- Node7&#45;&gt;Node16 -->
<g id="edge18" class="edge">
<title>Node7&#45;&gt;Node16</title>
<path fill="none" stroke="midnightblue" d="M724.91,-392.44C691.85,-383.28 642.21,-368.69 609.39,-358.52"/>
<polygon fill="midnightblue" stroke="midnightblue" points="610.37,-355.16 599.78,-355.52 608.28,-361.84 610.37,-355.16"/>
</g>
<!-- Node8&#45;&gt;Node9 -->
<g id="edge8" class="edge">
<title>Node8&#45;&gt;Node9</title>
<path fill="none" stroke="midnightblue" d="M911.48,-336.08C912.9,-309.95 917.06,-233.21 918.99,-197.58"/>
<polygon fill="midnightblue" stroke="midnightblue" points="922.49,-197.74 919.54,-187.57 915.5,-197.36 922.49,-197.74"/>
</g>
<!-- Node8&#45;&gt;Node14 -->
<g id="edge17" class="edge">
<title>Node8&#45;&gt;Node14</title>
<path fill="none" stroke="midnightblue" d="M905.92,-336.31C892.63,-314.33 854.64,-255.98 808,-224 684.09,-139.05 509.53,-95.55 418.89,-77.49"/>
<polygon fill="midnightblue" stroke="midnightblue" points="419.55,-74.05 409.06,-75.56 418.2,-80.92 419.55,-74.05"/>
</g>
<!-- Node10 -->
<g id="node10" class="node">
<title>Node10</title>
<g id="a_node10"><a xlink:href="../../d7/d79/MinMaxFix_8hpp.html" target="_top" xlink:title=" ">
<polygon fill="white" stroke="black" points="853,-112.5 853,-131.5 989,-131.5 989,-112.5 853,-112.5"/>
<text text-anchor="middle" x="921" y="-119.5" font-family="Helvetica,sans-Serif" font-size="10.00">AH/Math/MinMaxFix.hpp</text>
</a>
</g>
</g>
<!-- Node9&#45;&gt;Node10 -->
<g id="edge9" class="edge">
<title>Node9&#45;&gt;Node10</title>
<path fill="none" stroke="midnightblue" d="M920.17,-168.08C920.3,-161.01 920.48,-150.86 920.65,-141.99"/>
<polygon fill="midnightblue" stroke="midnightblue" points="924.15,-141.81 920.84,-131.75 917.15,-141.68 924.15,-141.81"/>
</g>
<!-- Node13 -->
<g id="node13" class="node">
<title>Node13</title>
<g id="a_node13"><a xlink:title=" ">
<polygon fill="white" stroke="#bfbfbf" points="928.5,-0.5 928.5,-19.5 991.5,-19.5 991.5,-0.5 928.5,-0.5"/>
<text text-anchor="middle" x="960" y="-7.5" font-family="Helvetica,sans-Serif" font-size="10.00">Arduino.h</text>
</a>
</g>
</g>
<!-- Node9&#45;&gt;Node13 -->
<g id="edge16" class="edge">
<title>Node9&#45;&gt;Node13</title>
<path fill="none" stroke="midnightblue" d="M949.12,-168.44C966.64,-161.62 987.52,-150.14 998,-132 1014.89,-102.75 1009.6,-87.72 998,-56 993.94,-44.91 985.81,-34.67 978.11,-26.76"/>
<polygon fill="midnightblue" stroke="midnightblue" points="980.36,-24.07 970.71,-19.7 975.53,-29.14 980.36,-24.07"/>
</g>
<!-- Node9&#45;&gt;Node15 -->
<g id="edge15" class="edge">
<title>Node9&#45;&gt;Node15</title>
<path fill="none" stroke="midnightblue" d="M857.84,-170.96C751.33,-160.62 535.05,-139.61 427.57,-129.17"/>
<polygon fill="midnightblue" stroke="midnightblue" points="427.81,-125.68 417.52,-128.2 427.14,-132.65 427.81,-125.68"/>
</g>
<!-- Node11 -->
<g id="node11" class="node">
<title>Node11</title>
<g id="a_node11"><a xlink:href="../../d6/d3b/FixArduinoMacros_8hpp.html" target="_top" xlink:title=" ">
<polygon fill="white" stroke="black" points="819,-56.5 819,-75.5 989,-75.5 989,-56.5 819,-56.5"/>
<text text-anchor="middle" x="904" y="-63.5" font-family="Helvetica,sans-Serif" font-size="10.00">AH/Math/FixArduinoMacros.hpp</text>
</a>
</g>
</g>
<!-- Node10&#45;&gt;Node11 -->
<g id="edge10" class="edge">
<title>Node10&#45;&gt;Node11</title>
<path fill="none" stroke="midnightblue" d="M918.19,-112.08C915.92,-104.85 912.63,-94.41 909.79,-85.4"/>
<polygon fill="midnightblue" stroke="midnightblue" points="913.1,-84.24 906.75,-75.75 906.42,-86.34 913.1,-84.24"/>
</g>
<!-- Node10&#45;&gt;Node14 -->
<g id="edge13" class="edge">
<title>Node10&#45;&gt;Node14</title>
<path fill="none" stroke="midnightblue" d="M853,-113.45C848.26,-112.95 843.56,-112.46 839,-112 710.32,-98.91 562.09,-85.22 464.8,-76.43"/>
<polygon fill="midnightblue" stroke="midnightblue" points="464.94,-72.93 454.67,-75.52 464.31,-79.9 464.94,-72.93"/>
</g>
<!-- Node12 -->
<g id="node12" class="node">
<title>Node12</title>
<g id="a_node12"><a xlink:href="../../d1/d65/Warnings_8hpp.html" target="_top" xlink:title=" ">
<polygon fill="white" stroke="black" points="614.5,-0.5 614.5,-19.5 757.5,-19.5 757.5,-0.5 614.5,-0.5"/>
<text text-anchor="middle" x="686" y="-7.5" font-family="Helvetica,sans-Serif" font-size="10.00">AH/Settings/Warnings.hpp</text>
</a>
</g>
</g>
<!-- Node11&#45;&gt;Node12 -->
<g id="edge11" class="edge">
<title>Node11&#45;&gt;Node12</title>
<path fill="none" stroke="midnightblue" d="M869.46,-56.44C831.75,-47.1 771.26,-32.12 730.14,-21.93"/>
<polygon fill="midnightblue" stroke="midnightblue" points="730.93,-18.52 720.38,-19.52 729.25,-25.32 730.93,-18.52"/>
</g>
<!-- Node11&#45;&gt;Node13 -->
<g id="edge12" class="edge">
<title>Node11&#45;&gt;Node13</title>
<path fill="none" stroke="midnightblue" d="M913,-56.32C921.19,-48.42 933.51,-36.55 943.47,-26.94"/>
<polygon fill="midnightblue" stroke="midnightblue" points="946.07,-29.29 950.84,-19.83 941.21,-24.26 946.07,-29.29"/>
</g>
<!-- Node14&#45;&gt;Node12 -->
<g id="edge14" class="edge">
<title>Node14&#45;&gt;Node12</title>
<path fill="none" stroke="midnightblue" d="M410.81,-56.44C468.82,-46.87 562.74,-31.36 624.44,-21.17"/>
<polygon fill="midnightblue" stroke="midnightblue" points="625.13,-24.6 634.43,-19.52 623.99,-17.69 625.13,-24.6"/>
</g>
<!-- Node16&#45;&gt;Node7 -->
<g id="edge29" class="edge">
<title>Node16&#45;&gt;Node7</title>
<path fill="none" stroke="midnightblue" d="M609.94,-355.52C642.96,-364.66 692.6,-379.26 725.47,-389.44"/>
<polygon fill="midnightblue" stroke="midnightblue" points="724.5,-392.8 735.09,-392.44 726.59,-386.12 724.5,-392.8"/>
</g>
<!-- Node16&#45;&gt;Node14 -->
<g id="edge19" class="edge">
<title>Node16&#45;&gt;Node14</title>
<path fill="none" stroke="midnightblue" d="M522.24,-336.47C492.18,-329.9 455.04,-318.68 426,-300 398.19,-282.11 397.21,-270.18 377,-244 340.24,-196.39 318.67,-189.5 301,-132 298.39,-123.5 297.09,-119.98 301,-112 307.52,-98.68 320.1,-88.18 331.87,-80.68"/>
<polygon fill="midnightblue" stroke="midnightblue" points="333.77,-83.62 340.61,-75.53 330.22,-77.59 333.77,-83.62"/>
</g>
<!-- Node17 -->
<g id="node17" class="node">
<title>Node17</title>
<g id="a_node17"><a xlink:href="../../db/d02/Settings_8hpp.html" target="_top" xlink:title="All user settings and debugging options can be changed here.">
<polygon fill="white" stroke="black" points="435.5,-280.5 435.5,-299.5 512.5,-299.5 512.5,-280.5 435.5,-280.5"/>
<text text-anchor="middle" x="474" y="-287.5" font-family="Helvetica,sans-Serif" font-size="10.00">Settings.hpp</text>
</a>
</g>
</g>
<!-- Node16&#45;&gt;Node17 -->
<g id="edge20" class="edge">
<title>Node16&#45;&gt;Node17</title>
<path fill="none" stroke="midnightblue" d="M559.61,-336.32C543.33,-327.7 518.13,-314.36 499.28,-304.39"/>
<polygon fill="midnightblue" stroke="midnightblue" points="500.82,-301.24 490.35,-299.65 497.55,-307.43 500.82,-301.24"/>
</g>
<!-- Node23 -->
<g id="node23" class="node">
<title>Node23</title>
<g id="a_node23"><a xlink:href="../../d9/d98/TeensyUSBTypes_8hpp.html" target="_top" xlink:title=" ">
<polygon fill="white" stroke="black" points="530.5,-280.5 530.5,-299.5 703.5,-299.5 703.5,-280.5 530.5,-280.5"/>
<text text-anchor="middle" x="617" y="-287.5" font-family="Helvetica,sans-Serif" font-size="10.00">AH/Teensy/TeensyUSBTypes.hpp</text>
</a>
</g>
</g>
<!-- Node16&#45;&gt;Node23 -->
<g id="edge28" class="edge">
<title>Node16&#45;&gt;Node23</title>
<path fill="none" stroke="midnightblue" d="M582.77,-336.08C588.56,-328.46 597.06,-317.26 604.14,-307.94"/>
<polygon fill="midnightblue" stroke="midnightblue" points="607.1,-309.83 610.36,-299.75 601.52,-305.6 607.1,-309.83"/>
</g>
<!-- Node18 -->
<g id="node18" class="node">
<title>Node18</title>
<g id="a_node18"><a xlink:href="../../dc/d50/Frequency_8hpp.html" target="_top" xlink:title=" ">
<polygon fill="white" stroke="black" points="396,-168.5 396,-187.5 530,-187.5 530,-168.5 396,-168.5"/>
<text text-anchor="middle" x="463" y="-175.5" font-family="Helvetica,sans-Serif" font-size="10.00">AH/Types/Frequency.hpp</text>
</a>
</g>
</g>
<!-- Node17&#45;&gt;Node18 -->
<g id="edge21" class="edge">
<title>Node17&#45;&gt;Node18</title>
<path fill="none" stroke="midnightblue" d="M473.14,-280.37C471.36,-262.62 467.27,-221.67 464.86,-197.6"/>
<polygon fill="midnightblue" stroke="midnightblue" points="468.34,-197.19 463.86,-187.59 461.37,-197.89 468.34,-197.19"/>
</g>
<!-- Node19 -->
<g id="node19" class="node">
<title>Node19</title>
<g id="a_node19"><a xlink:href="../../d7/d7c/ADCConfig_8hpp.html" target="_top" xlink:title="This file contains the platform&#45;specific ADC resolutions.">
<polygon fill="white" stroke="black" points="567.5,-224.5 567.5,-243.5 724.5,-243.5 724.5,-224.5 567.5,-224.5"/>
<text text-anchor="middle" x="646" y="-231.5" font-family="Helvetica,sans-Serif" font-size="10.00">AH/Hardware/ADCConfig.hpp</text>
</a>
</g>
</g>
<!-- Node17&#45;&gt;Node19 -->
<g id="edge23" class="edge">
<title>Node17&#45;&gt;Node19</title>
<path fill="none" stroke="midnightblue" d="M501.25,-280.44C530.44,-271.28 576.92,-256.69 609.31,-246.52"/>
<polygon fill="midnightblue" stroke="midnightblue" points="610.38,-249.85 618.87,-243.52 608.28,-243.17 610.38,-249.85"/>
</g>
<!-- Node20 -->
<g id="node20" class="node">
<title>Node20</title>
<g id="a_node20"><a xlink:title=" ">
<polygon fill="white" stroke="#bfbfbf" points="496.5,-224.5 496.5,-243.5 549.5,-243.5 549.5,-224.5 496.5,-224.5"/>
<text text-anchor="middle" x="523" y="-231.5" font-family="Helvetica,sans-Serif" font-size="10.00">limits.h</text>
</a>
</g>
</g>
<!-- Node17&#45;&gt;Node20 -->
<g id="edge25" class="edge">
<title>Node17&#45;&gt;Node20</title>
<path fill="none" stroke="midnightblue" d="M482.09,-280.08C489.16,-272.3 499.59,-260.8 508.15,-251.37"/>
<polygon fill="midnightblue" stroke="midnightblue" points="510.93,-253.51 515.06,-243.75 505.75,-248.8 510.93,-253.51"/>
</g>
<!-- Node17&#45;&gt;Node21 -->
<g id="edge26" class="edge">
<title>Node17&#45;&gt;Node21</title>
<path fill="none" stroke="midnightblue" d="M512.72,-281.52C515.52,-281 518.3,-280.49 521,-280 615.05,-263.01 639.34,-263.02 733,-244 733.1,-243.98 733.2,-243.96 733.3,-243.94"/>
<polygon fill="midnightblue" stroke="midnightblue" points="733.78,-247.41 742.82,-241.89 732.31,-240.57 733.78,-247.41"/>
</g>
<!-- Node17&#45;&gt;Node22 -->
<g id="edge27" class="edge">
<title>Node17&#45;&gt;Node22</title>
<path fill="none" stroke="midnightblue" d="M464.2,-280.32C455.18,-272.34 441.59,-260.31 430.68,-250.65"/>
<polygon fill="midnightblue" stroke="midnightblue" points="432.79,-247.84 422.98,-243.83 428.15,-253.08 432.79,-247.84"/>
</g>
<!-- Node18&#45;&gt;Node14 -->
<g id="edge22" class="edge">
<title>Node18&#45;&gt;Node14</title>
<path fill="none" stroke="midnightblue" d="M459.54,-168.19C454,-154.86 442.08,-129.32 426,-112 414.22,-99.32 398.22,-88.4 384.8,-80.5"/>
<polygon fill="midnightblue" stroke="midnightblue" points="386.44,-77.4 376.01,-75.52 382.99,-83.49 386.44,-77.4"/>
</g>
<!-- Node19&#45;&gt;Node9 -->
<g id="edge24" class="edge">
<title>Node19&#45;&gt;Node9</title>
<path fill="none" stroke="midnightblue" d="M689.42,-224.44C737.52,-214.96 815.09,-199.67 866.81,-189.48"/>
<polygon fill="midnightblue" stroke="midnightblue" points="867.65,-192.88 876.79,-187.52 866.3,-186.02 867.65,-192.88"/>
</g>
<!-- Node25&#45;&gt;Node14 -->
<g id="edge38" class="edge">
<title>Node25&#45;&gt;Node14</title>
<path fill="none" stroke="midnightblue" d="M125.89,-565.93C103.56,-558.38 74.72,-545.22 57,-524 37.71,-500.9 38,-489.1 38,-459 38,-459 38,-459 38,-177 38,-124.92 191.12,-92.31 285.85,-77.12"/>
<polygon fill="midnightblue" stroke="midnightblue" points="286.63,-80.54 295.96,-75.52 285.54,-73.62 286.63,-80.54"/>
</g>
<!-- Node26 -->
<g id="node26" class="node">
<title>Node26</title>
<g id="a_node26"><a xlink:title=" ">
<polygon fill="white" stroke="#bfbfbf" points="164,-504.5 164,-523.5 254,-523.5 254,-504.5 164,-504.5"/>
<text text-anchor="middle" x="209" y="-511.5" font-family="Helvetica,sans-Serif" font-size="10.00">AH/STL/cstddef</text>
</a>
</g>
</g>
<!-- Node25&#45;&gt;Node26 -->
<g id="edge36" class="edge">
<title>Node25&#45;&gt;Node26</title>
<path fill="none" stroke="midnightblue" d="M165.31,-565.98C173.03,-556.96 185.41,-542.52 195.02,-531.31"/>
<polygon fill="midnightblue" stroke="midnightblue" points="197.86,-533.38 201.71,-523.51 192.54,-528.82 197.86,-533.38"/>
</g>
<!-- Node27 -->
<g id="node27" class="node">
<title>Node27</title>
<g id="a_node27"><a xlink:title=" ">
<polygon fill="white" stroke="#bfbfbf" points="66.5,-504.5 66.5,-523.5 145.5,-523.5 145.5,-504.5 66.5,-504.5"/>
<text text-anchor="middle" x="106" y="-511.5" font-family="Helvetica,sans-Serif" font-size="10.00">AH/STL/tuple</text>
</a>
</g>
</g>
<!-- Node25&#45;&gt;Node27 -->
<g id="edge37" class="edge">
<title>Node25&#45;&gt;Node27</title>
<path fill="none" stroke="midnightblue" d="M150.55,-565.98C142.67,-556.96 130.06,-542.52 120.26,-531.31"/>
<polygon fill="midnightblue" stroke="midnightblue" points="122.65,-528.74 113.44,-523.51 117.38,-533.34 122.65,-528.74"/>
</g>
<!-- Node30 -->
<g id="node30" class="node">
<title>Node30</title>
<g id="a_node30"><a xlink:href="../../d4/d57/ExtendedIOElement_8hpp.html" target="_top" xlink:title=" ">
<polygon fill="white" stroke="black" points="503,-750.5 503,-769.5 637,-769.5 637,-750.5 503,-750.5"/>
<text text-anchor="middle" x="570" y="-757.5" font-family="Helvetica,sans-Serif" font-size="10.00">ExtendedIOElement.hpp</text>
</a>
</g>
</g>
<!-- Node29&#45;&gt;Node30 -->
<g id="edge43" class="edge">
<title>Node29&#45;&gt;Node30</title>
<path fill="none" stroke="midnightblue" d="M683.61,-806.44C661.29,-797.52 626.1,-783.44 600.79,-773.32"/>
<polygon fill="midnightblue" stroke="midnightblue" points="601.88,-769.98 591.29,-769.52 599.28,-776.48 601.88,-769.98"/>
</g>
<!-- Node36 -->
<g id="node36" class="node">
<title>Node36</title>
<g id="a_node36"><a xlink:href="../../d5/db6/ArrayHelpers_8hpp.html" target="_top" xlink:title=" ">
<polygon fill="white" stroke="black" points="856,-566 856,-585 1030,-585 1030,-566 856,-566"/>
<text text-anchor="middle" x="943" y="-573" font-family="Helvetica,sans-Serif" font-size="10.00">AH/Containers/ArrayHelpers.hpp</text>
</a>
</g>
</g>
<!-- Node29&#45;&gt;Node36 -->
<g id="edge58" class="edge">
<title>Node29&#45;&gt;Node36</title>
<path fill="none" stroke="midnightblue" d="M713.75,-806.23C749.04,-770.87 881.14,-638.49 927.11,-592.42"/>
<polygon fill="midnightblue" stroke="midnightblue" points="929.83,-594.65 934.42,-585.1 924.88,-589.71 929.83,-594.65"/>
</g>
<!-- Node30&#45;&gt;Node2 -->
<g id="edge44" class="edge">
<title>Node30&#45;&gt;Node2</title>
<path fill="none" stroke="midnightblue" d="M549.88,-750.44C528.98,-741.56 496.07,-727.56 472.28,-717.45"/>
<polygon fill="midnightblue" stroke="midnightblue" points="473.6,-714.21 463.03,-713.52 470.86,-720.65 473.6,-714.21"/>
</g>
<!-- Node30&#45;&gt;Node4 -->
<g id="edge57" class="edge">
<title>Node30&#45;&gt;Node4</title>
<path fill="none" stroke="midnightblue" d="M568.39,-750.45C563.83,-728.12 549.13,-667.07 518,-627 508.6,-614.91 495.55,-604.42 483.27,-596.19"/>
<polygon fill="midnightblue" stroke="midnightblue" points="484.83,-593.03 474.52,-590.6 481.06,-598.93 484.83,-593.03"/>
</g>
<!-- Node31 -->
<g id="node31" class="node">
<title>Node31</title>
<g id="a_node31"><a xlink:href="../../d4/d93/Updatable_8hpp.html" target="_top" xlink:title=" ">
<polygon fill="white" stroke="black" points="499.5,-504.5 499.5,-523.5 660.5,-523.5 660.5,-504.5 499.5,-504.5"/>
<text text-anchor="middle" x="580" y="-511.5" font-family="Helvetica,sans-Serif" font-size="10.00">AH/Containers/Updatable.hpp</text>
</a>
</g>
</g>
<!-- Node30&#45;&gt;Node31 -->
<g id="edge45" class="edge">
<title>Node30&#45;&gt;Node31</title>
<path fill="none" stroke="midnightblue" d="M570.36,-750.32C571.8,-715.18 577.21,-583.12 579.23,-533.76"/>
<polygon fill="midnightblue" stroke="midnightblue" points="582.74,-533.72 579.65,-523.58 575.74,-533.43 582.74,-533.72"/>
</g>
<!-- Node31&#45;&gt;Node6 -->
<g id="edge52" class="edge">
<title>Node31&#45;&gt;Node6</title>
<path fill="none" stroke="midnightblue" d="M603.77,-504.44C628.89,-495.4 668.71,-481.06 696.9,-470.92"/>
<polygon fill="midnightblue" stroke="midnightblue" points="698.12,-474.2 706.34,-467.52 695.75,-467.61 698.12,-474.2"/>
</g>
<!-- Node31&#45;&gt;Node15 -->
<g id="edge53" class="edge">
<title>Node31&#45;&gt;Node15</title>
<path fill="none" stroke="midnightblue" d="M499.49,-504.97C446.58,-498.09 383.62,-486.34 364,-468 301.08,-409.19 306.84,-365.53 317,-280 323.04,-229.15 327.53,-216.48 344,-168 347.09,-158.89 351.33,-149.1 355.11,-140.98"/>
<polygon fill="midnightblue" stroke="midnightblue" points="358.36,-142.3 359.53,-131.77 352.05,-139.27 358.36,-142.3"/>
</g>
<!-- Node31&#45;&gt;Node16 -->
<g id="edge55" class="edge">
<title>Node31&#45;&gt;Node16</title>
<path fill="none" stroke="midnightblue" d="M499.49,-505.41C449.74,-498.86 392.51,-487.32 377,-468 331.56,-411.38 447.76,-374.66 521.21,-357.78"/>
<polygon fill="midnightblue" stroke="midnightblue" points="522.27,-361.13 531.27,-355.53 520.74,-354.3 522.27,-361.13"/>
</g>
<!-- Node31&#45;&gt;Node21 -->
<g id="edge56" class="edge">
<title>Node31&#45;&gt;Node21</title>
<path fill="none" stroke="midnightblue" d="M591.61,-504.19C602.36,-495.68 618.39,-482.04 630,-468 690.44,-394.94 742.71,-293.36 762.52,-252.78"/>
<polygon fill="midnightblue" stroke="midnightblue" points="765.75,-254.15 766.94,-243.63 759.44,-251.11 765.75,-254.15"/>
</g>
<!-- Node32 -->
<g id="node32" class="node">
<title>Node32</title>
<g id="a_node32"><a xlink:href="../../d4/dba/CRTP_8hpp.html" target="_top" xlink:title=" ">
<polygon fill="white" stroke="black" points="386,-448.5 386,-467.5 520,-467.5 520,-448.5 386,-448.5"/>
<text text-anchor="middle" x="453" y="-455.5" font-family="Helvetica,sans-Serif" font-size="10.00">AH/Containers/CRTP.hpp</text>
</a>
</g>
</g>
<!-- Node31&#45;&gt;Node32 -->
<g id="edge46" class="edge">
<title>Node31&#45;&gt;Node32</title>
<path fill="none" stroke="midnightblue" d="M559.88,-504.44C538.98,-495.56 506.07,-481.56 482.28,-471.45"/>
<polygon fill="midnightblue" stroke="midnightblue" points="483.6,-468.21 473.03,-467.52 480.86,-474.65 483.6,-468.21"/>
</g>
<!-- Node33 -->
<g id="node33" class="node">
<title>Node33</title>
<g id="a_node33"><a xlink:href="../../de/dd1/LinkedList_8hpp.html" target="_top" xlink:title=" ">
<polygon fill="white" stroke="black" points="913.5,-448.5 913.5,-467.5 1072.5,-467.5 1072.5,-448.5 913.5,-448.5"/>
<text text-anchor="middle" x="993" y="-455.5" font-family="Helvetica,sans-Serif" font-size="10.00">AH/Containers/LinkedList.hpp</text>
</a>
</g>
</g>
<!-- Node31&#45;&gt;Node33 -->
<g id="edge47" class="edge">
<title>Node31&#45;&gt;Node33</title>
<path fill="none" stroke="midnightblue" d="M645.44,-504.44C719.45,-494.77 839.77,-479.04 917.64,-468.85"/>
<polygon fill="midnightblue" stroke="midnightblue" points="918.4,-472.28 927.87,-467.52 917.5,-465.34 918.4,-472.28"/>
</g>
<!-- Node35 -->
<g id="node35" class="node">
<title>Node35</title>
<g id="a_node35"><a xlink:title=" ">
<polygon fill="white" stroke="#bfbfbf" points="538.5,-448.5 538.5,-467.5 621.5,-467.5 621.5,-448.5 538.5,-448.5"/>
<text text-anchor="middle" x="580" y="-455.5" font-family="Helvetica,sans-Serif" font-size="10.00">AH/STL/utility</text>
</a>
</g>
</g>
<!-- Node31&#45;&gt;Node35 -->
<g id="edge54" class="edge">
<title>Node31&#45;&gt;Node35</title>
<path fill="none" stroke="midnightblue" d="M580,-504.08C580,-497.01 580,-486.86 580,-477.99"/>
<polygon fill="midnightblue" stroke="midnightblue" points="583.5,-477.75 580,-467.75 576.5,-477.75 583.5,-477.75"/>
</g>
<!-- Node33&#45;&gt;Node7 -->
<g id="edge48" class="edge">
<title>Node33&#45;&gt;Node7</title>
<path fill="none" stroke="midnightblue" d="M955.92,-448.44C915.27,-439.06 849.97,-423.99 805.82,-413.8"/>
<polygon fill="midnightblue" stroke="midnightblue" points="806.44,-410.35 795.9,-411.52 804.86,-417.18 806.44,-410.35"/>
</g>
<!-- Node33&#45;&gt;Node10 -->
<g id="edge49" class="edge">
<title>Node33&#45;&gt;Node10</title>
<path fill="none" stroke="midnightblue" d="M997.72,-448.46C1007.27,-430.34 1028,-386.48 1028,-347 1028,-347 1028,-347 1028,-233 1028,-187.41 980.2,-153.62 948.49,-136.23"/>
<polygon fill="midnightblue" stroke="midnightblue" points="950.12,-133.13 939.64,-131.56 946.85,-139.32 950.12,-133.13"/>
</g>
<!-- Node33&#45;&gt;Node24 -->
<g id="edge51" class="edge">
<title>Node33&#45;&gt;Node24</title>
<path fill="none" stroke="midnightblue" d="M983.92,-448.08C975.83,-440.14 963.8,-428.34 954.09,-418.8"/>
<polygon fill="midnightblue" stroke="midnightblue" points="956.5,-416.26 946.91,-411.75 951.6,-421.25 956.5,-416.26"/>
</g>
<!-- Node33&#45;&gt;Node34 -->
<g id="edge50" class="edge">
<title>Node33&#45;&gt;Node34</title>
<path fill="none" stroke="midnightblue" d="M1007.46,-448.32C1021.5,-439.9 1043.05,-426.97 1059.54,-417.07"/>
<polygon fill="midnightblue" stroke="midnightblue" points="1061.8,-419.8 1068.58,-411.65 1058.2,-413.8 1061.8,-419.8"/>
</g>
<!-- Node36&#45;&gt;Node5 -->
<g id="edge59" class="edge">
<title>Node36&#45;&gt;Node5</title>
<path fill="none" stroke="midnightblue" d="M925.95,-565.98C906.16,-556.08 873.28,-539.64 850.23,-528.12"/>
<polygon fill="midnightblue" stroke="midnightblue" points="851.53,-524.85 841.02,-523.51 848.4,-531.11 851.53,-524.85"/>
</g>
<!-- Node36&#45;&gt;Node8 -->
<g id="edge61" class="edge">
<title>Node36&#45;&gt;Node8</title>
<path fill="none" stroke="midnightblue" d="M944.05,-565.8C946.3,-551.02 952.94,-520.93 971,-504 1008.84,-468.53 1040.72,-499.4 1082,-468 1111.9,-445.26 1142.59,-421.24 1119,-392 1104.54,-374.08 1054.86,-362.94 1007.68,-356.23"/>
<polygon fill="midnightblue" stroke="midnightblue" points="1008.04,-352.75 997.66,-354.87 1007.1,-359.68 1008.04,-352.75"/>
</g>
<!-- Node37 -->
<g id="node37" class="node">
<title>Node37</title>
<g id="a_node37"><a xlink:title=" ">
<polygon fill="white" stroke="#bfbfbf" points="979.5,-504.5 979.5,-523.5 1080.5,-523.5 1080.5,-504.5 979.5,-504.5"/>
<text text-anchor="middle" x="1030" y="-511.5" font-family="Helvetica,sans-Serif" font-size="10.00">AH/STL/algorithm</text>
</a>
</g>
</g>
<!-- Node36&#45;&gt;Node37 -->
<g id="edge60" class="edge">
<title>Node36&#45;&gt;Node37</title>
<path fill="none" stroke="midnightblue" d="M955.46,-565.98C969.42,-556.43 992.26,-540.81 1008.99,-529.37"/>
<polygon fill="midnightblue" stroke="midnightblue" points="1011.28,-532.04 1017.56,-523.51 1007.33,-526.27 1011.28,-532.04"/>
</g>
</g>
</svg>
