<?xml version="1.0" encoding="UTF-8" standalone="no"?>
<!DOCTYPE svg PUBLIC "-//W3C//DTD SVG 1.1//EN"
 "http://www.w3.org/Graphics/SVG/1.1/DTD/svg11.dtd">
<!-- Generated by graphviz version 2.43.0 (0)
 -->
<!-- Title: Quaternion.cpp Pages: 1 -->
<svg width="544pt" height="364pt"
 viewBox="0.00 0.00 544.00 364.00" xmlns="http://www.w3.org/2000/svg" xmlns:xlink="http://www.w3.org/1999/xlink">
<g id="graph0" class="graph" transform="scale(1 1) rotate(0) translate(4 360)">
<title>Quaternion.cpp</title>
<polygon fill="white" stroke="transparent" points="-4,4 -4,-360 540,-360 540,4 -4,4"/>
<!-- Node1 -->
<g id="node1" class="node">
<title>Node1</title>
<g id="a_node1"><a xlink:title=" ">
<polygon fill="#bfbfbf" stroke="black" points="183,-336.5 183,-355.5 274,-355.5 274,-336.5 183,-336.5"/>
<text text-anchor="middle" x="228.5" y="-343.5" font-family="Helvetica,sans-Serif" font-size="10.00">Quaternion.cpp</text>
</a>
</g>
</g>
<!-- Node2 -->
<g id="node2" class="node">
<title>Node2</title>
<g id="a_node2"><a xlink:href="../../d3/d1f/Quaternion_8hpp.html" target="_top" xlink:title="Definition of Quaternion and EulerAngles.">
<polygon fill="white" stroke="black" points="282.5,-280.5 282.5,-299.5 374.5,-299.5 374.5,-280.5 282.5,-280.5"/>
<text text-anchor="middle" x="328.5" y="-287.5" font-family="Helvetica,sans-Serif" font-size="10.00">Quaternion.hpp</text>
</a>
</g>
</g>
<!-- Node1&#45;&gt;Node2 -->
<g id="edge1" class="edge">
<title>Node1&#45;&gt;Node2</title>
<path fill="none" stroke="midnightblue" d="M244.57,-336.32C260.46,-327.74 285.01,-314.49 303.46,-304.52"/>
<polygon fill="midnightblue" stroke="midnightblue" points="305.34,-307.49 312.47,-299.65 302.01,-301.33 305.34,-307.49"/>
</g>
<!-- Node14 -->
<g id="node14" class="node">
<title>Node14</title>
<g id="a_node14"><a xlink:href="../../dd/d80/PrintStream_8hpp.html" target="_top" xlink:title=" ">
<polygon fill="white" stroke="black" points="0,-224.5 0,-243.5 173,-243.5 173,-224.5 0,-224.5"/>
<text text-anchor="middle" x="86.5" y="-231.5" font-family="Helvetica,sans-Serif" font-size="10.00">AH/PrintStream/PrintStream.hpp</text>
</a>
</g>
</g>
<!-- Node1&#45;&gt;Node14 -->
<g id="edge19" class="edge">
<title>Node1&#45;&gt;Node14</title>
<path fill="none" stroke="midnightblue" d="M217.36,-336.37C193.2,-317.65 135.75,-273.15 105.65,-249.83"/>
<polygon fill="midnightblue" stroke="midnightblue" points="107.64,-246.95 97.59,-243.59 103.35,-252.48 107.64,-246.95"/>
</g>
<!-- Node3 -->
<g id="node3" class="node">
<title>Node3</title>
<g id="a_node3"><a xlink:href="../../d6/ddf/Arduino-Wrapper_8h.html" target="_top" xlink:title=" ">
<polygon fill="white" stroke="black" points="142.5,-168.5 142.5,-187.5 266.5,-187.5 266.5,-168.5 142.5,-168.5"/>
<text text-anchor="middle" x="204.5" y="-175.5" font-family="Helvetica,sans-Serif" font-size="10.00">AH/Arduino&#45;Wrapper.h</text>
</a>
</g>
</g>
<!-- Node2&#45;&gt;Node3 -->
<g id="edge2" class="edge">
<title>Node2&#45;&gt;Node3</title>
<path fill="none" stroke="midnightblue" d="M284.23,-280.46C262.12,-274.01 236.69,-262.89 220.5,-244 209.52,-231.19 205.85,-212 204.73,-197.79"/>
<polygon fill="midnightblue" stroke="midnightblue" points="208.22,-197.52 204.28,-187.68 201.22,-197.82 208.22,-197.52"/>
</g>
<!-- Node10 -->
<g id="node10" class="node">
<title>Node10</title>
<g id="a_node10"><a xlink:href="../../de/d79/Degrees_8hpp.html" target="_top" xlink:title="Conversions between radians and degrees.">
<polygon fill="white" stroke="black" points="396,-168.5 396,-187.5 519,-187.5 519,-168.5 396,-168.5"/>
<text text-anchor="middle" x="457.5" y="-175.5" font-family="Helvetica,sans-Serif" font-size="10.00">AH/Math/Degrees.hpp</text>
</a>
</g>
</g>
<!-- Node2&#45;&gt;Node10 -->
<g id="edge11" class="edge">
<title>Node2&#45;&gt;Node10</title>
<path fill="none" stroke="midnightblue" d="M374.6,-282.47C417.37,-275.36 476.46,-262.47 490.5,-244 502.15,-228.67 488.3,-208.6 475.14,-194.85"/>
<polygon fill="midnightblue" stroke="midnightblue" points="477.27,-192.04 467.67,-187.56 472.38,-197.05 477.27,-192.04"/>
</g>
<!-- Node11 -->
<g id="node11" class="node">
<title>Node11</title>
<g id="a_node11"><a xlink:href="../../de/dd9/Vector_8hpp.html" target="_top" xlink:title="Definition of Vec2f and Vec3f.">
<polygon fill="white" stroke="black" points="230,-224.5 230,-243.5 343,-243.5 343,-224.5 230,-224.5"/>
<text text-anchor="middle" x="286.5" y="-231.5" font-family="Helvetica,sans-Serif" font-size="10.00">AH/Math/Vector.hpp</text>
</a>
</g>
</g>
<!-- Node2&#45;&gt;Node11 -->
<g id="edge14" class="edge">
<title>Node2&#45;&gt;Node11</title>
<path fill="none" stroke="midnightblue" d="M321.56,-280.08C315.57,-272.38 306.75,-261.03 299.45,-251.65"/>
<polygon fill="midnightblue" stroke="midnightblue" points="302.21,-249.5 293.31,-243.75 296.68,-253.79 302.21,-249.5"/>
</g>
<!-- Node12 -->
<g id="node12" class="node">
<title>Node12</title>
<g id="a_node12"><a xlink:title=" ">
<polygon fill="white" stroke="#bfbfbf" points="287,-168.5 287,-187.5 372,-187.5 372,-168.5 287,-168.5"/>
<text text-anchor="middle" x="329.5" y="-175.5" font-family="Helvetica,sans-Serif" font-size="10.00">AH/STL/cmath</text>
</a>
</g>
</g>
<!-- Node2&#45;&gt;Node12 -->
<g id="edge17" class="edge">
<title>Node2&#45;&gt;Node12</title>
<path fill="none" stroke="midnightblue" d="M334.87,-280.23C340.76,-271.53 349.11,-257.57 352.5,-244 356.62,-227.53 349.11,-209.35 341.6,-196.42"/>
<polygon fill="midnightblue" stroke="midnightblue" points="344.36,-194.24 336.04,-187.67 338.45,-197.99 344.36,-194.24"/>
</g>
<!-- Node13 -->
<g id="node13" class="node">
<title>Node13</title>
<g id="a_node13"><a xlink:title=" ">
<polygon fill="white" stroke="#bfbfbf" points="399.5,-224.5 399.5,-243.5 481.5,-243.5 481.5,-224.5 399.5,-224.5"/>
<text text-anchor="middle" x="440.5" y="-231.5" font-family="Helvetica,sans-Serif" font-size="10.00">AH/STL/limits</text>
</a>
</g>
</g>
<!-- Node2&#45;&gt;Node13 -->
<g id="edge18" class="edge">
<title>Node2&#45;&gt;Node13</title>
<path fill="none" stroke="midnightblue" d="M346.49,-280.32C364.54,-271.62 392.55,-258.12 413.3,-248.11"/>
<polygon fill="midnightblue" stroke="midnightblue" points="415.06,-251.15 422.55,-243.65 412.02,-244.84 415.06,-251.15"/>
</g>
<!-- Node4 -->
<g id="node4" class="node">
<title>Node4</title>
<g id="a_node4"><a xlink:href="../../d7/d79/MinMaxFix_8hpp.html" target="_top" xlink:title=" ">
<polygon fill="white" stroke="black" points="167.5,-112.5 167.5,-131.5 303.5,-131.5 303.5,-112.5 167.5,-112.5"/>
<text text-anchor="middle" x="235.5" y="-119.5" font-family="Helvetica,sans-Serif" font-size="10.00">AH/Math/MinMaxFix.hpp</text>
</a>
</g>
</g>
<!-- Node3&#45;&gt;Node4 -->
<g id="edge3" class="edge">
<title>Node3&#45;&gt;Node4</title>
<path fill="none" stroke="midnightblue" d="M209.62,-168.08C213.91,-160.61 220.16,-149.72 225.44,-140.52"/>
<polygon fill="midnightblue" stroke="midnightblue" points="228.53,-142.17 230.48,-131.75 222.46,-138.68 228.53,-142.17"/>
</g>
<!-- Node7 -->
<g id="node7" class="node">
<title>Node7</title>
<g id="a_node7"><a xlink:title=" ">
<polygon fill="white" stroke="#bfbfbf" points="149,-0.5 149,-19.5 212,-19.5 212,-0.5 149,-0.5"/>
<text text-anchor="middle" x="180.5" y="-7.5" font-family="Helvetica,sans-Serif" font-size="10.00">Arduino.h</text>
</a>
</g>
</g>
<!-- Node3&#45;&gt;Node7 -->
<g id="edge10" class="edge">
<title>Node3&#45;&gt;Node7</title>
<path fill="none" stroke="midnightblue" d="M192.55,-168.33C182.07,-160.12 167.18,-146.85 158.5,-132 145.5,-109.76 146.86,-101.55 143.5,-76 142.34,-67.19 140.5,-64.37 143.5,-56 147.44,-45 155.36,-34.77 162.86,-26.85"/>
<polygon fill="midnightblue" stroke="midnightblue" points="165.39,-29.27 170.06,-19.76 160.48,-24.28 165.39,-29.27"/>
</g>
<!-- Node9 -->
<g id="node9" class="node">
<title>Node9</title>
<g id="a_node9"><a xlink:title=" ">
<polygon fill="white" stroke="#bfbfbf" points="322,-112.5 322,-131.5 429,-131.5 429,-112.5 322,-112.5"/>
<text text-anchor="middle" x="375.5" y="-119.5" font-family="Helvetica,sans-Serif" font-size="10.00">AH/STL/type_traits</text>
</a>
</g>
</g>
<!-- Node3&#45;&gt;Node9 -->
<g id="edge9" class="edge">
<title>Node3&#45;&gt;Node9</title>
<path fill="none" stroke="midnightblue" d="M231.6,-168.44C260.49,-159.32 306.42,-144.81 338.61,-134.65"/>
<polygon fill="midnightblue" stroke="midnightblue" points="340.05,-137.87 348.53,-131.52 337.94,-131.19 340.05,-137.87"/>
</g>
<!-- Node5 -->
<g id="node5" class="node">
<title>Node5</title>
<g id="a_node5"><a xlink:href="../../d6/d3b/FixArduinoMacros_8hpp.html" target="_top" xlink:title=" ">
<polygon fill="white" stroke="black" points="152.5,-56.5 152.5,-75.5 322.5,-75.5 322.5,-56.5 152.5,-56.5"/>
<text text-anchor="middle" x="237.5" y="-63.5" font-family="Helvetica,sans-Serif" font-size="10.00">AH/Math/FixArduinoMacros.hpp</text>
</a>
</g>
</g>
<!-- Node4&#45;&gt;Node5 -->
<g id="edge4" class="edge">
<title>Node4&#45;&gt;Node5</title>
<path fill="none" stroke="midnightblue" d="M235.83,-112.08C236.09,-105.01 236.47,-94.86 236.8,-85.99"/>
<polygon fill="midnightblue" stroke="midnightblue" points="240.3,-85.87 237.18,-75.75 233.31,-85.61 240.3,-85.87"/>
</g>
<!-- Node8 -->
<g id="node8" class="node">
<title>Node8</title>
<g id="a_node8"><a xlink:href="../../dc/dc7/NamespaceSettings_8hpp.html" target="_top" xlink:title=" ">
<polygon fill="white" stroke="black" points="341,-56.5 341,-75.5 536,-75.5 536,-56.5 341,-56.5"/>
<text text-anchor="middle" x="438.5" y="-63.5" font-family="Helvetica,sans-Serif" font-size="10.00">AH/Settings/NamespaceSettings.hpp</text>
</a>
</g>
</g>
<!-- Node4&#45;&gt;Node8 -->
<g id="edge7" class="edge">
<title>Node4&#45;&gt;Node8</title>
<path fill="none" stroke="midnightblue" d="M267.67,-112.44C302.56,-103.16 358.39,-88.31 396.67,-78.13"/>
<polygon fill="midnightblue" stroke="midnightblue" points="397.72,-81.47 406.48,-75.52 395.92,-74.7 397.72,-81.47"/>
</g>
<!-- Node6 -->
<g id="node6" class="node">
<title>Node6</title>
<g id="a_node6"><a xlink:href="../../d1/d65/Warnings_8hpp.html" target="_top" xlink:title=" ">
<polygon fill="white" stroke="black" points="298,-0.5 298,-19.5 441,-19.5 441,-0.5 298,-0.5"/>
<text text-anchor="middle" x="369.5" y="-7.5" font-family="Helvetica,sans-Serif" font-size="10.00">AH/Settings/Warnings.hpp</text>
</a>
</g>
</g>
<!-- Node5&#45;&gt;Node6 -->
<g id="edge5" class="edge">
<title>Node5&#45;&gt;Node6</title>
<path fill="none" stroke="midnightblue" d="M258.42,-56.44C280.24,-47.52 314.65,-33.44 339.39,-23.32"/>
<polygon fill="midnightblue" stroke="midnightblue" points="340.75,-26.54 348.68,-19.52 338.1,-20.06 340.75,-26.54"/>
</g>
<!-- Node5&#45;&gt;Node7 -->
<g id="edge6" class="edge">
<title>Node5&#45;&gt;Node7</title>
<path fill="none" stroke="midnightblue" d="M228.34,-56.32C220,-48.42 207.47,-36.55 197.32,-26.94"/>
<polygon fill="midnightblue" stroke="midnightblue" points="199.49,-24.17 189.82,-19.83 194.68,-29.25 199.49,-24.17"/>
</g>
<!-- Node8&#45;&gt;Node6 -->
<g id="edge8" class="edge">
<title>Node8&#45;&gt;Node6</title>
<path fill="none" stroke="midnightblue" d="M427.41,-56.32C417.01,-48.18 401.24,-35.84 388.78,-26.09"/>
<polygon fill="midnightblue" stroke="midnightblue" points="390.82,-23.24 380.79,-19.83 386.51,-28.75 390.82,-23.24"/>
</g>
<!-- Node10&#45;&gt;Node8 -->
<g id="edge13" class="edge">
<title>Node10&#45;&gt;Node8</title>
<path fill="none" stroke="midnightblue" d="M456.01,-168.37C452.94,-150.62 445.87,-109.67 441.71,-85.6"/>
<polygon fill="midnightblue" stroke="midnightblue" points="445.14,-84.85 439.98,-75.59 438.24,-86.04 445.14,-84.85"/>
</g>
<!-- Node10&#45;&gt;Node9 -->
<g id="edge12" class="edge">
<title>Node10&#45;&gt;Node9</title>
<path fill="none" stroke="midnightblue" d="M444.33,-168.32C431.65,-159.98 412.27,-147.21 397.29,-137.35"/>
<polygon fill="midnightblue" stroke="midnightblue" points="398.92,-134.23 388.64,-131.65 395.07,-140.08 398.92,-134.23"/>
</g>
<!-- Node11&#45;&gt;Node3 -->
<g id="edge15" class="edge">
<title>Node11&#45;&gt;Node3</title>
<path fill="none" stroke="midnightblue" d="M273.33,-224.32C260.65,-215.98 241.27,-203.21 226.29,-193.35"/>
<polygon fill="midnightblue" stroke="midnightblue" points="227.92,-190.23 217.64,-187.65 224.07,-196.08 227.92,-190.23"/>
</g>
<!-- Node11&#45;&gt;Node12 -->
<g id="edge16" class="edge">
<title>Node11&#45;&gt;Node12</title>
<path fill="none" stroke="midnightblue" d="M293.6,-224.08C299.74,-216.38 308.77,-205.03 316.24,-195.65"/>
<polygon fill="midnightblue" stroke="midnightblue" points="319.04,-197.75 322.53,-187.75 313.56,-193.39 319.04,-197.75"/>
</g>
<!-- Node14&#45;&gt;Node3 -->
<g id="edge20" class="edge">
<title>Node14&#45;&gt;Node3</title>
<path fill="none" stroke="midnightblue" d="M105.2,-224.44C124.44,-215.64 154.65,-201.81 176.7,-191.72"/>
<polygon fill="midnightblue" stroke="midnightblue" points="178.25,-194.86 185.89,-187.52 175.34,-188.5 178.25,-194.86"/>
</g>
<!-- Node14&#45;&gt;Node8 -->
<g id="edge21" class="edge">
<title>Node14&#45;&gt;Node8</title>
<path fill="none" stroke="midnightblue" d="M88.9,-224.19C95.61,-201.4 116.85,-140.3 158.5,-112 174.68,-101.01 278.61,-86.33 355.15,-76.77"/>
<polygon fill="midnightblue" stroke="midnightblue" points="355.79,-80.22 365.28,-75.52 354.92,-73.27 355.79,-80.22"/>
</g>
</g>
</svg>
