<?xml version="1.0" encoding="UTF-8" standalone="no"?>
<!DOCTYPE svg PUBLIC "-//W3C//DTD SVG 1.1//EN"
 "http://www.w3.org/Graphics/SVG/1.1/DTD/svg11.dtd">
<!-- Generated by graphviz version 2.43.0 (0)
 -->
<!-- Title: SPIShiftRegisterOut.hpp Pages: 1 -->
<svg width="1438pt" height="946pt"
 viewBox="0.00 0.00 1438.00 946.00" xmlns="http://www.w3.org/2000/svg" xmlns:xlink="http://www.w3.org/1999/xlink">
<g id="graph0" class="graph" transform="scale(1 1) rotate(0) translate(4 942)">
<title>SPIShiftRegisterOut.hpp</title>
<polygon fill="white" stroke="transparent" points="-4,4 -4,-942 1434,-942 1434,4 -4,4"/>
<!-- Node1 -->
<g id="node1" class="node">
<title>Node1</title>
<g id="a_node1"><a xlink:title=" ">
<polygon fill="#bfbfbf" stroke="black" points="1042,-918.5 1042,-937.5 1174,-937.5 1174,-918.5 1042,-918.5"/>
<text text-anchor="middle" x="1108" y="-925.5" font-family="Helvetica,sans-Serif" font-size="10.00">SPIShiftRegisterOut.hpp</text>
</a>
</g>
</g>
<!-- Node2 -->
<g id="node2" class="node">
<title>Node2</title>
<g id="a_node2"><a xlink:href="../../d8/d93/ShiftRegisterOutBase_8hpp.html" target="_top" xlink:title=" ">
<polygon fill="white" stroke="black" points="884.5,-862.5 884.5,-881.5 1025.5,-881.5 1025.5,-862.5 884.5,-862.5"/>
<text text-anchor="middle" x="955" y="-869.5" font-family="Helvetica,sans-Serif" font-size="10.00">ShiftRegisterOutBase.hpp</text>
</a>
</g>
</g>
<!-- Node1&#45;&gt;Node2 -->
<g id="edge1" class="edge">
<title>Node1&#45;&gt;Node2</title>
<path fill="none" stroke="midnightblue" d="M1083.76,-918.44C1058.13,-909.4 1017.51,-895.06 988.76,-884.92"/>
<polygon fill="midnightblue" stroke="midnightblue" points="989.72,-881.54 979.13,-881.52 987.39,-888.15 989.72,-881.54"/>
</g>
<!-- Node10 -->
<g id="node10" class="node">
<title>Node10</title>
<g id="a_node10"><a xlink:href="../../d6/ddf/Arduino-Wrapper_8h.html" target="_top" xlink:title=" ">
<polygon fill="white" stroke="black" points="172,-168.5 172,-187.5 296,-187.5 296,-168.5 172,-168.5"/>
<text text-anchor="middle" x="234" y="-175.5" font-family="Helvetica,sans-Serif" font-size="10.00">AH/Arduino&#45;Wrapper.h</text>
</a>
</g>
</g>
<!-- Node1&#45;&gt;Node10 -->
<g id="edge73" class="edge">
<title>Node1&#45;&gt;Node10</title>
<path fill="none" stroke="midnightblue" d="M1041.6,-927.41C802.55,-928.04 0,-922.29 0,-817 0,-817 0,-817 0,-345 0,-254.8 117.1,-209.15 185.62,-190.15"/>
<polygon fill="midnightblue" stroke="midnightblue" points="186.61,-193.51 195.36,-187.54 184.79,-186.75 186.61,-193.51"/>
</g>
<!-- Node42 -->
<g id="node42" class="node">
<title>Node42</title>
<g id="a_node42"><a xlink:title=" ">
<polygon fill="white" stroke="#bfbfbf" points="1158.5,-806.5 1158.5,-825.5 1199.5,-825.5 1199.5,-806.5 1158.5,-806.5"/>
<text text-anchor="middle" x="1179" y="-813.5" font-family="Helvetica,sans-Serif" font-size="10.00">SPI.h</text>
</a>
</g>
</g>
<!-- Node1&#45;&gt;Node42 -->
<g id="edge74" class="edge">
<title>Node1&#45;&gt;Node42</title>
<path fill="none" stroke="midnightblue" d="M1134.93,-918.36C1151.72,-911.41 1171.98,-899.82 1182,-882 1189.95,-867.86 1188.04,-849.13 1184.82,-835.41"/>
<polygon fill="midnightblue" stroke="midnightblue" points="1188.17,-834.37 1182.13,-825.66 1181.42,-836.23 1188.17,-834.37"/>
</g>
<!-- Node43 -->
<g id="node43" class="node">
<title>Node43</title>
<g id="a_node43"><a xlink:href="../../da/d45/SPIShiftRegisterOut_8ipp.html" target="_top" xlink:title=" ">
<polygon fill="white" stroke="black" points="1043.5,-862.5 1043.5,-881.5 1172.5,-881.5 1172.5,-862.5 1043.5,-862.5"/>
<text text-anchor="middle" x="1108" y="-869.5" font-family="Helvetica,sans-Serif" font-size="10.00">SPIShiftRegisterOut.ipp</text>
</a>
</g>
</g>
<!-- Node1&#45;&gt;Node43 -->
<g id="edge75" class="edge">
<title>Node1&#45;&gt;Node43</title>
<path fill="none" stroke="midnightblue" d="M1102.83,-918.08C1101.32,-910.93 1100.89,-900.64 1101.54,-891.69"/>
<polygon fill="midnightblue" stroke="midnightblue" points="1105.02,-892.13 1102.87,-881.75 1098.08,-891.2 1105.02,-892.13"/>
</g>
<!-- Node3 -->
<g id="node3" class="node">
<title>Node3</title>
<g id="a_node3"><a xlink:href="../../dd/ddf/ExtendedInputOutput_8hpp.html" target="_top" xlink:title=" ">
<polygon fill="white" stroke="black" points="1036.5,-694.5 1036.5,-713.5 1177.5,-713.5 1177.5,-694.5 1036.5,-694.5"/>
<text text-anchor="middle" x="1107" y="-701.5" font-family="Helvetica,sans-Serif" font-size="10.00">ExtendedInputOutput.hpp</text>
</a>
</g>
</g>
<!-- Node2&#45;&gt;Node3 -->
<g id="edge2" class="edge">
<title>Node2&#45;&gt;Node3</title>
<path fill="none" stroke="midnightblue" d="M986.42,-862.46C1006.97,-855.51 1033.21,-843.87 1051,-826 1080.02,-796.84 1095.73,-749.86 1102.63,-723.85"/>
<polygon fill="midnightblue" stroke="midnightblue" points="1106.11,-724.36 1105.13,-713.81 1099.32,-722.67 1106.11,-724.36"/>
</g>
<!-- Node30 -->
<g id="node30" class="node">
<title>Node30</title>
<g id="a_node30"><a xlink:href="../../d2/d05/StaticSizeExtendedIOElement_8hpp.html" target="_top" xlink:title=" ">
<polygon fill="white" stroke="black" points="666,-806.5 666,-825.5 848,-825.5 848,-806.5 666,-806.5"/>
<text text-anchor="middle" x="757" y="-813.5" font-family="Helvetica,sans-Serif" font-size="10.00">StaticSizeExtendedIOElement.hpp</text>
</a>
</g>
</g>
<!-- Node2&#45;&gt;Node30 -->
<g id="edge43" class="edge">
<title>Node2&#45;&gt;Node30</title>
<path fill="none" stroke="midnightblue" d="M923.63,-862.44C889.74,-853.2 835.6,-838.44 798.28,-828.26"/>
<polygon fill="midnightblue" stroke="midnightblue" points="798.8,-824.77 788.23,-825.52 796.95,-831.52 798.8,-824.77"/>
</g>
<!-- Node39 -->
<g id="node39" class="node">
<title>Node39</title>
<g id="a_node39"><a xlink:href="../../d1/d40/BitArray_8hpp.html" target="_top" xlink:title=" ">
<polygon fill="white" stroke="black" points="803.5,-504.5 803.5,-523.5 952.5,-523.5 952.5,-504.5 803.5,-504.5"/>
<text text-anchor="middle" x="878" y="-511.5" font-family="Helvetica,sans-Serif" font-size="10.00">AH/Containers/BitArray.hpp</text>
</a>
</g>
</g>
<!-- Node2&#45;&gt;Node39 -->
<g id="edge63" class="edge">
<title>Node2&#45;&gt;Node39</title>
<path fill="none" stroke="midnightblue" d="M938.11,-862.35C924.56,-854.58 906.05,-841.95 895,-826 877.86,-801.26 876,-791.1 876,-761 876,-761 876,-761 876,-641.5 876,-603.2 876.93,-558.38 877.52,-533.7"/>
<polygon fill="midnightblue" stroke="midnightblue" points="881.02,-533.67 877.77,-523.59 874.02,-533.5 881.02,-533.67"/>
</g>
<!-- Node40 -->
<g id="node40" class="node">
<title>Node40</title>
<g id="a_node40"><a xlink:href="../../d5/d47/ShiftRegisterOutBase_8ipp.html" target="_top" xlink:title=" ">
<polygon fill="white" stroke="black" points="904,-806.5 904,-825.5 1042,-825.5 1042,-806.5 904,-806.5"/>
<text text-anchor="middle" x="973" y="-813.5" font-family="Helvetica,sans-Serif" font-size="10.00">ShiftRegisterOutBase.ipp</text>
</a>
</g>
</g>
<!-- Node2&#45;&gt;Node40 -->
<g id="edge67" class="edge">
<title>Node2&#45;&gt;Node40</title>
<path fill="none" stroke="midnightblue" d="M952.81,-862.08C953.71,-854.69 956.88,-843.95 960.67,-834.81"/>
<polygon fill="midnightblue" stroke="midnightblue" points="963.85,-836.29 964.95,-825.75 957.52,-833.3 963.85,-836.29"/>
</g>
<!-- Node4 -->
<g id="node4" class="node">
<title>Node4</title>
<g id="a_node4"><a xlink:href="../../d2/d3c/Arduino-Hardware-Types_8hpp.html" target="_top" xlink:title=" ">
<polygon fill="white" stroke="black" points="1036,-627.5 1036,-657.5 1158,-657.5 1158,-627.5 1036,-627.5"/>
<text text-anchor="start" x="1044" y="-645.5" font-family="Helvetica,sans-Serif" font-size="10.00">AH/Hardware/Arduino</text>
<text text-anchor="middle" x="1097" y="-634.5" font-family="Helvetica,sans-Serif" font-size="10.00">&#45;Hardware&#45;Types.hpp</text>
</a>
</g>
</g>
<!-- Node3&#45;&gt;Node4 -->
<g id="edge3" class="edge">
<title>Node3&#45;&gt;Node4</title>
<path fill="none" stroke="midnightblue" d="M1105.57,-694.48C1104.38,-687.4 1102.63,-676.97 1101.02,-667.39"/>
<polygon fill="midnightblue" stroke="midnightblue" points="1104.47,-666.8 1099.36,-657.52 1097.56,-667.96 1104.47,-666.8"/>
</g>
<!-- Node15 -->
<g id="node15" class="node">
<title>Node15</title>
<g id="a_node15"><a xlink:href="../../dc/dc7/NamespaceSettings_8hpp.html" target="_top" xlink:title=" ">
<polygon fill="white" stroke="black" points="646.5,-56.5 646.5,-75.5 841.5,-75.5 841.5,-56.5 646.5,-56.5"/>
<text text-anchor="middle" x="744" y="-63.5" font-family="Helvetica,sans-Serif" font-size="10.00">AH/Settings/NamespaceSettings.hpp</text>
</a>
</g>
</g>
<!-- Node3&#45;&gt;Node15 -->
<g id="edge42" class="edge">
<title>Node3&#45;&gt;Node15</title>
<path fill="none" stroke="midnightblue" d="M1124.4,-694.35C1138.06,-686.66 1156.47,-674.14 1167,-658 1187.33,-626.85 1186,-613.69 1186,-576.5 1186,-576.5 1186,-576.5 1186,-177 1186,-108.31 982.45,-82.19 851.62,-72.5"/>
<polygon fill="midnightblue" stroke="midnightblue" points="851.77,-69 841.55,-71.77 851.27,-75.98 851.77,-69"/>
</g>
<!-- Node29 -->
<g id="node29" class="node">
<title>Node29</title>
<g id="a_node29"><a xlink:title=" ">
<polygon fill="white" stroke="#bfbfbf" points="1214.5,-633 1214.5,-652 1301.5,-652 1301.5,-633 1214.5,-633"/>
<text text-anchor="middle" x="1258" y="-640" font-family="Helvetica,sans-Serif" font-size="10.00">AH/STL/climits</text>
</a>
</g>
</g>
<!-- Node3&#45;&gt;Node29 -->
<g id="edge41" class="edge">
<title>Node3&#45;&gt;Node29</title>
<path fill="none" stroke="midnightblue" d="M1128.63,-694.48C1154.42,-684.31 1197.71,-667.26 1227.04,-655.7"/>
<polygon fill="midnightblue" stroke="midnightblue" points="1228.38,-658.93 1236.41,-652.01 1225.82,-652.42 1228.38,-658.93"/>
</g>
<!-- Node5 -->
<g id="node5" class="node">
<title>Node5</title>
<g id="a_node5"><a xlink:href="../../d4/d35/Hardware-Types_8hpp.html" target="_top" xlink:title=" ">
<polygon fill="white" stroke="black" points="1006.5,-560.5 1006.5,-590.5 1137.5,-590.5 1137.5,-560.5 1006.5,-560.5"/>
<text text-anchor="start" x="1014.5" y="-578.5" font-family="Helvetica,sans-Serif" font-size="10.00">AH/Hardware/Hardware</text>
<text text-anchor="middle" x="1072" y="-567.5" font-family="Helvetica,sans-Serif" font-size="10.00">&#45;Types.hpp</text>
</a>
</g>
</g>
<!-- Node4&#45;&gt;Node5 -->
<g id="edge4" class="edge">
<title>Node4&#45;&gt;Node5</title>
<path fill="none" stroke="midnightblue" d="M1091.58,-627.4C1088.5,-619.39 1084.56,-609.16 1081.03,-599.98"/>
<polygon fill="midnightblue" stroke="midnightblue" points="1084.27,-598.65 1077.41,-590.58 1077.74,-601.17 1084.27,-598.65"/>
</g>
<!-- Node4&#45;&gt;Node10 -->
<g id="edge40" class="edge">
<title>Node4&#45;&gt;Node10</title>
<path fill="none" stroke="midnightblue" d="M1035.92,-640.25C866.07,-636.4 390.7,-623.01 238,-591 144.93,-571.49 38,-610.09 38,-515 38,-515 38,-515 38,-457 38,-336.39 162.75,-231.28 213.2,-193.71"/>
<polygon fill="midnightblue" stroke="midnightblue" points="215.44,-196.41 221.44,-187.68 211.3,-190.76 215.44,-196.41"/>
</g>
<!-- Node26 -->
<g id="node26" class="node">
<title>Node26</title>
<g id="a_node26"><a xlink:href="../../d0/db1/FunctionTraits_8hpp.html" target="_top" xlink:title=" ">
<polygon fill="white" stroke="black" points="1249.5,-566 1249.5,-585 1402.5,-585 1402.5,-566 1249.5,-566"/>
<text text-anchor="middle" x="1326" y="-573" font-family="Helvetica,sans-Serif" font-size="10.00">AH/Types/FunctionTraits.hpp</text>
</a>
</g>
</g>
<!-- Node4&#45;&gt;Node26 -->
<g id="edge36" class="edge">
<title>Node4&#45;&gt;Node26</title>
<path fill="none" stroke="midnightblue" d="M1146.41,-627.48C1188.17,-615.62 1247.23,-598.86 1286.06,-587.84"/>
<polygon fill="midnightblue" stroke="midnightblue" points="1287.29,-591.13 1295.95,-585.03 1285.38,-584.39 1287.29,-591.13"/>
</g>
<!-- Node6 -->
<g id="node6" class="node">
<title>Node6</title>
<g id="a_node6"><a xlink:href="../../de/d76/Array_8hpp.html" target="_top" xlink:title=" ">
<polygon fill="white" stroke="black" points="650.5,-504.5 650.5,-523.5 785.5,-523.5 785.5,-504.5 650.5,-504.5"/>
<text text-anchor="middle" x="718" y="-511.5" font-family="Helvetica,sans-Serif" font-size="10.00">AH/Containers/Array.hpp</text>
</a>
</g>
</g>
<!-- Node5&#45;&gt;Node6 -->
<g id="edge5" class="edge">
<title>Node5&#45;&gt;Node6</title>
<path fill="none" stroke="midnightblue" d="M1006.24,-563.45C941.18,-552.51 842.4,-535.91 779.03,-525.26"/>
<polygon fill="midnightblue" stroke="midnightblue" points="779.23,-521.74 768.79,-523.54 778.07,-528.65 779.23,-521.74"/>
</g>
<!-- Node5&#45;&gt;Node15 -->
<g id="edge34" class="edge">
<title>Node5&#45;&gt;Node15</title>
<path fill="none" stroke="midnightblue" d="M1089.25,-560.43C1111.67,-540.44 1148,-501.49 1148,-459 1148,-459 1148,-459 1148,-177 1148,-115.44 971.18,-87.19 851.49,-75.12"/>
<polygon fill="midnightblue" stroke="midnightblue" points="851.83,-71.63 841.54,-74.14 851.15,-78.6 851.83,-71.63"/>
</g>
<!-- Node23 -->
<g id="node23" class="node">
<title>Node23</title>
<g id="a_node23"><a xlink:title=" ">
<polygon fill="white" stroke="#bfbfbf" points="894.5,-224.5 894.5,-243.5 947.5,-243.5 947.5,-224.5 894.5,-224.5"/>
<text text-anchor="middle" x="921" y="-231.5" font-family="Helvetica,sans-Serif" font-size="10.00">stdint.h</text>
</a>
</g>
</g>
<!-- Node5&#45;&gt;Node23 -->
<g id="edge35" class="edge">
<title>Node5&#45;&gt;Node23</title>
<path fill="none" stroke="midnightblue" d="M1072,-560.28C1072,-538.48 1072,-495.49 1072,-459 1072,-459 1072,-459 1072,-345 1072,-288.46 1001.99,-257.92 957.31,-244.18"/>
<polygon fill="midnightblue" stroke="midnightblue" points="958.23,-240.8 947.65,-241.35 956.26,-247.52 958.23,-240.8"/>
</g>
<!-- Node7 -->
<g id="node7" class="node">
<title>Node7</title>
<g id="a_node7"><a xlink:href="../../d1/d93/Error_8hpp.html" target="_top" xlink:title=" ">
<polygon fill="white" stroke="black" points="686,-448.5 686,-467.5 790,-467.5 790,-448.5 686,-448.5"/>
<text text-anchor="middle" x="738" y="-455.5" font-family="Helvetica,sans-Serif" font-size="10.00">AH/Error/Error.hpp</text>
</a>
</g>
</g>
<!-- Node6&#45;&gt;Node7 -->
<g id="edge6" class="edge">
<title>Node6&#45;&gt;Node7</title>
<path fill="none" stroke="midnightblue" d="M721.3,-504.08C723.98,-496.85 727.85,-486.41 731.19,-477.4"/>
<polygon fill="midnightblue" stroke="midnightblue" points="734.57,-478.34 734.76,-467.75 728,-475.91 734.57,-478.34"/>
</g>
<!-- Node16 -->
<g id="node16" class="node">
<title>Node16</title>
<g id="a_node16"><a xlink:title=" ">
<polygon fill="white" stroke="#bfbfbf" points="772.5,-112.5 772.5,-131.5 879.5,-131.5 879.5,-112.5 772.5,-112.5"/>
<text text-anchor="middle" x="826" y="-119.5" font-family="Helvetica,sans-Serif" font-size="10.00">AH/STL/type_traits</text>
</a>
</g>
</g>
<!-- Node6&#45;&gt;Node16 -->
<g id="edge32" class="edge">
<title>Node6&#45;&gt;Node16</title>
<path fill="none" stroke="midnightblue" d="M755.43,-504.47C775.99,-497.87 800.24,-486.62 815,-468 849.1,-424.96 840,-401.91 840,-347 840,-347 840,-347 840,-233 840,-200.54 833.93,-163.12 829.78,-141.36"/>
<polygon fill="midnightblue" stroke="midnightblue" points="833.21,-140.64 827.83,-131.51 826.34,-142 833.21,-140.64"/>
</g>
<!-- Node22 -->
<g id="node22" class="node">
<title>Node22</title>
<g id="a_node22"><a xlink:title=" ">
<polygon fill="white" stroke="#bfbfbf" points="367,-224.5 367,-243.5 423,-243.5 423,-224.5 367,-224.5"/>
<text text-anchor="middle" x="395" y="-231.5" font-family="Helvetica,sans-Serif" font-size="10.00">stddef.h</text>
</a>
</g>
</g>
<!-- Node6&#45;&gt;Node22 -->
<g id="edge33" class="edge">
<title>Node6&#45;&gt;Node22</title>
<path fill="none" stroke="midnightblue" d="M745.68,-504.49C774.6,-494.01 813.86,-474.29 799,-448 775.26,-406 750.48,-410.69 706,-392 589.9,-343.22 534.49,-380.93 438,-300 422.65,-287.13 410.67,-267.4 403.3,-253.06"/>
<polygon fill="midnightblue" stroke="midnightblue" points="406.29,-251.2 398.76,-243.74 399.99,-254.26 406.29,-251.2"/>
</g>
<!-- Node25 -->
<g id="node25" class="node">
<title>Node25</title>
<g id="a_node25"><a xlink:title=" ">
<polygon fill="white" stroke="#bfbfbf" points="468,-392.5 468,-411.5 558,-411.5 558,-392.5 468,-392.5"/>
<text text-anchor="middle" x="513" y="-399.5" font-family="Helvetica,sans-Serif" font-size="10.00">AH/STL/iterator</text>
</a>
</g>
</g>
<!-- Node6&#45;&gt;Node25 -->
<g id="edge31" class="edge">
<title>Node6&#45;&gt;Node25</title>
<path fill="none" stroke="midnightblue" d="M701.91,-504.37C666.29,-485.25 580.52,-439.23 537.9,-416.36"/>
<polygon fill="midnightblue" stroke="midnightblue" points="539.48,-413.24 529.01,-411.59 536.17,-419.4 539.48,-413.24"/>
</g>
<!-- Node8 -->
<g id="node8" class="node">
<title>Node8</title>
<g id="a_node8"><a xlink:href="../../df/dee/Debug_8hpp.html" target="_top" xlink:title=" ">
<polygon fill="white" stroke="black" points="576.5,-392.5 576.5,-411.5 697.5,-411.5 697.5,-392.5 576.5,-392.5"/>
<text text-anchor="middle" x="637" y="-399.5" font-family="Helvetica,sans-Serif" font-size="10.00">AH/Debug/Debug.hpp</text>
</a>
</g>
</g>
<!-- Node7&#45;&gt;Node8 -->
<g id="edge7" class="edge">
<title>Node7&#45;&gt;Node8</title>
<path fill="none" stroke="midnightblue" d="M721.77,-448.32C705.65,-439.7 680.7,-426.36 662.04,-416.39"/>
<polygon fill="midnightblue" stroke="midnightblue" points="663.66,-413.28 653.19,-411.65 660.36,-419.46 663.66,-413.28"/>
</g>
<!-- Node9 -->
<g id="node9" class="node">
<title>Node9</title>
<g id="a_node9"><a xlink:href="../../dd/d80/PrintStream_8hpp.html" target="_top" xlink:title=" ">
<polygon fill="white" stroke="black" points="161.5,-336.5 161.5,-355.5 334.5,-355.5 334.5,-336.5 161.5,-336.5"/>
<text text-anchor="middle" x="248" y="-343.5" font-family="Helvetica,sans-Serif" font-size="10.00">AH/PrintStream/PrintStream.hpp</text>
</a>
</g>
</g>
<!-- Node8&#45;&gt;Node9 -->
<g id="edge8" class="edge">
<title>Node8&#45;&gt;Node9</title>
<path fill="none" stroke="midnightblue" d="M576.22,-392.56C506.73,-382.92 393.1,-367.14 319.44,-356.92"/>
<polygon fill="midnightblue" stroke="midnightblue" points="319.7,-353.42 309.32,-355.51 318.74,-360.35 319.7,-353.42"/>
</g>
<!-- Node17 -->
<g id="node17" class="node">
<title>Node17</title>
<g id="a_node17"><a xlink:href="../../d2/dd5/SettingsWrapper_8hpp.html" target="_top" xlink:title=" ">
<polygon fill="white" stroke="black" points="576,-336.5 576,-355.5 754,-355.5 754,-336.5 576,-336.5"/>
<text text-anchor="middle" x="665" y="-343.5" font-family="Helvetica,sans-Serif" font-size="10.00">AH/Settings/SettingsWrapper.hpp</text>
</a>
</g>
</g>
<!-- Node8&#45;&gt;Node17 -->
<g id="edge19" class="edge">
<title>Node8&#45;&gt;Node17</title>
<path fill="none" stroke="midnightblue" d="M636.46,-392.08C638.78,-384.53 644.11,-373.49 649.73,-364.23"/>
<polygon fill="midnightblue" stroke="midnightblue" points="652.74,-366.02 655.33,-355.75 646.9,-362.16 652.74,-366.02"/>
</g>
<!-- Node9&#45;&gt;Node10 -->
<g id="edge9" class="edge">
<title>Node9&#45;&gt;Node10</title>
<path fill="none" stroke="midnightblue" d="M247.25,-336.08C245.04,-309.95 238.57,-233.21 235.57,-197.58"/>
<polygon fill="midnightblue" stroke="midnightblue" points="239.05,-197.24 234.72,-187.57 232.08,-197.83 239.05,-197.24"/>
</g>
<!-- Node9&#45;&gt;Node15 -->
<g id="edge18" class="edge">
<title>Node9&#45;&gt;Node15</title>
<path fill="none" stroke="midnightblue" d="M260.81,-336.39C283.88,-319.74 330,-280.73 330,-235 330,-235 330,-235 330,-177 330,-113.62 513.55,-85.87 636.22,-74.41"/>
<polygon fill="midnightblue" stroke="midnightblue" points="636.77,-77.87 646.41,-73.48 636.14,-70.9 636.77,-77.87"/>
</g>
<!-- Node11 -->
<g id="node11" class="node">
<title>Node11</title>
<g id="a_node11"><a xlink:href="../../d7/d79/MinMaxFix_8hpp.html" target="_top" xlink:title=" ">
<polygon fill="white" stroke="black" points="166,-112.5 166,-131.5 302,-131.5 302,-112.5 166,-112.5"/>
<text text-anchor="middle" x="234" y="-119.5" font-family="Helvetica,sans-Serif" font-size="10.00">AH/Math/MinMaxFix.hpp</text>
</a>
</g>
</g>
<!-- Node10&#45;&gt;Node11 -->
<g id="edge10" class="edge">
<title>Node10&#45;&gt;Node11</title>
<path fill="none" stroke="midnightblue" d="M234,-168.08C234,-161.01 234,-150.86 234,-141.99"/>
<polygon fill="midnightblue" stroke="midnightblue" points="237.5,-141.75 234,-131.75 230.5,-141.75 237.5,-141.75"/>
</g>
<!-- Node14 -->
<g id="node14" class="node">
<title>Node14</title>
<g id="a_node14"><a xlink:title=" ">
<polygon fill="white" stroke="#bfbfbf" points="162.5,-0.5 162.5,-19.5 225.5,-19.5 225.5,-0.5 162.5,-0.5"/>
<text text-anchor="middle" x="194" y="-7.5" font-family="Helvetica,sans-Serif" font-size="10.00">Arduino.h</text>
</a>
</g>
</g>
<!-- Node10&#45;&gt;Node14 -->
<g id="edge17" class="edge">
<title>Node10&#45;&gt;Node14</title>
<path fill="none" stroke="midnightblue" d="M205.63,-168.49C188.25,-161.65 167.4,-150.13 157,-132 140.19,-102.7 145.61,-87.8 157,-56 160.94,-45 168.86,-34.77 176.36,-26.85"/>
<polygon fill="midnightblue" stroke="midnightblue" points="178.89,-29.27 183.56,-19.76 173.98,-24.28 178.89,-29.27"/>
</g>
<!-- Node10&#45;&gt;Node16 -->
<g id="edge16" class="edge">
<title>Node10&#45;&gt;Node16</title>
<path fill="none" stroke="midnightblue" d="M296.24,-171.32C409.48,-160.99 648.08,-139.23 762.36,-128.81"/>
<polygon fill="midnightblue" stroke="midnightblue" points="762.72,-132.29 772.36,-127.89 762.08,-125.32 762.72,-132.29"/>
</g>
<!-- Node12 -->
<g id="node12" class="node">
<title>Node12</title>
<g id="a_node12"><a xlink:href="../../d6/d3b/FixArduinoMacros_8hpp.html" target="_top" xlink:title=" ">
<polygon fill="white" stroke="black" points="166,-56.5 166,-75.5 336,-75.5 336,-56.5 166,-56.5"/>
<text text-anchor="middle" x="251" y="-63.5" font-family="Helvetica,sans-Serif" font-size="10.00">AH/Math/FixArduinoMacros.hpp</text>
</a>
</g>
</g>
<!-- Node11&#45;&gt;Node12 -->
<g id="edge11" class="edge">
<title>Node11&#45;&gt;Node12</title>
<path fill="none" stroke="midnightblue" d="M236.81,-112.08C239.08,-104.85 242.37,-94.41 245.21,-85.4"/>
<polygon fill="midnightblue" stroke="midnightblue" points="248.58,-86.34 248.25,-75.75 241.9,-84.24 248.58,-86.34"/>
</g>
<!-- Node11&#45;&gt;Node15 -->
<g id="edge14" class="edge">
<title>Node11&#45;&gt;Node15</title>
<path fill="none" stroke="midnightblue" d="M302.01,-113.51C306.74,-113 311.44,-112.49 316,-112 431.76,-99.56 565.18,-85.59 651.86,-76.56"/>
<polygon fill="midnightblue" stroke="midnightblue" points="652.35,-80.03 661.94,-75.52 651.63,-73.07 652.35,-80.03"/>
</g>
<!-- Node13 -->
<g id="node13" class="node">
<title>Node13</title>
<g id="a_node13"><a xlink:href="../../d1/d65/Warnings_8hpp.html" target="_top" xlink:title=" ">
<polygon fill="white" stroke="black" points="457.5,-0.5 457.5,-19.5 600.5,-19.5 600.5,-0.5 457.5,-0.5"/>
<text text-anchor="middle" x="529" y="-7.5" font-family="Helvetica,sans-Serif" font-size="10.00">AH/Settings/Warnings.hpp</text>
</a>
</g>
</g>
<!-- Node12&#45;&gt;Node13 -->
<g id="edge12" class="edge">
<title>Node12&#45;&gt;Node13</title>
<path fill="none" stroke="midnightblue" d="M295.05,-56.44C343.85,-46.96 422.56,-31.67 475.03,-21.48"/>
<polygon fill="midnightblue" stroke="midnightblue" points="476.01,-24.86 485.16,-19.52 474.67,-17.99 476.01,-24.86"/>
</g>
<!-- Node12&#45;&gt;Node14 -->
<g id="edge13" class="edge">
<title>Node12&#45;&gt;Node14</title>
<path fill="none" stroke="midnightblue" d="M241.84,-56.32C233.5,-48.42 220.97,-36.55 210.82,-26.94"/>
<polygon fill="midnightblue" stroke="midnightblue" points="212.99,-24.17 203.32,-19.83 208.18,-29.25 212.99,-24.17"/>
</g>
<!-- Node15&#45;&gt;Node13 -->
<g id="edge15" class="edge">
<title>Node15&#45;&gt;Node13</title>
<path fill="none" stroke="midnightblue" d="M709.93,-56.44C672.82,-47.12 613.34,-32.18 572.79,-22"/>
<polygon fill="midnightblue" stroke="midnightblue" points="573.46,-18.56 562.91,-19.52 571.75,-25.35 573.46,-18.56"/>
</g>
<!-- Node17&#45;&gt;Node8 -->
<g id="edge30" class="edge">
<title>Node17&#45;&gt;Node8</title>
<path fill="none" stroke="midnightblue" d="M665.59,-355.75C663.32,-363.25 658.01,-374.27 652.4,-383.57"/>
<polygon fill="midnightblue" stroke="midnightblue" points="649.37,-381.81 646.79,-392.08 655.21,-385.66 649.37,-381.81"/>
</g>
<!-- Node17&#45;&gt;Node15 -->
<g id="edge20" class="edge">
<title>Node17&#45;&gt;Node15</title>
<path fill="none" stroke="midnightblue" d="M681.29,-336.4C694.59,-328.58 712.95,-315.85 724,-300 741.29,-275.21 744,-265.23 744,-235 744,-235 744,-235 744,-177 744,-144.95 744,-107.64 744,-85.75"/>
<polygon fill="midnightblue" stroke="midnightblue" points="747.5,-85.56 744,-75.56 740.5,-85.56 747.5,-85.56"/>
</g>
<!-- Node18 -->
<g id="node18" class="node">
<title>Node18</title>
<g id="a_node18"><a xlink:href="../../db/d02/Settings_8hpp.html" target="_top" xlink:title="All user settings and debugging options can be changed here.">
<polygon fill="white" stroke="black" points="638.5,-280.5 638.5,-299.5 715.5,-299.5 715.5,-280.5 638.5,-280.5"/>
<text text-anchor="middle" x="677" y="-287.5" font-family="Helvetica,sans-Serif" font-size="10.00">Settings.hpp</text>
</a>
</g>
</g>
<!-- Node17&#45;&gt;Node18 -->
<g id="edge21" class="edge">
<title>Node17&#45;&gt;Node18</title>
<path fill="none" stroke="midnightblue" d="M666.98,-336.08C668.57,-328.93 670.86,-318.64 672.85,-309.69"/>
<polygon fill="midnightblue" stroke="midnightblue" points="676.3,-310.27 675.06,-299.75 669.47,-308.75 676.3,-310.27"/>
</g>
<!-- Node24 -->
<g id="node24" class="node">
<title>Node24</title>
<g id="a_node24"><a xlink:href="../../d9/d98/TeensyUSBTypes_8hpp.html" target="_top" xlink:title=" ">
<polygon fill="white" stroke="black" points="447.5,-280.5 447.5,-299.5 620.5,-299.5 620.5,-280.5 447.5,-280.5"/>
<text text-anchor="middle" x="534" y="-287.5" font-family="Helvetica,sans-Serif" font-size="10.00">AH/Teensy/TeensyUSBTypes.hpp</text>
</a>
</g>
</g>
<!-- Node17&#45;&gt;Node24 -->
<g id="edge29" class="edge">
<title>Node17&#45;&gt;Node24</title>
<path fill="none" stroke="midnightblue" d="M644.24,-336.44C622.68,-327.56 588.74,-313.56 564.21,-303.45"/>
<polygon fill="midnightblue" stroke="midnightblue" points="565.24,-300.09 554.66,-299.52 562.57,-306.56 565.24,-300.09"/>
</g>
<!-- Node19 -->
<g id="node19" class="node">
<title>Node19</title>
<g id="a_node19"><a xlink:href="../../dc/d50/Frequency_8hpp.html" target="_top" xlink:title=" ">
<polygon fill="white" stroke="black" points="582,-168.5 582,-187.5 716,-187.5 716,-168.5 582,-168.5"/>
<text text-anchor="middle" x="649" y="-175.5" font-family="Helvetica,sans-Serif" font-size="10.00">AH/Types/Frequency.hpp</text>
</a>
</g>
</g>
<!-- Node18&#45;&gt;Node19 -->
<g id="edge22" class="edge">
<title>Node18&#45;&gt;Node19</title>
<path fill="none" stroke="midnightblue" d="M678.73,-280.37C680.91,-267.71 683.74,-243.49 678,-224 674.99,-213.76 668.85,-203.66 662.99,-195.63"/>
<polygon fill="midnightblue" stroke="midnightblue" points="665.59,-193.27 656.67,-187.54 660.07,-197.58 665.59,-193.27"/>
</g>
<!-- Node20 -->
<g id="node20" class="node">
<title>Node20</title>
<g id="a_node20"><a xlink:href="../../d7/d7c/ADCConfig_8hpp.html" target="_top" xlink:title="This file contains the platform&#45;specific ADC resolutions.">
<polygon fill="white" stroke="black" points="441.5,-224.5 441.5,-243.5 598.5,-243.5 598.5,-224.5 441.5,-224.5"/>
<text text-anchor="middle" x="520" y="-231.5" font-family="Helvetica,sans-Serif" font-size="10.00">AH/Hardware/ADCConfig.hpp</text>
</a>
</g>
</g>
<!-- Node18&#45;&gt;Node20 -->
<g id="edge24" class="edge">
<title>Node18&#45;&gt;Node20</title>
<path fill="none" stroke="midnightblue" d="M652.12,-280.44C625.71,-271.36 583.78,-256.94 554.26,-246.78"/>
<polygon fill="midnightblue" stroke="midnightblue" points="555.36,-243.46 544.76,-243.52 553.08,-250.08 555.36,-243.46"/>
</g>
<!-- Node21 -->
<g id="node21" class="node">
<title>Node21</title>
<g id="a_node21"><a xlink:title=" ">
<polygon fill="white" stroke="#bfbfbf" points="616.5,-224.5 616.5,-243.5 669.5,-243.5 669.5,-224.5 616.5,-224.5"/>
<text text-anchor="middle" x="643" y="-231.5" font-family="Helvetica,sans-Serif" font-size="10.00">limits.h</text>
</a>
</g>
</g>
<!-- Node18&#45;&gt;Node21 -->
<g id="edge26" class="edge">
<title>Node18&#45;&gt;Node21</title>
<path fill="none" stroke="midnightblue" d="M671.39,-280.08C666.63,-272.53 659.68,-261.49 653.85,-252.23"/>
<polygon fill="midnightblue" stroke="midnightblue" points="656.8,-250.35 648.51,-243.75 650.88,-254.08 656.8,-250.35"/>
</g>
<!-- Node18&#45;&gt;Node22 -->
<g id="edge27" class="edge">
<title>Node18&#45;&gt;Node22</title>
<path fill="none" stroke="midnightblue" d="M638.49,-281.76C635.28,-281.17 632.08,-280.57 629,-280 544.56,-264.37 520.71,-262.63 433.08,-244.14"/>
<polygon fill="midnightblue" stroke="midnightblue" points="433.75,-240.7 423.24,-242.05 432.3,-247.55 433.75,-240.7"/>
</g>
<!-- Node18&#45;&gt;Node23 -->
<g id="edge28" class="edge">
<title>Node18&#45;&gt;Node23</title>
<path fill="none" stroke="midnightblue" d="M715.66,-280.44C761.91,-270.21 838.78,-253.2 884.19,-243.15"/>
<polygon fill="midnightblue" stroke="midnightblue" points="885.19,-246.51 894.2,-240.93 883.68,-239.67 885.19,-246.51"/>
</g>
<!-- Node19&#45;&gt;Node15 -->
<g id="edge23" class="edge">
<title>Node19&#45;&gt;Node15</title>
<path fill="none" stroke="midnightblue" d="M656.45,-168.37C672.27,-150.05 709.41,-107.05 729.87,-83.36"/>
<polygon fill="midnightblue" stroke="midnightblue" points="732.69,-85.45 736.58,-75.59 727.4,-80.87 732.69,-85.45"/>
</g>
<!-- Node20&#45;&gt;Node10 -->
<g id="edge25" class="edge">
<title>Node20&#45;&gt;Node10</title>
<path fill="none" stroke="midnightblue" d="M474.68,-224.44C424.37,-214.94 343.16,-199.61 289.19,-189.42"/>
<polygon fill="midnightblue" stroke="midnightblue" points="289.58,-185.93 279.11,-187.52 288.28,-192.81 289.58,-185.93"/>
</g>
<!-- Node26&#45;&gt;Node15 -->
<g id="edge39" class="edge">
<title>Node26&#45;&gt;Node15</title>
<path fill="none" stroke="midnightblue" d="M1350.31,-565.84C1369.46,-557.82 1395.43,-544.08 1411,-524 1429.44,-500.21 1430,-489.1 1430,-459 1430,-459 1430,-459 1430,-177 1430,-119.16 1044.86,-86.24 851.74,-73.37"/>
<polygon fill="midnightblue" stroke="midnightblue" points="851.77,-69.86 841.56,-72.7 851.31,-76.85 851.77,-69.86"/>
</g>
<!-- Node27 -->
<g id="node27" class="node">
<title>Node27</title>
<g id="a_node27"><a xlink:title=" ">
<polygon fill="white" stroke="#bfbfbf" points="1214,-504.5 1214,-523.5 1304,-523.5 1304,-504.5 1214,-504.5"/>
<text text-anchor="middle" x="1259" y="-511.5" font-family="Helvetica,sans-Serif" font-size="10.00">AH/STL/cstddef</text>
</a>
</g>
</g>
<!-- Node26&#45;&gt;Node27 -->
<g id="edge37" class="edge">
<title>Node26&#45;&gt;Node27</title>
<path fill="none" stroke="midnightblue" d="M1316.4,-565.98C1305.95,-556.7 1289.03,-541.67 1276.26,-530.33"/>
<polygon fill="midnightblue" stroke="midnightblue" points="1278.38,-527.53 1268.58,-523.51 1273.73,-532.77 1278.38,-527.53"/>
</g>
<!-- Node28 -->
<g id="node28" class="node">
<title>Node28</title>
<g id="a_node28"><a xlink:title=" ">
<polygon fill="white" stroke="#bfbfbf" points="1322.5,-504.5 1322.5,-523.5 1401.5,-523.5 1401.5,-504.5 1322.5,-504.5"/>
<text text-anchor="middle" x="1362" y="-511.5" font-family="Helvetica,sans-Serif" font-size="10.00">AH/STL/tuple</text>
</a>
</g>
</g>
<!-- Node26&#45;&gt;Node28 -->
<g id="edge38" class="edge">
<title>Node26&#45;&gt;Node28</title>
<path fill="none" stroke="midnightblue" d="M1331.16,-565.98C1336.45,-557.23 1344.84,-543.37 1351.53,-532.31"/>
<polygon fill="midnightblue" stroke="midnightblue" points="1354.67,-533.88 1356.85,-523.51 1348.68,-530.25 1354.67,-533.88"/>
</g>
<!-- Node31 -->
<g id="node31" class="node">
<title>Node31</title>
<g id="a_node31"><a xlink:href="../../d4/d57/ExtendedIOElement_8hpp.html" target="_top" xlink:title=" ">
<polygon fill="white" stroke="black" points="702,-750.5 702,-769.5 836,-769.5 836,-750.5 702,-750.5"/>
<text text-anchor="middle" x="769" y="-757.5" font-family="Helvetica,sans-Serif" font-size="10.00">ExtendedIOElement.hpp</text>
</a>
</g>
</g>
<!-- Node30&#45;&gt;Node31 -->
<g id="edge44" class="edge">
<title>Node30&#45;&gt;Node31</title>
<path fill="none" stroke="midnightblue" d="M758.98,-806.08C760.57,-798.93 762.86,-788.64 764.85,-779.69"/>
<polygon fill="midnightblue" stroke="midnightblue" points="768.3,-780.27 767.06,-769.75 761.47,-778.75 768.3,-780.27"/>
</g>
<!-- Node37 -->
<g id="node37" class="node">
<title>Node37</title>
<g id="a_node37"><a xlink:href="../../d5/db6/ArrayHelpers_8hpp.html" target="_top" xlink:title=" ">
<polygon fill="white" stroke="black" points="247,-566 247,-585 421,-585 421,-566 247,-566"/>
<text text-anchor="middle" x="334" y="-573" font-family="Helvetica,sans-Serif" font-size="10.00">AH/Containers/ArrayHelpers.hpp</text>
</a>
</g>
</g>
<!-- Node30&#45;&gt;Node37 -->
<g id="edge59" class="edge">
<title>Node30&#45;&gt;Node37</title>
<path fill="none" stroke="midnightblue" d="M741.7,-806.37C678.35,-770.65 436.33,-634.2 358.36,-590.24"/>
<polygon fill="midnightblue" stroke="midnightblue" points="359.71,-586.98 349.28,-585.12 356.28,-593.08 359.71,-586.98"/>
</g>
<!-- Node31&#45;&gt;Node3 -->
<g id="edge45" class="edge">
<title>Node31&#45;&gt;Node3</title>
<path fill="none" stroke="midnightblue" d="M822.56,-750.44C882.63,-740.85 979.99,-725.29 1043.76,-715.1"/>
<polygon fill="midnightblue" stroke="midnightblue" points="1044.37,-718.55 1053.69,-713.52 1043.27,-711.64 1044.37,-718.55"/>
</g>
<!-- Node31&#45;&gt;Node5 -->
<g id="edge58" class="edge">
<title>Node31&#45;&gt;Node5</title>
<path fill="none" stroke="midnightblue" d="M783.21,-750.44C829.13,-722.78 974.39,-635.29 1039.67,-595.97"/>
<polygon fill="midnightblue" stroke="midnightblue" points="1041.57,-598.91 1048.33,-590.75 1037.96,-592.92 1041.57,-598.91"/>
</g>
<!-- Node32 -->
<g id="node32" class="node">
<title>Node32</title>
<g id="a_node32"><a xlink:href="../../d4/d93/Updatable_8hpp.html" target="_top" xlink:title=" ">
<polygon fill="white" stroke="black" points="433.5,-504.5 433.5,-523.5 594.5,-523.5 594.5,-504.5 433.5,-504.5"/>
<text text-anchor="middle" x="514" y="-511.5" font-family="Helvetica,sans-Serif" font-size="10.00">AH/Containers/Updatable.hpp</text>
</a>
</g>
</g>
<!-- Node31&#45;&gt;Node32 -->
<g id="edge46" class="edge">
<title>Node31&#45;&gt;Node32</title>
<path fill="none" stroke="midnightblue" d="M759.92,-750.32C722.43,-714.44 579.32,-577.5 530.46,-530.75"/>
<polygon fill="midnightblue" stroke="midnightblue" points="532.61,-527.96 522.97,-523.58 527.77,-533.02 532.61,-527.96"/>
</g>
<!-- Node32&#45;&gt;Node7 -->
<g id="edge53" class="edge">
<title>Node32&#45;&gt;Node7</title>
<path fill="none" stroke="midnightblue" d="M549.49,-504.44C588.32,-495.08 650.66,-480.06 692.92,-469.87"/>
<polygon fill="midnightblue" stroke="midnightblue" points="693.77,-473.26 702.67,-467.52 692.13,-466.46 693.77,-473.26"/>
</g>
<!-- Node32&#45;&gt;Node16 -->
<g id="edge54" class="edge">
<title>Node32&#45;&gt;Node16</title>
<path fill="none" stroke="midnightblue" d="M543.64,-504.45C569.29,-496.54 607.04,-483.65 638,-468 728.5,-422.25 782,-392.41 782,-291 782,-291 782,-291 782,-233 782,-198.04 801.4,-161.01 814.43,-140.07"/>
<polygon fill="midnightblue" stroke="midnightblue" points="817.39,-141.95 819.88,-131.65 811.51,-138.15 817.39,-141.95"/>
</g>
<!-- Node32&#45;&gt;Node17 -->
<g id="edge56" class="edge">
<title>Node32&#45;&gt;Node17</title>
<path fill="none" stroke="midnightblue" d="M531.52,-504.4C577.95,-481.52 700.95,-420.36 706,-412 716.42,-394.75 700.27,-375.23 685.28,-362.12"/>
<polygon fill="midnightblue" stroke="midnightblue" points="687.2,-359.17 677.25,-355.56 682.77,-364.59 687.2,-359.17"/>
</g>
<!-- Node32&#45;&gt;Node22 -->
<g id="edge57" class="edge">
<title>Node32&#45;&gt;Node22</title>
<path fill="none" stroke="midnightblue" d="M454.5,-504.43C430.29,-498.1 403.85,-487.11 386,-468 365.54,-446.1 368,-432.98 368,-403 368,-403 368,-403 368,-345 368,-311.86 379.7,-274.68 387.7,-253.14"/>
<polygon fill="midnightblue" stroke="midnightblue" points="391.02,-254.25 391.36,-243.66 384.49,-251.73 391.02,-254.25"/>
</g>
<!-- Node33 -->
<g id="node33" class="node">
<title>Node33</title>
<g id="a_node33"><a xlink:href="../../d4/dba/CRTP_8hpp.html" target="_top" xlink:title=" ">
<polygon fill="white" stroke="black" points="104,-448.5 104,-467.5 238,-467.5 238,-448.5 104,-448.5"/>
<text text-anchor="middle" x="171" y="-455.5" font-family="Helvetica,sans-Serif" font-size="10.00">AH/Containers/CRTP.hpp</text>
</a>
</g>
</g>
<!-- Node32&#45;&gt;Node33 -->
<g id="edge47" class="edge">
<title>Node32&#45;&gt;Node33</title>
<path fill="none" stroke="midnightblue" d="M459.65,-504.44C398.69,-494.85 299.89,-479.29 235.18,-469.1"/>
<polygon fill="midnightblue" stroke="midnightblue" points="235.52,-465.61 225.1,-467.52 234.43,-472.53 235.52,-465.61"/>
</g>
<!-- Node34 -->
<g id="node34" class="node">
<title>Node34</title>
<g id="a_node34"><a xlink:href="../../de/dd1/LinkedList_8hpp.html" target="_top" xlink:title=" ">
<polygon fill="white" stroke="black" points="395.5,-448.5 395.5,-467.5 554.5,-467.5 554.5,-448.5 395.5,-448.5"/>
<text text-anchor="middle" x="475" y="-455.5" font-family="Helvetica,sans-Serif" font-size="10.00">AH/Containers/LinkedList.hpp</text>
</a>
</g>
</g>
<!-- Node32&#45;&gt;Node34 -->
<g id="edge48" class="edge">
<title>Node32&#45;&gt;Node34</title>
<path fill="none" stroke="midnightblue" d="M507.56,-504.08C502.05,-496.46 493.97,-485.26 487.24,-475.94"/>
<polygon fill="midnightblue" stroke="midnightblue" points="490.01,-473.81 481.32,-467.75 484.34,-477.91 490.01,-473.81"/>
</g>
<!-- Node36 -->
<g id="node36" class="node">
<title>Node36</title>
<g id="a_node36"><a xlink:title=" ">
<polygon fill="white" stroke="#bfbfbf" points="256.5,-448.5 256.5,-467.5 339.5,-467.5 339.5,-448.5 256.5,-448.5"/>
<text text-anchor="middle" x="298" y="-455.5" font-family="Helvetica,sans-Serif" font-size="10.00">AH/STL/utility</text>
</a>
</g>
</g>
<!-- Node32&#45;&gt;Node36 -->
<g id="edge55" class="edge">
<title>Node32&#45;&gt;Node36</title>
<path fill="none" stroke="midnightblue" d="M479.77,-504.44C442.49,-495.12 382.73,-480.18 341.99,-470"/>
<polygon fill="midnightblue" stroke="midnightblue" points="342.62,-466.55 332.07,-467.52 340.92,-473.34 342.62,-466.55"/>
</g>
<!-- Node34&#45;&gt;Node8 -->
<g id="edge49" class="edge">
<title>Node34&#45;&gt;Node8</title>
<path fill="none" stroke="midnightblue" d="M500.67,-448.44C527.92,-439.36 571.18,-424.94 601.65,-414.78"/>
<polygon fill="midnightblue" stroke="midnightblue" points="603.07,-418 611.45,-411.52 600.86,-411.36 603.07,-418"/>
</g>
<!-- Node34&#45;&gt;Node11 -->
<g id="edge50" class="edge">
<title>Node34&#45;&gt;Node11</title>
<path fill="none" stroke="midnightblue" d="M402.78,-448.47C297.9,-431.46 110.62,-382.12 62,-244 41.03,-184.42 126.94,-150.11 184.86,-134.12"/>
<polygon fill="midnightblue" stroke="midnightblue" points="185.84,-137.48 194.61,-131.53 184.04,-130.72 185.84,-137.48"/>
</g>
<!-- Node34&#45;&gt;Node25 -->
<g id="edge52" class="edge">
<title>Node34&#45;&gt;Node25</title>
<path fill="none" stroke="midnightblue" d="M481.27,-448.08C486.64,-440.46 494.52,-429.26 501.08,-419.94"/>
<polygon fill="midnightblue" stroke="midnightblue" points="503.95,-421.94 506.84,-411.75 498.22,-417.91 503.95,-421.94"/>
</g>
<!-- Node35 -->
<g id="node35" class="node">
<title>Node35</title>
<g id="a_node35"><a xlink:title=" ">
<polygon fill="white" stroke="#bfbfbf" points="396.5,-392.5 396.5,-411.5 449.5,-411.5 449.5,-392.5 396.5,-392.5"/>
<text text-anchor="middle" x="423" y="-399.5" font-family="Helvetica,sans-Serif" font-size="10.00">stdlib.h</text>
</a>
</g>
</g>
<!-- Node34&#45;&gt;Node35 -->
<g id="edge51" class="edge">
<title>Node34&#45;&gt;Node35</title>
<path fill="none" stroke="midnightblue" d="M466.41,-448.08C458.84,-440.22 447.62,-428.57 438.49,-419.08"/>
<polygon fill="midnightblue" stroke="midnightblue" points="440.88,-416.53 431.43,-411.75 435.84,-421.38 440.88,-416.53"/>
</g>
<!-- Node37&#45;&gt;Node6 -->
<g id="edge60" class="edge">
<title>Node37&#45;&gt;Node6</title>
<path fill="none" stroke="midnightblue" d="M389.02,-565.98C458.74,-555.17 578.74,-536.58 652.93,-525.08"/>
<polygon fill="midnightblue" stroke="midnightblue" points="653.74,-528.5 663.08,-523.51 652.67,-521.58 653.74,-528.5"/>
</g>
<!-- Node37&#45;&gt;Node9 -->
<g id="edge62" class="edge">
<title>Node37&#45;&gt;Node9</title>
<path fill="none" stroke="midnightblue" d="M314.54,-565.81C284.73,-552.49 225.94,-526.24 176,-504 140.01,-487.97 116.47,-501.03 95,-468 61.49,-416.43 152.51,-377.14 208.25,-358.65"/>
<polygon fill="midnightblue" stroke="midnightblue" points="209.43,-361.95 217.87,-355.55 207.28,-355.29 209.43,-361.95"/>
</g>
<!-- Node38 -->
<g id="node38" class="node">
<title>Node38</title>
<g id="a_node38"><a xlink:title=" ">
<polygon fill="white" stroke="#bfbfbf" points="66.5,-504.5 66.5,-523.5 167.5,-523.5 167.5,-504.5 66.5,-504.5"/>
<text text-anchor="middle" x="117" y="-511.5" font-family="Helvetica,sans-Serif" font-size="10.00">AH/STL/algorithm</text>
</a>
</g>
</g>
<!-- Node37&#45;&gt;Node38 -->
<g id="edge61" class="edge">
<title>Node37&#45;&gt;Node38</title>
<path fill="none" stroke="midnightblue" d="M302.91,-565.98C264.72,-555.5 199.83,-537.71 157.7,-526.16"/>
<polygon fill="midnightblue" stroke="midnightblue" points="158.6,-522.78 148.03,-523.51 156.75,-529.53 158.6,-522.78"/>
</g>
<!-- Node39&#45;&gt;Node7 -->
<g id="edge64" class="edge">
<title>Node39&#45;&gt;Node7</title>
<path fill="none" stroke="midnightblue" d="M855.82,-504.44C832.57,-495.48 795.85,-481.31 769.58,-471.18"/>
<polygon fill="midnightblue" stroke="midnightblue" points="770.67,-467.85 760.08,-467.52 768.15,-474.38 770.67,-467.85"/>
</g>
<!-- Node39&#45;&gt;Node15 -->
<g id="edge65" class="edge">
<title>Node39&#45;&gt;Node15</title>
<path fill="none" stroke="midnightblue" d="M915.79,-504.49C981.53,-487.2 1110,-441.35 1110,-347 1110,-347 1110,-347 1110,-177 1110,-120.54 948.25,-90.53 839.8,-76.76"/>
<polygon fill="midnightblue" stroke="midnightblue" points="840.17,-73.28 829.81,-75.52 839.3,-80.23 840.17,-73.28"/>
</g>
<!-- Node39&#45;&gt;Node23 -->
<g id="edge66" class="edge">
<title>Node39&#45;&gt;Node23</title>
<path fill="none" stroke="midnightblue" d="M879.33,-504.38C885.32,-465.7 909.74,-307.79 918.14,-253.47"/>
<polygon fill="midnightblue" stroke="midnightblue" points="921.61,-253.94 919.68,-243.52 914.69,-252.87 921.61,-253.94"/>
</g>
<!-- Node40&#45;&gt;Node2 -->
<g id="edge69" class="edge">
<title>Node40&#45;&gt;Node2</title>
<path fill="none" stroke="midnightblue" d="M975.21,-825.75C974.34,-833.09 971.19,-843.82 967.41,-852.98"/>
<polygon fill="midnightblue" stroke="midnightblue" points="964.22,-851.54 963.14,-862.08 970.56,-854.52 964.22,-851.54"/>
</g>
<!-- Node40&#45;&gt;Node3 -->
<g id="edge68" class="edge">
<title>Node40&#45;&gt;Node3</title>
<path fill="none" stroke="midnightblue" d="M983.51,-806.37C1006.22,-787.73 1060.06,-743.53 1088.56,-720.13"/>
<polygon fill="midnightblue" stroke="midnightblue" points="1091.03,-722.64 1096.53,-713.59 1086.58,-717.23 1091.03,-722.64"/>
</g>
<!-- Node41 -->
<g id="node41" class="node">
<title>Node41</title>
<g id="a_node41"><a xlink:href="../../d1/d1f/ShiftRegisterOutRGB_8hpp.html" target="_top" xlink:title=" ">
<polygon fill="white" stroke="black" points="906,-392.5 906,-411.5 1044,-411.5 1044,-392.5 906,-392.5"/>
<text text-anchor="middle" x="975" y="-399.5" font-family="Helvetica,sans-Serif" font-size="10.00">ShiftRegisterOutRGB.hpp</text>
</a>
</g>
</g>
<!-- Node40&#45;&gt;Node41 -->
<g id="edge70" class="edge">
<title>Node40&#45;&gt;Node41</title>
<path fill="none" stroke="midnightblue" d="M973.04,-806.39C973.29,-755.6 974.55,-494.73 974.91,-421.9"/>
<polygon fill="midnightblue" stroke="midnightblue" points="978.41,-421.57 974.96,-411.56 971.41,-421.54 978.41,-421.57"/>
</g>
<!-- Node41&#45;&gt;Node17 -->
<g id="edge71" class="edge">
<title>Node41&#45;&gt;Node17</title>
<path fill="none" stroke="midnightblue" d="M925.88,-392.44C871.12,-382.9 782.59,-367.48 724.09,-357.29"/>
<polygon fill="midnightblue" stroke="midnightblue" points="724.34,-353.78 713.89,-355.52 723.14,-360.68 724.34,-353.78"/>
</g>
<!-- Node41&#45;&gt;Node23 -->
<g id="edge72" class="edge">
<title>Node41&#45;&gt;Node23</title>
<path fill="none" stroke="midnightblue" d="M972.1,-392.08C963.56,-365.83 938.42,-288.55 926.89,-253.12"/>
<polygon fill="midnightblue" stroke="midnightblue" points="930.21,-251.99 923.79,-243.57 923.55,-254.16 930.21,-251.99"/>
</g>
<!-- Node43&#45;&gt;Node1 -->
<g id="edge77" class="edge">
<title>Node43&#45;&gt;Node1</title>
<path fill="none" stroke="midnightblue" d="M1113.13,-881.75C1114.66,-888.86 1115.1,-899.14 1114.47,-908.1"/>
<polygon fill="midnightblue" stroke="midnightblue" points="1110.99,-907.71 1113.17,-918.08 1117.93,-908.62 1110.99,-907.71"/>
</g>
<!-- Node43&#45;&gt;Node3 -->
<g id="edge76" class="edge">
<title>Node43&#45;&gt;Node3</title>
<path fill="none" stroke="midnightblue" d="M1107.95,-862.08C1107.79,-835.95 1107.33,-759.21 1107.11,-723.58"/>
<polygon fill="midnightblue" stroke="midnightblue" points="1110.61,-723.55 1107.05,-713.57 1103.61,-723.59 1110.61,-723.55"/>
</g>
<!-- Node43&#45;&gt;Node42 -->
<g id="edge78" class="edge">
<title>Node43&#45;&gt;Node42</title>
<path fill="none" stroke="midnightblue" d="M1119.41,-862.32C1130.11,-854.18 1146.34,-841.84 1159.16,-832.09"/>
<polygon fill="midnightblue" stroke="midnightblue" points="1161.54,-834.67 1167.39,-825.83 1157.31,-829.1 1161.54,-834.67"/>
</g>
</g>
</svg>
