<?xml version="1.0" encoding="UTF-8" standalone="no"?>
<!DOCTYPE svg PUBLIC "-//W3C//DTD SVG 1.1//EN"
 "http://www.w3.org/Graphics/SVG/1.1/DTD/svg11.dtd">
<!-- Generated by graphviz version 2.43.0 (0)
 -->
<!-- Title: AnalogMultiplex.hpp Pages: 1 -->
<svg width="1730pt" height="890pt"
 viewBox="0.00 0.00 1729.50 890.00" xmlns="http://www.w3.org/2000/svg" xmlns:xlink="http://www.w3.org/1999/xlink">
<g id="graph0" class="graph" transform="scale(1 1) rotate(0) translate(4 886)">
<title>AnalogMultiplex.hpp</title>
<polygon fill="white" stroke="transparent" points="-4,4 -4,-886 1725.5,-886 1725.5,4 -4,4"/>
<!-- Node1 -->
<g id="node1" class="node">
<title>Node1</title>
<g id="a_node1"><a xlink:title=" ">
<polygon fill="#bfbfbf" stroke="black" points="1395,-862.5 1395,-881.5 1512,-881.5 1512,-862.5 1395,-862.5"/>
<text text-anchor="middle" x="1453.5" y="-869.5" font-family="Helvetica,sans-Serif" font-size="10.00">AnalogMultiplex.hpp</text>
</a>
</g>
</g>
<!-- Node2 -->
<g id="node2" class="node">
<title>Node2</title>
<g id="a_node2"><a xlink:href="../../d1/d65/Warnings_8hpp.html" target="_top" xlink:title=" ">
<polygon fill="white" stroke="black" points="921,-0.5 921,-19.5 1064,-19.5 1064,-0.5 921,-0.5"/>
<text text-anchor="middle" x="992.5" y="-7.5" font-family="Helvetica,sans-Serif" font-size="10.00">AH/Settings/Warnings.hpp</text>
</a>
</g>
</g>
<!-- Node1&#45;&gt;Node2 -->
<g id="edge1" class="edge">
<title>Node1&#45;&gt;Node2</title>
<path fill="none" stroke="midnightblue" d="M1512.31,-871.54C1591.2,-868.84 1721.5,-850.78 1721.5,-761 1721.5,-761 1721.5,-761 1721.5,-121 1721.5,-77.56 1688.55,-72.84 1648.5,-56 1547.11,-13.37 1226.67,-9.42 1074.4,-10.07"/>
<polygon fill="midnightblue" stroke="midnightblue" points="1074.15,-6.58 1064.17,-10.13 1074.19,-13.58 1074.15,-6.58"/>
</g>
<!-- Node3 -->
<g id="node3" class="node">
<title>Node3</title>
<g id="a_node3"><a xlink:href="../../dd/ddf/ExtendedInputOutput_8hpp.html" target="_top" xlink:title=" ">
<polygon fill="white" stroke="black" points="471,-694.5 471,-713.5 612,-713.5 612,-694.5 471,-694.5"/>
<text text-anchor="middle" x="541.5" y="-701.5" font-family="Helvetica,sans-Serif" font-size="10.00">ExtendedInputOutput.hpp</text>
</a>
</g>
</g>
<!-- Node1&#45;&gt;Node3 -->
<g id="edge2" class="edge">
<title>Node1&#45;&gt;Node3</title>
<path fill="none" stroke="midnightblue" d="M1394.88,-867.99C1309.08,-862.93 1144.5,-850.75 1006.5,-826 844.63,-796.97 656.3,-740.89 578.26,-716.64"/>
<polygon fill="midnightblue" stroke="midnightblue" points="579.02,-713.21 568.43,-713.57 576.93,-719.89 579.02,-713.21"/>
</g>
<!-- Node6 -->
<g id="node6" class="node">
<title>Node6</title>
<g id="a_node6"><a xlink:href="../../de/d76/Array_8hpp.html" target="_top" xlink:title=" ">
<polygon fill="white" stroke="black" points="700,-504.5 700,-523.5 835,-523.5 835,-504.5 700,-504.5"/>
<text text-anchor="middle" x="767.5" y="-511.5" font-family="Helvetica,sans-Serif" font-size="10.00">AH/Containers/Array.hpp</text>
</a>
</g>
</g>
<!-- Node1&#45;&gt;Node6 -->
<g id="edge81" class="edge">
<title>Node1&#45;&gt;Node6</title>
<path fill="none" stroke="midnightblue" d="M1394.65,-868.31C1276.26,-861.29 1020.5,-837.3 1020.5,-761 1020.5,-761 1020.5,-761 1020.5,-641.5 1020.5,-562.24 919.92,-532.64 845.6,-521.58"/>
<polygon fill="midnightblue" stroke="midnightblue" points="845.69,-518.06 835.3,-520.14 844.72,-524.99 845.69,-518.06"/>
</g>
<!-- Node30 -->
<g id="node30" class="node">
<title>Node30</title>
<g id="a_node30"><a xlink:href="../../d2/d05/StaticSizeExtendedIOElement_8hpp.html" target="_top" xlink:title=" ">
<polygon fill="white" stroke="black" points="1481.5,-806.5 1481.5,-825.5 1663.5,-825.5 1663.5,-806.5 1481.5,-806.5"/>
<text text-anchor="middle" x="1572.5" y="-813.5" font-family="Helvetica,sans-Serif" font-size="10.00">StaticSizeExtendedIOElement.hpp</text>
</a>
</g>
</g>
<!-- Node1&#45;&gt;Node30 -->
<g id="edge56" class="edge">
<title>Node1&#45;&gt;Node30</title>
<path fill="none" stroke="midnightblue" d="M1472.36,-862.44C1491.77,-853.64 1522.23,-839.81 1544.46,-829.72"/>
<polygon fill="midnightblue" stroke="midnightblue" points="1546.07,-832.84 1553.73,-825.52 1543.18,-826.46 1546.07,-832.84"/>
</g>
<!-- Node35 -->
<g id="node35" class="node">
<title>Node35</title>
<g id="a_node35"><a xlink:title=" ">
<polygon fill="white" stroke="#bfbfbf" points="1408,-392.5 1408,-411.5 1461,-411.5 1461,-392.5 1408,-392.5"/>
<text text-anchor="middle" x="1434.5" y="-399.5" font-family="Helvetica,sans-Serif" font-size="10.00">stdlib.h</text>
</a>
</g>
</g>
<!-- Node1&#45;&gt;Node35 -->
<g id="edge82" class="edge">
<title>Node1&#45;&gt;Node35</title>
<path fill="none" stroke="midnightblue" d="M1453.5,-862.44C1453.5,-843.94 1453.5,-798.81 1453.5,-761 1453.5,-761 1453.5,-761 1453.5,-641.5 1453.5,-555.17 1499.08,-529.46 1470.5,-448 1466.71,-437.21 1459.13,-427.08 1451.9,-419.18"/>
<polygon fill="midnightblue" stroke="midnightblue" points="1454.17,-416.49 1444.66,-411.81 1449.17,-421.4 1454.17,-416.49"/>
</g>
<!-- Node3&#45;&gt;Node2 -->
<g id="edge55" class="edge">
<title>Node3&#45;&gt;Node2</title>
<path fill="none" stroke="midnightblue" d="M470.68,-701.55C385.4,-695.6 253.5,-671.11 253.5,-576.5 253.5,-576.5 253.5,-576.5 253.5,-401 253.5,-296.71 329.5,-283.29 329.5,-179 329.5,-179 329.5,-179 329.5,-121 329.5,-67.62 379.93,-73.09 430.5,-56 517.15,-26.72 776.78,-16.21 910.67,-12.67"/>
<polygon fill="midnightblue" stroke="midnightblue" points="910.96,-16.16 920.87,-12.4 910.78,-9.16 910.96,-16.16"/>
</g>
<!-- Node4 -->
<g id="node4" class="node">
<title>Node4</title>
<g id="a_node4"><a xlink:href="../../d2/d3c/Arduino-Hardware-Types_8hpp.html" target="_top" xlink:title=" ">
<polygon fill="white" stroke="black" points="370.5,-627.5 370.5,-657.5 492.5,-657.5 492.5,-627.5 370.5,-627.5"/>
<text text-anchor="start" x="378.5" y="-645.5" font-family="Helvetica,sans-Serif" font-size="10.00">AH/Hardware/Arduino</text>
<text text-anchor="middle" x="431.5" y="-634.5" font-family="Helvetica,sans-Serif" font-size="10.00">&#45;Hardware&#45;Types.hpp</text>
</a>
</g>
</g>
<!-- Node3&#45;&gt;Node4 -->
<g id="edge3" class="edge">
<title>Node3&#45;&gt;Node4</title>
<path fill="none" stroke="midnightblue" d="M525.74,-694.48C510.28,-686.12 486.2,-673.09 466.25,-662.3"/>
<polygon fill="midnightblue" stroke="midnightblue" points="467.89,-659.2 457.42,-657.52 464.56,-665.36 467.89,-659.2"/>
</g>
<!-- Node10 -->
<g id="node10" class="node">
<title>Node10</title>
<g id="a_node10"><a xlink:href="../../dc/dc7/NamespaceSettings_8hpp.html" target="_top" xlink:title=" ">
<polygon fill="white" stroke="black" points="505,-56.5 505,-75.5 700,-75.5 700,-56.5 505,-56.5"/>
<text text-anchor="middle" x="602.5" y="-63.5" font-family="Helvetica,sans-Serif" font-size="10.00">AH/Settings/NamespaceSettings.hpp</text>
</a>
</g>
</g>
<!-- Node3&#45;&gt;Node10 -->
<g id="edge54" class="edge">
<title>Node3&#45;&gt;Node10</title>
<path fill="none" stroke="midnightblue" d="M470.77,-700.41C434.33,-695.65 391.39,-684.26 361.5,-658 332.26,-632.32 329.5,-615.41 329.5,-576.5 329.5,-576.5 329.5,-576.5 329.5,-401 329.5,-247.53 405.34,-215.68 518.5,-112 533.49,-98.27 553.44,-87.35 570.14,-79.71"/>
<polygon fill="midnightblue" stroke="midnightblue" points="571.78,-82.81 579.54,-75.59 568.97,-76.4 571.78,-82.81"/>
</g>
<!-- Node29 -->
<g id="node29" class="node">
<title>Node29</title>
<g id="a_node29"><a xlink:title=" ">
<polygon fill="white" stroke="#bfbfbf" points="511,-633 511,-652 598,-652 598,-633 511,-633"/>
<text text-anchor="middle" x="554.5" y="-640" font-family="Helvetica,sans-Serif" font-size="10.00">AH/STL/climits</text>
</a>
</g>
</g>
<!-- Node3&#45;&gt;Node29 -->
<g id="edge53" class="edge">
<title>Node3&#45;&gt;Node29</title>
<path fill="none" stroke="midnightblue" d="M543.36,-694.48C545.22,-685.99 548.12,-672.7 550.5,-661.82"/>
<polygon fill="midnightblue" stroke="midnightblue" points="553.93,-662.53 552.64,-652.01 547.09,-661.03 553.93,-662.53"/>
</g>
<!-- Node4&#45;&gt;Node2 -->
<g id="edge4" class="edge">
<title>Node4&#45;&gt;Node2</title>
<path fill="none" stroke="midnightblue" d="M418.86,-627.5C400.2,-605.33 367.5,-560.04 367.5,-515 367.5,-515 367.5,-515 367.5,-401 367.5,-296.71 291.5,-283.29 291.5,-179 291.5,-179 291.5,-179 291.5,-121 291.5,-90.2 290.83,-74.43 315.5,-56 362.17,-21.13 741.01,-13.28 910.76,-11.51"/>
<polygon fill="midnightblue" stroke="midnightblue" points="910.93,-15.01 920.9,-11.41 910.86,-8.01 910.93,-15.01"/>
</g>
<!-- Node5 -->
<g id="node5" class="node">
<title>Node5</title>
<g id="a_node5"><a xlink:href="../../d4/d35/Hardware-Types_8hpp.html" target="_top" xlink:title=" ">
<polygon fill="white" stroke="black" points="533,-560.5 533,-590.5 664,-590.5 664,-560.5 533,-560.5"/>
<text text-anchor="start" x="541" y="-578.5" font-family="Helvetica,sans-Serif" font-size="10.00">AH/Hardware/Hardware</text>
<text text-anchor="middle" x="598.5" y="-567.5" font-family="Helvetica,sans-Serif" font-size="10.00">&#45;Types.hpp</text>
</a>
</g>
</g>
<!-- Node4&#45;&gt;Node5 -->
<g id="edge5" class="edge">
<title>Node4&#45;&gt;Node5</title>
<path fill="none" stroke="midnightblue" d="M467.74,-627.4C492.68,-617.69 526.03,-604.71 552.8,-594.29"/>
<polygon fill="midnightblue" stroke="midnightblue" points="554.28,-597.47 562.33,-590.58 551.75,-590.94 554.28,-597.47"/>
</g>
<!-- Node11 -->
<g id="node11" class="node">
<title>Node11</title>
<g id="a_node11"><a xlink:href="../../d6/ddf/Arduino-Wrapper_8h.html" target="_top" xlink:title=" ">
<polygon fill="white" stroke="black" points="623.5,-168.5 623.5,-187.5 747.5,-187.5 747.5,-168.5 623.5,-168.5"/>
<text text-anchor="middle" x="685.5" y="-175.5" font-family="Helvetica,sans-Serif" font-size="10.00">AH/Arduino&#45;Wrapper.h</text>
</a>
</g>
</g>
<!-- Node4&#45;&gt;Node11 -->
<g id="edge52" class="edge">
<title>Node4&#45;&gt;Node11</title>
<path fill="none" stroke="midnightblue" d="M433.76,-627.12C437.23,-603.7 443.5,-555.81 443.5,-515 443.5,-515 443.5,-515 443.5,-457 443.5,-326.14 597.93,-226.95 660.06,-192.34"/>
<polygon fill="midnightblue" stroke="midnightblue" points="661.77,-195.39 668.87,-187.52 658.41,-189.25 661.77,-195.39"/>
</g>
<!-- Node26 -->
<g id="node26" class="node">
<title>Node26</title>
<g id="a_node26"><a xlink:href="../../d0/db1/FunctionTraits_8hpp.html" target="_top" xlink:title=" ">
<polygon fill="white" stroke="black" points="110,-112.5 110,-131.5 263,-131.5 263,-112.5 110,-112.5"/>
<text text-anchor="middle" x="186.5" y="-119.5" font-family="Helvetica,sans-Serif" font-size="10.00">AH/Types/FunctionTraits.hpp</text>
</a>
</g>
</g>
<!-- Node4&#45;&gt;Node26 -->
<g id="edge47" class="edge">
<title>Node4&#45;&gt;Node26</title>
<path fill="none" stroke="midnightblue" d="M395.45,-627.45C353.97,-608.64 291.5,-571.02 291.5,-515 291.5,-515 291.5,-515 291.5,-401 291.5,-296.18 225.36,-182.63 198.07,-140.24"/>
<polygon fill="midnightblue" stroke="midnightblue" points="200.86,-138.11 192.45,-131.66 195,-141.94 200.86,-138.11"/>
</g>
<!-- Node5&#45;&gt;Node2 -->
<g id="edge6" class="edge">
<title>Node5&#45;&gt;Node2</title>
<path fill="none" stroke="midnightblue" d="M532.89,-563.22C476.94,-549.39 405.5,-519.82 405.5,-459 405.5,-459 405.5,-459 405.5,-289 405.5,-182.7 369.89,-113.18 459.5,-56 496.57,-32.35 770.49,-19.06 910.54,-13.75"/>
<polygon fill="midnightblue" stroke="midnightblue" points="910.94,-17.24 920.8,-13.37 910.67,-10.24 910.94,-17.24"/>
</g>
<!-- Node5&#45;&gt;Node6 -->
<g id="edge7" class="edge">
<title>Node5&#45;&gt;Node6</title>
<path fill="none" stroke="midnightblue" d="M638.55,-560.4C667.41,-550.24 705.95,-536.67 733.35,-527.02"/>
<polygon fill="midnightblue" stroke="midnightblue" points="734.64,-530.28 742.91,-523.66 732.31,-523.68 734.64,-530.28"/>
</g>
<!-- Node9 -->
<g id="node9" class="node">
<title>Node9</title>
<g id="a_node9"><a xlink:href="../../dd/d80/PrintStream_8hpp.html" target="_top" xlink:title=" ">
<polygon fill="white" stroke="black" points="662,-336.5 662,-355.5 835,-355.5 835,-336.5 662,-336.5"/>
<text text-anchor="middle" x="748.5" y="-343.5" font-family="Helvetica,sans-Serif" font-size="10.00">AH/PrintStream/PrintStream.hpp</text>
</a>
</g>
</g>
<!-- Node5&#45;&gt;Node9 -->
<g id="edge43" class="edge">
<title>Node5&#45;&gt;Node9</title>
<path fill="none" stroke="midnightblue" d="M603.34,-560.28C615,-527.57 647.32,-445.67 695.5,-392 705.33,-381.05 717.81,-370.33 728.19,-362.1"/>
<polygon fill="midnightblue" stroke="midnightblue" points="730.54,-364.71 736.31,-355.82 726.26,-359.17 730.54,-364.71"/>
</g>
<!-- Node5&#45;&gt;Node10 -->
<g id="edge45" class="edge">
<title>Node5&#45;&gt;Node10</title>
<path fill="none" stroke="midnightblue" d="M560.39,-560.47C543.67,-552.37 525.4,-540.46 514.5,-524 456.74,-436.81 481.5,-395.59 481.5,-291 481.5,-291 481.5,-291 481.5,-233 481.5,-173.55 500.24,-157.5 538.5,-112 549.12,-99.37 564.08,-88.59 576.86,-80.75"/>
<polygon fill="midnightblue" stroke="midnightblue" points="578.83,-83.65 585.69,-75.58 575.3,-77.61 578.83,-83.65"/>
</g>
<!-- Node22 -->
<g id="node22" class="node">
<title>Node22</title>
<g id="a_node22"><a xlink:title=" ">
<polygon fill="white" stroke="#bfbfbf" points="892,-224.5 892,-243.5 945,-243.5 945,-224.5 892,-224.5"/>
<text text-anchor="middle" x="918.5" y="-231.5" font-family="Helvetica,sans-Serif" font-size="10.00">stdint.h</text>
</a>
</g>
</g>
<!-- Node5&#45;&gt;Node22 -->
<g id="edge46" class="edge">
<title>Node5&#45;&gt;Node22</title>
<path fill="none" stroke="midnightblue" d="M611.15,-560.11C640.02,-527.74 713.86,-447.67 785.5,-392 809.76,-373.15 822.77,-377.71 844.5,-356 875.6,-324.94 899.3,-278.36 910.81,-253.01"/>
<polygon fill="midnightblue" stroke="midnightblue" points="914.15,-254.12 914.98,-243.55 907.74,-251.29 914.15,-254.12"/>
</g>
<!-- Node25 -->
<g id="node25" class="node">
<title>Node25</title>
<g id="a_node25"><a xlink:title=" ">
<polygon fill="white" stroke="#bfbfbf" points="523.5,-504.5 523.5,-523.5 605.5,-523.5 605.5,-504.5 523.5,-504.5"/>
<text text-anchor="middle" x="564.5" y="-511.5" font-family="Helvetica,sans-Serif" font-size="10.00">AH/STL/limits</text>
</a>
</g>
</g>
<!-- Node5&#45;&gt;Node25 -->
<g id="edge44" class="edge">
<title>Node5&#45;&gt;Node25</title>
<path fill="none" stroke="midnightblue" d="M590.44,-560.4C585.65,-552.02 579.54,-541.33 574.46,-532.42"/>
<polygon fill="midnightblue" stroke="midnightblue" points="577.45,-530.6 569.45,-523.66 571.37,-534.08 577.45,-530.6"/>
</g>
<!-- Node6&#45;&gt;Node2 -->
<g id="edge8" class="edge">
<title>Node6&#45;&gt;Node2</title>
<path fill="none" stroke="midnightblue" d="M735.89,-504.42C691.48,-491.02 610.16,-461.41 557.5,-412 439.38,-301.17 365.9,-171.46 479.5,-56 509.07,-25.94 773.65,-15.75 910.81,-12.46"/>
<polygon fill="midnightblue" stroke="midnightblue" points="910.95,-15.96 920.86,-12.23 910.78,-8.96 910.95,-15.96"/>
</g>
<!-- Node7 -->
<g id="node7" class="node">
<title>Node7</title>
<g id="a_node7"><a xlink:href="../../d1/d93/Error_8hpp.html" target="_top" xlink:title=" ">
<polygon fill="white" stroke="black" points="851.5,-448.5 851.5,-467.5 955.5,-467.5 955.5,-448.5 851.5,-448.5"/>
<text text-anchor="middle" x="903.5" y="-455.5" font-family="Helvetica,sans-Serif" font-size="10.00">AH/Error/Error.hpp</text>
</a>
</g>
</g>
<!-- Node6&#45;&gt;Node7 -->
<g id="edge9" class="edge">
<title>Node6&#45;&gt;Node7</title>
<path fill="none" stroke="midnightblue" d="M789.05,-504.44C811.53,-495.52 846.99,-481.44 872.48,-471.32"/>
<polygon fill="midnightblue" stroke="midnightblue" points="874.05,-474.46 882.05,-467.52 871.47,-467.95 874.05,-474.46"/>
</g>
<!-- Node15 -->
<g id="node15" class="node">
<title>Node15</title>
<g id="a_node15"><a xlink:title=" ">
<polygon fill="white" stroke="#bfbfbf" points="548,-112.5 548,-131.5 655,-131.5 655,-112.5 548,-112.5"/>
<text text-anchor="middle" x="601.5" y="-119.5" font-family="Helvetica,sans-Serif" font-size="10.00">AH/STL/type_traits</text>
</a>
</g>
</g>
<!-- Node6&#45;&gt;Node15 -->
<g id="edge41" class="edge">
<title>Node6&#45;&gt;Node15</title>
<path fill="none" stroke="midnightblue" d="M751.73,-504.47C706.98,-480.26 582.39,-412.81 581.5,-412 536.72,-371.43 519.5,-351.43 519.5,-291 519.5,-291 519.5,-291 519.5,-233 519.5,-192.27 556.09,-156.87 580.38,-137.86"/>
<polygon fill="midnightblue" stroke="midnightblue" points="582.8,-140.42 588.69,-131.61 578.59,-134.82 582.8,-140.42"/>
</g>
<!-- Node21 -->
<g id="node21" class="node">
<title>Node21</title>
<g id="a_node21"><a xlink:title=" ">
<polygon fill="white" stroke="#bfbfbf" points="1286.5,-224.5 1286.5,-243.5 1342.5,-243.5 1342.5,-224.5 1286.5,-224.5"/>
<text text-anchor="middle" x="1314.5" y="-231.5" font-family="Helvetica,sans-Serif" font-size="10.00">stddef.h</text>
</a>
</g>
</g>
<!-- Node6&#45;&gt;Node21 -->
<g id="edge42" class="edge">
<title>Node6&#45;&gt;Node21</title>
<path fill="none" stroke="midnightblue" d="M767.57,-504.34C768.23,-482.42 773.01,-424.19 804.5,-392 827.33,-368.67 1053.39,-312.6 1083.5,-300 1101.47,-292.48 1104.21,-286.7 1122.5,-280 1185.93,-256.77 1206.82,-260 1276.12,-244.26"/>
<polygon fill="midnightblue" stroke="midnightblue" points="1277.28,-247.58 1286.23,-241.91 1275.69,-240.77 1277.28,-247.58"/>
</g>
<!-- Node24 -->
<g id="node24" class="node">
<title>Node24</title>
<g id="a_node24"><a xlink:title=" ">
<polygon fill="white" stroke="#bfbfbf" points="813.5,-392.5 813.5,-411.5 903.5,-411.5 903.5,-392.5 813.5,-392.5"/>
<text text-anchor="middle" x="858.5" y="-399.5" font-family="Helvetica,sans-Serif" font-size="10.00">AH/STL/iterator</text>
</a>
</g>
</g>
<!-- Node6&#45;&gt;Node24 -->
<g id="edge40" class="edge">
<title>Node6&#45;&gt;Node24</title>
<path fill="none" stroke="midnightblue" d="M774.64,-504.37C789.79,-486.05 825.37,-443.05 844.96,-419.36"/>
<polygon fill="midnightblue" stroke="midnightblue" points="847.72,-421.53 851.39,-411.59 842.32,-417.07 847.72,-421.53"/>
</g>
<!-- Node7&#45;&gt;Node2 -->
<g id="edge10" class="edge">
<title>Node7&#45;&gt;Node2</title>
<path fill="none" stroke="midnightblue" d="M851.33,-455.18C754.67,-448.71 557.5,-419.75 557.5,-291 557.5,-291 557.5,-291 557.5,-233 557.5,-149.65 439.28,-117.54 495.5,-56 522.89,-26.02 776.74,-15.82 910.65,-12.5"/>
<polygon fill="midnightblue" stroke="midnightblue" points="910.96,-16 920.87,-12.26 910.79,-9 910.96,-16"/>
</g>
<!-- Node8 -->
<g id="node8" class="node">
<title>Node8</title>
<g id="a_node8"><a xlink:href="../../df/dee/Debug_8hpp.html" target="_top" xlink:title=" ">
<polygon fill="white" stroke="black" points="995,-392.5 995,-411.5 1116,-411.5 1116,-392.5 995,-392.5"/>
<text text-anchor="middle" x="1055.5" y="-399.5" font-family="Helvetica,sans-Serif" font-size="10.00">AH/Debug/Debug.hpp</text>
</a>
</g>
</g>
<!-- Node7&#45;&gt;Node8 -->
<g id="edge11" class="edge">
<title>Node7&#45;&gt;Node8</title>
<path fill="none" stroke="midnightblue" d="M927.58,-448.44C953.04,-439.4 993.39,-425.06 1021.96,-414.92"/>
<polygon fill="midnightblue" stroke="midnightblue" points="1023.28,-418.16 1031.53,-411.52 1020.93,-411.57 1023.28,-418.16"/>
</g>
<!-- Node8&#45;&gt;Node2 -->
<g id="edge12" class="edge">
<title>Node8&#45;&gt;Node2</title>
<path fill="none" stroke="midnightblue" d="M1038.88,-392.46C1002.09,-372.48 914.61,-318.64 883.5,-244 880.08,-235.8 880.69,-232.43 883.5,-224 887.54,-211.88 945.94,-142.97 952.5,-132 966.59,-108.45 969.78,-102.02 978.5,-76 983.61,-60.76 987.3,-42.87 989.61,-29.73"/>
<polygon fill="midnightblue" stroke="midnightblue" points="993.11,-30.01 991.28,-19.58 986.2,-28.87 993.11,-30.01"/>
</g>
<!-- Node8&#45;&gt;Node9 -->
<g id="edge13" class="edge">
<title>Node8&#45;&gt;Node9</title>
<path fill="none" stroke="midnightblue" d="M1006.85,-392.44C952.63,-382.9 864.95,-367.48 807.02,-357.29"/>
<polygon fill="midnightblue" stroke="midnightblue" points="807.37,-353.8 796.92,-355.52 806.16,-360.7 807.37,-353.8"/>
</g>
<!-- Node16 -->
<g id="node16" class="node">
<title>Node16</title>
<g id="a_node16"><a xlink:href="../../d2/dd5/SettingsWrapper_8hpp.html" target="_top" xlink:title=" ">
<polygon fill="white" stroke="black" points="1005.5,-336.5 1005.5,-355.5 1183.5,-355.5 1183.5,-336.5 1005.5,-336.5"/>
<text text-anchor="middle" x="1094.5" y="-343.5" font-family="Helvetica,sans-Serif" font-size="10.00">AH/Settings/SettingsWrapper.hpp</text>
</a>
</g>
</g>
<!-- Node8&#45;&gt;Node16 -->
<g id="edge25" class="edge">
<title>Node8&#45;&gt;Node16</title>
<path fill="none" stroke="midnightblue" d="M1056.77,-392.08C1060.75,-384.3 1068.69,-372.8 1076.42,-363.37"/>
<polygon fill="midnightblue" stroke="midnightblue" points="1079.12,-365.59 1083.05,-355.75 1073.84,-360.99 1079.12,-365.59"/>
</g>
<!-- Node9&#45;&gt;Node2 -->
<g id="edge15" class="edge">
<title>Node9&#45;&gt;Node2</title>
<path fill="none" stroke="midnightblue" d="M755.49,-336.4C771.75,-316.44 813.45,-265.54 849.5,-224 885.6,-182.41 901.53,-177.54 932.5,-132 955.7,-97.88 975.35,-53.5 985.38,-29.08"/>
<polygon fill="midnightblue" stroke="midnightblue" points="988.68,-30.24 989.17,-19.65 982.19,-27.62 988.68,-30.24"/>
</g>
<!-- Node9&#45;&gt;Node10 -->
<g id="edge14" class="edge">
<title>Node9&#45;&gt;Node10</title>
<path fill="none" stroke="midnightblue" d="M751.67,-336.3C760.86,-309.52 785.15,-226.58 756.5,-168 733.74,-121.46 678.1,-93.38 640.32,-79.03"/>
<polygon fill="midnightblue" stroke="midnightblue" points="641.25,-75.64 630.66,-75.5 638.85,-82.22 641.25,-75.64"/>
</g>
<!-- Node9&#45;&gt;Node11 -->
<g id="edge16" class="edge">
<title>Node9&#45;&gt;Node11</title>
<path fill="none" stroke="midnightblue" d="M745.11,-336.08C735.15,-309.83 705.82,-232.55 692.38,-197.12"/>
<polygon fill="midnightblue" stroke="midnightblue" points="695.57,-195.68 688.75,-187.57 689.03,-198.16 695.57,-195.68"/>
</g>
<!-- Node12 -->
<g id="node12" class="node">
<title>Node12</title>
<g id="a_node12"><a xlink:href="../../d7/d79/MinMaxFix_8hpp.html" target="_top" xlink:title=" ">
<polygon fill="white" stroke="black" points="787.5,-112.5 787.5,-131.5 923.5,-131.5 923.5,-112.5 787.5,-112.5"/>
<text text-anchor="middle" x="855.5" y="-119.5" font-family="Helvetica,sans-Serif" font-size="10.00">AH/Math/MinMaxFix.hpp</text>
</a>
</g>
</g>
<!-- Node11&#45;&gt;Node12 -->
<g id="edge17" class="edge">
<title>Node11&#45;&gt;Node12</title>
<path fill="none" stroke="midnightblue" d="M712.44,-168.44C741.16,-159.32 786.83,-144.81 818.82,-134.65"/>
<polygon fill="midnightblue" stroke="midnightblue" points="820.22,-137.88 828.69,-131.52 818.1,-131.21 820.22,-137.88"/>
</g>
<!-- Node14 -->
<g id="node14" class="node">
<title>Node14</title>
<g id="a_node14"><a xlink:title=" ">
<polygon fill="white" stroke="#bfbfbf" points="497,-0.5 497,-19.5 560,-19.5 560,-0.5 497,-0.5"/>
<text text-anchor="middle" x="528.5" y="-7.5" font-family="Helvetica,sans-Serif" font-size="10.00">Arduino.h</text>
</a>
</g>
</g>
<!-- Node11&#45;&gt;Node14 -->
<g id="edge24" class="edge">
<title>Node11&#45;&gt;Node14</title>
<path fill="none" stroke="midnightblue" d="M685.18,-168.38C684.16,-154.37 680.05,-126.74 663.5,-112 606.48,-61.2 543.51,-135.38 495.5,-76 483.28,-60.89 497.6,-40.52 511.01,-26.63"/>
<polygon fill="midnightblue" stroke="midnightblue" points="513.45,-29.14 518.19,-19.66 508.58,-24.12 513.45,-29.14"/>
</g>
<!-- Node11&#45;&gt;Node15 -->
<g id="edge23" class="edge">
<title>Node11&#45;&gt;Node15</title>
<path fill="none" stroke="midnightblue" d="M672,-168.32C658.9,-159.9 638.79,-146.97 623.39,-137.07"/>
<polygon fill="midnightblue" stroke="midnightblue" points="625.27,-134.12 614.96,-131.65 621.48,-140.01 625.27,-134.12"/>
</g>
<!-- Node12&#45;&gt;Node2 -->
<g id="edge18" class="edge">
<title>Node12&#45;&gt;Node2</title>
<path fill="none" stroke="midnightblue" d="M866.25,-112.37C889.46,-93.73 944.51,-49.53 973.65,-26.13"/>
<polygon fill="midnightblue" stroke="midnightblue" points="976.19,-28.58 981.8,-19.59 971.81,-23.12 976.19,-28.58"/>
</g>
<!-- Node12&#45;&gt;Node10 -->
<g id="edge22" class="edge">
<title>Node12&#45;&gt;Node10</title>
<path fill="none" stroke="midnightblue" d="M815.41,-112.44C771.18,-103 699.96,-87.8 652.22,-77.61"/>
<polygon fill="midnightblue" stroke="midnightblue" points="652.91,-74.18 642.4,-75.52 651.45,-81.03 652.91,-74.18"/>
</g>
<!-- Node13 -->
<g id="node13" class="node">
<title>Node13</title>
<g id="a_node13"><a xlink:href="../../d6/d3b/FixArduinoMacros_8hpp.html" target="_top" xlink:title=" ">
<polygon fill="white" stroke="black" points="718.5,-56.5 718.5,-75.5 888.5,-75.5 888.5,-56.5 718.5,-56.5"/>
<text text-anchor="middle" x="803.5" y="-63.5" font-family="Helvetica,sans-Serif" font-size="10.00">AH/Math/FixArduinoMacros.hpp</text>
</a>
</g>
</g>
<!-- Node12&#45;&gt;Node13 -->
<g id="edge19" class="edge">
<title>Node12&#45;&gt;Node13</title>
<path fill="none" stroke="midnightblue" d="M846.91,-112.08C839.34,-104.22 828.12,-92.57 818.99,-83.08"/>
<polygon fill="midnightblue" stroke="midnightblue" points="821.38,-80.53 811.93,-75.75 816.34,-85.38 821.38,-80.53"/>
</g>
<!-- Node13&#45;&gt;Node2 -->
<g id="edge20" class="edge">
<title>Node13&#45;&gt;Node2</title>
<path fill="none" stroke="midnightblue" d="M833.45,-56.44C865.66,-47.24 917.03,-32.56 952.64,-22.39"/>
<polygon fill="midnightblue" stroke="midnightblue" points="954.04,-25.63 962.69,-19.52 952.12,-18.9 954.04,-25.63"/>
</g>
<!-- Node13&#45;&gt;Node14 -->
<g id="edge21" class="edge">
<title>Node13&#45;&gt;Node14</title>
<path fill="none" stroke="midnightblue" d="M759.93,-56.44C707.93,-46.23 621.6,-29.28 570.36,-19.22"/>
<polygon fill="midnightblue" stroke="midnightblue" points="570.78,-15.74 560.3,-17.24 569.43,-22.61 570.78,-15.74"/>
</g>
<!-- Node16&#45;&gt;Node2 -->
<g id="edge26" class="edge">
<title>Node16&#45;&gt;Node2</title>
<path fill="none" stroke="midnightblue" d="M1183.6,-342.04C1225.9,-336.98 1275.41,-325.43 1313.5,-300 1362.94,-266.99 1370.5,-238.45 1370.5,-179 1370.5,-179 1370.5,-179 1370.5,-121 1370.5,-59.78 1185.37,-30.37 1074.23,-18.23"/>
<polygon fill="midnightblue" stroke="midnightblue" points="1074.36,-14.73 1064.04,-17.15 1073.62,-21.69 1074.36,-14.73"/>
</g>
<!-- Node16&#45;&gt;Node8 -->
<g id="edge39" class="edge">
<title>Node16&#45;&gt;Node8</title>
<path fill="none" stroke="midnightblue" d="M1093.31,-355.75C1089.39,-363.48 1081.48,-374.97 1073.75,-384.43"/>
<polygon fill="midnightblue" stroke="midnightblue" points="1071.02,-382.24 1067.11,-392.08 1076.3,-386.82 1071.02,-382.24"/>
</g>
<!-- Node16&#45;&gt;Node10 -->
<g id="edge27" class="edge">
<title>Node16&#45;&gt;Node10</title>
<path fill="none" stroke="midnightblue" d="M1056.99,-336.49C1034.72,-329.78 1007.27,-318.41 988.5,-300 962.08,-274.09 980.1,-250.72 954.5,-224 935.25,-203.91 756.12,-122.86 730.5,-112 700.44,-99.26 665.41,-87.12 639.6,-78.67"/>
<polygon fill="midnightblue" stroke="midnightblue" points="640.44,-75.27 629.85,-75.51 638.28,-81.92 640.44,-75.27"/>
</g>
<!-- Node17 -->
<g id="node17" class="node">
<title>Node17</title>
<g id="a_node17"><a xlink:href="../../db/d02/Settings_8hpp.html" target="_top" xlink:title="All user settings and debugging options can be changed here.">
<polygon fill="white" stroke="black" points="997,-280.5 997,-299.5 1074,-299.5 1074,-280.5 997,-280.5"/>
<text text-anchor="middle" x="1035.5" y="-287.5" font-family="Helvetica,sans-Serif" font-size="10.00">Settings.hpp</text>
</a>
</g>
</g>
<!-- Node16&#45;&gt;Node17 -->
<g id="edge28" class="edge">
<title>Node16&#45;&gt;Node17</title>
<path fill="none" stroke="midnightblue" d="M1085.02,-336.32C1076.3,-328.34 1063.16,-316.31 1052.6,-306.65"/>
<polygon fill="midnightblue" stroke="midnightblue" points="1054.89,-304 1045.15,-299.83 1050.17,-309.17 1054.89,-304"/>
</g>
<!-- Node23 -->
<g id="node23" class="node">
<title>Node23</title>
<g id="a_node23"><a xlink:href="../../d9/d98/TeensyUSBTypes_8hpp.html" target="_top" xlink:title=" ">
<polygon fill="white" stroke="black" points="1131,-280.5 1131,-299.5 1304,-299.5 1304,-280.5 1131,-280.5"/>
<text text-anchor="middle" x="1217.5" y="-287.5" font-family="Helvetica,sans-Serif" font-size="10.00">AH/Teensy/TeensyUSBTypes.hpp</text>
</a>
</g>
</g>
<!-- Node16&#45;&gt;Node23 -->
<g id="edge38" class="edge">
<title>Node16&#45;&gt;Node23</title>
<path fill="none" stroke="midnightblue" d="M1113.99,-336.44C1134.14,-327.6 1165.82,-313.69 1188.83,-303.59"/>
<polygon fill="midnightblue" stroke="midnightblue" points="1190.35,-306.74 1198.1,-299.52 1187.54,-300.33 1190.35,-306.74"/>
</g>
<!-- Node18 -->
<g id="node18" class="node">
<title>Node18</title>
<g id="a_node18"><a xlink:href="../../dc/d50/Frequency_8hpp.html" target="_top" xlink:title=" ">
<polygon fill="white" stroke="black" points="1017.5,-112.5 1017.5,-131.5 1151.5,-131.5 1151.5,-112.5 1017.5,-112.5"/>
<text text-anchor="middle" x="1084.5" y="-119.5" font-family="Helvetica,sans-Serif" font-size="10.00">AH/Types/Frequency.hpp</text>
</a>
</g>
</g>
<!-- Node17&#45;&gt;Node18 -->
<g id="edge29" class="edge">
<title>Node17&#45;&gt;Node18</title>
<path fill="none" stroke="midnightblue" d="M1033.36,-280.44C1030.59,-267.87 1026.63,-243.76 1031.5,-224 1039.36,-192.11 1059.28,-159.15 1072.34,-139.89"/>
<polygon fill="midnightblue" stroke="midnightblue" points="1075.27,-141.8 1078.11,-131.6 1069.52,-137.8 1075.27,-141.8"/>
</g>
<!-- Node19 -->
<g id="node19" class="node">
<title>Node19</title>
<g id="a_node19"><a xlink:href="../../d7/d7c/ADCConfig_8hpp.html" target="_top" xlink:title="This file contains the platform&#45;specific ADC resolutions.">
<polygon fill="white" stroke="black" points="1040,-224.5 1040,-243.5 1197,-243.5 1197,-224.5 1040,-224.5"/>
<text text-anchor="middle" x="1118.5" y="-231.5" font-family="Helvetica,sans-Serif" font-size="10.00">AH/Hardware/ADCConfig.hpp</text>
</a>
</g>
</g>
<!-- Node17&#45;&gt;Node19 -->
<g id="edge32" class="edge">
<title>Node17&#45;&gt;Node19</title>
<path fill="none" stroke="midnightblue" d="M1048.84,-280.32C1061.66,-271.98 1081.28,-259.21 1096.44,-249.35"/>
<polygon fill="midnightblue" stroke="midnightblue" points="1098.72,-252.04 1105.2,-243.65 1094.91,-246.17 1098.72,-252.04"/>
</g>
<!-- Node20 -->
<g id="node20" class="node">
<title>Node20</title>
<g id="a_node20"><a xlink:title=" ">
<polygon fill="white" stroke="#bfbfbf" points="1215,-224.5 1215,-243.5 1268,-243.5 1268,-224.5 1215,-224.5"/>
<text text-anchor="middle" x="1241.5" y="-231.5" font-family="Helvetica,sans-Serif" font-size="10.00">limits.h</text>
</a>
</g>
</g>
<!-- Node17&#45;&gt;Node20 -->
<g id="edge35" class="edge">
<title>Node17&#45;&gt;Node20</title>
<path fill="none" stroke="midnightblue" d="M1068.14,-280.44C1105.42,-270.67 1166.27,-254.72 1205.07,-244.55"/>
<polygon fill="midnightblue" stroke="midnightblue" points="1206.12,-247.89 1214.91,-241.97 1204.35,-241.12 1206.12,-247.89"/>
</g>
<!-- Node17&#45;&gt;Node21 -->
<g id="edge36" class="edge">
<title>Node17&#45;&gt;Node21</title>
<path fill="none" stroke="midnightblue" d="M1074.19,-282.48C1120.11,-274.59 1199.22,-260.53 1276.37,-244.15"/>
<polygon fill="midnightblue" stroke="midnightblue" points="1277.21,-247.55 1286.25,-242.04 1275.74,-240.71 1277.21,-247.55"/>
</g>
<!-- Node17&#45;&gt;Node22 -->
<g id="edge37" class="edge">
<title>Node17&#45;&gt;Node22</title>
<path fill="none" stroke="midnightblue" d="M1016.96,-280.44C997.88,-271.64 967.93,-257.81 946.06,-247.72"/>
<polygon fill="midnightblue" stroke="midnightblue" points="947.5,-244.53 936.95,-243.52 944.57,-250.88 947.5,-244.53"/>
</g>
<!-- Node18&#45;&gt;Node2 -->
<g id="edge30" class="edge">
<title>Node18&#45;&gt;Node2</title>
<path fill="none" stroke="midnightblue" d="M1077.28,-112.37C1061.96,-94.05 1026,-51.05 1006.18,-27.36"/>
<polygon fill="midnightblue" stroke="midnightblue" points="1008.79,-25.02 999.69,-19.59 1003.42,-29.51 1008.79,-25.02"/>
</g>
<!-- Node18&#45;&gt;Node10 -->
<g id="edge31" class="edge">
<title>Node18&#45;&gt;Node10</title>
<path fill="none" stroke="midnightblue" d="M1017.48,-113.49C931.62,-103.87 782.69,-87.19 688.54,-76.64"/>
<polygon fill="midnightblue" stroke="midnightblue" points="688.8,-73.15 678.48,-75.51 688.02,-80.1 688.8,-73.15"/>
</g>
<!-- Node19&#45;&gt;Node2 -->
<g id="edge33" class="edge">
<title>Node19&#45;&gt;Node2</title>
<path fill="none" stroke="midnightblue" d="M1126.27,-224.34C1143.68,-203.83 1182.61,-151.1 1160.5,-112 1133.57,-64.38 1074.22,-36.74 1033.78,-22.77"/>
<polygon fill="midnightblue" stroke="midnightblue" points="1034.79,-19.41 1024.19,-19.58 1032.58,-26.06 1034.79,-19.41"/>
</g>
<!-- Node19&#45;&gt;Node11 -->
<g id="edge34" class="edge">
<title>Node19&#45;&gt;Node11</title>
<path fill="none" stroke="midnightblue" d="M1049.89,-224.44C970.19,-214.5 839.28,-198.18 757.97,-188.04"/>
<polygon fill="midnightblue" stroke="midnightblue" points="758.18,-184.54 747.82,-186.77 757.31,-191.48 758.18,-184.54"/>
</g>
<!-- Node26&#45;&gt;Node2 -->
<g id="edge50" class="edge">
<title>Node26&#45;&gt;Node2</title>
<path fill="none" stroke="midnightblue" d="M195.07,-112.27C210.15,-97.55 243.11,-68.23 277.5,-56 335.81,-35.27 735.65,-19.57 910.71,-13.61"/>
<polygon fill="midnightblue" stroke="midnightblue" points="911.02,-17.11 920.9,-13.27 910.79,-10.11 911.02,-17.11"/>
</g>
<!-- Node26&#45;&gt;Node10 -->
<g id="edge51" class="edge">
<title>Node26&#45;&gt;Node10</title>
<path fill="none" stroke="midnightblue" d="M252.42,-112.44C326.96,-102.77 448.16,-87.04 526.59,-76.85"/>
<polygon fill="midnightblue" stroke="midnightblue" points="527.43,-80.27 536.89,-75.52 526.52,-73.33 527.43,-80.27"/>
</g>
<!-- Node27 -->
<g id="node27" class="node">
<title>Node27</title>
<g id="a_node27"><a xlink:title=" ">
<polygon fill="white" stroke="#bfbfbf" points="97.5,-56.5 97.5,-75.5 187.5,-75.5 187.5,-56.5 97.5,-56.5"/>
<text text-anchor="middle" x="142.5" y="-63.5" font-family="Helvetica,sans-Serif" font-size="10.00">AH/STL/cstddef</text>
</a>
</g>
</g>
<!-- Node26&#45;&gt;Node27 -->
<g id="edge48" class="edge">
<title>Node26&#45;&gt;Node27</title>
<path fill="none" stroke="midnightblue" d="M179.23,-112.08C172.96,-104.38 163.71,-93.03 156.07,-83.65"/>
<polygon fill="midnightblue" stroke="midnightblue" points="158.66,-81.29 149.63,-75.75 153.23,-85.71 158.66,-81.29"/>
</g>
<!-- Node28 -->
<g id="node28" class="node">
<title>Node28</title>
<g id="a_node28"><a xlink:title=" ">
<polygon fill="white" stroke="#bfbfbf" points="0,-56.5 0,-75.5 79,-75.5 79,-56.5 0,-56.5"/>
<text text-anchor="middle" x="39.5" y="-63.5" font-family="Helvetica,sans-Serif" font-size="10.00">AH/STL/tuple</text>
</a>
</g>
</g>
<!-- Node26&#45;&gt;Node28 -->
<g id="edge49" class="edge">
<title>Node26&#45;&gt;Node28</title>
<path fill="none" stroke="midnightblue" d="M163.21,-112.44C138.69,-103.44 99.9,-89.19 72.3,-79.05"/>
<polygon fill="midnightblue" stroke="midnightblue" points="73.28,-75.68 62.68,-75.52 70.86,-82.25 73.28,-75.68"/>
</g>
<!-- Node30&#45;&gt;Node2 -->
<g id="edge57" class="edge">
<title>Node30&#45;&gt;Node2</title>
<path fill="none" stroke="midnightblue" d="M1592.34,-806.39C1624.27,-791.04 1683.5,-755.73 1683.5,-705 1683.5,-705 1683.5,-705 1683.5,-121 1683.5,-78.22 1651.79,-72.93 1612.5,-56 1517.95,-15.26 1219.95,-10.25 1074.27,-10.34"/>
<polygon fill="midnightblue" stroke="midnightblue" points="1074.05,-6.84 1064.05,-10.36 1074.06,-13.84 1074.05,-6.84"/>
</g>
<!-- Node31 -->
<g id="node31" class="node">
<title>Node31</title>
<g id="a_node31"><a xlink:href="../../d4/d57/ExtendedIOElement_8hpp.html" target="_top" xlink:title=" ">
<polygon fill="white" stroke="black" points="1178.5,-750.5 1178.5,-769.5 1312.5,-769.5 1312.5,-750.5 1178.5,-750.5"/>
<text text-anchor="middle" x="1245.5" y="-757.5" font-family="Helvetica,sans-Serif" font-size="10.00">ExtendedIOElement.hpp</text>
</a>
</g>
</g>
<!-- Node30&#45;&gt;Node31 -->
<g id="edge58" class="edge">
<title>Node30&#45;&gt;Node31</title>
<path fill="none" stroke="midnightblue" d="M1520.69,-806.44C1462.68,-796.87 1368.76,-781.36 1307.06,-771.17"/>
<polygon fill="midnightblue" stroke="midnightblue" points="1307.51,-767.69 1297.07,-769.52 1306.37,-774.6 1307.51,-767.69"/>
</g>
<!-- Node37 -->
<g id="node37" class="node">
<title>Node37</title>
<g id="a_node37"><a xlink:href="../../d5/db6/ArrayHelpers_8hpp.html" target="_top" xlink:title=" ">
<polygon fill="white" stroke="black" points="1481.5,-566 1481.5,-585 1655.5,-585 1655.5,-566 1481.5,-566"/>
<text text-anchor="middle" x="1568.5" y="-573" font-family="Helvetica,sans-Serif" font-size="10.00">AH/Containers/ArrayHelpers.hpp</text>
</a>
</g>
</g>
<!-- Node30&#45;&gt;Node37 -->
<g id="edge76" class="edge">
<title>Node30&#45;&gt;Node37</title>
<path fill="none" stroke="midnightblue" d="M1572.35,-806.23C1571.77,-771.6 1569.63,-643.93 1568.82,-595.4"/>
<polygon fill="midnightblue" stroke="midnightblue" points="1572.31,-595.04 1568.64,-585.1 1565.31,-595.16 1572.31,-595.04"/>
</g>
<!-- Node31&#45;&gt;Node2 -->
<g id="edge59" class="edge">
<title>Node31&#45;&gt;Node2</title>
<path fill="none" stroke="midnightblue" d="M1254.73,-750.21C1307.2,-700.07 1565.5,-450.79 1565.5,-403 1565.5,-403 1565.5,-403 1565.5,-121 1565.5,-76.55 1530.46,-73.26 1489.5,-56 1416.77,-25.34 1195.84,-15.53 1074.48,-12.42"/>
<polygon fill="midnightblue" stroke="midnightblue" points="1074.22,-8.91 1064.13,-12.17 1074.04,-15.91 1074.22,-8.91"/>
</g>
<!-- Node31&#45;&gt;Node3 -->
<g id="edge60" class="edge">
<title>Node31&#45;&gt;Node3</title>
<path fill="none" stroke="midnightblue" d="M1178.32,-753.85C1048.3,-743.87 762.78,-721.97 622.52,-711.21"/>
<polygon fill="midnightblue" stroke="midnightblue" points="622.5,-707.7 612.26,-710.43 621.97,-714.68 622.5,-707.7"/>
</g>
<!-- Node31&#45;&gt;Node5 -->
<g id="edge75" class="edge">
<title>Node31&#45;&gt;Node5</title>
<path fill="none" stroke="midnightblue" d="M1215.16,-750.44C1114.87,-722.15 792.73,-631.29 658.3,-593.37"/>
<polygon fill="midnightblue" stroke="midnightblue" points="659.14,-589.97 648.57,-590.62 657.24,-596.71 659.14,-589.97"/>
</g>
<!-- Node32 -->
<g id="node32" class="node">
<title>Node32</title>
<g id="a_node32"><a xlink:href="../../d4/d93/Updatable_8hpp.html" target="_top" xlink:title=" ">
<polygon fill="white" stroke="black" points="1165,-504.5 1165,-523.5 1326,-523.5 1326,-504.5 1165,-504.5"/>
<text text-anchor="middle" x="1245.5" y="-511.5" font-family="Helvetica,sans-Serif" font-size="10.00">AH/Containers/Updatable.hpp</text>
</a>
</g>
</g>
<!-- Node31&#45;&gt;Node32 -->
<g id="edge61" class="edge">
<title>Node31&#45;&gt;Node32</title>
<path fill="none" stroke="midnightblue" d="M1245.5,-750.32C1245.5,-715.18 1245.5,-583.12 1245.5,-533.76"/>
<polygon fill="midnightblue" stroke="midnightblue" points="1249,-533.58 1245.5,-523.58 1242,-533.58 1249,-533.58"/>
</g>
<!-- Node32&#45;&gt;Node2 -->
<g id="edge62" class="edge">
<title>Node32&#45;&gt;Node2</title>
<path fill="none" stroke="midnightblue" d="M1326.21,-505.55C1387.12,-498.59 1464.5,-486.47 1490.5,-468 1517.6,-448.75 1527.5,-436.24 1527.5,-403 1527.5,-403 1527.5,-403 1527.5,-121 1527.5,-29.58 1223.99,-13.47 1074.18,-11.09"/>
<polygon fill="midnightblue" stroke="midnightblue" points="1074.15,-7.59 1064.1,-10.94 1074.05,-14.59 1074.15,-7.59"/>
</g>
<!-- Node32&#45;&gt;Node7 -->
<g id="edge70" class="edge">
<title>Node32&#45;&gt;Node7</title>
<path fill="none" stroke="midnightblue" d="M1191.31,-504.44C1129.99,-494.76 1030.27,-479.02 965.79,-468.84"/>
<polygon fill="midnightblue" stroke="midnightblue" points="966.18,-465.35 955.76,-467.25 965.09,-472.27 966.18,-465.35"/>
</g>
<!-- Node32&#45;&gt;Node15 -->
<g id="edge71" class="edge">
<title>Node32&#45;&gt;Node15</title>
<path fill="none" stroke="midnightblue" d="M1166.25,-504.46C1117.99,-497.77 1055.6,-486.41 1002.5,-468 984.47,-461.75 982.41,-454.6 964.5,-448 828.84,-398.03 747.84,-464.68 652.5,-356 597.6,-293.42 597.47,-185.44 599.95,-141.96"/>
<polygon fill="midnightblue" stroke="midnightblue" points="603.45,-142.14 600.64,-131.92 596.46,-141.66 603.45,-142.14"/>
</g>
<!-- Node32&#45;&gt;Node16 -->
<g id="edge73" class="edge">
<title>Node32&#45;&gt;Node16</title>
<path fill="none" stroke="midnightblue" d="M1326.28,-507.46C1383.16,-501.69 1452.28,-490.22 1470.5,-468 1491.91,-441.88 1492.92,-417.26 1470.5,-392 1452.35,-371.55 1298.96,-358.67 1193.8,-352.16"/>
<polygon fill="midnightblue" stroke="midnightblue" points="1193.97,-348.67 1183.78,-351.55 1193.55,-355.65 1193.97,-348.67"/>
</g>
<!-- Node32&#45;&gt;Node21 -->
<g id="edge74" class="edge">
<title>Node32&#45;&gt;Node21</title>
<path fill="none" stroke="midnightblue" d="M1237.31,-504.44C1226.69,-492.27 1210.21,-469.08 1216.5,-448 1239,-372.64 1290.43,-375.19 1313.5,-300 1318.11,-284.98 1318,-267.07 1316.94,-253.86"/>
<polygon fill="midnightblue" stroke="midnightblue" points="1320.4,-253.23 1315.86,-243.65 1313.43,-253.96 1320.4,-253.23"/>
</g>
<!-- Node33 -->
<g id="node33" class="node">
<title>Node33</title>
<g id="a_node33"><a xlink:href="../../d4/dba/CRTP_8hpp.html" target="_top" xlink:title=" ">
<polygon fill="white" stroke="black" points="1225.5,-448.5 1225.5,-467.5 1359.5,-467.5 1359.5,-448.5 1225.5,-448.5"/>
<text text-anchor="middle" x="1292.5" y="-455.5" font-family="Helvetica,sans-Serif" font-size="10.00">AH/Containers/CRTP.hpp</text>
</a>
</g>
</g>
<!-- Node32&#45;&gt;Node33 -->
<g id="edge63" class="edge">
<title>Node32&#45;&gt;Node33</title>
<path fill="none" stroke="midnightblue" d="M1253.26,-504.08C1260.04,-496.3 1270.04,-484.8 1278.26,-475.37"/>
<polygon fill="midnightblue" stroke="midnightblue" points="1280.96,-477.59 1284.88,-467.75 1275.68,-473 1280.96,-477.59"/>
</g>
<!-- Node34 -->
<g id="node34" class="node">
<title>Node34</title>
<g id="a_node34"><a xlink:href="../../de/dd1/LinkedList_8hpp.html" target="_top" xlink:title=" ">
<polygon fill="white" stroke="black" points="1011,-448.5 1011,-467.5 1170,-467.5 1170,-448.5 1011,-448.5"/>
<text text-anchor="middle" x="1090.5" y="-455.5" font-family="Helvetica,sans-Serif" font-size="10.00">AH/Containers/LinkedList.hpp</text>
</a>
</g>
</g>
<!-- Node32&#45;&gt;Node34 -->
<g id="edge64" class="edge">
<title>Node32&#45;&gt;Node34</title>
<path fill="none" stroke="midnightblue" d="M1220.94,-504.44C1194.98,-495.4 1153.83,-481.06 1124.7,-470.92"/>
<polygon fill="midnightblue" stroke="midnightblue" points="1125.54,-467.5 1114.95,-467.52 1123.24,-474.11 1125.54,-467.5"/>
</g>
<!-- Node36 -->
<g id="node36" class="node">
<title>Node36</title>
<g id="a_node36"><a xlink:title=" ">
<polygon fill="white" stroke="#bfbfbf" points="1378,-448.5 1378,-467.5 1461,-467.5 1461,-448.5 1378,-448.5"/>
<text text-anchor="middle" x="1419.5" y="-455.5" font-family="Helvetica,sans-Serif" font-size="10.00">AH/STL/utility</text>
</a>
</g>
</g>
<!-- Node32&#45;&gt;Node36 -->
<g id="edge72" class="edge">
<title>Node32&#45;&gt;Node36</title>
<path fill="none" stroke="midnightblue" d="M1273.07,-504.44C1302.6,-495.28 1349.62,-480.69 1382.38,-470.52"/>
<polygon fill="midnightblue" stroke="midnightblue" points="1383.54,-473.82 1392.06,-467.52 1381.47,-467.14 1383.54,-473.82"/>
</g>
<!-- Node34&#45;&gt;Node2 -->
<g id="edge65" class="edge">
<title>Node34&#45;&gt;Node2</title>
<path fill="none" stroke="midnightblue" d="M1132.4,-448.43C1218.75,-428.06 1408.5,-368.15 1408.5,-235 1408.5,-235 1408.5,-235 1408.5,-121 1408.5,-73.44 1367.41,-74.26 1323.5,-56 1279.8,-37.83 1157.31,-24.54 1074.24,-17.29"/>
<polygon fill="midnightblue" stroke="midnightblue" points="1074.32,-13.79 1064.06,-16.42 1073.72,-20.76 1074.32,-13.79"/>
</g>
<!-- Node34&#45;&gt;Node8 -->
<g id="edge66" class="edge">
<title>Node34&#45;&gt;Node8</title>
<path fill="none" stroke="midnightblue" d="M1084.72,-448.08C1079.83,-440.53 1072.67,-429.49 1066.67,-420.23"/>
<polygon fill="midnightblue" stroke="midnightblue" points="1069.55,-418.24 1061.17,-411.75 1063.67,-422.05 1069.55,-418.24"/>
</g>
<!-- Node34&#45;&gt;Node12 -->
<g id="edge67" class="edge">
<title>Node34&#45;&gt;Node12</title>
<path fill="none" stroke="midnightblue" d="M1064.07,-448.35C1042.29,-440.58 1011.09,-427.95 986.5,-412 905.67,-359.56 877.8,-336.1 849.5,-244 838.78,-209.11 845.35,-165.93 850.69,-141.72"/>
<polygon fill="midnightblue" stroke="midnightblue" points="854.16,-142.3 853.07,-131.76 847.35,-140.68 854.16,-142.3"/>
</g>
<!-- Node34&#45;&gt;Node24 -->
<g id="edge69" class="edge">
<title>Node34&#45;&gt;Node24</title>
<path fill="none" stroke="midnightblue" d="M1053.74,-448.44C1013.44,-439.06 948.69,-423.99 904.92,-413.8"/>
<polygon fill="midnightblue" stroke="midnightblue" points="905.62,-410.37 895.09,-411.52 904.04,-417.19 905.62,-410.37"/>
</g>
<!-- Node34&#45;&gt;Node35 -->
<g id="edge68" class="edge">
<title>Node34&#45;&gt;Node35</title>
<path fill="none" stroke="midnightblue" d="M1156.92,-448.47C1218.45,-440.25 1312.43,-426.9 1393.5,-412 1394.79,-411.76 1396.1,-411.51 1397.42,-411.26"/>
<polygon fill="midnightblue" stroke="midnightblue" points="1398.55,-414.6 1407.65,-409.17 1397.15,-407.74 1398.55,-414.6"/>
</g>
<!-- Node37&#45;&gt;Node2 -->
<g id="edge77" class="edge">
<title>Node37&#45;&gt;Node2</title>
<path fill="none" stroke="midnightblue" d="M1581.05,-565.9C1593.33,-556.84 1611.74,-541.49 1622.5,-524 1638.27,-498.37 1641.5,-489.1 1641.5,-459 1641.5,-459 1641.5,-459 1641.5,-121 1641.5,-81.08 1615.57,-73.1 1579.5,-56 1492.27,-14.64 1214.17,-9.82 1074.37,-10.13"/>
<polygon fill="midnightblue" stroke="midnightblue" points="1074.13,-6.63 1064.14,-10.16 1074.15,-13.63 1074.13,-6.63"/>
</g>
<!-- Node37&#45;&gt;Node6 -->
<g id="edge78" class="edge">
<title>Node37&#45;&gt;Node6</title>
<path fill="none" stroke="midnightblue" d="M1481.25,-569.48C1345.88,-561.44 1077.11,-544.48 849.5,-524 848.03,-523.87 846.54,-523.73 845.05,-523.59"/>
<polygon fill="midnightblue" stroke="midnightblue" points="845.34,-520.1 835.05,-522.63 844.67,-527.07 845.34,-520.1"/>
</g>
<!-- Node37&#45;&gt;Node9 -->
<g id="edge80" class="edge">
<title>Node37&#45;&gt;Node9</title>
<path fill="none" stroke="midnightblue" d="M1481.29,-570.1C1312.53,-560.25 948.54,-532.06 842.5,-468 800.91,-442.88 770.81,-392 756.98,-364.91"/>
<polygon fill="midnightblue" stroke="midnightblue" points="760.05,-363.22 752.49,-355.8 753.77,-366.32 760.05,-363.22"/>
</g>
<!-- Node38 -->
<g id="node38" class="node">
<title>Node38</title>
<g id="a_node38"><a xlink:title=" ">
<polygon fill="white" stroke="#bfbfbf" points="1512,-504.5 1512,-523.5 1613,-523.5 1613,-504.5 1512,-504.5"/>
<text text-anchor="middle" x="1562.5" y="-511.5" font-family="Helvetica,sans-Serif" font-size="10.00">AH/STL/algorithm</text>
</a>
</g>
</g>
<!-- Node37&#45;&gt;Node38 -->
<g id="edge79" class="edge">
<title>Node37&#45;&gt;Node38</title>
<path fill="none" stroke="midnightblue" d="M1567.64,-565.98C1566.79,-557.58 1565.47,-544.48 1564.38,-533.66"/>
<polygon fill="midnightblue" stroke="midnightblue" points="1567.84,-533.11 1563.36,-523.51 1560.88,-533.81 1567.84,-533.11"/>
</g>
</g>
</svg>
