<?xml version="1.0" encoding="UTF-8" standalone="no"?>
<!DOCTYPE svg PUBLIC "-//W3C//DTD SVG 1.1//EN"
 "http://www.w3.org/Graphics/SVG/1.1/DTD/svg11.dtd">
<!-- Generated by graphviz version 2.43.0 (0)
 -->
<!-- Title: vector.cpp Pages: 1 -->
<svg width="841pt" height="532pt"
 viewBox="0.00 0.00 841.00 532.00" xmlns="http://www.w3.org/2000/svg" xmlns:xlink="http://www.w3.org/1999/xlink">
<g id="graph0" class="graph" transform="scale(1 1) rotate(0) translate(4 528)">
<title>vector.cpp</title>
<polygon fill="white" stroke="transparent" points="-4,4 -4,-528 837,-528 837,4 -4,4"/>
<!-- Node1 -->
<g id="node1" class="node">
<title>Node1</title>
<g id="a_node1"><a xlink:title=" ">
<polygon fill="#bfbfbf" stroke="black" points="213,-504.5 213,-523.5 280,-523.5 280,-504.5 213,-504.5"/>
<text text-anchor="middle" x="246.5" y="-511.5" font-family="Helvetica,sans-Serif" font-size="10.00">vector.cpp</text>
</a>
</g>
</g>
<!-- Node2 -->
<g id="node2" class="node">
<title>Node2</title>
<g id="a_node2"><a xlink:title=" ">
<polygon fill="white" stroke="#bfbfbf" points="176,-448.5 176,-467.5 223,-467.5 223,-448.5 176,-448.5"/>
<text text-anchor="middle" x="199.5" y="-455.5" font-family="Helvetica,sans-Serif" font-size="10.00">vector</text>
</a>
</g>
</g>
<!-- Node1&#45;&gt;Node2 -->
<g id="edge1" class="edge">
<title>Node1&#45;&gt;Node2</title>
<path fill="none" stroke="midnightblue" d="M238.74,-504.08C231.96,-496.3 221.96,-484.8 213.74,-475.37"/>
<polygon fill="midnightblue" stroke="midnightblue" points="216.32,-473 207.12,-467.75 211.04,-477.59 216.32,-473"/>
</g>
<!-- Node3 -->
<g id="node3" class="node">
<title>Node3</title>
<g id="a_node3"><a xlink:href="../../d1/d93/Error_8hpp.html" target="_top" xlink:title=" ">
<polygon fill="white" stroke="black" points="241.5,-448.5 241.5,-467.5 345.5,-467.5 345.5,-448.5 241.5,-448.5"/>
<text text-anchor="middle" x="293.5" y="-455.5" font-family="Helvetica,sans-Serif" font-size="10.00">AH/Error/Error.hpp</text>
</a>
</g>
</g>
<!-- Node1&#45;&gt;Node3 -->
<g id="edge2" class="edge">
<title>Node1&#45;&gt;Node3</title>
<path fill="none" stroke="midnightblue" d="M254.26,-504.08C261.04,-496.3 271.04,-484.8 279.26,-475.37"/>
<polygon fill="midnightblue" stroke="midnightblue" points="281.96,-477.59 285.88,-467.75 276.68,-473 281.96,-477.59"/>
</g>
<!-- Node4 -->
<g id="node4" class="node">
<title>Node4</title>
<g id="a_node4"><a xlink:href="../../df/dee/Debug_8hpp.html" target="_top" xlink:title=" ">
<polygon fill="white" stroke="black" points="233,-392.5 233,-411.5 354,-411.5 354,-392.5 233,-392.5"/>
<text text-anchor="middle" x="293.5" y="-399.5" font-family="Helvetica,sans-Serif" font-size="10.00">AH/Debug/Debug.hpp</text>
</a>
</g>
</g>
<!-- Node3&#45;&gt;Node4 -->
<g id="edge3" class="edge">
<title>Node3&#45;&gt;Node4</title>
<path fill="none" stroke="midnightblue" d="M293.5,-448.08C293.5,-441.01 293.5,-430.86 293.5,-421.99"/>
<polygon fill="midnightblue" stroke="midnightblue" points="297,-421.75 293.5,-411.75 290,-421.75 297,-421.75"/>
</g>
<!-- Node5 -->
<g id="node5" class="node">
<title>Node5</title>
<g id="a_node5"><a xlink:href="../../dd/d80/PrintStream_8hpp.html" target="_top" xlink:title=" ">
<polygon fill="white" stroke="black" points="660,-224.5 660,-243.5 833,-243.5 833,-224.5 660,-224.5"/>
<text text-anchor="middle" x="746.5" y="-231.5" font-family="Helvetica,sans-Serif" font-size="10.00">AH/PrintStream/PrintStream.hpp</text>
</a>
</g>
</g>
<!-- Node4&#45;&gt;Node5 -->
<g id="edge4" class="edge">
<title>Node4&#45;&gt;Node5</title>
<path fill="none" stroke="midnightblue" d="M316.9,-392.42C391.93,-364.93 626.61,-278.93 713.62,-247.05"/>
<polygon fill="midnightblue" stroke="midnightblue" points="715.05,-250.25 723.24,-243.52 712.64,-243.68 715.05,-250.25"/>
</g>
<!-- Node13 -->
<g id="node13" class="node">
<title>Node13</title>
<g id="a_node13"><a xlink:href="../../d2/dd5/SettingsWrapper_8hpp.html" target="_top" xlink:title=" ">
<polygon fill="white" stroke="black" points="204.5,-336.5 204.5,-355.5 382.5,-355.5 382.5,-336.5 204.5,-336.5"/>
<text text-anchor="middle" x="293.5" y="-343.5" font-family="Helvetica,sans-Serif" font-size="10.00">AH/Settings/SettingsWrapper.hpp</text>
</a>
</g>
</g>
<!-- Node4&#45;&gt;Node13 -->
<g id="edge15" class="edge">
<title>Node4&#45;&gt;Node13</title>
<path fill="none" stroke="midnightblue" d="M288.33,-392.08C286.82,-384.93 286.39,-374.64 287.04,-365.69"/>
<polygon fill="midnightblue" stroke="midnightblue" points="290.52,-366.13 288.37,-355.75 283.58,-365.2 290.52,-366.13"/>
</g>
<!-- Node6 -->
<g id="node6" class="node">
<title>Node6</title>
<g id="a_node6"><a xlink:href="../../d6/ddf/Arduino-Wrapper_8h.html" target="_top" xlink:title=" ">
<polygon fill="white" stroke="black" points="551.5,-168.5 551.5,-187.5 675.5,-187.5 675.5,-168.5 551.5,-168.5"/>
<text text-anchor="middle" x="613.5" y="-175.5" font-family="Helvetica,sans-Serif" font-size="10.00">AH/Arduino&#45;Wrapper.h</text>
</a>
</g>
</g>
<!-- Node5&#45;&gt;Node6 -->
<g id="edge5" class="edge">
<title>Node5&#45;&gt;Node6</title>
<path fill="none" stroke="midnightblue" d="M725.43,-224.44C703.44,-215.52 668.77,-201.44 643.84,-191.32"/>
<polygon fill="midnightblue" stroke="midnightblue" points="645.06,-188.04 634.48,-187.52 642.42,-194.52 645.06,-188.04"/>
</g>
<!-- Node11 -->
<g id="node11" class="node">
<title>Node11</title>
<g id="a_node11"><a xlink:href="../../dc/dc7/NamespaceSettings_8hpp.html" target="_top" xlink:title=" ">
<polygon fill="white" stroke="black" points="294,-56.5 294,-75.5 489,-75.5 489,-56.5 294,-56.5"/>
<text text-anchor="middle" x="391.5" y="-63.5" font-family="Helvetica,sans-Serif" font-size="10.00">AH/Settings/NamespaceSettings.hpp</text>
</a>
</g>
</g>
<!-- Node5&#45;&gt;Node11 -->
<g id="edge14" class="edge">
<title>Node5&#45;&gt;Node11</title>
<path fill="none" stroke="midnightblue" d="M696.03,-224.46C611.92,-209.2 448.55,-174.78 410.5,-132 399.16,-119.25 394.57,-100.05 392.72,-85.82"/>
<polygon fill="midnightblue" stroke="midnightblue" points="396.19,-85.32 391.75,-75.7 389.22,-85.98 396.19,-85.32"/>
</g>
<!-- Node7 -->
<g id="node7" class="node">
<title>Node7</title>
<g id="a_node7"><a xlink:href="../../d7/d79/MinMaxFix_8hpp.html" target="_top" xlink:title=" ">
<polygon fill="white" stroke="black" points="545.5,-112.5 545.5,-131.5 681.5,-131.5 681.5,-112.5 545.5,-112.5"/>
<text text-anchor="middle" x="613.5" y="-119.5" font-family="Helvetica,sans-Serif" font-size="10.00">AH/Math/MinMaxFix.hpp</text>
</a>
</g>
</g>
<!-- Node6&#45;&gt;Node7 -->
<g id="edge6" class="edge">
<title>Node6&#45;&gt;Node7</title>
<path fill="none" stroke="midnightblue" d="M613.5,-168.08C613.5,-161.01 613.5,-150.86 613.5,-141.99"/>
<polygon fill="midnightblue" stroke="midnightblue" points="617,-141.75 613.5,-131.75 610,-141.75 617,-141.75"/>
</g>
<!-- Node10 -->
<g id="node10" class="node">
<title>Node10</title>
<g id="a_node10"><a xlink:title=" ">
<polygon fill="white" stroke="#bfbfbf" points="621,-0.5 621,-19.5 684,-19.5 684,-0.5 621,-0.5"/>
<text text-anchor="middle" x="652.5" y="-7.5" font-family="Helvetica,sans-Serif" font-size="10.00">Arduino.h</text>
</a>
</g>
</g>
<!-- Node6&#45;&gt;Node10 -->
<g id="edge13" class="edge">
<title>Node6&#45;&gt;Node10</title>
<path fill="none" stroke="midnightblue" d="M641.87,-168.49C659.25,-161.65 680.1,-150.13 690.5,-132 707.31,-102.7 702.1,-87.72 690.5,-56 686.44,-44.91 678.31,-34.67 670.61,-26.76"/>
<polygon fill="midnightblue" stroke="midnightblue" points="672.86,-24.07 663.21,-19.7 668.03,-29.14 672.86,-24.07"/>
</g>
<!-- Node12 -->
<g id="node12" class="node">
<title>Node12</title>
<g id="a_node12"><a xlink:title=" ">
<polygon fill="white" stroke="#bfbfbf" points="420,-112.5 420,-131.5 527,-131.5 527,-112.5 420,-112.5"/>
<text text-anchor="middle" x="473.5" y="-119.5" font-family="Helvetica,sans-Serif" font-size="10.00">AH/STL/type_traits</text>
</a>
</g>
</g>
<!-- Node6&#45;&gt;Node12 -->
<g id="edge12" class="edge">
<title>Node6&#45;&gt;Node12</title>
<path fill="none" stroke="midnightblue" d="M591.32,-168.44C568.07,-159.48 531.35,-145.31 505.08,-135.18"/>
<polygon fill="midnightblue" stroke="midnightblue" points="506.17,-131.85 495.58,-131.52 503.65,-138.38 506.17,-131.85"/>
</g>
<!-- Node8 -->
<g id="node8" class="node">
<title>Node8</title>
<g id="a_node8"><a xlink:href="../../d6/d3b/FixArduinoMacros_8hpp.html" target="_top" xlink:title=" ">
<polygon fill="white" stroke="black" points="511.5,-56.5 511.5,-75.5 681.5,-75.5 681.5,-56.5 511.5,-56.5"/>
<text text-anchor="middle" x="596.5" y="-63.5" font-family="Helvetica,sans-Serif" font-size="10.00">AH/Math/FixArduinoMacros.hpp</text>
</a>
</g>
</g>
<!-- Node7&#45;&gt;Node8 -->
<g id="edge7" class="edge">
<title>Node7&#45;&gt;Node8</title>
<path fill="none" stroke="midnightblue" d="M610.69,-112.08C608.42,-104.85 605.13,-94.41 602.29,-85.4"/>
<polygon fill="midnightblue" stroke="midnightblue" points="605.6,-84.24 599.25,-75.75 598.92,-86.34 605.6,-84.24"/>
</g>
<!-- Node7&#45;&gt;Node11 -->
<g id="edge10" class="edge">
<title>Node7&#45;&gt;Node11</title>
<path fill="none" stroke="midnightblue" d="M578.32,-112.44C539.92,-103.1 478.32,-88.12 436.44,-77.93"/>
<polygon fill="midnightblue" stroke="midnightblue" points="437.06,-74.48 426.51,-75.52 435.4,-81.28 437.06,-74.48"/>
</g>
<!-- Node9 -->
<g id="node9" class="node">
<title>Node9</title>
<g id="a_node9"><a xlink:href="../../d1/d65/Warnings_8hpp.html" target="_top" xlink:title=" ">
<polygon fill="white" stroke="black" points="418,-0.5 418,-19.5 561,-19.5 561,-0.5 418,-0.5"/>
<text text-anchor="middle" x="489.5" y="-7.5" font-family="Helvetica,sans-Serif" font-size="10.00">AH/Settings/Warnings.hpp</text>
</a>
</g>
</g>
<!-- Node8&#45;&gt;Node9 -->
<g id="edge8" class="edge">
<title>Node8&#45;&gt;Node9</title>
<path fill="none" stroke="midnightblue" d="M579.31,-56.32C562.15,-47.66 535.55,-34.24 515.75,-24.25"/>
<polygon fill="midnightblue" stroke="midnightblue" points="517.15,-21.04 506.65,-19.65 514,-27.28 517.15,-21.04"/>
</g>
<!-- Node8&#45;&gt;Node10 -->
<g id="edge9" class="edge">
<title>Node8&#45;&gt;Node10</title>
<path fill="none" stroke="midnightblue" d="M605.5,-56.32C613.69,-48.42 626.01,-36.55 635.97,-26.94"/>
<polygon fill="midnightblue" stroke="midnightblue" points="638.57,-29.29 643.34,-19.83 633.71,-24.26 638.57,-29.29"/>
</g>
<!-- Node11&#45;&gt;Node9 -->
<g id="edge11" class="edge">
<title>Node11&#45;&gt;Node9</title>
<path fill="none" stroke="midnightblue" d="M407.25,-56.32C422.82,-47.74 446.88,-34.49 464.96,-24.52"/>
<polygon fill="midnightblue" stroke="midnightblue" points="466.72,-27.55 473.79,-19.65 463.35,-21.42 466.72,-27.55"/>
</g>
<!-- Node13&#45;&gt;Node4 -->
<g id="edge26" class="edge">
<title>Node13&#45;&gt;Node4</title>
<path fill="none" stroke="midnightblue" d="M298.63,-355.75C300.16,-362.86 300.6,-373.14 299.97,-382.1"/>
<polygon fill="midnightblue" stroke="midnightblue" points="296.49,-381.71 298.67,-392.08 303.43,-382.62 296.49,-381.71"/>
</g>
<!-- Node13&#45;&gt;Node11 -->
<g id="edge16" class="edge">
<title>Node13&#45;&gt;Node11</title>
<path fill="none" stroke="midnightblue" d="M278.31,-336.27C252.18,-319.98 201.5,-282.3 201.5,-235 201.5,-235 201.5,-235 201.5,-177 201.5,-118.69 269.35,-90.79 323.96,-77.78"/>
<polygon fill="midnightblue" stroke="midnightblue" points="324.99,-81.13 333.98,-75.52 323.45,-74.3 324.99,-81.13"/>
</g>
<!-- Node14 -->
<g id="node14" class="node">
<title>Node14</title>
<g id="a_node14"><a xlink:href="../../db/d02/Settings_8hpp.html" target="_top" xlink:title="All user settings and debugging options can be changed here.">
<polygon fill="white" stroke="black" points="291,-280.5 291,-299.5 368,-299.5 368,-280.5 291,-280.5"/>
<text text-anchor="middle" x="329.5" y="-287.5" font-family="Helvetica,sans-Serif" font-size="10.00">Settings.hpp</text>
</a>
</g>
</g>
<!-- Node13&#45;&gt;Node14 -->
<g id="edge17" class="edge">
<title>Node13&#45;&gt;Node14</title>
<path fill="none" stroke="midnightblue" d="M299.44,-336.08C304.48,-328.53 311.84,-317.49 318.01,-308.23"/>
<polygon fill="midnightblue" stroke="midnightblue" points="321.03,-310.01 323.67,-299.75 315.21,-306.13 321.03,-310.01"/>
</g>
<!-- Node20 -->
<g id="node20" class="node">
<title>Node20</title>
<g id="a_node20"><a xlink:href="../../d9/d98/TeensyUSBTypes_8hpp.html" target="_top" xlink:title=" ">
<polygon fill="white" stroke="black" points="0,-280.5 0,-299.5 173,-299.5 173,-280.5 0,-280.5"/>
<text text-anchor="middle" x="86.5" y="-287.5" font-family="Helvetica,sans-Serif" font-size="10.00">AH/Teensy/TeensyUSBTypes.hpp</text>
</a>
</g>
</g>
<!-- Node13&#45;&gt;Node20 -->
<g id="edge25" class="edge">
<title>Node13&#45;&gt;Node20</title>
<path fill="none" stroke="midnightblue" d="M260.7,-336.44C225.12,-327.16 168.19,-312.31 129.15,-302.13"/>
<polygon fill="midnightblue" stroke="midnightblue" points="129.71,-298.65 119.15,-299.52 127.94,-305.43 129.71,-298.65"/>
</g>
<!-- Node15 -->
<g id="node15" class="node">
<title>Node15</title>
<g id="a_node15"><a xlink:href="../../dc/d50/Frequency_8hpp.html" target="_top" xlink:title=" ">
<polygon fill="white" stroke="black" points="229.5,-168.5 229.5,-187.5 363.5,-187.5 363.5,-168.5 229.5,-168.5"/>
<text text-anchor="middle" x="296.5" y="-175.5" font-family="Helvetica,sans-Serif" font-size="10.00">AH/Types/Frequency.hpp</text>
</a>
</g>
</g>
<!-- Node14&#45;&gt;Node15 -->
<g id="edge18" class="edge">
<title>Node14&#45;&gt;Node15</title>
<path fill="none" stroke="midnightblue" d="M304.34,-280.38C288.08,-273.34 268.21,-261.65 258.5,-244 249.12,-226.96 263.49,-207.77 277.16,-194.68"/>
<polygon fill="midnightblue" stroke="midnightblue" points="279.8,-197.01 284.94,-187.75 275.15,-191.79 279.8,-197.01"/>
</g>
<!-- Node16 -->
<g id="node16" class="node">
<title>Node16</title>
<g id="a_node16"><a xlink:href="../../d7/d7c/ADCConfig_8hpp.html" target="_top" xlink:title="This file contains the platform&#45;specific ADC resolutions.">
<polygon fill="white" stroke="black" points="485,-224.5 485,-243.5 642,-243.5 642,-224.5 485,-224.5"/>
<text text-anchor="middle" x="563.5" y="-231.5" font-family="Helvetica,sans-Serif" font-size="10.00">AH/Hardware/ADCConfig.hpp</text>
</a>
</g>
</g>
<!-- Node14&#45;&gt;Node16 -->
<g id="edge20" class="edge">
<title>Node14&#45;&gt;Node16</title>
<path fill="none" stroke="midnightblue" d="M366.58,-280.44C407.23,-271.06 472.53,-255.99 516.68,-245.8"/>
<polygon fill="midnightblue" stroke="midnightblue" points="517.64,-249.18 526.6,-243.52 516.06,-242.35 517.64,-249.18"/>
</g>
<!-- Node17 -->
<g id="node17" class="node">
<title>Node17</title>
<g id="a_node17"><a xlink:title=" ">
<polygon fill="white" stroke="#bfbfbf" points="339,-224.5 339,-243.5 392,-243.5 392,-224.5 339,-224.5"/>
<text text-anchor="middle" x="365.5" y="-231.5" font-family="Helvetica,sans-Serif" font-size="10.00">limits.h</text>
</a>
</g>
</g>
<!-- Node14&#45;&gt;Node17 -->
<g id="edge22" class="edge">
<title>Node14&#45;&gt;Node17</title>
<path fill="none" stroke="midnightblue" d="M335.44,-280.08C340.48,-272.53 347.84,-261.49 354.01,-252.23"/>
<polygon fill="midnightblue" stroke="midnightblue" points="357.03,-254.01 359.67,-243.75 351.21,-250.13 357.03,-254.01"/>
</g>
<!-- Node18 -->
<g id="node18" class="node">
<title>Node18</title>
<g id="a_node18"><a xlink:title=" ">
<polygon fill="white" stroke="#bfbfbf" points="410.5,-224.5 410.5,-243.5 466.5,-243.5 466.5,-224.5 410.5,-224.5"/>
<text text-anchor="middle" x="438.5" y="-231.5" font-family="Helvetica,sans-Serif" font-size="10.00">stddef.h</text>
</a>
</g>
</g>
<!-- Node14&#45;&gt;Node18 -->
<g id="edge23" class="edge">
<title>Node14&#45;&gt;Node18</title>
<path fill="none" stroke="midnightblue" d="M347.01,-280.32C364.57,-271.62 391.83,-258.12 412.03,-248.11"/>
<polygon fill="midnightblue" stroke="midnightblue" points="413.62,-251.23 421.03,-243.65 410.52,-244.96 413.62,-251.23"/>
</g>
<!-- Node19 -->
<g id="node19" class="node">
<title>Node19</title>
<g id="a_node19"><a xlink:title=" ">
<polygon fill="white" stroke="#bfbfbf" points="268,-224.5 268,-243.5 321,-243.5 321,-224.5 268,-224.5"/>
<text text-anchor="middle" x="294.5" y="-231.5" font-family="Helvetica,sans-Serif" font-size="10.00">stdint.h</text>
</a>
</g>
</g>
<!-- Node14&#45;&gt;Node19 -->
<g id="edge24" class="edge">
<title>Node14&#45;&gt;Node19</title>
<path fill="none" stroke="midnightblue" d="M323.72,-280.08C318.83,-272.53 311.67,-261.49 305.67,-252.23"/>
<polygon fill="midnightblue" stroke="midnightblue" points="308.55,-250.24 300.17,-243.75 302.67,-254.05 308.55,-250.24"/>
</g>
<!-- Node15&#45;&gt;Node11 -->
<g id="edge19" class="edge">
<title>Node15&#45;&gt;Node11</title>
<path fill="none" stroke="midnightblue" d="M303.95,-168.37C319.77,-150.05 356.91,-107.05 377.37,-83.36"/>
<polygon fill="midnightblue" stroke="midnightblue" points="380.19,-85.45 384.08,-75.59 374.9,-80.87 380.19,-85.45"/>
</g>
<!-- Node16&#45;&gt;Node6 -->
<g id="edge21" class="edge">
<title>Node16&#45;&gt;Node6</title>
<path fill="none" stroke="midnightblue" d="M571.76,-224.08C578.96,-216.3 589.61,-204.8 598.35,-195.37"/>
<polygon fill="midnightblue" stroke="midnightblue" points="601.17,-197.47 605.4,-187.75 596.03,-192.71 601.17,-197.47"/>
</g>
</g>
</svg>
