<?xml version="1.0" encoding="UTF-8" standalone="no"?>
<!DOCTYPE svg PUBLIC "-//W3C//DTD SVG 1.1//EN"
 "http://www.w3.org/Graphics/SVG/1.1/DTD/svg11.dtd">
<!-- Generated by graphviz version 2.43.0 (0)
 -->
<!-- Title: StaticSizeExtendedIOElement.hpp Pages: 1 -->
<svg width="1651pt" height="834pt"
 viewBox="0.00 0.00 1650.50 834.00" xmlns="http://www.w3.org/2000/svg" xmlns:xlink="http://www.w3.org/1999/xlink">
<g id="graph0" class="graph" transform="scale(1 1) rotate(0) translate(4 830)">
<title>StaticSizeExtendedIOElement.hpp</title>
<polygon fill="white" stroke="transparent" points="-4,4 -4,-830 1646.5,-830 1646.5,4 -4,4"/>
<!-- Node1 -->
<g id="node1" class="node">
<title>Node1</title>
<g id="a_node1"><a xlink:title=" ">
<polygon fill="#bfbfbf" stroke="black" points="1436.5,-806.5 1436.5,-825.5 1618.5,-825.5 1618.5,-806.5 1436.5,-806.5"/>
<text text-anchor="middle" x="1527.5" y="-813.5" font-family="Helvetica,sans-Serif" font-size="10.00">StaticSizeExtendedIOElement.hpp</text>
</a>
</g>
</g>
<!-- Node2 -->
<g id="node2" class="node">
<title>Node2</title>
<g id="a_node2"><a xlink:href="../../d1/d65/Warnings_8hpp.html" target="_top" xlink:title=" ">
<polygon fill="white" stroke="black" points="960,-0.5 960,-19.5 1103,-19.5 1103,-0.5 960,-0.5"/>
<text text-anchor="middle" x="1031.5" y="-7.5" font-family="Helvetica,sans-Serif" font-size="10.00">AH/Settings/Warnings.hpp</text>
</a>
</g>
</g>
<!-- Node1&#45;&gt;Node2 -->
<g id="edge1" class="edge">
<title>Node1&#45;&gt;Node2</title>
<path fill="none" stroke="midnightblue" d="M1548.33,-806.47C1581.47,-791.36 1642.5,-756.53 1642.5,-705 1642.5,-705 1642.5,-705 1642.5,-121 1642.5,-44.24 1557.01,-74.44 1482.5,-56 1356.05,-24.7 1204.55,-15.06 1113.27,-12.16"/>
<polygon fill="midnightblue" stroke="midnightblue" points="1113.36,-8.66 1103.26,-11.86 1113.16,-15.66 1113.36,-8.66"/>
</g>
<!-- Node3 -->
<g id="node3" class="node">
<title>Node3</title>
<g id="a_node3"><a xlink:href="../../d4/d57/ExtendedIOElement_8hpp.html" target="_top" xlink:title=" ">
<polygon fill="white" stroke="black" points="878.5,-750.5 878.5,-769.5 1012.5,-769.5 1012.5,-750.5 878.5,-750.5"/>
<text text-anchor="middle" x="945.5" y="-757.5" font-family="Helvetica,sans-Serif" font-size="10.00">ExtendedIOElement.hpp</text>
</a>
</g>
</g>
<!-- Node1&#45;&gt;Node3 -->
<g id="edge2" class="edge">
<title>Node1&#45;&gt;Node3</title>
<path fill="none" stroke="midnightblue" d="M1436.24,-806.53C1322.35,-795.97 1129.57,-778.08 1022.68,-768.16"/>
<polygon fill="midnightblue" stroke="midnightblue" points="1022.89,-764.67 1012.61,-767.23 1022.24,-771.64 1022.89,-764.67"/>
</g>
<!-- Node36 -->
<g id="node36" class="node">
<title>Node36</title>
<g id="a_node36"><a xlink:href="../../d5/db6/ArrayHelpers_8hpp.html" target="_top" xlink:title=" ">
<polygon fill="white" stroke="black" points="1440.5,-566 1440.5,-585 1614.5,-585 1614.5,-566 1440.5,-566"/>
<text text-anchor="middle" x="1527.5" y="-573" font-family="Helvetica,sans-Serif" font-size="10.00">AH/Containers/ArrayHelpers.hpp</text>
</a>
</g>
</g>
<!-- Node1&#45;&gt;Node36 -->
<g id="edge73" class="edge">
<title>Node1&#45;&gt;Node36</title>
<path fill="none" stroke="midnightblue" d="M1527.5,-806.23C1527.5,-771.6 1527.5,-643.93 1527.5,-595.4"/>
<polygon fill="midnightblue" stroke="midnightblue" points="1531,-595.1 1527.5,-585.1 1524,-595.1 1531,-595.1"/>
</g>
<!-- Node3&#45;&gt;Node2 -->
<g id="edge3" class="edge">
<title>Node3&#45;&gt;Node2</title>
<path fill="none" stroke="midnightblue" d="M987.78,-750.45C1108.57,-723.31 1446.5,-627.34 1446.5,-403 1446.5,-403 1446.5,-403 1446.5,-121 1446.5,-52.76 1234.2,-25.86 1113.29,-16.08"/>
<polygon fill="midnightblue" stroke="midnightblue" points="1113.56,-12.59 1103.31,-15.29 1113.01,-19.57 1113.56,-12.59"/>
</g>
<!-- Node4 -->
<g id="node4" class="node">
<title>Node4</title>
<g id="a_node4"><a xlink:href="../../dd/ddf/ExtendedInputOutput_8hpp.html" target="_top" xlink:title=" ">
<polygon fill="white" stroke="black" points="154,-694.5 154,-713.5 295,-713.5 295,-694.5 154,-694.5"/>
<text text-anchor="middle" x="224.5" y="-701.5" font-family="Helvetica,sans-Serif" font-size="10.00">ExtendedInputOutput.hpp</text>
</a>
</g>
</g>
<!-- Node3&#45;&gt;Node4 -->
<g id="edge4" class="edge">
<title>Node3&#45;&gt;Node4</title>
<path fill="none" stroke="midnightblue" d="M878.32,-753.97C745.26,-744 448.71,-721.79 305.28,-711.05"/>
<polygon fill="midnightblue" stroke="midnightblue" points="305.45,-707.55 295.22,-710.3 304.93,-714.53 305.45,-707.55"/>
</g>
<!-- Node6 -->
<g id="node6" class="node">
<title>Node6</title>
<g id="a_node6"><a xlink:href="../../d4/d35/Hardware-Types_8hpp.html" target="_top" xlink:title=" ">
<polygon fill="white" stroke="black" points="468,-560.5 468,-590.5 599,-590.5 599,-560.5 468,-560.5"/>
<text text-anchor="start" x="476" y="-578.5" font-family="Helvetica,sans-Serif" font-size="10.00">AH/Hardware/Hardware</text>
<text text-anchor="middle" x="533.5" y="-567.5" font-family="Helvetica,sans-Serif" font-size="10.00">&#45;Types.hpp</text>
</a>
</g>
</g>
<!-- Node3&#45;&gt;Node6 -->
<g id="edge72" class="edge">
<title>Node3&#45;&gt;Node6</title>
<path fill="none" stroke="midnightblue" d="M926.18,-750.44C863.08,-722.49 662.09,-633.46 574.72,-594.76"/>
<polygon fill="midnightblue" stroke="midnightblue" points="575.94,-591.47 565.38,-590.62 573.11,-597.87 575.94,-591.47"/>
</g>
<!-- Node31 -->
<g id="node31" class="node">
<title>Node31</title>
<g id="a_node31"><a xlink:href="../../d4/d93/Updatable_8hpp.html" target="_top" xlink:title=" ">
<polygon fill="white" stroke="black" points="865,-504.5 865,-523.5 1026,-523.5 1026,-504.5 865,-504.5"/>
<text text-anchor="middle" x="945.5" y="-511.5" font-family="Helvetica,sans-Serif" font-size="10.00">AH/Containers/Updatable.hpp</text>
</a>
</g>
</g>
<!-- Node3&#45;&gt;Node31 -->
<g id="edge58" class="edge">
<title>Node3&#45;&gt;Node31</title>
<path fill="none" stroke="midnightblue" d="M945.5,-750.32C945.5,-715.18 945.5,-583.12 945.5,-533.76"/>
<polygon fill="midnightblue" stroke="midnightblue" points="949,-533.58 945.5,-523.58 942,-533.58 949,-533.58"/>
</g>
<!-- Node4&#45;&gt;Node2 -->
<g id="edge57" class="edge">
<title>Node4&#45;&gt;Node2</title>
<path fill="none" stroke="midnightblue" d="M219.99,-694.37C209.93,-674.29 186.5,-622.59 186.5,-576.5 186.5,-576.5 186.5,-576.5 186.5,-401 186.5,-228.46 210.67,-134.13 364.5,-56 415.46,-30.11 782.98,-17.42 949.67,-12.94"/>
<polygon fill="midnightblue" stroke="midnightblue" points="949.96,-16.44 959.87,-12.67 949.78,-9.44 949.96,-16.44"/>
</g>
<!-- Node5 -->
<g id="node5" class="node">
<title>Node5</title>
<g id="a_node5"><a xlink:href="../../d2/d3c/Arduino-Hardware-Types_8hpp.html" target="_top" xlink:title=" ">
<polygon fill="white" stroke="black" points="252.5,-627.5 252.5,-657.5 374.5,-657.5 374.5,-627.5 252.5,-627.5"/>
<text text-anchor="start" x="260.5" y="-645.5" font-family="Helvetica,sans-Serif" font-size="10.00">AH/Hardware/Arduino</text>
<text text-anchor="middle" x="313.5" y="-634.5" font-family="Helvetica,sans-Serif" font-size="10.00">&#45;Hardware&#45;Types.hpp</text>
</a>
</g>
</g>
<!-- Node4&#45;&gt;Node5 -->
<g id="edge5" class="edge">
<title>Node4&#45;&gt;Node5</title>
<path fill="none" stroke="midnightblue" d="M237.25,-694.48C249.42,-686.34 268.19,-673.79 284.06,-663.18"/>
<polygon fill="midnightblue" stroke="midnightblue" points="286.16,-665.99 292.52,-657.52 282.27,-660.17 286.16,-665.99"/>
</g>
<!-- Node11 -->
<g id="node11" class="node">
<title>Node11</title>
<g id="a_node11"><a xlink:href="../../dc/dc7/NamespaceSettings_8hpp.html" target="_top" xlink:title=" ">
<polygon fill="white" stroke="black" points="549,-56.5 549,-75.5 744,-75.5 744,-56.5 549,-56.5"/>
<text text-anchor="middle" x="646.5" y="-63.5" font-family="Helvetica,sans-Serif" font-size="10.00">AH/Settings/NamespaceSettings.hpp</text>
</a>
</g>
</g>
<!-- Node4&#45;&gt;Node11 -->
<g id="edge56" class="edge">
<title>Node4&#45;&gt;Node11</title>
<path fill="none" stroke="midnightblue" d="M226.88,-694.21C235.2,-662.66 262.5,-552.03 262.5,-459 262.5,-459 262.5,-459 262.5,-345 262.5,-181.52 493.69,-104.36 597.3,-77.99"/>
<polygon fill="midnightblue" stroke="midnightblue" points="598.35,-81.34 607.21,-75.53 596.66,-74.55 598.35,-81.34"/>
</g>
<!-- Node30 -->
<g id="node30" class="node">
<title>Node30</title>
<g id="a_node30"><a xlink:title=" ">
<polygon fill="white" stroke="#bfbfbf" points="71,-633 71,-652 158,-652 158,-633 71,-633"/>
<text text-anchor="middle" x="114.5" y="-640" font-family="Helvetica,sans-Serif" font-size="10.00">AH/STL/climits</text>
</a>
</g>
</g>
<!-- Node4&#45;&gt;Node30 -->
<g id="edge55" class="edge">
<title>Node4&#45;&gt;Node30</title>
<path fill="none" stroke="midnightblue" d="M208.74,-694.48C190.52,-684.62 160.33,-668.29 139.03,-656.77"/>
<polygon fill="midnightblue" stroke="midnightblue" points="140.69,-653.69 130.23,-652.01 137.36,-659.85 140.69,-653.69"/>
</g>
<!-- Node5&#45;&gt;Node2 -->
<g id="edge6" class="edge">
<title>Node5&#45;&gt;Node2</title>
<path fill="none" stroke="midnightblue" d="M311.05,-627.13C307.29,-603.72 300.5,-555.84 300.5,-515 300.5,-515 300.5,-515 300.5,-289 300.5,-177.17 300.42,-114.88 395.5,-56 441.51,-27.5 788.44,-16.28 949.63,-12.57"/>
<polygon fill="midnightblue" stroke="midnightblue" points="950.06,-16.07 959.98,-12.34 949.9,-9.07 950.06,-16.07"/>
</g>
<!-- Node5&#45;&gt;Node6 -->
<g id="edge7" class="edge">
<title>Node5&#45;&gt;Node6</title>
<path fill="none" stroke="midnightblue" d="M360.97,-627.48C394.68,-617.51 440.13,-604.09 475.92,-593.51"/>
<polygon fill="midnightblue" stroke="midnightblue" points="477.14,-596.8 485.74,-590.61 475.16,-590.09 477.14,-596.8"/>
</g>
<!-- Node12 -->
<g id="node12" class="node">
<title>Node12</title>
<g id="a_node12"><a xlink:href="../../d6/ddf/Arduino-Wrapper_8h.html" target="_top" xlink:title=" ">
<polygon fill="white" stroke="black" points="643.5,-168.5 643.5,-187.5 767.5,-187.5 767.5,-168.5 643.5,-168.5"/>
<text text-anchor="middle" x="705.5" y="-175.5" font-family="Helvetica,sans-Serif" font-size="10.00">AH/Arduino&#45;Wrapper.h</text>
</a>
</g>
</g>
<!-- Node5&#45;&gt;Node12 -->
<g id="edge54" class="edge">
<title>Node5&#45;&gt;Node12</title>
<path fill="none" stroke="midnightblue" d="M318.2,-627.26C325.44,-604.03 338.5,-556.42 338.5,-515 338.5,-515 338.5,-515 338.5,-345 338.5,-216.96 526.23,-187.16 633.16,-180.57"/>
<polygon fill="midnightblue" stroke="midnightblue" points="633.46,-184.06 643.24,-180 633.06,-177.07 633.46,-184.06"/>
</g>
<!-- Node27 -->
<g id="node27" class="node">
<title>Node27</title>
<g id="a_node27"><a xlink:href="../../d0/db1/FunctionTraits_8hpp.html" target="_top" xlink:title=" ">
<polygon fill="white" stroke="black" points="72,-112.5 72,-131.5 225,-131.5 225,-112.5 72,-112.5"/>
<text text-anchor="middle" x="148.5" y="-119.5" font-family="Helvetica,sans-Serif" font-size="10.00">AH/Types/FunctionTraits.hpp</text>
</a>
</g>
</g>
<!-- Node5&#45;&gt;Node27 -->
<g id="edge49" class="edge">
<title>Node5&#45;&gt;Node27</title>
<path fill="none" stroke="midnightblue" d="M300.75,-627.06C276.14,-597.65 224.5,-527.74 224.5,-459 224.5,-459 224.5,-459 224.5,-401 224.5,-299.77 177.03,-184.91 157.12,-141.19"/>
<polygon fill="midnightblue" stroke="midnightblue" points="160.19,-139.48 152.8,-131.88 153.84,-142.42 160.19,-139.48"/>
</g>
<!-- Node6&#45;&gt;Node2 -->
<g id="edge8" class="edge">
<title>Node6&#45;&gt;Node2</title>
<path fill="none" stroke="midnightblue" d="M467.69,-563.65C442.08,-556.36 414.41,-544.21 395.5,-524 374.94,-502.02 376.5,-489.1 376.5,-459 376.5,-459 376.5,-459 376.5,-121 376.5,-82.28 399.79,-73.14 434.5,-56 479.54,-33.76 796.96,-19.45 949.73,-13.77"/>
<polygon fill="midnightblue" stroke="midnightblue" points="950.13,-17.26 959.99,-13.39 949.87,-10.26 950.13,-17.26"/>
</g>
<!-- Node7 -->
<g id="node7" class="node">
<title>Node7</title>
<g id="a_node7"><a xlink:href="../../de/d76/Array_8hpp.html" target="_top" xlink:title=" ">
<polygon fill="white" stroke="black" points="619,-504.5 619,-523.5 754,-523.5 754,-504.5 619,-504.5"/>
<text text-anchor="middle" x="686.5" y="-511.5" font-family="Helvetica,sans-Serif" font-size="10.00">AH/Containers/Array.hpp</text>
</a>
</g>
</g>
<!-- Node6&#45;&gt;Node7 -->
<g id="edge9" class="edge">
<title>Node6&#45;&gt;Node7</title>
<path fill="none" stroke="midnightblue" d="M569.76,-560.4C595.54,-550.37 629.86,-537.03 654.6,-527.4"/>
<polygon fill="midnightblue" stroke="midnightblue" points="656.19,-530.54 664.24,-523.66 653.65,-524.02 656.19,-530.54"/>
</g>
<!-- Node10 -->
<g id="node10" class="node">
<title>Node10</title>
<g id="a_node10"><a xlink:href="../../dd/d80/PrintStream_8hpp.html" target="_top" xlink:title=" ">
<polygon fill="white" stroke="black" points="761,-336.5 761,-355.5 934,-355.5 934,-336.5 761,-336.5"/>
<text text-anchor="middle" x="847.5" y="-343.5" font-family="Helvetica,sans-Serif" font-size="10.00">AH/PrintStream/PrintStream.hpp</text>
</a>
</g>
</g>
<!-- Node6&#45;&gt;Node10 -->
<g id="edge45" class="edge">
<title>Node6&#45;&gt;Node10</title>
<path fill="none" stroke="midnightblue" d="M545.43,-560.21C574.12,-526.63 650.56,-441.78 730.5,-392 754.02,-377.35 783.08,-366.15 806.36,-358.58"/>
<polygon fill="midnightblue" stroke="midnightblue" points="807.46,-361.9 815.95,-355.56 805.36,-355.22 807.46,-361.9"/>
</g>
<!-- Node6&#45;&gt;Node11 -->
<g id="edge47" class="edge">
<title>Node6&#45;&gt;Node11</title>
<path fill="none" stroke="midnightblue" d="M530.85,-560.24C528,-545.84 522.98,-523.07 516.5,-504 510.87,-487.42 504.13,-485.13 500.5,-468 483.93,-389.94 499.74,-175.93 547.5,-112 559.32,-96.17 578.02,-85.77 595.99,-79"/>
<polygon fill="midnightblue" stroke="midnightblue" points="597.54,-82.16 605.86,-75.59 595.26,-75.55 597.54,-82.16"/>
</g>
<!-- Node23 -->
<g id="node23" class="node">
<title>Node23</title>
<g id="a_node23"><a xlink:title=" ">
<polygon fill="white" stroke="#bfbfbf" points="633,-224.5 633,-243.5 686,-243.5 686,-224.5 633,-224.5"/>
<text text-anchor="middle" x="659.5" y="-231.5" font-family="Helvetica,sans-Serif" font-size="10.00">stdint.h</text>
</a>
</g>
</g>
<!-- Node6&#45;&gt;Node23 -->
<g id="edge48" class="edge">
<title>Node6&#45;&gt;Node23</title>
<path fill="none" stroke="midnightblue" d="M527.17,-560.39C520.3,-545.71 508.55,-522.36 495.5,-504 482.92,-486.31 470.37,-488.23 462.5,-468 459.28,-459.72 459.26,-456.28 462.5,-448 498.51,-356.04 594.9,-280.01 638.08,-249.44"/>
<polygon fill="midnightblue" stroke="midnightblue" points="640.23,-252.21 646.44,-243.62 636.23,-246.46 640.23,-252.21"/>
</g>
<!-- Node26 -->
<g id="node26" class="node">
<title>Node26</title>
<g id="a_node26"><a xlink:title=" ">
<polygon fill="white" stroke="#bfbfbf" points="404.5,-504.5 404.5,-523.5 486.5,-523.5 486.5,-504.5 404.5,-504.5"/>
<text text-anchor="middle" x="445.5" y="-511.5" font-family="Helvetica,sans-Serif" font-size="10.00">AH/STL/limits</text>
</a>
</g>
</g>
<!-- Node6&#45;&gt;Node26 -->
<g id="edge46" class="edge">
<title>Node6&#45;&gt;Node26</title>
<path fill="none" stroke="midnightblue" d="M512.65,-560.4C498.8,-551.04 480.69,-538.79 466.76,-529.38"/>
<polygon fill="midnightblue" stroke="midnightblue" points="468.55,-526.36 458.3,-523.66 464.63,-532.16 468.55,-526.36"/>
</g>
<!-- Node7&#45;&gt;Node2 -->
<g id="edge10" class="edge">
<title>Node7&#45;&gt;Node2</title>
<path fill="none" stroke="midnightblue" d="M666.5,-504.48C603.68,-476.22 414.5,-379.16 414.5,-235 414.5,-235 414.5,-235 414.5,-121 414.5,-80.77 441.12,-73.17 477.5,-56 558.99,-17.53 816.43,-11.24 949.72,-10.65"/>
<polygon fill="midnightblue" stroke="midnightblue" points="949.9,-14.15 959.88,-10.62 949.87,-7.15 949.9,-14.15"/>
</g>
<!-- Node8 -->
<g id="node8" class="node">
<title>Node8</title>
<g id="a_node8"><a xlink:href="../../d1/d93/Error_8hpp.html" target="_top" xlink:title=" ">
<polygon fill="white" stroke="black" points="694.5,-448.5 694.5,-467.5 798.5,-467.5 798.5,-448.5 694.5,-448.5"/>
<text text-anchor="middle" x="746.5" y="-455.5" font-family="Helvetica,sans-Serif" font-size="10.00">AH/Error/Error.hpp</text>
</a>
</g>
</g>
<!-- Node7&#45;&gt;Node8 -->
<g id="edge11" class="edge">
<title>Node7&#45;&gt;Node8</title>
<path fill="none" stroke="midnightblue" d="M696.14,-504.32C705.01,-496.34 718.37,-484.31 729.11,-474.65"/>
<polygon fill="midnightblue" stroke="midnightblue" points="731.59,-477.13 736.68,-467.83 726.91,-471.92 731.59,-477.13"/>
</g>
<!-- Node16 -->
<g id="node16" class="node">
<title>Node16</title>
<g id="a_node16"><a xlink:title=" ">
<polygon fill="white" stroke="#bfbfbf" points="557,-112.5 557,-131.5 664,-131.5 664,-112.5 557,-112.5"/>
<text text-anchor="middle" x="610.5" y="-119.5" font-family="Helvetica,sans-Serif" font-size="10.00">AH/STL/type_traits</text>
</a>
</g>
</g>
<!-- Node7&#45;&gt;Node16 -->
<g id="edge43" class="edge">
<title>Node7&#45;&gt;Node16</title>
<path fill="none" stroke="midnightblue" d="M680.82,-504.14C663.06,-475.83 608.66,-384.47 590.5,-300 578.17,-242.64 578.32,-225.39 590.5,-168 592.5,-158.59 596.6,-148.76 600.57,-140.7"/>
<polygon fill="midnightblue" stroke="midnightblue" points="603.81,-142.07 605.37,-131.59 597.61,-138.81 603.81,-142.07"/>
</g>
<!-- Node22 -->
<g id="node22" class="node">
<title>Node22</title>
<g id="a_node22"><a xlink:title=" ">
<polygon fill="white" stroke="#bfbfbf" points="704.5,-224.5 704.5,-243.5 760.5,-243.5 760.5,-224.5 704.5,-224.5"/>
<text text-anchor="middle" x="732.5" y="-231.5" font-family="Helvetica,sans-Serif" font-size="10.00">stddef.h</text>
</a>
</g>
</g>
<!-- Node7&#45;&gt;Node22 -->
<g id="edge44" class="edge">
<title>Node7&#45;&gt;Node22</title>
<path fill="none" stroke="midnightblue" d="M683.35,-504.2C679.27,-491.74 672.95,-468.21 675.5,-448 684.78,-374.34 712.71,-290.04 725.71,-253.5"/>
<polygon fill="midnightblue" stroke="midnightblue" points="729.12,-254.35 729.23,-243.76 722.54,-251.97 729.12,-254.35"/>
</g>
<!-- Node25 -->
<g id="node25" class="node">
<title>Node25</title>
<g id="a_node25"><a xlink:title=" ">
<polygon fill="white" stroke="#bfbfbf" points="739.5,-392.5 739.5,-411.5 829.5,-411.5 829.5,-392.5 739.5,-392.5"/>
<text text-anchor="middle" x="784.5" y="-399.5" font-family="Helvetica,sans-Serif" font-size="10.00">AH/STL/iterator</text>
</a>
</g>
</g>
<!-- Node7&#45;&gt;Node25 -->
<g id="edge42" class="edge">
<title>Node7&#45;&gt;Node25</title>
<path fill="none" stroke="midnightblue" d="M683.51,-504.18C679.58,-490.84 674.38,-465.27 685.5,-448 695.81,-431.99 713.35,-421.62 730.83,-414.92"/>
<polygon fill="midnightblue" stroke="midnightblue" points="732.2,-418.15 740.49,-411.56 729.9,-411.54 732.2,-418.15"/>
</g>
<!-- Node8&#45;&gt;Node2 -->
<g id="edge12" class="edge">
<title>Node8&#45;&gt;Node2</title>
<path fill="none" stroke="midnightblue" d="M728.99,-448.39C665.7,-416.68 452.5,-304.71 452.5,-235 452.5,-235 452.5,-235 452.5,-121 452.5,-72.73 494.44,-73.29 539.5,-56 612.25,-28.08 829.59,-17.12 949.62,-13.12"/>
<polygon fill="midnightblue" stroke="midnightblue" points="949.98,-16.61 959.86,-12.78 949.75,-9.61 949.98,-16.61"/>
</g>
<!-- Node9 -->
<g id="node9" class="node">
<title>Node9</title>
<g id="a_node9"><a xlink:href="../../df/dee/Debug_8hpp.html" target="_top" xlink:title=" ">
<polygon fill="white" stroke="black" points="943,-392.5 943,-411.5 1064,-411.5 1064,-392.5 943,-392.5"/>
<text text-anchor="middle" x="1003.5" y="-399.5" font-family="Helvetica,sans-Serif" font-size="10.00">AH/Debug/Debug.hpp</text>
</a>
</g>
</g>
<!-- Node8&#45;&gt;Node9 -->
<g id="edge13" class="edge">
<title>Node8&#45;&gt;Node9</title>
<path fill="none" stroke="midnightblue" d="M787.22,-448.44C832.15,-439 904.5,-423.8 953,-413.61"/>
<polygon fill="midnightblue" stroke="midnightblue" points="953.9,-417 962.97,-411.52 952.46,-410.15 953.9,-417"/>
</g>
<!-- Node9&#45;&gt;Node2 -->
<g id="edge14" class="edge">
<title>Node9&#45;&gt;Node2</title>
<path fill="none" stroke="midnightblue" d="M995.21,-392.27C976.11,-371.92 930.03,-321.42 922.5,-300 911.3,-268.13 913.25,-256.49 922.5,-224 935.67,-177.74 957.28,-174.66 979.5,-132 997.91,-96.65 1015.36,-53.35 1024.62,-29.3"/>
<polygon fill="midnightblue" stroke="midnightblue" points="1027.98,-30.3 1028.27,-19.71 1021.44,-27.81 1027.98,-30.3"/>
</g>
<!-- Node9&#45;&gt;Node10 -->
<g id="edge15" class="edge">
<title>Node9&#45;&gt;Node10</title>
<path fill="none" stroke="midnightblue" d="M978.78,-392.44C952.65,-383.4 911.24,-369.06 881.92,-358.92"/>
<polygon fill="midnightblue" stroke="midnightblue" points="882.7,-355.48 872.1,-355.52 880.41,-362.1 882.7,-355.48"/>
</g>
<!-- Node17 -->
<g id="node17" class="node">
<title>Node17</title>
<g id="a_node17"><a xlink:href="../../d2/dd5/SettingsWrapper_8hpp.html" target="_top" xlink:title=" ">
<polygon fill="white" stroke="black" points="990.5,-336.5 990.5,-355.5 1168.5,-355.5 1168.5,-336.5 990.5,-336.5"/>
<text text-anchor="middle" x="1079.5" y="-343.5" font-family="Helvetica,sans-Serif" font-size="10.00">AH/Settings/SettingsWrapper.hpp</text>
</a>
</g>
</g>
<!-- Node9&#45;&gt;Node17 -->
<g id="edge27" class="edge">
<title>Node9&#45;&gt;Node17</title>
<path fill="none" stroke="midnightblue" d="M1010.6,-392.32C1020.63,-383.9 1038.53,-370.97 1053.68,-361.07"/>
<polygon fill="midnightblue" stroke="midnightblue" points="1055.65,-363.97 1062.21,-355.65 1051.89,-358.06 1055.65,-363.97"/>
</g>
<!-- Node10&#45;&gt;Node2 -->
<g id="edge17" class="edge">
<title>Node10&#45;&gt;Node2</title>
<path fill="none" stroke="midnightblue" d="M889.86,-336.45C924.75,-328.78 975.17,-316.24 1017.5,-300 1035.69,-293.02 1038.23,-286.75 1056.5,-280 1121.22,-256.09 1157.5,-291.54 1207.5,-244 1229.31,-223.26 1226.5,-209.1 1226.5,-179 1226.5,-179 1226.5,-179 1226.5,-121 1226.5,-62.24 1158.5,-34.52 1102.81,-21.67"/>
<polygon fill="midnightblue" stroke="midnightblue" points="1103.45,-18.23 1092.93,-19.51 1101.95,-25.07 1103.45,-18.23"/>
</g>
<!-- Node10&#45;&gt;Node11 -->
<g id="edge16" class="edge">
<title>Node10&#45;&gt;Node11</title>
<path fill="none" stroke="midnightblue" d="M845.76,-336.46C839.91,-309.45 818.95,-224.32 776.5,-168 747.44,-129.45 700.14,-97.8 671.31,-80.73"/>
<polygon fill="midnightblue" stroke="midnightblue" points="672.71,-77.49 662.3,-75.51 669.2,-83.55 672.71,-77.49"/>
</g>
<!-- Node10&#45;&gt;Node12 -->
<g id="edge18" class="edge">
<title>Node10&#45;&gt;Node12</title>
<path fill="none" stroke="midnightblue" d="M840.13,-336.32C832.76,-327.46 821.28,-313.18 812.5,-300 790.97,-267.71 795.57,-252.75 769.5,-224 758.27,-211.61 743.04,-200.73 730.25,-192.77"/>
<polygon fill="midnightblue" stroke="midnightblue" points="731.84,-189.65 721.47,-187.51 728.25,-195.65 731.84,-189.65"/>
</g>
<!-- Node13 -->
<g id="node13" class="node">
<title>Node13</title>
<g id="a_node13"><a xlink:href="../../d7/d79/MinMaxFix_8hpp.html" target="_top" xlink:title=" ">
<polygon fill="white" stroke="black" points="834.5,-112.5 834.5,-131.5 970.5,-131.5 970.5,-112.5 834.5,-112.5"/>
<text text-anchor="middle" x="902.5" y="-119.5" font-family="Helvetica,sans-Serif" font-size="10.00">AH/Math/MinMaxFix.hpp</text>
</a>
</g>
</g>
<!-- Node12&#45;&gt;Node13 -->
<g id="edge19" class="edge">
<title>Node12&#45;&gt;Node13</title>
<path fill="none" stroke="midnightblue" d="M736.72,-168.44C770.43,-159.2 824.3,-144.44 861.43,-134.26"/>
<polygon fill="midnightblue" stroke="midnightblue" points="862.71,-137.54 871.43,-131.52 860.86,-130.78 862.71,-137.54"/>
</g>
<!-- Node15 -->
<g id="node15" class="node">
<title>Node15</title>
<g id="a_node15"><a xlink:title=" ">
<polygon fill="white" stroke="#bfbfbf" points="543,-0.5 543,-19.5 606,-19.5 606,-0.5 543,-0.5"/>
<text text-anchor="middle" x="574.5" y="-7.5" font-family="Helvetica,sans-Serif" font-size="10.00">Arduino.h</text>
</a>
</g>
</g>
<!-- Node12&#45;&gt;Node15 -->
<g id="edge26" class="edge">
<title>Node12&#45;&gt;Node15</title>
<path fill="none" stroke="midnightblue" d="M703.54,-168.41C699.91,-154.43 690.76,-126.85 672.5,-112 624.99,-73.37 576.72,-124.63 539.5,-76 527.54,-60.37 542.52,-40.1 556.43,-26.39"/>
<polygon fill="midnightblue" stroke="midnightblue" points="558.9,-28.87 563.86,-19.51 554.14,-23.73 558.9,-28.87"/>
</g>
<!-- Node12&#45;&gt;Node16 -->
<g id="edge25" class="edge">
<title>Node12&#45;&gt;Node16</title>
<path fill="none" stroke="midnightblue" d="M690.24,-168.32C675.28,-159.82 652.25,-146.73 634.77,-136.8"/>
<polygon fill="midnightblue" stroke="midnightblue" points="636.15,-133.55 625.73,-131.65 632.69,-139.64 636.15,-133.55"/>
</g>
<!-- Node13&#45;&gt;Node2 -->
<g id="edge20" class="edge">
<title>Node13&#45;&gt;Node2</title>
<path fill="none" stroke="midnightblue" d="M912.62,-112.37C934.48,-93.73 986.31,-49.53 1013.75,-26.13"/>
<polygon fill="midnightblue" stroke="midnightblue" points="1016.09,-28.74 1021.42,-19.59 1011.54,-23.42 1016.09,-28.74"/>
</g>
<!-- Node13&#45;&gt;Node11 -->
<g id="edge24" class="edge">
<title>Node13&#45;&gt;Node11</title>
<path fill="none" stroke="midnightblue" d="M861.94,-112.44C817.18,-103 745.12,-87.8 696.8,-77.61"/>
<polygon fill="midnightblue" stroke="midnightblue" points="697.38,-74.16 686.87,-75.52 695.94,-81.01 697.38,-74.16"/>
</g>
<!-- Node14 -->
<g id="node14" class="node">
<title>Node14</title>
<g id="a_node14"><a xlink:href="../../d6/d3b/FixArduinoMacros_8hpp.html" target="_top" xlink:title=" ">
<polygon fill="white" stroke="black" points="762.5,-56.5 762.5,-75.5 932.5,-75.5 932.5,-56.5 762.5,-56.5"/>
<text text-anchor="middle" x="847.5" y="-63.5" font-family="Helvetica,sans-Serif" font-size="10.00">AH/Math/FixArduinoMacros.hpp</text>
</a>
</g>
</g>
<!-- Node13&#45;&gt;Node14 -->
<g id="edge21" class="edge">
<title>Node13&#45;&gt;Node14</title>
<path fill="none" stroke="midnightblue" d="M893.42,-112.08C885.33,-104.14 873.3,-92.34 863.59,-82.8"/>
<polygon fill="midnightblue" stroke="midnightblue" points="866,-80.26 856.41,-75.75 861.1,-85.25 866,-80.26"/>
</g>
<!-- Node14&#45;&gt;Node2 -->
<g id="edge22" class="edge">
<title>Node14&#45;&gt;Node2</title>
<path fill="none" stroke="midnightblue" d="M876.66,-56.44C908.01,-47.24 958.03,-32.56 992.7,-22.39"/>
<polygon fill="midnightblue" stroke="midnightblue" points="993.87,-25.69 1002.48,-19.52 991.9,-18.97 993.87,-25.69"/>
</g>
<!-- Node14&#45;&gt;Node15 -->
<g id="edge23" class="edge">
<title>Node14&#45;&gt;Node15</title>
<path fill="none" stroke="midnightblue" d="M804.24,-56.44C752.62,-46.23 666.92,-29.28 616.06,-19.22"/>
<polygon fill="midnightblue" stroke="midnightblue" points="616.55,-15.75 606.07,-17.24 615.2,-22.62 616.55,-15.75"/>
</g>
<!-- Node17&#45;&gt;Node2 -->
<g id="edge28" class="edge">
<title>Node17&#45;&gt;Node2</title>
<path fill="none" stroke="midnightblue" d="M1167.12,-336.5C1195.32,-330.09 1225.04,-319.03 1247.5,-300 1292.57,-261.81 1302.5,-238.07 1302.5,-179 1302.5,-179 1302.5,-179 1302.5,-121 1302.5,-81.08 1275.33,-75.51 1240.5,-56 1201.84,-34.35 1153.79,-23.1 1113.51,-17.27"/>
<polygon fill="midnightblue" stroke="midnightblue" points="1113.82,-13.78 1103.44,-15.9 1112.88,-20.72 1113.82,-13.78"/>
</g>
<!-- Node17&#45;&gt;Node9 -->
<g id="edge41" class="edge">
<title>Node17&#45;&gt;Node9</title>
<path fill="none" stroke="midnightblue" d="M1072.22,-355.83C1062.15,-364.26 1044.37,-377.1 1029.3,-386.94"/>
<polygon fill="midnightblue" stroke="midnightblue" points="1027.39,-384.01 1020.83,-392.32 1031.14,-389.91 1027.39,-384.01"/>
</g>
<!-- Node17&#45;&gt;Node11 -->
<g id="edge29" class="edge">
<title>Node17&#45;&gt;Node11</title>
<path fill="none" stroke="midnightblue" d="M1023.13,-336.43C991.82,-329.87 953.13,-318.67 922.5,-300 824.5,-240.28 838.83,-178.78 745.5,-112 726.06,-98.09 701.63,-86.93 681.91,-79.21"/>
<polygon fill="midnightblue" stroke="midnightblue" points="682.95,-75.86 672.36,-75.59 680.47,-82.4 682.95,-75.86"/>
</g>
<!-- Node18 -->
<g id="node18" class="node">
<title>Node18</title>
<g id="a_node18"><a xlink:href="../../db/d02/Settings_8hpp.html" target="_top" xlink:title="All user settings and debugging options can be changed here.">
<polygon fill="white" stroke="black" points="931,-280.5 931,-299.5 1008,-299.5 1008,-280.5 931,-280.5"/>
<text text-anchor="middle" x="969.5" y="-287.5" font-family="Helvetica,sans-Serif" font-size="10.00">Settings.hpp</text>
</a>
</g>
</g>
<!-- Node17&#45;&gt;Node18 -->
<g id="edge30" class="edge">
<title>Node17&#45;&gt;Node18</title>
<path fill="none" stroke="midnightblue" d="M1061.83,-336.32C1044.11,-327.62 1016.6,-314.12 996.21,-304.11"/>
<polygon fill="midnightblue" stroke="midnightblue" points="997.65,-300.92 987.13,-299.65 994.56,-307.2 997.65,-300.92"/>
</g>
<!-- Node24 -->
<g id="node24" class="node">
<title>Node24</title>
<g id="a_node24"><a xlink:href="../../d9/d98/TeensyUSBTypes_8hpp.html" target="_top" xlink:title=" ">
<polygon fill="white" stroke="black" points="1065,-280.5 1065,-299.5 1238,-299.5 1238,-280.5 1065,-280.5"/>
<text text-anchor="middle" x="1151.5" y="-287.5" font-family="Helvetica,sans-Serif" font-size="10.00">AH/Teensy/TeensyUSBTypes.hpp</text>
</a>
</g>
</g>
<!-- Node17&#45;&gt;Node24 -->
<g id="edge40" class="edge">
<title>Node17&#45;&gt;Node24</title>
<path fill="none" stroke="midnightblue" d="M1091.07,-336.32C1101.92,-328.18 1118.38,-315.84 1131.38,-306.09"/>
<polygon fill="midnightblue" stroke="midnightblue" points="1133.82,-308.63 1139.72,-299.83 1129.62,-303.03 1133.82,-308.63"/>
</g>
<!-- Node19 -->
<g id="node19" class="node">
<title>Node19</title>
<g id="a_node19"><a xlink:href="../../dc/d50/Frequency_8hpp.html" target="_top" xlink:title=" ">
<polygon fill="white" stroke="black" points="1026.5,-112.5 1026.5,-131.5 1160.5,-131.5 1160.5,-112.5 1026.5,-112.5"/>
<text text-anchor="middle" x="1093.5" y="-119.5" font-family="Helvetica,sans-Serif" font-size="10.00">AH/Types/Frequency.hpp</text>
</a>
</g>
</g>
<!-- Node18&#45;&gt;Node19 -->
<g id="edge31" class="edge">
<title>Node18&#45;&gt;Node19</title>
<path fill="none" stroke="midnightblue" d="M1008.3,-280.55C1041.96,-272.34 1086.91,-258.94 1097.5,-244 1119.19,-213.39 1108.69,-166.64 1100.34,-141.14"/>
<polygon fill="midnightblue" stroke="midnightblue" points="1103.61,-139.89 1097,-131.62 1097.01,-142.21 1103.61,-139.89"/>
</g>
<!-- Node20 -->
<g id="node20" class="node">
<title>Node20</title>
<g id="a_node20"><a xlink:href="../../d7/d7c/ADCConfig_8hpp.html" target="_top" xlink:title="This file contains the platform&#45;specific ADC resolutions.">
<polygon fill="white" stroke="black" points="931,-224.5 931,-243.5 1088,-243.5 1088,-224.5 931,-224.5"/>
<text text-anchor="middle" x="1009.5" y="-231.5" font-family="Helvetica,sans-Serif" font-size="10.00">AH/Hardware/ADCConfig.hpp</text>
</a>
</g>
</g>
<!-- Node18&#45;&gt;Node20 -->
<g id="edge34" class="edge">
<title>Node18&#45;&gt;Node20</title>
<path fill="none" stroke="midnightblue" d="M976.11,-280.08C981.76,-272.46 990.04,-261.26 996.95,-251.94"/>
<polygon fill="midnightblue" stroke="midnightblue" points="999.88,-253.87 1003.02,-243.75 994.25,-249.7 999.88,-253.87"/>
</g>
<!-- Node21 -->
<g id="node21" class="node">
<title>Node21</title>
<g id="a_node21"><a xlink:title=" ">
<polygon fill="white" stroke="#bfbfbf" points="1145,-224.5 1145,-243.5 1198,-243.5 1198,-224.5 1145,-224.5"/>
<text text-anchor="middle" x="1171.5" y="-231.5" font-family="Helvetica,sans-Serif" font-size="10.00">limits.h</text>
</a>
</g>
</g>
<!-- Node18&#45;&gt;Node21 -->
<g id="edge37" class="edge">
<title>Node18&#45;&gt;Node21</title>
<path fill="none" stroke="midnightblue" d="M1001.51,-280.44C1037.86,-270.72 1097.06,-254.9 1135.13,-244.72"/>
<polygon fill="midnightblue" stroke="midnightblue" points="1136.05,-248.1 1144.8,-242.14 1134.24,-241.34 1136.05,-248.1"/>
</g>
<!-- Node18&#45;&gt;Node22 -->
<g id="edge38" class="edge">
<title>Node18&#45;&gt;Node22</title>
<path fill="none" stroke="midnightblue" d="M931.95,-280.44C887.75,-270.37 814.77,-253.75 770.42,-243.64"/>
<polygon fill="midnightblue" stroke="midnightblue" points="771.13,-240.21 760.6,-241.4 769.57,-247.04 771.13,-240.21"/>
</g>
<!-- Node18&#45;&gt;Node23 -->
<g id="edge39" class="edge">
<title>Node18&#45;&gt;Node23</title>
<path fill="none" stroke="midnightblue" d="M930.75,-283.66C879.42,-276.36 785.89,-262.29 696.24,-244"/>
<polygon fill="midnightblue" stroke="midnightblue" points="696.68,-240.52 686.18,-241.93 695.27,-247.38 696.68,-240.52"/>
</g>
<!-- Node19&#45;&gt;Node2 -->
<g id="edge32" class="edge">
<title>Node19&#45;&gt;Node2</title>
<path fill="none" stroke="midnightblue" d="M1088.63,-112.37C1078.45,-94.3 1054.71,-52.18 1041.26,-28.31"/>
<polygon fill="midnightblue" stroke="midnightblue" points="1044.3,-26.58 1036.34,-19.59 1038.2,-30.02 1044.3,-26.58"/>
</g>
<!-- Node19&#45;&gt;Node11 -->
<g id="edge33" class="edge">
<title>Node19&#45;&gt;Node11</title>
<path fill="none" stroke="midnightblue" d="M1026.1,-112.86C946.06,-103.19 812.68,-87.08 727.22,-76.75"/>
<polygon fill="midnightblue" stroke="midnightblue" points="727.39,-73.25 717.04,-75.52 726.55,-80.2 727.39,-73.25"/>
</g>
<!-- Node20&#45;&gt;Node2 -->
<g id="edge35" class="edge">
<title>Node20&#45;&gt;Node2</title>
<path fill="none" stroke="midnightblue" d="M1038.43,-224.41C1076.43,-211.38 1141.59,-182.63 1169.5,-132 1197.34,-81.51 1116.89,-41.95 1067.31,-23.09"/>
<polygon fill="midnightblue" stroke="midnightblue" points="1068.45,-19.77 1057.85,-19.59 1066.02,-26.34 1068.45,-19.77"/>
</g>
<!-- Node20&#45;&gt;Node12 -->
<g id="edge36" class="edge">
<title>Node20&#45;&gt;Node12</title>
<path fill="none" stroke="midnightblue" d="M961.33,-224.44C907.63,-214.9 820.81,-199.48 763.45,-189.29"/>
<polygon fill="midnightblue" stroke="midnightblue" points="763.9,-185.82 753.44,-187.52 762.68,-192.71 763.9,-185.82"/>
</g>
<!-- Node27&#45;&gt;Node2 -->
<g id="edge52" class="edge">
<title>Node27&#45;&gt;Node2</title>
<path fill="none" stroke="midnightblue" d="M157.06,-112.24C172.13,-97.49 205.07,-68.12 239.5,-56 305.15,-32.89 760.99,-18.22 949.84,-13.07"/>
<polygon fill="midnightblue" stroke="midnightblue" points="950.09,-16.56 959.99,-12.79 949.9,-9.56 950.09,-16.56"/>
</g>
<!-- Node27&#45;&gt;Node11 -->
<g id="edge53" class="edge">
<title>Node27&#45;&gt;Node11</title>
<path fill="none" stroke="midnightblue" d="M225.22,-112.68C314.99,-102.95 463.35,-86.86 557.93,-76.6"/>
<polygon fill="midnightblue" stroke="midnightblue" points="558.48,-80.06 568.05,-75.51 557.73,-73.11 558.48,-80.06"/>
</g>
<!-- Node28 -->
<g id="node28" class="node">
<title>Node28</title>
<g id="a_node28"><a xlink:title=" ">
<polygon fill="white" stroke="#bfbfbf" points="97.5,-56.5 97.5,-75.5 187.5,-75.5 187.5,-56.5 97.5,-56.5"/>
<text text-anchor="middle" x="142.5" y="-63.5" font-family="Helvetica,sans-Serif" font-size="10.00">AH/STL/cstddef</text>
</a>
</g>
</g>
<!-- Node27&#45;&gt;Node28 -->
<g id="edge50" class="edge">
<title>Node27&#45;&gt;Node28</title>
<path fill="none" stroke="midnightblue" d="M147.51,-112.08C146.71,-104.93 145.57,-94.64 144.58,-85.69"/>
<polygon fill="midnightblue" stroke="midnightblue" points="148.06,-85.3 143.47,-75.75 141.1,-86.08 148.06,-85.3"/>
</g>
<!-- Node29 -->
<g id="node29" class="node">
<title>Node29</title>
<g id="a_node29"><a xlink:title=" ">
<polygon fill="white" stroke="#bfbfbf" points="0,-56.5 0,-75.5 79,-75.5 79,-56.5 0,-56.5"/>
<text text-anchor="middle" x="39.5" y="-63.5" font-family="Helvetica,sans-Serif" font-size="10.00">AH/STL/tuple</text>
</a>
</g>
</g>
<!-- Node27&#45;&gt;Node29 -->
<g id="edge51" class="edge">
<title>Node27&#45;&gt;Node29</title>
<path fill="none" stroke="midnightblue" d="M130.99,-112.32C113.43,-103.62 86.17,-90.12 65.97,-80.11"/>
<polygon fill="midnightblue" stroke="midnightblue" points="67.48,-76.96 56.97,-75.65 64.38,-83.23 67.48,-76.96"/>
</g>
<!-- Node31&#45;&gt;Node2 -->
<g id="edge59" class="edge">
<title>Node31&#45;&gt;Node2</title>
<path fill="none" stroke="midnightblue" d="M1026.08,-509.66C1146.48,-503.96 1362.21,-490.7 1389.5,-468 1412.64,-448.76 1408.5,-433.1 1408.5,-403 1408.5,-403 1408.5,-403 1408.5,-121 1408.5,-60.01 1224.36,-30.54 1113.46,-18.32"/>
<polygon fill="midnightblue" stroke="midnightblue" points="1113.62,-14.82 1103.3,-17.23 1112.87,-21.78 1113.62,-14.82"/>
</g>
<!-- Node31&#45;&gt;Node8 -->
<g id="edge67" class="edge">
<title>Node31&#45;&gt;Node8</title>
<path fill="none" stroke="midnightblue" d="M913.97,-504.44C879.91,-495.2 825.49,-480.44 787.98,-470.26"/>
<polygon fill="midnightblue" stroke="midnightblue" points="788.45,-466.76 777.88,-467.52 786.62,-473.51 788.45,-466.76"/>
</g>
<!-- Node31&#45;&gt;Node16 -->
<g id="edge68" class="edge">
<title>Node31&#45;&gt;Node16</title>
<path fill="none" stroke="midnightblue" d="M927.2,-504.36C900.78,-491.89 850.41,-468.14 807.5,-448 773.3,-431.95 758.89,-436.92 730.5,-412 663.98,-353.59 652.78,-327.54 623.5,-244 611.37,-209.39 609.71,-166.08 609.9,-141.78"/>
<polygon fill="midnightblue" stroke="midnightblue" points="613.41,-141.57 610.11,-131.5 606.41,-141.43 613.41,-141.57"/>
</g>
<!-- Node31&#45;&gt;Node17 -->
<g id="edge70" class="edge">
<title>Node31&#45;&gt;Node17</title>
<path fill="none" stroke="midnightblue" d="M970.84,-504.37C990.1,-496.91 1016.44,-484.69 1035.5,-468 1058.13,-448.19 1063.35,-440.31 1073.5,-412 1078.82,-397.15 1080.13,-379.23 1080.22,-365.97"/>
<polygon fill="midnightblue" stroke="midnightblue" points="1083.71,-365.65 1080.05,-355.71 1076.71,-365.76 1083.71,-365.65"/>
</g>
<!-- Node31&#45;&gt;Node22 -->
<g id="edge71" class="edge">
<title>Node31&#45;&gt;Node22</title>
<path fill="none" stroke="midnightblue" d="M930.38,-504.47C916.93,-496.35 897.29,-483.14 883.5,-468 857.07,-438.98 868.16,-417.71 838.5,-392 806.88,-364.59 777.39,-388.88 751.5,-356 728.12,-326.31 728.04,-279.54 730.18,-253.7"/>
<polygon fill="midnightblue" stroke="midnightblue" points="733.67,-254.04 731.21,-243.73 726.7,-253.32 733.67,-254.04"/>
</g>
<!-- Node32 -->
<g id="node32" class="node">
<title>Node32</title>
<g id="a_node32"><a xlink:href="../../d4/dba/CRTP_8hpp.html" target="_top" xlink:title=" ">
<polygon fill="white" stroke="black" points="892.5,-448.5 892.5,-467.5 1026.5,-467.5 1026.5,-448.5 892.5,-448.5"/>
<text text-anchor="middle" x="959.5" y="-455.5" font-family="Helvetica,sans-Serif" font-size="10.00">AH/Containers/CRTP.hpp</text>
</a>
</g>
</g>
<!-- Node31&#45;&gt;Node32 -->
<g id="edge60" class="edge">
<title>Node31&#45;&gt;Node32</title>
<path fill="none" stroke="midnightblue" d="M947.81,-504.08C949.67,-496.93 952.34,-486.64 954.65,-477.69"/>
<polygon fill="midnightblue" stroke="midnightblue" points="958.11,-478.31 957.23,-467.75 951.33,-476.55 958.11,-478.31"/>
</g>
<!-- Node33 -->
<g id="node33" class="node">
<title>Node33</title>
<g id="a_node33"><a xlink:href="../../de/dd1/LinkedList_8hpp.html" target="_top" xlink:title=" ">
<polygon fill="white" stroke="black" points="1120,-448.5 1120,-467.5 1279,-467.5 1279,-448.5 1120,-448.5"/>
<text text-anchor="middle" x="1199.5" y="-455.5" font-family="Helvetica,sans-Serif" font-size="10.00">AH/Containers/LinkedList.hpp</text>
</a>
</g>
</g>
<!-- Node31&#45;&gt;Node33 -->
<g id="edge61" class="edge">
<title>Node31&#45;&gt;Node33</title>
<path fill="none" stroke="midnightblue" d="M985.75,-504.44C1030.15,-495 1101.65,-479.8 1149.59,-469.61"/>
<polygon fill="midnightblue" stroke="midnightblue" points="1150.39,-473.02 1159.44,-467.52 1148.93,-466.17 1150.39,-473.02"/>
</g>
<!-- Node35 -->
<g id="node35" class="node">
<title>Node35</title>
<g id="a_node35"><a xlink:title=" ">
<polygon fill="white" stroke="#bfbfbf" points="1297,-448.5 1297,-467.5 1380,-467.5 1380,-448.5 1297,-448.5"/>
<text text-anchor="middle" x="1338.5" y="-455.5" font-family="Helvetica,sans-Serif" font-size="10.00">AH/STL/utility</text>
</a>
</g>
</g>
<!-- Node31&#45;&gt;Node35 -->
<g id="edge69" class="edge">
<title>Node31&#45;&gt;Node35</title>
<path fill="none" stroke="midnightblue" d="M1018.24,-504.48C1085.46,-496.37 1188.37,-483.36 1286.67,-468.23"/>
<polygon fill="midnightblue" stroke="midnightblue" points="1287.44,-471.65 1296.78,-466.66 1286.37,-464.74 1287.44,-471.65"/>
</g>
<!-- Node33&#45;&gt;Node2 -->
<g id="edge62" class="edge">
<title>Node33&#45;&gt;Node2</title>
<path fill="none" stroke="midnightblue" d="M1267.32,-448.42C1292.3,-442.08 1318.99,-431.09 1337.5,-412 1358.45,-390.39 1356.5,-377.1 1356.5,-347 1356.5,-347 1356.5,-347 1356.5,-121 1356.5,-73.79 1315.57,-75.32 1272.5,-56 1222.28,-33.48 1161.31,-22.23 1113.26,-16.61"/>
<polygon fill="midnightblue" stroke="midnightblue" points="1113.54,-13.12 1103.21,-15.49 1112.76,-20.07 1113.54,-13.12"/>
</g>
<!-- Node33&#45;&gt;Node9 -->
<g id="edge63" class="edge">
<title>Node33&#45;&gt;Node9</title>
<path fill="none" stroke="midnightblue" d="M1168.44,-448.44C1134.9,-439.2 1081.3,-424.44 1044.36,-414.26"/>
<polygon fill="midnightblue" stroke="midnightblue" points="1044.98,-410.8 1034.41,-411.52 1043.12,-417.55 1044.98,-410.8"/>
</g>
<!-- Node33&#45;&gt;Node13 -->
<g id="edge64" class="edge">
<title>Node33&#45;&gt;Node13</title>
<path fill="none" stroke="midnightblue" d="M1205.33,-448.45C1222.1,-422.73 1268,-343.98 1247.5,-280 1238.17,-250.87 1232.12,-242.15 1207.5,-224 1137.03,-172.06 1038.33,-145.85 972.5,-133.33"/>
<polygon fill="midnightblue" stroke="midnightblue" points="973.1,-129.89 962.63,-131.51 971.83,-136.77 973.1,-129.89"/>
</g>
<!-- Node33&#45;&gt;Node25 -->
<g id="edge66" class="edge">
<title>Node33&#45;&gt;Node25</title>
<path fill="none" stroke="midnightblue" d="M1133.74,-448.44C1052.65,-437.89 916.23,-420.14 840.11,-410.24"/>
<polygon fill="midnightblue" stroke="midnightblue" points="840.15,-406.71 829.78,-408.89 839.25,-413.65 840.15,-406.71"/>
</g>
<!-- Node34 -->
<g id="node34" class="node">
<title>Node34</title>
<g id="a_node34"><a xlink:title=" ">
<polygon fill="white" stroke="#bfbfbf" points="1275,-392.5 1275,-411.5 1328,-411.5 1328,-392.5 1275,-392.5"/>
<text text-anchor="middle" x="1301.5" y="-399.5" font-family="Helvetica,sans-Serif" font-size="10.00">stdlib.h</text>
</a>
</g>
</g>
<!-- Node33&#45;&gt;Node34 -->
<g id="edge65" class="edge">
<title>Node33&#45;&gt;Node34</title>
<path fill="none" stroke="midnightblue" d="M1215.89,-448.32C1232.17,-439.7 1257.37,-426.36 1276.22,-416.39"/>
<polygon fill="midnightblue" stroke="midnightblue" points="1277.95,-419.43 1285.15,-411.65 1274.68,-413.24 1277.95,-419.43"/>
</g>
<!-- Node36&#45;&gt;Node2 -->
<g id="edge74" class="edge">
<title>Node36&#45;&gt;Node2</title>
<path fill="none" stroke="midnightblue" d="M1521.88,-565.92C1510.22,-547.29 1484.5,-501.37 1484.5,-459 1484.5,-459 1484.5,-459 1484.5,-121 1484.5,-90.2 1484.81,-74.9 1460.5,-56 1433.74,-35.2 1230.29,-21.31 1113.43,-14.96"/>
<polygon fill="midnightblue" stroke="midnightblue" points="1113.27,-11.45 1103.09,-14.41 1112.89,-18.44 1113.27,-11.45"/>
</g>
<!-- Node36&#45;&gt;Node7 -->
<g id="edge75" class="edge">
<title>Node36&#45;&gt;Node7</title>
<path fill="none" stroke="midnightblue" d="M1440.27,-568.33C1275.6,-556.68 921.4,-531.62 764.29,-520.5"/>
<polygon fill="midnightblue" stroke="midnightblue" points="764.45,-517.01 754.23,-519.79 763.96,-523.99 764.45,-517.01"/>
</g>
<!-- Node36&#45;&gt;Node10 -->
<g id="edge77" class="edge">
<title>Node36&#45;&gt;Node10</title>
<path fill="none" stroke="midnightblue" d="M1491.43,-565.98C1419.05,-548.74 1251.09,-507.92 1111.5,-468 1071.83,-456.66 971.21,-430.83 934.5,-412 908.22,-398.51 881.51,-377.19 864.75,-362.67"/>
<polygon fill="midnightblue" stroke="midnightblue" points="866.76,-359.77 856.95,-355.77 862.13,-365.02 866.76,-359.77"/>
</g>
<!-- Node37 -->
<g id="node37" class="node">
<title>Node37</title>
<g id="a_node37"><a xlink:title=" ">
<polygon fill="white" stroke="#bfbfbf" points="1513,-504.5 1513,-523.5 1614,-523.5 1614,-504.5 1513,-504.5"/>
<text text-anchor="middle" x="1563.5" y="-511.5" font-family="Helvetica,sans-Serif" font-size="10.00">AH/STL/algorithm</text>
</a>
</g>
</g>
<!-- Node36&#45;&gt;Node37 -->
<g id="edge76" class="edge">
<title>Node36&#45;&gt;Node37</title>
<path fill="none" stroke="midnightblue" d="M1532.66,-565.98C1537.95,-557.23 1546.34,-543.37 1553.03,-532.31"/>
<polygon fill="midnightblue" stroke="midnightblue" points="1556.17,-533.88 1558.35,-523.51 1550.18,-530.25 1556.17,-533.88"/>
</g>
</g>
</svg>
