<?xml version="1.0" encoding="UTF-8" standalone="no"?>
<!DOCTYPE svg PUBLIC "-//W3C//DTD SVG 1.1//EN"
 "http://www.w3.org/Graphics/SVG/1.1/DTD/svg11.dtd">
<!-- Generated by graphviz version 2.43.0 (0)
 -->
<!-- Title: Hardware&#45;Types.hpp Pages: 1 -->
<svg width="1122pt" height="588pt"
 viewBox="0.00 0.00 1121.79 588.00" xmlns="http://www.w3.org/2000/svg" xmlns:xlink="http://www.w3.org/1999/xlink">
<g id="graph0" class="graph" transform="scale(1 1) rotate(0) translate(4 584)">
<title>Hardware&#45;Types.hpp</title>
<polygon fill="white" stroke="transparent" points="-4,4 -4,-584 1117.79,-584 1117.79,4 -4,4"/>
<!-- Node1 -->
<g id="node1" class="node">
<title>Node1</title>
<g id="a_node1"><a xlink:title=" ">
<polygon fill="#bfbfbf" stroke="black" points="792.79,-560.5 792.79,-579.5 908.79,-579.5 908.79,-560.5 792.79,-560.5"/>
<text text-anchor="middle" x="850.79" y="-567.5" font-family="Helvetica,sans-Serif" font-size="10.00">Hardware&#45;Types.hpp</text>
</a>
</g>
</g>
<!-- Node2 -->
<g id="node2" class="node">
<title>Node2</title>
<g id="a_node2"><a xlink:href="../../d1/d65/Warnings_8hpp.html" target="_top" xlink:title=" ">
<polygon fill="white" stroke="black" points="629.29,-0.5 629.29,-19.5 772.29,-19.5 772.29,-0.5 629.29,-0.5"/>
<text text-anchor="middle" x="700.79" y="-7.5" font-family="Helvetica,sans-Serif" font-size="10.00">AH/Settings/Warnings.hpp</text>
</a>
</g>
</g>
<!-- Node1&#45;&gt;Node2 -->
<g id="edge1" class="edge">
<title>Node1&#45;&gt;Node2</title>
<path fill="none" stroke="midnightblue" d="M885.89,-560.47C931.06,-547.15 1003.79,-516.74 1003.79,-459 1003.79,-459 1003.79,-459 1003.79,-121 1003.79,-85.09 986.31,-74.91 955.79,-56 927.36,-38.39 845.83,-26.05 782.54,-18.8"/>
<polygon fill="midnightblue" stroke="midnightblue" points="782.87,-15.31 772.55,-17.68 782.09,-22.27 782.87,-15.31"/>
</g>
<!-- Node3 -->
<g id="node3" class="node">
<title>Node3</title>
<g id="a_node3"><a xlink:href="../../de/d76/Array_8hpp.html" target="_top" xlink:title=" ">
<polygon fill="white" stroke="black" points="664.29,-504.5 664.29,-523.5 799.29,-523.5 799.29,-504.5 664.29,-504.5"/>
<text text-anchor="middle" x="731.79" y="-511.5" font-family="Helvetica,sans-Serif" font-size="10.00">AH/Containers/Array.hpp</text>
</a>
</g>
</g>
<!-- Node1&#45;&gt;Node3 -->
<g id="edge2" class="edge">
<title>Node1&#45;&gt;Node3</title>
<path fill="none" stroke="midnightblue" d="M831.93,-560.44C812.52,-551.64 782.06,-537.81 759.82,-527.72"/>
<polygon fill="midnightblue" stroke="midnightblue" points="761.11,-524.46 750.55,-523.52 758.21,-530.84 761.11,-524.46"/>
</g>
<!-- Node6 -->
<g id="node6" class="node">
<title>Node6</title>
<g id="a_node6"><a xlink:href="../../dd/d80/PrintStream_8hpp.html" target="_top" xlink:title=" ">
<polygon fill="white" stroke="black" points="181.29,-224.5 181.29,-243.5 354.29,-243.5 354.29,-224.5 181.29,-224.5"/>
<text text-anchor="middle" x="267.79" y="-231.5" font-family="Helvetica,sans-Serif" font-size="10.00">AH/PrintStream/PrintStream.hpp</text>
</a>
</g>
</g>
<!-- Node1&#45;&gt;Node6 -->
<g id="edge38" class="edge">
<title>Node1&#45;&gt;Node6</title>
<path fill="none" stroke="midnightblue" d="M792.69,-563.92C647.02,-550.41 277.79,-511.04 277.79,-459 277.79,-459 277.79,-459 277.79,-345 277.79,-312.82 273.49,-275.55 270.53,-253.7"/>
<polygon fill="midnightblue" stroke="midnightblue" points="273.96,-252.95 269.09,-243.53 267.02,-253.92 273.96,-252.95"/>
</g>
<!-- Node7 -->
<g id="node7" class="node">
<title>Node7</title>
<g id="a_node7"><a xlink:href="../../dc/dc7/NamespaceSettings_8hpp.html" target="_top" xlink:title=" ">
<polygon fill="white" stroke="black" points="142.29,-56.5 142.29,-75.5 337.29,-75.5 337.29,-56.5 142.29,-56.5"/>
<text text-anchor="middle" x="239.79" y="-63.5" font-family="Helvetica,sans-Serif" font-size="10.00">AH/Settings/NamespaceSettings.hpp</text>
</a>
</g>
</g>
<!-- Node1&#45;&gt;Node7 -->
<g id="edge40" class="edge">
<title>Node1&#45;&gt;Node7</title>
<path fill="none" stroke="midnightblue" d="M792.7,-567.6C601.02,-562.23 0.79,-539.03 0.79,-459 0.79,-459 0.79,-459 0.79,-177 0.79,-146.9 -2.36,-132.39 19.79,-112 38.1,-95.14 92.91,-83.9 143.24,-76.87"/>
<polygon fill="midnightblue" stroke="midnightblue" points="143.79,-80.33 153.23,-75.52 142.85,-73.39 143.79,-80.33"/>
</g>
<!-- Node19 -->
<g id="node19" class="node">
<title>Node19</title>
<g id="a_node19"><a xlink:title=" ">
<polygon fill="white" stroke="#bfbfbf" points="808.29,-224.5 808.29,-243.5 861.29,-243.5 861.29,-224.5 808.29,-224.5"/>
<text text-anchor="middle" x="834.79" y="-231.5" font-family="Helvetica,sans-Serif" font-size="10.00">stdint.h</text>
</a>
</g>
</g>
<!-- Node1&#45;&gt;Node19 -->
<g id="edge41" class="edge">
<title>Node1&#45;&gt;Node19</title>
<path fill="none" stroke="midnightblue" d="M850.37,-560.41C848.27,-516.47 838.69,-316.57 835.69,-253.87"/>
<polygon fill="midnightblue" stroke="midnightblue" points="839.17,-253.36 835.19,-243.54 832.18,-253.69 839.17,-253.36"/>
</g>
<!-- Node22 -->
<g id="node22" class="node">
<title>Node22</title>
<g id="a_node22"><a xlink:title=" ">
<polygon fill="white" stroke="#bfbfbf" points="1031.79,-504.5 1031.79,-523.5 1113.79,-523.5 1113.79,-504.5 1031.79,-504.5"/>
<text text-anchor="middle" x="1072.79" y="-511.5" font-family="Helvetica,sans-Serif" font-size="10.00">AH/STL/limits</text>
</a>
</g>
</g>
<!-- Node1&#45;&gt;Node22 -->
<g id="edge39" class="edge">
<title>Node1&#45;&gt;Node22</title>
<path fill="none" stroke="midnightblue" d="M885.96,-560.44C924.36,-551.1 985.96,-536.12 1027.84,-525.93"/>
<polygon fill="midnightblue" stroke="midnightblue" points="1028.88,-529.28 1037.77,-523.52 1027.23,-522.48 1028.88,-529.28"/>
</g>
<!-- Node3&#45;&gt;Node2 -->
<g id="edge3" class="edge">
<title>Node3&#45;&gt;Node2</title>
<path fill="none" stroke="midnightblue" d="M770.43,-504.46C836.89,-487.24 965.79,-441.64 965.79,-347 965.79,-347 965.79,-347 965.79,-121 965.79,-40.67 860.63,-17.9 782.8,-12.04"/>
<polygon fill="midnightblue" stroke="midnightblue" points="782.71,-8.53 772.5,-11.35 782.24,-15.51 782.71,-8.53"/>
</g>
<!-- Node4 -->
<g id="node4" class="node">
<title>Node4</title>
<g id="a_node4"><a xlink:href="../../d1/d93/Error_8hpp.html" target="_top" xlink:title=" ">
<polygon fill="white" stroke="black" points="528.79,-448.5 528.79,-467.5 632.79,-467.5 632.79,-448.5 528.79,-448.5"/>
<text text-anchor="middle" x="580.79" y="-455.5" font-family="Helvetica,sans-Serif" font-size="10.00">AH/Error/Error.hpp</text>
</a>
</g>
</g>
<!-- Node3&#45;&gt;Node4 -->
<g id="edge4" class="edge">
<title>Node3&#45;&gt;Node4</title>
<path fill="none" stroke="midnightblue" d="M707.86,-504.44C682.57,-495.4 642.48,-481.06 614.11,-470.92"/>
<polygon fill="midnightblue" stroke="midnightblue" points="615.19,-467.59 604.6,-467.52 612.84,-474.18 615.19,-467.59"/>
</g>
<!-- Node12 -->
<g id="node12" class="node">
<title>Node12</title>
<g id="a_node12"><a xlink:title=" ">
<polygon fill="white" stroke="#bfbfbf" points="29.29,-112.5 29.29,-131.5 136.29,-131.5 136.29,-112.5 29.29,-112.5"/>
<text text-anchor="middle" x="82.79" y="-119.5" font-family="Helvetica,sans-Serif" font-size="10.00">AH/STL/type_traits</text>
</a>
</g>
</g>
<!-- Node3&#45;&gt;Node12 -->
<g id="edge36" class="edge">
<title>Node3&#45;&gt;Node12</title>
<path fill="none" stroke="midnightblue" d="M664.03,-507.9C504.34,-494.97 117.79,-457.99 117.79,-403 117.79,-403 117.79,-403 117.79,-233 117.79,-199.07 102.48,-161.91 92.11,-140.63"/>
<polygon fill="midnightblue" stroke="midnightblue" points="95.15,-138.88 87.51,-131.54 88.9,-142.05 95.15,-138.88"/>
</g>
<!-- Node18 -->
<g id="node18" class="node">
<title>Node18</title>
<g id="a_node18"><a xlink:title=" ">
<polygon fill="white" stroke="#bfbfbf" points="733.79,-224.5 733.79,-243.5 789.79,-243.5 789.79,-224.5 733.79,-224.5"/>
<text text-anchor="middle" x="761.79" y="-231.5" font-family="Helvetica,sans-Serif" font-size="10.00">stddef.h</text>
</a>
</g>
</g>
<!-- Node3&#45;&gt;Node18 -->
<g id="edge37" class="edge">
<title>Node3&#45;&gt;Node18</title>
<path fill="none" stroke="midnightblue" d="M736.78,-504.49C746.88,-486.44 768.79,-442.69 768.79,-403 768.79,-403 768.79,-403 768.79,-345 768.79,-312.88 765.78,-275.6 763.7,-253.73"/>
<polygon fill="midnightblue" stroke="midnightblue" points="767.17,-253.15 762.7,-243.55 760.2,-253.84 767.17,-253.15"/>
</g>
<!-- Node21 -->
<g id="node21" class="node">
<title>Node21</title>
<g id="a_node21"><a xlink:title=" ">
<polygon fill="white" stroke="#bfbfbf" points="650.79,-448.5 650.79,-467.5 740.79,-467.5 740.79,-448.5 650.79,-448.5"/>
<text text-anchor="middle" x="695.79" y="-455.5" font-family="Helvetica,sans-Serif" font-size="10.00">AH/STL/iterator</text>
</a>
</g>
</g>
<!-- Node3&#45;&gt;Node21 -->
<g id="edge35" class="edge">
<title>Node3&#45;&gt;Node21</title>
<path fill="none" stroke="midnightblue" d="M725.84,-504.08C720.81,-496.53 713.45,-485.49 707.27,-476.23"/>
<polygon fill="midnightblue" stroke="midnightblue" points="710.08,-474.13 701.62,-467.75 704.25,-478.01 710.08,-474.13"/>
</g>
<!-- Node4&#45;&gt;Node2 -->
<g id="edge5" class="edge">
<title>Node4&#45;&gt;Node2</title>
<path fill="none" stroke="midnightblue" d="M615.01,-448.43C702.55,-425.52 927.79,-359.87 927.79,-291 927.79,-291 927.79,-291 927.79,-121 927.79,-54.25 847.31,-27.99 782.19,-17.67"/>
<polygon fill="midnightblue" stroke="midnightblue" points="782.7,-14.21 772.3,-16.2 781.68,-21.13 782.7,-14.21"/>
</g>
<!-- Node5 -->
<g id="node5" class="node">
<title>Node5</title>
<g id="a_node5"><a xlink:href="../../df/dee/Debug_8hpp.html" target="_top" xlink:title=" ">
<polygon fill="white" stroke="black" points="486.29,-392.5 486.29,-411.5 607.29,-411.5 607.29,-392.5 486.29,-392.5"/>
<text text-anchor="middle" x="546.79" y="-399.5" font-family="Helvetica,sans-Serif" font-size="10.00">AH/Debug/Debug.hpp</text>
</a>
</g>
</g>
<!-- Node4&#45;&gt;Node5 -->
<g id="edge6" class="edge">
<title>Node4&#45;&gt;Node5</title>
<path fill="none" stroke="midnightblue" d="M575.17,-448.08C570.42,-440.53 563.47,-429.49 557.63,-420.23"/>
<polygon fill="midnightblue" stroke="midnightblue" points="560.59,-418.35 552.3,-411.75 554.66,-422.08 560.59,-418.35"/>
</g>
<!-- Node5&#45;&gt;Node2 -->
<g id="edge7" class="edge">
<title>Node5&#45;&gt;Node2</title>
<path fill="none" stroke="midnightblue" d="M597.4,-392.46C692.81,-373.15 889.79,-316.61 889.79,-179 889.79,-179 889.79,-179 889.79,-121 889.79,-62.74 821.88,-34.8 767.47,-21.77"/>
<polygon fill="midnightblue" stroke="midnightblue" points="768.02,-18.3 757.49,-19.5 766.47,-25.13 768.02,-18.3"/>
</g>
<!-- Node5&#45;&gt;Node6 -->
<g id="edge8" class="edge">
<title>Node5&#45;&gt;Node6</title>
<path fill="none" stroke="midnightblue" d="M525.66,-392.45C505.49,-384.02 474.44,-370.35 448.79,-356 387.57,-321.77 320,-273.59 287.45,-249.67"/>
<polygon fill="midnightblue" stroke="midnightblue" points="289.36,-246.72 279.24,-243.6 285.2,-252.35 289.36,-246.72"/>
</g>
<!-- Node13 -->
<g id="node13" class="node">
<title>Node13</title>
<g id="a_node13"><a xlink:href="../../d2/dd5/SettingsWrapper_8hpp.html" target="_top" xlink:title=" ">
<polygon fill="white" stroke="black" points="457.79,-336.5 457.79,-355.5 635.79,-355.5 635.79,-336.5 457.79,-336.5"/>
<text text-anchor="middle" x="546.79" y="-343.5" font-family="Helvetica,sans-Serif" font-size="10.00">AH/Settings/SettingsWrapper.hpp</text>
</a>
</g>
</g>
<!-- Node5&#45;&gt;Node13 -->
<g id="edge20" class="edge">
<title>Node5&#45;&gt;Node13</title>
<path fill="none" stroke="midnightblue" d="M541.62,-392.08C540.11,-384.93 539.68,-374.64 540.33,-365.69"/>
<polygon fill="midnightblue" stroke="midnightblue" points="543.8,-366.13 541.65,-355.75 536.86,-365.2 543.8,-366.13"/>
</g>
<!-- Node6&#45;&gt;Node2 -->
<g id="edge10" class="edge">
<title>Node6&#45;&gt;Node2</title>
<path fill="none" stroke="midnightblue" d="M317.3,-224.45C378.01,-212.1 481.93,-184.71 555.79,-132 590.81,-107 582.72,-83.55 615.79,-56 631.87,-42.6 652.59,-31.53 669.55,-23.72"/>
<polygon fill="midnightblue" stroke="midnightblue" points="671.31,-26.77 679.03,-19.51 668.47,-20.37 671.31,-26.77"/>
</g>
<!-- Node6&#45;&gt;Node7 -->
<g id="edge9" class="edge">
<title>Node6&#45;&gt;Node7</title>
<path fill="none" stroke="midnightblue" d="M254,-224.19C242.96,-216.24 228.28,-203.45 221.79,-188 207.3,-153.55 221.23,-109.29 231.36,-84.99"/>
<polygon fill="midnightblue" stroke="midnightblue" points="234.66,-86.16 235.5,-75.6 228.26,-83.34 234.66,-86.16"/>
</g>
<!-- Node8 -->
<g id="node8" class="node">
<title>Node8</title>
<g id="a_node8"><a xlink:href="../../d6/ddf/Arduino-Wrapper_8h.html" target="_top" xlink:title=" ">
<polygon fill="white" stroke="black" points="230.79,-168.5 230.79,-187.5 354.79,-187.5 354.79,-168.5 230.79,-168.5"/>
<text text-anchor="middle" x="292.79" y="-175.5" font-family="Helvetica,sans-Serif" font-size="10.00">AH/Arduino&#45;Wrapper.h</text>
</a>
</g>
</g>
<!-- Node6&#45;&gt;Node8 -->
<g id="edge11" class="edge">
<title>Node6&#45;&gt;Node8</title>
<path fill="none" stroke="midnightblue" d="M271.91,-224.08C275.3,-216.77 280.2,-206.18 284.4,-197.1"/>
<polygon fill="midnightblue" stroke="midnightblue" points="287.71,-198.3 288.73,-187.75 281.36,-195.36 287.71,-198.3"/>
</g>
<!-- Node9 -->
<g id="node9" class="node">
<title>Node9</title>
<g id="a_node9"><a xlink:href="../../d7/d79/MinMaxFix_8hpp.html" target="_top" xlink:title=" ">
<polygon fill="white" stroke="black" points="410.79,-112.5 410.79,-131.5 546.79,-131.5 546.79,-112.5 410.79,-112.5"/>
<text text-anchor="middle" x="478.79" y="-119.5" font-family="Helvetica,sans-Serif" font-size="10.00">AH/Math/MinMaxFix.hpp</text>
</a>
</g>
</g>
<!-- Node8&#45;&gt;Node9 -->
<g id="edge12" class="edge">
<title>Node8&#45;&gt;Node9</title>
<path fill="none" stroke="midnightblue" d="M322.26,-168.44C353.96,-159.24 404.52,-144.56 439.56,-134.39"/>
<polygon fill="midnightblue" stroke="midnightblue" points="440.82,-137.67 449.45,-131.52 438.87,-130.94 440.82,-137.67"/>
</g>
<!-- Node11 -->
<g id="node11" class="node">
<title>Node11</title>
<g id="a_node11"><a xlink:title=" ">
<polygon fill="white" stroke="#bfbfbf" points="246.29,-0.5 246.29,-19.5 309.29,-19.5 309.29,-0.5 246.29,-0.5"/>
<text text-anchor="middle" x="277.79" y="-7.5" font-family="Helvetica,sans-Serif" font-size="10.00">Arduino.h</text>
</a>
</g>
</g>
<!-- Node8&#45;&gt;Node11 -->
<g id="edge19" class="edge">
<title>Node8&#45;&gt;Node11</title>
<path fill="none" stroke="midnightblue" d="M263.85,-168.41C225.86,-155.38 160.7,-126.63 132.79,-76 109.55,-33.85 185.34,-18.96 235.97,-13.75"/>
<polygon fill="midnightblue" stroke="midnightblue" points="236.41,-17.23 246.03,-12.81 235.75,-10.26 236.41,-17.23"/>
</g>
<!-- Node8&#45;&gt;Node12 -->
<g id="edge18" class="edge">
<title>Node8&#45;&gt;Node12</title>
<path fill="none" stroke="midnightblue" d="M259.51,-168.44C223.34,-159.14 165.41,-144.25 125.8,-134.06"/>
<polygon fill="midnightblue" stroke="midnightblue" points="126.46,-130.62 115.91,-131.52 124.72,-137.4 126.46,-130.62"/>
</g>
<!-- Node9&#45;&gt;Node2 -->
<g id="edge13" class="edge">
<title>Node9&#45;&gt;Node2</title>
<path fill="none" stroke="midnightblue" d="M490.14,-112.28C508.02,-98.85 544.17,-72.9 577.79,-56 604.93,-42.36 637.24,-30.7 661.93,-22.67"/>
<polygon fill="midnightblue" stroke="midnightblue" points="663.21,-25.93 671.67,-19.56 661.08,-19.27 663.21,-25.93"/>
</g>
<!-- Node9&#45;&gt;Node7 -->
<g id="edge17" class="edge">
<title>Node9&#45;&gt;Node7</title>
<path fill="none" stroke="midnightblue" d="M440.92,-112.44C399.31,-103.04 332.42,-87.93 287.32,-77.74"/>
<polygon fill="midnightblue" stroke="midnightblue" points="288,-74.31 277.48,-75.52 286.46,-81.13 288,-74.31"/>
</g>
<!-- Node10 -->
<g id="node10" class="node">
<title>Node10</title>
<g id="a_node10"><a xlink:href="../../d6/d3b/FixArduinoMacros_8hpp.html" target="_top" xlink:title=" ">
<polygon fill="white" stroke="black" points="355.79,-56.5 355.79,-75.5 525.79,-75.5 525.79,-56.5 355.79,-56.5"/>
<text text-anchor="middle" x="440.79" y="-63.5" font-family="Helvetica,sans-Serif" font-size="10.00">AH/Math/FixArduinoMacros.hpp</text>
</a>
</g>
</g>
<!-- Node9&#45;&gt;Node10 -->
<g id="edge14" class="edge">
<title>Node9&#45;&gt;Node10</title>
<path fill="none" stroke="midnightblue" d="M472.51,-112.08C467.14,-104.46 459.27,-93.26 452.71,-83.94"/>
<polygon fill="midnightblue" stroke="midnightblue" points="455.56,-81.91 446.94,-75.75 449.84,-85.94 455.56,-81.91"/>
</g>
<!-- Node10&#45;&gt;Node2 -->
<g id="edge15" class="edge">
<title>Node10&#45;&gt;Node2</title>
<path fill="none" stroke="midnightblue" d="M481.98,-56.44C527.43,-47 600.63,-31.8 649.7,-21.61"/>
<polygon fill="midnightblue" stroke="midnightblue" points="650.7,-24.98 659.78,-19.52 649.28,-18.12 650.7,-24.98"/>
</g>
<!-- Node10&#45;&gt;Node11 -->
<g id="edge16" class="edge">
<title>Node10&#45;&gt;Node11</title>
<path fill="none" stroke="midnightblue" d="M414.96,-56.44C387.54,-47.36 344.01,-32.94 313.35,-22.78"/>
<polygon fill="midnightblue" stroke="midnightblue" points="314.09,-19.34 303.49,-19.52 311.88,-25.98 314.09,-19.34"/>
</g>
<!-- Node13&#45;&gt;Node2 -->
<g id="edge21" class="edge">
<title>Node13&#45;&gt;Node2</title>
<path fill="none" stroke="midnightblue" d="M510.52,-336.48C490.25,-329.86 466.24,-318.58 451.79,-300 430.83,-273.06 424.63,-254.06 440.79,-224 449.55,-207.69 565.44,-143.72 579.79,-132 621.56,-97.87 664.95,-51.28 686.65,-27.07"/>
<polygon fill="midnightblue" stroke="midnightblue" points="689.35,-29.3 693.38,-19.51 684.12,-24.65 689.35,-29.3"/>
</g>
<!-- Node13&#45;&gt;Node5 -->
<g id="edge34" class="edge">
<title>Node13&#45;&gt;Node5</title>
<path fill="none" stroke="midnightblue" d="M551.92,-355.75C553.44,-362.86 553.89,-373.14 553.26,-382.1"/>
<polygon fill="midnightblue" stroke="midnightblue" points="549.78,-381.71 551.95,-392.08 556.72,-382.62 549.78,-381.71"/>
</g>
<!-- Node13&#45;&gt;Node7 -->
<g id="edge22" class="edge">
<title>Node13&#45;&gt;Node7</title>
<path fill="none" stroke="midnightblue" d="M480.83,-336.48C454.98,-330.17 426.79,-319.16 406.79,-300 384.55,-278.69 382.79,-265.8 382.79,-235 382.79,-235 382.79,-235 382.79,-177 382.79,-124.84 322.28,-93.99 279.98,-78.8"/>
<polygon fill="midnightblue" stroke="midnightblue" points="281.06,-75.47 270.46,-75.54 278.78,-82.09 281.06,-75.47"/>
</g>
<!-- Node14 -->
<g id="node14" class="node">
<title>Node14</title>
<g id="a_node14"><a xlink:href="../../db/d02/Settings_8hpp.html" target="_top" xlink:title="All user settings and debugging options can be changed here.">
<polygon fill="white" stroke="black" points="659.29,-280.5 659.29,-299.5 736.29,-299.5 736.29,-280.5 659.29,-280.5"/>
<text text-anchor="middle" x="697.79" y="-287.5" font-family="Helvetica,sans-Serif" font-size="10.00">Settings.hpp</text>
</a>
</g>
</g>
<!-- Node13&#45;&gt;Node14 -->
<g id="edge23" class="edge">
<title>Node13&#45;&gt;Node14</title>
<path fill="none" stroke="midnightblue" d="M570.71,-336.44C596,-327.4 636.09,-313.06 664.47,-302.92"/>
<polygon fill="midnightblue" stroke="midnightblue" points="665.73,-306.18 673.97,-299.52 663.38,-299.59 665.73,-306.18"/>
</g>
<!-- Node20 -->
<g id="node20" class="node">
<title>Node20</title>
<g id="a_node20"><a xlink:href="../../d9/d98/TeensyUSBTypes_8hpp.html" target="_top" xlink:title=" ">
<polygon fill="white" stroke="black" points="460.29,-280.5 460.29,-299.5 633.29,-299.5 633.29,-280.5 460.29,-280.5"/>
<text text-anchor="middle" x="546.79" y="-287.5" font-family="Helvetica,sans-Serif" font-size="10.00">AH/Teensy/TeensyUSBTypes.hpp</text>
</a>
</g>
</g>
<!-- Node13&#45;&gt;Node20 -->
<g id="edge33" class="edge">
<title>Node13&#45;&gt;Node20</title>
<path fill="none" stroke="midnightblue" d="M546.79,-336.08C546.79,-329.01 546.79,-318.86 546.79,-309.99"/>
<polygon fill="midnightblue" stroke="midnightblue" points="550.29,-309.75 546.79,-299.75 543.29,-309.75 550.29,-309.75"/>
</g>
<!-- Node15 -->
<g id="node15" class="node">
<title>Node15</title>
<g id="a_node15"><a xlink:href="../../dc/d50/Frequency_8hpp.html" target="_top" xlink:title=" ">
<polygon fill="white" stroke="black" points="695.79,-112.5 695.79,-131.5 829.79,-131.5 829.79,-112.5 695.79,-112.5"/>
<text text-anchor="middle" x="762.79" y="-119.5" font-family="Helvetica,sans-Serif" font-size="10.00">AH/Types/Frequency.hpp</text>
</a>
</g>
</g>
<!-- Node14&#45;&gt;Node15 -->
<g id="edge24" class="edge">
<title>Node14&#45;&gt;Node15</title>
<path fill="none" stroke="midnightblue" d="M701.28,-280.08C711.56,-253.83 741.82,-176.55 755.69,-141.12"/>
<polygon fill="midnightblue" stroke="midnightblue" points="759.04,-142.16 759.43,-131.57 752.53,-139.6 759.04,-142.16"/>
</g>
<!-- Node16 -->
<g id="node16" class="node">
<title>Node16</title>
<g id="a_node16"><a xlink:href="../../d7/d7c/ADCConfig_8hpp.html" target="_top" xlink:title="This file contains the platform&#45;specific ADC resolutions.">
<polygon fill="white" stroke="black" points="449.29,-224.5 449.29,-243.5 606.29,-243.5 606.29,-224.5 449.29,-224.5"/>
<text text-anchor="middle" x="527.79" y="-231.5" font-family="Helvetica,sans-Serif" font-size="10.00">AH/Hardware/ADCConfig.hpp</text>
</a>
</g>
</g>
<!-- Node14&#45;&gt;Node16 -->
<g id="edge27" class="edge">
<title>Node14&#45;&gt;Node16</title>
<path fill="none" stroke="midnightblue" d="M670.85,-280.44C642.13,-271.32 596.46,-256.81 564.46,-246.65"/>
<polygon fill="midnightblue" stroke="midnightblue" points="565.19,-243.21 554.6,-243.52 563.07,-249.88 565.19,-243.21"/>
</g>
<!-- Node17 -->
<g id="node17" class="node">
<title>Node17</title>
<g id="a_node17"><a xlink:title=" ">
<polygon fill="white" stroke="#bfbfbf" points="624.29,-224.5 624.29,-243.5 677.29,-243.5 677.29,-224.5 624.29,-224.5"/>
<text text-anchor="middle" x="650.79" y="-231.5" font-family="Helvetica,sans-Serif" font-size="10.00">limits.h</text>
</a>
</g>
</g>
<!-- Node14&#45;&gt;Node17 -->
<g id="edge30" class="edge">
<title>Node14&#45;&gt;Node17</title>
<path fill="none" stroke="midnightblue" d="M690.02,-280.08C683.25,-272.3 673.24,-260.8 665.03,-251.37"/>
<polygon fill="midnightblue" stroke="midnightblue" points="667.61,-249 658.4,-243.75 662.33,-253.59 667.61,-249"/>
</g>
<!-- Node14&#45;&gt;Node18 -->
<g id="edge31" class="edge">
<title>Node14&#45;&gt;Node18</title>
<path fill="none" stroke="midnightblue" d="M708.07,-280.32C717.62,-272.26 732.07,-260.08 743.57,-250.37"/>
<polygon fill="midnightblue" stroke="midnightblue" points="745.93,-252.96 751.32,-243.83 741.42,-247.61 745.93,-252.96"/>
</g>
<!-- Node14&#45;&gt;Node19 -->
<g id="edge32" class="edge">
<title>Node14&#45;&gt;Node19</title>
<path fill="none" stroke="midnightblue" d="M719.49,-280.44C742.14,-271.52 777.86,-257.44 803.54,-247.32"/>
<polygon fill="midnightblue" stroke="midnightblue" points="805.16,-250.44 813.18,-243.52 802.59,-243.93 805.16,-250.44"/>
</g>
<!-- Node15&#45;&gt;Node2 -->
<g id="edge25" class="edge">
<title>Node15&#45;&gt;Node2</title>
<path fill="none" stroke="midnightblue" d="M757.92,-112.37C747.73,-94.3 723.99,-52.18 710.54,-28.31"/>
<polygon fill="midnightblue" stroke="midnightblue" points="713.59,-26.58 705.63,-19.59 707.49,-30.02 713.59,-26.58"/>
</g>
<!-- Node15&#45;&gt;Node7 -->
<g id="edge26" class="edge">
<title>Node15&#45;&gt;Node7</title>
<path fill="none" stroke="midnightblue" d="M695.75,-114.08C603.45,-104.55 436.86,-87.35 332.62,-76.59"/>
<polygon fill="midnightblue" stroke="midnightblue" points="332.73,-73.08 322.42,-75.53 332.01,-80.04 332.73,-73.08"/>
</g>
<!-- Node16&#45;&gt;Node2 -->
<g id="edge28" class="edge">
<title>Node16&#45;&gt;Node2</title>
<path fill="none" stroke="midnightblue" d="M575.87,-224.44C599.18,-218.02 625.93,-206.94 643.79,-188 686.37,-142.85 697.14,-65.68 699.86,-30.05"/>
<polygon fill="midnightblue" stroke="midnightblue" points="703.38,-29.87 700.51,-19.67 696.4,-29.43 703.38,-29.87"/>
</g>
<!-- Node16&#45;&gt;Node8 -->
<g id="edge29" class="edge">
<title>Node16&#45;&gt;Node8</title>
<path fill="none" stroke="midnightblue" d="M490.55,-224.44C449.73,-215.06 384.14,-199.99 339.8,-189.8"/>
<polygon fill="midnightblue" stroke="midnightblue" points="340.38,-186.34 329.85,-187.52 338.81,-193.17 340.38,-186.34"/>
</g>
</g>
</svg>
