<?xml version="1.0" encoding="UTF-8" standalone="no"?>
<!DOCTYPE svg PUBLIC "-//W3C//DTD SVG 1.1//EN"
 "http://www.w3.org/Graphics/SVG/1.1/DTD/svg11.dtd">
<!-- Generated by graphviz version 2.43.0 (0)
 -->
<!-- Title: FilteredAnalog.hpp Pages: 1 -->
<svg width="1979pt" height="789pt"
 viewBox="0.00 0.00 1978.62 789.00" xmlns="http://www.w3.org/2000/svg" xmlns:xlink="http://www.w3.org/1999/xlink">
<g id="graph0" class="graph" transform="scale(1 1) rotate(0) translate(4 785)">
<title>FilteredAnalog.hpp</title>
<polygon fill="white" stroke="transparent" points="-4,4 -4,-785 1974.62,-785 1974.62,4 -4,4"/>
<!-- Node1 -->
<g id="node1" class="node">
<title>Node1</title>
<g id="a_node1"><a xlink:title=" ">
<polygon fill="#bfbfbf" stroke="black" points="302,-761.5 302,-780.5 410,-780.5 410,-761.5 302,-761.5"/>
<text text-anchor="middle" x="356" y="-768.5" font-family="Helvetica,sans-Serif" font-size="10.00">FilteredAnalog.hpp</text>
</a>
</g>
</g>
<!-- Node2 -->
<g id="node2" class="node">
<title>Node2</title>
<g id="a_node2"><a xlink:href="../../d1/d65/Warnings_8hpp.html" target="_top" xlink:title=" ">
<polygon fill="white" stroke="black" points="946.5,-0.5 946.5,-19.5 1089.5,-19.5 1089.5,-0.5 946.5,-0.5"/>
<text text-anchor="middle" x="1018" y="-7.5" font-family="Helvetica,sans-Serif" font-size="10.00">AH/Settings/Warnings.hpp</text>
</a>
</g>
</g>
<!-- Node1&#45;&gt;Node2 -->
<g id="edge1" class="edge">
<title>Node1&#45;&gt;Node2</title>
<path fill="none" stroke="midnightblue" d="M313.36,-761.45C257.34,-747.45 166,-713.84 166,-643.5 166,-643.5 166,-643.5 166,-345 166,-290.69 136.34,-276.81 149,-224 162.03,-169.69 160.83,-144.85 206,-112 321.16,-28.27 753.86,-13.74 936.19,-11.38"/>
<polygon fill="midnightblue" stroke="midnightblue" points="936.3,-14.87 946.26,-11.25 936.21,-7.87 936.3,-14.87"/>
</g>
<!-- Node3 -->
<g id="node3" class="node">
<title>Node3</title>
<g id="a_node3"><a xlink:href="../../d3/df0/EMA_8hpp.html" target="_top" xlink:title=" ">
<polygon fill="white" stroke="black" points="28,-280.5 28,-299.5 138,-299.5 138,-280.5 28,-280.5"/>
<text text-anchor="middle" x="83" y="-287.5" font-family="Helvetica,sans-Serif" font-size="10.00">AH/Filters/EMA.hpp</text>
</a>
</g>
</g>
<!-- Node1&#45;&gt;Node3 -->
<g id="edge2" class="edge">
<title>Node1&#45;&gt;Node3</title>
<path fill="none" stroke="midnightblue" d="M301.64,-769.83C257.42,-767.11 195.44,-757.14 152,-725 118.56,-700.26 106,-685.09 106,-643.5 106,-643.5 106,-643.5 106,-401 106,-368.12 96.03,-330.86 89.22,-309.24"/>
<polygon fill="midnightblue" stroke="midnightblue" points="92.54,-308.12 86.1,-299.71 85.89,-310.3 92.54,-308.12"/>
</g>
<!-- Node6 -->
<g id="node6" class="node">
<title>Node6</title>
<g id="a_node6"><a xlink:title=" ">
<polygon fill="white" stroke="#bfbfbf" points="214.5,-112.5 214.5,-131.5 321.5,-131.5 321.5,-112.5 214.5,-112.5"/>
<text text-anchor="middle" x="268" y="-119.5" font-family="Helvetica,sans-Serif" font-size="10.00">AH/STL/type_traits</text>
</a>
</g>
</g>
<!-- Node1&#45;&gt;Node6 -->
<g id="edge71" class="edge">
<title>Node1&#45;&gt;Node6</title>
<path fill="none" stroke="midnightblue" d="M301.91,-766.57C251.77,-761.87 175.95,-750.81 115,-725 57.31,-700.57 0,-706.14 0,-643.5 0,-643.5 0,-643.5 0,-345 0,-227.28 155.24,-160.16 229.41,-134.8"/>
<polygon fill="midnightblue" stroke="midnightblue" points="230.94,-137.98 239.32,-131.5 228.73,-131.34 230.94,-137.98"/>
</g>
<!-- Node7 -->
<g id="node7" class="node">
<title>Node7</title>
<g id="a_node7"><a xlink:href="../../d3/d09/Hysteresis_8hpp.html" target="_top" xlink:title=" ">
<polygon fill="white" stroke="black" points="270,-280.5 270,-299.5 410,-299.5 410,-280.5 270,-280.5"/>
<text text-anchor="middle" x="340" y="-287.5" font-family="Helvetica,sans-Serif" font-size="10.00">AH/Filters/Hysteresis.hpp</text>
</a>
</g>
</g>
<!-- Node1&#45;&gt;Node7 -->
<g id="edge7" class="edge">
<title>Node1&#45;&gt;Node7</title>
<path fill="none" stroke="midnightblue" d="M342.09,-761.31C330.31,-753.26 313.82,-740.26 304,-725 283.56,-693.25 280,-681.26 280,-643.5 280,-643.5 280,-643.5 280,-401 280,-363.88 306.65,-327.38 324.43,-307.16"/>
<polygon fill="midnightblue" stroke="midnightblue" points="327.24,-309.28 331.4,-299.53 322.07,-304.55 327.24,-309.28"/>
</g>
<!-- Node8 -->
<g id="node8" class="node">
<title>Node8</title>
<g id="a_node8"><a xlink:href="../../dd/ddf/ExtendedInputOutput_8hpp.html" target="_top" xlink:title=" ">
<polygon fill="white" stroke="black" points="1356.5,-694.5 1356.5,-724.5 1533.5,-724.5 1533.5,-694.5 1356.5,-694.5"/>
<text text-anchor="start" x="1364.5" y="-712.5" font-family="Helvetica,sans-Serif" font-size="10.00">AH/Hardware/ExtendedInput</text>
<text text-anchor="middle" x="1445" y="-701.5" font-family="Helvetica,sans-Serif" font-size="10.00">Output/ExtendedInputOutput.hpp</text>
</a>
</g>
</g>
<!-- Node1&#45;&gt;Node8 -->
<g id="edge10" class="edge">
<title>Node1&#45;&gt;Node8</title>
<path fill="none" stroke="midnightblue" d="M410,-767.05C582.56,-757.62 1122.37,-728.13 1346.22,-715.9"/>
<polygon fill="midnightblue" stroke="midnightblue" points="1346.52,-719.39 1356.31,-715.35 1346.13,-712.4 1346.52,-719.39"/>
</g>
<!-- Node10 -->
<g id="node10" class="node">
<title>Node10</title>
<g id="a_node10"><a xlink:href="../../d4/d35/Hardware-Types_8hpp.html" target="_top" xlink:title=" ">
<polygon fill="white" stroke="black" points="1049.5,-560.5 1049.5,-590.5 1180.5,-590.5 1180.5,-560.5 1049.5,-560.5"/>
<text text-anchor="start" x="1057.5" y="-578.5" font-family="Helvetica,sans-Serif" font-size="10.00">AH/Hardware/Hardware</text>
<text text-anchor="middle" x="1115" y="-567.5" font-family="Helvetica,sans-Serif" font-size="10.00">&#45;Types.hpp</text>
</a>
</g>
</g>
<!-- Node1&#45;&gt;Node10 -->
<g id="edge64" class="edge">
<title>Node1&#45;&gt;Node10</title>
<path fill="none" stroke="midnightblue" d="M389.59,-761.44C506.17,-731.72 894.59,-632.69 1049.95,-593.08"/>
<polygon fill="midnightblue" stroke="midnightblue" points="1051.02,-596.42 1059.84,-590.56 1049.29,-589.64 1051.02,-596.42"/>
</g>
<!-- Node17 -->
<g id="node17" class="node">
<title>Node17</title>
<g id="a_node17"><a xlink:href="../../d7/d79/MinMaxFix_8hpp.html" target="_top" xlink:title=" ">
<polygon fill="white" stroke="black" points="1539,-112.5 1539,-131.5 1675,-131.5 1675,-112.5 1539,-112.5"/>
<text text-anchor="middle" x="1607" y="-119.5" font-family="Helvetica,sans-Serif" font-size="10.00">AH/Math/MinMaxFix.hpp</text>
</a>
</g>
</g>
<!-- Node1&#45;&gt;Node17 -->
<g id="edge70" class="edge">
<title>Node1&#45;&gt;Node17</title>
<path fill="none" stroke="midnightblue" d="M410.06,-769.7C627.87,-768.26 1434.69,-760.56 1543,-725 1604.25,-704.89 1663,-707.97 1663,-643.5 1663,-643.5 1663,-643.5 1663,-457 1663,-383.11 1654,-364.89 1654,-291 1654,-291 1654,-291 1654,-233 1654,-197.7 1633.28,-160.79 1619.36,-139.96"/>
<polygon fill="midnightblue" stroke="midnightblue" points="1622.12,-137.8 1613.54,-131.59 1616.37,-141.8 1622.12,-137.8"/>
</g>
<!-- Node20 -->
<g id="node20" class="node">
<title>Node20</title>
<g id="a_node20"><a xlink:href="../../d2/dd5/SettingsWrapper_8hpp.html" target="_top" xlink:title=" ">
<polygon fill="white" stroke="black" points="817,-336.5 817,-355.5 995,-355.5 995,-336.5 817,-336.5"/>
<text text-anchor="middle" x="906" y="-343.5" font-family="Helvetica,sans-Serif" font-size="10.00">AH/Settings/SettingsWrapper.hpp</text>
</a>
</g>
</g>
<!-- Node1&#45;&gt;Node20 -->
<g id="edge73" class="edge">
<title>Node1&#45;&gt;Node20</title>
<path fill="none" stroke="midnightblue" d="M358.18,-761.48C363.17,-741.19 375,-688.36 375,-643.5 375,-643.5 375,-643.5 375,-574.5 375,-471.01 720.08,-386.53 853.87,-357.67"/>
<polygon fill="midnightblue" stroke="midnightblue" points="854.84,-361.04 863.89,-355.52 853.38,-354.19 854.84,-361.04"/>
</g>
<!-- Node32 -->
<g id="node32" class="node">
<title>Node32</title>
<g id="a_node32"><a xlink:href="../../d5/dee/IncreaseBitDepth_8hpp.html" target="_top" xlink:title=" ">
<polygon fill="white" stroke="black" points="465.5,-280.5 465.5,-299.5 632.5,-299.5 632.5,-280.5 465.5,-280.5"/>
<text text-anchor="middle" x="549" y="-287.5" font-family="Helvetica,sans-Serif" font-size="10.00">AH/Math/IncreaseBitDepth.hpp</text>
</a>
</g>
</g>
<!-- Node1&#45;&gt;Node32 -->
<g id="edge65" class="edge">
<title>Node1&#45;&gt;Node32</title>
<path fill="none" stroke="midnightblue" d="M351.49,-761.37C341.43,-741.29 318,-689.59 318,-643.5 318,-643.5 318,-643.5 318,-513 318,-403.71 454.08,-331.41 517.35,-303.69"/>
<polygon fill="midnightblue" stroke="midnightblue" points="519.03,-306.78 526.85,-299.63 516.28,-300.35 519.03,-306.78"/>
</g>
<!-- Node33 -->
<g id="node33" class="node">
<title>Node33</title>
<g id="a_node33"><a xlink:title=" ">
<polygon fill="white" stroke="#bfbfbf" points="1691.5,-700 1691.5,-719 1774.5,-719 1774.5,-700 1691.5,-700"/>
<text text-anchor="middle" x="1733" y="-707" font-family="Helvetica,sans-Serif" font-size="10.00">AH/STL/utility</text>
</a>
</g>
</g>
<!-- Node1&#45;&gt;Node33 -->
<g id="edge72" class="edge">
<title>Node1&#45;&gt;Node33</title>
<path fill="none" stroke="midnightblue" d="M410.35,-769.74C626.62,-768.44 1426.47,-761.25 1677,-725 1682.92,-724.14 1689.12,-722.9 1695.15,-721.5"/>
<polygon fill="midnightblue" stroke="midnightblue" points="1696.19,-724.84 1705.04,-719.02 1694.49,-718.05 1696.19,-724.84"/>
</g>
<!-- Node3&#45;&gt;Node2 -->
<g id="edge3" class="edge">
<title>Node3&#45;&gt;Node2</title>
<path fill="none" stroke="midnightblue" d="M79.09,-280.36C71.17,-262.07 54,-217.91 54,-179 54,-179 54,-179 54,-121 54,-90.2 53.16,-74.2 78,-56 112.31,-30.85 713.23,-16.83 935.89,-12.48"/>
<polygon fill="midnightblue" stroke="midnightblue" points="936.27,-15.98 946.2,-12.28 936.14,-8.98 936.27,-15.98"/>
</g>
<!-- Node4 -->
<g id="node4" class="node">
<title>Node4</title>
<g id="a_node4"><a xlink:title=" ">
<polygon fill="white" stroke="#bfbfbf" points="401.5,-224.5 401.5,-243.5 454.5,-243.5 454.5,-224.5 401.5,-224.5"/>
<text text-anchor="middle" x="428" y="-231.5" font-family="Helvetica,sans-Serif" font-size="10.00">stdint.h</text>
</a>
</g>
</g>
<!-- Node3&#45;&gt;Node4 -->
<g id="edge4" class="edge">
<title>Node3&#45;&gt;Node4</title>
<path fill="none" stroke="midnightblue" d="M137.67,-280.44C208.61,-269.34 330.5,-250.26 391.29,-240.75"/>
<polygon fill="midnightblue" stroke="midnightblue" points="391.86,-244.2 401.2,-239.19 390.78,-237.28 391.86,-244.2"/>
</g>
<!-- Node5 -->
<g id="node5" class="node">
<title>Node5</title>
<g id="a_node5"><a xlink:title=" ">
<polygon fill="white" stroke="#bfbfbf" points="158,-224.5 158,-243.5 240,-243.5 240,-224.5 158,-224.5"/>
<text text-anchor="middle" x="199" y="-231.5" font-family="Helvetica,sans-Serif" font-size="10.00">AH/STL/limits</text>
</a>
</g>
</g>
<!-- Node3&#45;&gt;Node5 -->
<g id="edge5" class="edge">
<title>Node3&#45;&gt;Node5</title>
<path fill="none" stroke="midnightblue" d="M101.38,-280.44C120.22,-271.68 149.73,-257.94 171.38,-247.86"/>
<polygon fill="midnightblue" stroke="midnightblue" points="173.12,-250.91 180.71,-243.52 170.16,-244.56 173.12,-250.91"/>
</g>
<!-- Node3&#45;&gt;Node6 -->
<g id="edge6" class="edge">
<title>Node3&#45;&gt;Node6</title>
<path fill="none" stroke="midnightblue" d="M91.35,-280.38C103.69,-267.73 127.64,-243.54 149,-224 183.55,-192.4 225.67,-157.45 249.4,-138.06"/>
<polygon fill="midnightblue" stroke="midnightblue" points="251.72,-140.69 257.27,-131.66 247.3,-135.26 251.72,-140.69"/>
</g>
<!-- Node7&#45;&gt;Node2 -->
<g id="edge8" class="edge">
<title>Node7&#45;&gt;Node2</title>
<path fill="none" stroke="midnightblue" d="M346.03,-280.5C371.81,-244.95 477.14,-107.68 602,-56 660.54,-31.77 832.46,-19.67 936.06,-14.41"/>
<polygon fill="midnightblue" stroke="midnightblue" points="936.36,-17.9 946.18,-13.91 936.01,-10.91 936.36,-17.9"/>
</g>
<!-- Node7&#45;&gt;Node4 -->
<g id="edge9" class="edge">
<title>Node7&#45;&gt;Node4</title>
<path fill="none" stroke="midnightblue" d="M354.14,-280.32C367.87,-271.9 388.94,-258.97 405.06,-249.07"/>
<polygon fill="midnightblue" stroke="midnightblue" points="407.2,-251.87 413.9,-243.65 403.54,-245.9 407.2,-251.87"/>
</g>
<!-- Node8&#45;&gt;Node2 -->
<g id="edge63" class="edge">
<title>Node8&#45;&gt;Node2</title>
<path fill="none" stroke="midnightblue" d="M1510.68,-694.42C1548.36,-685.07 1590.76,-671.99 1604,-658 1629.71,-630.83 1625,-613.91 1625,-576.5 1625,-576.5 1625,-576.5 1625,-457 1625,-377.44 1692,-370.56 1692,-291 1692,-291 1692,-291 1692,-233 1692,-154.25 1739.06,-112.3 1684,-56 1643.95,-15.05 1268.52,-10.51 1099.63,-10.57"/>
<polygon fill="midnightblue" stroke="midnightblue" points="1099.54,-7.07 1089.54,-10.58 1099.55,-14.07 1099.54,-7.07"/>
</g>
<!-- Node9 -->
<g id="node9" class="node">
<title>Node9</title>
<g id="a_node9"><a xlink:href="../../d2/d3c/Arduino-Hardware-Types_8hpp.html" target="_top" xlink:title=" ">
<polygon fill="white" stroke="black" points="1473,-627.5 1473,-657.5 1595,-657.5 1595,-627.5 1473,-627.5"/>
<text text-anchor="start" x="1481" y="-645.5" font-family="Helvetica,sans-Serif" font-size="10.00">AH/Hardware/Arduino</text>
<text text-anchor="middle" x="1534" y="-634.5" font-family="Helvetica,sans-Serif" font-size="10.00">&#45;Hardware&#45;Types.hpp</text>
</a>
</g>
</g>
<!-- Node8&#45;&gt;Node9 -->
<g id="edge11" class="edge">
<title>Node8&#45;&gt;Node9</title>
<path fill="none" stroke="midnightblue" d="M1464.31,-694.4C1476.67,-685.37 1492.9,-673.51 1506.59,-663.52"/>
<polygon fill="midnightblue" stroke="midnightblue" points="1508.71,-666.3 1514.73,-657.58 1504.59,-660.65 1508.71,-666.3"/>
</g>
<!-- Node15 -->
<g id="node15" class="node">
<title>Node15</title>
<g id="a_node15"><a xlink:href="../../dc/dc7/NamespaceSettings_8hpp.html" target="_top" xlink:title=" ">
<polygon fill="white" stroke="black" points="1216.5,-56.5 1216.5,-75.5 1411.5,-75.5 1411.5,-56.5 1216.5,-56.5"/>
<text text-anchor="middle" x="1314" y="-63.5" font-family="Helvetica,sans-Serif" font-size="10.00">AH/Settings/NamespaceSettings.hpp</text>
</a>
</g>
</g>
<!-- Node8&#45;&gt;Node15 -->
<g id="edge62" class="edge">
<title>Node8&#45;&gt;Node15</title>
<path fill="none" stroke="midnightblue" d="M1445,-694.24C1445,-670.03 1445,-619.35 1445,-576.5 1445,-576.5 1445,-576.5 1445,-457 1445,-381.31 1483,-366.69 1483,-291 1483,-291 1483,-291 1483,-233 1483,-169.26 1453.88,-154.08 1406,-112 1389.7,-97.67 1368.02,-86.78 1349.81,-79.3"/>
<polygon fill="midnightblue" stroke="midnightblue" points="1350.96,-75.99 1340.38,-75.6 1348.41,-82.51 1350.96,-75.99"/>
</g>
<!-- Node31 -->
<g id="node31" class="node">
<title>Node31</title>
<g id="a_node31"><a xlink:title=" ">
<polygon fill="white" stroke="#bfbfbf" points="1329.5,-633 1329.5,-652 1416.5,-652 1416.5,-633 1329.5,-633"/>
<text text-anchor="middle" x="1373" y="-640" font-family="Helvetica,sans-Serif" font-size="10.00">AH/STL/climits</text>
</a>
</g>
</g>
<!-- Node8&#45;&gt;Node31 -->
<g id="edge61" class="edge">
<title>Node8&#45;&gt;Node31</title>
<path fill="none" stroke="midnightblue" d="M1429.38,-694.4C1417.82,-683.96 1402.08,-669.75 1390.17,-659"/>
<polygon fill="midnightblue" stroke="midnightblue" points="1392.4,-656.3 1382.63,-652.19 1387.71,-661.49 1392.4,-656.3"/>
</g>
<!-- Node9&#45;&gt;Node2 -->
<g id="edge12" class="edge">
<title>Node9&#45;&gt;Node2</title>
<path fill="none" stroke="midnightblue" d="M1528.17,-627.2C1524.44,-617.24 1519.94,-603.54 1518,-591 1515.89,-577.38 1517.9,-573.78 1518,-560 1518.67,-465.33 1521,-441.68 1521,-347 1521,-347 1521,-347 1521,-233 1521,-142.65 1496.39,-105.81 1421,-56 1369.96,-22.28 1202.51,-13.6 1100.21,-11.51"/>
<polygon fill="midnightblue" stroke="midnightblue" points="1099.97,-8 1089.91,-11.32 1099.84,-15 1099.97,-8"/>
</g>
<!-- Node9&#45;&gt;Node10 -->
<g id="edge13" class="edge">
<title>Node9&#45;&gt;Node10</title>
<path fill="none" stroke="midnightblue" d="M1472.63,-631.98C1397.86,-620.38 1271.55,-600.79 1190.79,-588.26"/>
<polygon fill="midnightblue" stroke="midnightblue" points="1191.1,-584.76 1180.69,-586.69 1190.03,-591.68 1191.1,-584.76"/>
</g>
<!-- Node16 -->
<g id="node16" class="node">
<title>Node16</title>
<g id="a_node16"><a xlink:href="../../d6/ddf/Arduino-Wrapper_8h.html" target="_top" xlink:title=" ">
<polygon fill="white" stroke="black" points="1293,-168.5 1293,-187.5 1417,-187.5 1417,-168.5 1293,-168.5"/>
<text text-anchor="middle" x="1355" y="-175.5" font-family="Helvetica,sans-Serif" font-size="10.00">AH/Arduino&#45;Wrapper.h</text>
</a>
</g>
</g>
<!-- Node9&#45;&gt;Node16 -->
<g id="edge60" class="edge">
<title>Node9&#45;&gt;Node16</title>
<path fill="none" stroke="midnightblue" d="M1532.03,-627.47C1529.56,-611.09 1524.79,-583.25 1518,-560 1473.03,-405.99 1461.34,-365.66 1386,-224 1380.77,-214.16 1373.81,-203.87 1367.81,-195.62"/>
<polygon fill="midnightblue" stroke="midnightblue" points="1370.59,-193.5 1361.8,-187.58 1364.98,-197.69 1370.59,-193.5"/>
</g>
<!-- Node28 -->
<g id="node28" class="node">
<title>Node28</title>
<g id="a_node28"><a xlink:href="../../d0/db1/FunctionTraits_8hpp.html" target="_top" xlink:title=" ">
<polygon fill="white" stroke="black" points="1731.5,-112.5 1731.5,-131.5 1884.5,-131.5 1884.5,-112.5 1731.5,-112.5"/>
<text text-anchor="middle" x="1808" y="-119.5" font-family="Helvetica,sans-Serif" font-size="10.00">AH/Types/FunctionTraits.hpp</text>
</a>
</g>
</g>
<!-- Node9&#45;&gt;Node28 -->
<g id="edge55" class="edge">
<title>Node9&#45;&gt;Node28</title>
<path fill="none" stroke="midnightblue" d="M1544.47,-627.14C1559.92,-604.49 1587,-558.58 1587,-515 1587,-515 1587,-515 1587,-457 1587,-311.77 1734.12,-181.18 1788.29,-138.02"/>
<polygon fill="midnightblue" stroke="midnightblue" points="1790.72,-140.57 1796.43,-131.64 1786.4,-135.06 1790.72,-140.57"/>
</g>
<!-- Node10&#45;&gt;Node2 -->
<g id="edge14" class="edge">
<title>Node10&#45;&gt;Node2</title>
<path fill="none" stroke="midnightblue" d="M1138.97,-560.46C1167.99,-541.46 1213,-504.63 1213,-459 1213,-459 1213,-459 1213,-345 1213,-274.21 1126.41,-108.57 1079,-56 1068.18,-44.01 1053.72,-33.17 1041.59,-25.14"/>
<polygon fill="midnightblue" stroke="midnightblue" points="1043.18,-22 1032.87,-19.57 1039.42,-27.9 1043.18,-22"/>
</g>
<!-- Node10&#45;&gt;Node4 -->
<g id="edge54" class="edge">
<title>Node10&#45;&gt;Node4</title>
<path fill="none" stroke="midnightblue" d="M1049.18,-565.14C965.51,-551.56 818,-521.92 702,-468 582.27,-412.35 541.52,-401.43 457,-300 445.64,-286.37 437.9,-267.57 433.29,-253.7"/>
<polygon fill="midnightblue" stroke="midnightblue" points="436.54,-252.36 430.26,-243.82 429.85,-254.41 436.54,-252.36"/>
</g>
<!-- Node10&#45;&gt;Node5 -->
<g id="edge52" class="edge">
<title>Node10&#45;&gt;Node5</title>
<path fill="none" stroke="midnightblue" d="M1049.09,-572.71C922.97,-567.49 640.27,-547.16 418,-468 325.66,-435.11 286.28,-434.82 228,-356 205.28,-325.27 200.11,-279.23 199.09,-253.71"/>
<polygon fill="midnightblue" stroke="midnightblue" points="202.58,-253.48 198.86,-243.56 195.59,-253.64 202.58,-253.48"/>
</g>
<!-- Node11 -->
<g id="node11" class="node">
<title>Node11</title>
<g id="a_node11"><a xlink:href="../../de/d76/Array_8hpp.html" target="_top" xlink:title=" ">
<polygon fill="white" stroke="black" points="913.5,-504.5 913.5,-523.5 1048.5,-523.5 1048.5,-504.5 913.5,-504.5"/>
<text text-anchor="middle" x="981" y="-511.5" font-family="Helvetica,sans-Serif" font-size="10.00">AH/Containers/Array.hpp</text>
</a>
</g>
</g>
<!-- Node10&#45;&gt;Node11 -->
<g id="edge15" class="edge">
<title>Node10&#45;&gt;Node11</title>
<path fill="none" stroke="midnightblue" d="M1083.24,-560.4C1060.96,-550.51 1031.41,-537.38 1009.81,-527.79"/>
<polygon fill="midnightblue" stroke="midnightblue" points="1011.06,-524.52 1000.5,-523.66 1008.22,-530.91 1011.06,-524.52"/>
</g>
<!-- Node14 -->
<g id="node14" class="node">
<title>Node14</title>
<g id="a_node14"><a xlink:href="../../dd/d80/PrintStream_8hpp.html" target="_top" xlink:title=" ">
<polygon fill="white" stroke="black" points="1203.5,-224.5 1203.5,-243.5 1376.5,-243.5 1376.5,-224.5 1203.5,-224.5"/>
<text text-anchor="middle" x="1290" y="-231.5" font-family="Helvetica,sans-Serif" font-size="10.00">AH/PrintStream/PrintStream.hpp</text>
</a>
</g>
</g>
<!-- Node10&#45;&gt;Node14 -->
<g id="edge51" class="edge">
<title>Node10&#45;&gt;Node14</title>
<path fill="none" stroke="midnightblue" d="M1165.22,-560.4C1210.82,-544.16 1271,-512.58 1271,-459 1271,-459 1271,-459 1271,-345 1271,-312.49 1279.16,-275.35 1284.78,-253.61"/>
<polygon fill="midnightblue" stroke="midnightblue" points="1288.22,-254.32 1287.44,-243.75 1281.46,-252.5 1288.22,-254.32"/>
</g>
<!-- Node10&#45;&gt;Node15 -->
<g id="edge53" class="edge">
<title>Node10&#45;&gt;Node15</title>
<path fill="none" stroke="midnightblue" d="M1180.53,-562.23C1266.62,-544.2 1407,-507.38 1407,-459 1407,-459 1407,-459 1407,-401 1407,-297.1 1468.22,-262.93 1426,-168 1408.3,-128.2 1366.29,-97.47 1339.06,-80.83"/>
<polygon fill="midnightblue" stroke="midnightblue" points="1340.49,-77.62 1330.1,-75.54 1336.93,-83.64 1340.49,-77.62"/>
</g>
<!-- Node11&#45;&gt;Node2 -->
<g id="edge16" class="edge">
<title>Node11&#45;&gt;Node2</title>
<path fill="none" stroke="midnightblue" d="M976.63,-504.31C972.44,-495.44 966.4,-481.14 964,-468 962.4,-459.26 962.84,-456.81 964,-448 967.36,-422.45 968.16,-415.37 979,-392 987.2,-374.33 998.18,-374.59 1004,-356 1006.66,-347.52 1005.65,-344.73 1004,-336 999.02,-309.73 1001.57,-298.23 982,-280 942.81,-243.5 904.78,-281.96 867,-244 845.68,-222.58 847,-209.23 847,-179 847,-179 847,-179 847,-121 847,-64.74 913.28,-35.9 963.31,-22.14"/>
<polygon fill="midnightblue" stroke="midnightblue" points="964.28,-25.5 973.07,-19.58 962.51,-18.73 964.28,-25.5"/>
</g>
<!-- Node11&#45;&gt;Node6 -->
<g id="edge49" class="edge">
<title>Node11&#45;&gt;Node6</title>
<path fill="none" stroke="midnightblue" d="M913.39,-506.01C856.38,-499.19 772.97,-487.03 702,-468 499.41,-413.69 380.02,-472.7 261,-300 243.65,-274.82 257.48,-181.98 264.51,-141.77"/>
<polygon fill="midnightblue" stroke="midnightblue" points="268,-142.18 266.33,-131.72 261.11,-140.94 268,-142.18"/>
</g>
<!-- Node12 -->
<g id="node12" class="node">
<title>Node12</title>
<g id="a_node12"><a xlink:href="../../d1/d93/Error_8hpp.html" target="_top" xlink:title=" ">
<polygon fill="white" stroke="black" points="1081,-448.5 1081,-467.5 1185,-467.5 1185,-448.5 1081,-448.5"/>
<text text-anchor="middle" x="1133" y="-455.5" font-family="Helvetica,sans-Serif" font-size="10.00">AH/Error/Error.hpp</text>
</a>
</g>
</g>
<!-- Node11&#45;&gt;Node12 -->
<g id="edge17" class="edge">
<title>Node11&#45;&gt;Node12</title>
<path fill="none" stroke="midnightblue" d="M1005.08,-504.44C1030.54,-495.4 1070.89,-481.06 1099.46,-470.92"/>
<polygon fill="midnightblue" stroke="midnightblue" points="1100.78,-474.16 1109.03,-467.52 1098.43,-467.57 1100.78,-474.16"/>
</g>
<!-- Node25 -->
<g id="node25" class="node">
<title>Node25</title>
<g id="a_node25"><a xlink:title=" ">
<polygon fill="white" stroke="#bfbfbf" points="615,-224.5 615,-243.5 671,-243.5 671,-224.5 615,-224.5"/>
<text text-anchor="middle" x="643" y="-231.5" font-family="Helvetica,sans-Serif" font-size="10.00">stddef.h</text>
</a>
</g>
</g>
<!-- Node11&#45;&gt;Node25 -->
<g id="edge50" class="edge">
<title>Node11&#45;&gt;Node25</title>
<path fill="none" stroke="midnightblue" d="M917.96,-504.48C824.48,-490.04 660,-456.98 660,-403 660,-403 660,-403 660,-345 660,-312.58 652.7,-275.42 647.67,-253.64"/>
<polygon fill="midnightblue" stroke="midnightblue" points="651.03,-252.67 645.29,-243.77 644.23,-254.31 651.03,-252.67"/>
</g>
<!-- Node27 -->
<g id="node27" class="node">
<title>Node27</title>
<g id="a_node27"><a xlink:title=" ">
<polygon fill="white" stroke="#bfbfbf" points="973,-448.5 973,-467.5 1063,-467.5 1063,-448.5 973,-448.5"/>
<text text-anchor="middle" x="1018" y="-455.5" font-family="Helvetica,sans-Serif" font-size="10.00">AH/STL/iterator</text>
</a>
</g>
</g>
<!-- Node11&#45;&gt;Node27 -->
<g id="edge48" class="edge">
<title>Node11&#45;&gt;Node27</title>
<path fill="none" stroke="midnightblue" d="M987.11,-504.08C992.28,-496.53 999.85,-485.49 1006.19,-476.23"/>
<polygon fill="midnightblue" stroke="midnightblue" points="1009.24,-477.98 1012,-467.75 1003.46,-474.02 1009.24,-477.98"/>
</g>
<!-- Node12&#45;&gt;Node2 -->
<g id="edge18" class="edge">
<title>Node12&#45;&gt;Node2</title>
<path fill="none" stroke="midnightblue" d="M1133.52,-448.45C1134.61,-429.95 1137,-384.84 1137,-347 1137,-347 1137,-347 1137,-289 1137,-208.05 1128.61,-185.19 1094,-112 1078.31,-78.82 1050.68,-45.89 1033.41,-27.04"/>
<polygon fill="midnightblue" stroke="midnightblue" points="1035.88,-24.55 1026.5,-19.64 1030.77,-29.33 1035.88,-24.55"/>
</g>
<!-- Node13 -->
<g id="node13" class="node">
<title>Node13</title>
<g id="a_node13"><a xlink:href="../../df/dee/Debug_8hpp.html" target="_top" xlink:title=" ">
<polygon fill="white" stroke="black" points="987.5,-392.5 987.5,-411.5 1108.5,-411.5 1108.5,-392.5 987.5,-392.5"/>
<text text-anchor="middle" x="1048" y="-399.5" font-family="Helvetica,sans-Serif" font-size="10.00">AH/Debug/Debug.hpp</text>
</a>
</g>
</g>
<!-- Node12&#45;&gt;Node13 -->
<g id="edge19" class="edge">
<title>Node12&#45;&gt;Node13</title>
<path fill="none" stroke="midnightblue" d="M1119.34,-448.32C1106.08,-439.9 1085.73,-426.97 1070.15,-417.07"/>
<polygon fill="midnightblue" stroke="midnightblue" points="1071.94,-414.06 1061.62,-411.65 1068.19,-419.97 1071.94,-414.06"/>
</g>
<!-- Node13&#45;&gt;Node2 -->
<g id="edge20" class="edge">
<title>Node13&#45;&gt;Node2</title>
<path fill="none" stroke="midnightblue" d="M1049.94,-392.36C1055.46,-365.75 1069.2,-283.24 1042,-224 1016.8,-169.12 966.27,-187.3 942,-132 924.02,-91.03 969.09,-47.74 997.3,-25.72"/>
<polygon fill="midnightblue" stroke="midnightblue" points="999.54,-28.41 1005.42,-19.6 995.33,-22.82 999.54,-28.41"/>
</g>
<!-- Node13&#45;&gt;Node14 -->
<g id="edge21" class="edge">
<title>Node13&#45;&gt;Node14</title>
<path fill="none" stroke="midnightblue" d="M1060.67,-392.31C1099.96,-365.36 1220.01,-283.01 1268.92,-249.46"/>
<polygon fill="midnightblue" stroke="midnightblue" points="1271.19,-252.15 1277.46,-243.61 1267.23,-246.38 1271.19,-252.15"/>
</g>
<!-- Node13&#45;&gt;Node20 -->
<g id="edge33" class="edge">
<title>Node13&#45;&gt;Node20</title>
<path fill="none" stroke="midnightblue" d="M1020.41,-392.44C994.98,-383.52 957.73,-369.44 932.62,-359.32"/>
<polygon fill="midnightblue" stroke="midnightblue" points="933.9,-356.06 923.32,-355.52 931.25,-362.54 933.9,-356.06"/>
</g>
<!-- Node14&#45;&gt;Node2 -->
<g id="edge23" class="edge">
<title>Node14&#45;&gt;Node2</title>
<path fill="none" stroke="midnightblue" d="M1286.45,-224.48C1274.15,-196.03 1230.52,-103.42 1165,-56 1141.8,-39.21 1112.23,-28.59 1085.7,-21.92"/>
<polygon fill="midnightblue" stroke="midnightblue" points="1086.23,-18.45 1075.7,-19.55 1084.62,-25.26 1086.23,-18.45"/>
</g>
<!-- Node14&#45;&gt;Node15 -->
<g id="edge22" class="edge">
<title>Node14&#45;&gt;Node15</title>
<path fill="none" stroke="midnightblue" d="M1288.51,-224.41C1287.02,-215.38 1284.85,-200.74 1284,-188 1283.41,-179.13 1282.72,-176.8 1284,-168 1288.33,-138.23 1299.47,-105.03 1306.89,-85.09"/>
<polygon fill="midnightblue" stroke="midnightblue" points="1310.17,-86.31 1310.47,-75.72 1303.63,-83.82 1310.17,-86.31"/>
</g>
<!-- Node14&#45;&gt;Node16 -->
<g id="edge24" class="edge">
<title>Node14&#45;&gt;Node16</title>
<path fill="none" stroke="midnightblue" d="M1300.44,-224.32C1310.15,-216.26 1324.82,-204.08 1336.5,-194.37"/>
<polygon fill="midnightblue" stroke="midnightblue" points="1338.91,-196.92 1344.37,-187.83 1334.44,-191.53 1338.91,-196.92"/>
</g>
<!-- Node16&#45;&gt;Node6 -->
<g id="edge31" class="edge">
<title>Node16&#45;&gt;Node6</title>
<path fill="none" stroke="midnightblue" d="M1292.65,-173.9C1101.51,-164.41 525.01,-135.77 331.86,-126.17"/>
<polygon fill="midnightblue" stroke="midnightblue" points="331.75,-122.66 321.59,-125.66 331.4,-129.65 331.75,-122.66"/>
</g>
<!-- Node16&#45;&gt;Node17 -->
<g id="edge25" class="edge">
<title>Node16&#45;&gt;Node17</title>
<path fill="none" stroke="midnightblue" d="M1394.93,-168.44C1438.89,-159.02 1509.63,-143.87 1557.18,-133.68"/>
<polygon fill="midnightblue" stroke="midnightblue" points="1558.21,-137.03 1567.26,-131.52 1556.75,-130.19 1558.21,-137.03"/>
</g>
<!-- Node19 -->
<g id="node19" class="node">
<title>Node19</title>
<g id="a_node19"><a xlink:title=" ">
<polygon fill="white" stroke="#bfbfbf" points="1755.5,-0.5 1755.5,-19.5 1818.5,-19.5 1818.5,-0.5 1755.5,-0.5"/>
<text text-anchor="middle" x="1787" y="-7.5" font-family="Helvetica,sans-Serif" font-size="10.00">Arduino.h</text>
</a>
</g>
</g>
<!-- Node16&#45;&gt;Node19 -->
<g id="edge32" class="edge">
<title>Node16&#45;&gt;Node19</title>
<path fill="none" stroke="midnightblue" d="M1417.23,-176.23C1539.93,-174 1808.6,-165.34 1894,-132 1931.76,-117.26 1948.19,-112.42 1966,-76 1992.57,-21.67 1889.78,-11.8 1828.93,-10.59"/>
<polygon fill="midnightblue" stroke="midnightblue" points="1828.87,-7.08 1818.82,-10.45 1828.78,-14.08 1828.87,-7.08"/>
</g>
<!-- Node17&#45;&gt;Node2 -->
<g id="edge26" class="edge">
<title>Node17&#45;&gt;Node2</title>
<path fill="none" stroke="midnightblue" d="M1584.75,-112.36C1562.24,-103.53 1526.51,-89.27 1496,-76 1476.67,-67.59 1473.32,-61.61 1453,-56 1333.14,-22.93 1188.62,-13.75 1100.04,-11.44"/>
<polygon fill="midnightblue" stroke="midnightblue" points="1099.86,-7.93 1089.78,-11.19 1099.7,-14.93 1099.86,-7.93"/>
</g>
<!-- Node17&#45;&gt;Node15 -->
<g id="edge30" class="edge">
<title>Node17&#45;&gt;Node15</title>
<path fill="none" stroke="midnightblue" d="M1560.57,-112.44C1508.92,-102.92 1425.49,-87.55 1370.19,-77.36"/>
<polygon fill="midnightblue" stroke="midnightblue" points="1370.68,-73.89 1360.21,-75.52 1369.41,-80.77 1370.68,-73.89"/>
</g>
<!-- Node18 -->
<g id="node18" class="node">
<title>Node18</title>
<g id="a_node18"><a xlink:href="../../d6/d3b/FixArduinoMacros_8hpp.html" target="_top" xlink:title=" ">
<polygon fill="white" stroke="black" points="1505,-56.5 1505,-75.5 1675,-75.5 1675,-56.5 1505,-56.5"/>
<text text-anchor="middle" x="1590" y="-63.5" font-family="Helvetica,sans-Serif" font-size="10.00">AH/Math/FixArduinoMacros.hpp</text>
</a>
</g>
</g>
<!-- Node17&#45;&gt;Node18 -->
<g id="edge27" class="edge">
<title>Node17&#45;&gt;Node18</title>
<path fill="none" stroke="midnightblue" d="M1604.19,-112.08C1601.92,-104.85 1598.63,-94.41 1595.79,-85.4"/>
<polygon fill="midnightblue" stroke="midnightblue" points="1599.1,-84.24 1592.75,-75.75 1592.42,-86.34 1599.1,-84.24"/>
</g>
<!-- Node18&#45;&gt;Node2 -->
<g id="edge28" class="edge">
<title>Node18&#45;&gt;Node2</title>
<path fill="none" stroke="midnightblue" d="M1504.98,-56.97C1395.84,-46.67 1207.75,-28.91 1100.06,-18.75"/>
<polygon fill="midnightblue" stroke="midnightblue" points="1100.18,-15.24 1089.89,-17.79 1099.52,-22.21 1100.18,-15.24"/>
</g>
<!-- Node18&#45;&gt;Node19 -->
<g id="edge29" class="edge">
<title>Node18&#45;&gt;Node19</title>
<path fill="none" stroke="midnightblue" d="M1621.22,-56.44C1654.93,-47.2 1708.8,-32.44 1745.93,-22.26"/>
<polygon fill="midnightblue" stroke="midnightblue" points="1747.21,-25.54 1755.93,-19.52 1745.36,-18.78 1747.21,-25.54"/>
</g>
<!-- Node20&#45;&gt;Node2 -->
<g id="edge34" class="edge">
<title>Node20&#45;&gt;Node2</title>
<path fill="none" stroke="midnightblue" d="M924.33,-336.42C947.51,-324.4 982.52,-301.59 966,-280 928.78,-231.37 878.19,-285.32 833,-244 810.27,-223.22 809,-209.8 809,-179 809,-179 809,-179 809,-121 809,-90.2 810.01,-76.49 833,-56 861.08,-30.98 900.74,-19.31 936.14,-14.07"/>
<polygon fill="midnightblue" stroke="midnightblue" points="937.03,-17.48 946.48,-12.7 936.11,-10.54 937.03,-17.48"/>
</g>
<!-- Node20&#45;&gt;Node13 -->
<g id="edge47" class="edge">
<title>Node20&#45;&gt;Node13</title>
<path fill="none" stroke="midnightblue" d="M933.48,-355.52C958.87,-364.43 996.12,-378.5 1021.27,-388.64"/>
<polygon fill="midnightblue" stroke="midnightblue" points="1020.01,-391.9 1030.59,-392.44 1022.65,-385.42 1020.01,-391.9"/>
</g>
<!-- Node20&#45;&gt;Node15 -->
<g id="edge35" class="edge">
<title>Node20&#45;&gt;Node15</title>
<path fill="none" stroke="midnightblue" d="M926.52,-336.39C945.76,-328.02 975.05,-314.48 999,-300 1118.74,-227.61 1249.43,-121.12 1296.16,-82.07"/>
<polygon fill="midnightblue" stroke="midnightblue" points="1298.48,-84.69 1303.89,-75.58 1293.98,-79.33 1298.48,-84.69"/>
</g>
<!-- Node21 -->
<g id="node21" class="node">
<title>Node21</title>
<g id="a_node21"><a xlink:href="../../db/d02/Settings_8hpp.html" target="_top" xlink:title="All user settings and debugging options can be changed here.">
<polygon fill="white" stroke="black" points="879.5,-280.5 879.5,-299.5 956.5,-299.5 956.5,-280.5 879.5,-280.5"/>
<text text-anchor="middle" x="918" y="-287.5" font-family="Helvetica,sans-Serif" font-size="10.00">Settings.hpp</text>
</a>
</g>
</g>
<!-- Node20&#45;&gt;Node21 -->
<g id="edge36" class="edge">
<title>Node20&#45;&gt;Node21</title>
<path fill="none" stroke="midnightblue" d="M907.98,-336.08C909.57,-328.93 911.86,-318.64 913.85,-309.69"/>
<polygon fill="midnightblue" stroke="midnightblue" points="917.3,-310.27 916.06,-299.75 910.47,-308.75 917.3,-310.27"/>
</g>
<!-- Node26 -->
<g id="node26" class="node">
<title>Node26</title>
<g id="a_node26"><a xlink:href="../../d9/d98/TeensyUSBTypes_8hpp.html" target="_top" xlink:title=" ">
<polygon fill="white" stroke="black" points="688.5,-280.5 688.5,-299.5 861.5,-299.5 861.5,-280.5 688.5,-280.5"/>
<text text-anchor="middle" x="775" y="-287.5" font-family="Helvetica,sans-Serif" font-size="10.00">AH/Teensy/TeensyUSBTypes.hpp</text>
</a>
</g>
</g>
<!-- Node20&#45;&gt;Node26 -->
<g id="edge46" class="edge">
<title>Node20&#45;&gt;Node26</title>
<path fill="none" stroke="midnightblue" d="M885.24,-336.44C863.68,-327.56 829.74,-313.56 805.21,-303.45"/>
<polygon fill="midnightblue" stroke="midnightblue" points="806.24,-300.09 795.66,-299.52 803.57,-306.56 806.24,-300.09"/>
</g>
<!-- Node21&#45;&gt;Node4 -->
<g id="edge45" class="edge">
<title>Node21&#45;&gt;Node4</title>
<path fill="none" stroke="midnightblue" d="M879.32,-281.31C876.51,-280.84 873.71,-280.4 871,-280 720.87,-258.04 540.55,-243.3 464.58,-237.62"/>
<polygon fill="midnightblue" stroke="midnightblue" points="464.8,-234.13 454.56,-236.88 464.28,-241.11 464.8,-234.13"/>
</g>
<!-- Node22 -->
<g id="node22" class="node">
<title>Node22</title>
<g id="a_node22"><a xlink:href="../../dc/d50/Frequency_8hpp.html" target="_top" xlink:title=" ">
<polygon fill="white" stroke="black" points="951,-112.5 951,-131.5 1085,-131.5 1085,-112.5 951,-112.5"/>
<text text-anchor="middle" x="1018" y="-119.5" font-family="Helvetica,sans-Serif" font-size="10.00">AH/Types/Frequency.hpp</text>
</a>
</g>
</g>
<!-- Node21&#45;&gt;Node22 -->
<g id="edge37" class="edge">
<title>Node21&#45;&gt;Node22</title>
<path fill="none" stroke="midnightblue" d="M902.69,-280.45C883.67,-268.64 855.1,-246.27 867,-224 891.25,-178.61 945.92,-150.05 982.39,-135.31"/>
<polygon fill="midnightblue" stroke="midnightblue" points="984.1,-138.4 992.16,-131.51 981.57,-131.87 984.1,-138.4"/>
</g>
<!-- Node23 -->
<g id="node23" class="node">
<title>Node23</title>
<g id="a_node23"><a xlink:href="../../d7/d7c/ADCConfig_8hpp.html" target="_top" xlink:title="This file contains the platform&#45;specific ADC resolutions.">
<polygon fill="white" stroke="black" points="875.5,-224.5 875.5,-243.5 1032.5,-243.5 1032.5,-224.5 875.5,-224.5"/>
<text text-anchor="middle" x="954" y="-231.5" font-family="Helvetica,sans-Serif" font-size="10.00">AH/Hardware/ADCConfig.hpp</text>
</a>
</g>
</g>
<!-- Node21&#45;&gt;Node23 -->
<g id="edge40" class="edge">
<title>Node21&#45;&gt;Node23</title>
<path fill="none" stroke="midnightblue" d="M923.94,-280.08C928.98,-272.53 936.34,-261.49 942.51,-252.23"/>
<polygon fill="midnightblue" stroke="midnightblue" points="945.53,-254.01 948.17,-243.75 939.71,-250.13 945.53,-254.01"/>
</g>
<!-- Node24 -->
<g id="node24" class="node">
<title>Node24</title>
<g id="a_node24"><a xlink:title=" ">
<polygon fill="white" stroke="#bfbfbf" points="689.5,-224.5 689.5,-243.5 742.5,-243.5 742.5,-224.5 689.5,-224.5"/>
<text text-anchor="middle" x="716" y="-231.5" font-family="Helvetica,sans-Serif" font-size="10.00">limits.h</text>
</a>
</g>
</g>
<!-- Node21&#45;&gt;Node24 -->
<g id="edge43" class="edge">
<title>Node21&#45;&gt;Node24</title>
<path fill="none" stroke="midnightblue" d="M885.99,-280.44C849.64,-270.72 790.44,-254.9 752.37,-244.72"/>
<polygon fill="midnightblue" stroke="midnightblue" points="753.26,-241.34 742.7,-242.14 751.45,-248.1 753.26,-241.34"/>
</g>
<!-- Node21&#45;&gt;Node25 -->
<g id="edge44" class="edge">
<title>Node21&#45;&gt;Node25</title>
<path fill="none" stroke="midnightblue" d="M879.27,-281.58C876.47,-281.04 873.69,-280.51 871,-280 786.57,-263.92 765.06,-261.91 681,-244 680.9,-243.98 680.8,-243.96 680.7,-243.94"/>
<polygon fill="midnightblue" stroke="midnightblue" points="681.71,-240.58 671.19,-241.83 680.19,-247.41 681.71,-240.58"/>
</g>
<!-- Node22&#45;&gt;Node2 -->
<g id="edge38" class="edge">
<title>Node22&#45;&gt;Node2</title>
<path fill="none" stroke="midnightblue" d="M1018,-112.37C1018,-94.62 1018,-53.67 1018,-29.6"/>
<polygon fill="midnightblue" stroke="midnightblue" points="1021.5,-29.59 1018,-19.59 1014.5,-29.59 1021.5,-29.59"/>
</g>
<!-- Node22&#45;&gt;Node15 -->
<g id="edge39" class="edge">
<title>Node22&#45;&gt;Node15</title>
<path fill="none" stroke="midnightblue" d="M1064.9,-112.44C1117.08,-102.92 1201.37,-87.55 1257.23,-77.36"/>
<polygon fill="midnightblue" stroke="midnightblue" points="1258.11,-80.75 1267.32,-75.52 1256.85,-73.87 1258.11,-80.75"/>
</g>
<!-- Node23&#45;&gt;Node2 -->
<g id="edge41" class="edge">
<title>Node23&#45;&gt;Node2</title>
<path fill="none" stroke="midnightblue" d="M947.44,-224.45C927.54,-197.39 871.45,-112.13 909,-56 919.91,-39.7 937.91,-29.3 956.18,-22.66"/>
<polygon fill="midnightblue" stroke="midnightblue" points="957.32,-25.97 965.72,-19.52 955.13,-19.32 957.32,-25.97"/>
</g>
<!-- Node23&#45;&gt;Node16 -->
<g id="edge42" class="edge">
<title>Node23&#45;&gt;Node16</title>
<path fill="none" stroke="midnightblue" d="M1017.54,-224.44C1089.72,-214.72 1207.25,-198.9 1282.83,-188.72"/>
<polygon fill="midnightblue" stroke="midnightblue" points="1283.3,-192.19 1292.75,-187.38 1282.37,-185.25 1283.3,-192.19"/>
</g>
<!-- Node28&#45;&gt;Node2 -->
<g id="edge58" class="edge">
<title>Node28&#45;&gt;Node2</title>
<path fill="none" stroke="midnightblue" d="M1799.43,-112.27C1784.34,-97.56 1751.38,-68.25 1717,-56 1605.47,-16.26 1259.18,-10.94 1099.8,-10.67"/>
<polygon fill="midnightblue" stroke="midnightblue" points="1099.58,-7.17 1089.58,-10.66 1099.57,-14.17 1099.58,-7.17"/>
</g>
<!-- Node28&#45;&gt;Node15 -->
<g id="edge59" class="edge">
<title>Node28&#45;&gt;Node15</title>
<path fill="none" stroke="midnightblue" d="M1731.35,-112.62C1642.32,-102.89 1495.71,-86.86 1402.07,-76.63"/>
<polygon fill="midnightblue" stroke="midnightblue" points="1402.37,-73.14 1392.05,-75.53 1401.61,-80.1 1402.37,-73.14"/>
</g>
<!-- Node29 -->
<g id="node29" class="node">
<title>Node29</title>
<g id="a_node29"><a xlink:title=" ">
<polygon fill="white" stroke="#bfbfbf" points="1769,-56.5 1769,-75.5 1859,-75.5 1859,-56.5 1769,-56.5"/>
<text text-anchor="middle" x="1814" y="-63.5" font-family="Helvetica,sans-Serif" font-size="10.00">AH/STL/cstddef</text>
</a>
</g>
</g>
<!-- Node28&#45;&gt;Node29 -->
<g id="edge56" class="edge">
<title>Node28&#45;&gt;Node29</title>
<path fill="none" stroke="midnightblue" d="M1808.99,-112.08C1809.79,-104.93 1810.93,-94.64 1811.92,-85.69"/>
<polygon fill="midnightblue" stroke="midnightblue" points="1815.4,-86.08 1813.03,-75.75 1808.44,-85.3 1815.4,-86.08"/>
</g>
<!-- Node30 -->
<g id="node30" class="node">
<title>Node30</title>
<g id="a_node30"><a xlink:title=" ">
<polygon fill="white" stroke="#bfbfbf" points="1877.5,-56.5 1877.5,-75.5 1956.5,-75.5 1956.5,-56.5 1877.5,-56.5"/>
<text text-anchor="middle" x="1917" y="-63.5" font-family="Helvetica,sans-Serif" font-size="10.00">AH/STL/tuple</text>
</a>
</g>
</g>
<!-- Node28&#45;&gt;Node30 -->
<g id="edge57" class="edge">
<title>Node28&#45;&gt;Node30</title>
<path fill="none" stroke="midnightblue" d="M1825.51,-112.32C1843.07,-103.62 1870.33,-90.12 1890.53,-80.11"/>
<polygon fill="midnightblue" stroke="midnightblue" points="1892.12,-83.23 1899.53,-75.65 1889.02,-76.96 1892.12,-83.23"/>
</g>
<!-- Node32&#45;&gt;Node2 -->
<g id="edge66" class="edge">
<title>Node32&#45;&gt;Node2</title>
<path fill="none" stroke="midnightblue" d="M551.56,-280.25C556.75,-261.74 568,-217.18 568,-179 568,-179 568,-179 568,-121 568,-46.12 806.08,-21.97 935.9,-14.37"/>
<polygon fill="midnightblue" stroke="midnightblue" points="936.41,-17.85 946.2,-13.79 936.02,-10.86 936.41,-17.85"/>
</g>
<!-- Node32&#45;&gt;Node6 -->
<g id="edge67" class="edge">
<title>Node32&#45;&gt;Node6</title>
<path fill="none" stroke="midnightblue" d="M538.96,-280.38C523.48,-267.31 492.57,-242.08 464,-224 406.9,-187.86 335.34,-153.53 296.42,-135.7"/>
<polygon fill="midnightblue" stroke="midnightblue" points="297.81,-132.49 287.26,-131.54 294.91,-138.86 297.81,-132.49"/>
</g>
<!-- Node32&#45;&gt;Node24 -->
<g id="edge68" class="edge">
<title>Node32&#45;&gt;Node24</title>
<path fill="none" stroke="midnightblue" d="M575.46,-280.44C603.68,-271.32 648.54,-256.81 679.97,-246.65"/>
<polygon fill="midnightblue" stroke="midnightblue" points="681.22,-249.92 689.66,-243.52 679.07,-243.26 681.22,-249.92"/>
</g>
<!-- Node32&#45;&gt;Node25 -->
<g id="edge69" class="edge">
<title>Node32&#45;&gt;Node25</title>
<path fill="none" stroke="midnightblue" d="M564.1,-280.32C578.9,-271.82 601.69,-258.73 618.98,-248.8"/>
<polygon fill="midnightblue" stroke="midnightblue" points="621.01,-251.67 627.93,-243.65 617.52,-245.6 621.01,-251.67"/>
</g>
</g>
</svg>
