<?xml version="1.0" encoding="UTF-8" standalone="no"?>
<!DOCTYPE svg PUBLIC "-//W3C//DTD SVG 1.1//EN"
 "http://www.w3.org/Graphics/SVG/1.1/DTD/svg11.dtd">
<!-- Generated by graphviz version 2.43.0 (0)
 -->
<!-- Title: ButtonMatrix.hpp Pages: 1 -->
<svg width="1466pt" height="845pt"
 viewBox="0.00 0.00 1465.50 845.00" xmlns="http://www.w3.org/2000/svg" xmlns:xlink="http://www.w3.org/1999/xlink">
<g id="graph0" class="graph" transform="scale(1 1) rotate(0) translate(4 841)">
<title>ButtonMatrix.hpp</title>
<polygon fill="white" stroke="transparent" points="-4,4 -4,-841 1461.5,-841 1461.5,4 -4,4"/>
<!-- Node1 -->
<g id="node1" class="node">
<title>Node1</title>
<g id="a_node1"><a xlink:title=" ">
<polygon fill="#bfbfbf" stroke="black" points="705,-817.5 705,-836.5 806,-836.5 806,-817.5 705,-817.5"/>
<text text-anchor="middle" x="755.5" y="-824.5" font-family="Helvetica,sans-Serif" font-size="10.00">ButtonMatrix.hpp</text>
</a>
</g>
</g>
<!-- Node2 -->
<g id="node2" class="node">
<title>Node2</title>
<g id="a_node2"><a xlink:href="../../d1/d65/Warnings_8hpp.html" target="_top" xlink:title=" ">
<polygon fill="white" stroke="black" points="1050,-0.5 1050,-19.5 1193,-19.5 1193,-0.5 1050,-0.5"/>
<text text-anchor="middle" x="1121.5" y="-7.5" font-family="Helvetica,sans-Serif" font-size="10.00">AH/Settings/Warnings.hpp</text>
</a>
</g>
</g>
<!-- Node1&#45;&gt;Node2 -->
<g id="edge1" class="edge">
<title>Node1&#45;&gt;Node2</title>
<path fill="none" stroke="midnightblue" d="M806.27,-823.01C967.52,-812.85 1457.5,-776.54 1457.5,-710.5 1457.5,-710.5 1457.5,-710.5 1457.5,-121 1457.5,-81.68 1432.12,-74.62 1397.5,-56 1364.69,-38.35 1272.05,-25.69 1203.09,-18.38"/>
<polygon fill="midnightblue" stroke="midnightblue" points="1203.4,-14.9 1193.1,-17.34 1202.68,-21.86 1203.4,-14.9"/>
</g>
<!-- Node3 -->
<g id="node3" class="node">
<title>Node3</title>
<g id="a_node3"><a xlink:href="../../d4/d35/Hardware-Types_8hpp.html" target="_top" xlink:title=" ">
<polygon fill="white" stroke="black" points="655,-560.5 655,-590.5 786,-590.5 786,-560.5 655,-560.5"/>
<text text-anchor="start" x="663" y="-578.5" font-family="Helvetica,sans-Serif" font-size="10.00">AH/Hardware/Hardware</text>
<text text-anchor="middle" x="720.5" y="-567.5" font-family="Helvetica,sans-Serif" font-size="10.00">&#45;Types.hpp</text>
</a>
</g>
</g>
<!-- Node1&#45;&gt;Node3 -->
<g id="edge2" class="edge">
<title>Node1&#45;&gt;Node3</title>
<path fill="none" stroke="midnightblue" d="M760.63,-817.41C765.56,-808.61 772.66,-794.38 775.5,-781 778.68,-765.99 783.7,-734.62 774.5,-694 766.61,-659.17 747.67,-622.25 734.46,-599.29"/>
<polygon fill="midnightblue" stroke="midnightblue" points="737.46,-597.49 729.38,-590.64 731.43,-601.04 737.46,-597.49"/>
</g>
<!-- Node24 -->
<g id="node24" class="node">
<title>Node24</title>
<g id="a_node24"><a xlink:href="../../d5/d41/ButtonMatrix_8ipp.html" target="_top" xlink:title=" ">
<polygon fill="white" stroke="black" points="668.5,-761.5 668.5,-780.5 766.5,-780.5 766.5,-761.5 668.5,-761.5"/>
<text text-anchor="middle" x="717.5" y="-768.5" font-family="Helvetica,sans-Serif" font-size="10.00">ButtonMatrix.ipp</text>
</a>
</g>
</g>
<!-- Node1&#45;&gt;Node24 -->
<g id="edge44" class="edge">
<title>Node1&#45;&gt;Node24</title>
<path fill="none" stroke="midnightblue" d="M744.06,-817.08C737.23,-809.61 729.16,-798.72 723.46,-789.52"/>
<polygon fill="midnightblue" stroke="midnightblue" points="726.48,-787.75 718.53,-780.75 720.38,-791.18 726.48,-787.75"/>
</g>
<!-- Node3&#45;&gt;Node2 -->
<g id="edge3" class="edge">
<title>Node3&#45;&gt;Node2</title>
<path fill="none" stroke="midnightblue" d="M786.39,-575.16C884.56,-574.54 1074.22,-567.15 1228.5,-524 1311.99,-500.65 1381.5,-489.7 1381.5,-403 1381.5,-403 1381.5,-403 1381.5,-121 1381.5,-42.43 1279.55,-19.13 1203.33,-12.68"/>
<polygon fill="midnightblue" stroke="midnightblue" points="1203.47,-9.19 1193.23,-11.92 1202.94,-16.16 1203.47,-9.19"/>
</g>
<!-- Node4 -->
<g id="node4" class="node">
<title>Node4</title>
<g id="a_node4"><a xlink:href="../../de/d76/Array_8hpp.html" target="_top" xlink:title=" ">
<polygon fill="white" stroke="black" points="1084,-504.5 1084,-523.5 1219,-523.5 1219,-504.5 1084,-504.5"/>
<text text-anchor="middle" x="1151.5" y="-511.5" font-family="Helvetica,sans-Serif" font-size="10.00">AH/Containers/Array.hpp</text>
</a>
</g>
</g>
<!-- Node3&#45;&gt;Node4 -->
<g id="edge4" class="edge">
<title>Node3&#45;&gt;Node4</title>
<path fill="none" stroke="midnightblue" d="M786.43,-565.4C865.58,-554.47 997.84,-536.21 1079.57,-524.93"/>
<polygon fill="midnightblue" stroke="midnightblue" points="1080.34,-528.36 1089.77,-523.52 1079.39,-521.42 1080.34,-528.36"/>
</g>
<!-- Node7 -->
<g id="node7" class="node">
<title>Node7</title>
<g id="a_node7"><a xlink:href="../../dd/d80/PrintStream_8hpp.html" target="_top" xlink:title=" ">
<polygon fill="white" stroke="black" points="522,-224.5 522,-243.5 695,-243.5 695,-224.5 522,-224.5"/>
<text text-anchor="middle" x="608.5" y="-231.5" font-family="Helvetica,sans-Serif" font-size="10.00">AH/PrintStream/PrintStream.hpp</text>
</a>
</g>
</g>
<!-- Node3&#45;&gt;Node7 -->
<g id="edge40" class="edge">
<title>Node3&#45;&gt;Node7</title>
<path fill="none" stroke="midnightblue" d="M691.37,-560.39C658.18,-542.04 608.5,-506.62 608.5,-459 608.5,-459 608.5,-459 608.5,-345 608.5,-312.95 608.5,-275.64 608.5,-253.75"/>
<polygon fill="midnightblue" stroke="midnightblue" points="612,-253.56 608.5,-243.56 605,-253.56 612,-253.56"/>
</g>
<!-- Node8 -->
<g id="node8" class="node">
<title>Node8</title>
<g id="a_node8"><a xlink:href="../../dc/dc7/NamespaceSettings_8hpp.html" target="_top" xlink:title=" ">
<polygon fill="white" stroke="black" points="545,-56.5 545,-75.5 740,-75.5 740,-56.5 545,-56.5"/>
<text text-anchor="middle" x="642.5" y="-63.5" font-family="Helvetica,sans-Serif" font-size="10.00">AH/Settings/NamespaceSettings.hpp</text>
</a>
</g>
</g>
<!-- Node3&#45;&gt;Node8 -->
<g id="edge42" class="edge">
<title>Node3&#45;&gt;Node8</title>
<path fill="none" stroke="midnightblue" d="M654.99,-573.33C576.52,-568.05 455.5,-545.82 455.5,-459 455.5,-459 455.5,-459 455.5,-289 455.5,-201.73 468.5,-161.31 540.5,-112 560.81,-98.09 586.12,-86.9 606.44,-79.15"/>
<polygon fill="midnightblue" stroke="midnightblue" points="607.81,-82.38 615.98,-75.63 605.38,-75.81 607.81,-82.38"/>
</g>
<!-- Node20 -->
<g id="node20" class="node">
<title>Node20</title>
<g id="a_node20"><a xlink:title=" ">
<polygon fill="white" stroke="#bfbfbf" points="790,-224.5 790,-243.5 843,-243.5 843,-224.5 790,-224.5"/>
<text text-anchor="middle" x="816.5" y="-231.5" font-family="Helvetica,sans-Serif" font-size="10.00">stdint.h</text>
</a>
</g>
</g>
<!-- Node3&#45;&gt;Node20 -->
<g id="edge43" class="edge">
<title>Node3&#45;&gt;Node20</title>
<path fill="none" stroke="midnightblue" d="M703.94,-560.29C682.4,-540.13 647.5,-500.99 647.5,-459 647.5,-459 647.5,-459 647.5,-345 647.5,-282.41 729.93,-253.59 779.65,-241.9"/>
<polygon fill="midnightblue" stroke="midnightblue" points="780.72,-245.25 789.72,-239.66 779.2,-238.42 780.72,-245.25"/>
</g>
<!-- Node23 -->
<g id="node23" class="node">
<title>Node23</title>
<g id="a_node23"><a xlink:title=" ">
<polygon fill="white" stroke="#bfbfbf" points="1309.5,-504.5 1309.5,-523.5 1391.5,-523.5 1391.5,-504.5 1309.5,-504.5"/>
<text text-anchor="middle" x="1350.5" y="-511.5" font-family="Helvetica,sans-Serif" font-size="10.00">AH/STL/limits</text>
</a>
</g>
</g>
<!-- Node3&#45;&gt;Node23 -->
<g id="edge41" class="edge">
<title>Node3&#45;&gt;Node23</title>
<path fill="none" stroke="midnightblue" d="M786.21,-570.33C893.18,-563.18 1111.55,-547.1 1295.5,-524 1296.77,-523.84 1298.05,-523.67 1299.35,-523.5"/>
<polygon fill="midnightblue" stroke="midnightblue" points="1300,-526.94 1309.4,-522.07 1299.01,-520.01 1300,-526.94"/>
</g>
<!-- Node4&#45;&gt;Node2 -->
<g id="edge5" class="edge">
<title>Node4&#45;&gt;Node2</title>
<path fill="none" stroke="midnightblue" d="M1219.17,-510.93C1254.76,-506.38 1296.66,-495.02 1324.5,-468 1346.1,-447.04 1343.5,-433.1 1343.5,-403 1343.5,-403 1343.5,-403 1343.5,-121 1343.5,-56.18 1266.58,-29.56 1203.3,-18.62"/>
<polygon fill="midnightblue" stroke="midnightblue" points="1203.7,-15.14 1193.27,-17 1202.58,-22.05 1203.7,-15.14"/>
</g>
<!-- Node5 -->
<g id="node5" class="node">
<title>Node5</title>
<g id="a_node5"><a xlink:href="../../d1/d93/Error_8hpp.html" target="_top" xlink:title=" ">
<polygon fill="white" stroke="black" points="1065.5,-448.5 1065.5,-467.5 1169.5,-467.5 1169.5,-448.5 1065.5,-448.5"/>
<text text-anchor="middle" x="1117.5" y="-455.5" font-family="Helvetica,sans-Serif" font-size="10.00">AH/Error/Error.hpp</text>
</a>
</g>
</g>
<!-- Node4&#45;&gt;Node5 -->
<g id="edge6" class="edge">
<title>Node4&#45;&gt;Node5</title>
<path fill="none" stroke="midnightblue" d="M1145.89,-504.08C1141.13,-496.53 1134.18,-485.49 1128.35,-476.23"/>
<polygon fill="midnightblue" stroke="midnightblue" points="1131.3,-474.35 1123.01,-467.75 1125.38,-478.08 1131.3,-474.35"/>
</g>
<!-- Node13 -->
<g id="node13" class="node">
<title>Node13</title>
<g id="a_node13"><a xlink:title=" ">
<polygon fill="white" stroke="#bfbfbf" points="550,-112.5 550,-131.5 657,-131.5 657,-112.5 550,-112.5"/>
<text text-anchor="middle" x="603.5" y="-119.5" font-family="Helvetica,sans-Serif" font-size="10.00">AH/STL/type_traits</text>
</a>
</g>
</g>
<!-- Node4&#45;&gt;Node13 -->
<g id="edge38" class="edge">
<title>Node4&#45;&gt;Node13</title>
<path fill="none" stroke="midnightblue" d="M1083.68,-509.56C963,-501.57 723.5,-476.46 723.5,-403 723.5,-403 723.5,-403 723.5,-289 723.5,-222.41 659.29,-164.41 624.81,-138.07"/>
<polygon fill="midnightblue" stroke="midnightblue" points="626.46,-134.94 616.34,-131.79 622.28,-140.56 626.46,-134.94"/>
</g>
<!-- Node19 -->
<g id="node19" class="node">
<title>Node19</title>
<g id="a_node19"><a xlink:title=" ">
<polygon fill="white" stroke="#bfbfbf" points="1183.5,-224.5 1183.5,-243.5 1239.5,-243.5 1239.5,-224.5 1183.5,-224.5"/>
<text text-anchor="middle" x="1211.5" y="-231.5" font-family="Helvetica,sans-Serif" font-size="10.00">stddef.h</text>
</a>
</g>
</g>
<!-- Node4&#45;&gt;Node19 -->
<g id="edge39" class="edge">
<title>Node4&#45;&gt;Node19</title>
<path fill="none" stroke="midnightblue" d="M1158.84,-504.23C1170.23,-490.96 1193.3,-465.48 1216.5,-448 1242.88,-428.13 1264.73,-440.45 1281.5,-412 1314.15,-356.6 1256.71,-283.14 1227.28,-251.1"/>
<polygon fill="midnightblue" stroke="midnightblue" points="1229.55,-248.41 1220.14,-243.54 1224.46,-253.21 1229.55,-248.41"/>
</g>
<!-- Node22 -->
<g id="node22" class="node">
<title>Node22</title>
<g id="a_node22"><a xlink:title=" ">
<polygon fill="white" stroke="#bfbfbf" points="1225.5,-448.5 1225.5,-467.5 1315.5,-467.5 1315.5,-448.5 1225.5,-448.5"/>
<text text-anchor="middle" x="1270.5" y="-455.5" font-family="Helvetica,sans-Serif" font-size="10.00">AH/STL/iterator</text>
</a>
</g>
</g>
<!-- Node4&#45;&gt;Node22 -->
<g id="edge37" class="edge">
<title>Node4&#45;&gt;Node22</title>
<path fill="none" stroke="midnightblue" d="M1170.36,-504.44C1189.77,-495.64 1220.23,-481.81 1242.46,-471.72"/>
<polygon fill="midnightblue" stroke="midnightblue" points="1244.07,-474.84 1251.73,-467.52 1241.18,-468.46 1244.07,-474.84"/>
</g>
<!-- Node5&#45;&gt;Node2 -->
<g id="edge7" class="edge">
<title>Node5&#45;&gt;Node2</title>
<path fill="none" stroke="midnightblue" d="M1129.26,-448.41C1170.42,-417.27 1305.5,-305.43 1305.5,-179 1305.5,-179 1305.5,-179 1305.5,-121 1305.5,-63.19 1237.76,-35.04 1184.48,-21.83"/>
<polygon fill="midnightblue" stroke="midnightblue" points="1185.26,-18.42 1174.72,-19.54 1183.65,-25.23 1185.26,-18.42"/>
</g>
<!-- Node6 -->
<g id="node6" class="node">
<title>Node6</title>
<g id="a_node6"><a xlink:href="../../df/dee/Debug_8hpp.html" target="_top" xlink:title=" ">
<polygon fill="white" stroke="black" points="980,-392.5 980,-411.5 1101,-411.5 1101,-392.5 980,-392.5"/>
<text text-anchor="middle" x="1040.5" y="-399.5" font-family="Helvetica,sans-Serif" font-size="10.00">AH/Debug/Debug.hpp</text>
</a>
</g>
</g>
<!-- Node5&#45;&gt;Node6 -->
<g id="edge8" class="edge">
<title>Node5&#45;&gt;Node6</title>
<path fill="none" stroke="midnightblue" d="M1105.13,-448.32C1093.34,-440.06 1075.37,-427.45 1061.36,-417.63"/>
<polygon fill="midnightblue" stroke="midnightblue" points="1063.04,-414.53 1052.84,-411.65 1059.02,-420.26 1063.04,-414.53"/>
</g>
<!-- Node6&#45;&gt;Node2 -->
<g id="edge9" class="edge">
<title>Node6&#45;&gt;Node2</title>
<path fill="none" stroke="midnightblue" d="M1065.59,-392.39C1086.22,-384.65 1115.67,-372.04 1138.5,-356 1218.15,-300.04 1267.5,-276.34 1267.5,-179 1267.5,-179 1267.5,-179 1267.5,-121 1267.5,-68.44 1206.41,-37.85 1163.26,-22.8"/>
<polygon fill="midnightblue" stroke="midnightblue" points="1164.13,-19.4 1153.54,-19.56 1161.92,-26.05 1164.13,-19.4"/>
</g>
<!-- Node6&#45;&gt;Node7 -->
<g id="edge10" class="edge">
<title>Node6&#45;&gt;Node7</title>
<path fill="none" stroke="midnightblue" d="M1012.67,-392.49C960.19,-376.2 843.26,-338.77 747.5,-300 707.3,-283.72 662.01,-261.86 634.37,-248.1"/>
<polygon fill="midnightblue" stroke="midnightblue" points="635.87,-244.94 625.36,-243.59 632.74,-251.2 635.87,-244.94"/>
</g>
<!-- Node14 -->
<g id="node14" class="node">
<title>Node14</title>
<g id="a_node14"><a xlink:href="../../d2/dd5/SettingsWrapper_8hpp.html" target="_top" xlink:title=" ">
<polygon fill="white" stroke="black" points="951.5,-336.5 951.5,-355.5 1129.5,-355.5 1129.5,-336.5 951.5,-336.5"/>
<text text-anchor="middle" x="1040.5" y="-343.5" font-family="Helvetica,sans-Serif" font-size="10.00">AH/Settings/SettingsWrapper.hpp</text>
</a>
</g>
</g>
<!-- Node6&#45;&gt;Node14 -->
<g id="edge22" class="edge">
<title>Node6&#45;&gt;Node14</title>
<path fill="none" stroke="midnightblue" d="M1035.33,-392.08C1033.82,-384.93 1033.39,-374.64 1034.04,-365.69"/>
<polygon fill="midnightblue" stroke="midnightblue" points="1037.52,-366.13 1035.37,-355.75 1030.58,-365.2 1037.52,-366.13"/>
</g>
<!-- Node7&#45;&gt;Node2 -->
<g id="edge12" class="edge">
<title>Node7&#45;&gt;Node2</title>
<path fill="none" stroke="midnightblue" d="M627.96,-224.47C686.5,-198.81 866.13,-120.19 1015.5,-56 1041.19,-44.96 1070.44,-32.55 1091.7,-23.57"/>
<polygon fill="midnightblue" stroke="midnightblue" points="1093.31,-26.69 1101.16,-19.57 1090.58,-20.24 1093.31,-26.69"/>
</g>
<!-- Node7&#45;&gt;Node8 -->
<g id="edge11" class="edge">
<title>Node7&#45;&gt;Node8</title>
<path fill="none" stroke="midnightblue" d="M615.36,-224.49C628.24,-207.9 655.63,-169.58 665.5,-132 669.81,-115.58 662.29,-97.4 654.72,-84.45"/>
<polygon fill="midnightblue" stroke="midnightblue" points="657.45,-82.23 649.11,-75.69 651.55,-86 657.45,-82.23"/>
</g>
<!-- Node9 -->
<g id="node9" class="node">
<title>Node9</title>
<g id="a_node9"><a xlink:href="../../d6/ddf/Arduino-Wrapper_8h.html" target="_top" xlink:title=" ">
<polygon fill="white" stroke="black" points="493.5,-168.5 493.5,-187.5 617.5,-187.5 617.5,-168.5 493.5,-168.5"/>
<text text-anchor="middle" x="555.5" y="-175.5" font-family="Helvetica,sans-Serif" font-size="10.00">AH/Arduino&#45;Wrapper.h</text>
</a>
</g>
</g>
<!-- Node7&#45;&gt;Node9 -->
<g id="edge13" class="edge">
<title>Node7&#45;&gt;Node9</title>
<path fill="none" stroke="midnightblue" d="M599.75,-224.08C592.03,-216.22 580.6,-204.57 571.28,-195.08"/>
<polygon fill="midnightblue" stroke="midnightblue" points="573.59,-192.44 564.09,-187.75 568.6,-197.34 573.59,-192.44"/>
</g>
<!-- Node10 -->
<g id="node10" class="node">
<title>Node10</title>
<g id="a_node10"><a xlink:href="../../d7/d79/MinMaxFix_8hpp.html" target="_top" xlink:title=" ">
<polygon fill="white" stroke="black" points="319.5,-112.5 319.5,-131.5 455.5,-131.5 455.5,-112.5 319.5,-112.5"/>
<text text-anchor="middle" x="387.5" y="-119.5" font-family="Helvetica,sans-Serif" font-size="10.00">AH/Math/MinMaxFix.hpp</text>
</a>
</g>
</g>
<!-- Node9&#45;&gt;Node10 -->
<g id="edge14" class="edge">
<title>Node9&#45;&gt;Node10</title>
<path fill="none" stroke="midnightblue" d="M528.88,-168.44C500.49,-159.32 455.36,-144.81 423.75,-134.65"/>
<polygon fill="midnightblue" stroke="midnightblue" points="424.59,-131.24 414,-131.52 422.44,-137.91 424.59,-131.24"/>
</g>
<!-- Node12 -->
<g id="node12" class="node">
<title>Node12</title>
<g id="a_node12"><a xlink:title=" ">
<polygon fill="white" stroke="#bfbfbf" points="279,-0.5 279,-19.5 342,-19.5 342,-0.5 279,-0.5"/>
<text text-anchor="middle" x="310.5" y="-7.5" font-family="Helvetica,sans-Serif" font-size="10.00">Arduino.h</text>
</a>
</g>
</g>
<!-- Node9&#45;&gt;Node12 -->
<g id="edge21" class="edge">
<title>Node9&#45;&gt;Node12</title>
<path fill="none" stroke="midnightblue" d="M493.39,-171.09C430.99,-164.2 339.97,-151.23 310.5,-132 278.87,-111.36 259.53,-91.47 272.5,-56 276.56,-44.91 284.69,-34.67 292.39,-26.76"/>
<polygon fill="midnightblue" stroke="midnightblue" points="294.97,-29.14 299.79,-19.7 290.14,-24.07 294.97,-29.14"/>
</g>
<!-- Node9&#45;&gt;Node13 -->
<g id="edge20" class="edge">
<title>Node9&#45;&gt;Node13</title>
<path fill="none" stroke="midnightblue" d="M563.43,-168.08C570.35,-160.3 580.57,-148.8 588.95,-139.37"/>
<polygon fill="midnightblue" stroke="midnightblue" points="591.69,-141.55 595.72,-131.75 586.46,-136.9 591.69,-141.55"/>
</g>
<!-- Node10&#45;&gt;Node2 -->
<g id="edge15" class="edge">
<title>Node10&#45;&gt;Node2</title>
<path fill="none" stroke="midnightblue" d="M408.33,-112.47C429.79,-103.6 464.15,-89.21 493.5,-76 512.35,-67.51 515.52,-61.33 535.5,-56 628.32,-31.26 901.6,-18.57 1039.68,-13.59"/>
<polygon fill="midnightblue" stroke="midnightblue" points="1039.92,-17.08 1049.79,-13.23 1039.67,-10.08 1039.92,-17.08"/>
</g>
<!-- Node10&#45;&gt;Node8 -->
<g id="edge19" class="edge">
<title>Node10&#45;&gt;Node8</title>
<path fill="none" stroke="midnightblue" d="M427.91,-112.44C472.48,-103 544.27,-87.8 592.39,-77.61"/>
<polygon fill="midnightblue" stroke="midnightblue" points="593.23,-81.01 602.28,-75.52 591.78,-74.16 593.23,-81.01"/>
</g>
<!-- Node11 -->
<g id="node11" class="node">
<title>Node11</title>
<g id="a_node11"><a xlink:href="../../d6/d3b/FixArduinoMacros_8hpp.html" target="_top" xlink:title=" ">
<polygon fill="white" stroke="black" points="281.5,-56.5 281.5,-75.5 451.5,-75.5 451.5,-56.5 281.5,-56.5"/>
<text text-anchor="middle" x="366.5" y="-63.5" font-family="Helvetica,sans-Serif" font-size="10.00">AH/Math/FixArduinoMacros.hpp</text>
</a>
</g>
</g>
<!-- Node10&#45;&gt;Node11 -->
<g id="edge16" class="edge">
<title>Node10&#45;&gt;Node11</title>
<path fill="none" stroke="midnightblue" d="M384.03,-112.08C381.19,-104.77 377.07,-94.18 373.54,-85.1"/>
<polygon fill="midnightblue" stroke="midnightblue" points="376.79,-83.8 369.9,-75.75 370.27,-86.34 376.79,-83.8"/>
</g>
<!-- Node11&#45;&gt;Node2 -->
<g id="edge17" class="edge">
<title>Node11&#45;&gt;Node2</title>
<path fill="none" stroke="midnightblue" d="M451.55,-57.15C456.27,-56.75 460.94,-56.36 465.5,-56 671.93,-39.54 915.19,-23.81 1039.44,-16.04"/>
<polygon fill="midnightblue" stroke="midnightblue" points="1039.87,-19.52 1049.63,-15.41 1039.43,-12.54 1039.87,-19.52"/>
</g>
<!-- Node11&#45;&gt;Node12 -->
<g id="edge18" class="edge">
<title>Node11&#45;&gt;Node12</title>
<path fill="none" stroke="midnightblue" d="M357.5,-56.32C349.31,-48.42 336.99,-36.55 327.03,-26.94"/>
<polygon fill="midnightblue" stroke="midnightblue" points="329.29,-24.26 319.66,-19.83 324.43,-29.29 329.29,-24.26"/>
</g>
<!-- Node14&#45;&gt;Node2 -->
<g id="edge23" class="edge">
<title>Node14&#45;&gt;Node2</title>
<path fill="none" stroke="midnightblue" d="M1075.59,-336.39C1096.04,-329.67 1120.81,-318.31 1136.5,-300 1156.08,-277.14 1155.5,-265.1 1155.5,-235 1155.5,-235 1155.5,-235 1155.5,-121 1155.5,-87.16 1140.63,-49.97 1130.56,-28.66"/>
<polygon fill="midnightblue" stroke="midnightblue" points="1133.64,-26.99 1126.09,-19.56 1127.36,-30.08 1133.64,-26.99"/>
</g>
<!-- Node14&#45;&gt;Node6 -->
<g id="edge36" class="edge">
<title>Node14&#45;&gt;Node6</title>
<path fill="none" stroke="midnightblue" d="M1045.63,-355.75C1047.16,-362.86 1047.6,-373.14 1046.97,-382.1"/>
<polygon fill="midnightblue" stroke="midnightblue" points="1043.49,-381.71 1045.67,-392.08 1050.43,-382.62 1043.49,-381.71"/>
</g>
<!-- Node14&#45;&gt;Node8 -->
<g id="edge24" class="edge">
<title>Node14&#45;&gt;Node8</title>
<path fill="none" stroke="midnightblue" d="M971.67,-336.46C934.16,-329.94 887.72,-318.77 849.5,-300 748.66,-250.47 750.69,-199.73 680.5,-112 672.74,-102.3 663.78,-91.67 656.52,-83.18"/>
<polygon fill="midnightblue" stroke="midnightblue" points="659.1,-80.81 649.92,-75.51 653.79,-85.38 659.1,-80.81"/>
</g>
<!-- Node15 -->
<g id="node15" class="node">
<title>Node15</title>
<g id="a_node15"><a xlink:href="../../db/d02/Settings_8hpp.html" target="_top" xlink:title="All user settings and debugging options can be changed here.">
<polygon fill="white" stroke="black" points="859,-280.5 859,-299.5 936,-299.5 936,-280.5 859,-280.5"/>
<text text-anchor="middle" x="897.5" y="-287.5" font-family="Helvetica,sans-Serif" font-size="10.00">Settings.hpp</text>
</a>
</g>
</g>
<!-- Node14&#45;&gt;Node15 -->
<g id="edge25" class="edge">
<title>Node14&#45;&gt;Node15</title>
<path fill="none" stroke="midnightblue" d="M1017.84,-336.44C994.1,-327.48 956.59,-313.31 929.76,-303.18"/>
<polygon fill="midnightblue" stroke="midnightblue" points="930.64,-299.77 920.05,-299.52 928.17,-306.32 930.64,-299.77"/>
</g>
<!-- Node21 -->
<g id="node21" class="node">
<title>Node21</title>
<g id="a_node21"><a xlink:href="../../d9/d98/TeensyUSBTypes_8hpp.html" target="_top" xlink:title=" ">
<polygon fill="white" stroke="black" points="954,-280.5 954,-299.5 1127,-299.5 1127,-280.5 954,-280.5"/>
<text text-anchor="middle" x="1040.5" y="-287.5" font-family="Helvetica,sans-Serif" font-size="10.00">AH/Teensy/TeensyUSBTypes.hpp</text>
</a>
</g>
</g>
<!-- Node14&#45;&gt;Node21 -->
<g id="edge35" class="edge">
<title>Node14&#45;&gt;Node21</title>
<path fill="none" stroke="midnightblue" d="M1040.5,-336.08C1040.5,-329.01 1040.5,-318.86 1040.5,-309.99"/>
<polygon fill="midnightblue" stroke="midnightblue" points="1044,-309.75 1040.5,-299.75 1037,-309.75 1044,-309.75"/>
</g>
<!-- Node16 -->
<g id="node16" class="node">
<title>Node16</title>
<g id="a_node16"><a xlink:href="../../dc/d50/Frequency_8hpp.html" target="_top" xlink:title=" ">
<polygon fill="white" stroke="black" points="993.5,-112.5 993.5,-131.5 1127.5,-131.5 1127.5,-112.5 993.5,-112.5"/>
<text text-anchor="middle" x="1060.5" y="-119.5" font-family="Helvetica,sans-Serif" font-size="10.00">AH/Types/Frequency.hpp</text>
</a>
</g>
</g>
<!-- Node15&#45;&gt;Node16 -->
<g id="edge26" class="edge">
<title>Node15&#45;&gt;Node16</title>
<path fill="none" stroke="midnightblue" d="M936.12,-280.99C993.77,-268.93 1095.94,-247.2 1098.5,-244 1123.62,-212.64 1093.62,-164.5 1074.32,-139.45"/>
<polygon fill="midnightblue" stroke="midnightblue" points="1077.02,-137.23 1068.04,-131.61 1071.56,-141.6 1077.02,-137.23"/>
</g>
<!-- Node17 -->
<g id="node17" class="node">
<title>Node17</title>
<g id="a_node17"><a xlink:href="../../d7/d7c/ADCConfig_8hpp.html" target="_top" xlink:title="This file contains the platform&#45;specific ADC resolutions.">
<polygon fill="white" stroke="black" points="861,-224.5 861,-243.5 1018,-243.5 1018,-224.5 861,-224.5"/>
<text text-anchor="middle" x="939.5" y="-231.5" font-family="Helvetica,sans-Serif" font-size="10.00">AH/Hardware/ADCConfig.hpp</text>
</a>
</g>
</g>
<!-- Node15&#45;&gt;Node17 -->
<g id="edge29" class="edge">
<title>Node15&#45;&gt;Node17</title>
<path fill="none" stroke="midnightblue" d="M904.44,-280.08C910.43,-272.38 919.25,-261.03 926.55,-251.65"/>
<polygon fill="midnightblue" stroke="midnightblue" points="929.32,-253.79 932.69,-243.75 923.79,-249.5 929.32,-253.79"/>
</g>
<!-- Node18 -->
<g id="node18" class="node">
<title>Node18</title>
<g id="a_node18"><a xlink:title=" ">
<polygon fill="white" stroke="#bfbfbf" points="1036,-224.5 1036,-243.5 1089,-243.5 1089,-224.5 1036,-224.5"/>
<text text-anchor="middle" x="1062.5" y="-231.5" font-family="Helvetica,sans-Serif" font-size="10.00">limits.h</text>
</a>
</g>
</g>
<!-- Node15&#45;&gt;Node18 -->
<g id="edge32" class="edge">
<title>Node15&#45;&gt;Node18</title>
<path fill="none" stroke="midnightblue" d="M923.64,-280.44C951.52,-271.32 995.85,-256.81 1026.9,-246.65"/>
<polygon fill="midnightblue" stroke="midnightblue" points="1028.06,-249.95 1036.48,-243.52 1025.88,-243.3 1028.06,-249.95"/>
</g>
<!-- Node15&#45;&gt;Node19 -->
<g id="edge33" class="edge">
<title>Node15&#45;&gt;Node19</title>
<path fill="none" stroke="midnightblue" d="M936.22,-281.52C939.02,-281 941.8,-280.49 944.5,-280 1025.87,-265.35 1121.46,-249.59 1173.33,-241.16"/>
<polygon fill="midnightblue" stroke="midnightblue" points="1174.09,-244.58 1183.4,-239.52 1172.97,-237.67 1174.09,-244.58"/>
</g>
<!-- Node15&#45;&gt;Node20 -->
<g id="edge34" class="edge">
<title>Node15&#45;&gt;Node20</title>
<path fill="none" stroke="midnightblue" d="M884.49,-280.32C871.97,-271.98 852.82,-259.21 838.03,-249.35"/>
<polygon fill="midnightblue" stroke="midnightblue" points="839.74,-246.29 829.48,-243.65 835.86,-252.11 839.74,-246.29"/>
</g>
<!-- Node16&#45;&gt;Node2 -->
<g id="edge27" class="edge">
<title>Node16&#45;&gt;Node2</title>
<path fill="none" stroke="midnightblue" d="M1065.29,-112.37C1075.26,-94.38 1098.46,-52.55 1111.73,-28.63"/>
<polygon fill="midnightblue" stroke="midnightblue" points="1114.95,-30.03 1116.74,-19.59 1108.83,-26.64 1114.95,-30.03"/>
</g>
<!-- Node16&#45;&gt;Node8 -->
<g id="edge28" class="edge">
<title>Node16&#45;&gt;Node8</title>
<path fill="none" stroke="midnightblue" d="M994.27,-112.44C919.36,-102.77 797.59,-87.04 718.77,-76.85"/>
<polygon fill="midnightblue" stroke="midnightblue" points="718.79,-73.33 708.42,-75.52 717.89,-80.27 718.79,-73.33"/>
</g>
<!-- Node17&#45;&gt;Node2 -->
<g id="edge30" class="edge">
<title>Node17&#45;&gt;Node2</title>
<path fill="none" stroke="midnightblue" d="M940.97,-224.26C944.87,-203.13 957.12,-148.34 984.5,-112 1014.48,-72.22 1064.37,-41.04 1094.96,-24.38"/>
<polygon fill="midnightblue" stroke="midnightblue" points="1096.61,-27.47 1103.79,-19.68 1093.32,-21.29 1096.61,-27.47"/>
</g>
<!-- Node17&#45;&gt;Node9 -->
<g id="edge31" class="edge">
<title>Node17&#45;&gt;Node9</title>
<path fill="none" stroke="midnightblue" d="M878.65,-224.44C809.98,-214.79 698.43,-199.1 626.01,-188.92"/>
<polygon fill="midnightblue" stroke="midnightblue" points="626.45,-185.44 616.06,-187.52 625.48,-192.37 626.45,-185.44"/>
</g>
<!-- Node24&#45;&gt;Node1 -->
<g id="edge45" class="edge">
<title>Node24&#45;&gt;Node1</title>
<path fill="none" stroke="midnightblue" d="M728.79,-780.75C735.6,-788.17 743.67,-799.05 749.41,-808.27"/>
<polygon fill="midnightblue" stroke="midnightblue" points="746.42,-810.1 754.39,-817.08 752.51,-806.66 746.42,-810.1"/>
</g>
<!-- Node25 -->
<g id="node25" class="node">
<title>Node25</title>
<g id="a_node25"><a xlink:href="../../d4/dba/CRTP_8hpp.html" target="_top" xlink:title=" ">
<polygon fill="white" stroke="black" points="560.5,-700 560.5,-719 694.5,-719 694.5,-700 560.5,-700"/>
<text text-anchor="middle" x="627.5" y="-707" font-family="Helvetica,sans-Serif" font-size="10.00">AH/Containers/CRTP.hpp</text>
</a>
</g>
</g>
<!-- Node24&#45;&gt;Node25 -->
<g id="edge46" class="edge">
<title>Node24&#45;&gt;Node25</title>
<path fill="none" stroke="midnightblue" d="M704.61,-761.48C690.04,-751.84 666.1,-736.02 648.75,-724.55"/>
<polygon fill="midnightblue" stroke="midnightblue" points="650.64,-721.6 640.37,-719.01 646.78,-727.44 650.64,-721.6"/>
</g>
<!-- Node26 -->
<g id="node26" class="node">
<title>Node26</title>
<g id="a_node26"><a xlink:href="../../dd/ddf/ExtendedInputOutput_8hpp.html" target="_top" xlink:title=" ">
<polygon fill="white" stroke="black" points="365,-694.5 365,-724.5 542,-724.5 542,-694.5 365,-694.5"/>
<text text-anchor="start" x="373" y="-712.5" font-family="Helvetica,sans-Serif" font-size="10.00">AH/Hardware/ExtendedInput</text>
<text text-anchor="middle" x="453.5" y="-701.5" font-family="Helvetica,sans-Serif" font-size="10.00">Output/ExtendedInputOutput.hpp</text>
</a>
</g>
</g>
<!-- Node24&#45;&gt;Node26 -->
<g id="edge47" class="edge">
<title>Node24&#45;&gt;Node26</title>
<path fill="none" stroke="midnightblue" d="M679.68,-761.48C639.58,-752.44 575.28,-737.95 525.48,-726.72"/>
<polygon fill="midnightblue" stroke="midnightblue" points="526.24,-723.31 515.72,-724.52 524.71,-730.14 526.24,-723.31"/>
</g>
<!-- Node32 -->
<g id="node32" class="node">
<title>Node32</title>
<g id="a_node32"><a xlink:title=" ">
<polygon fill="white" stroke="#bfbfbf" points="713,-700 713,-719 766,-719 766,-700 713,-700"/>
<text text-anchor="middle" x="739.5" y="-707" font-family="Helvetica,sans-Serif" font-size="10.00">string.h</text>
</a>
</g>
</g>
<!-- Node24&#45;&gt;Node32 -->
<g id="edge60" class="edge">
<title>Node24&#45;&gt;Node32</title>
<path fill="none" stroke="midnightblue" d="M720.65,-761.48C723.82,-752.9 728.8,-739.43 732.85,-728.48"/>
<polygon fill="midnightblue" stroke="midnightblue" points="736.17,-729.6 736.35,-719.01 729.6,-727.17 736.17,-729.6"/>
</g>
<!-- Node26&#45;&gt;Node2 -->
<g id="edge59" class="edge">
<title>Node26&#45;&gt;Node2</title>
<path fill="none" stroke="midnightblue" d="M542.17,-695.33C545.32,-694.88 548.43,-694.43 551.5,-694 647.86,-680.35 1419.5,-673.82 1419.5,-576.5 1419.5,-576.5 1419.5,-576.5 1419.5,-121 1419.5,-84.55 1400.62,-74.97 1369.5,-56 1342.02,-39.26 1264.27,-26.9 1203.08,-19.41"/>
<polygon fill="midnightblue" stroke="midnightblue" points="1203.37,-15.92 1193.02,-18.21 1202.54,-22.87 1203.37,-15.92"/>
</g>
<!-- Node26&#45;&gt;Node8 -->
<g id="edge58" class="edge">
<title>Node26&#45;&gt;Node8</title>
<path fill="none" stroke="midnightblue" d="M446.9,-694.2C436.5,-670.34 417.5,-620.68 417.5,-576.5 417.5,-576.5 417.5,-576.5 417.5,-289 417.5,-199.93 438.9,-163.6 511.5,-112 534.34,-95.77 563.53,-84.99 588.56,-78.06"/>
<polygon fill="midnightblue" stroke="midnightblue" points="589.5,-81.43 598.28,-75.5 587.72,-74.66 589.5,-81.43"/>
</g>
<!-- Node27 -->
<g id="node27" class="node">
<title>Node27</title>
<g id="a_node27"><a xlink:href="../../d2/d3c/Arduino-Hardware-Types_8hpp.html" target="_top" xlink:title=" ">
<polygon fill="white" stroke="black" points="267.5,-627.5 267.5,-657.5 389.5,-657.5 389.5,-627.5 267.5,-627.5"/>
<text text-anchor="start" x="275.5" y="-645.5" font-family="Helvetica,sans-Serif" font-size="10.00">AH/Hardware/Arduino</text>
<text text-anchor="middle" x="328.5" y="-634.5" font-family="Helvetica,sans-Serif" font-size="10.00">&#45;Hardware&#45;Types.hpp</text>
</a>
</g>
</g>
<!-- Node26&#45;&gt;Node27 -->
<g id="edge48" class="edge">
<title>Node26&#45;&gt;Node27</title>
<path fill="none" stroke="midnightblue" d="M426.38,-694.4C408.28,-684.98 384.27,-672.5 364.57,-662.26"/>
<polygon fill="midnightblue" stroke="midnightblue" points="366.06,-659.08 355.57,-657.58 362.83,-665.3 366.06,-659.08"/>
</g>
<!-- Node31 -->
<g id="node31" class="node">
<title>Node31</title>
<g id="a_node31"><a xlink:title=" ">
<polygon fill="white" stroke="#bfbfbf" points="446,-633 446,-652 533,-652 533,-633 446,-633"/>
<text text-anchor="middle" x="489.5" y="-640" font-family="Helvetica,sans-Serif" font-size="10.00">AH/STL/climits</text>
</a>
</g>
</g>
<!-- Node26&#45;&gt;Node31 -->
<g id="edge57" class="edge">
<title>Node26&#45;&gt;Node31</title>
<path fill="none" stroke="midnightblue" d="M461.31,-694.4C466.7,-684.66 473.91,-671.65 479.69,-661.21"/>
<polygon fill="midnightblue" stroke="midnightblue" points="482.9,-662.64 484.68,-652.19 476.78,-659.25 482.9,-662.64"/>
</g>
<!-- Node27&#45;&gt;Node2 -->
<g id="edge49" class="edge">
<title>Node27&#45;&gt;Node2</title>
<path fill="none" stroke="midnightblue" d="M321.54,-627.47C310.82,-604.54 291.5,-557.33 291.5,-515 291.5,-515 291.5,-515 291.5,-177 291.5,-146.9 288.7,-132.76 310.5,-112 360.15,-64.72 397.09,-102.08 460.5,-76 476.36,-69.48 477.16,-61.2 493.5,-56 592.93,-24.35 893.33,-14.88 1039.65,-12.11"/>
<polygon fill="midnightblue" stroke="midnightblue" points="1039.98,-15.6 1049.91,-11.92 1039.85,-8.61 1039.98,-15.6"/>
</g>
<!-- Node27&#45;&gt;Node3 -->
<g id="edge50" class="edge">
<title>Node27&#45;&gt;Node3</title>
<path fill="none" stroke="midnightblue" d="M389.75,-631.34C458.54,-619.94 570.26,-601.41 644.55,-589.09"/>
<polygon fill="midnightblue" stroke="midnightblue" points="645.48,-592.49 654.78,-587.4 644.34,-585.58 645.48,-592.49"/>
</g>
<!-- Node27&#45;&gt;Node9 -->
<g id="edge56" class="edge">
<title>Node27&#45;&gt;Node9</title>
<path fill="none" stroke="midnightblue" d="M338.33,-627.45C353.15,-604.86 379.5,-558.57 379.5,-515 379.5,-515 379.5,-515 379.5,-345 379.5,-266.48 473.36,-214.11 524,-191.58"/>
<polygon fill="midnightblue" stroke="midnightblue" points="525.42,-194.77 533.21,-187.59 522.64,-188.35 525.42,-194.77"/>
</g>
<!-- Node28 -->
<g id="node28" class="node">
<title>Node28</title>
<g id="a_node28"><a xlink:href="../../d0/db1/FunctionTraits_8hpp.html" target="_top" xlink:title=" ">
<polygon fill="white" stroke="black" points="72,-112.5 72,-131.5 225,-131.5 225,-112.5 72,-112.5"/>
<text text-anchor="middle" x="148.5" y="-119.5" font-family="Helvetica,sans-Serif" font-size="10.00">AH/Types/FunctionTraits.hpp</text>
</a>
</g>
</g>
<!-- Node27&#45;&gt;Node28 -->
<g id="edge51" class="edge">
<title>Node27&#45;&gt;Node28</title>
<path fill="none" stroke="midnightblue" d="M297.43,-627.38C259.83,-607.9 201.5,-568.99 201.5,-515 201.5,-515 201.5,-515 201.5,-233 201.5,-196.99 178.17,-160.34 162.46,-139.75"/>
<polygon fill="midnightblue" stroke="midnightblue" points="165.05,-137.38 156.09,-131.72 159.57,-141.73 165.05,-137.38"/>
</g>
<!-- Node28&#45;&gt;Node2 -->
<g id="edge54" class="edge">
<title>Node28&#45;&gt;Node2</title>
<path fill="none" stroke="midnightblue" d="M160.43,-112.47C181.72,-97.79 228.2,-68.16 272.5,-56 415.34,-16.79 856.06,-11.4 1039.78,-10.9"/>
<polygon fill="midnightblue" stroke="midnightblue" points="1039.93,-14.4 1049.92,-10.88 1039.91,-7.4 1039.93,-14.4"/>
</g>
<!-- Node28&#45;&gt;Node8 -->
<g id="edge55" class="edge">
<title>Node28&#45;&gt;Node8</title>
<path fill="none" stroke="midnightblue" d="M225.15,-112.62C314.18,-102.89 460.79,-86.86 554.43,-76.63"/>
<polygon fill="midnightblue" stroke="midnightblue" points="554.89,-80.1 564.45,-75.53 554.13,-73.14 554.89,-80.1"/>
</g>
<!-- Node29 -->
<g id="node29" class="node">
<title>Node29</title>
<g id="a_node29"><a xlink:title=" ">
<polygon fill="white" stroke="#bfbfbf" points="97.5,-56.5 97.5,-75.5 187.5,-75.5 187.5,-56.5 97.5,-56.5"/>
<text text-anchor="middle" x="142.5" y="-63.5" font-family="Helvetica,sans-Serif" font-size="10.00">AH/STL/cstddef</text>
</a>
</g>
</g>
<!-- Node28&#45;&gt;Node29 -->
<g id="edge52" class="edge">
<title>Node28&#45;&gt;Node29</title>
<path fill="none" stroke="midnightblue" d="M147.51,-112.08C146.71,-104.93 145.57,-94.64 144.58,-85.69"/>
<polygon fill="midnightblue" stroke="midnightblue" points="148.06,-85.3 143.47,-75.75 141.1,-86.08 148.06,-85.3"/>
</g>
<!-- Node30 -->
<g id="node30" class="node">
<title>Node30</title>
<g id="a_node30"><a xlink:title=" ">
<polygon fill="white" stroke="#bfbfbf" points="0,-56.5 0,-75.5 79,-75.5 79,-56.5 0,-56.5"/>
<text text-anchor="middle" x="39.5" y="-63.5" font-family="Helvetica,sans-Serif" font-size="10.00">AH/STL/tuple</text>
</a>
</g>
</g>
<!-- Node28&#45;&gt;Node30 -->
<g id="edge53" class="edge">
<title>Node28&#45;&gt;Node30</title>
<path fill="none" stroke="midnightblue" d="M130.99,-112.32C113.43,-103.62 86.17,-90.12 65.97,-80.11"/>
<polygon fill="midnightblue" stroke="midnightblue" points="67.48,-76.96 56.97,-75.65 64.38,-83.23 67.48,-76.96"/>
</g>
</g>
</svg>
