<?xml version="1.0" encoding="UTF-8" standalone="no"?>
<!DOCTYPE svg PUBLIC "-//W3C//DTD SVG 1.1//EN"
 "http://www.w3.org/Graphics/SVG/1.1/DTD/svg11.dtd">
<!-- Generated by graphviz version 2.43.0 (0)
 -->
<!-- Title: Array.hpp Pages: 1 -->
<svg width="2023pt" height="476pt"
 viewBox="0.00 0.00 2022.50 476.00" xmlns="http://www.w3.org/2000/svg" xmlns:xlink="http://www.w3.org/1999/xlink">
<g id="graph0" class="graph" transform="scale(1 1) rotate(0) translate(4 472)">
<title>Array.hpp</title>
<polygon fill="white" stroke="transparent" points="-4,4 -4,-472 2018.5,-472 2018.5,4 -4,4"/>
<!-- Node1 -->
<g id="node1" class="node">
<title>Node1</title>
<g id="a_node1"><a xlink:title=" ">
<polygon fill="#bfbfbf" stroke="black" points="369.5,-448.5 369.5,-467.5 431.5,-467.5 431.5,-448.5 369.5,-448.5"/>
<text text-anchor="middle" x="400.5" y="-455.5" font-family="Helvetica,sans-Serif" font-size="10.00">Array.hpp</text>
</a>
</g>
</g>
<!-- Node2 -->
<g id="node2" class="node">
<title>Node2</title>
<g id="a_node2"><a xlink:href="../../d7/def/AnalogMultiplex_8hpp.html" target="_top" xlink:title=" ">
<polygon fill="white" stroke="black" points="0,-112.5 0,-131.5 117,-131.5 117,-112.5 0,-112.5"/>
<text text-anchor="middle" x="58.5" y="-119.5" font-family="Helvetica,sans-Serif" font-size="10.00">AnalogMultiplex.hpp</text>
</a>
</g>
</g>
<!-- Node1&#45;&gt;Node2 -->
<g id="edge1" class="edge">
<title>Node1&#45;&gt;Node2</title>
<path fill="none" stroke="midnightblue" d="M359.23,-453.85C260.82,-445.19 20.5,-416.91 20.5,-347 20.5,-347 20.5,-347 20.5,-233 20.5,-193.4 42.77,-149.96 53.22,-131.77"/>
<polygon fill="midnightblue" stroke="midnightblue" points="359.14,-457.35 369.4,-454.71 359.74,-450.38 359.14,-457.35"/>
</g>
<!-- Node3 -->
<g id="node3" class="node">
<title>Node3</title>
<g id="a_node3"><a xlink:href="../../d5/db6/ArrayHelpers_8hpp.html" target="_top" xlink:title=" ">
<polygon fill="white" stroke="black" points="172,-280.5 172,-299.5 273,-299.5 273,-280.5 172,-280.5"/>
<text text-anchor="middle" x="222.5" y="-287.5" font-family="Helvetica,sans-Serif" font-size="10.00">ArrayHelpers.hpp</text>
</a>
</g>
</g>
<!-- Node1&#45;&gt;Node3 -->
<g id="edge2" class="edge">
<title>Node1&#45;&gt;Node3</title>
<path fill="none" stroke="midnightblue" d="M383.44,-441.09C346.47,-406.62 260.04,-326.01 231.69,-299.57"/>
<polygon fill="midnightblue" stroke="midnightblue" points="381.23,-443.81 390.93,-448.08 386,-438.7 381.23,-443.81"/>
</g>
<!-- Node14 -->
<g id="node14" class="node">
<title>Node14</title>
<g id="a_node14"><a xlink:href="../../d4/d35/Hardware-Types_8hpp.html" target="_top" xlink:title=" ">
<polygon fill="white" stroke="black" points="388.5,-392.5 388.5,-411.5 504.5,-411.5 504.5,-392.5 388.5,-392.5"/>
<text text-anchor="middle" x="446.5" y="-399.5" font-family="Helvetica,sans-Serif" font-size="10.00">Hardware&#45;Types.hpp</text>
</a>
</g>
</g>
<!-- Node1&#45;&gt;Node14 -->
<g id="edge18" class="edge">
<title>Node1&#45;&gt;Node14</title>
<path fill="none" stroke="midnightblue" d="M414.61,-440.43C422.68,-430.97 432.46,-419.48 439.05,-411.75"/>
<polygon fill="midnightblue" stroke="midnightblue" points="411.92,-438.2 408.1,-448.08 417.25,-442.74 411.92,-438.2"/>
</g>
<!-- Node35 -->
<g id="node35" class="node">
<title>Node35</title>
<g id="a_node35"><a xlink:href="../../dd/ddf/RegisterEncoders_8hpp.html" target="_top" xlink:title=" ">
<polygon fill="white" stroke="black" points="1824.5,-336.5 1824.5,-355.5 1946.5,-355.5 1946.5,-336.5 1824.5,-336.5"/>
<text text-anchor="middle" x="1885.5" y="-343.5" font-family="Helvetica,sans-Serif" font-size="10.00">RegisterEncoders.hpp</text>
</a>
</g>
</g>
<!-- Node1&#45;&gt;Node35 -->
<g id="edge52" class="edge">
<title>Node1&#45;&gt;Node35</title>
<path fill="none" stroke="midnightblue" d="M442,-454.32C610.27,-443.37 1258.21,-400.55 1790.5,-356 1801.48,-355.08 1813.16,-354.03 1824.45,-352.98"/>
<polygon fill="midnightblue" stroke="midnightblue" points="441.59,-450.84 431.84,-454.98 442.04,-457.82 441.59,-450.84"/>
</g>
<!-- Node4 -->
<g id="node4" class="node">
<title>Node4</title>
<g id="a_node4"><a xlink:href="../../d2/d05/StaticSizeExtendedIOElement_8hpp.html" target="_top" xlink:title=" ">
<polygon fill="white" stroke="black" points="86.5,-168.5 86.5,-187.5 268.5,-187.5 268.5,-168.5 86.5,-168.5"/>
<text text-anchor="middle" x="177.5" y="-175.5" font-family="Helvetica,sans-Serif" font-size="10.00">StaticSizeExtendedIOElement.hpp</text>
</a>
</g>
</g>
<!-- Node3&#45;&gt;Node4 -->
<g id="edge3" class="edge">
<title>Node3&#45;&gt;Node4</title>
<path fill="none" stroke="midnightblue" d="M211.24,-271.77C206.24,-263.59 200.58,-253.54 196.5,-244 188.18,-224.54 182.17,-200.31 179.33,-187.64"/>
<polygon fill="midnightblue" stroke="midnightblue" points="208.37,-273.78 216.67,-280.36 214.29,-270.04 208.37,-273.78"/>
</g>
<!-- Node4&#45;&gt;Node2 -->
<g id="edge4" class="edge">
<title>Node4&#45;&gt;Node2</title>
<path fill="none" stroke="midnightblue" d="M149.36,-164.23C127.1,-154.13 96.64,-140.31 77.27,-131.52"/>
<polygon fill="midnightblue" stroke="midnightblue" points="148.09,-167.5 158.64,-168.44 150.98,-161.12 148.09,-167.5"/>
</g>
<!-- Node5 -->
<g id="node5" class="node">
<title>Node5</title>
<g id="a_node5"><a xlink:href="../../d2/d25/MAX7219_8hpp.html" target="_top" xlink:title=" ">
<polygon fill="white" stroke="black" points="681.5,-112.5 681.5,-131.5 765.5,-131.5 765.5,-112.5 681.5,-112.5"/>
<text text-anchor="middle" x="723.5" y="-119.5" font-family="Helvetica,sans-Serif" font-size="10.00">MAX7219.hpp</text>
</a>
</g>
</g>
<!-- Node4&#45;&gt;Node5 -->
<g id="edge5" class="edge">
<title>Node4&#45;&gt;Node5</title>
<path fill="none" stroke="midnightblue" d="M274.03,-167.45C394.34,-155.55 594.68,-135.74 681.38,-127.17"/>
<polygon fill="midnightblue" stroke="midnightblue" points="273.32,-164.01 263.71,-168.47 274.01,-170.97 273.32,-164.01"/>
</g>
<!-- Node6 -->
<g id="node6" class="node">
<title>Node6</title>
<g id="a_node6"><a xlink:href="../../d7/dca/MCP23017_8hpp.html" target="_top" xlink:title=" ">
<polygon fill="white" stroke="black" points="331,-112.5 331,-131.5 420,-131.5 420,-112.5 331,-112.5"/>
<text text-anchor="middle" x="375.5" y="-119.5" font-family="Helvetica,sans-Serif" font-size="10.00">MCP23017.hpp</text>
</a>
</g>
</g>
<!-- Node4&#45;&gt;Node6 -->
<g id="edge6" class="edge">
<title>Node4&#45;&gt;Node6</title>
<path fill="none" stroke="midnightblue" d="M218.94,-165.7C256.31,-155.51 310.44,-140.74 344.27,-131.52"/>
<polygon fill="midnightblue" stroke="midnightblue" points="217.6,-162.44 208.87,-168.44 219.44,-169.19 217.6,-162.44"/>
</g>
<!-- Node8 -->
<g id="node8" class="node">
<title>Node8</title>
<g id="a_node8"><a xlink:href="../../d8/d93/ShiftRegisterOutBase_8hpp.html" target="_top" xlink:title=" ">
<polygon fill="white" stroke="black" points="802,-112.5 802,-131.5 943,-131.5 943,-112.5 802,-112.5"/>
<text text-anchor="middle" x="872.5" y="-119.5" font-family="Helvetica,sans-Serif" font-size="10.00">ShiftRegisterOutBase.hpp</text>
</a>
</g>
</g>
<!-- Node4&#45;&gt;Node8 -->
<g id="edge9" class="edge">
<title>Node4&#45;&gt;Node8</title>
<path fill="none" stroke="midnightblue" d="M278.5,-167.93C499.9,-150.07 557.01,-149.86 774.5,-132 783.35,-131.27 792.66,-130.47 801.86,-129.65"/>
<polygon fill="midnightblue" stroke="midnightblue" points="278.2,-164.45 268.51,-168.74 278.76,-171.42 278.2,-164.45"/>
</g>
<!-- Node7 -->
<g id="node7" class="node">
<title>Node7</title>
<g id="a_node7"><a xlink:href="../../d2/d94/MCP23017_8ipp.html" target="_top" xlink:title=" ">
<polygon fill="white" stroke="black" points="332.5,-56.5 332.5,-75.5 418.5,-75.5 418.5,-56.5 332.5,-56.5"/>
<text text-anchor="middle" x="375.5" y="-63.5" font-family="Helvetica,sans-Serif" font-size="10.00">MCP23017.ipp</text>
</a>
</g>
</g>
<!-- Node6&#45;&gt;Node7 -->
<g id="edge7" class="edge">
<title>Node6&#45;&gt;Node7</title>
<path fill="none" stroke="midnightblue" d="M369.03,-102.1C368.4,-93.14 368.84,-82.86 370.37,-75.75"/>
<polygon fill="midnightblue" stroke="midnightblue" points="365.57,-102.62 370.33,-112.08 372.51,-101.71 365.57,-102.62"/>
</g>
<!-- Node7&#45;&gt;Node6 -->
<g id="edge8" class="edge">
<title>Node7&#45;&gt;Node6</title>
<path fill="none" stroke="midnightblue" d="M381.96,-85.69C382.61,-94.64 382.18,-104.93 380.67,-112.08"/>
<polygon fill="midnightblue" stroke="midnightblue" points="385.42,-85.2 380.63,-75.75 378.48,-86.13 385.42,-85.2"/>
</g>
<!-- Node9 -->
<g id="node9" class="node">
<title>Node9</title>
<g id="a_node9"><a xlink:href="../../d7/d88/SPIShiftRegisterOut_8hpp.html" target="_top" xlink:title=" ">
<polygon fill="white" stroke="black" points="672.5,-56.5 672.5,-75.5 804.5,-75.5 804.5,-56.5 672.5,-56.5"/>
<text text-anchor="middle" x="738.5" y="-63.5" font-family="Helvetica,sans-Serif" font-size="10.00">SPIShiftRegisterOut.hpp</text>
</a>
</g>
</g>
<!-- Node8&#45;&gt;Node9 -->
<g id="edge10" class="edge">
<title>Node8&#45;&gt;Node9</title>
<path fill="none" stroke="midnightblue" d="M841.82,-108.64C816.68,-98.5 781.75,-84.43 759.63,-75.52"/>
<polygon fill="midnightblue" stroke="midnightblue" points="840.68,-111.95 851.27,-112.44 843.3,-105.46 840.68,-111.95"/>
</g>
<!-- Node11 -->
<g id="node11" class="node">
<title>Node11</title>
<g id="a_node11"><a xlink:href="../../d0/db4/ShiftRegisterOut_8hpp.html" target="_top" xlink:title=" ">
<polygon fill="white" stroke="black" points="823,-56.5 823,-75.5 940,-75.5 940,-56.5 823,-56.5"/>
<text text-anchor="middle" x="881.5" y="-63.5" font-family="Helvetica,sans-Serif" font-size="10.00">ShiftRegisterOut.hpp</text>
</a>
</g>
</g>
<!-- Node8&#45;&gt;Node11 -->
<g id="edge13" class="edge">
<title>Node8&#45;&gt;Node11</title>
<path fill="none" stroke="midnightblue" d="M875.65,-102.1C877.14,-93.14 878.86,-82.86 880.04,-75.75"/>
<polygon fill="midnightblue" stroke="midnightblue" points="872.18,-101.64 873.99,-112.08 879.08,-102.79 872.18,-101.64"/>
</g>
<!-- Node13 -->
<g id="node13" class="node">
<title>Node13</title>
<g id="a_node13"><a xlink:href="../../d5/d47/ShiftRegisterOutBase_8ipp.html" target="_top" xlink:title=" ">
<polygon fill="white" stroke="black" points="958.5,-56.5 958.5,-75.5 1096.5,-75.5 1096.5,-56.5 958.5,-56.5"/>
<text text-anchor="middle" x="1027.5" y="-63.5" font-family="Helvetica,sans-Serif" font-size="10.00">ShiftRegisterOutBase.ipp</text>
</a>
</g>
</g>
<!-- Node8&#45;&gt;Node13 -->
<g id="edge16" class="edge">
<title>Node8&#45;&gt;Node13</title>
<path fill="none" stroke="midnightblue" d="M901.48,-108.91C929.08,-98.75 970.19,-84.51 997.97,-75.52"/>
<polygon fill="midnightblue" stroke="midnightblue" points="900.12,-105.68 891.97,-112.44 902.56,-112.24 900.12,-105.68"/>
</g>
<!-- Node10 -->
<g id="node10" class="node">
<title>Node10</title>
<g id="a_node10"><a xlink:href="../../da/d45/SPIShiftRegisterOut_8ipp.html" target="_top" xlink:title=" ">
<polygon fill="white" stroke="black" points="674,-0.5 674,-19.5 803,-19.5 803,-0.5 674,-0.5"/>
<text text-anchor="middle" x="738.5" y="-7.5" font-family="Helvetica,sans-Serif" font-size="10.00">SPIShiftRegisterOut.ipp</text>
</a>
</g>
</g>
<!-- Node9&#45;&gt;Node10 -->
<g id="edge11" class="edge">
<title>Node9&#45;&gt;Node10</title>
<path fill="none" stroke="midnightblue" d="M732.03,-46.1C731.4,-37.14 731.84,-26.86 733.37,-19.75"/>
<polygon fill="midnightblue" stroke="midnightblue" points="728.57,-46.62 733.33,-56.08 735.51,-45.71 728.57,-46.62"/>
</g>
<!-- Node10&#45;&gt;Node9 -->
<g id="edge12" class="edge">
<title>Node10&#45;&gt;Node9</title>
<path fill="none" stroke="midnightblue" d="M744.96,-29.69C745.61,-38.64 745.18,-48.93 743.67,-56.08"/>
<polygon fill="midnightblue" stroke="midnightblue" points="748.42,-29.2 743.63,-19.75 741.48,-30.13 748.42,-29.2"/>
</g>
<!-- Node12 -->
<g id="node12" class="node">
<title>Node12</title>
<g id="a_node12"><a xlink:href="../../de/d95/ShiftRegisterOut_8ipp.html" target="_top" xlink:title=" ">
<polygon fill="white" stroke="black" points="824.5,-0.5 824.5,-19.5 938.5,-19.5 938.5,-0.5 824.5,-0.5"/>
<text text-anchor="middle" x="881.5" y="-7.5" font-family="Helvetica,sans-Serif" font-size="10.00">ShiftRegisterOut.ipp</text>
</a>
</g>
</g>
<!-- Node11&#45;&gt;Node12 -->
<g id="edge14" class="edge">
<title>Node11&#45;&gt;Node12</title>
<path fill="none" stroke="midnightblue" d="M875.03,-46.1C874.4,-37.14 874.84,-26.86 876.37,-19.75"/>
<polygon fill="midnightblue" stroke="midnightblue" points="871.57,-46.62 876.33,-56.08 878.51,-45.71 871.57,-46.62"/>
</g>
<!-- Node12&#45;&gt;Node11 -->
<g id="edge15" class="edge">
<title>Node12&#45;&gt;Node11</title>
<path fill="none" stroke="midnightblue" d="M887.96,-29.69C888.61,-38.64 888.18,-48.93 886.67,-56.08"/>
<polygon fill="midnightblue" stroke="midnightblue" points="891.42,-29.2 886.63,-19.75 884.48,-30.13 891.42,-29.2"/>
</g>
<!-- Node13&#45;&gt;Node8 -->
<g id="edge17" class="edge">
<title>Node13&#45;&gt;Node8</title>
<path fill="none" stroke="midnightblue" d="M998.64,-79.05C971.09,-89.19 929.97,-103.44 902.15,-112.44"/>
<polygon fill="midnightblue" stroke="midnightblue" points="999.98,-82.29 1008.13,-75.52 997.54,-75.72 999.98,-82.29"/>
</g>
<!-- Node15 -->
<g id="node15" class="node">
<title>Node15</title>
<g id="a_node15"><a xlink:href="../../d2/d3c/Arduino-Hardware-Types_8hpp.html" target="_top" xlink:title=" ">
<polygon fill="white" stroke="black" points="642,-336.5 642,-355.5 799,-355.5 799,-336.5 642,-336.5"/>
<text text-anchor="middle" x="720.5" y="-343.5" font-family="Helvetica,sans-Serif" font-size="10.00">Arduino&#45;Hardware&#45;Types.hpp</text>
</a>
</g>
</g>
<!-- Node14&#45;&gt;Node15 -->
<g id="edge19" class="edge">
<title>Node14&#45;&gt;Node15</title>
<path fill="none" stroke="midnightblue" d="M499.91,-390.47C551.7,-380.27 629.27,-364.98 677.29,-355.52"/>
<polygon fill="midnightblue" stroke="midnightblue" points="499.05,-387.08 489.92,-392.44 500.4,-393.94 499.05,-387.08"/>
</g>
<!-- Node25 -->
<g id="node25" class="node">
<title>Node25</title>
<g id="a_node25"><a xlink:href="../../d9/d4b/ButtonMatrix_8hpp.html" target="_top" xlink:title=" ">
<polygon fill="white" stroke="black" points="1685,-168.5 1685,-187.5 1786,-187.5 1786,-168.5 1685,-168.5"/>
<text text-anchor="middle" x="1735.5" y="-175.5" font-family="Helvetica,sans-Serif" font-size="10.00">ButtonMatrix.hpp</text>
</a>
</g>
</g>
<!-- Node14&#45;&gt;Node25 -->
<g id="edge49" class="edge">
<title>Node14&#45;&gt;Node25</title>
<path fill="none" stroke="midnightblue" d="M515.21,-398.01C773.27,-386.07 1674.17,-337.91 1757.5,-244 1772.05,-227.6 1754.32,-201.2 1743.19,-187.64"/>
<polygon fill="midnightblue" stroke="midnightblue" points="514.68,-394.53 504.85,-398.48 515,-401.52 514.68,-394.53"/>
</g>
<!-- Node26 -->
<g id="node26" class="node">
<title>Node26</title>
<g id="a_node26"><a xlink:href="../../d4/d57/ExtendedIOElement_8hpp.html" target="_top" xlink:title=" ">
<polygon fill="white" stroke="black" points="379.5,-224.5 379.5,-243.5 513.5,-243.5 513.5,-224.5 379.5,-224.5"/>
<text text-anchor="middle" x="446.5" y="-231.5" font-family="Helvetica,sans-Serif" font-size="10.00">ExtendedIOElement.hpp</text>
</a>
</g>
</g>
<!-- Node14&#45;&gt;Node26 -->
<g id="edge50" class="edge">
<title>Node14&#45;&gt;Node26</title>
<path fill="none" stroke="midnightblue" d="M446.5,-381.93C446.5,-345.92 446.5,-269.23 446.5,-243.57"/>
<polygon fill="midnightblue" stroke="midnightblue" points="443,-382.08 446.5,-392.08 450,-382.08 443,-382.08"/>
</g>
<!-- Node29 -->
<g id="node29" class="node">
<title>Node29</title>
<g id="a_node29"><a xlink:href="../../d8/df3/FilteredAnalog_8hpp.html" target="_top" xlink:title=" ">
<polygon fill="white" stroke="black" points="205.5,-224.5 205.5,-243.5 313.5,-243.5 313.5,-224.5 205.5,-224.5"/>
<text text-anchor="middle" x="259.5" y="-231.5" font-family="Helvetica,sans-Serif" font-size="10.00">FilteredAnalog.hpp</text>
</a>
</g>
</g>
<!-- Node14&#45;&gt;Node29 -->
<g id="edge51" class="edge">
<title>Node14&#45;&gt;Node29</title>
<path fill="none" stroke="midnightblue" d="M428.89,-385.37C390.26,-351.07 299.1,-270.16 269.19,-243.61"/>
<polygon fill="midnightblue" stroke="midnightblue" points="426.91,-388.29 436.71,-392.31 431.55,-383.05 426.91,-388.29"/>
</g>
<!-- Node16 -->
<g id="node16" class="node">
<title>Node16</title>
<g id="a_node16"><a xlink:href="../../dd/ddf/ExtendedInputOutput_8hpp.html" target="_top" xlink:title=" ">
<polygon fill="white" stroke="black" points="845,-280.5 845,-299.5 986,-299.5 986,-280.5 845,-280.5"/>
<text text-anchor="middle" x="915.5" y="-287.5" font-family="Helvetica,sans-Serif" font-size="10.00">ExtendedInputOutput.hpp</text>
</a>
</g>
</g>
<!-- Node15&#45;&gt;Node16 -->
<g id="edge20" class="edge">
<title>Node15&#45;&gt;Node16</title>
<path fill="none" stroke="midnightblue" d="M761.31,-333.7C798.11,-323.51 851.43,-308.74 884.75,-299.52"/>
<polygon fill="midnightblue" stroke="midnightblue" points="760.1,-330.4 751.4,-336.44 761.97,-337.15 760.1,-330.4"/>
</g>
<!-- Node16&#45;&gt;Node2 -->
<g id="edge21" class="edge">
<title>Node16&#45;&gt;Node2</title>
<path fill="none" stroke="midnightblue" d="M834.71,-285.42C705.02,-279.16 456.28,-264.86 370.5,-244 348.04,-238.54 344.77,-230.17 322.5,-224 216.44,-194.61 160.52,-260.25 77.5,-188 61,-173.64 58.45,-145.84 58.28,-131.7"/>
<polygon fill="midnightblue" stroke="midnightblue" points="834.82,-288.93 844.98,-285.91 835.15,-281.94 834.82,-288.93"/>
</g>
<!-- Node16&#45;&gt;Node6 -->
<g id="edge43" class="edge">
<title>Node16&#45;&gt;Node6</title>
<path fill="none" stroke="midnightblue" d="M834.92,-284.05C762.52,-278.24 662.79,-266.39 630.5,-244 598.61,-221.89 618.8,-190.94 587.5,-168 561.33,-148.81 474.17,-135.05 420.1,-128.12"/>
<polygon fill="midnightblue" stroke="midnightblue" points="834.7,-287.55 844.94,-284.84 835.25,-280.57 834.7,-287.55"/>
</g>
<!-- Node16&#45;&gt;Node8 -->
<g id="edge47" class="edge">
<title>Node16&#45;&gt;Node8</title>
<path fill="none" stroke="midnightblue" d="M996.5,-287.85C1203.2,-283.52 1727.78,-263.14 1637.5,-168 1611.27,-140.36 990.48,-135.13 952.5,-132 949.44,-131.75 946.31,-131.47 943.15,-131.18"/>
<polygon fill="midnightblue" stroke="midnightblue" points="996.24,-284.35 986.31,-288.05 996.38,-291.35 996.24,-284.35"/>
</g>
<!-- Node16&#45;&gt;Node10 -->
<g id="edge45" class="edge">
<title>Node16&#45;&gt;Node10</title>
<path fill="none" stroke="midnightblue" d="M860.93,-278.38C781.78,-261.39 644.5,-225.26 644.5,-179 644.5,-179 644.5,-179 644.5,-121 644.5,-90.9 645.11,-79.83 663.5,-56 676.77,-38.81 698.62,-26.78 715.32,-19.52"/>
<polygon fill="midnightblue" stroke="midnightblue" points="860.24,-281.81 870.75,-280.45 861.69,-274.96 860.24,-281.81"/>
</g>
<!-- Node16&#45;&gt;Node12 -->
<g id="edge46" class="edge">
<title>Node16&#45;&gt;Node12</title>
<path fill="none" stroke="midnightblue" d="M996.37,-287.94C1197.89,-284.85 1711.33,-274.1 1782.5,-244 1821.6,-227.46 1852.5,-221.46 1852.5,-179 1852.5,-179 1852.5,-179 1852.5,-121 1852.5,-28.43 1146.76,-13.75 938.62,-11.43"/>
<polygon fill="midnightblue" stroke="midnightblue" points="996.09,-284.44 986.15,-288.09 996.2,-291.44 996.09,-284.44"/>
</g>
<!-- Node16&#45;&gt;Node13 -->
<g id="edge48" class="edge">
<title>Node16&#45;&gt;Node13</title>
<path fill="none" stroke="midnightblue" d="M996.26,-288.74C1194.24,-287.52 1692.35,-280.79 1757.5,-244 1783.69,-229.21 1786.67,-216.75 1795.5,-188 1798.11,-179.5 1801.36,-174.68 1795.5,-168 1749.67,-115.74 1276.94,-82.02 1096.75,-70.97"/>
<polygon fill="midnightblue" stroke="midnightblue" points="996.19,-285.24 986.21,-288.79 996.23,-292.24 996.19,-285.24"/>
</g>
<!-- Node17 -->
<g id="node17" class="node">
<title>Node17</title>
<g id="a_node17"><a xlink:href="../../d4/db3/Button_8hpp.html" target="_top" xlink:title=" ">
<polygon fill="white" stroke="black" points="880.5,-224.5 880.5,-243.5 950.5,-243.5 950.5,-224.5 880.5,-224.5"/>
<text text-anchor="middle" x="915.5" y="-231.5" font-family="Helvetica,sans-Serif" font-size="10.00">Button.hpp</text>
</a>
</g>
</g>
<!-- Node16&#45;&gt;Node17 -->
<g id="edge22" class="edge">
<title>Node16&#45;&gt;Node17</title>
<path fill="none" stroke="midnightblue" d="M915.5,-269.8C915.5,-260.91 915.5,-250.78 915.5,-243.75"/>
<polygon fill="midnightblue" stroke="midnightblue" points="912,-270.08 915.5,-280.08 919,-270.08 912,-270.08"/>
</g>
<!-- Node24 -->
<g id="node24" class="node">
<title>Node24</title>
<g id="a_node24"><a xlink:href="../../d5/d41/ButtonMatrix_8ipp.html" target="_top" xlink:title=" ">
<polygon fill="white" stroke="black" points="1650.5,-224.5 1650.5,-243.5 1748.5,-243.5 1748.5,-224.5 1650.5,-224.5"/>
<text text-anchor="middle" x="1699.5" y="-231.5" font-family="Helvetica,sans-Serif" font-size="10.00">ButtonMatrix.ipp</text>
</a>
</g>
</g>
<!-- Node16&#45;&gt;Node24 -->
<g id="edge29" class="edge">
<title>Node16&#45;&gt;Node24</title>
<path fill="none" stroke="midnightblue" d="M996.15,-286.06C1129.62,-280.73 1404.71,-267.75 1636.5,-244 1641.01,-243.54 1645.69,-242.99 1650.37,-242.4"/>
<polygon fill="midnightblue" stroke="midnightblue" points="995.87,-282.57 986.01,-286.46 996.14,-289.56 995.87,-282.57"/>
</g>
<!-- Node16&#45;&gt;Node26 -->
<g id="edge32" class="edge">
<title>Node16&#45;&gt;Node26</title>
<path fill="none" stroke="midnightblue" d="M834.81,-279.71C744.08,-269.26 598.37,-252.49 513.61,-242.73"/>
<polygon fill="midnightblue" stroke="midnightblue" points="834.44,-283.19 844.78,-280.86 835.24,-276.24 834.44,-283.19"/>
</g>
<!-- Node28 -->
<g id="node28" class="node">
<title>Node28</title>
<g id="a_node28"><a xlink:href="../../d6/d3c/ExtendedInputOutput_8cpp.html" target="_top" xlink:title=" ">
<polygon fill="white" stroke="black" points="438.5,-168.5 438.5,-187.5 578.5,-187.5 578.5,-168.5 438.5,-168.5"/>
<text text-anchor="middle" x="508.5" y="-175.5" font-family="Helvetica,sans-Serif" font-size="10.00">ExtendedInputOutput.cpp</text>
</a>
</g>
</g>
<!-- Node16&#45;&gt;Node28 -->
<g id="edge36" class="edge">
<title>Node16&#45;&gt;Node28</title>
<path fill="none" stroke="midnightblue" d="M834.59,-289.16C767.35,-286.65 670.43,-276.81 592.5,-244 560.89,-230.69 530.87,-202.41 516.82,-187.94"/>
<polygon fill="midnightblue" stroke="midnightblue" points="834.59,-292.66 844.7,-289.49 834.82,-285.67 834.59,-292.66"/>
</g>
<!-- Node16&#45;&gt;Node29 -->
<g id="edge37" class="edge">
<title>Node16&#45;&gt;Node29</title>
<path fill="none" stroke="midnightblue" d="M834.79,-284.24C721.36,-277.22 508.39,-262.88 327.5,-244 323,-243.53 318.34,-243 313.66,-242.44"/>
<polygon fill="midnightblue" stroke="midnightblue" points="834.59,-287.73 844.79,-284.85 835.02,-280.75 834.59,-287.73"/>
</g>
<!-- Node30 -->
<g id="node30" class="node">
<title>Node30</title>
<g id="a_node30"><a xlink:href="../../d9/d4f/LEDs_8hpp.html" target="_top" xlink:title=" ">
<polygon fill="white" stroke="black" points="1147.5,-224.5 1147.5,-243.5 1209.5,-243.5 1209.5,-224.5 1147.5,-224.5"/>
<text text-anchor="middle" x="1178.5" y="-231.5" font-family="Helvetica,sans-Serif" font-size="10.00">LEDs.hpp</text>
</a>
</g>
</g>
<!-- Node16&#45;&gt;Node30 -->
<g id="edge38" class="edge">
<title>Node16&#45;&gt;Node30</title>
<path fill="none" stroke="midnightblue" d="M967.17,-278.39C1020.78,-267.38 1102.88,-250.53 1147.32,-241.4"/>
<polygon fill="midnightblue" stroke="midnightblue" points="966.26,-275 957.17,-280.44 967.67,-281.86 966.26,-275"/>
</g>
<!-- Node32 -->
<g id="node32" class="node">
<title>Node32</title>
<g id="a_node32"><a xlink:href="../../d7/d13/MAX7219__Base_8hpp.html" target="_top" xlink:title=" ">
<polygon fill="white" stroke="black" points="1350,-224.5 1350,-243.5 1463,-243.5 1463,-224.5 1350,-224.5"/>
<text text-anchor="middle" x="1406.5" y="-231.5" font-family="Helvetica,sans-Serif" font-size="10.00">MAX7219_Base.hpp</text>
</a>
</g>
</g>
<!-- Node16&#45;&gt;Node32 -->
<g id="edge40" class="edge">
<title>Node16&#45;&gt;Node32</title>
<path fill="none" stroke="midnightblue" d="M996.13,-280.13C1095.72,-269.18 1262.63,-250.82 1349.72,-241.24"/>
<polygon fill="midnightblue" stroke="midnightblue" points="995.67,-276.66 986.11,-281.23 996.43,-283.62 995.67,-276.66"/>
</g>
<!-- Node34 -->
<g id="node34" class="node">
<title>Node34</title>
<g id="a_node34"><a xlink:href="../../d8/dd2/MCP23017Encoders_8hpp.html" target="_top" xlink:title=" ">
<polygon fill="white" stroke="black" points="1880.5,-224.5 1880.5,-243.5 2014.5,-243.5 2014.5,-224.5 1880.5,-224.5"/>
<text text-anchor="middle" x="1947.5" y="-231.5" font-family="Helvetica,sans-Serif" font-size="10.00">MCP23017Encoders.hpp</text>
</a>
</g>
</g>
<!-- Node16&#45;&gt;Node34 -->
<g id="edge44" class="edge">
<title>Node16&#45;&gt;Node34</title>
<path fill="none" stroke="midnightblue" d="M996.3,-286.9C1160.46,-282.26 1544.72,-269.46 1866.5,-244 1871.01,-243.64 1875.66,-243.23 1880.35,-242.79"/>
<polygon fill="midnightblue" stroke="midnightblue" points="996.18,-283.41 986.28,-287.18 996.38,-290.4 996.18,-283.41"/>
</g>
<!-- Node18 -->
<g id="node18" class="node">
<title>Node18</title>
<g id="a_node18"><a xlink:href="../../de/dd1/Button_8cpp.html" target="_top" xlink:title=" ">
<polygon fill="white" stroke="black" points="825,-168.5 825,-187.5 894,-187.5 894,-168.5 825,-168.5"/>
<text text-anchor="middle" x="859.5" y="-175.5" font-family="Helvetica,sans-Serif" font-size="10.00">Button.cpp</text>
</a>
</g>
</g>
<!-- Node17&#45;&gt;Node18 -->
<g id="edge23" class="edge">
<title>Node17&#45;&gt;Node18</title>
<path fill="none" stroke="midnightblue" d="M899.17,-217.25C889.24,-207.67 876.91,-195.79 868.66,-187.83"/>
<polygon fill="midnightblue" stroke="midnightblue" points="896.87,-219.9 906.5,-224.32 901.73,-214.86 896.87,-219.9"/>
</g>
<!-- Node19 -->
<g id="node19" class="node">
<title>Node19</title>
<g id="a_node19"><a xlink:href="../../d5/d04/IncrementButton_8hpp.html" target="_top" xlink:title=" ">
<polygon fill="white" stroke="black" points="912,-168.5 912,-187.5 1031,-187.5 1031,-168.5 912,-168.5"/>
<text text-anchor="middle" x="971.5" y="-175.5" font-family="Helvetica,sans-Serif" font-size="10.00">IncrementButton.hpp</text>
</a>
</g>
</g>
<!-- Node17&#45;&gt;Node19 -->
<g id="edge24" class="edge">
<title>Node17&#45;&gt;Node19</title>
<path fill="none" stroke="midnightblue" d="M931.83,-217.25C941.76,-207.67 954.09,-195.79 962.34,-187.83"/>
<polygon fill="midnightblue" stroke="midnightblue" points="929.27,-214.86 924.5,-224.32 934.13,-219.9 929.27,-214.86"/>
</g>
<!-- Node21 -->
<g id="node21" class="node">
<title>Node21</title>
<g id="a_node21"><a xlink:href="../../df/df5/IncrementDecrementButtons_8hpp.html" target="_top" xlink:title=" ">
<polygon fill="white" stroke="black" points="1049,-168.5 1049,-187.5 1228,-187.5 1228,-168.5 1049,-168.5"/>
<text text-anchor="middle" x="1138.5" y="-175.5" font-family="Helvetica,sans-Serif" font-size="10.00">IncrementDecrementButtons.hpp</text>
</a>
</g>
</g>
<!-- Node17&#45;&gt;Node21 -->
<g id="edge26" class="edge">
<title>Node17&#45;&gt;Node21</title>
<path fill="none" stroke="midnightblue" d="M960.56,-222.09C1002.69,-211.89 1064.74,-196.86 1103.33,-187.52"/>
<polygon fill="midnightblue" stroke="midnightblue" points="959.73,-218.69 950.84,-224.44 961.38,-225.49 959.73,-218.69"/>
</g>
<!-- Node23 -->
<g id="node23" class="node">
<title>Node23</title>
<g id="a_node23"><a xlink:href="../../dc/dc5/MultiPurposeButton_8hpp.html" target="_top" xlink:title=" ">
<polygon fill="white" stroke="black" points="672.5,-168.5 672.5,-187.5 806.5,-187.5 806.5,-168.5 672.5,-168.5"/>
<text text-anchor="middle" x="739.5" y="-175.5" font-family="Helvetica,sans-Serif" font-size="10.00">MultiPurposeButton.hpp</text>
</a>
</g>
</g>
<!-- Node17&#45;&gt;Node23 -->
<g id="edge28" class="edge">
<title>Node17&#45;&gt;Node23</title>
<path fill="none" stroke="midnightblue" d="M877.81,-221.44C844.63,-211.26 797.07,-196.66 767.26,-187.52"/>
<polygon fill="midnightblue" stroke="midnightblue" points="877.03,-224.86 887.61,-224.44 879.08,-218.16 877.03,-224.86"/>
</g>
<!-- Node20 -->
<g id="node20" class="node">
<title>Node20</title>
<g id="a_node20"><a xlink:href="../../db/d9d/IncrementButton_8cpp.html" target="_top" xlink:title=" ">
<polygon fill="white" stroke="black" points="961,-112.5 961,-131.5 1080,-131.5 1080,-112.5 961,-112.5"/>
<text text-anchor="middle" x="1020.5" y="-119.5" font-family="Helvetica,sans-Serif" font-size="10.00">IncrementButton.cpp</text>
</a>
</g>
</g>
<!-- Node19&#45;&gt;Node20 -->
<g id="edge25" class="edge">
<title>Node19&#45;&gt;Node20</title>
<path fill="none" stroke="midnightblue" d="M986.53,-160.43C995.12,-150.97 1005.54,-139.48 1012.56,-131.75"/>
<polygon fill="midnightblue" stroke="midnightblue" points="983.72,-158.33 979.59,-168.08 988.9,-163.03 983.72,-158.33"/>
</g>
<!-- Node22 -->
<g id="node22" class="node">
<title>Node22</title>
<g id="a_node22"><a xlink:href="../../da/d66/IncrementDecrementButtons_8cpp.html" target="_top" xlink:title=" ">
<polygon fill="white" stroke="black" points="1098.5,-112.5 1098.5,-131.5 1276.5,-131.5 1276.5,-112.5 1098.5,-112.5"/>
<text text-anchor="middle" x="1187.5" y="-119.5" font-family="Helvetica,sans-Serif" font-size="10.00">IncrementDecrementButtons.cpp</text>
</a>
</g>
</g>
<!-- Node21&#45;&gt;Node22 -->
<g id="edge27" class="edge">
<title>Node21&#45;&gt;Node22</title>
<path fill="none" stroke="midnightblue" d="M1153.53,-160.43C1162.12,-150.97 1172.54,-139.48 1179.56,-131.75"/>
<polygon fill="midnightblue" stroke="midnightblue" points="1150.72,-158.33 1146.59,-168.08 1155.9,-163.03 1150.72,-158.33"/>
</g>
<!-- Node24&#45;&gt;Node25 -->
<g id="edge30" class="edge">
<title>Node24&#45;&gt;Node25</title>
<path fill="none" stroke="midnightblue" d="M1705.11,-214.98C1710.49,-205.82 1718.06,-195.09 1724.53,-187.75"/>
<polygon fill="midnightblue" stroke="midnightblue" points="1701.87,-213.61 1700.28,-224.08 1708.06,-216.89 1701.87,-213.61"/>
</g>
<!-- Node25&#45;&gt;Node24 -->
<g id="edge31" class="edge">
<title>Node25&#45;&gt;Node24</title>
<path fill="none" stroke="midnightblue" d="M1730.02,-196.81C1724.66,-205.95 1717.1,-216.69 1710.61,-224.08"/>
<polygon fill="midnightblue" stroke="midnightblue" points="1733.23,-198.23 1734.8,-187.75 1727.03,-194.96 1733.23,-198.23"/>
</g>
<!-- Node26&#45;&gt;Node4 -->
<g id="edge35" class="edge">
<title>Node26&#45;&gt;Node4</title>
<path fill="none" stroke="midnightblue" d="M394.06,-222.47C343.22,-212.27 267.06,-196.98 219.92,-187.52"/>
<polygon fill="midnightblue" stroke="midnightblue" points="393.38,-225.91 403.88,-224.44 394.76,-219.04 393.38,-225.91"/>
</g>
<!-- Node27 -->
<g id="node27" class="node">
<title>Node27</title>
<g id="a_node27"><a xlink:href="../../da/d1f/ExtendedIOElement_8cpp.html" target="_top" xlink:title=" ">
<polygon fill="white" stroke="black" points="286.5,-168.5 286.5,-187.5 420.5,-187.5 420.5,-168.5 286.5,-168.5"/>
<text text-anchor="middle" x="353.5" y="-175.5" font-family="Helvetica,sans-Serif" font-size="10.00">ExtendedIOElement.cpp</text>
</a>
</g>
</g>
<!-- Node26&#45;&gt;Node27 -->
<g id="edge33" class="edge">
<title>Node26&#45;&gt;Node27</title>
<path fill="none" stroke="midnightblue" d="M422.69,-219.18C405.58,-209.24 383.03,-196.15 368.4,-187.65"/>
<polygon fill="midnightblue" stroke="midnightblue" points="421.15,-222.33 431.56,-224.32 424.67,-216.28 421.15,-222.33"/>
</g>
<!-- Node26&#45;&gt;Node28 -->
<g id="edge34" class="edge">
<title>Node26&#45;&gt;Node28</title>
<path fill="none" stroke="midnightblue" d="M464.25,-217.54C475.31,-207.91 489.13,-195.87 498.36,-187.83"/>
<polygon fill="midnightblue" stroke="midnightblue" points="461.7,-215.12 456.46,-224.32 466.3,-220.4 461.7,-215.12"/>
</g>
<!-- Node31 -->
<g id="node31" class="node">
<title>Node31</title>
<g id="a_node31"><a xlink:href="../../d6/d3a/DotBarDisplayLEDs_8hpp.html" target="_top" xlink:title=" ">
<polygon fill="white" stroke="black" points="1246.5,-168.5 1246.5,-187.5 1378.5,-187.5 1378.5,-168.5 1246.5,-168.5"/>
<text text-anchor="middle" x="1312.5" y="-175.5" font-family="Helvetica,sans-Serif" font-size="10.00">DotBarDisplayLEDs.hpp</text>
</a>
</g>
</g>
<!-- Node30&#45;&gt;Node31 -->
<g id="edge39" class="edge">
<title>Node30&#45;&gt;Node31</title>
<path fill="none" stroke="midnightblue" d="M1209.18,-220.64C1234.32,-210.5 1269.25,-196.43 1291.37,-187.52"/>
<polygon fill="midnightblue" stroke="midnightblue" points="1207.7,-217.46 1199.73,-224.44 1210.32,-223.95 1207.7,-217.46"/>
</g>
<!-- Node32&#45;&gt;Node5 -->
<g id="edge41" class="edge">
<title>Node32&#45;&gt;Node5</title>
<path fill="none" stroke="midnightblue" d="M1406.48,-213.92C1405.34,-198.94 1401.12,-178.87 1387.5,-168 1335.82,-126.76 859.33,-138.22 793.5,-132 784.47,-131.15 774.82,-130.04 765.65,-128.89"/>
<polygon fill="midnightblue" stroke="midnightblue" points="1402.99,-214.27 1406.85,-224.14 1409.98,-214.02 1402.99,-214.27"/>
</g>
<!-- Node33 -->
<g id="node33" class="node">
<title>Node33</title>
<g id="a_node33"><a xlink:href="../../d5/d0c/MAX7219SevenSegmentDisplay_8hpp.html" target="_top" xlink:title=" ">
<polygon fill="white" stroke="black" points="1435,-168.5 1435,-187.5 1628,-187.5 1628,-168.5 1435,-168.5"/>
<text text-anchor="middle" x="1531.5" y="-175.5" font-family="Helvetica,sans-Serif" font-size="10.00">MAX7219SevenSegmentDisplay.hpp</text>
</a>
</g>
</g>
<!-- Node32&#45;&gt;Node33 -->
<g id="edge42" class="edge">
<title>Node32&#45;&gt;Node33</title>
<path fill="none" stroke="midnightblue" d="M1435.74,-220.37C1459.15,-210.26 1491.34,-196.35 1511.79,-187.52"/>
<polygon fill="midnightblue" stroke="midnightblue" points="1434.1,-217.26 1426.31,-224.44 1436.87,-223.69 1434.1,-217.26"/>
</g>
<!-- Node35&#45;&gt;Node34 -->
<g id="edge53" class="edge">
<title>Node35&#45;&gt;Node34</title>
<path fill="none" stroke="midnightblue" d="M1895.28,-327.64C1908.75,-303.74 1932.49,-261.63 1942.66,-243.59"/>
<polygon fill="midnightblue" stroke="midnightblue" points="1892.23,-325.94 1890.37,-336.37 1898.32,-329.38 1892.23,-325.94"/>
</g>
</g>
</svg>
