<?xml version="1.0" encoding="UTF-8" standalone="no"?>
<!DOCTYPE svg PUBLIC "-//W3C//DTD SVG 1.1//EN"
 "http://www.w3.org/Graphics/SVG/1.1/DTD/svg11.dtd">
<!-- Generated by graphviz version 2.43.0 (0)
 -->
<!-- Title: ExtendedIOElement.cpp Pages: 1 -->
<svg width="1774pt" height="834pt"
 viewBox="0.00 0.00 1774.00 834.00" xmlns="http://www.w3.org/2000/svg" xmlns:xlink="http://www.w3.org/1999/xlink">
<g id="graph0" class="graph" transform="scale(1 1) rotate(0) translate(4 830)">
<title>ExtendedIOElement.cpp</title>
<polygon fill="white" stroke="transparent" points="-4,4 -4,-830 1770,-830 1770,4 -4,4"/>
<!-- Node1 -->
<g id="node1" class="node">
<title>Node1</title>
<g id="a_node1"><a xlink:title=" ">
<polygon fill="#bfbfbf" stroke="black" points="629,-806.5 629,-825.5 763,-825.5 763,-806.5 629,-806.5"/>
<text text-anchor="middle" x="696" y="-813.5" font-family="Helvetica,sans-Serif" font-size="10.00">ExtendedIOElement.cpp</text>
</a>
</g>
</g>
<!-- Node2 -->
<g id="node2" class="node">
<title>Node2</title>
<g id="a_node2"><a xlink:href="../../d1/d65/Warnings_8hpp.html" target="_top" xlink:title=" ">
<polygon fill="white" stroke="black" points="1169.5,-0.5 1169.5,-19.5 1312.5,-19.5 1312.5,-0.5 1169.5,-0.5"/>
<text text-anchor="middle" x="1241" y="-7.5" font-family="Helvetica,sans-Serif" font-size="10.00">AH/Settings/Warnings.hpp</text>
</a>
</g>
</g>
<!-- Node1&#45;&gt;Node2 -->
<g id="edge1" class="edge">
<title>Node1&#45;&gt;Node2</title>
<path fill="none" stroke="midnightblue" d="M763.34,-815.17C998.07,-814.89 1766,-806.25 1766,-705 1766,-705 1766,-705 1766,-121 1766,-87.98 1757.65,-74.05 1730,-56 1696.81,-34.33 1453.8,-20.4 1323.32,-14.4"/>
<polygon fill="midnightblue" stroke="midnightblue" points="1323.12,-10.88 1312.97,-13.93 1322.8,-17.88 1323.12,-10.88"/>
</g>
<!-- Node3 -->
<g id="node3" class="node">
<title>Node3</title>
<g id="a_node3"><a xlink:href="../../d4/d57/ExtendedIOElement_8hpp.html" target="_top" xlink:title=" ">
<polygon fill="white" stroke="black" points="677,-750.5 677,-769.5 811,-769.5 811,-750.5 677,-750.5"/>
<text text-anchor="middle" x="744" y="-757.5" font-family="Helvetica,sans-Serif" font-size="10.00">ExtendedIOElement.hpp</text>
</a>
</g>
</g>
<!-- Node1&#45;&gt;Node3 -->
<g id="edge2" class="edge">
<title>Node1&#45;&gt;Node3</title>
<path fill="none" stroke="midnightblue" d="M703.93,-806.08C710.85,-798.3 721.07,-786.8 729.45,-777.37"/>
<polygon fill="midnightblue" stroke="midnightblue" points="732.19,-779.55 736.22,-769.75 726.96,-774.9 732.19,-779.55"/>
</g>
<!-- Node8 -->
<g id="node8" class="node">
<title>Node8</title>
<g id="a_node8"><a xlink:href="../../d1/d93/Error_8hpp.html" target="_top" xlink:title=" ">
<polygon fill="white" stroke="black" points="804,-448.5 804,-467.5 908,-467.5 908,-448.5 804,-448.5"/>
<text text-anchor="middle" x="856" y="-455.5" font-family="Helvetica,sans-Serif" font-size="10.00">AH/Error/Error.hpp</text>
</a>
</g>
</g>
<!-- Node1&#45;&gt;Node8 -->
<g id="edge73" class="edge">
<title>Node1&#45;&gt;Node8</title>
<path fill="none" stroke="midnightblue" d="M689.46,-806.41C676.55,-788.56 649,-745.7 649,-705 649,-705 649,-705 649,-641.5 649,-545.22 770.28,-598.72 831,-524 841.95,-510.52 848.48,-491.71 852.11,-477.79"/>
<polygon fill="midnightblue" stroke="midnightblue" points="855.56,-478.41 854.42,-467.87 848.74,-476.82 855.56,-478.41"/>
</g>
<!-- Node16 -->
<g id="node16" class="node">
<title>Node16</title>
<g id="a_node16"><a xlink:title=" ">
<polygon fill="white" stroke="#bfbfbf" points="232.5,-112.5 232.5,-131.5 339.5,-131.5 339.5,-112.5 232.5,-112.5"/>
<text text-anchor="middle" x="286" y="-119.5" font-family="Helvetica,sans-Serif" font-size="10.00">AH/STL/type_traits</text>
</a>
</g>
</g>
<!-- Node1&#45;&gt;Node16 -->
<g id="edge74" class="edge">
<title>Node1&#45;&gt;Node16</title>
<path fill="none" stroke="midnightblue" d="M628.95,-811.39C454.51,-801.12 0,-768.27 0,-705 0,-705 0,-705 0,-401 0,-260.18 180.49,-167.65 254.71,-135.56"/>
<polygon fill="midnightblue" stroke="midnightblue" points="256.19,-138.73 264.03,-131.61 253.46,-132.29 256.19,-138.73"/>
</g>
<!-- Node3&#45;&gt;Node2 -->
<g id="edge3" class="edge">
<title>Node3&#45;&gt;Node2</title>
<path fill="none" stroke="midnightblue" d="M811.25,-758.18C1033.14,-754.6 1728,-736.01 1728,-643.5 1728,-643.5 1728,-643.5 1728,-121 1728,-90.9 1732.19,-75.18 1709,-56 1679.95,-31.97 1449.09,-19.19 1322.83,-13.93"/>
<polygon fill="midnightblue" stroke="midnightblue" points="1322.95,-10.43 1312.81,-13.52 1322.66,-17.43 1322.95,-10.43"/>
</g>
<!-- Node4 -->
<g id="node4" class="node">
<title>Node4</title>
<g id="a_node4"><a xlink:href="../../dd/ddf/ExtendedInputOutput_8hpp.html" target="_top" xlink:title=" ">
<polygon fill="white" stroke="black" points="760.5,-694.5 760.5,-713.5 901.5,-713.5 901.5,-694.5 760.5,-694.5"/>
<text text-anchor="middle" x="831" y="-701.5" font-family="Helvetica,sans-Serif" font-size="10.00">ExtendedInputOutput.hpp</text>
</a>
</g>
</g>
<!-- Node3&#45;&gt;Node4 -->
<g id="edge4" class="edge">
<title>Node3&#45;&gt;Node4</title>
<path fill="none" stroke="midnightblue" d="M757.98,-750.32C771.55,-741.9 792.38,-728.97 808.32,-719.07"/>
<polygon fill="midnightblue" stroke="midnightblue" points="810.41,-721.9 817.06,-713.65 806.71,-715.95 810.41,-721.9"/>
</g>
<!-- Node6 -->
<g id="node6" class="node">
<title>Node6</title>
<g id="a_node6"><a xlink:href="../../d4/d35/Hardware-Types_8hpp.html" target="_top" xlink:title=" ">
<polygon fill="white" stroke="black" points="922.5,-560.5 922.5,-590.5 1053.5,-590.5 1053.5,-560.5 922.5,-560.5"/>
<text text-anchor="start" x="930.5" y="-578.5" font-family="Helvetica,sans-Serif" font-size="10.00">AH/Hardware/Hardware</text>
<text text-anchor="middle" x="988" y="-567.5" font-family="Helvetica,sans-Serif" font-size="10.00">&#45;Types.hpp</text>
</a>
</g>
</g>
<!-- Node3&#45;&gt;Node6 -->
<g id="edge72" class="edge">
<title>Node3&#45;&gt;Node6</title>
<path fill="none" stroke="midnightblue" d="M743.29,-750.22C741.9,-726.23 741.68,-659.23 779,-627 815.56,-595.42 868.57,-582.87 912.05,-578.17"/>
<polygon fill="midnightblue" stroke="midnightblue" points="912.41,-581.65 922.03,-577.21 911.74,-574.68 912.41,-581.65"/>
</g>
<!-- Node31 -->
<g id="node31" class="node">
<title>Node31</title>
<g id="a_node31"><a xlink:href="../../d4/d93/Updatable_8hpp.html" target="_top" xlink:title=" ">
<polygon fill="white" stroke="black" points="287.5,-504.5 287.5,-523.5 448.5,-523.5 448.5,-504.5 287.5,-504.5"/>
<text text-anchor="middle" x="368" y="-511.5" font-family="Helvetica,sans-Serif" font-size="10.00">AH/Containers/Updatable.hpp</text>
</a>
</g>
</g>
<!-- Node3&#45;&gt;Node31 -->
<g id="edge58" class="edge">
<title>Node3&#45;&gt;Node31</title>
<path fill="none" stroke="midnightblue" d="M730.62,-750.32C674.65,-714 459.06,-574.09 389.66,-529.05"/>
<polygon fill="midnightblue" stroke="midnightblue" points="391.52,-526.09 381.22,-523.58 387.7,-531.96 391.52,-526.09"/>
</g>
<!-- Node4&#45;&gt;Node2 -->
<g id="edge57" class="edge">
<title>Node4&#45;&gt;Node2</title>
<path fill="none" stroke="midnightblue" d="M820.22,-694.49C809.39,-685.76 792.44,-671.58 779,-658 692.93,-571.04 683.88,-538 601,-448 534.15,-375.41 444,-389.68 444,-291 444,-291 444,-291 444,-121 444,-63.83 500.34,-72.77 555,-56 665.68,-22.05 1002.54,-13.71 1159.23,-11.67"/>
<polygon fill="midnightblue" stroke="midnightblue" points="1159.33,-15.17 1169.29,-11.54 1159.25,-8.17 1159.33,-15.17"/>
</g>
<!-- Node5 -->
<g id="node5" class="node">
<title>Node5</title>
<g id="a_node5"><a xlink:href="../../d2/d3c/Arduino-Hardware-Types_8hpp.html" target="_top" xlink:title=" ">
<polygon fill="white" stroke="black" points="927,-627.5 927,-657.5 1049,-657.5 1049,-627.5 927,-627.5"/>
<text text-anchor="start" x="935" y="-645.5" font-family="Helvetica,sans-Serif" font-size="10.00">AH/Hardware/Arduino</text>
<text text-anchor="middle" x="988" y="-634.5" font-family="Helvetica,sans-Serif" font-size="10.00">&#45;Hardware&#45;Types.hpp</text>
</a>
</g>
</g>
<!-- Node4&#45;&gt;Node5 -->
<g id="edge5" class="edge">
<title>Node4&#45;&gt;Node5</title>
<path fill="none" stroke="midnightblue" d="M853.49,-694.48C876.35,-685.81 912.41,-672.15 941.45,-661.14"/>
<polygon fill="midnightblue" stroke="midnightblue" points="942.89,-664.34 951,-657.52 940.41,-657.79 942.89,-664.34"/>
</g>
<!-- Node11 -->
<g id="node11" class="node">
<title>Node11</title>
<g id="a_node11"><a xlink:href="../../dc/dc7/NamespaceSettings_8hpp.html" target="_top" xlink:title=" ">
<polygon fill="white" stroke="black" points="1018.5,-56.5 1018.5,-75.5 1213.5,-75.5 1213.5,-56.5 1018.5,-56.5"/>
<text text-anchor="middle" x="1116" y="-63.5" font-family="Helvetica,sans-Serif" font-size="10.00">AH/Settings/NamespaceSettings.hpp</text>
</a>
</g>
</g>
<!-- Node4&#45;&gt;Node11 -->
<g id="edge56" class="edge">
<title>Node4&#45;&gt;Node11</title>
<path fill="none" stroke="midnightblue" d="M901.5,-696.69C1070.35,-680.64 1484,-635.32 1484,-576.5 1484,-576.5 1484,-576.5 1484,-513 1484,-325.45 1358.26,-314.37 1241,-168 1220.32,-142.19 1217.44,-133.13 1192,-112 1176.96,-99.5 1158.04,-88.29 1142.85,-80.18"/>
<polygon fill="midnightblue" stroke="midnightblue" points="1144.42,-77.06 1133.93,-75.55 1141.19,-83.27 1144.42,-77.06"/>
</g>
<!-- Node30 -->
<g id="node30" class="node">
<title>Node30</title>
<g id="a_node30"><a xlink:title=" ">
<polygon fill="white" stroke="#bfbfbf" points="787.5,-633 787.5,-652 874.5,-652 874.5,-633 787.5,-633"/>
<text text-anchor="middle" x="831" y="-640" font-family="Helvetica,sans-Serif" font-size="10.00">AH/STL/climits</text>
</a>
</g>
</g>
<!-- Node4&#45;&gt;Node30 -->
<g id="edge55" class="edge">
<title>Node4&#45;&gt;Node30</title>
<path fill="none" stroke="midnightblue" d="M831,-694.48C831,-686.08 831,-672.98 831,-662.16"/>
<polygon fill="midnightblue" stroke="midnightblue" points="834.5,-662.01 831,-652.01 827.5,-662.01 834.5,-662.01"/>
</g>
<!-- Node5&#45;&gt;Node2 -->
<g id="edge6" class="edge">
<title>Node5&#45;&gt;Node2</title>
<path fill="none" stroke="midnightblue" d="M1049.07,-635.93C1165.56,-623.6 1408,-589.06 1408,-515 1408,-515 1408,-515 1408,-457 1408,-381.31 1446,-366.69 1446,-291 1446,-291 1446,-291 1446,-121 1446,-61.63 1378.41,-34.17 1320.85,-21.55"/>
<polygon fill="midnightblue" stroke="midnightblue" points="1321.48,-18.11 1310.98,-19.51 1320.06,-24.96 1321.48,-18.11"/>
</g>
<!-- Node5&#45;&gt;Node6 -->
<g id="edge7" class="edge">
<title>Node5&#45;&gt;Node6</title>
<path fill="none" stroke="midnightblue" d="M988,-627.4C988,-619.64 988,-609.81 988,-600.86"/>
<polygon fill="midnightblue" stroke="midnightblue" points="991.5,-600.58 988,-590.58 984.5,-600.58 991.5,-600.58"/>
</g>
<!-- Node12 -->
<g id="node12" class="node">
<title>Node12</title>
<g id="a_node12"><a xlink:href="../../d6/ddf/Arduino-Wrapper_8h.html" target="_top" xlink:title=" ">
<polygon fill="white" stroke="black" points="472,-168.5 472,-187.5 596,-187.5 596,-168.5 472,-168.5"/>
<text text-anchor="middle" x="534" y="-175.5" font-family="Helvetica,sans-Serif" font-size="10.00">AH/Arduino&#45;Wrapper.h</text>
</a>
</g>
</g>
<!-- Node5&#45;&gt;Node12 -->
<g id="edge54" class="edge">
<title>Node5&#45;&gt;Node12</title>
<path fill="none" stroke="midnightblue" d="M926.64,-630.3C795.69,-605.23 494.96,-541 424,-468 403.11,-446.51 406,-432.98 406,-403 406,-403 406,-403 406,-289 406,-239.64 461.42,-207.61 499.33,-191.48"/>
<polygon fill="midnightblue" stroke="midnightblue" points="501.07,-194.55 509.02,-187.53 498.43,-188.06 501.07,-194.55"/>
</g>
<!-- Node27 -->
<g id="node27" class="node">
<title>Node27</title>
<g id="a_node27"><a xlink:href="../../d0/db1/FunctionTraits_8hpp.html" target="_top" xlink:title=" ">
<polygon fill="white" stroke="black" points="1474.5,-112.5 1474.5,-131.5 1627.5,-131.5 1627.5,-112.5 1474.5,-112.5"/>
<text text-anchor="middle" x="1551" y="-119.5" font-family="Helvetica,sans-Serif" font-size="10.00">AH/Types/FunctionTraits.hpp</text>
</a>
</g>
</g>
<!-- Node5&#45;&gt;Node27 -->
<g id="edge49" class="edge">
<title>Node5&#45;&gt;Node27</title>
<path fill="none" stroke="midnightblue" d="M1049.35,-638.18C1162.37,-631.52 1394.49,-615.07 1422,-591 1506.2,-517.31 1484,-458.89 1484,-347 1484,-347 1484,-347 1484,-233 1484,-194.7 1513.99,-158.42 1533.84,-138.59"/>
<polygon fill="midnightblue" stroke="midnightblue" points="1536.33,-141.05 1541.11,-131.6 1531.48,-136 1536.33,-141.05"/>
</g>
<!-- Node6&#45;&gt;Node2 -->
<g id="edge8" class="edge">
<title>Node6&#45;&gt;Node2</title>
<path fill="none" stroke="midnightblue" d="M1053.67,-568.26C1162.89,-556.06 1370,-524.3 1370,-459 1370,-459 1370,-459 1370,-401 1370,-325.31 1408,-310.69 1408,-235 1408,-235 1408,-235 1408,-121 1408,-65.3 1342.4,-36.21 1293.43,-22.25"/>
<polygon fill="midnightblue" stroke="midnightblue" points="1294.14,-18.82 1283.57,-19.58 1292.31,-25.58 1294.14,-18.82"/>
</g>
<!-- Node7 -->
<g id="node7" class="node">
<title>Node7</title>
<g id="a_node7"><a xlink:href="../../de/d76/Array_8hpp.html" target="_top" xlink:title=" ">
<polygon fill="white" stroke="black" points="686.5,-504.5 686.5,-523.5 821.5,-523.5 821.5,-504.5 686.5,-504.5"/>
<text text-anchor="middle" x="754" y="-511.5" font-family="Helvetica,sans-Serif" font-size="10.00">AH/Containers/Array.hpp</text>
</a>
</g>
</g>
<!-- Node6&#45;&gt;Node7 -->
<g id="edge9" class="edge">
<title>Node6&#45;&gt;Node7</title>
<path fill="none" stroke="midnightblue" d="M932.84,-560.47C891.41,-549.94 835.47,-535.72 797.25,-526"/>
<polygon fill="midnightblue" stroke="midnightblue" points="798.01,-522.58 787.45,-523.51 796.28,-529.36 798.01,-522.58"/>
</g>
<!-- Node10 -->
<g id="node10" class="node">
<title>Node10</title>
<g id="a_node10"><a xlink:href="../../dd/d80/PrintStream_8hpp.html" target="_top" xlink:title=" ">
<polygon fill="white" stroke="black" points="940.5,-224.5 940.5,-243.5 1113.5,-243.5 1113.5,-224.5 940.5,-224.5"/>
<text text-anchor="middle" x="1027" y="-231.5" font-family="Helvetica,sans-Serif" font-size="10.00">AH/PrintStream/PrintStream.hpp</text>
</a>
</g>
</g>
<!-- Node6&#45;&gt;Node10 -->
<g id="edge45" class="edge">
<title>Node6&#45;&gt;Node10</title>
<path fill="none" stroke="midnightblue" d="M1053.52,-572.91C1130.84,-567.14 1249,-544.35 1249,-459 1249,-459 1249,-459 1249,-401 1249,-313.29 1136.49,-266.33 1071.66,-246.56"/>
<polygon fill="midnightblue" stroke="midnightblue" points="1072.27,-243.09 1061.69,-243.61 1070.29,-249.8 1072.27,-243.09"/>
</g>
<!-- Node6&#45;&gt;Node11 -->
<g id="edge47" class="edge">
<title>Node6&#45;&gt;Node11</title>
<path fill="none" stroke="midnightblue" d="M1053.72,-569.88C1106.59,-564.21 1181.73,-551.66 1242,-524 1284.58,-504.45 1325,-505.85 1325,-459 1325,-459 1325,-459 1325,-401 1325,-258.1 1185.81,-126 1134.61,-82.24"/>
<polygon fill="midnightblue" stroke="midnightblue" points="1136.56,-79.3 1126.65,-75.55 1132.05,-84.66 1136.56,-79.3"/>
</g>
<!-- Node23 -->
<g id="node23" class="node">
<title>Node23</title>
<g id="a_node23"><a xlink:title=" ">
<polygon fill="white" stroke="#bfbfbf" points="869.5,-224.5 869.5,-243.5 922.5,-243.5 922.5,-224.5 869.5,-224.5"/>
<text text-anchor="middle" x="896" y="-231.5" font-family="Helvetica,sans-Serif" font-size="10.00">stdint.h</text>
</a>
</g>
</g>
<!-- Node6&#45;&gt;Node23 -->
<g id="edge48" class="edge">
<title>Node6&#45;&gt;Node23</title>
<path fill="none" stroke="midnightblue" d="M984.45,-560.39C980.79,-546.11 974.83,-523.43 969,-504 949.09,-437.63 937.66,-423 920,-356 910.57,-320.23 902.94,-277.64 898.97,-253.72"/>
<polygon fill="midnightblue" stroke="midnightblue" points="902.39,-252.9 897.33,-243.59 895.48,-254.02 902.39,-252.9"/>
</g>
<!-- Node26 -->
<g id="node26" class="node">
<title>Node26</title>
<g id="a_node26"><a xlink:title=" ">
<polygon fill="white" stroke="#bfbfbf" points="878,-504.5 878,-523.5 960,-523.5 960,-504.5 878,-504.5"/>
<text text-anchor="middle" x="919" y="-511.5" font-family="Helvetica,sans-Serif" font-size="10.00">AH/STL/limits</text>
</a>
</g>
</g>
<!-- Node6&#45;&gt;Node26 -->
<g id="edge46" class="edge">
<title>Node6&#45;&gt;Node26</title>
<path fill="none" stroke="midnightblue" d="M971.65,-560.4C961.1,-551.31 947.4,-539.49 936.62,-530.19"/>
<polygon fill="midnightblue" stroke="midnightblue" points="938.9,-527.54 929.04,-523.66 934.33,-532.84 938.9,-527.54"/>
</g>
<!-- Node7&#45;&gt;Node2 -->
<g id="edge10" class="edge">
<title>Node7&#45;&gt;Node2</title>
<path fill="none" stroke="midnightblue" d="M821.68,-507.8C981.7,-491.43 1370,-426.26 1370,-179 1370,-179 1370,-179 1370,-121 1370,-71.35 1313.98,-39.37 1275.77,-23.33"/>
<polygon fill="midnightblue" stroke="midnightblue" points="1277.07,-20.08 1266.49,-19.59 1274.46,-26.57 1277.07,-20.08"/>
</g>
<!-- Node7&#45;&gt;Node8 -->
<g id="edge11" class="edge">
<title>Node7&#45;&gt;Node8</title>
<path fill="none" stroke="midnightblue" d="M770.39,-504.32C786.67,-495.7 811.87,-482.36 830.72,-472.39"/>
<polygon fill="midnightblue" stroke="midnightblue" points="832.45,-475.43 839.65,-467.65 829.18,-469.24 832.45,-475.43"/>
</g>
<!-- Node7&#45;&gt;Node16 -->
<g id="edge43" class="edge">
<title>Node7&#45;&gt;Node16</title>
<path fill="none" stroke="midnightblue" d="M750.72,-504.28C742.22,-482.7 717.6,-426.14 681,-392 575.47,-293.57 505.79,-332.74 392,-244 352.16,-212.93 315.7,-165.36 297.73,-140.11"/>
<polygon fill="midnightblue" stroke="midnightblue" points="300.38,-137.8 291.78,-131.61 294.65,-141.81 300.38,-137.8"/>
</g>
<!-- Node22 -->
<g id="node22" class="node">
<title>Node22</title>
<g id="a_node22"><a xlink:title=" ">
<polygon fill="white" stroke="#bfbfbf" points="510,-224.5 510,-243.5 566,-243.5 566,-224.5 510,-224.5"/>
<text text-anchor="middle" x="538" y="-231.5" font-family="Helvetica,sans-Serif" font-size="10.00">stddef.h</text>
</a>
</g>
</g>
<!-- Node7&#45;&gt;Node22 -->
<g id="edge44" class="edge">
<title>Node7&#45;&gt;Node22</title>
<path fill="none" stroke="midnightblue" d="M752.9,-504.3C749.9,-483.26 739.95,-428.66 714,-392 675.38,-337.43 643.71,-345.79 595,-300 578.85,-284.82 562.37,-265.53 551.31,-251.92"/>
<polygon fill="midnightblue" stroke="midnightblue" points="553.87,-249.51 544.88,-243.89 548.4,-253.89 553.87,-249.51"/>
</g>
<!-- Node25 -->
<g id="node25" class="node">
<title>Node25</title>
<g id="a_node25"><a xlink:title=" ">
<polygon fill="white" stroke="#bfbfbf" points="582,-392.5 582,-411.5 672,-411.5 672,-392.5 582,-392.5"/>
<text text-anchor="middle" x="627" y="-399.5" font-family="Helvetica,sans-Serif" font-size="10.00">AH/STL/iterator</text>
</a>
</g>
</g>
<!-- Node7&#45;&gt;Node25 -->
<g id="edge42" class="edge">
<title>Node7&#45;&gt;Node25</title>
<path fill="none" stroke="midnightblue" d="M738.65,-504.35C724.34,-495.95 702.76,-482.38 686,-468 668.73,-453.18 651.54,-433.54 640.21,-419.74"/>
<polygon fill="midnightblue" stroke="midnightblue" points="642.66,-417.21 633.66,-411.63 637.21,-421.61 642.66,-417.21"/>
</g>
<!-- Node8&#45;&gt;Node2 -->
<g id="edge12" class="edge">
<title>Node8&#45;&gt;Node2</title>
<path fill="none" stroke="midnightblue" d="M908.09,-454.35C956.69,-450.18 1030.2,-439.49 1088,-412 1123.05,-395.33 1127.53,-383.41 1155,-356 1231.42,-279.73 1234.67,-239.01 1249,-132 1253.5,-98.38 1261.43,-89.48 1256,-56 1254.53,-46.96 1251.51,-37.28 1248.56,-29.22"/>
<polygon fill="midnightblue" stroke="midnightblue" points="1251.76,-27.79 1244.86,-19.75 1245.24,-30.34 1251.76,-27.79"/>
</g>
<!-- Node9 -->
<g id="node9" class="node">
<title>Node9</title>
<g id="a_node9"><a xlink:href="../../df/dee/Debug_8hpp.html" target="_top" xlink:title=" ">
<polygon fill="white" stroke="black" points="957.5,-392.5 957.5,-411.5 1078.5,-411.5 1078.5,-392.5 957.5,-392.5"/>
<text text-anchor="middle" x="1018" y="-399.5" font-family="Helvetica,sans-Serif" font-size="10.00">AH/Debug/Debug.hpp</text>
</a>
</g>
</g>
<!-- Node8&#45;&gt;Node9 -->
<g id="edge13" class="edge">
<title>Node8&#45;&gt;Node9</title>
<path fill="none" stroke="midnightblue" d="M881.67,-448.44C908.92,-439.36 952.18,-424.94 982.65,-414.78"/>
<polygon fill="midnightblue" stroke="midnightblue" points="984.07,-418 992.45,-411.52 981.86,-411.36 984.07,-418"/>
</g>
<!-- Node9&#45;&gt;Node2 -->
<g id="edge14" class="edge">
<title>Node9&#45;&gt;Node2</title>
<path fill="none" stroke="midnightblue" d="M1062.51,-392.47C1086.03,-385.96 1113.89,-374.79 1133,-356 1228.21,-262.36 1221.32,-207.93 1242,-76 1244.41,-60.65 1243.94,-43.01 1242.99,-29.98"/>
<polygon fill="midnightblue" stroke="midnightblue" points="1246.46,-29.55 1242.09,-19.9 1239.49,-30.17 1246.46,-29.55"/>
</g>
<!-- Node9&#45;&gt;Node10 -->
<g id="edge15" class="edge">
<title>Node9&#45;&gt;Node10</title>
<path fill="none" stroke="midnightblue" d="M1061.07,-392.49C1081.4,-386.07 1103.82,-374.99 1116,-356 1141.84,-315.7 1084.84,-270.97 1050.53,-248.89"/>
<polygon fill="midnightblue" stroke="midnightblue" points="1052.29,-245.86 1041.95,-243.53 1048.58,-251.8 1052.29,-245.86"/>
</g>
<!-- Node17 -->
<g id="node17" class="node">
<title>Node17</title>
<g id="a_node17"><a xlink:href="../../d2/dd5/SettingsWrapper_8hpp.html" target="_top" xlink:title=" ">
<polygon fill="white" stroke="black" points="929,-336.5 929,-355.5 1107,-355.5 1107,-336.5 929,-336.5"/>
<text text-anchor="middle" x="1018" y="-343.5" font-family="Helvetica,sans-Serif" font-size="10.00">AH/Settings/SettingsWrapper.hpp</text>
</a>
</g>
</g>
<!-- Node9&#45;&gt;Node17 -->
<g id="edge27" class="edge">
<title>Node9&#45;&gt;Node17</title>
<path fill="none" stroke="midnightblue" d="M1012.83,-392.08C1011.32,-384.93 1010.89,-374.64 1011.54,-365.69"/>
<polygon fill="midnightblue" stroke="midnightblue" points="1015.02,-366.13 1012.87,-355.75 1008.08,-365.2 1015.02,-366.13"/>
</g>
<!-- Node10&#45;&gt;Node2 -->
<g id="edge17" class="edge">
<title>Node10&#45;&gt;Node2</title>
<path fill="none" stroke="midnightblue" d="M1022.39,-224.39C1008.09,-196.42 967.99,-106.98 1010,-56 1028.88,-33.09 1100.78,-21.68 1159.41,-16.11"/>
<polygon fill="midnightblue" stroke="midnightblue" points="1159.8,-19.59 1169.44,-15.2 1159.17,-12.62 1159.8,-19.59"/>
</g>
<!-- Node10&#45;&gt;Node11 -->
<g id="edge16" class="edge">
<title>Node10&#45;&gt;Node11</title>
<path fill="none" stroke="midnightblue" d="M1031.79,-224.08C1045.92,-197.72 1087.65,-119.88 1106.53,-84.66"/>
<polygon fill="midnightblue" stroke="midnightblue" points="1109.77,-86.04 1111.41,-75.57 1103.6,-82.73 1109.77,-86.04"/>
</g>
<!-- Node10&#45;&gt;Node12 -->
<g id="edge18" class="edge">
<title>Node10&#45;&gt;Node12</title>
<path fill="none" stroke="midnightblue" d="M949.15,-224.47C855,-214.16 697.79,-196.94 606.23,-186.91"/>
<polygon fill="midnightblue" stroke="midnightblue" points="606.54,-183.42 596.22,-185.81 605.78,-190.38 606.54,-183.42"/>
</g>
<!-- Node13 -->
<g id="node13" class="node">
<title>Node13</title>
<g id="a_node13"><a xlink:href="../../d7/d79/MinMaxFix_8hpp.html" target="_top" xlink:title=" ">
<polygon fill="white" stroke="black" points="581,-112.5 581,-131.5 717,-131.5 717,-112.5 581,-112.5"/>
<text text-anchor="middle" x="649" y="-119.5" font-family="Helvetica,sans-Serif" font-size="10.00">AH/Math/MinMaxFix.hpp</text>
</a>
</g>
</g>
<!-- Node12&#45;&gt;Node13 -->
<g id="edge19" class="edge">
<title>Node12&#45;&gt;Node13</title>
<path fill="none" stroke="midnightblue" d="M552.22,-168.44C570.9,-159.68 600.16,-145.94 621.62,-135.86"/>
<polygon fill="midnightblue" stroke="midnightblue" points="623.3,-138.93 630.86,-131.52 620.32,-132.6 623.3,-138.93"/>
</g>
<!-- Node15 -->
<g id="node15" class="node">
<title>Node15</title>
<g id="a_node15"><a xlink:title=" ">
<polygon fill="white" stroke="#bfbfbf" points="561.5,-0.5 561.5,-19.5 624.5,-19.5 624.5,-0.5 561.5,-0.5"/>
<text text-anchor="middle" x="593" y="-7.5" font-family="Helvetica,sans-Serif" font-size="10.00">Arduino.h</text>
</a>
</g>
</g>
<!-- Node12&#45;&gt;Node15 -->
<g id="edge26" class="edge">
<title>Node12&#45;&gt;Node15</title>
<path fill="none" stroke="midnightblue" d="M533.98,-168.33C534.24,-147.8 536.79,-95.03 555,-56 560.06,-45.16 568.43,-34.83 576.03,-26.8"/>
<polygon fill="midnightblue" stroke="midnightblue" points="578.62,-29.16 583.22,-19.62 573.67,-24.21 578.62,-29.16"/>
</g>
<!-- Node12&#45;&gt;Node16 -->
<g id="edge25" class="edge">
<title>Node12&#45;&gt;Node16</title>
<path fill="none" stroke="midnightblue" d="M494.7,-168.44C451.44,-159.02 381.83,-143.87 335.03,-133.68"/>
<polygon fill="midnightblue" stroke="midnightblue" points="335.63,-130.22 325.11,-131.52 334.14,-137.06 335.63,-130.22"/>
</g>
<!-- Node13&#45;&gt;Node2 -->
<g id="edge20" class="edge">
<title>Node13&#45;&gt;Node2</title>
<path fill="none" stroke="midnightblue" d="M666.98,-112.37C703.43,-94.89 782.88,-56.87 786,-56 913.17,-20.7 1067.08,-12.27 1159.36,-10.7"/>
<polygon fill="midnightblue" stroke="midnightblue" points="1159.52,-14.2 1169.47,-10.55 1159.42,-7.2 1159.52,-14.2"/>
</g>
<!-- Node13&#45;&gt;Node11 -->
<g id="edge24" class="edge">
<title>Node13&#45;&gt;Node11</title>
<path fill="none" stroke="midnightblue" d="M717.16,-113.12C800.65,-103.46 942.06,-87.11 1032.13,-76.7"/>
<polygon fill="midnightblue" stroke="midnightblue" points="1032.78,-80.15 1042.31,-75.52 1031.98,-73.19 1032.78,-80.15"/>
</g>
<!-- Node14 -->
<g id="node14" class="node">
<title>Node14</title>
<g id="a_node14"><a xlink:href="../../d6/d3b/FixArduinoMacros_8hpp.html" target="_top" xlink:title=" ">
<polygon fill="white" stroke="black" points="564,-56.5 564,-75.5 734,-75.5 734,-56.5 564,-56.5"/>
<text text-anchor="middle" x="649" y="-63.5" font-family="Helvetica,sans-Serif" font-size="10.00">AH/Math/FixArduinoMacros.hpp</text>
</a>
</g>
</g>
<!-- Node13&#45;&gt;Node14 -->
<g id="edge21" class="edge">
<title>Node13&#45;&gt;Node14</title>
<path fill="none" stroke="midnightblue" d="M649,-112.08C649,-105.01 649,-94.86 649,-85.99"/>
<polygon fill="midnightblue" stroke="midnightblue" points="652.5,-85.75 649,-75.75 645.5,-85.75 652.5,-85.75"/>
</g>
<!-- Node14&#45;&gt;Node2 -->
<g id="edge22" class="edge">
<title>Node14&#45;&gt;Node2</title>
<path fill="none" stroke="midnightblue" d="M734.13,-57.23C847.69,-46.88 1047.38,-28.66 1159.21,-18.46"/>
<polygon fill="midnightblue" stroke="midnightblue" points="1159.79,-21.92 1169.43,-17.53 1159.15,-14.95 1159.79,-21.92"/>
</g>
<!-- Node14&#45;&gt;Node15 -->
<g id="edge23" class="edge">
<title>Node14&#45;&gt;Node15</title>
<path fill="none" stroke="midnightblue" d="M640,-56.32C631.81,-48.42 619.49,-36.55 609.53,-26.94"/>
<polygon fill="midnightblue" stroke="midnightblue" points="611.79,-24.26 602.16,-19.83 606.93,-29.29 611.79,-24.26"/>
</g>
<!-- Node17&#45;&gt;Node2 -->
<g id="edge28" class="edge">
<title>Node17&#45;&gt;Node2</title>
<path fill="none" stroke="midnightblue" d="M1041.93,-336.41C1060.43,-328.9 1085.84,-316.6 1104,-300 1189.14,-222.14 1226.33,-80.28 1237.31,-29.61"/>
<polygon fill="midnightblue" stroke="midnightblue" points="1240.75,-30.24 1239.36,-19.74 1233.9,-28.82 1240.75,-30.24"/>
</g>
<!-- Node17&#45;&gt;Node9 -->
<g id="edge41" class="edge">
<title>Node17&#45;&gt;Node9</title>
<path fill="none" stroke="midnightblue" d="M1023.13,-355.75C1024.66,-362.86 1025.1,-373.14 1024.47,-382.1"/>
<polygon fill="midnightblue" stroke="midnightblue" points="1020.99,-381.71 1023.17,-392.08 1027.93,-382.62 1020.99,-381.71"/>
</g>
<!-- Node17&#45;&gt;Node11 -->
<g id="edge29" class="edge">
<title>Node17&#45;&gt;Node11</title>
<path fill="none" stroke="midnightblue" d="M1032.73,-336.43C1056.99,-321.35 1104.48,-287.52 1123,-244 1145.94,-190.1 1130.87,-118.43 1121.65,-85.26"/>
<polygon fill="midnightblue" stroke="midnightblue" points="1124.98,-84.19 1118.81,-75.57 1118.26,-86.15 1124.98,-84.19"/>
</g>
<!-- Node18 -->
<g id="node18" class="node">
<title>Node18</title>
<g id="a_node18"><a xlink:href="../../db/d02/Settings_8hpp.html" target="_top" xlink:title="All user settings and debugging options can be changed here.">
<polygon fill="white" stroke="black" points="795.5,-280.5 795.5,-299.5 872.5,-299.5 872.5,-280.5 795.5,-280.5"/>
<text text-anchor="middle" x="834" y="-287.5" font-family="Helvetica,sans-Serif" font-size="10.00">Settings.hpp</text>
</a>
</g>
</g>
<!-- Node17&#45;&gt;Node18 -->
<g id="edge30" class="edge">
<title>Node17&#45;&gt;Node18</title>
<path fill="none" stroke="midnightblue" d="M988.84,-336.44C957.49,-327.24 907.47,-312.56 872.8,-302.39"/>
<polygon fill="midnightblue" stroke="midnightblue" points="873.6,-298.97 863.02,-299.52 871.63,-305.69 873.6,-298.97"/>
</g>
<!-- Node24 -->
<g id="node24" class="node">
<title>Node24</title>
<g id="a_node24"><a xlink:href="../../d9/d98/TeensyUSBTypes_8hpp.html" target="_top" xlink:title=" ">
<polygon fill="white" stroke="black" points="604.5,-280.5 604.5,-299.5 777.5,-299.5 777.5,-280.5 604.5,-280.5"/>
<text text-anchor="middle" x="691" y="-287.5" font-family="Helvetica,sans-Serif" font-size="10.00">AH/Teensy/TeensyUSBTypes.hpp</text>
</a>
</g>
</g>
<!-- Node17&#45;&gt;Node24 -->
<g id="edge40" class="edge">
<title>Node17&#45;&gt;Node24</title>
<path fill="none" stroke="midnightblue" d="M966.19,-336.44C908.18,-326.87 814.26,-311.36 752.56,-301.17"/>
<polygon fill="midnightblue" stroke="midnightblue" points="753.01,-297.69 742.57,-299.52 751.87,-304.6 753.01,-297.69"/>
</g>
<!-- Node19 -->
<g id="node19" class="node">
<title>Node19</title>
<g id="a_node19"><a xlink:href="../../dc/d50/Frequency_8hpp.html" target="_top" xlink:title=" ">
<polygon fill="white" stroke="black" points="829,-112.5 829,-131.5 963,-131.5 963,-112.5 829,-112.5"/>
<text text-anchor="middle" x="896" y="-119.5" font-family="Helvetica,sans-Serif" font-size="10.00">AH/Types/Frequency.hpp</text>
</a>
</g>
</g>
<!-- Node18&#45;&gt;Node19 -->
<g id="edge31" class="edge">
<title>Node18&#45;&gt;Node19</title>
<path fill="none" stroke="midnightblue" d="M837.33,-280.08C847.13,-253.83 876,-176.55 889.23,-141.12"/>
<polygon fill="midnightblue" stroke="midnightblue" points="892.58,-142.16 892.8,-131.57 886.02,-139.71 892.58,-142.16"/>
</g>
<!-- Node20 -->
<g id="node20" class="node">
<title>Node20</title>
<g id="a_node20"><a xlink:href="../../d7/d7c/ADCConfig_8hpp.html" target="_top" xlink:title="This file contains the platform&#45;specific ADC resolutions.">
<polygon fill="white" stroke="black" points="655.5,-224.5 655.5,-243.5 812.5,-243.5 812.5,-224.5 655.5,-224.5"/>
<text text-anchor="middle" x="734" y="-231.5" font-family="Helvetica,sans-Serif" font-size="10.00">AH/Hardware/ADCConfig.hpp</text>
</a>
</g>
</g>
<!-- Node18&#45;&gt;Node20 -->
<g id="edge34" class="edge">
<title>Node18&#45;&gt;Node20</title>
<path fill="none" stroke="midnightblue" d="M817.93,-280.32C802.04,-271.74 777.49,-258.49 759.04,-248.52"/>
<polygon fill="midnightblue" stroke="midnightblue" points="760.49,-245.33 750.03,-243.65 757.16,-251.49 760.49,-245.33"/>
</g>
<!-- Node21 -->
<g id="node21" class="node">
<title>Node21</title>
<g id="a_node21"><a xlink:title=" ">
<polygon fill="white" stroke="#bfbfbf" points="584.5,-224.5 584.5,-243.5 637.5,-243.5 637.5,-224.5 584.5,-224.5"/>
<text text-anchor="middle" x="611" y="-231.5" font-family="Helvetica,sans-Serif" font-size="10.00">limits.h</text>
</a>
</g>
</g>
<!-- Node18&#45;&gt;Node21 -->
<g id="edge37" class="edge">
<title>Node18&#45;&gt;Node21</title>
<path fill="none" stroke="midnightblue" d="M797.56,-280.47C761.73,-272.04 705.21,-258.63 647.72,-244.4"/>
<polygon fill="midnightblue" stroke="midnightblue" points="648.29,-240.94 637.74,-241.93 646.6,-247.73 648.29,-240.94"/>
</g>
<!-- Node18&#45;&gt;Node22 -->
<g id="edge38" class="edge">
<title>Node18&#45;&gt;Node22</title>
<path fill="none" stroke="midnightblue" d="M795.28,-281.52C792.48,-281 789.7,-280.49 787,-280 696.07,-263.58 670.29,-263.31 576.18,-244.13"/>
<polygon fill="midnightblue" stroke="midnightblue" points="576.74,-240.67 566.24,-242.08 575.33,-247.53 576.74,-240.67"/>
</g>
<!-- Node18&#45;&gt;Node23 -->
<g id="edge39" class="edge">
<title>Node18&#45;&gt;Node23</title>
<path fill="none" stroke="midnightblue" d="M843.96,-280.32C853.13,-272.34 866.94,-260.31 878.03,-250.65"/>
<polygon fill="midnightblue" stroke="midnightblue" points="880.62,-253.04 885.86,-243.83 876.02,-247.76 880.62,-253.04"/>
</g>
<!-- Node19&#45;&gt;Node2 -->
<g id="edge32" class="edge">
<title>Node19&#45;&gt;Node2</title>
<path fill="none" stroke="midnightblue" d="M904,-112.16C917.51,-97.83 946.41,-69.75 977,-56 1034.57,-30.12 1105.31,-19.03 1159.08,-14.33"/>
<polygon fill="midnightblue" stroke="midnightblue" points="1159.57,-17.8 1169.25,-13.49 1159,-10.82 1159.57,-17.8"/>
</g>
<!-- Node19&#45;&gt;Node11 -->
<g id="edge33" class="edge">
<title>Node19&#45;&gt;Node11</title>
<path fill="none" stroke="midnightblue" d="M930.86,-112.44C968.92,-103.1 1029.96,-88.12 1071.46,-77.93"/>
<polygon fill="midnightblue" stroke="midnightblue" points="1072.43,-81.3 1081.3,-75.52 1070.76,-74.5 1072.43,-81.3"/>
</g>
<!-- Node20&#45;&gt;Node2 -->
<g id="edge35" class="edge">
<title>Node20&#45;&gt;Node2</title>
<path fill="none" stroke="midnightblue" d="M738.2,-224.21C748.96,-202.48 779.56,-145.59 820,-112 865.58,-74.14 884.24,-73.01 941,-56 1013.16,-34.37 1098.34,-22.87 1159.46,-16.92"/>
<polygon fill="midnightblue" stroke="midnightblue" points="1159.81,-20.4 1169.44,-15.98 1159.16,-13.43 1159.81,-20.4"/>
</g>
<!-- Node20&#45;&gt;Node12 -->
<g id="edge36" class="edge">
<title>Node20&#45;&gt;Node12</title>
<path fill="none" stroke="midnightblue" d="M702.31,-224.44C667.93,-215.16 612.92,-200.31 575.21,-190.13"/>
<polygon fill="midnightblue" stroke="midnightblue" points="576.11,-186.74 565.54,-187.52 574.28,-193.5 576.11,-186.74"/>
</g>
<!-- Node27&#45;&gt;Node2 -->
<g id="edge52" class="edge">
<title>Node27&#45;&gt;Node2</title>
<path fill="none" stroke="midnightblue" d="M1541.73,-112.32C1526.14,-98.21 1493.1,-70.44 1460,-56 1416.61,-37.07 1364.85,-25.96 1322.55,-19.52"/>
<polygon fill="midnightblue" stroke="midnightblue" points="1322.97,-16.04 1312.57,-18.06 1321.95,-22.97 1322.97,-16.04"/>
</g>
<!-- Node27&#45;&gt;Node11 -->
<g id="edge53" class="edge">
<title>Node27&#45;&gt;Node11</title>
<path fill="none" stroke="midnightblue" d="M1482.07,-112.44C1403.88,-102.74 1276.62,-86.94 1194.62,-76.76"/>
<polygon fill="midnightblue" stroke="midnightblue" points="1194.96,-73.28 1184.6,-75.52 1194.1,-80.22 1194.96,-73.28"/>
</g>
<!-- Node28 -->
<g id="node28" class="node">
<title>Node28</title>
<g id="a_node28"><a xlink:title=" ">
<polygon fill="white" stroke="#bfbfbf" points="1610,-56.5 1610,-75.5 1700,-75.5 1700,-56.5 1610,-56.5"/>
<text text-anchor="middle" x="1655" y="-63.5" font-family="Helvetica,sans-Serif" font-size="10.00">AH/STL/cstddef</text>
</a>
</g>
</g>
<!-- Node27&#45;&gt;Node28 -->
<g id="edge50" class="edge">
<title>Node27&#45;&gt;Node28</title>
<path fill="none" stroke="midnightblue" d="M1567.71,-112.32C1584.31,-103.7 1610,-90.36 1629.22,-80.39"/>
<polygon fill="midnightblue" stroke="midnightblue" points="1631.07,-83.37 1638.33,-75.65 1627.84,-77.16 1631.07,-83.37"/>
</g>
<!-- Node29 -->
<g id="node29" class="node">
<title>Node29</title>
<g id="a_node29"><a xlink:title=" ">
<polygon fill="white" stroke="#bfbfbf" points="1512.5,-56.5 1512.5,-75.5 1591.5,-75.5 1591.5,-56.5 1512.5,-56.5"/>
<text text-anchor="middle" x="1552" y="-63.5" font-family="Helvetica,sans-Serif" font-size="10.00">AH/STL/tuple</text>
</a>
</g>
</g>
<!-- Node27&#45;&gt;Node29 -->
<g id="edge51" class="edge">
<title>Node27&#45;&gt;Node29</title>
<path fill="none" stroke="midnightblue" d="M1551.17,-112.08C1551.3,-105.01 1551.48,-94.86 1551.65,-85.99"/>
<polygon fill="midnightblue" stroke="midnightblue" points="1555.15,-85.81 1551.84,-75.75 1548.15,-85.68 1555.15,-85.81"/>
</g>
<!-- Node31&#45;&gt;Node2 -->
<g id="edge59" class="edge">
<title>Node31&#45;&gt;Node2</title>
<path fill="none" stroke="midnightblue" d="M287.24,-511.01C206.76,-507.36 90.47,-497.06 57,-468 34.27,-448.27 38,-433.1 38,-403 38,-403 38,-403 38,-121 38,37.22 230.89,-74.65 388,-56 669.79,-22.55 1006.9,-13.96 1159.2,-11.76"/>
<polygon fill="midnightblue" stroke="midnightblue" points="1159.45,-15.26 1169.4,-11.62 1159.35,-8.26 1159.45,-15.26"/>
</g>
<!-- Node31&#45;&gt;Node8 -->
<g id="edge67" class="edge">
<title>Node31&#45;&gt;Node8</title>
<path fill="none" stroke="midnightblue" d="M448.59,-505.12C533.57,-496.63 671.33,-482.42 790,-468 791.26,-467.85 792.53,-467.69 793.81,-467.53"/>
<polygon fill="midnightblue" stroke="midnightblue" points="794.3,-471 803.78,-466.26 793.42,-464.05 794.3,-471"/>
</g>
<!-- Node31&#45;&gt;Node16 -->
<g id="edge68" class="edge">
<title>Node31&#45;&gt;Node16</title>
<path fill="none" stroke="midnightblue" d="M360.71,-504.29C341.69,-480.65 292,-412.61 292,-347 292,-347 292,-347 292,-233 292,-200.9 289.42,-163.61 287.64,-141.73"/>
<polygon fill="midnightblue" stroke="midnightblue" points="291.11,-141.22 286.78,-131.55 284.14,-141.81 291.11,-141.22"/>
</g>
<!-- Node31&#45;&gt;Node17 -->
<g id="edge70" class="edge">
<title>Node31&#45;&gt;Node17</title>
<path fill="none" stroke="midnightblue" d="M419.66,-504.42C467.07,-496.22 539.12,-482.92 601,-468 743.14,-433.73 909.27,-381.93 981.44,-358.84"/>
<polygon fill="midnightblue" stroke="midnightblue" points="982.94,-362.03 991.4,-355.64 980.8,-355.37 982.94,-362.03"/>
</g>
<!-- Node31&#45;&gt;Node22 -->
<g id="edge71" class="edge">
<title>Node31&#45;&gt;Node22</title>
<path fill="none" stroke="midnightblue" d="M371.48,-504.21C379.69,-483.88 401.32,-432.22 425,-392 456.67,-338.2 501.92,-279.76 524.34,-251.77"/>
<polygon fill="midnightblue" stroke="midnightblue" points="527.21,-253.79 530.77,-243.81 521.77,-249.39 527.21,-253.79"/>
</g>
<!-- Node32 -->
<g id="node32" class="node">
<title>Node32</title>
<g id="a_node32"><a xlink:href="../../d4/dba/CRTP_8hpp.html" target="_top" xlink:title=" ">
<polygon fill="white" stroke="black" points="66,-448.5 66,-467.5 200,-467.5 200,-448.5 66,-448.5"/>
<text text-anchor="middle" x="133" y="-455.5" font-family="Helvetica,sans-Serif" font-size="10.00">AH/Containers/CRTP.hpp</text>
</a>
</g>
</g>
<!-- Node31&#45;&gt;Node32 -->
<g id="edge60" class="edge">
<title>Node31&#45;&gt;Node32</title>
<path fill="none" stroke="midnightblue" d="M330.76,-504.44C289.94,-495.06 224.36,-479.99 180.02,-469.8"/>
<polygon fill="midnightblue" stroke="midnightblue" points="180.59,-466.34 170.06,-467.52 179.02,-473.17 180.59,-466.34"/>
</g>
<!-- Node33 -->
<g id="node33" class="node">
<title>Node33</title>
<g id="a_node33"><a xlink:href="../../de/dd1/LinkedList_8hpp.html" target="_top" xlink:title=" ">
<polygon fill="white" stroke="black" points="433.5,-448.5 433.5,-467.5 592.5,-467.5 592.5,-448.5 433.5,-448.5"/>
<text text-anchor="middle" x="513" y="-455.5" font-family="Helvetica,sans-Serif" font-size="10.00">AH/Containers/LinkedList.hpp</text>
</a>
</g>
</g>
<!-- Node31&#45;&gt;Node33 -->
<g id="edge61" class="edge">
<title>Node31&#45;&gt;Node33</title>
<path fill="none" stroke="midnightblue" d="M390.98,-504.44C415.16,-495.44 453.42,-481.19 480.65,-471.05"/>
<polygon fill="midnightblue" stroke="midnightblue" points="481.98,-474.29 490.13,-467.52 479.54,-467.73 481.98,-474.29"/>
</g>
<!-- Node35 -->
<g id="node35" class="node">
<title>Node35</title>
<g id="a_node35"><a xlink:title=" ">
<polygon fill="white" stroke="#bfbfbf" points="218.5,-448.5 218.5,-467.5 301.5,-467.5 301.5,-448.5 218.5,-448.5"/>
<text text-anchor="middle" x="260" y="-455.5" font-family="Helvetica,sans-Serif" font-size="10.00">AH/STL/utility</text>
</a>
</g>
</g>
<!-- Node31&#45;&gt;Node35 -->
<g id="edge69" class="edge">
<title>Node31&#45;&gt;Node35</title>
<path fill="none" stroke="midnightblue" d="M350.65,-504.32C333.33,-495.66 306.48,-482.24 286.5,-472.25"/>
<polygon fill="midnightblue" stroke="midnightblue" points="287.82,-469 277.31,-467.65 284.69,-475.26 287.82,-469"/>
</g>
<!-- Node33&#45;&gt;Node2 -->
<g id="edge62" class="edge">
<title>Node33&#45;&gt;Node2</title>
<path fill="none" stroke="midnightblue" d="M483.51,-448.48C464.36,-441.54 440.23,-429.91 425,-412 371.45,-349.05 368,-317.65 368,-235 368,-235 368,-235 368,-121 368,-81.08 393.75,-72.72 430,-56 494.94,-26.04 966.26,-15.31 1159.1,-12.14"/>
<polygon fill="midnightblue" stroke="midnightblue" points="1159.23,-15.64 1169.18,-11.98 1159.12,-8.64 1159.23,-15.64"/>
</g>
<!-- Node33&#45;&gt;Node9 -->
<g id="edge63" class="edge">
<title>Node33&#45;&gt;Node9</title>
<path fill="none" stroke="midnightblue" d="M592.74,-448.47C690.26,-438.05 853.81,-420.56 947.11,-410.58"/>
<polygon fill="midnightblue" stroke="midnightblue" points="947.73,-414.03 957.3,-409.49 946.99,-407.07 947.73,-414.03"/>
</g>
<!-- Node33&#45;&gt;Node13 -->
<g id="edge64" class="edge">
<title>Node33&#45;&gt;Node13</title>
<path fill="none" stroke="midnightblue" d="M511.2,-448.47C503.48,-410.96 474.74,-260.87 501,-224 529.37,-184.16 566.19,-217.78 605,-188 621.16,-175.6 633.45,-155.51 640.88,-140.95"/>
<polygon fill="midnightblue" stroke="midnightblue" points="644.05,-142.44 645.24,-131.91 637.74,-139.4 644.05,-142.44"/>
</g>
<!-- Node33&#45;&gt;Node25 -->
<g id="edge66" class="edge">
<title>Node33&#45;&gt;Node25</title>
<path fill="none" stroke="midnightblue" d="M531.06,-448.44C549.57,-439.68 578.58,-425.94 599.86,-415.86"/>
<polygon fill="midnightblue" stroke="midnightblue" points="601.48,-418.96 609.02,-411.52 598.49,-412.63 601.48,-418.96"/>
</g>
<!-- Node34 -->
<g id="node34" class="node">
<title>Node34</title>
<g id="a_node34"><a xlink:title=" ">
<polygon fill="white" stroke="#bfbfbf" points="434.5,-392.5 434.5,-411.5 487.5,-411.5 487.5,-392.5 434.5,-392.5"/>
<text text-anchor="middle" x="461" y="-399.5" font-family="Helvetica,sans-Serif" font-size="10.00">stdlib.h</text>
</a>
</g>
</g>
<!-- Node33&#45;&gt;Node34 -->
<g id="edge65" class="edge">
<title>Node33&#45;&gt;Node34</title>
<path fill="none" stroke="midnightblue" d="M504.41,-448.08C496.84,-440.22 485.62,-428.57 476.49,-419.08"/>
<polygon fill="midnightblue" stroke="midnightblue" points="478.88,-416.53 469.43,-411.75 473.84,-421.38 478.88,-416.53"/>
</g>
</g>
</svg>
