<?xml version="1.0" encoding="UTF-8" standalone="no"?>
<!DOCTYPE svg PUBLIC "-//W3C//DTD SVG 1.1//EN"
 "http://www.w3.org/Graphics/SVG/1.1/DTD/svg11.dtd">
<!-- Generated by graphviz version 2.43.0 (0)
 -->
<!-- Title: AH Pages: 1 -->
<svg width="422pt" height="615pt"
 viewBox="0.00 0.00 422.00 615.00" xmlns="http://www.w3.org/2000/svg" xmlns:xlink="http://www.w3.org/1999/xlink">
<g id="graph0" class="graph" transform="scale(1 1) rotate(0) translate(4 611)">
<title>AH</title>
<polygon fill="white" stroke="transparent" points="-4,4 -4,-611 418,-611 418,4 -4,4"/>
<g id="clust1" class="cluster">
<title>clusterdir_68267d1309a1af8e8297ef4c3efbcdba</title>
<g id="a_clust1"><a xlink:href="dir_68267d1309a1af8e8297ef4c3efbcdba.html" target="_top" xlink:title="src">
<polygon fill="#eef0f6" stroke="#404040" stroke-dasharray="5,2" points="8,-8 8,-599 406,-599 406,-8 8,-8"/>
<text text-anchor="middle" x="207" y="-587" font-family="Helvetica,sans-Serif" font-size="10.00">src</text>
</a>
</g>
</g>
<g id="clust2" class="cluster">
<title>clusterdir_15b6432dff6a6d357bf70f8fbf2cdf14</title>
<g id="a_clust2"><a xlink:href="dir_15b6432dff6a6d357bf70f8fbf2cdf14.html" target="_top">
<polygon fill="#eef0f6" stroke="#404040" stroke-width="2" points="16,-16 16,-572 398,-572 398,-16 16,-16"/>
</a>
</g>
</g>
<!-- dir_15b6432dff6a6d357bf70f8fbf2cdf14 -->
<g id="node1" class="node">
<title>dir_15b6432dff6a6d357bf70f8fbf2cdf14</title>
<text text-anchor="middle" x="140" y="-543.5" font-family="Helvetica,sans-Serif" font-size="10.00">AH</text>
</g>
<!-- dir_17c5e84722ec43f18e2d8633178d0f79 -->
<g id="node7" class="node">
<title>dir_17c5e84722ec43f18e2d8633178d0f79</title>
<g id="a_node7"><a xlink:href="dir_17c5e84722ec43f18e2d8633178d0f79.html" target="_top" xlink:title="Math">
<polygon fill="#a7b5d1" stroke="#404040" points="167,-492 113,-492 113,-456 167,-456 167,-492"/>
<text text-anchor="middle" x="140" y="-471.5" font-family="Helvetica,sans-Serif" font-size="10.00">Math</text>
</a>
</g>
</g>
<!-- dir_15b6432dff6a6d357bf70f8fbf2cdf14&#45;&gt;dir_17c5e84722ec43f18e2d8633178d0f79 -->
<g id="edge1" class="edge">
<title>dir_15b6432dff6a6d357bf70f8fbf2cdf14&#45;&gt;dir_17c5e84722ec43f18e2d8633178d0f79</title>
<path fill="none" stroke="black" d="M140,-527.7C140,-519.98 140,-510.71 140,-502.11"/>
<polygon fill="black" stroke="black" points="143.5,-502.1 140,-492.1 136.5,-502.1 143.5,-502.1"/>
<g id="a_edge1&#45;headlabel"><a xlink:href="dir_000000_000009.html" target="_top" xlink:title="4">
<text text-anchor="middle" x="146.34" y="-503.2" font-family="Helvetica,sans-Serif" font-size="10.00">4</text>
</a>
</g>
</g>
<!-- dir_a47c593fc78d643c88f09a46c50bf78a -->
<g id="node2" class="node">
<title>dir_a47c593fc78d643c88f09a46c50bf78a</title>
<g id="a_node2"><a xlink:href="dir_a47c593fc78d643c88f09a46c50bf78a.html" target="_top" xlink:title="Containers">
<polygon fill="#a7b5d1" stroke="#404040" points="113.5,-204 44.5,-204 44.5,-168 113.5,-168 113.5,-204"/>
<text text-anchor="middle" x="79" y="-183.5" font-family="Helvetica,sans-Serif" font-size="10.00">Containers</text>
</a>
</g>
</g>
<!-- dir_54ed9a2f055393fe51924247a0779d9a -->
<g id="node3" class="node">
<title>dir_54ed9a2f055393fe51924247a0779d9a</title>
<g id="a_node3"><a xlink:href="dir_54ed9a2f055393fe51924247a0779d9a.html" target="_top" xlink:title="Debug">
<polygon fill="#a7b5d1" stroke="#404040" points="219,-60 165,-60 165,-24 219,-24 219,-60"/>
<text text-anchor="middle" x="192" y="-39.5" font-family="Helvetica,sans-Serif" font-size="10.00">Debug</text>
</a>
</g>
</g>
<!-- dir_a47c593fc78d643c88f09a46c50bf78a&#45;&gt;dir_54ed9a2f055393fe51924247a0779d9a -->
<g id="edge4" class="edge">
<title>dir_a47c593fc78d643c88f09a46c50bf78a&#45;&gt;dir_54ed9a2f055393fe51924247a0779d9a</title>
<path fill="none" stroke="black" d="M92.63,-167.87C112.4,-143.03 149.15,-96.85 171.99,-68.14"/>
<polygon fill="black" stroke="black" points="174.83,-70.19 178.32,-60.19 169.36,-65.83 174.83,-70.19"/>
<g id="a_edge4&#45;headlabel"><a xlink:href="dir_000001_000002.html" target="_top" xlink:title="1">
<text text-anchor="middle" x="174.82" y="-72.27" font-family="Helvetica,sans-Serif" font-size="10.00">1</text>
</a>
</g>
</g>
<!-- dir_a084c16939eb8fb9f97e0d007826b989 -->
<g id="node4" class="node">
<title>dir_a084c16939eb8fb9f97e0d007826b989</title>
<g id="a_node4"><a xlink:href="dir_a084c16939eb8fb9f97e0d007826b989.html" target="_top" xlink:title="Error">
<polygon fill="#a7b5d1" stroke="#404040" points="219,-132 165,-132 165,-96 219,-96 219,-132"/>
<text text-anchor="middle" x="192" y="-111.5" font-family="Helvetica,sans-Serif" font-size="10.00">Error</text>
</a>
</g>
</g>
<!-- dir_a47c593fc78d643c88f09a46c50bf78a&#45;&gt;dir_a084c16939eb8fb9f97e0d007826b989 -->
<g id="edge5" class="edge">
<title>dir_a47c593fc78d643c88f09a46c50bf78a&#45;&gt;dir_a084c16939eb8fb9f97e0d007826b989</title>
<path fill="none" stroke="black" d="M106.64,-167.88C121.53,-158.66 140.07,-147.17 156.06,-137.26"/>
<polygon fill="black" stroke="black" points="157.98,-140.19 164.64,-131.95 154.3,-134.24 157.98,-140.19"/>
<g id="a_edge5&#45;headlabel"><a xlink:href="dir_000001_000003.html" target="_top" xlink:title="3">
<text text-anchor="middle" x="156.42" y="-142" font-family="Helvetica,sans-Serif" font-size="10.00">3</text>
</a>
</g>
</g>
<!-- dir_a47c593fc78d643c88f09a46c50bf78a&#45;&gt;dir_17c5e84722ec43f18e2d8633178d0f79 -->
<g id="edge2" class="edge">
<title>dir_a47c593fc78d643c88f09a46c50bf78a&#45;&gt;dir_17c5e84722ec43f18e2d8633178d0f79</title>
<path fill="none" stroke="black" d="M72.52,-204.01C58.32,-244.22 28.6,-347.21 66,-420 74.13,-435.83 89.43,-447.99 104.02,-456.64"/>
<polygon fill="black" stroke="black" points="102.49,-459.8 112.94,-461.58 105.88,-453.68 102.49,-459.8"/>
<g id="a_edge2&#45;headlabel"><a xlink:href="dir_000001_000009.html" target="_top" xlink:title="1">
<text text-anchor="middle" x="97.97" y="-458.04" font-family="Helvetica,sans-Serif" font-size="10.00">1</text>
</a>
</g>
</g>
<!-- dir_3c4018d305623b2abf46b1ad99013cf4 -->
<g id="node8" class="node">
<title>dir_3c4018d305623b2abf46b1ad99013cf4</title>
<g id="a_node8"><a xlink:href="dir_3c4018d305623b2abf46b1ad99013cf4.html" target="_top" xlink:title="PrintStream">
<polygon fill="#a7b5d1" stroke="#404040" points="149,-420 75,-420 75,-384 149,-384 149,-420"/>
<text text-anchor="middle" x="112" y="-399.5" font-family="Helvetica,sans-Serif" font-size="10.00">PrintStream</text>
</a>
</g>
</g>
<!-- dir_a47c593fc78d643c88f09a46c50bf78a&#45;&gt;dir_3c4018d305623b2abf46b1ad99013cf4 -->
<g id="edge3" class="edge">
<title>dir_a47c593fc78d643c88f09a46c50bf78a&#45;&gt;dir_3c4018d305623b2abf46b1ad99013cf4</title>
<path fill="none" stroke="black" d="M81.66,-204.23C87.38,-241.32 100.89,-328.98 107.79,-373.71"/>
<polygon fill="black" stroke="black" points="104.37,-374.5 109.36,-383.85 111.29,-373.43 104.37,-374.5"/>
<g id="a_edge3&#45;headlabel"><a xlink:href="dir_000001_000011.html" target="_top" xlink:title="1">
<text text-anchor="middle" x="101.02" y="-368.88" font-family="Helvetica,sans-Serif" font-size="10.00">1</text>
</a>
</g>
</g>
<!-- dir_c93ba603db00711c7f5106968469b448 -->
<g id="node9" class="node">
<title>dir_c93ba603db00711c7f5106968469b448</title>
<g id="a_node9"><a xlink:href="dir_c93ba603db00711c7f5106968469b448.html" target="_top" xlink:title="Settings">
<polygon fill="#a7b5d1" stroke="#404040" points="303,-348 247,-348 247,-312 303,-312 303,-348"/>
<text text-anchor="middle" x="275" y="-327.5" font-family="Helvetica,sans-Serif" font-size="10.00">Settings</text>
</a>
</g>
</g>
<!-- dir_a47c593fc78d643c88f09a46c50bf78a&#45;&gt;dir_c93ba603db00711c7f5106968469b448 -->
<g id="edge6" class="edge">
<title>dir_a47c593fc78d643c88f09a46c50bf78a&#45;&gt;dir_c93ba603db00711c7f5106968469b448</title>
<path fill="none" stroke="black" d="M84.07,-204.15C90.79,-224.07 104.5,-256.66 127,-276 158.38,-302.97 204.49,-316.58 236.88,-323.2"/>
<polygon fill="black" stroke="black" points="236.41,-326.67 246.88,-325.11 237.72,-319.8 236.41,-326.67"/>
<g id="a_edge6&#45;headlabel"><a xlink:href="dir_000001_000012.html" target="_top" xlink:title="7">
<text text-anchor="middle" x="232.34" y="-326.29" font-family="Helvetica,sans-Serif" font-size="10.00">7</text>
</a>
</g>
</g>
<!-- dir_54ed9a2f055393fe51924247a0779d9a&#45;&gt;dir_3c4018d305623b2abf46b1ad99013cf4 -->
<g id="edge7" class="edge">
<title>dir_54ed9a2f055393fe51924247a0779d9a&#45;&gt;dir_3c4018d305623b2abf46b1ad99013cf4</title>
<path fill="none" stroke="black" d="M164.96,-54.72C127.33,-72.76 60.89,-111.26 35,-168 1.75,-240.85 58.84,-332.34 91.53,-375.82"/>
<polygon fill="black" stroke="black" points="88.84,-378.06 97.71,-383.85 94.39,-373.79 88.84,-378.06"/>
<g id="a_edge7&#45;headlabel"><a xlink:href="dir_000002_000011.html" target="_top" xlink:title="1">
<text text-anchor="middle" x="84.4" y="-374.44" font-family="Helvetica,sans-Serif" font-size="10.00">1</text>
</a>
</g>
</g>
<!-- dir_54ed9a2f055393fe51924247a0779d9a&#45;&gt;dir_c93ba603db00711c7f5106968469b448 -->
<g id="edge8" class="edge">
<title>dir_54ed9a2f055393fe51924247a0779d9a&#45;&gt;dir_c93ba603db00711c7f5106968469b448</title>
<path fill="none" stroke="black" d="M219.31,-50.74C262.69,-66.02 344.95,-104.2 378,-168 400.45,-211.35 385.97,-235.99 358,-276 346.62,-292.28 328.57,-305.35 312.08,-314.44"/>
<polygon fill="black" stroke="black" points="310.4,-311.37 303.13,-319.08 313.62,-317.59 310.4,-311.37"/>
<g id="a_edge8&#45;headlabel"><a xlink:href="dir_000002_000012.html" target="_top" xlink:title="2">
<text text-anchor="middle" x="312.29" y="-304.7" font-family="Helvetica,sans-Serif" font-size="10.00">2</text>
</a>
</g>
</g>
<!-- dir_a084c16939eb8fb9f97e0d007826b989&#45;&gt;dir_54ed9a2f055393fe51924247a0779d9a -->
<g id="edge9" class="edge">
<title>dir_a084c16939eb8fb9f97e0d007826b989&#45;&gt;dir_54ed9a2f055393fe51924247a0779d9a</title>
<path fill="none" stroke="black" d="M192,-95.7C192,-87.98 192,-78.71 192,-70.11"/>
<polygon fill="black" stroke="black" points="195.5,-70.1 192,-60.1 188.5,-70.1 195.5,-70.1"/>
<g id="a_edge9&#45;headlabel"><a xlink:href="dir_000003_000002.html" target="_top" xlink:title="1">
<text text-anchor="middle" x="198.34" y="-71.2" font-family="Helvetica,sans-Serif" font-size="10.00">1</text>
</a>
</g>
</g>
<!-- dir_a084c16939eb8fb9f97e0d007826b989&#45;&gt;dir_c93ba603db00711c7f5106968469b448 -->
<g id="edge10" class="edge">
<title>dir_a084c16939eb8fb9f97e0d007826b989&#45;&gt;dir_c93ba603db00711c7f5106968469b448</title>
<path fill="none" stroke="black" d="M219.19,-114.57C257.62,-115.61 326.76,-123.94 359,-168 391.8,-212.82 339.67,-272.2 303.98,-304.88"/>
<polygon fill="black" stroke="black" points="301.33,-302.54 296.2,-311.81 305.99,-307.77 301.33,-302.54"/>
<g id="a_edge10&#45;headlabel"><a xlink:href="dir_000003_000012.html" target="_top" xlink:title="2">
<text text-anchor="middle" x="302.12" y="-295.53" font-family="Helvetica,sans-Serif" font-size="10.00">2</text>
</a>
</g>
</g>
<!-- dir_d61b814a793619a867cee0523d2eb6da -->
<g id="node5" class="node">
<title>dir_d61b814a793619a867cee0523d2eb6da</title>
<g id="a_node5"><a xlink:href="dir_d61b814a793619a867cee0523d2eb6da.html" target="_top" xlink:title="Filters">
<polygon fill="#a7b5d1" stroke="#404040" points="206,-204 152,-204 152,-168 206,-168 206,-204"/>
<text text-anchor="middle" x="179" y="-183.5" font-family="Helvetica,sans-Serif" font-size="10.00">Filters</text>
</a>
</g>
</g>
<!-- dir_d61b814a793619a867cee0523d2eb6da&#45;&gt;dir_c93ba603db00711c7f5106968469b448 -->
<g id="edge11" class="edge">
<title>dir_d61b814a793619a867cee0523d2eb6da&#45;&gt;dir_c93ba603db00711c7f5106968469b448</title>
<path fill="none" stroke="black" d="M206.1,-200.21C235.58,-214.71 278.82,-236.42 281,-240 292.26,-258.54 289.4,-283.43 284.51,-302.18"/>
<polygon fill="black" stroke="black" points="281.12,-301.3 281.65,-311.88 287.83,-303.28 281.12,-301.3"/>
<g id="a_edge11&#45;headlabel"><a xlink:href="dir_000006_000012.html" target="_top" xlink:title="2">
<text text-anchor="middle" x="279.41" y="-294.55" font-family="Helvetica,sans-Serif" font-size="10.00">2</text>
</a>
</g>
</g>
<!-- dir_fe496568715fe26a65b354e6e2365ccd -->
<g id="node6" class="node">
<title>dir_fe496568715fe26a65b354e6e2365ccd</title>
<g id="a_node6"><a xlink:href="dir_fe496568715fe26a65b354e6e2365ccd.html" target="_top" xlink:title="Hardware">
<polygon fill="#a7b5d1" stroke="#404040" points="200,-276 136,-276 136,-240 200,-240 200,-276"/>
<text text-anchor="middle" x="168" y="-255.5" font-family="Helvetica,sans-Serif" font-size="10.00">Hardware</text>
</a>
</g>
</g>
<!-- dir_fe496568715fe26a65b354e6e2365ccd&#45;&gt;dir_a47c593fc78d643c88f09a46c50bf78a -->
<g id="edge15" class="edge">
<title>dir_fe496568715fe26a65b354e6e2365ccd&#45;&gt;dir_a47c593fc78d643c88f09a46c50bf78a</title>
<path fill="none" stroke="black" d="M146,-239.7C134.79,-230.88 121,-220.03 108.85,-210.47"/>
<polygon fill="black" stroke="black" points="110.77,-207.54 100.75,-204.1 106.44,-213.04 110.77,-207.54"/>
<g id="a_edge15&#45;headlabel"><a xlink:href="dir_000007_000001.html" target="_top" xlink:title="9">
<text text-anchor="middle" x="115.35" y="-205.03" font-family="Helvetica,sans-Serif" font-size="10.00">9</text>
</a>
</g>
</g>
<!-- dir_fe496568715fe26a65b354e6e2365ccd&#45;&gt;dir_a084c16939eb8fb9f97e0d007826b989 -->
<g id="edge14" class="edge">
<title>dir_fe496568715fe26a65b354e6e2365ccd&#45;&gt;dir_a084c16939eb8fb9f97e0d007826b989</title>
<path fill="none" stroke="black" d="M156.72,-239.94C146.21,-221.78 133.46,-192.36 143,-168 147.2,-157.28 154.69,-147.43 162.58,-139.2"/>
<polygon fill="black" stroke="black" points="165.12,-141.61 169.85,-132.13 160.24,-136.59 165.12,-141.61"/>
<g id="a_edge14&#45;headlabel"><a xlink:href="dir_000007_000003.html" target="_top" xlink:title="2">
<text text-anchor="middle" x="164.53" y="-143.65" font-family="Helvetica,sans-Serif" font-size="10.00">2</text>
</a>
</g>
</g>
<!-- dir_fe496568715fe26a65b354e6e2365ccd&#45;&gt;dir_d61b814a793619a867cee0523d2eb6da -->
<g id="edge17" class="edge">
<title>dir_fe496568715fe26a65b354e6e2365ccd&#45;&gt;dir_d61b814a793619a867cee0523d2eb6da</title>
<path fill="none" stroke="black" d="M170.72,-239.7C171.93,-231.98 173.39,-222.71 174.74,-214.11"/>
<polygon fill="black" stroke="black" points="178.22,-214.53 176.31,-204.1 171.3,-213.44 178.22,-214.53"/>
<g id="a_edge17&#45;headlabel"><a xlink:href="dir_000007_000006.html" target="_top" xlink:title="2">
<text text-anchor="middle" x="180.46" y="-216.02" font-family="Helvetica,sans-Serif" font-size="10.00">2</text>
</a>
</g>
</g>
<!-- dir_fe496568715fe26a65b354e6e2365ccd&#45;&gt;dir_17c5e84722ec43f18e2d8633178d0f79 -->
<g id="edge12" class="edge">
<title>dir_fe496568715fe26a65b354e6e2365ccd&#45;&gt;dir_17c5e84722ec43f18e2d8633178d0f79</title>
<path fill="none" stroke="black" d="M168.41,-276.11C168.8,-305.73 168.19,-368.35 158,-420 156.29,-428.68 153.52,-437.88 150.66,-446.14"/>
<polygon fill="black" stroke="black" points="147.33,-445.06 147.19,-455.65 153.91,-447.46 147.33,-445.06"/>
<g id="a_edge12&#45;headlabel"><a xlink:href="dir_000007_000009.html" target="_top" xlink:title="2">
<text text-anchor="middle" x="145.89" y="-438.21" font-family="Helvetica,sans-Serif" font-size="10.00">2</text>
</a>
</g>
</g>
<!-- dir_fe496568715fe26a65b354e6e2365ccd&#45;&gt;dir_3c4018d305623b2abf46b1ad99013cf4 -->
<g id="edge13" class="edge">
<title>dir_fe496568715fe26a65b354e6e2365ccd&#45;&gt;dir_3c4018d305623b2abf46b1ad99013cf4</title>
<path fill="none" stroke="black" d="M161.22,-276.19C151.58,-300.64 133.82,-345.67 122.48,-374.44"/>
<polygon fill="black" stroke="black" points="119.17,-373.28 118.75,-383.87 125.68,-375.85 119.17,-373.28"/>
<g id="a_edge13&#45;headlabel"><a xlink:href="dir_000007_000011.html" target="_top" xlink:title="1">
<text text-anchor="middle" x="117.85" y="-366.4" font-family="Helvetica,sans-Serif" font-size="10.00">1</text>
</a>
</g>
</g>
<!-- dir_fe496568715fe26a65b354e6e2365ccd&#45;&gt;dir_c93ba603db00711c7f5106968469b448 -->
<g id="edge16" class="edge">
<title>dir_fe496568715fe26a65b354e6e2365ccd&#45;&gt;dir_c93ba603db00711c7f5106968469b448</title>
<path fill="none" stroke="black" d="M200.18,-276.19C214.86,-285.18 232.04,-296.32 246.28,-306.04"/>
<polygon fill="black" stroke="black" points="244.51,-309.07 254.72,-311.88 248.49,-303.31 244.51,-309.07"/>
<g id="a_edge16&#45;headlabel"><a xlink:href="dir_000007_000012.html" target="_top" xlink:title="34">
<text text-anchor="middle" x="239.94" y="-306.86" font-family="Helvetica,sans-Serif" font-size="10.00">34</text>
</a>
</g>
</g>
<!-- dir_dbe54f2115b12050a4f51da0d7c3487b -->
<g id="node13" class="node">
<title>dir_dbe54f2115b12050a4f51da0d7c3487b</title>
<g id="a_node13"><a xlink:href="dir_dbe54f2115b12050a4f51da0d7c3487b.html" target="_top" xlink:title="Types">
<polygon fill="#a7b5d1" stroke="#404040" points="350,-204 296,-204 296,-168 350,-168 350,-204"/>
<text text-anchor="middle" x="323" y="-183.5" font-family="Helvetica,sans-Serif" font-size="10.00">Types</text>
</a>
</g>
</g>
<!-- dir_fe496568715fe26a65b354e6e2365ccd&#45;&gt;dir_dbe54f2115b12050a4f51da0d7c3487b -->
<g id="edge18" class="edge">
<title>dir_fe496568715fe26a65b354e6e2365ccd&#45;&gt;dir_dbe54f2115b12050a4f51da0d7c3487b</title>
<path fill="none" stroke="black" d="M200.16,-242.91C222.19,-233.2 252.27,-219.85 286.6,-204.14"/>
<polygon fill="black" stroke="black" points="288.27,-207.23 295.9,-199.87 285.35,-200.86 288.27,-207.23"/>
<g id="a_edge18&#45;headlabel"><a xlink:href="dir_000007_000017.html" target="_top" xlink:title="1">
<text text-anchor="middle" x="286.19" y="-208.8" font-family="Helvetica,sans-Serif" font-size="10.00">1</text>
</a>
</g>
</g>
<!-- dir_17c5e84722ec43f18e2d8633178d0f79&#45;&gt;dir_3c4018d305623b2abf46b1ad99013cf4 -->
<g id="edge19" class="edge">
<title>dir_17c5e84722ec43f18e2d8633178d0f79&#45;&gt;dir_3c4018d305623b2abf46b1ad99013cf4</title>
<path fill="none" stroke="black" d="M133.08,-455.7C129.93,-447.81 126.12,-438.3 122.62,-429.55"/>
<polygon fill="black" stroke="black" points="125.81,-428.09 118.84,-420.1 119.31,-430.69 125.81,-428.09"/>
<g id="a_edge19&#45;headlabel"><a xlink:href="dir_000009_000011.html" target="_top" xlink:title="2">
<text text-anchor="middle" x="129.78" y="-427.87" font-family="Helvetica,sans-Serif" font-size="10.00">2</text>
</a>
</g>
</g>
<!-- dir_17c5e84722ec43f18e2d8633178d0f79&#45;&gt;dir_c93ba603db00711c7f5106968469b448 -->
<g id="edge20" class="edge">
<title>dir_17c5e84722ec43f18e2d8633178d0f79&#45;&gt;dir_c93ba603db00711c7f5106968469b448</title>
<path fill="none" stroke="black" d="M167.08,-469.54C196.27,-464.26 241.68,-451.27 265,-420 278.04,-402.52 279.79,-377.48 278.71,-358.41"/>
<polygon fill="black" stroke="black" points="282.18,-357.91 277.84,-348.24 275.21,-358.51 282.18,-357.91"/>
<g id="a_edge20&#45;headlabel"><a xlink:href="dir_000009_000012.html" target="_top" xlink:title="10">
<text text-anchor="middle" x="285.32" y="-358.75" font-family="Helvetica,sans-Serif" font-size="10.00">10</text>
</a>
</g>
</g>
<!-- dir_3c4018d305623b2abf46b1ad99013cf4&#45;&gt;dir_c93ba603db00711c7f5106968469b448 -->
<g id="edge21" class="edge">
<title>dir_3c4018d305623b2abf46b1ad99013cf4&#45;&gt;dir_c93ba603db00711c7f5106968469b448</title>
<path fill="none" stroke="black" d="M149.4,-384.94C175.85,-373.58 211.17,-358.41 237.62,-347.05"/>
<polygon fill="black" stroke="black" points="239.12,-350.22 246.93,-343.05 236.36,-343.78 239.12,-350.22"/>
<g id="a_edge21&#45;headlabel"><a xlink:href="dir_000011_000012.html" target="_top" xlink:title="2">
<text text-anchor="middle" x="236.94" y="-351.74" font-family="Helvetica,sans-Serif" font-size="10.00">2</text>
</a>
</g>
</g>
<!-- dir_c93ba603db00711c7f5106968469b448&#45;&gt;dir_54ed9a2f055393fe51924247a0779d9a -->
<g id="edge23" class="edge">
<title>dir_c93ba603db00711c7f5106968469b448&#45;&gt;dir_54ed9a2f055393fe51924247a0779d9a</title>
<path fill="none" stroke="black" d="M300.31,-311.8C313.87,-302.89 329.68,-290.76 340,-276 367.97,-235.99 382.45,-211.35 360,-168 332.05,-114.04 268.89,-78.4 228.35,-59.45"/>
<polygon fill="black" stroke="black" points="229.62,-56.18 219.07,-55.22 226.71,-62.55 229.62,-56.18"/>
<g id="a_edge23&#45;headlabel"><a xlink:href="dir_000012_000002.html" target="_top" xlink:title="1">
<text text-anchor="middle" x="234.06" y="-52.59" font-family="Helvetica,sans-Serif" font-size="10.00">1</text>
</a>
</g>
</g>
<!-- dir_c93ba603db00711c7f5106968469b448&#45;&gt;dir_fe496568715fe26a65b354e6e2365ccd -->
<g id="edge25" class="edge">
<title>dir_c93ba603db00711c7f5106968469b448&#45;&gt;dir_fe496568715fe26a65b354e6e2365ccd</title>
<path fill="none" stroke="black" d="M246.95,-314.33C231.39,-304.92 212.18,-292.52 196.55,-281.85"/>
<polygon fill="black" stroke="black" points="198.49,-278.93 188.28,-276.12 194.51,-284.69 198.49,-278.93"/>
<g id="a_edge25&#45;headlabel"><a xlink:href="dir_000012_000007.html" target="_top" xlink:title="1">
<text text-anchor="middle" x="203.06" y="-276.14" font-family="Helvetica,sans-Serif" font-size="10.00">1</text>
</a>
</g>
</g>
<!-- dir_22cc041e64085de06e5f66b2732f928a -->
<g id="node11" class="node">
<title>dir_22cc041e64085de06e5f66b2732f928a</title>
<g id="a_node11"><a xlink:href="dir_22cc041e64085de06e5f66b2732f928a.html" target="_top" xlink:title="Teensy">
<polygon fill="#a7b5d1" stroke="#404040" points="272,-276 218,-276 218,-240 272,-240 272,-276"/>
<text text-anchor="middle" x="245" y="-255.5" font-family="Helvetica,sans-Serif" font-size="10.00">Teensy</text>
</a>
</g>
</g>
<!-- dir_c93ba603db00711c7f5106968469b448&#45;&gt;dir_22cc041e64085de06e5f66b2732f928a -->
<g id="edge22" class="edge">
<title>dir_c93ba603db00711c7f5106968469b448&#45;&gt;dir_22cc041e64085de06e5f66b2732f928a</title>
<path fill="none" stroke="black" d="M267.58,-311.7C264.21,-303.81 260.13,-294.3 256.38,-285.55"/>
<polygon fill="black" stroke="black" points="259.49,-283.92 252.33,-276.1 253.05,-286.67 259.49,-283.92"/>
<g id="a_edge22&#45;headlabel"><a xlink:href="dir_000012_000015.html" target="_top" xlink:title="1">
<text text-anchor="middle" x="263.51" y="-283.6" font-family="Helvetica,sans-Serif" font-size="10.00">1</text>
</a>
</g>
</g>
<!-- dir_c93ba603db00711c7f5106968469b448&#45;&gt;dir_dbe54f2115b12050a4f51da0d7c3487b -->
<g id="edge24" class="edge">
<title>dir_c93ba603db00711c7f5106968469b448&#45;&gt;dir_dbe54f2115b12050a4f51da0d7c3487b</title>
<path fill="none" stroke="black" d="M274.35,-311.95C277.41,-301.63 282.76,-288.15 287,-276 294.21,-255.36 301.35,-231.65 307.8,-213.89"/>
<polygon fill="black" stroke="black" points="311.21,-214.79 311.52,-204.2 304.67,-212.28 311.21,-214.79"/>
<g id="a_edge24&#45;headlabel"><a xlink:href="dir_000012_000017.html" target="_top" xlink:title="1">
<text text-anchor="middle" x="312.57" y="-216.66" font-family="Helvetica,sans-Serif" font-size="10.00">1</text>
</a>
</g>
</g>
<!-- dir_8d917646bcea03bd54151009018fc7e7 -->
<g id="node10" class="node">
<title>dir_8d917646bcea03bd54151009018fc7e7</title>
<g id="a_node10"><a xlink:href="dir_8d917646bcea03bd54151009018fc7e7.html" target="_top" xlink:title="STL">
<polygon fill="#a7b5d1" stroke="#404040" points="278,-204 224,-204 224,-168 278,-168 278,-204"/>
<text text-anchor="middle" x="251" y="-183.5" font-family="Helvetica,sans-Serif" font-size="10.00">STL</text>
</a>
</g>
</g>
<!-- dir_8d917646bcea03bd54151009018fc7e7&#45;&gt;dir_a084c16939eb8fb9f97e0d007826b989 -->
<g id="edge26" class="edge">
<title>dir_8d917646bcea03bd54151009018fc7e7&#45;&gt;dir_a084c16939eb8fb9f97e0d007826b989</title>
<path fill="none" stroke="black" d="M236.42,-167.7C229.34,-159.3 220.72,-149.07 212.95,-139.86"/>
<polygon fill="black" stroke="black" points="215.54,-137.49 206.42,-132.1 210.19,-142.01 215.54,-137.49"/>
<g id="a_edge26&#45;headlabel"><a xlink:href="dir_000014_000003.html" target="_top" xlink:title="1">
<text text-anchor="middle" x="220.03" y="-135.91" font-family="Helvetica,sans-Serif" font-size="10.00">1</text>
</a>
</g>
</g>
<!-- dir_a685bf69d461a29e99591549e2feaab1 -->
<g id="node12" class="node">
<title>dir_a685bf69d461a29e99591549e2feaab1</title>
<g id="a_node12"><a xlink:href="dir_a685bf69d461a29e99591549e2feaab1.html" target="_top" xlink:title="Timing">
<polygon fill="#a7b5d1" stroke="#404040" points="256,-420 202,-420 202,-384 256,-384 256,-420"/>
<text text-anchor="middle" x="229" y="-399.5" font-family="Helvetica,sans-Serif" font-size="10.00">Timing</text>
</a>
</g>
</g>
<!-- dir_a685bf69d461a29e99591549e2feaab1&#45;&gt;dir_c93ba603db00711c7f5106968469b448 -->
<g id="edge27" class="edge">
<title>dir_a685bf69d461a29e99591549e2feaab1&#45;&gt;dir_c93ba603db00711c7f5106968469b448</title>
<path fill="none" stroke="black" d="M240.37,-383.7C245.72,-375.56 252.2,-365.69 258.11,-356.7"/>
<polygon fill="black" stroke="black" points="261.19,-358.38 263.76,-348.1 255.34,-354.54 261.19,-358.38"/>
<g id="a_edge27&#45;headlabel"><a xlink:href="dir_000016_000012.html" target="_top" xlink:title="2">
<text text-anchor="middle" x="261.59" y="-360.45" font-family="Helvetica,sans-Serif" font-size="10.00">2</text>
</a>
</g>
</g>
<!-- dir_dbe54f2115b12050a4f51da0d7c3487b&#45;&gt;dir_c93ba603db00711c7f5106968469b448 -->
<g id="edge28" class="edge">
<title>dir_dbe54f2115b12050a4f51da0d7c3487b&#45;&gt;dir_c93ba603db00711c7f5106968469b448</title>
<path fill="none" stroke="black" d="M324.96,-204.2C322.14,-222.22 313.62,-251.3 305,-276 301.92,-284.83 298.25,-294.35 294.4,-302.86"/>
<polygon fill="black" stroke="black" points="291.21,-301.42 289.99,-311.95 297.51,-304.48 291.21,-301.42"/>
<g id="a_edge28&#45;headlabel"><a xlink:href="dir_000017_000012.html" target="_top" xlink:title="4">
<text text-anchor="middle" x="290.22" y="-294.45" font-family="Helvetica,sans-Serif" font-size="10.00">4</text>
</a>
</g>
</g>
</g>
</svg>
