<?xml version="1.0" encoding="UTF-8" standalone="no"?>
<!DOCTYPE svg PUBLIC "-//W3C//DTD SVG 1.1//EN"
 "http://www.w3.org/Graphics/SVG/1.1/DTD/svg11.dtd">
<!-- Generated by graphviz version 2.43.0 (0)
 -->
<!-- Title: BitArray.hpp Pages: 1 -->
<svg width="679pt" height="532pt"
 viewBox="0.00 0.00 678.50 532.00" xmlns="http://www.w3.org/2000/svg" xmlns:xlink="http://www.w3.org/1999/xlink">
<g id="graph0" class="graph" transform="scale(1 1) rotate(0) translate(4 528)">
<title>BitArray.hpp</title>
<polygon fill="white" stroke="transparent" points="-4,4 -4,-528 674.5,-528 674.5,4 -4,4"/>
<!-- Node1 -->
<g id="node1" class="node">
<title>Node1</title>
<g id="a_node1"><a xlink:title=" ">
<polygon fill="#bfbfbf" stroke="black" points="114,-504.5 114,-523.5 190,-523.5 190,-504.5 114,-504.5"/>
<text text-anchor="middle" x="152" y="-511.5" font-family="Helvetica,sans-Serif" font-size="10.00">BitArray.hpp</text>
</a>
</g>
</g>
<!-- Node2 -->
<g id="node2" class="node">
<title>Node2</title>
<g id="a_node2"><a xlink:href="../../d1/d93/Error_8hpp.html" target="_top" xlink:title=" ">
<polygon fill="white" stroke="black" points="100,-448.5 100,-467.5 204,-467.5 204,-448.5 100,-448.5"/>
<text text-anchor="middle" x="152" y="-455.5" font-family="Helvetica,sans-Serif" font-size="10.00">AH/Error/Error.hpp</text>
</a>
</g>
</g>
<!-- Node1&#45;&gt;Node2 -->
<g id="edge1" class="edge">
<title>Node1&#45;&gt;Node2</title>
<path fill="none" stroke="midnightblue" d="M152,-504.08C152,-497.01 152,-486.86 152,-477.99"/>
<polygon fill="midnightblue" stroke="midnightblue" points="155.5,-477.75 152,-467.75 148.5,-477.75 155.5,-477.75"/>
</g>
<!-- Node10 -->
<g id="node10" class="node">
<title>Node10</title>
<g id="a_node10"><a xlink:href="../../dc/dc7/NamespaceSettings_8hpp.html" target="_top" xlink:title=" ">
<polygon fill="white" stroke="black" points="35.5,-56.5 35.5,-75.5 230.5,-75.5 230.5,-56.5 35.5,-56.5"/>
<text text-anchor="middle" x="133" y="-63.5" font-family="Helvetica,sans-Serif" font-size="10.00">AH/Settings/NamespaceSettings.hpp</text>
</a>
</g>
</g>
<!-- Node1&#45;&gt;Node10 -->
<g id="edge26" class="edge">
<title>Node1&#45;&gt;Node10</title>
<path fill="none" stroke="midnightblue" d="M117.13,-504.4C72.25,-491 0,-460.49 0,-403 0,-403 0,-403 0,-177 0,-126.73 57.13,-95.1 96.5,-79.27"/>
<polygon fill="midnightblue" stroke="midnightblue" points="98.01,-82.45 106.09,-75.59 95.5,-75.91 98.01,-82.45"/>
</g>
<!-- Node18 -->
<g id="node18" class="node">
<title>Node18</title>
<g id="a_node18"><a xlink:title=" ">
<polygon fill="white" stroke="#bfbfbf" points="617.5,-224.5 617.5,-243.5 670.5,-243.5 670.5,-224.5 617.5,-224.5"/>
<text text-anchor="middle" x="644" y="-231.5" font-family="Helvetica,sans-Serif" font-size="10.00">stdint.h</text>
</a>
</g>
</g>
<!-- Node1&#45;&gt;Node18 -->
<g id="edge27" class="edge">
<title>Node1&#45;&gt;Node18</title>
<path fill="none" stroke="midnightblue" d="M190.07,-510.29C287.45,-502.33 538,-474.86 538,-403 538,-403 538,-403 538,-345 538,-299.81 584.95,-266.05 616.36,-248.52"/>
<polygon fill="midnightblue" stroke="midnightblue" points="618.37,-251.41 625.54,-243.61 615.07,-245.24 618.37,-251.41"/>
</g>
<!-- Node3 -->
<g id="node3" class="node">
<title>Node3</title>
<g id="a_node3"><a xlink:href="../../df/dee/Debug_8hpp.html" target="_top" xlink:title=" ">
<polygon fill="white" stroke="black" points="91.5,-392.5 91.5,-411.5 212.5,-411.5 212.5,-392.5 91.5,-392.5"/>
<text text-anchor="middle" x="152" y="-399.5" font-family="Helvetica,sans-Serif" font-size="10.00">AH/Debug/Debug.hpp</text>
</a>
</g>
</g>
<!-- Node2&#45;&gt;Node3 -->
<g id="edge2" class="edge">
<title>Node2&#45;&gt;Node3</title>
<path fill="none" stroke="midnightblue" d="M152,-448.08C152,-441.01 152,-430.86 152,-421.99"/>
<polygon fill="midnightblue" stroke="midnightblue" points="155.5,-421.75 152,-411.75 148.5,-421.75 155.5,-421.75"/>
</g>
<!-- Node4 -->
<g id="node4" class="node">
<title>Node4</title>
<g id="a_node4"><a xlink:href="../../dd/d80/PrintStream_8hpp.html" target="_top" xlink:title=" ">
<polygon fill="white" stroke="black" points="66.5,-224.5 66.5,-243.5 239.5,-243.5 239.5,-224.5 66.5,-224.5"/>
<text text-anchor="middle" x="153" y="-231.5" font-family="Helvetica,sans-Serif" font-size="10.00">AH/PrintStream/PrintStream.hpp</text>
</a>
</g>
</g>
<!-- Node3&#45;&gt;Node4 -->
<g id="edge3" class="edge">
<title>Node3&#45;&gt;Node4</title>
<path fill="none" stroke="midnightblue" d="M195.07,-392.49C215.4,-386.07 237.82,-374.99 250,-356 257.59,-344.16 266.28,-307.78 248,-280 237.59,-264.18 220,-253.79 202.78,-247.03"/>
<polygon fill="midnightblue" stroke="midnightblue" points="203.88,-243.71 193.29,-243.63 201.53,-250.3 203.88,-243.71"/>
</g>
<!-- Node12 -->
<g id="node12" class="node">
<title>Node12</title>
<g id="a_node12"><a xlink:href="../../d2/dd5/SettingsWrapper_8hpp.html" target="_top" xlink:title=" ">
<polygon fill="white" stroke="black" points="63,-336.5 63,-355.5 241,-355.5 241,-336.5 63,-336.5"/>
<text text-anchor="middle" x="152" y="-343.5" font-family="Helvetica,sans-Serif" font-size="10.00">AH/Settings/SettingsWrapper.hpp</text>
</a>
</g>
</g>
<!-- Node3&#45;&gt;Node12 -->
<g id="edge14" class="edge">
<title>Node3&#45;&gt;Node12</title>
<path fill="none" stroke="midnightblue" d="M146.83,-392.08C145.32,-384.93 144.89,-374.64 145.54,-365.69"/>
<polygon fill="midnightblue" stroke="midnightblue" points="149.02,-366.13 146.87,-355.75 142.08,-365.2 149.02,-366.13"/>
</g>
<!-- Node5 -->
<g id="node5" class="node">
<title>Node5</title>
<g id="a_node5"><a xlink:href="../../d6/ddf/Arduino-Wrapper_8h.html" target="_top" xlink:title=" ">
<polygon fill="white" stroke="black" points="312,-168.5 312,-187.5 436,-187.5 436,-168.5 312,-168.5"/>
<text text-anchor="middle" x="374" y="-175.5" font-family="Helvetica,sans-Serif" font-size="10.00">AH/Arduino&#45;Wrapper.h</text>
</a>
</g>
</g>
<!-- Node4&#45;&gt;Node5 -->
<g id="edge4" class="edge">
<title>Node4&#45;&gt;Node5</title>
<path fill="none" stroke="midnightblue" d="M188.02,-224.44C226.25,-215.1 287.57,-200.12 329.26,-189.93"/>
<polygon fill="midnightblue" stroke="midnightblue" points="330.26,-193.29 339.15,-187.52 328.6,-186.49 330.26,-193.29"/>
</g>
<!-- Node4&#45;&gt;Node10 -->
<g id="edge13" class="edge">
<title>Node4&#45;&gt;Node10</title>
<path fill="none" stroke="midnightblue" d="M150.46,-224.46C147.9,-215.47 144.04,-200.87 142,-188 136.31,-152.06 134.2,-109.53 133.43,-85.67"/>
<polygon fill="midnightblue" stroke="midnightblue" points="136.93,-85.46 133.15,-75.56 129.93,-85.66 136.93,-85.46"/>
</g>
<!-- Node6 -->
<g id="node6" class="node">
<title>Node6</title>
<g id="a_node6"><a xlink:href="../../d7/d79/MinMaxFix_8hpp.html" target="_top" xlink:title=" ">
<polygon fill="white" stroke="black" points="306,-112.5 306,-131.5 442,-131.5 442,-112.5 306,-112.5"/>
<text text-anchor="middle" x="374" y="-119.5" font-family="Helvetica,sans-Serif" font-size="10.00">AH/Math/MinMaxFix.hpp</text>
</a>
</g>
</g>
<!-- Node5&#45;&gt;Node6 -->
<g id="edge5" class="edge">
<title>Node5&#45;&gt;Node6</title>
<path fill="none" stroke="midnightblue" d="M374,-168.08C374,-161.01 374,-150.86 374,-141.99"/>
<polygon fill="midnightblue" stroke="midnightblue" points="377.5,-141.75 374,-131.75 370.5,-141.75 377.5,-141.75"/>
</g>
<!-- Node9 -->
<g id="node9" class="node">
<title>Node9</title>
<g id="a_node9"><a xlink:title=" ">
<polygon fill="white" stroke="#bfbfbf" points="381.5,-0.5 381.5,-19.5 444.5,-19.5 444.5,-0.5 381.5,-0.5"/>
<text text-anchor="middle" x="413" y="-7.5" font-family="Helvetica,sans-Serif" font-size="10.00">Arduino.h</text>
</a>
</g>
</g>
<!-- Node5&#45;&gt;Node9 -->
<g id="edge12" class="edge">
<title>Node5&#45;&gt;Node9</title>
<path fill="none" stroke="midnightblue" d="M402.37,-168.49C419.75,-161.65 440.6,-150.13 451,-132 467.81,-102.7 462.6,-87.72 451,-56 446.94,-44.91 438.81,-34.67 431.11,-26.76"/>
<polygon fill="midnightblue" stroke="midnightblue" points="433.36,-24.07 423.71,-19.7 428.53,-29.14 433.36,-24.07"/>
</g>
<!-- Node11 -->
<g id="node11" class="node">
<title>Node11</title>
<g id="a_node11"><a xlink:title=" ">
<polygon fill="white" stroke="#bfbfbf" points="180.5,-112.5 180.5,-131.5 287.5,-131.5 287.5,-112.5 180.5,-112.5"/>
<text text-anchor="middle" x="234" y="-119.5" font-family="Helvetica,sans-Serif" font-size="10.00">AH/STL/type_traits</text>
</a>
</g>
</g>
<!-- Node5&#45;&gt;Node11 -->
<g id="edge11" class="edge">
<title>Node5&#45;&gt;Node11</title>
<path fill="none" stroke="midnightblue" d="M351.82,-168.44C328.57,-159.48 291.85,-145.31 265.58,-135.18"/>
<polygon fill="midnightblue" stroke="midnightblue" points="266.67,-131.85 256.08,-131.52 264.15,-138.38 266.67,-131.85"/>
</g>
<!-- Node7 -->
<g id="node7" class="node">
<title>Node7</title>
<g id="a_node7"><a xlink:href="../../d6/d3b/FixArduinoMacros_8hpp.html" target="_top" xlink:title=" ">
<polygon fill="white" stroke="black" points="272,-56.5 272,-75.5 442,-75.5 442,-56.5 272,-56.5"/>
<text text-anchor="middle" x="357" y="-63.5" font-family="Helvetica,sans-Serif" font-size="10.00">AH/Math/FixArduinoMacros.hpp</text>
</a>
</g>
</g>
<!-- Node6&#45;&gt;Node7 -->
<g id="edge6" class="edge">
<title>Node6&#45;&gt;Node7</title>
<path fill="none" stroke="midnightblue" d="M371.19,-112.08C368.92,-104.85 365.63,-94.41 362.79,-85.4"/>
<polygon fill="midnightblue" stroke="midnightblue" points="366.1,-84.24 359.75,-75.75 359.42,-86.34 366.1,-84.24"/>
</g>
<!-- Node6&#45;&gt;Node10 -->
<g id="edge9" class="edge">
<title>Node6&#45;&gt;Node10</title>
<path fill="none" stroke="midnightblue" d="M335.81,-112.44C293.86,-103.04 226.41,-87.93 180.93,-77.74"/>
<polygon fill="midnightblue" stroke="midnightblue" points="181.53,-74.29 171.01,-75.52 180,-81.12 181.53,-74.29"/>
</g>
<!-- Node8 -->
<g id="node8" class="node">
<title>Node8</title>
<g id="a_node8"><a xlink:href="../../d1/d65/Warnings_8hpp.html" target="_top" xlink:title=" ">
<polygon fill="white" stroke="black" points="178.5,-0.5 178.5,-19.5 321.5,-19.5 321.5,-0.5 178.5,-0.5"/>
<text text-anchor="middle" x="250" y="-7.5" font-family="Helvetica,sans-Serif" font-size="10.00">AH/Settings/Warnings.hpp</text>
</a>
</g>
</g>
<!-- Node7&#45;&gt;Node8 -->
<g id="edge7" class="edge">
<title>Node7&#45;&gt;Node8</title>
<path fill="none" stroke="midnightblue" d="M339.81,-56.32C322.65,-47.66 296.05,-34.24 276.25,-24.25"/>
<polygon fill="midnightblue" stroke="midnightblue" points="277.65,-21.04 267.15,-19.65 274.5,-27.28 277.65,-21.04"/>
</g>
<!-- Node7&#45;&gt;Node9 -->
<g id="edge8" class="edge">
<title>Node7&#45;&gt;Node9</title>
<path fill="none" stroke="midnightblue" d="M366,-56.32C374.19,-48.42 386.51,-36.55 396.47,-26.94"/>
<polygon fill="midnightblue" stroke="midnightblue" points="399.07,-29.29 403.84,-19.83 394.21,-24.26 399.07,-29.29"/>
</g>
<!-- Node10&#45;&gt;Node8 -->
<g id="edge10" class="edge">
<title>Node10&#45;&gt;Node8</title>
<path fill="none" stroke="midnightblue" d="M151.54,-56.44C170.62,-47.64 200.57,-33.81 222.44,-23.72"/>
<polygon fill="midnightblue" stroke="midnightblue" points="223.93,-26.88 231.55,-19.52 221,-20.53 223.93,-26.88"/>
</g>
<!-- Node12&#45;&gt;Node3 -->
<g id="edge25" class="edge">
<title>Node12&#45;&gt;Node3</title>
<path fill="none" stroke="midnightblue" d="M157.13,-355.75C158.66,-362.86 159.1,-373.14 158.47,-382.1"/>
<polygon fill="midnightblue" stroke="midnightblue" points="154.99,-381.71 157.17,-392.08 161.93,-382.62 154.99,-381.71"/>
</g>
<!-- Node12&#45;&gt;Node10 -->
<g id="edge15" class="edge">
<title>Node12&#45;&gt;Node10</title>
<path fill="none" stroke="midnightblue" d="M117.73,-336.45C97.41,-329.72 72.64,-318.33 57,-300 37.46,-277.1 38,-265.1 38,-235 38,-235 38,-235 38,-177 38,-133.74 80.61,-99.09 108.75,-80.91"/>
<polygon fill="midnightblue" stroke="midnightblue" points="110.66,-83.85 117.31,-75.6 106.97,-77.9 110.66,-83.85"/>
</g>
<!-- Node13 -->
<g id="node13" class="node">
<title>Node13</title>
<g id="a_node13"><a xlink:href="../../db/d02/Settings_8hpp.html" target="_top" xlink:title="All user settings and debugging options can be changed here.">
<polygon fill="white" stroke="black" points="327.5,-280.5 327.5,-299.5 404.5,-299.5 404.5,-280.5 327.5,-280.5"/>
<text text-anchor="middle" x="366" y="-287.5" font-family="Helvetica,sans-Serif" font-size="10.00">Settings.hpp</text>
</a>
</g>
</g>
<!-- Node12&#45;&gt;Node13 -->
<g id="edge16" class="edge">
<title>Node12&#45;&gt;Node13</title>
<path fill="none" stroke="midnightblue" d="M185.91,-336.44C222.85,-327.12 282.05,-312.18 322.42,-302"/>
<polygon fill="midnightblue" stroke="midnightblue" points="323.41,-305.36 332.25,-299.52 321.7,-298.57 323.41,-305.36"/>
</g>
<!-- Node19 -->
<g id="node19" class="node">
<title>Node19</title>
<g id="a_node19"><a xlink:href="../../d9/d98/TeensyUSBTypes_8hpp.html" target="_top" xlink:title=" ">
<polygon fill="white" stroke="black" points="66.5,-280.5 66.5,-299.5 239.5,-299.5 239.5,-280.5 66.5,-280.5"/>
<text text-anchor="middle" x="153" y="-287.5" font-family="Helvetica,sans-Serif" font-size="10.00">AH/Teensy/TeensyUSBTypes.hpp</text>
</a>
</g>
</g>
<!-- Node12&#45;&gt;Node19 -->
<g id="edge24" class="edge">
<title>Node12&#45;&gt;Node19</title>
<path fill="none" stroke="midnightblue" d="M152.17,-336.08C152.3,-329.01 152.48,-318.86 152.65,-309.99"/>
<polygon fill="midnightblue" stroke="midnightblue" points="156.15,-309.81 152.84,-299.75 149.15,-309.68 156.15,-309.81"/>
</g>
<!-- Node14 -->
<g id="node14" class="node">
<title>Node14</title>
<g id="a_node14"><a xlink:href="../../dc/d50/Frequency_8hpp.html" target="_top" xlink:title=" ">
<polygon fill="white" stroke="black" points="151,-168.5 151,-187.5 285,-187.5 285,-168.5 151,-168.5"/>
<text text-anchor="middle" x="218" y="-175.5" font-family="Helvetica,sans-Serif" font-size="10.00">AH/Types/Frequency.hpp</text>
</a>
</g>
</g>
<!-- Node13&#45;&gt;Node14 -->
<g id="edge17" class="edge">
<title>Node13&#45;&gt;Node14</title>
<path fill="none" stroke="midnightblue" d="M348.58,-280.39C332.29,-272.03 307.62,-258.48 288,-244 267.7,-229.02 246.8,-208.88 233.19,-195.02"/>
<polygon fill="midnightblue" stroke="midnightblue" points="235.55,-192.42 226.08,-187.66 230.51,-197.28 235.55,-192.42"/>
</g>
<!-- Node15 -->
<g id="node15" class="node">
<title>Node15</title>
<g id="a_node15"><a xlink:href="../../d7/d7c/ADCConfig_8hpp.html" target="_top" xlink:title="This file contains the platform&#45;specific ADC resolutions.">
<polygon fill="white" stroke="black" points="442.5,-224.5 442.5,-243.5 599.5,-243.5 599.5,-224.5 442.5,-224.5"/>
<text text-anchor="middle" x="521" y="-231.5" font-family="Helvetica,sans-Serif" font-size="10.00">AH/Hardware/ADCConfig.hpp</text>
</a>
</g>
</g>
<!-- Node13&#45;&gt;Node15 -->
<g id="edge19" class="edge">
<title>Node13&#45;&gt;Node15</title>
<path fill="none" stroke="midnightblue" d="M390.56,-280.44C416.52,-271.4 457.67,-257.06 486.8,-246.92"/>
<polygon fill="midnightblue" stroke="midnightblue" points="488.26,-250.11 496.55,-243.52 485.96,-243.5 488.26,-250.11"/>
</g>
<!-- Node16 -->
<g id="node16" class="node">
<title>Node16</title>
<g id="a_node16"><a xlink:title=" ">
<polygon fill="white" stroke="#bfbfbf" points="296.5,-224.5 296.5,-243.5 349.5,-243.5 349.5,-224.5 296.5,-224.5"/>
<text text-anchor="middle" x="323" y="-231.5" font-family="Helvetica,sans-Serif" font-size="10.00">limits.h</text>
</a>
</g>
</g>
<!-- Node13&#45;&gt;Node16 -->
<g id="edge21" class="edge">
<title>Node13&#45;&gt;Node16</title>
<path fill="none" stroke="midnightblue" d="M358.9,-280.08C352.76,-272.38 343.73,-261.03 336.26,-251.65"/>
<polygon fill="midnightblue" stroke="midnightblue" points="338.94,-249.39 329.97,-243.75 333.46,-253.75 338.94,-249.39"/>
</g>
<!-- Node17 -->
<g id="node17" class="node">
<title>Node17</title>
<g id="a_node17"><a xlink:title=" ">
<polygon fill="white" stroke="#bfbfbf" points="368,-224.5 368,-243.5 424,-243.5 424,-224.5 368,-224.5"/>
<text text-anchor="middle" x="396" y="-231.5" font-family="Helvetica,sans-Serif" font-size="10.00">stddef.h</text>
</a>
</g>
</g>
<!-- Node13&#45;&gt;Node17 -->
<g id="edge22" class="edge">
<title>Node13&#45;&gt;Node17</title>
<path fill="none" stroke="midnightblue" d="M370.95,-280.08C375.1,-272.61 381.15,-261.72 386.27,-252.52"/>
<polygon fill="midnightblue" stroke="midnightblue" points="389.34,-254.19 391.14,-243.75 383.22,-250.79 389.34,-254.19"/>
</g>
<!-- Node13&#45;&gt;Node18 -->
<g id="edge23" class="edge">
<title>Node13&#45;&gt;Node18</title>
<path fill="none" stroke="midnightblue" d="M404.88,-282.65C451.03,-274.92 530.5,-261.02 607.44,-244.24"/>
<polygon fill="midnightblue" stroke="midnightblue" points="608.28,-247.64 617.29,-242.07 606.77,-240.8 608.28,-247.64"/>
</g>
<!-- Node14&#45;&gt;Node10 -->
<g id="edge18" class="edge">
<title>Node14&#45;&gt;Node10</title>
<path fill="none" stroke="midnightblue" d="M207.47,-168.43C197.37,-159.87 182.06,-146.01 171,-132 159.38,-117.28 148.86,-98.65 141.84,-85.11"/>
<polygon fill="midnightblue" stroke="midnightblue" points="144.83,-83.26 137.2,-75.9 138.58,-86.41 144.83,-83.26"/>
</g>
<!-- Node15&#45;&gt;Node5 -->
<g id="edge20" class="edge">
<title>Node15&#45;&gt;Node5</title>
<path fill="none" stroke="midnightblue" d="M497.71,-224.44C473.19,-215.44 434.4,-201.19 406.8,-191.05"/>
<polygon fill="midnightblue" stroke="midnightblue" points="407.78,-187.68 397.18,-187.52 405.36,-194.25 407.78,-187.68"/>
</g>
</g>
</svg>
