<?xml version="1.0" encoding="UTF-8" standalone="no"?>
<!DOCTYPE svg PUBLIC "-//W3C//DTD SVG 1.1//EN"
 "http://www.w3.org/Graphics/SVG/1.1/DTD/svg11.dtd">
<!-- Generated by graphviz version 2.43.0 (0)
 -->
<!-- Title: Quaternion.hpp Pages: 1 -->
<svg width="549pt" height="308pt"
 viewBox="0.00 0.00 548.50 308.00" xmlns="http://www.w3.org/2000/svg" xmlns:xlink="http://www.w3.org/1999/xlink">
<g id="graph0" class="graph" transform="scale(1 1) rotate(0) translate(4 304)">
<title>Quaternion.hpp</title>
<polygon fill="white" stroke="transparent" points="-4,4 -4,-304 544.5,-304 544.5,4 -4,4"/>
<!-- Node1 -->
<g id="node1" class="node">
<title>Node1</title>
<g id="a_node1"><a xlink:title="Definition of Quaternion and EulerAngles.">
<polygon fill="#bfbfbf" stroke="black" points="299.5,-280.5 299.5,-299.5 391.5,-299.5 391.5,-280.5 299.5,-280.5"/>
<text text-anchor="middle" x="345.5" y="-287.5" font-family="Helvetica,sans-Serif" font-size="10.00">Quaternion.hpp</text>
</a>
</g>
</g>
<!-- Node2 -->
<g id="node2" class="node">
<title>Node2</title>
<g id="a_node2"><a xlink:href="../../d6/ddf/Arduino-Wrapper_8h.html" target="_top" xlink:title=" ">
<polygon fill="white" stroke="black" points="245.5,-168.5 245.5,-187.5 369.5,-187.5 369.5,-168.5 245.5,-168.5"/>
<text text-anchor="middle" x="307.5" y="-175.5" font-family="Helvetica,sans-Serif" font-size="10.00">AH/Arduino&#45;Wrapper.h</text>
</a>
</g>
</g>
<!-- Node1&#45;&gt;Node2 -->
<g id="edge1" class="edge">
<title>Node1&#45;&gt;Node2</title>
<path fill="none" stroke="midnightblue" d="M323.04,-280.38C307.73,-273.18 288.64,-261.29 279.5,-244 271.02,-227.96 281.64,-208.8 292.14,-195.45"/>
<polygon fill="midnightblue" stroke="midnightblue" points="295,-197.49 298.83,-187.61 289.68,-192.95 295,-197.49"/>
</g>
<!-- Node9 -->
<g id="node9" class="node">
<title>Node9</title>
<g id="a_node9"><a xlink:href="../../de/d79/Degrees_8hpp.html" target="_top" xlink:title="Conversions between radians and degrees.">
<polygon fill="white" stroke="black" points="104,-168.5 104,-187.5 227,-187.5 227,-168.5 104,-168.5"/>
<text text-anchor="middle" x="165.5" y="-175.5" font-family="Helvetica,sans-Serif" font-size="10.00">AH/Math/Degrees.hpp</text>
</a>
</g>
</g>
<!-- Node1&#45;&gt;Node9 -->
<g id="edge10" class="edge">
<title>Node1&#45;&gt;Node9</title>
<path fill="none" stroke="midnightblue" d="M331.38,-280.37C300.36,-261.41 226.05,-216 188.31,-192.94"/>
<polygon fill="midnightblue" stroke="midnightblue" points="189.92,-189.82 179.56,-187.59 186.27,-195.79 189.92,-189.82"/>
</g>
<!-- Node10 -->
<g id="node10" class="node">
<title>Node10</title>
<g id="a_node10"><a xlink:href="../../de/dd9/Vector_8hpp.html" target="_top" xlink:title="Definition of Vec2f and Vec3f.">
<polygon fill="white" stroke="black" points="289,-224.5 289,-243.5 402,-243.5 402,-224.5 289,-224.5"/>
<text text-anchor="middle" x="345.5" y="-231.5" font-family="Helvetica,sans-Serif" font-size="10.00">AH/Math/Vector.hpp</text>
</a>
</g>
</g>
<!-- Node1&#45;&gt;Node10 -->
<g id="edge13" class="edge">
<title>Node1&#45;&gt;Node10</title>
<path fill="none" stroke="midnightblue" d="M345.5,-280.08C345.5,-273.01 345.5,-262.86 345.5,-253.99"/>
<polygon fill="midnightblue" stroke="midnightblue" points="349,-253.75 345.5,-243.75 342,-253.75 349,-253.75"/>
</g>
<!-- Node11 -->
<g id="node11" class="node">
<title>Node11</title>
<g id="a_node11"><a xlink:title=" ">
<polygon fill="white" stroke="#bfbfbf" points="388,-168.5 388,-187.5 473,-187.5 473,-168.5 388,-168.5"/>
<text text-anchor="middle" x="430.5" y="-175.5" font-family="Helvetica,sans-Serif" font-size="10.00">AH/STL/cmath</text>
</a>
</g>
</g>
<!-- Node1&#45;&gt;Node11 -->
<g id="edge16" class="edge">
<title>Node1&#45;&gt;Node11</title>
<path fill="none" stroke="midnightblue" d="M364.69,-280.44C379.53,-272.88 399.52,-260.49 411.5,-244 421.33,-230.48 426.1,-211.92 428.4,-198.1"/>
<polygon fill="midnightblue" stroke="midnightblue" points="431.92,-198.2 429.81,-187.81 424.98,-197.25 431.92,-198.2"/>
</g>
<!-- Node12 -->
<g id="node12" class="node">
<title>Node12</title>
<g id="a_node12"><a xlink:title=" ">
<polygon fill="white" stroke="#bfbfbf" points="458.5,-224.5 458.5,-243.5 540.5,-243.5 540.5,-224.5 458.5,-224.5"/>
<text text-anchor="middle" x="499.5" y="-231.5" font-family="Helvetica,sans-Serif" font-size="10.00">AH/STL/limits</text>
</a>
</g>
</g>
<!-- Node1&#45;&gt;Node12 -->
<g id="edge17" class="edge">
<title>Node1&#45;&gt;Node12</title>
<path fill="none" stroke="midnightblue" d="M369.9,-280.44C395.7,-271.4 436.58,-257.06 465.52,-246.92"/>
<polygon fill="midnightblue" stroke="midnightblue" points="466.93,-250.13 475.21,-243.52 464.62,-243.52 466.93,-250.13"/>
</g>
<!-- Node3 -->
<g id="node3" class="node">
<title>Node3</title>
<g id="a_node3"><a xlink:href="../../d7/d79/MinMaxFix_8hpp.html" target="_top" xlink:title=" ">
<polygon fill="white" stroke="black" points="239.5,-112.5 239.5,-131.5 375.5,-131.5 375.5,-112.5 239.5,-112.5"/>
<text text-anchor="middle" x="307.5" y="-119.5" font-family="Helvetica,sans-Serif" font-size="10.00">AH/Math/MinMaxFix.hpp</text>
</a>
</g>
</g>
<!-- Node2&#45;&gt;Node3 -->
<g id="edge2" class="edge">
<title>Node2&#45;&gt;Node3</title>
<path fill="none" stroke="midnightblue" d="M307.5,-168.08C307.5,-161.01 307.5,-150.86 307.5,-141.99"/>
<polygon fill="midnightblue" stroke="midnightblue" points="311,-141.75 307.5,-131.75 304,-141.75 311,-141.75"/>
</g>
<!-- Node6 -->
<g id="node6" class="node">
<title>Node6</title>
<g id="a_node6"><a xlink:title=" ">
<polygon fill="white" stroke="#bfbfbf" points="323,-0.5 323,-19.5 386,-19.5 386,-0.5 323,-0.5"/>
<text text-anchor="middle" x="354.5" y="-7.5" font-family="Helvetica,sans-Serif" font-size="10.00">Arduino.h</text>
</a>
</g>
</g>
<!-- Node2&#45;&gt;Node6 -->
<g id="edge9" class="edge">
<title>Node2&#45;&gt;Node6</title>
<path fill="none" stroke="midnightblue" d="M333.9,-168.43C351.13,-161.42 372.58,-149.73 384.5,-132 403.45,-103.81 404.17,-87.9 392.5,-56 388.44,-44.91 380.31,-34.67 372.61,-26.76"/>
<polygon fill="midnightblue" stroke="midnightblue" points="374.86,-24.07 365.21,-19.7 370.03,-29.14 374.86,-24.07"/>
</g>
<!-- Node8 -->
<g id="node8" class="node">
<title>Node8</title>
<g id="a_node8"><a xlink:title=" ">
<polygon fill="white" stroke="#bfbfbf" points="114,-112.5 114,-131.5 221,-131.5 221,-112.5 114,-112.5"/>
<text text-anchor="middle" x="167.5" y="-119.5" font-family="Helvetica,sans-Serif" font-size="10.00">AH/STL/type_traits</text>
</a>
</g>
</g>
<!-- Node2&#45;&gt;Node8 -->
<g id="edge8" class="edge">
<title>Node2&#45;&gt;Node8</title>
<path fill="none" stroke="midnightblue" d="M285.32,-168.44C262.07,-159.48 225.35,-145.31 199.08,-135.18"/>
<polygon fill="midnightblue" stroke="midnightblue" points="200.17,-131.85 189.58,-131.52 197.65,-138.38 200.17,-131.85"/>
</g>
<!-- Node4 -->
<g id="node4" class="node">
<title>Node4</title>
<g id="a_node4"><a xlink:href="../../d6/d3b/FixArduinoMacros_8hpp.html" target="_top" xlink:title=" ">
<polygon fill="white" stroke="black" points="213.5,-56.5 213.5,-75.5 383.5,-75.5 383.5,-56.5 213.5,-56.5"/>
<text text-anchor="middle" x="298.5" y="-63.5" font-family="Helvetica,sans-Serif" font-size="10.00">AH/Math/FixArduinoMacros.hpp</text>
</a>
</g>
</g>
<!-- Node3&#45;&gt;Node4 -->
<g id="edge3" class="edge">
<title>Node3&#45;&gt;Node4</title>
<path fill="none" stroke="midnightblue" d="M306.01,-112.08C304.82,-104.93 303.11,-94.64 301.62,-85.69"/>
<polygon fill="midnightblue" stroke="midnightblue" points="305.05,-85.04 299.96,-75.75 298.15,-86.19 305.05,-85.04"/>
</g>
<!-- Node7 -->
<g id="node7" class="node">
<title>Node7</title>
<g id="a_node7"><a xlink:href="../../dc/dc7/NamespaceSettings_8hpp.html" target="_top" xlink:title=" ">
<polygon fill="white" stroke="black" points="0,-56.5 0,-75.5 195,-75.5 195,-56.5 0,-56.5"/>
<text text-anchor="middle" x="97.5" y="-63.5" font-family="Helvetica,sans-Serif" font-size="10.00">AH/Settings/NamespaceSettings.hpp</text>
</a>
</g>
</g>
<!-- Node3&#45;&gt;Node7 -->
<g id="edge6" class="edge">
<title>Node3&#45;&gt;Node7</title>
<path fill="none" stroke="midnightblue" d="M274.22,-112.44C238.05,-103.14 180.12,-88.25 140.52,-78.06"/>
<polygon fill="midnightblue" stroke="midnightblue" points="141.18,-74.62 130.62,-75.52 139.43,-81.4 141.18,-74.62"/>
</g>
<!-- Node5 -->
<g id="node5" class="node">
<title>Node5</title>
<g id="a_node5"><a xlink:href="../../d1/d65/Warnings_8hpp.html" target="_top" xlink:title=" ">
<polygon fill="white" stroke="black" points="122,-0.5 122,-19.5 265,-19.5 265,-0.5 122,-0.5"/>
<text text-anchor="middle" x="193.5" y="-7.5" font-family="Helvetica,sans-Serif" font-size="10.00">AH/Settings/Warnings.hpp</text>
</a>
</g>
</g>
<!-- Node4&#45;&gt;Node5 -->
<g id="edge4" class="edge">
<title>Node4&#45;&gt;Node5</title>
<path fill="none" stroke="midnightblue" d="M281.63,-56.32C264.79,-47.66 238.69,-34.24 219.26,-24.25"/>
<polygon fill="midnightblue" stroke="midnightblue" points="220.82,-21.12 210.33,-19.65 217.62,-27.34 220.82,-21.12"/>
</g>
<!-- Node4&#45;&gt;Node6 -->
<g id="edge5" class="edge">
<title>Node4&#45;&gt;Node6</title>
<path fill="none" stroke="midnightblue" d="M307.5,-56.32C315.69,-48.42 328.01,-36.55 337.97,-26.94"/>
<polygon fill="midnightblue" stroke="midnightblue" points="340.57,-29.29 345.34,-19.83 335.71,-24.26 340.57,-29.29"/>
</g>
<!-- Node7&#45;&gt;Node5 -->
<g id="edge7" class="edge">
<title>Node7&#45;&gt;Node5</title>
<path fill="none" stroke="midnightblue" d="M112.92,-56.32C128.04,-47.82 151.32,-34.73 168.97,-24.8"/>
<polygon fill="midnightblue" stroke="midnightblue" points="171.11,-27.61 178.11,-19.65 167.68,-21.51 171.11,-27.61"/>
</g>
<!-- Node9&#45;&gt;Node7 -->
<g id="edge12" class="edge">
<title>Node9&#45;&gt;Node7</title>
<path fill="none" stroke="midnightblue" d="M146.69,-168.44C132.56,-160.96 114.07,-148.66 104.5,-132 96.46,-118 95.2,-99.5 95.66,-85.82"/>
<polygon fill="midnightblue" stroke="midnightblue" points="99.16,-85.88 96.34,-75.66 92.18,-85.41 99.16,-85.88"/>
</g>
<!-- Node9&#45;&gt;Node8 -->
<g id="edge11" class="edge">
<title>Node9&#45;&gt;Node8</title>
<path fill="none" stroke="midnightblue" d="M165.83,-168.08C166.09,-161.01 166.47,-150.86 166.8,-141.99"/>
<polygon fill="midnightblue" stroke="midnightblue" points="170.3,-141.87 167.18,-131.75 163.31,-141.61 170.3,-141.87"/>
</g>
<!-- Node10&#45;&gt;Node2 -->
<g id="edge14" class="edge">
<title>Node10&#45;&gt;Node2</title>
<path fill="none" stroke="midnightblue" d="M339.23,-224.08C333.86,-216.46 325.98,-205.26 319.42,-195.94"/>
<polygon fill="midnightblue" stroke="midnightblue" points="322.28,-193.91 313.66,-187.75 316.55,-197.94 322.28,-193.91"/>
</g>
<!-- Node10&#45;&gt;Node11 -->
<g id="edge15" class="edge">
<title>Node10&#45;&gt;Node11</title>
<path fill="none" stroke="midnightblue" d="M359.16,-224.32C372.42,-215.9 392.77,-202.97 408.35,-193.07"/>
<polygon fill="midnightblue" stroke="midnightblue" points="410.31,-195.97 416.88,-187.65 406.56,-190.06 410.31,-195.97"/>
</g>
</g>
</svg>
