<?xml version="1.0" encoding="UTF-8" standalone="no"?>
<!DOCTYPE svg PUBLIC "-//W3C//DTD SVG 1.1//EN"
 "http://www.w3.org/Graphics/SVG/1.1/DTD/svg11.dtd">
<!-- Generated by graphviz version 2.43.0 (0)
 -->
<!-- Title: ButtonMatrix.ipp Pages: 1 -->
<svg width="1121pt" height="789pt"
 viewBox="0.00 0.00 1120.50 789.00" xmlns="http://www.w3.org/2000/svg" xmlns:xlink="http://www.w3.org/1999/xlink">
<g id="graph0" class="graph" transform="scale(1 1) rotate(0) translate(4 785)">
<title>ButtonMatrix.ipp</title>
<polygon fill="white" stroke="transparent" points="-4,4 -4,-785 1116.5,-785 1116.5,4 -4,4"/>
<!-- Node1 -->
<g id="node1" class="node">
<title>Node1</title>
<g id="a_node1"><a xlink:title=" ">
<polygon fill="#bfbfbf" stroke="black" points="730,-761.5 730,-780.5 828,-780.5 828,-761.5 730,-761.5"/>
<text text-anchor="middle" x="779" y="-768.5" font-family="Helvetica,sans-Serif" font-size="10.00">ButtonMatrix.ipp</text>
</a>
</g>
</g>
<!-- Node2 -->
<g id="node2" class="node">
<title>Node2</title>
<g id="a_node2"><a xlink:href="../../d9/d4b/ButtonMatrix_8hpp.html" target="_top" xlink:title=" ">
<polygon fill="white" stroke="black" points="592.5,-700 592.5,-719 693.5,-719 693.5,-700 592.5,-700"/>
<text text-anchor="middle" x="643" y="-707" font-family="Helvetica,sans-Serif" font-size="10.00">ButtonMatrix.hpp</text>
</a>
</g>
</g>
<!-- Node1&#45;&gt;Node2 -->
<g id="edge1" class="edge">
<title>Node1&#45;&gt;Node2</title>
<path fill="none" stroke="midnightblue" d="M754.61,-761.48C729.61,-751.49 691.32,-734.85 666.61,-723.31"/>
<polygon fill="midnightblue" stroke="midnightblue" points="668.09,-720.13 657.55,-719.01 665.09,-726.46 668.09,-720.13"/>
</g>
<!-- Node24 -->
<g id="node24" class="node">
<title>Node24</title>
<g id="a_node24"><a xlink:href="../../d4/dba/CRTP_8hpp.html" target="_top" xlink:title=" ">
<polygon fill="white" stroke="black" points="712,-700 712,-719 846,-719 846,-700 712,-700"/>
<text text-anchor="middle" x="779" y="-707" font-family="Helvetica,sans-Serif" font-size="10.00">AH/Containers/CRTP.hpp</text>
</a>
</g>
</g>
<!-- Node1&#45;&gt;Node24 -->
<g id="edge35" class="edge">
<title>Node1&#45;&gt;Node24</title>
<path fill="none" stroke="midnightblue" d="M779,-761.48C779,-753.08 779,-739.98 779,-729.16"/>
<polygon fill="midnightblue" stroke="midnightblue" points="782.5,-729.01 779,-719.01 775.5,-729.01 782.5,-729.01"/>
</g>
<!-- Node25 -->
<g id="node25" class="node">
<title>Node25</title>
<g id="a_node25"><a xlink:href="../../dd/ddf/ExtendedInputOutput_8hpp.html" target="_top" xlink:title=" ">
<polygon fill="white" stroke="black" points="864.5,-694.5 864.5,-724.5 1041.5,-724.5 1041.5,-694.5 864.5,-694.5"/>
<text text-anchor="start" x="872.5" y="-712.5" font-family="Helvetica,sans-Serif" font-size="10.00">AH/Hardware/ExtendedInput</text>
<text text-anchor="middle" x="953" y="-701.5" font-family="Helvetica,sans-Serif" font-size="10.00">Output/ExtendedInputOutput.hpp</text>
</a>
</g>
</g>
<!-- Node1&#45;&gt;Node25 -->
<g id="edge36" class="edge">
<title>Node1&#45;&gt;Node25</title>
<path fill="none" stroke="midnightblue" d="M803.93,-761.48C829.48,-752.74 869.93,-738.91 902.25,-727.86"/>
<polygon fill="midnightblue" stroke="midnightblue" points="903.66,-731.07 911.99,-724.52 901.4,-724.45 903.66,-731.07"/>
</g>
<!-- Node31 -->
<g id="node31" class="node">
<title>Node31</title>
<g id="a_node31"><a xlink:title=" ">
<polygon fill="white" stroke="#bfbfbf" points="1059.5,-700 1059.5,-719 1112.5,-719 1112.5,-700 1059.5,-700"/>
<text text-anchor="middle" x="1086" y="-707" font-family="Helvetica,sans-Serif" font-size="10.00">string.h</text>
</a>
</g>
</g>
<!-- Node1&#45;&gt;Node31 -->
<g id="edge46" class="edge">
<title>Node1&#45;&gt;Node31</title>
<path fill="none" stroke="midnightblue" d="M828.14,-765.29C883.19,-759.23 974.72,-746.8 1051,-725 1053.29,-724.34 1055.64,-723.58 1057.98,-722.76"/>
<polygon fill="midnightblue" stroke="midnightblue" points="1059.32,-726 1067.39,-719.13 1056.8,-719.46 1059.32,-726"/>
</g>
<!-- Node2&#45;&gt;Node1 -->
<g id="edge34" class="edge">
<title>Node2&#45;&gt;Node1</title>
<path fill="none" stroke="midnightblue" d="M667.35,-719.01C692.33,-728.99 730.63,-745.63 755.35,-757.17"/>
<polygon fill="midnightblue" stroke="midnightblue" points="753.88,-760.35 764.42,-761.48 756.88,-754.03 753.88,-760.35"/>
</g>
<!-- Node3 -->
<g id="node3" class="node">
<title>Node3</title>
<g id="a_node3"><a xlink:href="../../d4/d35/Hardware-Types_8hpp.html" target="_top" xlink:title=" ">
<polygon fill="white" stroke="black" points="551.5,-560.5 551.5,-590.5 682.5,-590.5 682.5,-560.5 551.5,-560.5"/>
<text text-anchor="start" x="559.5" y="-578.5" font-family="Helvetica,sans-Serif" font-size="10.00">AH/Hardware/Hardware</text>
<text text-anchor="middle" x="617" y="-567.5" font-family="Helvetica,sans-Serif" font-size="10.00">&#45;Types.hpp</text>
</a>
</g>
</g>
<!-- Node2&#45;&gt;Node3 -->
<g id="edge2" class="edge">
<title>Node2&#45;&gt;Node3</title>
<path fill="none" stroke="midnightblue" d="M641.29,-699.84C637.39,-680.02 627.69,-630.77 621.79,-600.84"/>
<polygon fill="midnightblue" stroke="midnightblue" points="625.18,-599.92 619.81,-590.78 618.31,-601.27 625.18,-599.92"/>
</g>
<!-- Node4 -->
<g id="node4" class="node">
<title>Node4</title>
<g id="a_node4"><a xlink:href="../../de/d76/Array_8hpp.html" target="_top" xlink:title=" ">
<polygon fill="white" stroke="black" points="88.5,-504.5 88.5,-523.5 223.5,-523.5 223.5,-504.5 88.5,-504.5"/>
<text text-anchor="middle" x="156" y="-511.5" font-family="Helvetica,sans-Serif" font-size="10.00">AH/Containers/Array.hpp</text>
</a>
</g>
</g>
<!-- Node3&#45;&gt;Node4 -->
<g id="edge3" class="edge">
<title>Node3&#45;&gt;Node4</title>
<path fill="none" stroke="midnightblue" d="M551.44,-566.04C467.19,-555.16 321.19,-536.32 232.12,-524.82"/>
<polygon fill="midnightblue" stroke="midnightblue" points="232.45,-521.34 222.08,-523.53 231.55,-528.28 232.45,-521.34"/>
</g>
<!-- Node13 -->
<g id="node13" class="node">
<title>Node13</title>
<g id="a_node13"><a xlink:href="../../dc/dc7/NamespaceSettings_8hpp.html" target="_top" xlink:title=" ">
<polygon fill="white" stroke="black" points="495.5,-56.5 495.5,-75.5 690.5,-75.5 690.5,-56.5 495.5,-56.5"/>
<text text-anchor="middle" x="593" y="-63.5" font-family="Helvetica,sans-Serif" font-size="10.00">AH/Settings/NamespaceSettings.hpp</text>
</a>
</g>
</g>
<!-- Node3&#45;&gt;Node13 -->
<g id="edge32" class="edge">
<title>Node3&#45;&gt;Node13</title>
<path fill="none" stroke="midnightblue" d="M627.18,-560.34C641.27,-539.31 665,-498.09 665,-459 665,-459 665,-459 665,-345 665,-290.81 693.56,-276.46 680,-224 665.56,-168.16 626.53,-111 606.01,-83.62"/>
<polygon fill="midnightblue" stroke="midnightblue" points="608.67,-81.34 599.82,-75.52 603.11,-85.59 608.67,-81.34"/>
</g>
<!-- Node21 -->
<g id="node21" class="node">
<title>Node21</title>
<g id="a_node21"><a xlink:title=" ">
<polygon fill="white" stroke="#bfbfbf" points="617.5,-224.5 617.5,-243.5 670.5,-243.5 670.5,-224.5 617.5,-224.5"/>
<text text-anchor="middle" x="644" y="-231.5" font-family="Helvetica,sans-Serif" font-size="10.00">stdint.h</text>
</a>
</g>
</g>
<!-- Node3&#45;&gt;Node21 -->
<g id="edge33" class="edge">
<title>Node3&#45;&gt;Node21</title>
<path fill="none" stroke="midnightblue" d="M619.02,-560.31C621.95,-538.55 627,-495.63 627,-459 627,-459 627,-459 627,-345 627,-312.58 634.3,-275.42 639.33,-253.64"/>
<polygon fill="midnightblue" stroke="midnightblue" points="642.77,-254.31 641.71,-243.77 635.97,-252.67 642.77,-254.31"/>
</g>
<!-- Node5 -->
<g id="node5" class="node">
<title>Node5</title>
<g id="a_node5"><a xlink:href="../../d1/d93/Error_8hpp.html" target="_top" xlink:title=" ">
<polygon fill="white" stroke="black" points="258,-448.5 258,-467.5 362,-467.5 362,-448.5 258,-448.5"/>
<text text-anchor="middle" x="310" y="-455.5" font-family="Helvetica,sans-Serif" font-size="10.00">AH/Error/Error.hpp</text>
</a>
</g>
</g>
<!-- Node4&#45;&gt;Node5 -->
<g id="edge4" class="edge">
<title>Node4&#45;&gt;Node5</title>
<path fill="none" stroke="midnightblue" d="M180.4,-504.44C206.2,-495.4 247.08,-481.06 276.02,-470.92"/>
<polygon fill="midnightblue" stroke="midnightblue" points="277.43,-474.13 285.71,-467.52 275.12,-467.52 277.43,-474.13"/>
</g>
<!-- Node14 -->
<g id="node14" class="node">
<title>Node14</title>
<g id="a_node14"><a xlink:title=" ">
<polygon fill="white" stroke="#bfbfbf" points="47.5,-112.5 47.5,-131.5 154.5,-131.5 154.5,-112.5 47.5,-112.5"/>
<text text-anchor="middle" x="101" y="-119.5" font-family="Helvetica,sans-Serif" font-size="10.00">AH/STL/type_traits</text>
</a>
</g>
</g>
<!-- Node4&#45;&gt;Node14 -->
<g id="edge30" class="edge">
<title>Node4&#45;&gt;Node14</title>
<path fill="none" stroke="midnightblue" d="M103.7,-504.44C78.57,-498.03 49.53,-486.97 29,-468 5.76,-446.53 0,-434.63 0,-403 0,-403 0,-403 0,-233 0,-188.59 45.21,-154.37 75.14,-136.58"/>
<polygon fill="midnightblue" stroke="midnightblue" points="76.92,-139.59 83.87,-131.59 73.45,-133.51 76.92,-139.59"/>
</g>
<!-- Node20 -->
<g id="node20" class="node">
<title>Node20</title>
<g id="a_node20"><a xlink:title=" ">
<polygon fill="white" stroke="#bfbfbf" points="28,-224.5 28,-243.5 84,-243.5 84,-224.5 28,-224.5"/>
<text text-anchor="middle" x="56" y="-231.5" font-family="Helvetica,sans-Serif" font-size="10.00">stddef.h</text>
</a>
</g>
</g>
<!-- Node4&#45;&gt;Node20 -->
<g id="edge31" class="edge">
<title>Node4&#45;&gt;Node20</title>
<path fill="none" stroke="midnightblue" d="M156,-504.44C156,-485.94 156,-440.81 156,-403 156,-403 156,-403 156,-345 156,-300.98 111.62,-266.8 81.99,-248.87"/>
<polygon fill="midnightblue" stroke="midnightblue" points="83.37,-245.63 72.96,-243.64 79.86,-251.68 83.37,-245.63"/>
</g>
<!-- Node23 -->
<g id="node23" class="node">
<title>Node23</title>
<g id="a_node23"><a xlink:title=" ">
<polygon fill="white" stroke="#bfbfbf" points="38,-448.5 38,-467.5 128,-467.5 128,-448.5 38,-448.5"/>
<text text-anchor="middle" x="83" y="-455.5" font-family="Helvetica,sans-Serif" font-size="10.00">AH/STL/iterator</text>
</a>
</g>
</g>
<!-- Node4&#45;&gt;Node23 -->
<g id="edge29" class="edge">
<title>Node4&#45;&gt;Node23</title>
<path fill="none" stroke="midnightblue" d="M144.27,-504.32C133.16,-496.11 116.26,-483.6 103.02,-473.81"/>
<polygon fill="midnightblue" stroke="midnightblue" points="105.06,-470.97 94.94,-467.83 100.9,-476.59 105.06,-470.97"/>
</g>
<!-- Node6 -->
<g id="node6" class="node">
<title>Node6</title>
<g id="a_node6"><a xlink:href="../../df/dee/Debug_8hpp.html" target="_top" xlink:title=" ">
<polygon fill="white" stroke="black" points="322.5,-392.5 322.5,-411.5 443.5,-411.5 443.5,-392.5 322.5,-392.5"/>
<text text-anchor="middle" x="383" y="-399.5" font-family="Helvetica,sans-Serif" font-size="10.00">AH/Debug/Debug.hpp</text>
</a>
</g>
</g>
<!-- Node5&#45;&gt;Node6 -->
<g id="edge5" class="edge">
<title>Node5&#45;&gt;Node6</title>
<path fill="none" stroke="midnightblue" d="M321.73,-448.32C332.84,-440.11 349.74,-427.6 362.98,-417.81"/>
<polygon fill="midnightblue" stroke="midnightblue" points="365.1,-420.59 371.06,-411.83 360.94,-414.97 365.1,-420.59"/>
</g>
<!-- Node7 -->
<g id="node7" class="node">
<title>Node7</title>
<g id="a_node7"><a xlink:href="../../dd/d80/PrintStream_8hpp.html" target="_top" xlink:title=" ">
<polygon fill="white" stroke="black" points="387.5,-224.5 387.5,-243.5 560.5,-243.5 560.5,-224.5 387.5,-224.5"/>
<text text-anchor="middle" x="474" y="-231.5" font-family="Helvetica,sans-Serif" font-size="10.00">AH/PrintStream/PrintStream.hpp</text>
</a>
</g>
</g>
<!-- Node6&#45;&gt;Node7 -->
<g id="edge6" class="edge">
<title>Node6&#45;&gt;Node7</title>
<path fill="none" stroke="midnightblue" d="M426.07,-392.49C446.4,-386.07 468.82,-374.99 481,-356 501.17,-324.54 489.98,-278.48 481.24,-253.23"/>
<polygon fill="midnightblue" stroke="midnightblue" points="484.5,-251.95 477.74,-243.79 477.93,-254.38 484.5,-251.95"/>
</g>
<!-- Node15 -->
<g id="node15" class="node">
<title>Node15</title>
<g id="a_node15"><a xlink:href="../../d2/dd5/SettingsWrapper_8hpp.html" target="_top" xlink:title=" ">
<polygon fill="white" stroke="black" points="294,-336.5 294,-355.5 472,-355.5 472,-336.5 294,-336.5"/>
<text text-anchor="middle" x="383" y="-343.5" font-family="Helvetica,sans-Serif" font-size="10.00">AH/Settings/SettingsWrapper.hpp</text>
</a>
</g>
</g>
<!-- Node6&#45;&gt;Node15 -->
<g id="edge17" class="edge">
<title>Node6&#45;&gt;Node15</title>
<path fill="none" stroke="midnightblue" d="M377.83,-392.08C376.32,-384.93 375.89,-374.64 376.54,-365.69"/>
<polygon fill="midnightblue" stroke="midnightblue" points="380.02,-366.13 377.87,-355.75 373.08,-365.2 380.02,-366.13"/>
</g>
<!-- Node8 -->
<g id="node8" class="node">
<title>Node8</title>
<g id="a_node8"><a xlink:href="../../d6/ddf/Arduino-Wrapper_8h.html" target="_top" xlink:title=" ">
<polygon fill="white" stroke="black" points="220,-168.5 220,-187.5 344,-187.5 344,-168.5 220,-168.5"/>
<text text-anchor="middle" x="282" y="-175.5" font-family="Helvetica,sans-Serif" font-size="10.00">AH/Arduino&#45;Wrapper.h</text>
</a>
</g>
</g>
<!-- Node7&#45;&gt;Node8 -->
<g id="edge7" class="edge">
<title>Node7&#45;&gt;Node8</title>
<path fill="none" stroke="midnightblue" d="M443.58,-224.44C410.72,-215.2 358.22,-200.44 322.03,-190.26"/>
<polygon fill="midnightblue" stroke="midnightblue" points="322.85,-186.85 312.28,-187.52 320.96,-193.59 322.85,-186.85"/>
</g>
<!-- Node7&#45;&gt;Node13 -->
<g id="edge16" class="edge">
<title>Node7&#45;&gt;Node13</title>
<path fill="none" stroke="midnightblue" d="M480.61,-224.44C487.52,-215.44 498.66,-200.82 508,-188 534.71,-151.35 565.03,-107.66 581.26,-84.1"/>
<polygon fill="midnightblue" stroke="midnightblue" points="584.34,-85.8 587.12,-75.58 578.57,-81.84 584.34,-85.8"/>
</g>
<!-- Node9 -->
<g id="node9" class="node">
<title>Node9</title>
<g id="a_node9"><a xlink:href="../../d7/d79/MinMaxFix_8hpp.html" target="_top" xlink:title=" ">
<polygon fill="white" stroke="black" points="324,-112.5 324,-131.5 460,-131.5 460,-112.5 324,-112.5"/>
<text text-anchor="middle" x="392" y="-119.5" font-family="Helvetica,sans-Serif" font-size="10.00">AH/Math/MinMaxFix.hpp</text>
</a>
</g>
</g>
<!-- Node8&#45;&gt;Node9 -->
<g id="edge8" class="edge">
<title>Node8&#45;&gt;Node9</title>
<path fill="none" stroke="midnightblue" d="M299.67,-168.32C317.39,-159.62 344.9,-146.12 365.29,-136.11"/>
<polygon fill="midnightblue" stroke="midnightblue" points="366.94,-139.2 374.37,-131.65 363.85,-132.92 366.94,-139.2"/>
</g>
<!-- Node12 -->
<g id="node12" class="node">
<title>Node12</title>
<g id="a_node12"><a xlink:title=" ">
<polygon fill="white" stroke="#bfbfbf" points="303.5,-0.5 303.5,-19.5 366.5,-19.5 366.5,-0.5 303.5,-0.5"/>
<text text-anchor="middle" x="335" y="-7.5" font-family="Helvetica,sans-Serif" font-size="10.00">Arduino.h</text>
</a>
</g>
</g>
<!-- Node8&#45;&gt;Node12 -->
<g id="edge15" class="edge">
<title>Node8&#45;&gt;Node12</title>
<path fill="none" stroke="midnightblue" d="M281.56,-168.36C280.84,-147.9 280.95,-95.26 298,-56 302.71,-45.15 310.85,-34.81 318.29,-26.79"/>
<polygon fill="midnightblue" stroke="midnightblue" points="320.84,-29.2 325.35,-19.61 315.85,-24.29 320.84,-29.2"/>
</g>
<!-- Node8&#45;&gt;Node14 -->
<g id="edge14" class="edge">
<title>Node8&#45;&gt;Node14</title>
<path fill="none" stroke="midnightblue" d="M253.32,-168.44C222.47,-159.24 173.27,-144.56 139.17,-134.39"/>
<polygon fill="midnightblue" stroke="midnightblue" points="140.13,-131.02 129.55,-131.52 138.13,-137.73 140.13,-131.02"/>
</g>
<!-- Node10 -->
<g id="node10" class="node">
<title>Node10</title>
<g id="a_node10"><a xlink:href="../../d6/d3b/FixArduinoMacros_8hpp.html" target="_top" xlink:title=" ">
<polygon fill="white" stroke="black" points="307,-56.5 307,-75.5 477,-75.5 477,-56.5 307,-56.5"/>
<text text-anchor="middle" x="392" y="-63.5" font-family="Helvetica,sans-Serif" font-size="10.00">AH/Math/FixArduinoMacros.hpp</text>
</a>
</g>
</g>
<!-- Node9&#45;&gt;Node10 -->
<g id="edge9" class="edge">
<title>Node9&#45;&gt;Node10</title>
<path fill="none" stroke="midnightblue" d="M392,-112.08C392,-105.01 392,-94.86 392,-85.99"/>
<polygon fill="midnightblue" stroke="midnightblue" points="395.5,-85.75 392,-75.75 388.5,-85.75 395.5,-85.75"/>
</g>
<!-- Node9&#45;&gt;Node13 -->
<g id="edge12" class="edge">
<title>Node9&#45;&gt;Node13</title>
<path fill="none" stroke="midnightblue" d="M423.85,-112.44C458.4,-103.16 513.68,-88.31 551.58,-78.13"/>
<polygon fill="midnightblue" stroke="midnightblue" points="552.55,-81.49 561.3,-75.52 550.73,-74.73 552.55,-81.49"/>
</g>
<!-- Node11 -->
<g id="node11" class="node">
<title>Node11</title>
<g id="a_node11"><a xlink:href="../../d1/d65/Warnings_8hpp.html" target="_top" xlink:title=" ">
<polygon fill="white" stroke="black" points="452.5,-0.5 452.5,-19.5 595.5,-19.5 595.5,-0.5 452.5,-0.5"/>
<text text-anchor="middle" x="524" y="-7.5" font-family="Helvetica,sans-Serif" font-size="10.00">AH/Settings/Warnings.hpp</text>
</a>
</g>
</g>
<!-- Node10&#45;&gt;Node11 -->
<g id="edge10" class="edge">
<title>Node10&#45;&gt;Node11</title>
<path fill="none" stroke="midnightblue" d="M412.92,-56.44C434.74,-47.52 469.15,-33.44 493.89,-23.32"/>
<polygon fill="midnightblue" stroke="midnightblue" points="495.25,-26.54 503.18,-19.52 492.6,-20.06 495.25,-26.54"/>
</g>
<!-- Node10&#45;&gt;Node12 -->
<g id="edge11" class="edge">
<title>Node10&#45;&gt;Node12</title>
<path fill="none" stroke="midnightblue" d="M382.84,-56.32C374.5,-48.42 361.97,-36.55 351.82,-26.94"/>
<polygon fill="midnightblue" stroke="midnightblue" points="353.99,-24.17 344.32,-19.83 349.18,-29.25 353.99,-24.17"/>
</g>
<!-- Node13&#45;&gt;Node11 -->
<g id="edge13" class="edge">
<title>Node13&#45;&gt;Node11</title>
<path fill="none" stroke="midnightblue" d="M581.91,-56.32C571.51,-48.18 555.74,-35.84 543.28,-26.09"/>
<polygon fill="midnightblue" stroke="midnightblue" points="545.32,-23.24 535.29,-19.83 541.01,-28.75 545.32,-23.24"/>
</g>
<!-- Node15&#45;&gt;Node6 -->
<g id="edge28" class="edge">
<title>Node15&#45;&gt;Node6</title>
<path fill="none" stroke="midnightblue" d="M388.13,-355.75C389.66,-362.86 390.1,-373.14 389.47,-382.1"/>
<polygon fill="midnightblue" stroke="midnightblue" points="385.99,-381.71 388.17,-392.08 392.93,-382.62 385.99,-381.71"/>
</g>
<!-- Node15&#45;&gt;Node13 -->
<g id="edge18" class="edge">
<title>Node15&#45;&gt;Node13</title>
<path fill="none" stroke="midnightblue" d="M453.89,-336.49C513.48,-324.91 589,-297.84 589,-235 589,-235 589,-235 589,-177 589,-144.93 590.72,-107.63 591.9,-85.74"/>
<polygon fill="midnightblue" stroke="midnightblue" points="595.41,-85.73 592.48,-75.55 588.42,-85.34 595.41,-85.73"/>
</g>
<!-- Node16 -->
<g id="node16" class="node">
<title>Node16</title>
<g id="a_node16"><a xlink:href="../../db/d02/Settings_8hpp.html" target="_top" xlink:title="All user settings and debugging options can be changed here.">
<polygon fill="white" stroke="black" points="203.5,-280.5 203.5,-299.5 280.5,-299.5 280.5,-280.5 203.5,-280.5"/>
<text text-anchor="middle" x="242" y="-287.5" font-family="Helvetica,sans-Serif" font-size="10.00">Settings.hpp</text>
</a>
</g>
</g>
<!-- Node15&#45;&gt;Node16 -->
<g id="edge19" class="edge">
<title>Node15&#45;&gt;Node16</title>
<path fill="none" stroke="midnightblue" d="M360.66,-336.44C337.25,-327.48 300.26,-313.31 273.81,-303.18"/>
<polygon fill="midnightblue" stroke="midnightblue" points="274.83,-299.82 264.24,-299.52 272.32,-306.36 274.83,-299.82"/>
</g>
<!-- Node22 -->
<g id="node22" class="node">
<title>Node22</title>
<g id="a_node22"><a xlink:href="../../d9/d98/TeensyUSBTypes_8hpp.html" target="_top" xlink:title=" ">
<polygon fill="white" stroke="black" points="298.5,-280.5 298.5,-299.5 471.5,-299.5 471.5,-280.5 298.5,-280.5"/>
<text text-anchor="middle" x="385" y="-287.5" font-family="Helvetica,sans-Serif" font-size="10.00">AH/Teensy/TeensyUSBTypes.hpp</text>
</a>
</g>
</g>
<!-- Node15&#45;&gt;Node22 -->
<g id="edge27" class="edge">
<title>Node15&#45;&gt;Node22</title>
<path fill="none" stroke="midnightblue" d="M383.33,-336.08C383.59,-329.01 383.97,-318.86 384.3,-309.99"/>
<polygon fill="midnightblue" stroke="midnightblue" points="387.8,-309.87 384.68,-299.75 380.81,-309.61 387.8,-309.87"/>
</g>
<!-- Node17 -->
<g id="node17" class="node">
<title>Node17</title>
<g id="a_node17"><a xlink:href="../../dc/d50/Frequency_8hpp.html" target="_top" xlink:title=" ">
<polygon fill="white" stroke="black" points="365,-168.5 365,-187.5 499,-187.5 499,-168.5 365,-168.5"/>
<text text-anchor="middle" x="432" y="-175.5" font-family="Helvetica,sans-Serif" font-size="10.00">AH/Types/Frequency.hpp</text>
</a>
</g>
</g>
<!-- Node16&#45;&gt;Node17 -->
<g id="edge20" class="edge">
<title>Node16&#45;&gt;Node17</title>
<path fill="none" stroke="midnightblue" d="M263.59,-280.44C283.84,-272.1 314.69,-258.58 340,-244 366.5,-228.73 394.96,-207.85 413.09,-193.92"/>
<polygon fill="midnightblue" stroke="midnightblue" points="415.36,-196.6 421.11,-187.7 411.07,-191.07 415.36,-196.6"/>
</g>
<!-- Node18 -->
<g id="node18" class="node">
<title>Node18</title>
<g id="a_node18"><a xlink:href="../../d7/d7c/ADCConfig_8hpp.html" target="_top" xlink:title="This file contains the platform&#45;specific ADC resolutions.">
<polygon fill="white" stroke="black" points="173.5,-224.5 173.5,-243.5 330.5,-243.5 330.5,-224.5 173.5,-224.5"/>
<text text-anchor="middle" x="252" y="-231.5" font-family="Helvetica,sans-Serif" font-size="10.00">AH/Hardware/ADCConfig.hpp</text>
</a>
</g>
</g>
<!-- Node16&#45;&gt;Node18 -->
<g id="edge22" class="edge">
<title>Node16&#45;&gt;Node18</title>
<path fill="none" stroke="midnightblue" d="M243.65,-280.08C244.98,-272.93 246.88,-262.64 248.54,-253.69"/>
<polygon fill="midnightblue" stroke="midnightblue" points="252,-254.22 250.38,-243.75 245.12,-252.95 252,-254.22"/>
</g>
<!-- Node19 -->
<g id="node19" class="node">
<title>Node19</title>
<g id="a_node19"><a xlink:title=" ">
<polygon fill="white" stroke="#bfbfbf" points="102.5,-224.5 102.5,-243.5 155.5,-243.5 155.5,-224.5 102.5,-224.5"/>
<text text-anchor="middle" x="129" y="-231.5" font-family="Helvetica,sans-Serif" font-size="10.00">limits.h</text>
</a>
</g>
</g>
<!-- Node16&#45;&gt;Node19 -->
<g id="edge24" class="edge">
<title>Node16&#45;&gt;Node19</title>
<path fill="none" stroke="midnightblue" d="M224.09,-280.44C205.75,-271.68 176.99,-257.94 155.91,-247.86"/>
<polygon fill="midnightblue" stroke="midnightblue" points="157.35,-244.67 146.82,-243.52 154.33,-250.99 157.35,-244.67"/>
</g>
<!-- Node16&#45;&gt;Node20 -->
<g id="edge25" class="edge">
<title>Node16&#45;&gt;Node20</title>
<path fill="none" stroke="midnightblue" d="M212.53,-280.44C180.46,-271.13 129.08,-256.22 93.99,-246.03"/>
<polygon fill="midnightblue" stroke="midnightblue" points="94.7,-242.59 84.12,-243.16 92.74,-249.31 94.7,-242.59"/>
</g>
<!-- Node16&#45;&gt;Node21 -->
<g id="edge26" class="edge">
<title>Node16&#45;&gt;Node21</title>
<path fill="none" stroke="midnightblue" d="M280.74,-281.53C283.87,-280.99 286.98,-280.47 290,-280 320.89,-275.15 523.18,-249.97 607.35,-239.53"/>
<polygon fill="midnightblue" stroke="midnightblue" points="607.99,-242.98 617.48,-238.28 607.12,-236.04 607.99,-242.98"/>
</g>
<!-- Node17&#45;&gt;Node13 -->
<g id="edge21" class="edge">
<title>Node17&#45;&gt;Node13</title>
<path fill="none" stroke="midnightblue" d="M444.63,-168.37C472.26,-149.49 538.28,-104.38 572.16,-81.24"/>
<polygon fill="midnightblue" stroke="midnightblue" points="574.14,-84.12 580.43,-75.59 570.19,-78.34 574.14,-84.12"/>
</g>
<!-- Node18&#45;&gt;Node8 -->
<g id="edge23" class="edge">
<title>Node18&#45;&gt;Node8</title>
<path fill="none" stroke="midnightblue" d="M256.95,-224.08C261.1,-216.61 267.15,-205.72 272.27,-196.52"/>
<polygon fill="midnightblue" stroke="midnightblue" points="275.34,-198.19 277.14,-187.75 269.22,-194.79 275.34,-198.19"/>
</g>
<!-- Node25&#45;&gt;Node13 -->
<g id="edge45" class="edge">
<title>Node25&#45;&gt;Node13</title>
<path fill="none" stroke="midnightblue" d="M958.87,-694.13C968.11,-670.17 985,-620.36 985,-576.5 985,-576.5 985,-576.5 985,-177 985,-117.72 816.71,-88.9 700.66,-76.07"/>
<polygon fill="midnightblue" stroke="midnightblue" points="700.97,-72.58 690.65,-74.99 700.22,-79.54 700.97,-72.58"/>
</g>
<!-- Node26 -->
<g id="node26" class="node">
<title>Node26</title>
<g id="a_node26"><a xlink:href="../../d2/d3c/Arduino-Hardware-Types_8hpp.html" target="_top" xlink:title=" ">
<polygon fill="white" stroke="black" points="710,-627.5 710,-657.5 832,-657.5 832,-627.5 710,-627.5"/>
<text text-anchor="start" x="718" y="-645.5" font-family="Helvetica,sans-Serif" font-size="10.00">AH/Hardware/Arduino</text>
<text text-anchor="middle" x="771" y="-634.5" font-family="Helvetica,sans-Serif" font-size="10.00">&#45;Hardware&#45;Types.hpp</text>
</a>
</g>
</g>
<!-- Node25&#45;&gt;Node26 -->
<g id="edge37" class="edge">
<title>Node25&#45;&gt;Node26</title>
<path fill="none" stroke="midnightblue" d="M913.51,-694.4C886.08,-684.6 849.35,-671.48 820.04,-661.02"/>
<polygon fill="midnightblue" stroke="midnightblue" points="821.01,-657.64 810.41,-657.58 818.65,-664.24 821.01,-657.64"/>
</g>
<!-- Node30 -->
<g id="node30" class="node">
<title>Node30</title>
<g id="a_node30"><a xlink:title=" ">
<polygon fill="white" stroke="#bfbfbf" points="1013.5,-633 1013.5,-652 1100.5,-652 1100.5,-633 1013.5,-633"/>
<text text-anchor="middle" x="1057" y="-640" font-family="Helvetica,sans-Serif" font-size="10.00">AH/STL/climits</text>
</a>
</g>
</g>
<!-- Node25&#45;&gt;Node30 -->
<g id="edge44" class="edge">
<title>Node25&#45;&gt;Node30</title>
<path fill="none" stroke="midnightblue" d="M975.57,-694.4C993.01,-683.5 1017.03,-668.48 1034.47,-657.58"/>
<polygon fill="midnightblue" stroke="midnightblue" points="1036.76,-660.28 1043.39,-652.01 1033.05,-654.34 1036.76,-660.28"/>
</g>
<!-- Node26&#45;&gt;Node3 -->
<g id="edge38" class="edge">
<title>Node26&#45;&gt;Node3</title>
<path fill="none" stroke="midnightblue" d="M737.58,-627.4C714.78,-617.77 684.37,-604.94 659.8,-594.56"/>
<polygon fill="midnightblue" stroke="midnightblue" points="660.92,-591.24 650.35,-590.58 658.2,-597.69 660.92,-591.24"/>
</g>
<!-- Node26&#45;&gt;Node8 -->
<g id="edge43" class="edge">
<title>Node26&#45;&gt;Node8</title>
<path fill="none" stroke="midnightblue" d="M760.25,-627.13C753.37,-617.36 744.7,-603.91 739,-591 714.45,-535.37 703,-519.81 703,-459 703,-459 703,-459 703,-345 703,-290.26 720.17,-261.19 680,-224 626.84,-174.79 427.96,-196.37 356,-188 355.4,-187.93 354.79,-187.86 354.18,-187.79"/>
<polygon fill="midnightblue" stroke="midnightblue" points="354.51,-184.3 344.17,-186.61 353.69,-191.25 354.51,-184.3"/>
</g>
<!-- Node27 -->
<g id="node27" class="node">
<title>Node27</title>
<g id="a_node27"><a xlink:href="../../d0/db1/FunctionTraits_8hpp.html" target="_top" xlink:title=" ">
<polygon fill="white" stroke="black" points="747.5,-566 747.5,-585 900.5,-585 900.5,-566 747.5,-566"/>
<text text-anchor="middle" x="824" y="-573" font-family="Helvetica,sans-Serif" font-size="10.00">AH/Types/FunctionTraits.hpp</text>
</a>
</g>
</g>
<!-- Node26&#45;&gt;Node27 -->
<g id="edge39" class="edge">
<title>Node26&#45;&gt;Node27</title>
<path fill="none" stroke="midnightblue" d="M782.5,-627.4C790.68,-617.36 801.71,-603.84 810.34,-593.25"/>
<polygon fill="midnightblue" stroke="midnightblue" points="813.3,-595.16 816.91,-585.19 807.88,-590.73 813.3,-595.16"/>
</g>
<!-- Node27&#45;&gt;Node13 -->
<g id="edge42" class="edge">
<title>Node27&#45;&gt;Node13</title>
<path fill="none" stroke="midnightblue" d="M825.9,-565.86C829.94,-546.71 839,-499.24 839,-459 839,-459 839,-459 839,-177 839,-112.14 766.86,-85.27 700.71,-74.27"/>
<polygon fill="midnightblue" stroke="midnightblue" points="701,-70.77 690.58,-72.69 699.92,-77.69 701,-70.77"/>
</g>
<!-- Node28 -->
<g id="node28" class="node">
<title>Node28</title>
<g id="a_node28"><a xlink:title=" ">
<polygon fill="white" stroke="#bfbfbf" points="867,-504.5 867,-523.5 957,-523.5 957,-504.5 867,-504.5"/>
<text text-anchor="middle" x="912" y="-511.5" font-family="Helvetica,sans-Serif" font-size="10.00">AH/STL/cstddef</text>
</a>
</g>
</g>
<!-- Node27&#45;&gt;Node28 -->
<g id="edge40" class="edge">
<title>Node27&#45;&gt;Node28</title>
<path fill="none" stroke="midnightblue" d="M836.61,-565.98C850.72,-556.43 873.83,-540.81 890.75,-529.37"/>
<polygon fill="midnightblue" stroke="midnightblue" points="893.09,-532.01 899.42,-523.51 889.17,-526.21 893.09,-532.01"/>
</g>
<!-- Node29 -->
<g id="node29" class="node">
<title>Node29</title>
<g id="a_node29"><a xlink:title=" ">
<polygon fill="white" stroke="#bfbfbf" points="731.5,-504.5 731.5,-523.5 810.5,-523.5 810.5,-504.5 731.5,-504.5"/>
<text text-anchor="middle" x="771" y="-511.5" font-family="Helvetica,sans-Serif" font-size="10.00">AH/STL/tuple</text>
</a>
</g>
</g>
<!-- Node27&#45;&gt;Node29 -->
<g id="edge41" class="edge">
<title>Node27&#45;&gt;Node29</title>
<path fill="none" stroke="midnightblue" d="M816.41,-565.98C808.3,-556.87 795.27,-542.24 785.24,-530.98"/>
<polygon fill="midnightblue" stroke="midnightblue" points="787.84,-528.65 778.58,-523.51 782.62,-533.3 787.84,-528.65"/>
</g>
</g>
</svg>
