<?xml version="1.0" encoding="UTF-8" standalone="no"?>
<!DOCTYPE svg PUBLIC "-//W3C//DTD SVG 1.1//EN"
 "http://www.w3.org/Graphics/SVG/1.1/DTD/svg11.dtd">
<!-- Generated by graphviz version 2.43.0 (0)
 -->
<!-- Title: PrintStream.cpp Pages: 1 -->
<svg width="409pt" height="308pt"
 viewBox="0.00 0.00 409.10 308.00" xmlns="http://www.w3.org/2000/svg" xmlns:xlink="http://www.w3.org/1999/xlink">
<g id="graph0" class="graph" transform="scale(1 1) rotate(0) translate(4 304)">
<title>PrintStream.cpp</title>
<polygon fill="white" stroke="transparent" points="-4,4 -4,-304 405.1,-304 405.1,4 -4,4"/>
<!-- Node1 -->
<g id="node1" class="node">
<title>Node1</title>
<g id="a_node1"><a xlink:title=" ">
<polygon fill="#bfbfbf" stroke="black" points="140.1,-280.5 140.1,-299.5 235.1,-299.5 235.1,-280.5 140.1,-280.5"/>
<text text-anchor="middle" x="187.6" y="-287.5" font-family="Helvetica,sans-Serif" font-size="10.00">PrintStream.cpp</text>
</a>
</g>
</g>
<!-- Node2 -->
<g id="node2" class="node">
<title>Node2</title>
<g id="a_node2"><a xlink:href="../../dd/d80/PrintStream_8hpp.html" target="_top" xlink:title=" ">
<polygon fill="white" stroke="black" points="140.1,-224.5 140.1,-243.5 235.1,-243.5 235.1,-224.5 140.1,-224.5"/>
<text text-anchor="middle" x="187.6" y="-231.5" font-family="Helvetica,sans-Serif" font-size="10.00">PrintStream.hpp</text>
</a>
</g>
</g>
<!-- Node1&#45;&gt;Node2 -->
<g id="edge1" class="edge">
<title>Node1&#45;&gt;Node2</title>
<path fill="none" stroke="midnightblue" d="M187.6,-280.08C187.6,-273.01 187.6,-262.86 187.6,-253.99"/>
<polygon fill="midnightblue" stroke="midnightblue" points="191.1,-253.75 187.6,-243.75 184.1,-253.75 191.1,-253.75"/>
</g>
<!-- Node3 -->
<g id="node3" class="node">
<title>Node3</title>
<g id="a_node3"><a xlink:href="../../d6/ddf/Arduino-Wrapper_8h.html" target="_top" xlink:title=" ">
<polygon fill="white" stroke="black" points="77.6,-168.5 77.6,-187.5 201.6,-187.5 201.6,-168.5 77.6,-168.5"/>
<text text-anchor="middle" x="139.6" y="-175.5" font-family="Helvetica,sans-Serif" font-size="10.00">AH/Arduino&#45;Wrapper.h</text>
</a>
</g>
</g>
<!-- Node2&#45;&gt;Node3 -->
<g id="edge2" class="edge">
<title>Node2&#45;&gt;Node3</title>
<path fill="none" stroke="midnightblue" d="M179.67,-224.08C172.75,-216.3 162.53,-204.8 154.15,-195.37"/>
<polygon fill="midnightblue" stroke="midnightblue" points="156.64,-192.9 147.38,-187.75 151.41,-197.55 156.64,-192.9"/>
</g>
<!-- Node8 -->
<g id="node8" class="node">
<title>Node8</title>
<g id="a_node8"><a xlink:href="../../dc/dc7/NamespaceSettings_8hpp.html" target="_top" xlink:title=" ">
<polygon fill="white" stroke="black" points="206.1,-56.5 206.1,-75.5 401.1,-75.5 401.1,-56.5 206.1,-56.5"/>
<text text-anchor="middle" x="303.6" y="-63.5" font-family="Helvetica,sans-Serif" font-size="10.00">AH/Settings/NamespaceSettings.hpp</text>
</a>
</g>
</g>
<!-- Node2&#45;&gt;Node8 -->
<g id="edge11" class="edge">
<title>Node2&#45;&gt;Node8</title>
<path fill="none" stroke="midnightblue" d="M199.36,-224.41C220.21,-208.56 263.6,-172.59 286.6,-132 294.78,-117.57 299.12,-99.12 301.36,-85.56"/>
<polygon fill="midnightblue" stroke="midnightblue" points="304.84,-85.92 302.78,-75.52 297.91,-84.93 304.84,-85.92"/>
</g>
<!-- Node4 -->
<g id="node4" class="node">
<title>Node4</title>
<g id="a_node4"><a xlink:href="../../d7/d79/MinMaxFix_8hpp.html" target="_top" xlink:title=" ">
<polygon fill="white" stroke="black" points="141.6,-112.5 141.6,-131.5 277.6,-131.5 277.6,-112.5 141.6,-112.5"/>
<text text-anchor="middle" x="209.6" y="-119.5" font-family="Helvetica,sans-Serif" font-size="10.00">AH/Math/MinMaxFix.hpp</text>
</a>
</g>
</g>
<!-- Node3&#45;&gt;Node4 -->
<g id="edge3" class="edge">
<title>Node3&#45;&gt;Node4</title>
<path fill="none" stroke="midnightblue" d="M150.85,-168.32C161.4,-160.18 177.4,-147.84 190.04,-138.09"/>
<polygon fill="midnightblue" stroke="midnightblue" points="192.37,-140.71 198.15,-131.83 188.09,-135.17 192.37,-140.71"/>
</g>
<!-- Node7 -->
<g id="node7" class="node">
<title>Node7</title>
<g id="a_node7"><a xlink:title=" ">
<polygon fill="white" stroke="#bfbfbf" points="12.1,-0.5 12.1,-19.5 75.1,-19.5 75.1,-0.5 12.1,-0.5"/>
<text text-anchor="middle" x="43.6" y="-7.5" font-family="Helvetica,sans-Serif" font-size="10.00">Arduino.h</text>
</a>
</g>
</g>
<!-- Node3&#45;&gt;Node7 -->
<g id="edge10" class="edge">
<title>Node3&#45;&gt;Node7</title>
<path fill="none" stroke="midnightblue" d="M77.53,-171.74C51.19,-166.07 22.87,-154.68 6.6,-132 0.65,-123.7 -5.09,-93.7 8.6,-56 12.51,-45.23 20.04,-35 27.12,-27.02"/>
<polygon fill="midnightblue" stroke="midnightblue" points="29.82,-29.26 34.16,-19.59 24.74,-24.44 29.82,-29.26"/>
</g>
<!-- Node9 -->
<g id="node9" class="node">
<title>Node9</title>
<g id="a_node9"><a xlink:title=" ">
<polygon fill="white" stroke="#bfbfbf" points="16.1,-112.5 16.1,-131.5 123.1,-131.5 123.1,-112.5 16.1,-112.5"/>
<text text-anchor="middle" x="69.6" y="-119.5" font-family="Helvetica,sans-Serif" font-size="10.00">AH/STL/type_traits</text>
</a>
</g>
</g>
<!-- Node3&#45;&gt;Node9 -->
<g id="edge9" class="edge">
<title>Node3&#45;&gt;Node9</title>
<path fill="none" stroke="midnightblue" d="M128.35,-168.32C117.8,-160.18 101.8,-147.84 89.16,-138.09"/>
<polygon fill="midnightblue" stroke="midnightblue" points="91.11,-135.17 81.05,-131.83 86.83,-140.71 91.11,-135.17"/>
</g>
<!-- Node5 -->
<g id="node5" class="node">
<title>Node5</title>
<g id="a_node5"><a xlink:href="../../d6/d3b/FixArduinoMacros_8hpp.html" target="_top" xlink:title=" ">
<polygon fill="white" stroke="black" points="17.6,-56.5 17.6,-75.5 187.6,-75.5 187.6,-56.5 17.6,-56.5"/>
<text text-anchor="middle" x="102.6" y="-63.5" font-family="Helvetica,sans-Serif" font-size="10.00">AH/Math/FixArduinoMacros.hpp</text>
</a>
</g>
</g>
<!-- Node4&#45;&gt;Node5 -->
<g id="edge4" class="edge">
<title>Node4&#45;&gt;Node5</title>
<path fill="none" stroke="midnightblue" d="M192.41,-112.32C175.25,-103.66 148.65,-90.24 128.85,-80.25"/>
<polygon fill="midnightblue" stroke="midnightblue" points="130.25,-77.04 119.75,-75.65 127.1,-83.28 130.25,-77.04"/>
</g>
<!-- Node4&#45;&gt;Node8 -->
<g id="edge7" class="edge">
<title>Node4&#45;&gt;Node8</title>
<path fill="none" stroke="midnightblue" d="M224.7,-112.32C239.5,-103.82 262.29,-90.73 279.58,-80.8"/>
<polygon fill="midnightblue" stroke="midnightblue" points="281.61,-83.67 288.53,-75.65 278.12,-77.6 281.61,-83.67"/>
</g>
<!-- Node6 -->
<g id="node6" class="node">
<title>Node6</title>
<g id="a_node6"><a xlink:href="../../d1/d65/Warnings_8hpp.html" target="_top" xlink:title=" ">
<polygon fill="white" stroke="black" points="161.1,-0.5 161.1,-19.5 304.1,-19.5 304.1,-0.5 161.1,-0.5"/>
<text text-anchor="middle" x="232.6" y="-7.5" font-family="Helvetica,sans-Serif" font-size="10.00">AH/Settings/Warnings.hpp</text>
</a>
</g>
</g>
<!-- Node5&#45;&gt;Node6 -->
<g id="edge5" class="edge">
<title>Node5&#45;&gt;Node6</title>
<path fill="none" stroke="midnightblue" d="M123.2,-56.44C144.59,-47.56 178.28,-33.56 202.62,-23.45"/>
<polygon fill="midnightblue" stroke="midnightblue" points="204.2,-26.58 212.1,-19.52 201.52,-20.12 204.2,-26.58"/>
</g>
<!-- Node5&#45;&gt;Node7 -->
<g id="edge6" class="edge">
<title>Node5&#45;&gt;Node7</title>
<path fill="none" stroke="midnightblue" d="M93.12,-56.32C84.4,-48.34 71.26,-36.31 60.7,-26.65"/>
<polygon fill="midnightblue" stroke="midnightblue" points="62.99,-24 53.25,-19.83 58.27,-29.17 62.99,-24"/>
</g>
<!-- Node8&#45;&gt;Node6 -->
<g id="edge8" class="edge">
<title>Node8&#45;&gt;Node6</title>
<path fill="none" stroke="midnightblue" d="M292.19,-56.32C281.49,-48.18 265.26,-35.84 252.44,-26.09"/>
<polygon fill="midnightblue" stroke="midnightblue" points="254.29,-23.1 244.21,-19.83 250.06,-28.67 254.29,-23.1"/>
</g>
</g>
</svg>
