<?xml version="1.0" encoding="UTF-8" standalone="no"?>
<!DOCTYPE svg PUBLIC "-//W3C//DTD SVG 1.1//EN"
 "http://www.w3.org/Graphics/SVG/1.1/DTD/svg11.dtd">
<!-- Generated by graphviz version 2.43.0 (0)
 -->
<!-- Title: IncrementDecrementButtons.hpp Pages: 1 -->
<svg width="1370pt" height="845pt"
 viewBox="0.00 0.00 1370.14 845.00" xmlns="http://www.w3.org/2000/svg" xmlns:xlink="http://www.w3.org/1999/xlink">
<g id="graph0" class="graph" transform="scale(1 1) rotate(0) translate(4 841)">
<title>IncrementDecrementButtons.hpp</title>
<polygon fill="white" stroke="transparent" points="-4,4 -4,-841 1366.14,-841 1366.14,4 -4,4"/>
<!-- Node1 -->
<g id="node1" class="node">
<title>Node1</title>
<g id="a_node1"><a xlink:title=" ">
<polygon fill="#bfbfbf" stroke="black" points="5.5,-817.5 5.5,-836.5 184.5,-836.5 184.5,-817.5 5.5,-817.5"/>
<text text-anchor="middle" x="95" y="-824.5" font-family="Helvetica,sans-Serif" font-size="10.00">IncrementDecrementButtons.hpp</text>
</a>
</g>
</g>
<!-- Node2 -->
<g id="node2" class="node">
<title>Node2</title>
<g id="a_node2"><a xlink:href="../../d1/d65/Warnings_8hpp.html" target="_top" xlink:title=" ">
<polygon fill="white" stroke="black" points="454.5,-0.5 454.5,-19.5 597.5,-19.5 597.5,-0.5 454.5,-0.5"/>
<text text-anchor="middle" x="526" y="-7.5" font-family="Helvetica,sans-Serif" font-size="10.00">AH/Settings/Warnings.hpp</text>
</a>
</g>
</g>
<!-- Node1&#45;&gt;Node2 -->
<g id="edge1" class="edge">
<title>Node1&#45;&gt;Node2</title>
<path fill="none" stroke="midnightblue" d="M80.16,-817.3C53.44,-800.39 0,-760.35 0,-710.5 0,-710.5 0,-710.5 0,-121 0,-82.28 23.46,-73.5 58,-56 123.55,-22.78 328.43,-14.03 444.2,-11.76"/>
<polygon fill="midnightblue" stroke="midnightblue" points="444.5,-15.26 454.43,-11.57 444.37,-8.26 444.5,-15.26"/>
</g>
<!-- Node3 -->
<g id="node3" class="node">
<title>Node3</title>
<g id="a_node3"><a xlink:href="../../d4/db3/Button_8hpp.html" target="_top" xlink:title=" ">
<polygon fill="white" stroke="black" points="547,-761.5 547,-780.5 617,-780.5 617,-761.5 547,-761.5"/>
<text text-anchor="middle" x="582" y="-768.5" font-family="Helvetica,sans-Serif" font-size="10.00">Button.hpp</text>
</a>
</g>
</g>
<!-- Node1&#45;&gt;Node3 -->
<g id="edge2" class="edge">
<title>Node1&#45;&gt;Node3</title>
<path fill="none" stroke="midnightblue" d="M171.9,-817.47C274.59,-806.09 453.22,-786.28 536.64,-777.03"/>
<polygon fill="midnightblue" stroke="midnightblue" points="537.26,-780.48 546.81,-775.9 536.49,-773.53 537.26,-780.48"/>
</g>
<!-- Node3&#45;&gt;Node2 -->
<g id="edge3" class="edge">
<title>Node3&#45;&gt;Node2</title>
<path fill="none" stroke="midnightblue" d="M617.24,-768.06C769.23,-759.23 1361,-719.93 1361,-643.5 1361,-643.5 1361,-643.5 1361,-121 1361,-90.9 1365.58,-74.71 1342,-56 1313.56,-33.44 808.92,-18.19 607.77,-12.98"/>
<polygon fill="midnightblue" stroke="midnightblue" points="607.64,-9.47 597.56,-12.72 607.46,-16.47 607.64,-9.47"/>
</g>
<!-- Node4 -->
<g id="node4" class="node">
<title>Node4</title>
<g id="a_node4"><a xlink:href="../../dd/ddf/ExtendedInputOutput_8hpp.html" target="_top" xlink:title=" ">
<polygon fill="white" stroke="black" points="885.5,-694.5 885.5,-724.5 1062.5,-724.5 1062.5,-694.5 885.5,-694.5"/>
<text text-anchor="start" x="893.5" y="-712.5" font-family="Helvetica,sans-Serif" font-size="10.00">AH/Hardware/ExtendedInput</text>
<text text-anchor="middle" x="974" y="-701.5" font-family="Helvetica,sans-Serif" font-size="10.00">Output/ExtendedInputOutput.hpp</text>
</a>
</g>
</g>
<!-- Node3&#45;&gt;Node4 -->
<g id="edge4" class="edge">
<title>Node3&#45;&gt;Node4</title>
<path fill="none" stroke="midnightblue" d="M617.13,-764.67C674.65,-755.94 790.92,-738.29 875.15,-725.5"/>
<polygon fill="midnightblue" stroke="midnightblue" points="875.9,-728.93 885.26,-723.97 874.85,-722.01 875.9,-728.93"/>
</g>
<!-- Node17 -->
<g id="node17" class="node">
<title>Node17</title>
<g id="a_node17"><a xlink:href="../../d2/dd5/SettingsWrapper_8hpp.html" target="_top" xlink:title=" ">
<polygon fill="white" stroke="black" points="336,-336.5 336,-355.5 514,-355.5 514,-336.5 336,-336.5"/>
<text text-anchor="middle" x="425" y="-343.5" font-family="Helvetica,sans-Serif" font-size="10.00">AH/Settings/SettingsWrapper.hpp</text>
</a>
</g>
</g>
<!-- Node3&#45;&gt;Node17 -->
<g id="edge58" class="edge">
<title>Node3&#45;&gt;Node17</title>
<path fill="none" stroke="midnightblue" d="M546.87,-766.29C450.65,-755.17 190,-718.14 190,-643.5 190,-643.5 190,-643.5 190,-457 190,-393.4 261.49,-366.49 325.61,-355.15"/>
<polygon fill="midnightblue" stroke="midnightblue" points="326.53,-358.55 335.82,-353.46 325.38,-351.64 326.53,-358.55"/>
</g>
<!-- Node4&#45;&gt;Node2 -->
<g id="edge57" class="edge">
<title>Node4&#45;&gt;Node2</title>
<path fill="none" stroke="midnightblue" d="M975.39,-694.21C977.5,-677.33 982.55,-648.8 994,-627 1003.95,-608.05 1012.67,-607.75 1026,-591 1051.8,-558.58 1080,-556.44 1080,-515 1080,-515 1080,-515 1080,-177 1080,-122.56 1100.85,-93.09 1061,-56 1028.59,-25.84 749.6,-15.66 607.89,-12.42"/>
<polygon fill="midnightblue" stroke="midnightblue" points="607.59,-8.91 597.52,-12.19 607.44,-15.91 607.59,-8.91"/>
</g>
<!-- Node5 -->
<g id="node5" class="node">
<title>Node5</title>
<g id="a_node5"><a xlink:href="../../d2/d3c/Arduino-Hardware-Types_8hpp.html" target="_top" xlink:title=" ">
<polygon fill="white" stroke="black" points="824,-627.5 824,-657.5 946,-657.5 946,-627.5 824,-627.5"/>
<text text-anchor="start" x="832" y="-645.5" font-family="Helvetica,sans-Serif" font-size="10.00">AH/Hardware/Arduino</text>
<text text-anchor="middle" x="885" y="-634.5" font-family="Helvetica,sans-Serif" font-size="10.00">&#45;Hardware&#45;Types.hpp</text>
</a>
</g>
</g>
<!-- Node4&#45;&gt;Node5 -->
<g id="edge5" class="edge">
<title>Node4&#45;&gt;Node5</title>
<path fill="none" stroke="midnightblue" d="M954.69,-694.4C942.33,-685.37 926.1,-673.51 912.41,-663.52"/>
<polygon fill="midnightblue" stroke="midnightblue" points="914.41,-660.65 904.27,-657.58 910.29,-666.3 914.41,-660.65"/>
</g>
<!-- Node11 -->
<g id="node11" class="node">
<title>Node11</title>
<g id="a_node11"><a xlink:href="../../dc/dc7/NamespaceSettings_8hpp.html" target="_top" xlink:title=" ">
<polygon fill="white" stroke="black" points="856.5,-56.5 856.5,-75.5 1051.5,-75.5 1051.5,-56.5 856.5,-56.5"/>
<text text-anchor="middle" x="954" y="-63.5" font-family="Helvetica,sans-Serif" font-size="10.00">AH/Settings/NamespaceSettings.hpp</text>
</a>
</g>
</g>
<!-- Node4&#45;&gt;Node11 -->
<g id="edge56" class="edge">
<title>Node4&#45;&gt;Node11</title>
<path fill="none" stroke="midnightblue" d="M1041.03,-694.45C1062.27,-686.91 1084.08,-675.43 1099,-658 1123.19,-629.74 1118,-613.69 1118,-576.5 1118,-576.5 1118,-576.5 1118,-289 1118,-194.19 1020.02,-113.31 975.53,-81.48"/>
<polygon fill="midnightblue" stroke="midnightblue" points="977.34,-78.47 967.14,-75.61 973.33,-84.21 977.34,-78.47"/>
</g>
<!-- Node30 -->
<g id="node30" class="node">
<title>Node30</title>
<g id="a_node30"><a xlink:title=" ">
<polygon fill="white" stroke="#bfbfbf" points="1002.5,-633 1002.5,-652 1089.5,-652 1089.5,-633 1002.5,-633"/>
<text text-anchor="middle" x="1046" y="-640" font-family="Helvetica,sans-Serif" font-size="10.00">AH/STL/climits</text>
</a>
</g>
</g>
<!-- Node4&#45;&gt;Node30 -->
<g id="edge55" class="edge">
<title>Node4&#45;&gt;Node30</title>
<path fill="none" stroke="midnightblue" d="M989.62,-694.4C1001.18,-683.96 1016.92,-669.75 1028.83,-659"/>
<polygon fill="midnightblue" stroke="midnightblue" points="1031.29,-661.49 1036.37,-652.19 1026.6,-656.3 1031.29,-661.49"/>
</g>
<!-- Node5&#45;&gt;Node2 -->
<g id="edge6" class="edge">
<title>Node5&#45;&gt;Node2</title>
<path fill="none" stroke="midnightblue" d="M823.75,-641.37C629.19,-639.32 38,-619.86 38,-459 38,-459 38,-459 38,-121 38,-80.77 64.83,-73.62 101,-56 159.64,-27.44 338.22,-16.88 444.31,-13.07"/>
<polygon fill="midnightblue" stroke="midnightblue" points="444.48,-16.57 454.35,-12.72 444.23,-9.57 444.48,-16.57"/>
</g>
<!-- Node6 -->
<g id="node6" class="node">
<title>Node6</title>
<g id="a_node6"><a xlink:href="../../d4/d35/Hardware-Types_8hpp.html" target="_top" xlink:title=" ">
<polygon fill="white" stroke="black" points="606.5,-560.5 606.5,-590.5 737.5,-590.5 737.5,-560.5 606.5,-560.5"/>
<text text-anchor="start" x="614.5" y="-578.5" font-family="Helvetica,sans-Serif" font-size="10.00">AH/Hardware/Hardware</text>
<text text-anchor="middle" x="672" y="-567.5" font-family="Helvetica,sans-Serif" font-size="10.00">&#45;Types.hpp</text>
</a>
</g>
</g>
<!-- Node5&#45;&gt;Node6 -->
<g id="edge7" class="edge">
<title>Node5&#45;&gt;Node6</title>
<path fill="none" stroke="midnightblue" d="M839.04,-627.48C806.54,-617.56 762.77,-604.2 728.19,-593.65"/>
<polygon fill="midnightblue" stroke="midnightblue" points="728.83,-590.18 718.24,-590.61 726.78,-596.88 728.83,-590.18"/>
</g>
<!-- Node12 -->
<g id="node12" class="node">
<title>Node12</title>
<g id="a_node12"><a xlink:href="../../d6/ddf/Arduino-Wrapper_8h.html" target="_top" xlink:title=" ">
<polygon fill="white" stroke="black" points="814,-168.5 814,-187.5 938,-187.5 938,-168.5 814,-168.5"/>
<text text-anchor="middle" x="876" y="-175.5" font-family="Helvetica,sans-Serif" font-size="10.00">AH/Arduino&#45;Wrapper.h</text>
</a>
</g>
</g>
<!-- Node5&#45;&gt;Node12 -->
<g id="edge54" class="edge">
<title>Node5&#45;&gt;Node12</title>
<path fill="none" stroke="midnightblue" d="M893.29,-627.24C905.79,-604.36 928,-557.68 928,-515 928,-515 928,-515 928,-289 928,-258.9 922.32,-250.99 909,-224 904.02,-213.92 896.78,-203.73 890.34,-195.61"/>
<polygon fill="midnightblue" stroke="midnightblue" points="892.89,-193.19 883.83,-187.7 887.49,-197.64 892.89,-193.19"/>
</g>
<!-- Node27 -->
<g id="node27" class="node">
<title>Node27</title>
<g id="a_node27"><a xlink:href="../../d0/db1/FunctionTraits_8hpp.html" target="_top" xlink:title=" ">
<polygon fill="white" stroke="black" points="1108.5,-112.5 1108.5,-131.5 1261.5,-131.5 1261.5,-112.5 1108.5,-112.5"/>
<text text-anchor="middle" x="1185" y="-119.5" font-family="Helvetica,sans-Serif" font-size="10.00">AH/Types/FunctionTraits.hpp</text>
</a>
</g>
</g>
<!-- Node5&#45;&gt;Node27 -->
<g id="edge49" class="edge">
<title>Node5&#45;&gt;Node27</title>
<path fill="none" stroke="midnightblue" d="M928.73,-627.46C975.19,-609.48 1042,-573.46 1042,-515 1042,-515 1042,-515 1042,-401 1042,-290.31 1132.76,-179.54 1169.67,-139.08"/>
<polygon fill="midnightblue" stroke="midnightblue" points="1172.24,-141.45 1176.48,-131.74 1167.11,-136.68 1172.24,-141.45"/>
</g>
<!-- Node6&#45;&gt;Node2 -->
<g id="edge8" class="edge">
<title>Node6&#45;&gt;Node2</title>
<path fill="none" stroke="midnightblue" d="M606.23,-575.45C451.23,-575.93 76,-566.04 76,-459 76,-459 76,-459 76,-121 76,-76.21 111.94,-73.88 153,-56 203.63,-33.96 350.48,-21.39 444.1,-15.4"/>
<polygon fill="midnightblue" stroke="midnightblue" points="444.35,-18.89 454.12,-14.77 443.92,-11.91 444.35,-18.89"/>
</g>
<!-- Node7 -->
<g id="node7" class="node">
<title>Node7</title>
<g id="a_node7"><a xlink:href="../../de/d76/Array_8hpp.html" target="_top" xlink:title=" ">
<polygon fill="white" stroke="black" points="604.5,-504.5 604.5,-523.5 739.5,-523.5 739.5,-504.5 604.5,-504.5"/>
<text text-anchor="middle" x="672" y="-511.5" font-family="Helvetica,sans-Serif" font-size="10.00">AH/Containers/Array.hpp</text>
</a>
</g>
</g>
<!-- Node6&#45;&gt;Node7 -->
<g id="edge9" class="edge">
<title>Node6&#45;&gt;Node7</title>
<path fill="none" stroke="midnightblue" d="M672,-560.4C672,-552.47 672,-542.46 672,-533.86"/>
<polygon fill="midnightblue" stroke="midnightblue" points="675.5,-533.66 672,-523.66 668.5,-533.66 675.5,-533.66"/>
</g>
<!-- Node10 -->
<g id="node10" class="node">
<title>Node10</title>
<g id="a_node10"><a xlink:href="../../dd/d80/PrintStream_8hpp.html" target="_top" xlink:title=" ">
<polygon fill="white" stroke="black" points="726.5,-224.5 726.5,-243.5 899.5,-243.5 899.5,-224.5 726.5,-224.5"/>
<text text-anchor="middle" x="813" y="-231.5" font-family="Helvetica,sans-Serif" font-size="10.00">AH/PrintStream/PrintStream.hpp</text>
</a>
</g>
</g>
<!-- Node6&#45;&gt;Node10 -->
<g id="edge45" class="edge">
<title>Node6&#45;&gt;Node10</title>
<path fill="none" stroke="midnightblue" d="M737.75,-560.52C789.17,-545.28 852,-515.16 852,-459 852,-459 852,-459 852,-345 852,-310.72 834.96,-273.7 823.41,-252.54"/>
<polygon fill="midnightblue" stroke="midnightblue" points="826.4,-250.72 818.42,-243.75 820.31,-254.17 826.4,-250.72"/>
</g>
<!-- Node6&#45;&gt;Node11 -->
<g id="edge47" class="edge">
<title>Node6&#45;&gt;Node11</title>
<path fill="none" stroke="midnightblue" d="M737.58,-564.64C770.48,-557.36 809.67,-544.93 840,-524 944.23,-452.08 1004,-417.64 1004,-291 1004,-291 1004,-291 1004,-177 1004,-141.18 981.76,-104.21 966.95,-83.56"/>
<polygon fill="midnightblue" stroke="midnightblue" points="969.73,-81.45 960.95,-75.52 964.12,-85.63 969.73,-81.45"/>
</g>
<!-- Node23 -->
<g id="node23" class="node">
<title>Node23</title>
<g id="a_node23"><a xlink:title=" ">
<polygon fill="white" stroke="#bfbfbf" points="142.5,-224.5 142.5,-243.5 195.5,-243.5 195.5,-224.5 142.5,-224.5"/>
<text text-anchor="middle" x="169" y="-231.5" font-family="Helvetica,sans-Serif" font-size="10.00">stdint.h</text>
</a>
</g>
</g>
<!-- Node6&#45;&gt;Node23 -->
<g id="edge48" class="edge">
<title>Node6&#45;&gt;Node23</title>
<path fill="none" stroke="midnightblue" d="M606.41,-573.56C466.61,-569.79 152,-551.07 152,-459 152,-459 152,-459 152,-345 152,-312.58 159.3,-275.42 164.33,-253.64"/>
<polygon fill="midnightblue" stroke="midnightblue" points="167.77,-254.31 166.71,-243.77 160.97,-252.67 167.77,-254.31"/>
</g>
<!-- Node26 -->
<g id="node26" class="node">
<title>Node26</title>
<g id="a_node26"><a xlink:title=" ">
<polygon fill="white" stroke="#bfbfbf" points="504,-504.5 504,-523.5 586,-523.5 586,-504.5 504,-504.5"/>
<text text-anchor="middle" x="545" y="-511.5" font-family="Helvetica,sans-Serif" font-size="10.00">AH/STL/limits</text>
</a>
</g>
</g>
<!-- Node6&#45;&gt;Node26 -->
<g id="edge46" class="edge">
<title>Node6&#45;&gt;Node26</title>
<path fill="none" stroke="midnightblue" d="M641.9,-560.4C620.88,-550.55 593.03,-537.5 572.58,-527.92"/>
<polygon fill="midnightblue" stroke="midnightblue" points="574.02,-524.73 563.48,-523.66 571.05,-531.07 574.02,-524.73"/>
</g>
<!-- Node7&#45;&gt;Node2 -->
<g id="edge10" class="edge">
<title>Node7&#45;&gt;Node2</title>
<path fill="none" stroke="midnightblue" d="M626.81,-504.45C493.97,-478.7 114,-400.38 114,-347 114,-347 114,-347 114,-121 114,-53.38 323.79,-26.25 443.96,-16.26"/>
<polygon fill="midnightblue" stroke="midnightblue" points="444.55,-19.72 454.24,-15.43 443.99,-12.75 444.55,-19.72"/>
</g>
<!-- Node8 -->
<g id="node8" class="node">
<title>Node8</title>
<g id="a_node8"><a xlink:href="../../d1/d93/Error_8hpp.html" target="_top" xlink:title=" ">
<polygon fill="white" stroke="black" points="678,-448.5 678,-467.5 782,-467.5 782,-448.5 678,-448.5"/>
<text text-anchor="middle" x="730" y="-455.5" font-family="Helvetica,sans-Serif" font-size="10.00">AH/Error/Error.hpp</text>
</a>
</g>
</g>
<!-- Node7&#45;&gt;Node8 -->
<g id="edge11" class="edge">
<title>Node7&#45;&gt;Node8</title>
<path fill="none" stroke="midnightblue" d="M681.32,-504.32C689.89,-496.34 702.81,-484.31 713.19,-474.65"/>
<polygon fill="midnightblue" stroke="midnightblue" points="715.58,-477.21 720.51,-467.83 710.81,-472.09 715.58,-477.21"/>
</g>
<!-- Node16 -->
<g id="node16" class="node">
<title>Node16</title>
<g id="a_node16"><a xlink:title=" ">
<polygon fill="white" stroke="#bfbfbf" points="864.5,-112.5 864.5,-131.5 971.5,-131.5 971.5,-112.5 864.5,-112.5"/>
<text text-anchor="middle" x="918" y="-119.5" font-family="Helvetica,sans-Serif" font-size="10.00">AH/STL/type_traits</text>
</a>
</g>
</g>
<!-- Node7&#45;&gt;Node16 -->
<g id="edge43" class="edge">
<title>Node7&#45;&gt;Node16</title>
<path fill="none" stroke="midnightblue" d="M706.88,-504.46C784.76,-483.1 966,-419.56 966,-291 966,-291 966,-291 966,-233 966,-197.58 944.84,-160.71 930.62,-139.92"/>
<polygon fill="midnightblue" stroke="midnightblue" points="933.32,-137.68 924.67,-131.56 927.62,-141.74 933.32,-137.68"/>
</g>
<!-- Node22 -->
<g id="node22" class="node">
<title>Node22</title>
<g id="a_node22"><a xlink:title=" ">
<polygon fill="white" stroke="#bfbfbf" points="538,-224.5 538,-243.5 594,-243.5 594,-224.5 538,-224.5"/>
<text text-anchor="middle" x="566" y="-231.5" font-family="Helvetica,sans-Serif" font-size="10.00">stddef.h</text>
</a>
</g>
</g>
<!-- Node7&#45;&gt;Node22 -->
<g id="edge44" class="edge">
<title>Node7&#45;&gt;Node22</title>
<path fill="none" stroke="midnightblue" d="M626.86,-504.47C604.23,-498.01 578.08,-486.9 561,-468 540.82,-445.67 542,-433.1 542,-403 542,-403 542,-403 542,-345 542,-312.06 552.4,-274.82 559.51,-253.21"/>
<polygon fill="midnightblue" stroke="midnightblue" points="562.84,-254.29 562.76,-243.7 556.22,-252.03 562.84,-254.29"/>
</g>
<!-- Node25 -->
<g id="node25" class="node">
<title>Node25</title>
<g id="a_node25"><a xlink:title=" ">
<polygon fill="white" stroke="#bfbfbf" points="570,-448.5 570,-467.5 660,-467.5 660,-448.5 570,-448.5"/>
<text text-anchor="middle" x="615" y="-455.5" font-family="Helvetica,sans-Serif" font-size="10.00">AH/STL/iterator</text>
</a>
</g>
</g>
<!-- Node7&#45;&gt;Node25 -->
<g id="edge42" class="edge">
<title>Node7&#45;&gt;Node25</title>
<path fill="none" stroke="midnightblue" d="M662.84,-504.32C654.5,-496.42 641.97,-484.55 631.82,-474.94"/>
<polygon fill="midnightblue" stroke="midnightblue" points="633.99,-472.17 624.32,-467.83 629.18,-477.25 633.99,-472.17"/>
</g>
<!-- Node8&#45;&gt;Node2 -->
<g id="edge12" class="edge">
<title>Node8&#45;&gt;Node2</title>
<path fill="none" stroke="midnightblue" d="M726.11,-448.49C701.59,-394.89 568.49,-103.89 534.11,-28.73"/>
<polygon fill="midnightblue" stroke="midnightblue" points="537.28,-27.24 529.93,-19.6 530.91,-30.15 537.28,-27.24"/>
</g>
<!-- Node9 -->
<g id="node9" class="node">
<title>Node9</title>
<g id="a_node9"><a xlink:href="../../df/dee/Debug_8hpp.html" target="_top" xlink:title=" ">
<polygon fill="white" stroke="black" points="570.5,-392.5 570.5,-411.5 691.5,-411.5 691.5,-392.5 570.5,-392.5"/>
<text text-anchor="middle" x="631" y="-399.5" font-family="Helvetica,sans-Serif" font-size="10.00">AH/Debug/Debug.hpp</text>
</a>
</g>
</g>
<!-- Node8&#45;&gt;Node9 -->
<g id="edge13" class="edge">
<title>Node8&#45;&gt;Node9</title>
<path fill="none" stroke="midnightblue" d="M714.09,-448.32C698.36,-439.74 674.06,-426.49 655.79,-416.52"/>
<polygon fill="midnightblue" stroke="midnightblue" points="657.32,-413.37 646.87,-411.65 653.97,-419.52 657.32,-413.37"/>
</g>
<!-- Node9&#45;&gt;Node2 -->
<g id="edge14" class="edge">
<title>Node9&#45;&gt;Node2</title>
<path fill="none" stroke="midnightblue" d="M631.9,-392.43C634.31,-365.33 638.51,-279.95 603,-224 587.74,-199.96 564.99,-212.21 550,-188 518.76,-137.55 520.81,-63.62 523.84,-29.5"/>
<polygon fill="midnightblue" stroke="midnightblue" points="527.32,-29.85 524.86,-19.55 520.36,-29.14 527.32,-29.85"/>
</g>
<!-- Node9&#45;&gt;Node10 -->
<g id="edge15" class="edge">
<title>Node9&#45;&gt;Node10</title>
<path fill="none" stroke="midnightblue" d="M640.79,-392.08C670.3,-365.15 758.71,-284.51 796.06,-250.45"/>
<polygon fill="midnightblue" stroke="midnightblue" points="798.58,-252.89 803.61,-243.57 793.86,-247.72 798.58,-252.89"/>
</g>
<!-- Node9&#45;&gt;Node17 -->
<g id="edge27" class="edge">
<title>Node9&#45;&gt;Node17</title>
<path fill="none" stroke="midnightblue" d="M593.27,-392.44C555.98,-383.2 499.48,-368.44 462.34,-358.26"/>
<polygon fill="midnightblue" stroke="midnightblue" points="462.98,-354.8 452.41,-355.52 461.12,-361.55 462.98,-354.8"/>
</g>
<!-- Node10&#45;&gt;Node2 -->
<g id="edge17" class="edge">
<title>Node10&#45;&gt;Node2</title>
<path fill="none" stroke="midnightblue" d="M786.15,-224.41C746.07,-210.47 670.07,-179.59 621,-132 593.14,-104.98 602.59,-86.03 578,-56 568.78,-44.74 556.55,-34 546.27,-25.84"/>
<polygon fill="midnightblue" stroke="midnightblue" points="548.26,-22.96 538.2,-19.64 544,-28.51 548.26,-22.96"/>
</g>
<!-- Node10&#45;&gt;Node11 -->
<g id="edge16" class="edge">
<title>Node10&#45;&gt;Node11</title>
<path fill="none" stroke="midnightblue" d="M809.35,-224.26C804.57,-211.47 797.61,-187.09 805,-168 823.18,-121.05 877.48,-93.19 915.25,-78.99"/>
<polygon fill="midnightblue" stroke="midnightblue" points="916.71,-82.18 924.94,-75.51 914.35,-75.6 916.71,-82.18"/>
</g>
<!-- Node10&#45;&gt;Node12 -->
<g id="edge18" class="edge">
<title>Node10&#45;&gt;Node12</title>
<path fill="none" stroke="midnightblue" d="M823.12,-224.32C832.53,-216.26 846.74,-204.08 858.07,-194.37"/>
<polygon fill="midnightblue" stroke="midnightblue" points="860.38,-197 865.69,-187.83 855.82,-191.68 860.38,-197"/>
</g>
<!-- Node13 -->
<g id="node13" class="node">
<title>Node13</title>
<g id="a_node13"><a xlink:href="../../d7/d79/MinMaxFix_8hpp.html" target="_top" xlink:title=" ">
<polygon fill="white" stroke="black" points="630,-112.5 630,-131.5 766,-131.5 766,-112.5 630,-112.5"/>
<text text-anchor="middle" x="698" y="-119.5" font-family="Helvetica,sans-Serif" font-size="10.00">AH/Math/MinMaxFix.hpp</text>
</a>
</g>
</g>
<!-- Node12&#45;&gt;Node13 -->
<g id="edge19" class="edge">
<title>Node12&#45;&gt;Node13</title>
<path fill="none" stroke="midnightblue" d="M847.8,-168.44C817.59,-159.28 769.49,-144.69 735.97,-134.52"/>
<polygon fill="midnightblue" stroke="midnightblue" points="736.66,-131.07 726.07,-131.52 734.63,-137.77 736.66,-131.07"/>
</g>
<!-- Node15 -->
<g id="node15" class="node">
<title>Node15</title>
<g id="a_node15"><a xlink:title=" ">
<polygon fill="white" stroke="#bfbfbf" points="1044.5,-0.5 1044.5,-19.5 1107.5,-19.5 1107.5,-0.5 1044.5,-0.5"/>
<text text-anchor="middle" x="1076" y="-7.5" font-family="Helvetica,sans-Serif" font-size="10.00">Arduino.h</text>
</a>
</g>
</g>
<!-- Node12&#45;&gt;Node15 -->
<g id="edge26" class="edge">
<title>Node12&#45;&gt;Node15</title>
<path fill="none" stroke="midnightblue" d="M938.23,-174.06C1033.92,-168.85 1212.29,-156.18 1271,-132 1308.16,-116.7 1324.47,-112.16 1342,-76 1345.88,-68 1347.74,-62.79 1342,-56 1313.81,-22.64 1185.49,-14 1117.91,-11.77"/>
<polygon fill="midnightblue" stroke="midnightblue" points="1117.71,-8.26 1107.62,-11.47 1117.51,-15.26 1117.71,-8.26"/>
</g>
<!-- Node12&#45;&gt;Node16 -->
<g id="edge25" class="edge">
<title>Node12&#45;&gt;Node16</title>
<path fill="none" stroke="midnightblue" d="M882.94,-168.08C888.93,-160.38 897.75,-149.03 905.05,-139.65"/>
<polygon fill="midnightblue" stroke="midnightblue" points="907.82,-141.79 911.19,-131.75 902.29,-137.5 907.82,-141.79"/>
</g>
<!-- Node13&#45;&gt;Node2 -->
<g id="edge20" class="edge">
<title>Node13&#45;&gt;Node2</title>
<path fill="none" stroke="midnightblue" d="M688.4,-112.3C673.57,-99.12 643.89,-73.76 616,-56 596.6,-43.65 573.36,-32.1 555.35,-23.8"/>
<polygon fill="midnightblue" stroke="midnightblue" points="556.5,-20.48 545.95,-19.54 553.61,-26.85 556.5,-20.48"/>
</g>
<!-- Node13&#45;&gt;Node11 -->
<g id="edge24" class="edge">
<title>Node13&#45;&gt;Node11</title>
<path fill="none" stroke="midnightblue" d="M738.56,-112.44C783.32,-103 855.38,-87.8 903.7,-77.61"/>
<polygon fill="midnightblue" stroke="midnightblue" points="904.56,-81.01 913.63,-75.52 903.12,-74.16 904.56,-81.01"/>
</g>
<!-- Node14 -->
<g id="node14" class="node">
<title>Node14</title>
<g id="a_node14"><a xlink:href="../../d6/d3b/FixArduinoMacros_8hpp.html" target="_top" xlink:title=" ">
<polygon fill="white" stroke="black" points="668,-56.5 668,-75.5 838,-75.5 838,-56.5 668,-56.5"/>
<text text-anchor="middle" x="753" y="-63.5" font-family="Helvetica,sans-Serif" font-size="10.00">AH/Math/FixArduinoMacros.hpp</text>
</a>
</g>
</g>
<!-- Node13&#45;&gt;Node14 -->
<g id="edge21" class="edge">
<title>Node13&#45;&gt;Node14</title>
<path fill="none" stroke="midnightblue" d="M707.08,-112.08C715.17,-104.14 727.2,-92.34 736.91,-82.8"/>
<polygon fill="midnightblue" stroke="midnightblue" points="739.4,-85.25 744.09,-75.75 734.5,-80.26 739.4,-85.25"/>
</g>
<!-- Node14&#45;&gt;Node2 -->
<g id="edge22" class="edge">
<title>Node14&#45;&gt;Node2</title>
<path fill="none" stroke="midnightblue" d="M717.03,-56.44C677.68,-47.08 614.51,-32.06 571.69,-21.87"/>
<polygon fill="midnightblue" stroke="midnightblue" points="572.34,-18.43 561.8,-19.52 570.72,-25.24 572.34,-18.43"/>
</g>
<!-- Node14&#45;&gt;Node15 -->
<g id="edge23" class="edge">
<title>Node14&#45;&gt;Node15</title>
<path fill="none" stroke="midnightblue" d="M804.18,-56.44C867.78,-45.81 975.1,-27.87 1034.07,-18.01"/>
<polygon fill="midnightblue" stroke="midnightblue" points="1034.87,-21.43 1044.15,-16.32 1033.71,-14.52 1034.87,-21.43"/>
</g>
<!-- Node17&#45;&gt;Node2 -->
<g id="edge28" class="edge">
<title>Node17&#45;&gt;Node2</title>
<path fill="none" stroke="midnightblue" d="M419.04,-336.49C408.91,-322.63 386.96,-295.21 362,-280 314.82,-251.24 281.89,-283.25 243,-244 221.82,-222.62 224,-209.1 224,-179 224,-179 224,-179 224,-121 224,-71.03 371.81,-37.14 460.62,-21.29"/>
<polygon fill="midnightblue" stroke="midnightblue" points="461.36,-24.71 470.61,-19.54 460.15,-17.82 461.36,-24.71"/>
</g>
<!-- Node17&#45;&gt;Node9 -->
<g id="edge41" class="edge">
<title>Node17&#45;&gt;Node9</title>
<path fill="none" stroke="midnightblue" d="M462.57,-355.52C499.8,-364.74 556.3,-379.51 593.5,-389.7"/>
<polygon fill="midnightblue" stroke="midnightblue" points="592.88,-393.16 603.45,-392.44 594.74,-386.41 592.88,-393.16"/>
</g>
<!-- Node17&#45;&gt;Node11 -->
<g id="edge29" class="edge">
<title>Node17&#45;&gt;Node11</title>
<path fill="none" stroke="midnightblue" d="M440.29,-336.45C471.15,-319.16 543.06,-278.74 603,-244 702.65,-186.25 721.61,-160.67 826,-112 854.93,-98.51 889.1,-86.69 914.85,-78.56"/>
<polygon fill="midnightblue" stroke="midnightblue" points="916.12,-81.83 924.63,-75.52 914.04,-75.14 916.12,-81.83"/>
</g>
<!-- Node18 -->
<g id="node18" class="node">
<title>Node18</title>
<g id="a_node18"><a xlink:href="../../db/d02/Settings_8hpp.html" target="_top" xlink:title="All user settings and debugging options can be changed here.">
<polygon fill="white" stroke="black" points="410.5,-280.5 410.5,-299.5 487.5,-299.5 487.5,-280.5 410.5,-280.5"/>
<text text-anchor="middle" x="449" y="-287.5" font-family="Helvetica,sans-Serif" font-size="10.00">Settings.hpp</text>
</a>
</g>
</g>
<!-- Node17&#45;&gt;Node18 -->
<g id="edge30" class="edge">
<title>Node17&#45;&gt;Node18</title>
<path fill="none" stroke="midnightblue" d="M428.96,-336.08C432.21,-328.77 436.92,-318.18 440.95,-309.1"/>
<polygon fill="midnightblue" stroke="midnightblue" points="444.25,-310.31 445.11,-299.75 437.85,-307.47 444.25,-310.31"/>
</g>
<!-- Node24 -->
<g id="node24" class="node">
<title>Node24</title>
<g id="a_node24"><a xlink:href="../../d9/d98/TeensyUSBTypes_8hpp.html" target="_top" xlink:title=" ">
<polygon fill="white" stroke="black" points="180.5,-280.5 180.5,-299.5 353.5,-299.5 353.5,-280.5 180.5,-280.5"/>
<text text-anchor="middle" x="267" y="-287.5" font-family="Helvetica,sans-Serif" font-size="10.00">AH/Teensy/TeensyUSBTypes.hpp</text>
</a>
</g>
</g>
<!-- Node17&#45;&gt;Node24 -->
<g id="edge40" class="edge">
<title>Node17&#45;&gt;Node24</title>
<path fill="none" stroke="midnightblue" d="M399.96,-336.44C373.38,-327.36 331.19,-312.94 301.48,-302.78"/>
<polygon fill="midnightblue" stroke="midnightblue" points="302.51,-299.44 291.92,-299.52 300.25,-306.06 302.51,-299.44"/>
</g>
<!-- Node19 -->
<g id="node19" class="node">
<title>Node19</title>
<g id="a_node19"><a xlink:href="../../dc/d50/Frequency_8hpp.html" target="_top" xlink:title=" ">
<polygon fill="white" stroke="black" points="364,-112.5 364,-131.5 498,-131.5 498,-112.5 364,-112.5"/>
<text text-anchor="middle" x="431" y="-119.5" font-family="Helvetica,sans-Serif" font-size="10.00">AH/Types/Frequency.hpp</text>
</a>
</g>
</g>
<!-- Node18&#45;&gt;Node19 -->
<g id="edge31" class="edge">
<title>Node18&#45;&gt;Node19</title>
<path fill="none" stroke="midnightblue" d="M410.48,-281.41C389.64,-275.13 365.64,-263.88 353,-244 328.59,-205.6 378.33,-160.63 409.11,-137.85"/>
<polygon fill="midnightblue" stroke="midnightblue" points="411.5,-140.45 417.59,-131.78 407.42,-134.76 411.5,-140.45"/>
</g>
<!-- Node20 -->
<g id="node20" class="node">
<title>Node20</title>
<g id="a_node20"><a xlink:href="../../d7/d7c/ADCConfig_8hpp.html" target="_top" xlink:title="This file contains the platform&#45;specific ADC resolutions.">
<polygon fill="white" stroke="black" points="362.5,-224.5 362.5,-243.5 519.5,-243.5 519.5,-224.5 362.5,-224.5"/>
<text text-anchor="middle" x="441" y="-231.5" font-family="Helvetica,sans-Serif" font-size="10.00">AH/Hardware/ADCConfig.hpp</text>
</a>
</g>
</g>
<!-- Node18&#45;&gt;Node20 -->
<g id="edge34" class="edge">
<title>Node18&#45;&gt;Node20</title>
<path fill="none" stroke="midnightblue" d="M447.68,-280.08C446.62,-272.93 445.09,-262.64 443.77,-253.69"/>
<polygon fill="midnightblue" stroke="midnightblue" points="447.22,-253.13 442.3,-243.75 440.3,-254.16 447.22,-253.13"/>
</g>
<!-- Node21 -->
<g id="node21" class="node">
<title>Node21</title>
<g id="a_node21"><a xlink:title=" ">
<polygon fill="white" stroke="#bfbfbf" points="252.5,-224.5 252.5,-243.5 305.5,-243.5 305.5,-224.5 252.5,-224.5"/>
<text text-anchor="middle" x="279" y="-231.5" font-family="Helvetica,sans-Serif" font-size="10.00">limits.h</text>
</a>
</g>
</g>
<!-- Node18&#45;&gt;Node21 -->
<g id="edge37" class="edge">
<title>Node18&#45;&gt;Node21</title>
<path fill="none" stroke="midnightblue" d="M422.06,-280.44C393.26,-271.29 347.4,-256.73 315.4,-246.56"/>
<polygon fill="midnightblue" stroke="midnightblue" points="316.12,-243.12 305.53,-243.43 314,-249.79 316.12,-243.12"/>
</g>
<!-- Node18&#45;&gt;Node22 -->
<g id="edge38" class="edge">
<title>Node18&#45;&gt;Node22</title>
<path fill="none" stroke="midnightblue" d="M467.54,-280.44C486.62,-271.64 516.57,-257.81 538.44,-247.72"/>
<polygon fill="midnightblue" stroke="midnightblue" points="539.93,-250.88 547.55,-243.52 537,-244.53 539.93,-250.88"/>
</g>
<!-- Node18&#45;&gt;Node23 -->
<g id="edge39" class="edge">
<title>Node18&#45;&gt;Node23</title>
<path fill="none" stroke="midnightblue" d="M410.36,-281.55C356.21,-271.11 258.46,-252.25 205.49,-242.04"/>
<polygon fill="midnightblue" stroke="midnightblue" points="206,-238.57 195.52,-240.12 204.68,-245.45 206,-238.57"/>
</g>
<!-- Node19&#45;&gt;Node2 -->
<g id="edge32" class="edge">
<title>Node19&#45;&gt;Node2</title>
<path fill="none" stroke="midnightblue" d="M438.45,-112.37C454.27,-94.05 491.41,-51.05 511.87,-27.36"/>
<polygon fill="midnightblue" stroke="midnightblue" points="514.69,-29.45 518.58,-19.59 509.4,-24.87 514.69,-29.45"/>
</g>
<!-- Node19&#45;&gt;Node11 -->
<g id="edge33" class="edge">
<title>Node19&#45;&gt;Node11</title>
<path fill="none" stroke="midnightblue" d="M498.04,-114.08C590.33,-104.55 756.93,-87.35 861.16,-76.59"/>
<polygon fill="midnightblue" stroke="midnightblue" points="861.78,-80.04 871.36,-75.53 861.06,-73.08 861.78,-80.04"/>
</g>
<!-- Node20&#45;&gt;Node2 -->
<g id="edge35" class="edge">
<title>Node20&#45;&gt;Node2</title>
<path fill="none" stroke="midnightblue" d="M426.33,-224.3C395.65,-204.95 329.58,-156.54 355,-112 382.39,-64 442.52,-36.52 483.65,-22.67"/>
<polygon fill="midnightblue" stroke="midnightblue" points="484.97,-25.92 493.41,-19.52 482.82,-19.26 484.97,-25.92"/>
</g>
<!-- Node20&#45;&gt;Node12 -->
<g id="edge36" class="edge">
<title>Node20&#45;&gt;Node12</title>
<path fill="none" stroke="midnightblue" d="M509.93,-224.44C590.11,-214.49 721.89,-198.13 803.54,-187.99"/>
<polygon fill="midnightblue" stroke="midnightblue" points="804.25,-191.43 813.74,-186.73 803.38,-184.49 804.25,-191.43"/>
</g>
<!-- Node27&#45;&gt;Node2 -->
<g id="edge52" class="edge">
<title>Node27&#45;&gt;Node2</title>
<path fill="none" stroke="midnightblue" d="M1176.29,-112.33C1160.98,-97.7 1127.57,-68.51 1093,-56 1006.06,-24.55 742.96,-15.03 607.91,-12.19"/>
<polygon fill="midnightblue" stroke="midnightblue" points="607.69,-8.68 597.62,-11.98 607.55,-15.68 607.69,-8.68"/>
</g>
<!-- Node27&#45;&gt;Node11 -->
<g id="edge53" class="edge">
<title>Node27&#45;&gt;Node11</title>
<path fill="none" stroke="midnightblue" d="M1148.4,-112.44C1108.27,-103.06 1043.8,-87.99 1000.22,-77.8"/>
<polygon fill="midnightblue" stroke="midnightblue" points="1000.97,-74.38 990.43,-75.52 999.37,-81.2 1000.97,-74.38"/>
</g>
<!-- Node28 -->
<g id="node28" class="node">
<title>Node28</title>
<g id="a_node28"><a xlink:title=" ">
<polygon fill="white" stroke="#bfbfbf" points="1243,-56.5 1243,-75.5 1333,-75.5 1333,-56.5 1243,-56.5"/>
<text text-anchor="middle" x="1288" y="-63.5" font-family="Helvetica,sans-Serif" font-size="10.00">AH/STL/cstddef</text>
</a>
</g>
</g>
<!-- Node27&#45;&gt;Node28 -->
<g id="edge50" class="edge">
<title>Node27&#45;&gt;Node28</title>
<path fill="none" stroke="midnightblue" d="M1201.55,-112.32C1217.99,-103.7 1243.43,-90.36 1262.47,-80.39"/>
<polygon fill="midnightblue" stroke="midnightblue" points="1264.26,-83.4 1271.49,-75.65 1261.01,-77.2 1264.26,-83.4"/>
</g>
<!-- Node29 -->
<g id="node29" class="node">
<title>Node29</title>
<g id="a_node29"><a xlink:title=" ">
<polygon fill="white" stroke="#bfbfbf" points="1145.5,-56.5 1145.5,-75.5 1224.5,-75.5 1224.5,-56.5 1145.5,-56.5"/>
<text text-anchor="middle" x="1185" y="-63.5" font-family="Helvetica,sans-Serif" font-size="10.00">AH/STL/tuple</text>
</a>
</g>
</g>
<!-- Node27&#45;&gt;Node29 -->
<g id="edge51" class="edge">
<title>Node27&#45;&gt;Node29</title>
<path fill="none" stroke="midnightblue" d="M1185,-112.08C1185,-105.01 1185,-94.86 1185,-85.99"/>
<polygon fill="midnightblue" stroke="midnightblue" points="1188.5,-85.75 1185,-75.75 1181.5,-85.75 1188.5,-85.75"/>
</g>
</g>
</svg>
