<?xml version="1.0" encoding="UTF-8" standalone="no"?>
<!DOCTYPE svg PUBLIC "-//W3C//DTD SVG 1.1//EN"
 "http://www.w3.org/Graphics/SVG/1.1/DTD/svg11.dtd">
<!-- Generated by graphviz version 2.43.0 (0)
 -->
<!-- Title: Updatable.hpp Pages: 1 -->
<svg width="1007pt" height="532pt"
 viewBox="0.00 0.00 1007.00 532.00" xmlns="http://www.w3.org/2000/svg" xmlns:xlink="http://www.w3.org/1999/xlink">
<g id="graph0" class="graph" transform="scale(1 1) rotate(0) translate(4 528)">
<title>Updatable.hpp</title>
<polygon fill="white" stroke="transparent" points="-4,4 -4,-528 1003,-528 1003,4 -4,4"/>
<!-- Node1 -->
<g id="node1" class="node">
<title>Node1</title>
<g id="a_node1"><a xlink:title=" ">
<polygon fill="#bfbfbf" stroke="black" points="505.5,-504.5 505.5,-523.5 593.5,-523.5 593.5,-504.5 505.5,-504.5"/>
<text text-anchor="middle" x="549.5" y="-511.5" font-family="Helvetica,sans-Serif" font-size="10.00">Updatable.hpp</text>
</a>
</g>
</g>
<!-- Node2 -->
<g id="node2" class="node">
<title>Node2</title>
<g id="a_node2"><a xlink:href="../../d4/dba/CRTP_8hpp.html" target="_top" xlink:title=" ">
<polygon fill="white" stroke="black" points="6.5,-448.5 6.5,-467.5 140.5,-467.5 140.5,-448.5 6.5,-448.5"/>
<text text-anchor="middle" x="73.5" y="-455.5" font-family="Helvetica,sans-Serif" font-size="10.00">AH/Containers/CRTP.hpp</text>
</a>
</g>
</g>
<!-- Node1&#45;&gt;Node2 -->
<g id="edge1" class="edge">
<title>Node1&#45;&gt;Node2</title>
<path fill="none" stroke="midnightblue" d="M505.39,-508.12C433.48,-500.15 286.22,-483.75 150.78,-468.14"/>
<polygon fill="midnightblue" stroke="midnightblue" points="150.97,-464.64 140.63,-466.97 150.17,-471.59 150.97,-464.64"/>
</g>
<!-- Node3 -->
<g id="node3" class="node">
<title>Node3</title>
<g id="a_node3"><a xlink:href="../../de/dd1/LinkedList_8hpp.html" target="_top" xlink:title=" ">
<polygon fill="white" stroke="black" points="159,-448.5 159,-467.5 318,-467.5 318,-448.5 159,-448.5"/>
<text text-anchor="middle" x="238.5" y="-455.5" font-family="Helvetica,sans-Serif" font-size="10.00">AH/Containers/LinkedList.hpp</text>
</a>
</g>
</g>
<!-- Node1&#45;&gt;Node3 -->
<g id="edge2" class="edge">
<title>Node1&#45;&gt;Node3</title>
<path fill="none" stroke="midnightblue" d="M505.27,-505.32C450.9,-495.88 358.4,-479.82 297.88,-469.31"/>
<polygon fill="midnightblue" stroke="midnightblue" points="298.16,-465.81 287.71,-467.54 296.96,-472.7 298.16,-465.81"/>
</g>
<!-- Node12 -->
<g id="node12" class="node">
<title>Node12</title>
<g id="a_node12"><a xlink:title=" ">
<polygon fill="white" stroke="#bfbfbf" points="797,-112.5 797,-131.5 904,-131.5 904,-112.5 797,-112.5"/>
<text text-anchor="middle" x="850.5" y="-119.5" font-family="Helvetica,sans-Serif" font-size="10.00">AH/STL/type_traits</text>
</a>
</g>
</g>
<!-- Node1&#45;&gt;Node12 -->
<g id="edge32" class="edge">
<title>Node1&#45;&gt;Node12</title>
<path fill="none" stroke="midnightblue" d="M593.69,-508.03C685.31,-496.49 887.5,-464.09 887.5,-403 887.5,-403 887.5,-403 887.5,-233 887.5,-198.89 871.32,-161.79 860.36,-140.57"/>
<polygon fill="midnightblue" stroke="midnightblue" points="863.31,-138.66 855.49,-131.51 857.14,-141.98 863.31,-138.66"/>
</g>
<!-- Node13 -->
<g id="node13" class="node">
<title>Node13</title>
<g id="a_node13"><a xlink:href="../../d2/dd5/SettingsWrapper_8hpp.html" target="_top" xlink:title=" ">
<polygon fill="white" stroke="black" points="416.5,-336.5 416.5,-355.5 594.5,-355.5 594.5,-336.5 416.5,-336.5"/>
<text text-anchor="middle" x="505.5" y="-343.5" font-family="Helvetica,sans-Serif" font-size="10.00">AH/Settings/SettingsWrapper.hpp</text>
</a>
</g>
</g>
<!-- Node1&#45;&gt;Node13 -->
<g id="edge34" class="edge">
<title>Node1&#45;&gt;Node13</title>
<path fill="none" stroke="midnightblue" d="M549.03,-504.26C547.73,-484.01 543.24,-432.53 529.5,-392 526.23,-382.36 521.06,-372.3 516.35,-364.14"/>
<polygon fill="midnightblue" stroke="midnightblue" points="519.34,-362.33 511.17,-355.58 513.35,-365.95 519.34,-362.33"/>
</g>
<!-- Node18 -->
<g id="node18" class="node">
<title>Node18</title>
<g id="a_node18"><a xlink:title=" ">
<polygon fill="white" stroke="#bfbfbf" points="803.5,-224.5 803.5,-243.5 859.5,-243.5 859.5,-224.5 803.5,-224.5"/>
<text text-anchor="middle" x="831.5" y="-231.5" font-family="Helvetica,sans-Serif" font-size="10.00">stddef.h</text>
</a>
</g>
</g>
<!-- Node1&#45;&gt;Node18 -->
<g id="edge35" class="edge">
<title>Node1&#45;&gt;Node18</title>
<path fill="none" stroke="midnightblue" d="M593.61,-511.86C662.67,-507.48 788.5,-487.84 788.5,-403 788.5,-403 788.5,-403 788.5,-345 788.5,-310.31 807.28,-273.42 820.02,-252.4"/>
<polygon fill="midnightblue" stroke="midnightblue" points="823.15,-254 825.52,-243.67 817.23,-250.27 823.15,-254"/>
</g>
<!-- Node23 -->
<g id="node23" class="node">
<title>Node23</title>
<g id="a_node23"><a xlink:href="../../d1/d93/Error_8hpp.html" target="_top" xlink:title=" ">
<polygon fill="white" stroke="black" points="413.5,-448.5 413.5,-467.5 517.5,-467.5 517.5,-448.5 413.5,-448.5"/>
<text text-anchor="middle" x="465.5" y="-455.5" font-family="Helvetica,sans-Serif" font-size="10.00">AH/Error/Error.hpp</text>
</a>
</g>
</g>
<!-- Node1&#45;&gt;Node23 -->
<g id="edge30" class="edge">
<title>Node1&#45;&gt;Node23</title>
<path fill="none" stroke="midnightblue" d="M536,-504.32C522.9,-495.9 502.79,-482.97 487.39,-473.07"/>
<polygon fill="midnightblue" stroke="midnightblue" points="489.27,-470.12 478.96,-467.65 485.48,-476.01 489.27,-470.12"/>
</g>
<!-- Node24 -->
<g id="node24" class="node">
<title>Node24</title>
<g id="a_node24"><a xlink:title=" ">
<polygon fill="white" stroke="#bfbfbf" points="916,-448.5 916,-467.5 999,-467.5 999,-448.5 916,-448.5"/>
<text text-anchor="middle" x="957.5" y="-455.5" font-family="Helvetica,sans-Serif" font-size="10.00">AH/STL/utility</text>
</a>
</g>
</g>
<!-- Node1&#45;&gt;Node24 -->
<g id="edge33" class="edge">
<title>Node1&#45;&gt;Node24</title>
<path fill="none" stroke="midnightblue" d="M593.74,-507.81C660.51,-499.87 790.98,-483.94 901.5,-468 902.96,-467.79 904.44,-467.57 905.94,-467.35"/>
<polygon fill="midnightblue" stroke="midnightblue" points="906.57,-470.79 915.93,-465.83 905.52,-463.87 906.57,-470.79"/>
</g>
<!-- Node4 -->
<g id="node4" class="node">
<title>Node4</title>
<g id="a_node4"><a xlink:href="../../df/dee/Debug_8hpp.html" target="_top" xlink:title=" ">
<polygon fill="white" stroke="black" points="400,-392.5 400,-411.5 521,-411.5 521,-392.5 400,-392.5"/>
<text text-anchor="middle" x="460.5" y="-399.5" font-family="Helvetica,sans-Serif" font-size="10.00">AH/Debug/Debug.hpp</text>
</a>
</g>
</g>
<!-- Node3&#45;&gt;Node4 -->
<g id="edge3" class="edge">
<title>Node3&#45;&gt;Node4</title>
<path fill="none" stroke="midnightblue" d="M273.68,-448.44C312.08,-439.1 373.68,-424.12 415.56,-413.93"/>
<polygon fill="midnightblue" stroke="midnightblue" points="416.6,-417.28 425.49,-411.52 414.94,-410.48 416.6,-417.28"/>
</g>
<!-- Node7 -->
<g id="node7" class="node">
<title>Node7</title>
<g id="a_node7"><a xlink:href="../../d7/d79/MinMaxFix_8hpp.html" target="_top" xlink:title=" ">
<polygon fill="white" stroke="black" points="515.5,-112.5 515.5,-131.5 651.5,-131.5 651.5,-112.5 515.5,-112.5"/>
<text text-anchor="middle" x="583.5" y="-119.5" font-family="Helvetica,sans-Serif" font-size="10.00">AH/Math/MinMaxFix.hpp</text>
</a>
</g>
</g>
<!-- Node3&#45;&gt;Node7 -->
<g id="edge27" class="edge">
<title>Node3&#45;&gt;Node7</title>
<path fill="none" stroke="midnightblue" d="M231.69,-448.46C218.22,-430.69 189.5,-387.98 189.5,-347 189.5,-347 189.5,-347 189.5,-233 189.5,-168.11 390.25,-139.81 505.16,-128.93"/>
<polygon fill="midnightblue" stroke="midnightblue" points="505.68,-132.39 515.32,-127.99 505.04,-125.42 505.68,-132.39"/>
</g>
<!-- Node21 -->
<g id="node21" class="node">
<title>Node21</title>
<g id="a_node21"><a xlink:title=" ">
<polygon fill="white" stroke="#bfbfbf" points="0,-392.5 0,-411.5 53,-411.5 53,-392.5 0,-392.5"/>
<text text-anchor="middle" x="26.5" y="-399.5" font-family="Helvetica,sans-Serif" font-size="10.00">stdlib.h</text>
</a>
</g>
</g>
<!-- Node3&#45;&gt;Node21 -->
<g id="edge28" class="edge">
<title>Node3&#45;&gt;Node21</title>
<path fill="none" stroke="midnightblue" d="M204.91,-448.44C166.24,-438.59 102.95,-422.47 63.07,-412.32"/>
<polygon fill="midnightblue" stroke="midnightblue" points="63.78,-408.88 53.22,-409.81 62.05,-415.67 63.78,-408.88"/>
</g>
<!-- Node22 -->
<g id="node22" class="node">
<title>Node22</title>
<g id="a_node22"><a xlink:title=" ">
<polygon fill="white" stroke="#bfbfbf" points="71.5,-392.5 71.5,-411.5 161.5,-411.5 161.5,-392.5 71.5,-392.5"/>
<text text-anchor="middle" x="116.5" y="-399.5" font-family="Helvetica,sans-Serif" font-size="10.00">AH/STL/iterator</text>
</a>
</g>
</g>
<!-- Node3&#45;&gt;Node22 -->
<g id="edge29" class="edge">
<title>Node3&#45;&gt;Node22</title>
<path fill="none" stroke="midnightblue" d="M219.17,-448.44C199.18,-439.6 167.76,-425.69 144.94,-415.59"/>
<polygon fill="midnightblue" stroke="midnightblue" points="146.3,-412.36 135.74,-411.52 143.47,-418.76 146.3,-412.36"/>
</g>
<!-- Node5 -->
<g id="node5" class="node">
<title>Node5</title>
<g id="a_node5"><a xlink:href="../../dd/d80/PrintStream_8hpp.html" target="_top" xlink:title=" ">
<polygon fill="white" stroke="black" points="218,-224.5 218,-243.5 391,-243.5 391,-224.5 218,-224.5"/>
<text text-anchor="middle" x="304.5" y="-231.5" font-family="Helvetica,sans-Serif" font-size="10.00">AH/PrintStream/PrintStream.hpp</text>
</a>
</g>
</g>
<!-- Node4&#45;&gt;Node5 -->
<g id="edge4" class="edge">
<title>Node4&#45;&gt;Node5</title>
<path fill="none" stroke="midnightblue" d="M449.08,-392.19C438.02,-383.46 420.99,-369.48 407.5,-356 372.54,-321.08 336.08,-275.79 317.33,-251.74"/>
<polygon fill="midnightblue" stroke="midnightblue" points="319.94,-249.39 311.05,-243.62 314.4,-253.67 319.94,-249.39"/>
</g>
<!-- Node4&#45;&gt;Node13 -->
<g id="edge15" class="edge">
<title>Node4&#45;&gt;Node13</title>
<path fill="none" stroke="midnightblue" d="M462.76,-392.08C467.66,-384.22 477.01,-372.57 485.87,-363.08"/>
<polygon fill="midnightblue" stroke="midnightblue" points="488.56,-365.33 493.08,-355.75 483.57,-360.43 488.56,-365.33"/>
</g>
<!-- Node6 -->
<g id="node6" class="node">
<title>Node6</title>
<g id="a_node6"><a xlink:href="../../d6/ddf/Arduino-Wrapper_8h.html" target="_top" xlink:title=" ">
<polygon fill="white" stroke="black" points="644.5,-168.5 644.5,-187.5 768.5,-187.5 768.5,-168.5 644.5,-168.5"/>
<text text-anchor="middle" x="706.5" y="-175.5" font-family="Helvetica,sans-Serif" font-size="10.00">AH/Arduino&#45;Wrapper.h</text>
</a>
</g>
</g>
<!-- Node5&#45;&gt;Node6 -->
<g id="edge5" class="edge">
<title>Node5&#45;&gt;Node6</title>
<path fill="none" stroke="midnightblue" d="M368.2,-224.44C440.66,-214.71 558.73,-198.85 634.48,-188.67"/>
<polygon fill="midnightblue" stroke="midnightblue" points="634.98,-192.14 644.42,-187.34 634.04,-185.2 634.98,-192.14"/>
</g>
<!-- Node11 -->
<g id="node11" class="node">
<title>Node11</title>
<g id="a_node11"><a xlink:href="../../dc/dc7/NamespaceSettings_8hpp.html" target="_top" xlink:title=" ">
<polygon fill="white" stroke="black" points="308,-56.5 308,-75.5 503,-75.5 503,-56.5 308,-56.5"/>
<text text-anchor="middle" x="405.5" y="-63.5" font-family="Helvetica,sans-Serif" font-size="10.00">AH/Settings/NamespaceSettings.hpp</text>
</a>
</g>
</g>
<!-- Node5&#45;&gt;Node11 -->
<g id="edge14" class="edge">
<title>Node5&#45;&gt;Node11</title>
<path fill="none" stroke="midnightblue" d="M309.93,-224.08C326.03,-197.61 373.73,-119.21 395.03,-84.21"/>
<polygon fill="midnightblue" stroke="midnightblue" points="398.08,-85.93 400.29,-75.57 392.1,-82.29 398.08,-85.93"/>
</g>
<!-- Node6&#45;&gt;Node7 -->
<g id="edge6" class="edge">
<title>Node6&#45;&gt;Node7</title>
<path fill="none" stroke="midnightblue" d="M687.01,-168.44C666.86,-159.6 635.18,-145.69 612.17,-135.59"/>
<polygon fill="midnightblue" stroke="midnightblue" points="613.46,-132.33 602.9,-131.52 610.65,-138.74 613.46,-132.33"/>
</g>
<!-- Node10 -->
<g id="node10" class="node">
<title>Node10</title>
<g id="a_node10"><a xlink:title=" ">
<polygon fill="white" stroke="#bfbfbf" points="631,-0.5 631,-19.5 694,-19.5 694,-0.5 631,-0.5"/>
<text text-anchor="middle" x="662.5" y="-7.5" font-family="Helvetica,sans-Serif" font-size="10.00">Arduino.h</text>
</a>
</g>
</g>
<!-- Node6&#45;&gt;Node10 -->
<g id="edge13" class="edge">
<title>Node6&#45;&gt;Node10</title>
<path fill="none" stroke="midnightblue" d="M707.89,-168.4C710.81,-148.01 716.08,-95.53 700.5,-56 696.17,-45.01 688.01,-34.78 680.36,-26.86"/>
<polygon fill="midnightblue" stroke="midnightblue" points="682.66,-24.21 673.04,-19.76 677.79,-29.23 682.66,-24.21"/>
</g>
<!-- Node6&#45;&gt;Node12 -->
<g id="edge12" class="edge">
<title>Node6&#45;&gt;Node12</title>
<path fill="none" stroke="midnightblue" d="M729.32,-168.44C753.33,-159.44 791.33,-145.19 818.37,-135.05"/>
<polygon fill="midnightblue" stroke="midnightblue" points="819.66,-138.3 827.79,-131.52 817.2,-131.75 819.66,-138.3"/>
</g>
<!-- Node8 -->
<g id="node8" class="node">
<title>Node8</title>
<g id="a_node8"><a xlink:href="../../d6/d3b/FixArduinoMacros_8hpp.html" target="_top" xlink:title=" ">
<polygon fill="white" stroke="black" points="521.5,-56.5 521.5,-75.5 691.5,-75.5 691.5,-56.5 521.5,-56.5"/>
<text text-anchor="middle" x="606.5" y="-63.5" font-family="Helvetica,sans-Serif" font-size="10.00">AH/Math/FixArduinoMacros.hpp</text>
</a>
</g>
</g>
<!-- Node7&#45;&gt;Node8 -->
<g id="edge7" class="edge">
<title>Node7&#45;&gt;Node8</title>
<path fill="none" stroke="midnightblue" d="M587.3,-112.08C590.41,-104.77 594.92,-94.18 598.79,-85.1"/>
<polygon fill="midnightblue" stroke="midnightblue" points="602.07,-86.32 602.77,-75.75 595.63,-83.58 602.07,-86.32"/>
</g>
<!-- Node7&#45;&gt;Node11 -->
<g id="edge10" class="edge">
<title>Node7&#45;&gt;Node11</title>
<path fill="none" stroke="midnightblue" d="M555.3,-112.44C525.09,-103.28 476.99,-88.69 443.47,-78.52"/>
<polygon fill="midnightblue" stroke="midnightblue" points="444.16,-75.07 433.57,-75.52 442.13,-81.77 444.16,-75.07"/>
</g>
<!-- Node9 -->
<g id="node9" class="node">
<title>Node9</title>
<g id="a_node9"><a xlink:href="../../d1/d65/Warnings_8hpp.html" target="_top" xlink:title=" ">
<polygon fill="white" stroke="black" points="430,-0.5 430,-19.5 573,-19.5 573,-0.5 430,-0.5"/>
<text text-anchor="middle" x="501.5" y="-7.5" font-family="Helvetica,sans-Serif" font-size="10.00">AH/Settings/Warnings.hpp</text>
</a>
</g>
</g>
<!-- Node8&#45;&gt;Node9 -->
<g id="edge8" class="edge">
<title>Node8&#45;&gt;Node9</title>
<path fill="none" stroke="midnightblue" d="M589.63,-56.32C572.79,-47.66 546.69,-34.24 527.26,-24.25"/>
<polygon fill="midnightblue" stroke="midnightblue" points="528.82,-21.12 518.33,-19.65 525.62,-27.34 528.82,-21.12"/>
</g>
<!-- Node8&#45;&gt;Node10 -->
<g id="edge9" class="edge">
<title>Node8&#45;&gt;Node10</title>
<path fill="none" stroke="midnightblue" d="M615.5,-56.32C623.69,-48.42 636.01,-36.55 645.97,-26.94"/>
<polygon fill="midnightblue" stroke="midnightblue" points="648.57,-29.29 653.34,-19.83 643.71,-24.26 648.57,-29.29"/>
</g>
<!-- Node11&#45;&gt;Node9 -->
<g id="edge11" class="edge">
<title>Node11&#45;&gt;Node9</title>
<path fill="none" stroke="midnightblue" d="M420.92,-56.32C436.04,-47.82 459.32,-34.73 476.97,-24.8"/>
<polygon fill="midnightblue" stroke="midnightblue" points="479.11,-27.61 486.11,-19.65 475.68,-21.51 479.11,-27.61"/>
</g>
<!-- Node13&#45;&gt;Node4 -->
<g id="edge26" class="edge">
<title>Node13&#45;&gt;Node4</title>
<path fill="none" stroke="midnightblue" d="M503.29,-355.83C498.4,-363.71 488.99,-375.44 480.09,-384.97"/>
<polygon fill="midnightblue" stroke="midnightblue" points="477.37,-382.74 472.84,-392.32 482.36,-387.65 477.37,-382.74"/>
</g>
<!-- Node13&#45;&gt;Node11 -->
<g id="edge16" class="edge">
<title>Node13&#45;&gt;Node11</title>
<path fill="none" stroke="midnightblue" d="M485.71,-336.36C470.68,-328.82 450.58,-316.51 438.5,-300 420.72,-275.71 419.5,-265.1 419.5,-235 419.5,-235 419.5,-235 419.5,-177 419.5,-144.54 413.43,-107.12 409.28,-85.36"/>
<polygon fill="midnightblue" stroke="midnightblue" points="412.71,-84.64 407.33,-75.51 405.84,-86 412.71,-84.64"/>
</g>
<!-- Node14 -->
<g id="node14" class="node">
<title>Node14</title>
<g id="a_node14"><a xlink:href="../../db/d02/Settings_8hpp.html" target="_top" xlink:title="All user settings and debugging options can be changed here.">
<polygon fill="white" stroke="black" points="639,-280.5 639,-299.5 716,-299.5 716,-280.5 639,-280.5"/>
<text text-anchor="middle" x="677.5" y="-287.5" font-family="Helvetica,sans-Serif" font-size="10.00">Settings.hpp</text>
</a>
</g>
</g>
<!-- Node13&#45;&gt;Node14 -->
<g id="edge17" class="edge">
<title>Node13&#45;&gt;Node14</title>
<path fill="none" stroke="midnightblue" d="M532.75,-336.44C561.94,-327.28 608.42,-312.69 640.81,-302.52"/>
<polygon fill="midnightblue" stroke="midnightblue" points="641.88,-305.85 650.37,-299.52 639.78,-299.17 641.88,-305.85"/>
</g>
<!-- Node20 -->
<g id="node20" class="node">
<title>Node20</title>
<g id="a_node20"><a xlink:href="../../d9/d98/TeensyUSBTypes_8hpp.html" target="_top" xlink:title=" ">
<polygon fill="white" stroke="black" points="448,-280.5 448,-299.5 621,-299.5 621,-280.5 448,-280.5"/>
<text text-anchor="middle" x="534.5" y="-287.5" font-family="Helvetica,sans-Serif" font-size="10.00">AH/Teensy/TeensyUSBTypes.hpp</text>
</a>
</g>
</g>
<!-- Node13&#45;&gt;Node20 -->
<g id="edge25" class="edge">
<title>Node13&#45;&gt;Node20</title>
<path fill="none" stroke="midnightblue" d="M510.29,-336.08C514.26,-328.69 520.03,-317.95 524.93,-308.81"/>
<polygon fill="midnightblue" stroke="midnightblue" points="528.15,-310.22 529.8,-299.75 521.99,-306.91 528.15,-310.22"/>
</g>
<!-- Node15 -->
<g id="node15" class="node">
<title>Node15</title>
<g id="a_node15"><a xlink:href="../../dc/d50/Frequency_8hpp.html" target="_top" xlink:title=" ">
<polygon fill="white" stroke="black" points="447.5,-168.5 447.5,-187.5 581.5,-187.5 581.5,-168.5 447.5,-168.5"/>
<text text-anchor="middle" x="514.5" y="-175.5" font-family="Helvetica,sans-Serif" font-size="10.00">AH/Types/Frequency.hpp</text>
</a>
</g>
</g>
<!-- Node14&#45;&gt;Node15 -->
<g id="edge18" class="edge">
<title>Node14&#45;&gt;Node15</title>
<path fill="none" stroke="midnightblue" d="M638.88,-280.99C581.23,-268.93 479.06,-247.2 476.5,-244 464.02,-228.42 479.95,-208.3 494.84,-194.59"/>
<polygon fill="midnightblue" stroke="midnightblue" points="497.53,-196.9 502.82,-187.71 492.96,-191.6 497.53,-196.9"/>
</g>
<!-- Node16 -->
<g id="node16" class="node">
<title>Node16</title>
<g id="a_node16"><a xlink:href="../../d7/d7c/ADCConfig_8hpp.html" target="_top" xlink:title="This file contains the platform&#45;specific ADC resolutions.">
<polygon fill="white" stroke="black" points="628,-224.5 628,-243.5 785,-243.5 785,-224.5 628,-224.5"/>
<text text-anchor="middle" x="706.5" y="-231.5" font-family="Helvetica,sans-Serif" font-size="10.00">AH/Hardware/ADCConfig.hpp</text>
</a>
</g>
</g>
<!-- Node14&#45;&gt;Node16 -->
<g id="edge20" class="edge">
<title>Node14&#45;&gt;Node16</title>
<path fill="none" stroke="midnightblue" d="M682.29,-280.08C686.26,-272.69 692.03,-261.95 696.93,-252.81"/>
<polygon fill="midnightblue" stroke="midnightblue" points="700.15,-254.22 701.8,-243.75 693.99,-250.91 700.15,-254.22"/>
</g>
<!-- Node17 -->
<g id="node17" class="node">
<title>Node17</title>
<g id="a_node17"><a xlink:title=" ">
<polygon fill="white" stroke="#bfbfbf" points="486,-224.5 486,-243.5 539,-243.5 539,-224.5 486,-224.5"/>
<text text-anchor="middle" x="512.5" y="-231.5" font-family="Helvetica,sans-Serif" font-size="10.00">limits.h</text>
</a>
</g>
</g>
<!-- Node14&#45;&gt;Node17 -->
<g id="edge22" class="edge">
<title>Node14&#45;&gt;Node17</title>
<path fill="none" stroke="midnightblue" d="M651.36,-280.44C623.48,-271.32 579.15,-256.81 548.1,-246.65"/>
<polygon fill="midnightblue" stroke="midnightblue" points="549.12,-243.3 538.52,-243.52 546.94,-249.95 549.12,-243.3"/>
</g>
<!-- Node14&#45;&gt;Node18 -->
<g id="edge23" class="edge">
<title>Node14&#45;&gt;Node18</title>
<path fill="none" stroke="midnightblue" d="M701.9,-280.44C727.7,-271.4 768.58,-257.06 797.52,-246.92"/>
<polygon fill="midnightblue" stroke="midnightblue" points="798.93,-250.13 807.21,-243.52 796.62,-243.52 798.93,-250.13"/>
</g>
<!-- Node19 -->
<g id="node19" class="node">
<title>Node19</title>
<g id="a_node19"><a xlink:title=" ">
<polygon fill="white" stroke="#bfbfbf" points="557,-224.5 557,-243.5 610,-243.5 610,-224.5 557,-224.5"/>
<text text-anchor="middle" x="583.5" y="-231.5" font-family="Helvetica,sans-Serif" font-size="10.00">stdint.h</text>
</a>
</g>
</g>
<!-- Node14&#45;&gt;Node19 -->
<g id="edge24" class="edge">
<title>Node14&#45;&gt;Node19</title>
<path fill="none" stroke="midnightblue" d="M662.4,-280.32C647.6,-271.82 624.81,-258.73 607.52,-248.8"/>
<polygon fill="midnightblue" stroke="midnightblue" points="608.98,-245.6 598.57,-243.65 605.49,-251.67 608.98,-245.6"/>
</g>
<!-- Node15&#45;&gt;Node11 -->
<g id="edge19" class="edge">
<title>Node15&#45;&gt;Node11</title>
<path fill="none" stroke="midnightblue" d="M505.95,-168.37C487.64,-149.89 444.44,-106.29 421.1,-82.74"/>
<polygon fill="midnightblue" stroke="midnightblue" points="423.54,-80.23 414.01,-75.59 418.57,-85.16 423.54,-80.23"/>
</g>
<!-- Node16&#45;&gt;Node6 -->
<g id="edge21" class="edge">
<title>Node16&#45;&gt;Node6</title>
<path fill="none" stroke="midnightblue" d="M706.5,-224.08C706.5,-217.01 706.5,-206.86 706.5,-197.99"/>
<polygon fill="midnightblue" stroke="midnightblue" points="710,-197.75 706.5,-187.75 703,-197.75 710,-197.75"/>
</g>
<!-- Node23&#45;&gt;Node4 -->
<g id="edge31" class="edge">
<title>Node23&#45;&gt;Node4</title>
<path fill="none" stroke="midnightblue" d="M464.67,-448.08C464.02,-441.01 463.08,-430.86 462.26,-421.99"/>
<polygon fill="midnightblue" stroke="midnightblue" points="465.72,-421.39 461.31,-411.75 458.75,-422.03 465.72,-421.39"/>
</g>
</g>
</svg>
