<?xml version="1.0" encoding="UTF-8" standalone="no"?>
<!DOCTYPE svg PUBLIC "-//W3C//DTD SVG 1.1//EN"
 "http://www.w3.org/Graphics/SVG/1.1/DTD/svg11.dtd">
<!-- Generated by graphviz version 2.43.0 (0)
 -->
<!-- Title: ExtendedIOElement.hpp Pages: 1 -->
<svg width="1608pt" height="778pt"
 viewBox="0.00 0.00 1608.00 778.00" xmlns="http://www.w3.org/2000/svg" xmlns:xlink="http://www.w3.org/1999/xlink">
<g id="graph0" class="graph" transform="scale(1 1) rotate(0) translate(4 774)">
<title>ExtendedIOElement.hpp</title>
<polygon fill="white" stroke="transparent" points="-4,4 -4,-774 1604,-774 1604,4 -4,4"/>
<!-- Node1 -->
<g id="node1" class="node">
<title>Node1</title>
<g id="a_node1"><a xlink:title=" ">
<polygon fill="#bfbfbf" stroke="black" points="618,-750.5 618,-769.5 752,-769.5 752,-750.5 618,-750.5"/>
<text text-anchor="middle" x="685" y="-757.5" font-family="Helvetica,sans-Serif" font-size="10.00">ExtendedIOElement.hpp</text>
</a>
</g>
</g>
<!-- Node2 -->
<g id="node2" class="node">
<title>Node2</title>
<g id="a_node2"><a xlink:href="../../d1/d65/Warnings_8hpp.html" target="_top" xlink:title=" ">
<polygon fill="white" stroke="black" points="875.5,-0.5 875.5,-19.5 1018.5,-19.5 1018.5,-0.5 875.5,-0.5"/>
<text text-anchor="middle" x="947" y="-7.5" font-family="Helvetica,sans-Serif" font-size="10.00">AH/Settings/Warnings.hpp</text>
</a>
</g>
</g>
<!-- Node1&#45;&gt;Node2 -->
<g id="edge1" class="edge">
<title>Node1&#45;&gt;Node2</title>
<path fill="none" stroke="midnightblue" d="M752.28,-757.57C963.59,-752.21 1600,-728.96 1600,-643.5 1600,-643.5 1600,-643.5 1600,-121 1600,-31.33 1496.65,-74.92 1409,-56 1277.83,-27.69 1121.85,-17.17 1028.82,-13.27"/>
<polygon fill="midnightblue" stroke="midnightblue" points="1028.76,-9.77 1018.62,-12.86 1028.47,-16.76 1028.76,-9.77"/>
</g>
<!-- Node3 -->
<g id="node3" class="node">
<title>Node3</title>
<g id="a_node3"><a xlink:href="../../dd/ddf/ExtendedInputOutput_8hpp.html" target="_top" xlink:title=" ">
<polygon fill="white" stroke="black" points="348.5,-694.5 348.5,-713.5 489.5,-713.5 489.5,-694.5 348.5,-694.5"/>
<text text-anchor="middle" x="419" y="-701.5" font-family="Helvetica,sans-Serif" font-size="10.00">ExtendedInputOutput.hpp</text>
</a>
</g>
</g>
<!-- Node1&#45;&gt;Node3 -->
<g id="edge2" class="edge">
<title>Node1&#45;&gt;Node3</title>
<path fill="none" stroke="midnightblue" d="M642.85,-750.44C596.25,-740.98 521.16,-725.74 470.95,-715.55"/>
<polygon fill="midnightblue" stroke="midnightblue" points="471.45,-712.08 460.95,-713.52 470.06,-718.94 471.45,-712.08"/>
</g>
<!-- Node5 -->
<g id="node5" class="node">
<title>Node5</title>
<g id="a_node5"><a xlink:href="../../d4/d35/Hardware-Types_8hpp.html" target="_top" xlink:title=" ">
<polygon fill="white" stroke="black" points="450.5,-560.5 450.5,-590.5 581.5,-590.5 581.5,-560.5 450.5,-560.5"/>
<text text-anchor="start" x="458.5" y="-578.5" font-family="Helvetica,sans-Serif" font-size="10.00">AH/Hardware/Hardware</text>
<text text-anchor="middle" x="516" y="-567.5" font-family="Helvetica,sans-Serif" font-size="10.00">&#45;Types.hpp</text>
</a>
</g>
</g>
<!-- Node1&#45;&gt;Node5 -->
<g id="edge70" class="edge">
<title>Node1&#45;&gt;Node5</title>
<path fill="none" stroke="midnightblue" d="M676.85,-750.2C651.44,-722.76 573.18,-638.25 536,-598.1"/>
<polygon fill="midnightblue" stroke="midnightblue" points="538.51,-595.65 529.14,-590.69 533.37,-600.41 538.51,-595.65"/>
</g>
<!-- Node30 -->
<g id="node30" class="node">
<title>Node30</title>
<g id="a_node30"><a xlink:href="../../d4/d93/Updatable_8hpp.html" target="_top" xlink:title=" ">
<polygon fill="white" stroke="black" points="1109.5,-504.5 1109.5,-523.5 1270.5,-523.5 1270.5,-504.5 1109.5,-504.5"/>
<text text-anchor="middle" x="1190" y="-511.5" font-family="Helvetica,sans-Serif" font-size="10.00">AH/Containers/Updatable.hpp</text>
</a>
</g>
</g>
<!-- Node1&#45;&gt;Node30 -->
<g id="edge56" class="edge">
<title>Node1&#45;&gt;Node30</title>
<path fill="none" stroke="midnightblue" d="M702.68,-750.46C777.97,-714.08 1072.2,-571.92 1163.1,-528"/>
<polygon fill="midnightblue" stroke="midnightblue" points="1164.72,-531.1 1172.2,-523.6 1161.68,-524.8 1164.72,-531.1"/>
</g>
<!-- Node3&#45;&gt;Node2 -->
<g id="edge55" class="edge">
<title>Node3&#45;&gt;Node2</title>
<path fill="none" stroke="midnightblue" d="M489.85,-696.96C612.41,-684.55 851,-650.84 851,-576.5 851,-576.5 851,-576.5 851,-513 851,-458.09 887.43,-445.71 876,-392 859.3,-313.54 787.38,-300.97 810,-224 834.22,-141.56 901.31,-60.85 931.69,-27.28"/>
<polygon fill="midnightblue" stroke="midnightblue" points="934.39,-29.52 938.58,-19.79 929.23,-24.78 934.39,-29.52"/>
</g>
<!-- Node4 -->
<g id="node4" class="node">
<title>Node4</title>
<g id="a_node4"><a xlink:href="../../d2/d3c/Arduino-Hardware-Types_8hpp.html" target="_top" xlink:title=" ">
<polygon fill="white" stroke="black" points="163,-627.5 163,-657.5 285,-657.5 285,-627.5 163,-627.5"/>
<text text-anchor="start" x="171" y="-645.5" font-family="Helvetica,sans-Serif" font-size="10.00">AH/Hardware/Arduino</text>
<text text-anchor="middle" x="224" y="-634.5" font-family="Helvetica,sans-Serif" font-size="10.00">&#45;Hardware&#45;Types.hpp</text>
</a>
</g>
</g>
<!-- Node3&#45;&gt;Node4 -->
<g id="edge3" class="edge">
<title>Node3&#45;&gt;Node4</title>
<path fill="none" stroke="midnightblue" d="M391.06,-694.48C362.18,-685.66 316.32,-671.67 279.94,-660.57"/>
<polygon fill="midnightblue" stroke="midnightblue" points="280.54,-657.09 269.96,-657.52 278.5,-663.79 280.54,-657.09"/>
</g>
<!-- Node10 -->
<g id="node10" class="node">
<title>Node10</title>
<g id="a_node10"><a xlink:href="../../dc/dc7/NamespaceSettings_8hpp.html" target="_top" xlink:title=" ">
<polygon fill="white" stroke="black" points="337.5,-56.5 337.5,-75.5 532.5,-75.5 532.5,-56.5 337.5,-56.5"/>
<text text-anchor="middle" x="435" y="-63.5" font-family="Helvetica,sans-Serif" font-size="10.00">AH/Settings/NamespaceSettings.hpp</text>
</a>
</g>
</g>
<!-- Node3&#45;&gt;Node10 -->
<g id="edge54" class="edge">
<title>Node3&#45;&gt;Node10</title>
<path fill="none" stroke="midnightblue" d="M416.68,-694.23C402.91,-642.02 332.25,-373.82 330,-356 328.89,-347.18 328.95,-344.83 330,-336 342.08,-234.31 331.16,-199.72 384,-112 391.24,-99.99 402.73,-89.44 412.98,-81.58"/>
<polygon fill="midnightblue" stroke="midnightblue" points="415.13,-84.34 421.17,-75.63 411.02,-78.67 415.13,-84.34"/>
</g>
<!-- Node29 -->
<g id="node29" class="node">
<title>Node29</title>
<g id="a_node29"><a xlink:title=" ">
<polygon fill="white" stroke="#bfbfbf" points="303.5,-633 303.5,-652 390.5,-652 390.5,-633 303.5,-633"/>
<text text-anchor="middle" x="347" y="-640" font-family="Helvetica,sans-Serif" font-size="10.00">AH/STL/climits</text>
</a>
</g>
</g>
<!-- Node3&#45;&gt;Node29 -->
<g id="edge53" class="edge">
<title>Node3&#45;&gt;Node29</title>
<path fill="none" stroke="midnightblue" d="M408.68,-694.48C397.35,-685.11 378.93,-669.88 365.16,-658.51"/>
<polygon fill="midnightblue" stroke="midnightblue" points="367.23,-655.68 357.3,-652.01 362.78,-661.08 367.23,-655.68"/>
</g>
<!-- Node4&#45;&gt;Node2 -->
<g id="edge4" class="edge">
<title>Node4&#45;&gt;Node2</title>
<path fill="none" stroke="midnightblue" d="M224.18,-627.46C224.47,-604.12 225,-555.85 225,-515 225,-515 225,-515 225,-457 225,-274.82 160.75,-160.47 310,-56 332.39,-40.32 698.44,-22.09 865.28,-14.55"/>
<polygon fill="midnightblue" stroke="midnightblue" points="865.66,-18.03 875.49,-14.09 865.34,-11.04 865.66,-18.03"/>
</g>
<!-- Node4&#45;&gt;Node5 -->
<g id="edge5" class="edge">
<title>Node4&#45;&gt;Node5</title>
<path fill="none" stroke="midnightblue" d="M285.21,-627.87C331.29,-617.62 394.61,-603.52 443.27,-592.69"/>
<polygon fill="midnightblue" stroke="midnightblue" points="444.1,-596.09 453.1,-590.5 442.58,-589.26 444.1,-596.09"/>
</g>
<!-- Node11 -->
<g id="node11" class="node">
<title>Node11</title>
<g id="a_node11"><a xlink:href="../../d6/ddf/Arduino-Wrapper_8h.html" target="_top" xlink:title=" ">
<polygon fill="white" stroke="black" points="562,-168.5 562,-187.5 686,-187.5 686,-168.5 562,-168.5"/>
<text text-anchor="middle" x="624" y="-175.5" font-family="Helvetica,sans-Serif" font-size="10.00">AH/Arduino&#45;Wrapper.h</text>
</a>
</g>
</g>
<!-- Node4&#45;&gt;Node11 -->
<g id="edge52" class="edge">
<title>Node4&#45;&gt;Node11</title>
<path fill="none" stroke="midnightblue" d="M231.52,-627.14C242.85,-604.14 263,-557.29 263,-515 263,-515 263,-515 263,-457 263,-298.66 483.7,-217.97 579.97,-190.31"/>
<polygon fill="midnightblue" stroke="midnightblue" points="581.03,-193.65 589.71,-187.57 579.14,-186.91 581.03,-193.65"/>
</g>
<!-- Node26 -->
<g id="node26" class="node">
<title>Node26</title>
<g id="a_node26"><a xlink:href="../../d0/db1/FunctionTraits_8hpp.html" target="_top" xlink:title=" ">
<polygon fill="white" stroke="black" points="72.5,-112.5 72.5,-131.5 225.5,-131.5 225.5,-112.5 72.5,-112.5"/>
<text text-anchor="middle" x="149" y="-119.5" font-family="Helvetica,sans-Serif" font-size="10.00">AH/Types/FunctionTraits.hpp</text>
</a>
</g>
</g>
<!-- Node4&#45;&gt;Node26 -->
<g id="edge47" class="edge">
<title>Node4&#45;&gt;Node26</title>
<path fill="none" stroke="midnightblue" d="M209.83,-627.35C189.38,-605.35 154,-560.68 154,-515 154,-515 154,-515 154,-233 154,-200.91 151.85,-163.62 150.37,-141.74"/>
<polygon fill="midnightblue" stroke="midnightblue" points="153.85,-141.28 149.65,-131.55 146.86,-141.77 153.85,-141.28"/>
</g>
<!-- Node5&#45;&gt;Node2 -->
<g id="edge6" class="edge">
<title>Node5&#45;&gt;Node2</title>
<path fill="none" stroke="midnightblue" d="M501.94,-560.47C437.69,-494.74 181.29,-213.77 328,-56 346.02,-36.62 701.12,-20.48 865.18,-14.02"/>
<polygon fill="midnightblue" stroke="midnightblue" points="865.37,-17.52 875.22,-13.63 865.1,-10.52 865.37,-17.52"/>
</g>
<!-- Node6 -->
<g id="node6" class="node">
<title>Node6</title>
<g id="a_node6"><a xlink:href="../../de/d76/Array_8hpp.html" target="_top" xlink:title=" ">
<polygon fill="white" stroke="black" points="681.5,-504.5 681.5,-523.5 816.5,-523.5 816.5,-504.5 681.5,-504.5"/>
<text text-anchor="middle" x="749" y="-511.5" font-family="Helvetica,sans-Serif" font-size="10.00">AH/Containers/Array.hpp</text>
</a>
</g>
</g>
<!-- Node5&#45;&gt;Node6 -->
<g id="edge7" class="edge">
<title>Node5&#45;&gt;Node6</title>
<path fill="none" stroke="midnightblue" d="M570.92,-560.47C612.17,-549.94 667.88,-535.72 705.93,-526"/>
<polygon fill="midnightblue" stroke="midnightblue" points="706.87,-529.37 715.69,-523.51 705.13,-522.59 706.87,-529.37"/>
</g>
<!-- Node9 -->
<g id="node9" class="node">
<title>Node9</title>
<g id="a_node9"><a xlink:href="../../dd/d80/PrintStream_8hpp.html" target="_top" xlink:title=" ">
<polygon fill="white" stroke="black" points="512.5,-224.5 512.5,-243.5 685.5,-243.5 685.5,-224.5 512.5,-224.5"/>
<text text-anchor="middle" x="599" y="-231.5" font-family="Helvetica,sans-Serif" font-size="10.00">AH/PrintStream/PrintStream.hpp</text>
</a>
</g>
</g>
<!-- Node5&#45;&gt;Node9 -->
<g id="edge43" class="edge">
<title>Node5&#45;&gt;Node9</title>
<path fill="none" stroke="midnightblue" d="M515.8,-560.28C515.51,-538.48 515,-495.5 515,-459 515,-459 515,-459 515,-345 515,-303.73 552.81,-268.32 577.69,-249.49"/>
<polygon fill="midnightblue" stroke="midnightblue" points="579.85,-252.25 585.88,-243.54 575.73,-246.59 579.85,-252.25"/>
</g>
<!-- Node5&#45;&gt;Node10 -->
<g id="edge45" class="edge">
<title>Node5&#45;&gt;Node10</title>
<path fill="none" stroke="midnightblue" d="M510.34,-560.3C488.99,-505.94 413.38,-305.33 389,-132 387.76,-123.2 385.55,-120.19 389,-112 394.03,-100.05 403.94,-89.69 413.29,-81.93"/>
<polygon fill="midnightblue" stroke="midnightblue" points="415.44,-84.69 421.21,-75.81 411.16,-79.15 415.44,-84.69"/>
</g>
<!-- Node22 -->
<g id="node22" class="node">
<title>Node22</title>
<g id="a_node22"><a xlink:title=" ">
<polygon fill="white" stroke="#bfbfbf" points="818.5,-224.5 818.5,-243.5 871.5,-243.5 871.5,-224.5 818.5,-224.5"/>
<text text-anchor="middle" x="845" y="-231.5" font-family="Helvetica,sans-Serif" font-size="10.00">stdint.h</text>
</a>
</g>
</g>
<!-- Node5&#45;&gt;Node22 -->
<g id="edge46" class="edge">
<title>Node5&#45;&gt;Node22</title>
<path fill="none" stroke="midnightblue" d="M526.46,-560.31C537.37,-545.78 555.18,-522.72 572,-504 663.08,-402.64 783.15,-291.29 827.54,-250.81"/>
<polygon fill="midnightblue" stroke="midnightblue" points="830.11,-253.21 835.15,-243.89 825.4,-248.03 830.11,-253.21"/>
</g>
<!-- Node25 -->
<g id="node25" class="node">
<title>Node25</title>
<g id="a_node25"><a xlink:title=" ">
<polygon fill="white" stroke="#bfbfbf" points="581,-504.5 581,-523.5 663,-523.5 663,-504.5 581,-504.5"/>
<text text-anchor="middle" x="622" y="-511.5" font-family="Helvetica,sans-Serif" font-size="10.00">AH/STL/limits</text>
</a>
</g>
</g>
<!-- Node5&#45;&gt;Node25 -->
<g id="edge44" class="edge">
<title>Node5&#45;&gt;Node25</title>
<path fill="none" stroke="midnightblue" d="M541.12,-560.4C558.27,-550.77 580.86,-538.09 597.81,-528.58"/>
<polygon fill="midnightblue" stroke="midnightblue" points="599.57,-531.6 606.58,-523.66 596.14,-525.5 599.57,-531.6"/>
</g>
<!-- Node6&#45;&gt;Node2 -->
<g id="edge8" class="edge">
<title>Node6&#45;&gt;Node2</title>
<path fill="none" stroke="midnightblue" d="M746.12,-504.05C734.9,-467.54 696.68,-326.98 738,-224 759.07,-171.49 788.87,-174.7 826,-132 854.24,-99.52 855.08,-85.93 886,-56 897.76,-44.62 912.48,-33.68 924.51,-25.44"/>
<polygon fill="midnightblue" stroke="midnightblue" points="926.73,-28.17 933.1,-19.7 922.84,-22.35 926.73,-28.17"/>
</g>
<!-- Node7 -->
<g id="node7" class="node">
<title>Node7</title>
<g id="a_node7"><a xlink:href="../../d1/d93/Error_8hpp.html" target="_top" xlink:title=" ">
<polygon fill="white" stroke="black" points="1138,-448.5 1138,-467.5 1242,-467.5 1242,-448.5 1138,-448.5"/>
<text text-anchor="middle" x="1190" y="-455.5" font-family="Helvetica,sans-Serif" font-size="10.00">AH/Error/Error.hpp</text>
</a>
</g>
</g>
<!-- Node6&#45;&gt;Node7 -->
<g id="edge9" class="edge">
<title>Node6&#45;&gt;Node7</title>
<path fill="none" stroke="midnightblue" d="M816.69,-505.58C890.59,-497.34 1012.69,-483.33 1127.73,-468.14"/>
<polygon fill="midnightblue" stroke="midnightblue" points="1128.32,-471.59 1137.77,-466.81 1127.4,-464.65 1128.32,-471.59"/>
</g>
<!-- Node15 -->
<g id="node15" class="node">
<title>Node15</title>
<g id="a_node15"><a xlink:title=" ">
<polygon fill="white" stroke="#bfbfbf" points="398.5,-112.5 398.5,-131.5 505.5,-131.5 505.5,-112.5 398.5,-112.5"/>
<text text-anchor="middle" x="452" y="-119.5" font-family="Helvetica,sans-Serif" font-size="10.00">AH/STL/type_traits</text>
</a>
</g>
</g>
<!-- Node6&#45;&gt;Node15 -->
<g id="edge41" class="edge">
<title>Node6&#45;&gt;Node15</title>
<path fill="none" stroke="midnightblue" d="M725.69,-504.42C706.59,-496.7 679.45,-484.1 659,-468 556.64,-387.44 523.62,-362.71 470,-244 454.75,-210.25 451.93,-166.33 451.67,-141.76"/>
<polygon fill="midnightblue" stroke="midnightblue" points="455.17,-141.67 451.71,-131.66 448.17,-141.65 455.17,-141.67"/>
</g>
<!-- Node21 -->
<g id="node21" class="node">
<title>Node21</title>
<g id="a_node21"><a xlink:title=" ">
<polygon fill="white" stroke="#bfbfbf" points="1213,-224.5 1213,-243.5 1269,-243.5 1269,-224.5 1213,-224.5"/>
<text text-anchor="middle" x="1241" y="-231.5" font-family="Helvetica,sans-Serif" font-size="10.00">stddef.h</text>
</a>
</g>
</g>
<!-- Node6&#45;&gt;Node21 -->
<g id="edge42" class="edge">
<title>Node6&#45;&gt;Node21</title>
<path fill="none" stroke="midnightblue" d="M747.65,-504.22C744.83,-482.52 740.67,-425.69 768,-392 840.5,-302.65 903.61,-343.83 1010,-300 1030.24,-291.66 1034.28,-287.04 1055,-280 1116.61,-259.06 1136.05,-259.92 1202.96,-244.21"/>
<polygon fill="midnightblue" stroke="midnightblue" points="1203.81,-247.61 1212.72,-241.88 1202.18,-240.8 1203.81,-247.61"/>
</g>
<!-- Node24 -->
<g id="node24" class="node">
<title>Node24</title>
<g id="a_node24"><a xlink:title=" ">
<polygon fill="white" stroke="#bfbfbf" points="777,-392.5 777,-411.5 867,-411.5 867,-392.5 777,-392.5"/>
<text text-anchor="middle" x="822" y="-399.5" font-family="Helvetica,sans-Serif" font-size="10.00">AH/STL/iterator</text>
</a>
</g>
</g>
<!-- Node6&#45;&gt;Node24 -->
<g id="edge40" class="edge">
<title>Node6&#45;&gt;Node24</title>
<path fill="none" stroke="midnightblue" d="M754.73,-504.37C766.78,-486.22 794.92,-443.8 810.72,-419.99"/>
<polygon fill="midnightblue" stroke="midnightblue" points="813.69,-421.86 816.3,-411.59 807.85,-417.99 813.69,-421.86"/>
</g>
<!-- Node7&#45;&gt;Node2 -->
<g id="edge10" class="edge">
<title>Node7&#45;&gt;Node2</title>
<path fill="none" stroke="midnightblue" d="M1242.09,-453.49C1307.43,-445.93 1411,-422.11 1411,-347 1411,-347 1411,-347 1411,-121 1411,-74.84 1372.58,-73.83 1330,-56 1277.34,-33.95 1124.88,-21.31 1028.95,-15.32"/>
<polygon fill="midnightblue" stroke="midnightblue" points="1028.89,-11.81 1018.7,-14.7 1028.46,-18.8 1028.89,-11.81"/>
</g>
<!-- Node8 -->
<g id="node8" class="node">
<title>Node8</title>
<g id="a_node8"><a xlink:href="../../df/dee/Debug_8hpp.html" target="_top" xlink:title=" ">
<polygon fill="white" stroke="black" points="1120.5,-392.5 1120.5,-411.5 1241.5,-411.5 1241.5,-392.5 1120.5,-392.5"/>
<text text-anchor="middle" x="1181" y="-399.5" font-family="Helvetica,sans-Serif" font-size="10.00">AH/Debug/Debug.hpp</text>
</a>
</g>
</g>
<!-- Node7&#45;&gt;Node8 -->
<g id="edge11" class="edge">
<title>Node7&#45;&gt;Node8</title>
<path fill="none" stroke="midnightblue" d="M1188.51,-448.08C1187.32,-440.93 1185.61,-430.64 1184.12,-421.69"/>
<polygon fill="midnightblue" stroke="midnightblue" points="1187.55,-421.04 1182.46,-411.75 1180.65,-422.19 1187.55,-421.04"/>
</g>
<!-- Node8&#45;&gt;Node2 -->
<g id="edge12" class="edge">
<title>Node8&#45;&gt;Node2</title>
<path fill="none" stroke="midnightblue" d="M1216.72,-392.43C1262.21,-379.13 1335,-348.83 1335,-291 1335,-291 1335,-291 1335,-121 1335,-72.38 1291.93,-74.6 1247,-56 1176.94,-26.99 1090.78,-16.38 1028.81,-12.65"/>
<polygon fill="midnightblue" stroke="midnightblue" points="1028.86,-9.14 1018.69,-12.08 1028.48,-16.13 1028.86,-9.14"/>
</g>
<!-- Node8&#45;&gt;Node9 -->
<g id="edge13" class="edge">
<title>Node8&#45;&gt;Node9</title>
<path fill="none" stroke="midnightblue" d="M1140.66,-392.45C1067.37,-376.59 907.78,-340.5 776,-300 723.88,-283.98 664.66,-261.29 629.63,-247.39"/>
<polygon fill="midnightblue" stroke="midnightblue" points="630.59,-244 620,-243.55 627.99,-250.51 630.59,-244"/>
</g>
<!-- Node16 -->
<g id="node16" class="node">
<title>Node16</title>
<g id="a_node16"><a xlink:href="../../d2/dd5/SettingsWrapper_8hpp.html" target="_top" xlink:title=" ">
<polygon fill="white" stroke="black" points="1092,-336.5 1092,-355.5 1270,-355.5 1270,-336.5 1092,-336.5"/>
<text text-anchor="middle" x="1181" y="-343.5" font-family="Helvetica,sans-Serif" font-size="10.00">AH/Settings/SettingsWrapper.hpp</text>
</a>
</g>
</g>
<!-- Node8&#45;&gt;Node16 -->
<g id="edge25" class="edge">
<title>Node8&#45;&gt;Node16</title>
<path fill="none" stroke="midnightblue" d="M1175.83,-392.08C1174.32,-384.93 1173.89,-374.64 1174.54,-365.69"/>
<polygon fill="midnightblue" stroke="midnightblue" points="1178.02,-366.13 1175.87,-355.75 1171.08,-365.2 1178.02,-366.13"/>
</g>
<!-- Node9&#45;&gt;Node2 -->
<g id="edge15" class="edge">
<title>Node9&#45;&gt;Node2</title>
<path fill="none" stroke="midnightblue" d="M617.85,-224.38C637.27,-215.46 668.37,-201.01 695,-188 744.29,-163.91 765.36,-169.93 805,-132 833.04,-105.17 819.37,-82.21 848,-56 864.56,-40.84 887.09,-30.06 906.48,-22.85"/>
<polygon fill="midnightblue" stroke="midnightblue" points="907.72,-26.12 915.99,-19.5 905.4,-19.52 907.72,-26.12"/>
</g>
<!-- Node9&#45;&gt;Node10 -->
<g id="edge14" class="edge">
<title>Node9&#45;&gt;Node10</title>
<path fill="none" stroke="midnightblue" d="M588.16,-224.19C578.16,-215.67 563.34,-202.03 553,-188 530.47,-157.44 540.25,-139.43 514,-112 500.8,-98.21 482.45,-87.41 466.76,-79.85"/>
<polygon fill="midnightblue" stroke="midnightblue" points="467.95,-76.55 457.4,-75.56 465.03,-82.91 467.95,-76.55"/>
</g>
<!-- Node9&#45;&gt;Node11 -->
<g id="edge16" class="edge">
<title>Node9&#45;&gt;Node11</title>
<path fill="none" stroke="midnightblue" d="M603.13,-224.08C606.51,-216.77 611.42,-206.18 615.62,-197.1"/>
<polygon fill="midnightblue" stroke="midnightblue" points="618.92,-198.3 619.95,-187.75 612.57,-195.36 618.92,-198.3"/>
</g>
<!-- Node12 -->
<g id="node12" class="node">
<title>Node12</title>
<g id="a_node12"><a xlink:href="../../d7/d79/MinMaxFix_8hpp.html" target="_top" xlink:title=" ">
<polygon fill="white" stroke="black" points="660,-112.5 660,-131.5 796,-131.5 796,-112.5 660,-112.5"/>
<text text-anchor="middle" x="728" y="-119.5" font-family="Helvetica,sans-Serif" font-size="10.00">AH/Math/MinMaxFix.hpp</text>
</a>
</g>
</g>
<!-- Node11&#45;&gt;Node12 -->
<g id="edge17" class="edge">
<title>Node11&#45;&gt;Node12</title>
<path fill="none" stroke="midnightblue" d="M640.71,-168.32C657.31,-159.7 683,-146.36 702.22,-136.39"/>
<polygon fill="midnightblue" stroke="midnightblue" points="704.07,-139.37 711.33,-131.65 700.84,-133.16 704.07,-139.37"/>
</g>
<!-- Node14 -->
<g id="node14" class="node">
<title>Node14</title>
<g id="a_node14"><a xlink:title=" ">
<polygon fill="white" stroke="#bfbfbf" points="585.5,-0.5 585.5,-19.5 648.5,-19.5 648.5,-0.5 585.5,-0.5"/>
<text text-anchor="middle" x="617" y="-7.5" font-family="Helvetica,sans-Serif" font-size="10.00">Arduino.h</text>
</a>
</g>
</g>
<!-- Node11&#45;&gt;Node14 -->
<g id="edge24" class="edge">
<title>Node11&#45;&gt;Node14</title>
<path fill="none" stroke="midnightblue" d="M618.57,-168.24C608.37,-151.24 586.71,-112.24 579,-76 577.15,-67.31 575.95,-64.35 579,-56 583.06,-44.91 591.19,-34.67 598.89,-26.76"/>
<polygon fill="midnightblue" stroke="midnightblue" points="601.47,-29.14 606.29,-19.7 596.64,-24.07 601.47,-29.14"/>
</g>
<!-- Node11&#45;&gt;Node15 -->
<g id="edge23" class="edge">
<title>Node11&#45;&gt;Node15</title>
<path fill="none" stroke="midnightblue" d="M596.75,-168.44C567.56,-159.28 521.08,-144.69 488.69,-134.52"/>
<polygon fill="midnightblue" stroke="midnightblue" points="489.72,-131.17 479.13,-131.52 487.62,-137.85 489.72,-131.17"/>
</g>
<!-- Node12&#45;&gt;Node2 -->
<g id="edge18" class="edge">
<title>Node12&#45;&gt;Node2</title>
<path fill="none" stroke="midnightblue" d="M736.83,-112.23C751.08,-98.49 780.57,-71.84 810,-56 838.17,-40.83 872.36,-29.6 899.54,-22.14"/>
<polygon fill="midnightblue" stroke="midnightblue" points="900.45,-25.52 909.21,-19.57 898.64,-18.76 900.45,-25.52"/>
</g>
<!-- Node12&#45;&gt;Node10 -->
<g id="edge22" class="edge">
<title>Node12&#45;&gt;Node10</title>
<path fill="none" stroke="midnightblue" d="M681.57,-112.44C629.92,-102.92 546.49,-87.55 491.19,-77.36"/>
<polygon fill="midnightblue" stroke="midnightblue" points="491.68,-73.89 481.21,-75.52 490.41,-80.77 491.68,-73.89"/>
</g>
<!-- Node13 -->
<g id="node13" class="node">
<title>Node13</title>
<g id="a_node13"><a xlink:href="../../d6/d3b/FixArduinoMacros_8hpp.html" target="_top" xlink:title=" ">
<polygon fill="white" stroke="black" points="588,-56.5 588,-75.5 758,-75.5 758,-56.5 588,-56.5"/>
<text text-anchor="middle" x="673" y="-63.5" font-family="Helvetica,sans-Serif" font-size="10.00">AH/Math/FixArduinoMacros.hpp</text>
</a>
</g>
</g>
<!-- Node12&#45;&gt;Node13 -->
<g id="edge19" class="edge">
<title>Node12&#45;&gt;Node13</title>
<path fill="none" stroke="midnightblue" d="M718.92,-112.08C710.83,-104.14 698.8,-92.34 689.09,-82.8"/>
<polygon fill="midnightblue" stroke="midnightblue" points="691.5,-80.26 681.91,-75.75 686.6,-85.25 691.5,-80.26"/>
</g>
<!-- Node13&#45;&gt;Node2 -->
<g id="edge20" class="edge">
<title>Node13&#45;&gt;Node2</title>
<path fill="none" stroke="midnightblue" d="M716.42,-56.44C764.52,-46.96 842.09,-31.67 893.81,-21.48"/>
<polygon fill="midnightblue" stroke="midnightblue" points="894.65,-24.88 903.79,-19.52 893.3,-18.02 894.65,-24.88"/>
</g>
<!-- Node13&#45;&gt;Node14 -->
<g id="edge21" class="edge">
<title>Node13&#45;&gt;Node14</title>
<path fill="none" stroke="midnightblue" d="M664,-56.32C655.81,-48.42 643.49,-36.55 633.53,-26.94"/>
<polygon fill="midnightblue" stroke="midnightblue" points="635.79,-24.26 626.16,-19.83 630.93,-29.29 635.79,-24.26"/>
</g>
<!-- Node16&#45;&gt;Node2 -->
<g id="edge26" class="edge">
<title>Node16&#45;&gt;Node2</title>
<path fill="none" stroke="midnightblue" d="M1216.45,-336.48C1237.11,-329.79 1262.14,-318.44 1278,-300 1297.63,-277.18 1297,-265.1 1297,-235 1297,-235 1297,-235 1297,-121 1297,-65.06 1132.23,-34.1 1028.79,-20.17"/>
<polygon fill="midnightblue" stroke="midnightblue" points="1029.04,-16.68 1018.67,-18.84 1028.13,-23.62 1029.04,-16.68"/>
</g>
<!-- Node16&#45;&gt;Node8 -->
<g id="edge39" class="edge">
<title>Node16&#45;&gt;Node8</title>
<path fill="none" stroke="midnightblue" d="M1186.13,-355.75C1187.66,-362.86 1188.1,-373.14 1187.47,-382.1"/>
<polygon fill="midnightblue" stroke="midnightblue" points="1183.99,-381.71 1186.17,-392.08 1190.93,-382.62 1183.99,-381.71"/>
</g>
<!-- Node16&#45;&gt;Node10 -->
<g id="edge27" class="edge">
<title>Node16&#45;&gt;Node10</title>
<path fill="none" stroke="midnightblue" d="M1091.78,-337.17C1039.28,-330.78 972.18,-319.51 915,-300 807.08,-263.18 796.29,-220.38 695,-168 618.99,-128.69 524.02,-95.52 472.49,-78.75"/>
<polygon fill="midnightblue" stroke="midnightblue" points="473.38,-75.36 462.78,-75.62 471.23,-82.02 473.38,-75.36"/>
</g>
<!-- Node17 -->
<g id="node17" class="node">
<title>Node17</title>
<g id="a_node17"><a xlink:href="../../db/d02/Settings_8hpp.html" target="_top" xlink:title="All user settings and debugging options can be changed here.">
<polygon fill="white" stroke="black" points="923.5,-280.5 923.5,-299.5 1000.5,-299.5 1000.5,-280.5 923.5,-280.5"/>
<text text-anchor="middle" x="962" y="-287.5" font-family="Helvetica,sans-Serif" font-size="10.00">Settings.hpp</text>
</a>
</g>
</g>
<!-- Node16&#45;&gt;Node17 -->
<g id="edge28" class="edge">
<title>Node16&#45;&gt;Node17</title>
<path fill="none" stroke="midnightblue" d="M1146.3,-336.44C1108.42,-327.1 1047.65,-312.12 1006.34,-301.93"/>
<polygon fill="midnightblue" stroke="midnightblue" points="1007.09,-298.51 996.54,-299.52 1005.41,-305.31 1007.09,-298.51"/>
</g>
<!-- Node23 -->
<g id="node23" class="node">
<title>Node23</title>
<g id="a_node23"><a xlink:href="../../d9/d98/TeensyUSBTypes_8hpp.html" target="_top" xlink:title=" ">
<polygon fill="white" stroke="black" points="1095.5,-280.5 1095.5,-299.5 1268.5,-299.5 1268.5,-280.5 1095.5,-280.5"/>
<text text-anchor="middle" x="1182" y="-287.5" font-family="Helvetica,sans-Serif" font-size="10.00">AH/Teensy/TeensyUSBTypes.hpp</text>
</a>
</g>
</g>
<!-- Node16&#45;&gt;Node23 -->
<g id="edge38" class="edge">
<title>Node16&#45;&gt;Node23</title>
<path fill="none" stroke="midnightblue" d="M1181.17,-336.08C1181.3,-329.01 1181.48,-318.86 1181.65,-309.99"/>
<polygon fill="midnightblue" stroke="midnightblue" points="1185.15,-309.81 1181.84,-299.75 1178.15,-309.68 1185.15,-309.81"/>
</g>
<!-- Node18 -->
<g id="node18" class="node">
<title>Node18</title>
<g id="a_node18"><a xlink:href="../../dc/d50/Frequency_8hpp.html" target="_top" xlink:title=" ">
<polygon fill="white" stroke="black" points="928,-112.5 928,-131.5 1062,-131.5 1062,-112.5 928,-112.5"/>
<text text-anchor="middle" x="995" y="-119.5" font-family="Helvetica,sans-Serif" font-size="10.00">AH/Types/Frequency.hpp</text>
</a>
</g>
</g>
<!-- Node17&#45;&gt;Node18 -->
<g id="edge29" class="edge">
<title>Node17&#45;&gt;Node18</title>
<path fill="none" stroke="midnightblue" d="M961.01,-280.39C960.02,-271.34 958.56,-256.69 958,-244 957.61,-235.12 956.45,-232.75 958,-224 963.36,-193.76 977.1,-160.7 986.25,-140.91"/>
<polygon fill="midnightblue" stroke="midnightblue" points="989.53,-142.16 990.65,-131.63 983.2,-139.16 989.53,-142.16"/>
</g>
<!-- Node19 -->
<g id="node19" class="node">
<title>Node19</title>
<g id="a_node19"><a xlink:href="../../d7/d7c/ADCConfig_8hpp.html" target="_top" xlink:title="This file contains the platform&#45;specific ADC resolutions.">
<polygon fill="white" stroke="black" points="966.5,-224.5 966.5,-243.5 1123.5,-243.5 1123.5,-224.5 966.5,-224.5"/>
<text text-anchor="middle" x="1045" y="-231.5" font-family="Helvetica,sans-Serif" font-size="10.00">AH/Hardware/ADCConfig.hpp</text>
</a>
</g>
</g>
<!-- Node17&#45;&gt;Node19 -->
<g id="edge32" class="edge">
<title>Node17&#45;&gt;Node19</title>
<path fill="none" stroke="midnightblue" d="M975.34,-280.32C988.16,-271.98 1007.78,-259.21 1022.94,-249.35"/>
<polygon fill="midnightblue" stroke="midnightblue" points="1025.22,-252.04 1031.7,-243.65 1021.41,-246.17 1025.22,-252.04"/>
</g>
<!-- Node20 -->
<g id="node20" class="node">
<title>Node20</title>
<g id="a_node20"><a xlink:title=" ">
<polygon fill="white" stroke="#bfbfbf" points="1141.5,-224.5 1141.5,-243.5 1194.5,-243.5 1194.5,-224.5 1141.5,-224.5"/>
<text text-anchor="middle" x="1168" y="-231.5" font-family="Helvetica,sans-Serif" font-size="10.00">limits.h</text>
</a>
</g>
</g>
<!-- Node17&#45;&gt;Node20 -->
<g id="edge35" class="edge">
<title>Node17&#45;&gt;Node20</title>
<path fill="none" stroke="midnightblue" d="M994.64,-280.44C1031.92,-270.67 1092.77,-254.72 1131.57,-244.55"/>
<polygon fill="midnightblue" stroke="midnightblue" points="1132.62,-247.89 1141.41,-241.97 1130.85,-241.12 1132.62,-247.89"/>
</g>
<!-- Node17&#45;&gt;Node21 -->
<g id="edge36" class="edge">
<title>Node17&#45;&gt;Node21</title>
<path fill="none" stroke="midnightblue" d="M1000.69,-282.48C1046.61,-274.59 1125.72,-260.53 1202.87,-244.15"/>
<polygon fill="midnightblue" stroke="midnightblue" points="1203.71,-247.55 1212.75,-242.04 1202.24,-240.71 1203.71,-247.55"/>
</g>
<!-- Node17&#45;&gt;Node22 -->
<g id="edge37" class="edge">
<title>Node17&#45;&gt;Node22</title>
<path fill="none" stroke="midnightblue" d="M943.46,-280.44C924.38,-271.64 894.43,-257.81 872.56,-247.72"/>
<polygon fill="midnightblue" stroke="midnightblue" points="874,-244.53 863.45,-243.52 871.07,-250.88 874,-244.53"/>
</g>
<!-- Node18&#45;&gt;Node2 -->
<g id="edge30" class="edge">
<title>Node18&#45;&gt;Node2</title>
<path fill="none" stroke="midnightblue" d="M991.23,-112.37C983.42,-94.46 965.29,-52.92 954.83,-28.95"/>
<polygon fill="midnightblue" stroke="midnightblue" points="957.96,-27.36 950.75,-19.59 951.54,-30.16 957.96,-27.36"/>
</g>
<!-- Node18&#45;&gt;Node10 -->
<g id="edge31" class="edge">
<title>Node18&#45;&gt;Node10</title>
<path fill="none" stroke="midnightblue" d="M927.73,-114.51C829.7,-105.06 646.97,-87.44 533.69,-76.52"/>
<polygon fill="midnightblue" stroke="midnightblue" points="533.92,-73.02 523.63,-75.55 533.25,-79.99 533.92,-73.02"/>
</g>
<!-- Node19&#45;&gt;Node2 -->
<g id="edge33" class="edge">
<title>Node19&#45;&gt;Node2</title>
<path fill="none" stroke="midnightblue" d="M1050.47,-224.35C1062.67,-203.87 1089.63,-151.2 1071,-112 1051.21,-70.36 1004.93,-40.25 974.85,-24.23"/>
<polygon fill="midnightblue" stroke="midnightblue" points="976.2,-20.99 965.7,-19.52 973,-27.21 976.2,-20.99"/>
</g>
<!-- Node19&#45;&gt;Node11 -->
<g id="edge34" class="edge">
<title>Node19&#45;&gt;Node11</title>
<path fill="none" stroke="midnightblue" d="M978.29,-224.44C901.52,-214.6 775.86,-198.48 696.66,-188.32"/>
<polygon fill="midnightblue" stroke="midnightblue" points="696.64,-184.79 686.28,-186.99 695.75,-191.73 696.64,-184.79"/>
</g>
<!-- Node26&#45;&gt;Node2 -->
<g id="edge50" class="edge">
<title>Node26&#45;&gt;Node2</title>
<path fill="none" stroke="midnightblue" d="M157.57,-112.27C172.65,-97.56 205.61,-68.24 240,-56 297.55,-35.52 691.56,-19.73 865.16,-13.68"/>
<polygon fill="midnightblue" stroke="midnightblue" points="865.4,-17.17 875.27,-13.33 865.15,-10.18 865.4,-17.17"/>
</g>
<!-- Node26&#45;&gt;Node10 -->
<g id="edge51" class="edge">
<title>Node26&#45;&gt;Node10</title>
<path fill="none" stroke="midnightblue" d="M194.32,-112.44C244.63,-102.94 325.84,-87.61 379.81,-77.42"/>
<polygon fill="midnightblue" stroke="midnightblue" points="380.72,-80.81 389.89,-75.52 379.42,-73.93 380.72,-80.81"/>
</g>
<!-- Node27 -->
<g id="node27" class="node">
<title>Node27</title>
<g id="a_node27"><a xlink:title=" ">
<polygon fill="white" stroke="#bfbfbf" points="0,-56.5 0,-75.5 90,-75.5 90,-56.5 0,-56.5"/>
<text text-anchor="middle" x="45" y="-63.5" font-family="Helvetica,sans-Serif" font-size="10.00">AH/STL/cstddef</text>
</a>
</g>
</g>
<!-- Node26&#45;&gt;Node27 -->
<g id="edge48" class="edge">
<title>Node26&#45;&gt;Node27</title>
<path fill="none" stroke="midnightblue" d="M132.29,-112.32C115.69,-103.7 90,-90.36 70.78,-80.39"/>
<polygon fill="midnightblue" stroke="midnightblue" points="72.16,-77.16 61.67,-75.65 68.93,-83.37 72.16,-77.16"/>
</g>
<!-- Node28 -->
<g id="node28" class="node">
<title>Node28</title>
<g id="a_node28"><a xlink:title=" ">
<polygon fill="white" stroke="#bfbfbf" points="108.5,-56.5 108.5,-75.5 187.5,-75.5 187.5,-56.5 108.5,-56.5"/>
<text text-anchor="middle" x="148" y="-63.5" font-family="Helvetica,sans-Serif" font-size="10.00">AH/STL/tuple</text>
</a>
</g>
</g>
<!-- Node26&#45;&gt;Node28 -->
<g id="edge49" class="edge">
<title>Node26&#45;&gt;Node28</title>
<path fill="none" stroke="midnightblue" d="M148.83,-112.08C148.7,-105.01 148.52,-94.86 148.35,-85.99"/>
<polygon fill="midnightblue" stroke="midnightblue" points="151.85,-85.68 148.16,-75.75 144.85,-85.81 151.85,-85.68"/>
</g>
<!-- Node30&#45;&gt;Node2 -->
<g id="edge57" class="edge">
<title>Node30&#45;&gt;Node2</title>
<path fill="none" stroke="midnightblue" d="M1208.13,-504.37C1258.2,-480.54 1394.92,-415.32 1399,-412 1427.28,-389.01 1449,-383.45 1449,-347 1449,-347 1449,-347 1449,-121 1449,-35.99 1170.87,-16.59 1028.66,-12.22"/>
<polygon fill="midnightblue" stroke="midnightblue" points="1028.75,-8.73 1018.66,-11.94 1028.55,-15.72 1028.75,-8.73"/>
</g>
<!-- Node30&#45;&gt;Node7 -->
<g id="edge65" class="edge">
<title>Node30&#45;&gt;Node7</title>
<path fill="none" stroke="midnightblue" d="M1190,-504.08C1190,-497.01 1190,-486.86 1190,-477.99"/>
<polygon fill="midnightblue" stroke="midnightblue" points="1193.5,-477.75 1190,-467.75 1186.5,-477.75 1193.5,-477.75"/>
</g>
<!-- Node30&#45;&gt;Node15 -->
<g id="edge66" class="edge">
<title>Node30&#45;&gt;Node15</title>
<path fill="none" stroke="midnightblue" d="M1116.12,-504.48C1029.46,-492.44 883.03,-465.67 768,-412 641.63,-353.04 593.09,-350.45 503,-244 495.99,-235.71 471.18,-172.78 458.94,-141.1"/>
<polygon fill="midnightblue" stroke="midnightblue" points="462.17,-139.75 455.31,-131.68 455.64,-142.27 462.17,-139.75"/>
</g>
<!-- Node30&#45;&gt;Node16 -->
<g id="edge68" class="edge">
<title>Node30&#45;&gt;Node16</title>
<path fill="none" stroke="midnightblue" d="M1209.91,-504.41C1224.22,-497.04 1242.46,-484.92 1251,-468 1266.23,-437.85 1267.19,-421.65 1251,-392 1243.18,-377.68 1228.64,-367.24 1214.82,-360.04"/>
<polygon fill="midnightblue" stroke="midnightblue" points="1216,-356.72 1205.47,-355.56 1212.98,-363.03 1216,-356.72"/>
</g>
<!-- Node30&#45;&gt;Node21 -->
<g id="edge69" class="edge">
<title>Node30&#45;&gt;Node21</title>
<path fill="none" stroke="midnightblue" d="M1109.26,-508.52C1048.3,-503.26 971.85,-491.96 952,-468 946.33,-461.16 949.05,-456.38 952,-448 983.8,-357.65 1007.36,-333.22 1087,-280 1096.78,-273.46 1160.73,-255.95 1203.09,-244.8"/>
<polygon fill="midnightblue" stroke="midnightblue" points="1204.03,-248.17 1212.82,-242.25 1202.26,-241.4 1204.03,-248.17"/>
</g>
<!-- Node31 -->
<g id="node31" class="node">
<title>Node31</title>
<g id="a_node31"><a xlink:href="../../d4/dba/CRTP_8hpp.html" target="_top" xlink:title=" ">
<polygon fill="white" stroke="black" points="1336,-448.5 1336,-467.5 1470,-467.5 1470,-448.5 1336,-448.5"/>
<text text-anchor="middle" x="1403" y="-455.5" font-family="Helvetica,sans-Serif" font-size="10.00">AH/Containers/CRTP.hpp</text>
</a>
</g>
</g>
<!-- Node30&#45;&gt;Node31 -->
<g id="edge58" class="edge">
<title>Node30&#45;&gt;Node31</title>
<path fill="none" stroke="midnightblue" d="M1223.75,-504.44C1260.52,-495.12 1319.45,-480.18 1359.62,-470"/>
<polygon fill="midnightblue" stroke="midnightblue" points="1360.57,-473.37 1369.41,-467.52 1358.85,-466.58 1360.57,-473.37"/>
</g>
<!-- Node32 -->
<g id="node32" class="node">
<title>Node32</title>
<g id="a_node32"><a xlink:href="../../de/dd1/LinkedList_8hpp.html" target="_top" xlink:title=" ">
<polygon fill="white" stroke="black" points="960.5,-448.5 960.5,-467.5 1119.5,-467.5 1119.5,-448.5 960.5,-448.5"/>
<text text-anchor="middle" x="1040" y="-455.5" font-family="Helvetica,sans-Serif" font-size="10.00">AH/Containers/LinkedList.hpp</text>
</a>
</g>
</g>
<!-- Node30&#45;&gt;Node32 -->
<g id="edge59" class="edge">
<title>Node30&#45;&gt;Node32</title>
<path fill="none" stroke="midnightblue" d="M1166.23,-504.44C1141.11,-495.4 1101.29,-481.06 1073.1,-470.92"/>
<polygon fill="midnightblue" stroke="midnightblue" points="1074.25,-467.61 1063.66,-467.52 1071.88,-474.2 1074.25,-467.61"/>
</g>
<!-- Node34 -->
<g id="node34" class="node">
<title>Node34</title>
<g id="a_node34"><a xlink:title=" ">
<polygon fill="white" stroke="#bfbfbf" points="1488.5,-448.5 1488.5,-467.5 1571.5,-467.5 1571.5,-448.5 1488.5,-448.5"/>
<text text-anchor="middle" x="1530" y="-455.5" font-family="Helvetica,sans-Serif" font-size="10.00">AH/STL/utility</text>
</a>
</g>
</g>
<!-- Node30&#45;&gt;Node34 -->
<g id="edge67" class="edge">
<title>Node30&#45;&gt;Node34</title>
<path fill="none" stroke="midnightblue" d="M1247.08,-504.46C1303.25,-495.98 1391.73,-482.41 1478.27,-468.09"/>
<polygon fill="midnightblue" stroke="midnightblue" points="1478.97,-471.53 1488.26,-466.44 1477.83,-464.62 1478.97,-471.53"/>
</g>
<!-- Node32&#45;&gt;Node2 -->
<g id="edge60" class="edge">
<title>Node32&#45;&gt;Node2</title>
<path fill="none" stroke="midnightblue" d="M1108.59,-448.45C1206.08,-434.36 1373,-402.18 1373,-347 1373,-347 1373,-347 1373,-121 1373,-73.79 1332.58,-74.15 1289,-56 1243.4,-37.01 1114.55,-23.8 1028.68,-16.82"/>
<polygon fill="midnightblue" stroke="midnightblue" points="1028.94,-13.33 1018.69,-16.02 1028.38,-20.31 1028.94,-13.33"/>
</g>
<!-- Node32&#45;&gt;Node8 -->
<g id="edge61" class="edge">
<title>Node32&#45;&gt;Node8</title>
<path fill="none" stroke="midnightblue" d="M1062.34,-448.44C1085.75,-439.48 1122.74,-425.31 1149.19,-415.18"/>
<polygon fill="midnightblue" stroke="midnightblue" points="1150.68,-418.36 1158.76,-411.52 1148.17,-411.82 1150.68,-418.36"/>
</g>
<!-- Node32&#45;&gt;Node12 -->
<g id="edge62" class="edge">
<title>Node32&#45;&gt;Node12</title>
<path fill="none" stroke="midnightblue" d="M1031.83,-448.39C1010.51,-425.61 952.3,-361.32 915,-300 895.77,-268.39 904.95,-252.21 881,-224 846.22,-183.04 790.77,-152.18 757.04,-135.91"/>
<polygon fill="midnightblue" stroke="midnightblue" points="758.26,-132.62 747.72,-131.52 755.28,-138.95 758.26,-132.62"/>
</g>
<!-- Node32&#45;&gt;Node24 -->
<g id="edge64" class="edge">
<title>Node32&#45;&gt;Node24</title>
<path fill="none" stroke="midnightblue" d="M1005.46,-448.44C967.75,-439.1 907.26,-424.12 866.14,-413.93"/>
<polygon fill="midnightblue" stroke="midnightblue" points="866.93,-410.52 856.38,-411.52 865.25,-417.32 866.93,-410.52"/>
</g>
<!-- Node33 -->
<g id="node33" class="node">
<title>Node33</title>
<g id="a_node33"><a xlink:title=" ">
<polygon fill="white" stroke="#bfbfbf" points="1013.5,-392.5 1013.5,-411.5 1066.5,-411.5 1066.5,-392.5 1013.5,-392.5"/>
<text text-anchor="middle" x="1040" y="-399.5" font-family="Helvetica,sans-Serif" font-size="10.00">stdlib.h</text>
</a>
</g>
</g>
<!-- Node32&#45;&gt;Node33 -->
<g id="edge63" class="edge">
<title>Node32&#45;&gt;Node33</title>
<path fill="none" stroke="midnightblue" d="M1040,-448.08C1040,-441.01 1040,-430.86 1040,-421.99"/>
<polygon fill="midnightblue" stroke="midnightblue" points="1043.5,-421.75 1040,-411.75 1036.5,-421.75 1043.5,-421.75"/>
</g>
</g>
</svg>
