<?xml version="1.0" encoding="UTF-8" standalone="no"?>
<!DOCTYPE svg PUBLIC "-//W3C//DTD SVG 1.1//EN"
 "http://www.w3.org/Graphics/SVG/1.1/DTD/svg11.dtd">
<!-- Generated by graphviz version 2.43.0 (0)
 -->
<!-- Title: ShiftRegisterOutBase.hpp Pages: 1 -->
<svg width="1507pt" height="890pt"
 viewBox="0.00 0.00 1507.00 890.00" xmlns="http://www.w3.org/2000/svg" xmlns:xlink="http://www.w3.org/1999/xlink">
<g id="graph0" class="graph" transform="scale(1 1) rotate(0) translate(4 886)">
<title>ShiftRegisterOutBase.hpp</title>
<polygon fill="white" stroke="transparent" points="-4,4 -4,-886 1503,-886 1503,4 -4,4"/>
<!-- Node1 -->
<g id="node1" class="node">
<title>Node1</title>
<g id="a_node1"><a xlink:title=" ">
<polygon fill="#bfbfbf" stroke="black" points="1002.5,-862.5 1002.5,-881.5 1143.5,-881.5 1143.5,-862.5 1002.5,-862.5"/>
<text text-anchor="middle" x="1073" y="-869.5" font-family="Helvetica,sans-Serif" font-size="10.00">ShiftRegisterOutBase.hpp</text>
</a>
</g>
</g>
<!-- Node2 -->
<g id="node2" class="node">
<title>Node2</title>
<g id="a_node2"><a xlink:href="../../dd/ddf/ExtendedInputOutput_8hpp.html" target="_top" xlink:title=" ">
<polygon fill="white" stroke="black" points="1198.5,-694.5 1198.5,-713.5 1339.5,-713.5 1339.5,-694.5 1198.5,-694.5"/>
<text text-anchor="middle" x="1269" y="-701.5" font-family="Helvetica,sans-Serif" font-size="10.00">ExtendedInputOutput.hpp</text>
</a>
</g>
</g>
<!-- Node1&#45;&gt;Node2 -->
<g id="edge1" class="edge">
<title>Node1&#45;&gt;Node2</title>
<path fill="none" stroke="midnightblue" d="M1107.95,-862.44C1131.26,-855.46 1161.62,-843.8 1184,-826 1220.37,-797.08 1247.79,-748.58 1260.75,-722.63"/>
<polygon fill="midnightblue" stroke="midnightblue" points="1263.92,-724.12 1265.13,-713.59 1257.62,-721.07 1263.92,-724.12"/>
</g>
<!-- Node29 -->
<g id="node29" class="node">
<title>Node29</title>
<g id="a_node29"><a xlink:href="../../d2/d05/StaticSizeExtendedIOElement_8hpp.html" target="_top" xlink:title=" ">
<polygon fill="white" stroke="black" points="804,-806.5 804,-825.5 986,-825.5 986,-806.5 804,-806.5"/>
<text text-anchor="middle" x="895" y="-813.5" font-family="Helvetica,sans-Serif" font-size="10.00">StaticSizeExtendedIOElement.hpp</text>
</a>
</g>
</g>
<!-- Node1&#45;&gt;Node29 -->
<g id="edge42" class="edge">
<title>Node1&#45;&gt;Node29</title>
<path fill="none" stroke="midnightblue" d="M1044.8,-862.44C1014.59,-853.28 966.49,-838.69 932.97,-828.52"/>
<polygon fill="midnightblue" stroke="midnightblue" points="933.66,-825.07 923.07,-825.52 931.63,-831.77 933.66,-825.07"/>
</g>
<!-- Node38 -->
<g id="node38" class="node">
<title>Node38</title>
<g id="a_node38"><a xlink:href="../../d1/d40/BitArray_8hpp.html" target="_top" xlink:title=" ">
<polygon fill="white" stroke="black" points="1078.5,-504.5 1078.5,-523.5 1227.5,-523.5 1227.5,-504.5 1078.5,-504.5"/>
<text text-anchor="middle" x="1153" y="-511.5" font-family="Helvetica,sans-Serif" font-size="10.00">AH/Containers/BitArray.hpp</text>
</a>
</g>
</g>
<!-- Node1&#45;&gt;Node38 -->
<g id="edge62" class="edge">
<title>Node1&#45;&gt;Node38</title>
<path fill="none" stroke="midnightblue" d="M1097.83,-862.41C1115.1,-855.22 1137.38,-843.33 1151,-826 1169.59,-802.33 1170,-791.1 1170,-761 1170,-761 1170,-761 1170,-641.5 1170,-602.86 1162.11,-558.16 1157.08,-533.59"/>
<polygon fill="midnightblue" stroke="midnightblue" points="1160.45,-532.59 1154.95,-523.54 1153.6,-534.04 1160.45,-532.59"/>
</g>
<!-- Node39 -->
<g id="node39" class="node">
<title>Node39</title>
<g id="a_node39"><a xlink:href="../../d5/d47/ShiftRegisterOutBase_8ipp.html" target="_top" xlink:title=" ">
<polygon fill="white" stroke="black" points="1004,-806.5 1004,-825.5 1142,-825.5 1142,-806.5 1004,-806.5"/>
<text text-anchor="middle" x="1073" y="-813.5" font-family="Helvetica,sans-Serif" font-size="10.00">ShiftRegisterOutBase.ipp</text>
</a>
</g>
</g>
<!-- Node1&#45;&gt;Node39 -->
<g id="edge66" class="edge">
<title>Node1&#45;&gt;Node39</title>
<path fill="none" stroke="midnightblue" d="M1067.83,-862.08C1066.32,-854.93 1065.89,-844.64 1066.54,-835.69"/>
<polygon fill="midnightblue" stroke="midnightblue" points="1070.02,-836.13 1067.87,-825.75 1063.08,-835.2 1070.02,-836.13"/>
</g>
<!-- Node3 -->
<g id="node3" class="node">
<title>Node3</title>
<g id="a_node3"><a xlink:href="../../d2/d3c/Arduino-Hardware-Types_8hpp.html" target="_top" xlink:title=" ">
<polygon fill="white" stroke="black" points="1020,-627.5 1020,-657.5 1142,-657.5 1142,-627.5 1020,-627.5"/>
<text text-anchor="start" x="1028" y="-645.5" font-family="Helvetica,sans-Serif" font-size="10.00">AH/Hardware/Arduino</text>
<text text-anchor="middle" x="1081" y="-634.5" font-family="Helvetica,sans-Serif" font-size="10.00">&#45;Hardware&#45;Types.hpp</text>
</a>
</g>
</g>
<!-- Node2&#45;&gt;Node3 -->
<g id="edge2" class="edge">
<title>Node2&#45;&gt;Node3</title>
<path fill="none" stroke="midnightblue" d="M1242.06,-694.48C1214.22,-685.66 1170,-671.67 1134.93,-660.57"/>
<polygon fill="midnightblue" stroke="midnightblue" points="1135.9,-657.2 1125.31,-657.52 1133.79,-663.88 1135.9,-657.2"/>
</g>
<!-- Node14 -->
<g id="node14" class="node">
<title>Node14</title>
<g id="a_node14"><a xlink:href="../../dc/dc7/NamespaceSettings_8hpp.html" target="_top" xlink:title=" ">
<polygon fill="white" stroke="black" points="679.5,-56.5 679.5,-75.5 874.5,-75.5 874.5,-56.5 679.5,-56.5"/>
<text text-anchor="middle" x="777" y="-63.5" font-family="Helvetica,sans-Serif" font-size="10.00">AH/Settings/NamespaceSettings.hpp</text>
</a>
</g>
</g>
<!-- Node2&#45;&gt;Node14 -->
<g id="edge41" class="edge">
<title>Node2&#45;&gt;Node14</title>
<path fill="none" stroke="midnightblue" d="M1338.01,-694.46C1405.76,-681.75 1499,-650.78 1499,-576.5 1499,-576.5 1499,-576.5 1499,-177 1499,-97.77 1410.2,-129.83 1333,-112 1180.04,-76.67 997.85,-68.04 884.78,-66.46"/>
<polygon fill="midnightblue" stroke="midnightblue" points="884.78,-62.96 874.74,-66.34 884.7,-69.96 884.78,-62.96"/>
</g>
<!-- Node28 -->
<g id="node28" class="node">
<title>Node28</title>
<g id="a_node28"><a xlink:title=" ">
<polygon fill="white" stroke="#bfbfbf" points="1225.5,-633 1225.5,-652 1312.5,-652 1312.5,-633 1225.5,-633"/>
<text text-anchor="middle" x="1269" y="-640" font-family="Helvetica,sans-Serif" font-size="10.00">AH/STL/climits</text>
</a>
</g>
</g>
<!-- Node2&#45;&gt;Node28 -->
<g id="edge40" class="edge">
<title>Node2&#45;&gt;Node28</title>
<path fill="none" stroke="midnightblue" d="M1269,-694.48C1269,-686.08 1269,-672.98 1269,-662.16"/>
<polygon fill="midnightblue" stroke="midnightblue" points="1272.5,-662.01 1269,-652.01 1265.5,-662.01 1272.5,-662.01"/>
</g>
<!-- Node4 -->
<g id="node4" class="node">
<title>Node4</title>
<g id="a_node4"><a xlink:href="../../d4/d35/Hardware-Types_8hpp.html" target="_top" xlink:title=" ">
<polygon fill="white" stroke="black" points="982.5,-560.5 982.5,-590.5 1113.5,-590.5 1113.5,-560.5 982.5,-560.5"/>
<text text-anchor="start" x="990.5" y="-578.5" font-family="Helvetica,sans-Serif" font-size="10.00">AH/Hardware/Hardware</text>
<text text-anchor="middle" x="1048" y="-567.5" font-family="Helvetica,sans-Serif" font-size="10.00">&#45;Types.hpp</text>
</a>
</g>
</g>
<!-- Node3&#45;&gt;Node4 -->
<g id="edge3" class="edge">
<title>Node3&#45;&gt;Node4</title>
<path fill="none" stroke="midnightblue" d="M1073.84,-627.4C1069.73,-619.3 1064.47,-608.94 1059.77,-599.69"/>
<polygon fill="midnightblue" stroke="midnightblue" points="1062.79,-597.91 1055.15,-590.58 1056.55,-601.08 1062.79,-597.91"/>
</g>
<!-- Node9 -->
<g id="node9" class="node">
<title>Node9</title>
<g id="a_node9"><a xlink:href="../../d6/ddf/Arduino-Wrapper_8h.html" target="_top" xlink:title=" ">
<polygon fill="white" stroke="black" points="328,-168.5 328,-187.5 452,-187.5 452,-168.5 328,-168.5"/>
<text text-anchor="middle" x="390" y="-175.5" font-family="Helvetica,sans-Serif" font-size="10.00">AH/Arduino&#45;Wrapper.h</text>
</a>
</g>
</g>
<!-- Node3&#45;&gt;Node9 -->
<g id="edge39" class="edge">
<title>Node3&#45;&gt;Node9</title>
<path fill="none" stroke="midnightblue" d="M1019.78,-640.82C791.1,-637.48 0,-618.45 0,-515 0,-515 0,-515 0,-289 0,-223.76 204.69,-195.32 317.49,-184.59"/>
<polygon fill="midnightblue" stroke="midnightblue" points="318.14,-188.05 327.77,-183.64 317.49,-181.08 318.14,-188.05"/>
</g>
<!-- Node25 -->
<g id="node25" class="node">
<title>Node25</title>
<g id="a_node25"><a xlink:href="../../d0/db1/FunctionTraits_8hpp.html" target="_top" xlink:title=" ">
<polygon fill="white" stroke="black" points="1259.5,-566 1259.5,-585 1412.5,-585 1412.5,-566 1259.5,-566"/>
<text text-anchor="middle" x="1336" y="-573" font-family="Helvetica,sans-Serif" font-size="10.00">AH/Types/FunctionTraits.hpp</text>
</a>
</g>
</g>
<!-- Node3&#45;&gt;Node25 -->
<g id="edge35" class="edge">
<title>Node3&#45;&gt;Node25</title>
<path fill="none" stroke="midnightblue" d="M1136.02,-627.48C1182.92,-615.52 1249.41,-598.57 1292.62,-587.56"/>
<polygon fill="midnightblue" stroke="midnightblue" points="1293.72,-590.89 1302.54,-585.03 1291.99,-584.11 1293.72,-590.89"/>
</g>
<!-- Node5 -->
<g id="node5" class="node">
<title>Node5</title>
<g id="a_node5"><a xlink:href="../../de/d76/Array_8hpp.html" target="_top" xlink:title=" ">
<polygon fill="white" stroke="black" points="743.5,-504.5 743.5,-523.5 878.5,-523.5 878.5,-504.5 743.5,-504.5"/>
<text text-anchor="middle" x="811" y="-511.5" font-family="Helvetica,sans-Serif" font-size="10.00">AH/Containers/Array.hpp</text>
</a>
</g>
</g>
<!-- Node4&#45;&gt;Node5 -->
<g id="edge4" class="edge">
<title>Node4&#45;&gt;Node5</title>
<path fill="none" stroke="midnightblue" d="M992.13,-560.47C950.18,-549.94 893.51,-535.72 854.81,-526"/>
<polygon fill="midnightblue" stroke="midnightblue" points="855.43,-522.55 844.88,-523.51 853.73,-529.34 855.43,-522.55"/>
</g>
<!-- Node4&#45;&gt;Node14 -->
<g id="edge33" class="edge">
<title>Node4&#45;&gt;Node14</title>
<path fill="none" stroke="midnightblue" d="M1048.61,-560.28C1049.48,-538.48 1051,-495.51 1051,-459 1051,-459 1051,-459 1051,-401 1051,-325.31 1089,-310.69 1089,-235 1089,-235 1089,-235 1089,-177 1089,-125.93 938.44,-92.73 846.5,-77.22"/>
<polygon fill="midnightblue" stroke="midnightblue" points="846.86,-73.73 836.42,-75.55 845.71,-80.64 846.86,-73.73"/>
</g>
<!-- Node22 -->
<g id="node22" class="node">
<title>Node22</title>
<g id="a_node22"><a xlink:title=" ">
<polygon fill="white" stroke="#bfbfbf" points="967.5,-224.5 967.5,-243.5 1020.5,-243.5 1020.5,-224.5 967.5,-224.5"/>
<text text-anchor="middle" x="994" y="-231.5" font-family="Helvetica,sans-Serif" font-size="10.00">stdint.h</text>
</a>
</g>
</g>
<!-- Node4&#45;&gt;Node22 -->
<g id="edge34" class="edge">
<title>Node4&#45;&gt;Node22</title>
<path fill="none" stroke="midnightblue" d="M1040.75,-560.33C1030.5,-538.96 1013,-496.92 1013,-459 1013,-459 1013,-459 1013,-345 1013,-312.49 1004.84,-275.35 999.22,-253.61"/>
<polygon fill="midnightblue" stroke="midnightblue" points="1002.54,-252.5 996.56,-243.75 995.78,-254.32 1002.54,-252.5"/>
</g>
<!-- Node6 -->
<g id="node6" class="node">
<title>Node6</title>
<g id="a_node6"><a xlink:href="../../d1/d93/Error_8hpp.html" target="_top" xlink:title=" ">
<polygon fill="white" stroke="black" points="670,-448.5 670,-467.5 774,-467.5 774,-448.5 670,-448.5"/>
<text text-anchor="middle" x="722" y="-455.5" font-family="Helvetica,sans-Serif" font-size="10.00">AH/Error/Error.hpp</text>
</a>
</g>
</g>
<!-- Node5&#45;&gt;Node6 -->
<g id="edge5" class="edge">
<title>Node5&#45;&gt;Node6</title>
<path fill="none" stroke="midnightblue" d="M796.7,-504.32C782.82,-495.9 761.51,-482.97 745.2,-473.07"/>
<polygon fill="midnightblue" stroke="midnightblue" points="746.63,-469.85 736.26,-467.65 743,-475.83 746.63,-469.85"/>
</g>
<!-- Node15 -->
<g id="node15" class="node">
<title>Node15</title>
<g id="a_node15"><a xlink:title=" ">
<polygon fill="white" stroke="#bfbfbf" points="805.5,-112.5 805.5,-131.5 912.5,-131.5 912.5,-112.5 805.5,-112.5"/>
<text text-anchor="middle" x="859" y="-119.5" font-family="Helvetica,sans-Serif" font-size="10.00">AH/STL/type_traits</text>
</a>
</g>
</g>
<!-- Node5&#45;&gt;Node15 -->
<g id="edge31" class="edge">
<title>Node5&#45;&gt;Node15</title>
<path fill="none" stroke="midnightblue" d="M813.28,-504.41C815.63,-495.39 819.33,-480.75 822,-468 826.09,-448.46 853,-310.97 853,-291 853,-291 853,-291 853,-233 853,-200.9 855.58,-163.61 857.36,-141.73"/>
<polygon fill="midnightblue" stroke="midnightblue" points="860.86,-141.81 858.22,-131.55 853.89,-141.22 860.86,-141.81"/>
</g>
<!-- Node21 -->
<g id="node21" class="node">
<title>Node21</title>
<g id="a_node21"><a xlink:title=" ">
<polygon fill="white" stroke="#bfbfbf" points="407,-224.5 407,-243.5 463,-243.5 463,-224.5 407,-224.5"/>
<text text-anchor="middle" x="435" y="-231.5" font-family="Helvetica,sans-Serif" font-size="10.00">stddef.h</text>
</a>
</g>
</g>
<!-- Node5&#45;&gt;Node21 -->
<g id="edge32" class="edge">
<title>Node5&#45;&gt;Node21</title>
<path fill="none" stroke="midnightblue" d="M812.57,-504.47C814.53,-491.08 816.29,-464.88 804,-448 792.11,-431.68 486.96,-313.56 472,-300 457.75,-287.09 447.61,-267.37 441.59,-253.04"/>
<polygon fill="midnightblue" stroke="midnightblue" points="444.85,-251.75 437.93,-243.73 438.33,-254.31 444.85,-251.75"/>
</g>
<!-- Node24 -->
<g id="node24" class="node">
<title>Node24</title>
<g id="a_node24"><a xlink:title=" ">
<polygon fill="white" stroke="#bfbfbf" points="576,-392.5 576,-411.5 666,-411.5 666,-392.5 576,-392.5"/>
<text text-anchor="middle" x="621" y="-399.5" font-family="Helvetica,sans-Serif" font-size="10.00">AH/STL/iterator</text>
</a>
</g>
</g>
<!-- Node5&#45;&gt;Node24 -->
<g id="edge30" class="edge">
<title>Node5&#45;&gt;Node24</title>
<path fill="none" stroke="midnightblue" d="M809.73,-504.45C807.2,-490.53 800.22,-463.03 783,-448 766.93,-433.98 716.43,-421.3 676.04,-413"/>
<polygon fill="midnightblue" stroke="midnightblue" points="676.51,-409.53 666.01,-410.99 675.13,-416.39 676.51,-409.53"/>
</g>
<!-- Node7 -->
<g id="node7" class="node">
<title>Node7</title>
<g id="a_node7"><a xlink:href="../../df/dee/Debug_8hpp.html" target="_top" xlink:title=" ">
<polygon fill="white" stroke="black" points="436.5,-392.5 436.5,-411.5 557.5,-411.5 557.5,-392.5 436.5,-392.5"/>
<text text-anchor="middle" x="497" y="-399.5" font-family="Helvetica,sans-Serif" font-size="10.00">AH/Debug/Debug.hpp</text>
</a>
</g>
</g>
<!-- Node6&#45;&gt;Node7 -->
<g id="edge6" class="edge">
<title>Node6&#45;&gt;Node7</title>
<path fill="none" stroke="midnightblue" d="M686.35,-448.44C647.34,-439.08 584.73,-424.06 542.28,-413.87"/>
<polygon fill="midnightblue" stroke="midnightblue" points="543.03,-410.45 532.49,-411.52 541.39,-417.25 543.03,-410.45"/>
</g>
<!-- Node8 -->
<g id="node8" class="node">
<title>Node8</title>
<g id="a_node8"><a xlink:href="../../dd/d80/PrintStream_8hpp.html" target="_top" xlink:title=" ">
<polygon fill="white" stroke="black" points="366.5,-336.5 366.5,-355.5 539.5,-355.5 539.5,-336.5 366.5,-336.5"/>
<text text-anchor="middle" x="453" y="-343.5" font-family="Helvetica,sans-Serif" font-size="10.00">AH/PrintStream/PrintStream.hpp</text>
</a>
</g>
</g>
<!-- Node7&#45;&gt;Node8 -->
<g id="edge7" class="edge">
<title>Node7&#45;&gt;Node8</title>
<path fill="none" stroke="midnightblue" d="M489.73,-392.08C483.46,-384.38 474.21,-373.03 466.57,-363.65"/>
<polygon fill="midnightblue" stroke="midnightblue" points="469.16,-361.29 460.13,-355.75 463.73,-365.71 469.16,-361.29"/>
</g>
<!-- Node16 -->
<g id="node16" class="node">
<title>Node16</title>
<g id="a_node16"><a xlink:href="../../d2/dd5/SettingsWrapper_8hpp.html" target="_top" xlink:title=" ">
<polygon fill="white" stroke="black" points="609,-336.5 609,-355.5 787,-355.5 787,-336.5 609,-336.5"/>
<text text-anchor="middle" x="698" y="-343.5" font-family="Helvetica,sans-Serif" font-size="10.00">AH/Settings/SettingsWrapper.hpp</text>
</a>
</g>
</g>
<!-- Node7&#45;&gt;Node16 -->
<g id="edge18" class="edge">
<title>Node7&#45;&gt;Node16</title>
<path fill="none" stroke="midnightblue" d="M523.76,-392.44C556.41,-383.12 611.86,-368.18 651.51,-358"/>
<polygon fill="midnightblue" stroke="midnightblue" points="652.4,-361.38 661.22,-355.52 650.66,-354.6 652.4,-361.38"/>
</g>
<!-- Node8&#45;&gt;Node9 -->
<g id="edge8" class="edge">
<title>Node8&#45;&gt;Node9</title>
<path fill="none" stroke="midnightblue" d="M415.03,-336.41C395.59,-329.88 373.62,-318.72 362,-300 357.38,-292.55 351.54,-263.98 363,-224 365.88,-213.95 371.61,-203.86 377.05,-195.79"/>
<polygon fill="midnightblue" stroke="midnightblue" points="379.91,-197.81 382.9,-187.65 374.22,-193.73 379.91,-197.81"/>
</g>
<!-- Node8&#45;&gt;Node14 -->
<g id="edge17" class="edge">
<title>Node8&#45;&gt;Node14</title>
<path fill="none" stroke="midnightblue" d="M443.23,-336.29C421.32,-315.69 372.1,-262.76 398,-224 408.36,-208.5 655.35,-113.31 744.93,-79.17"/>
<polygon fill="midnightblue" stroke="midnightblue" points="746.22,-82.43 754.32,-75.6 743.73,-75.88 746.22,-82.43"/>
</g>
<!-- Node10 -->
<g id="node10" class="node">
<title>Node10</title>
<g id="a_node10"><a xlink:href="../../d7/d79/MinMaxFix_8hpp.html" target="_top" xlink:title=" ">
<polygon fill="white" stroke="black" points="321,-112.5 321,-131.5 457,-131.5 457,-112.5 321,-112.5"/>
<text text-anchor="middle" x="389" y="-119.5" font-family="Helvetica,sans-Serif" font-size="10.00">AH/Math/MinMaxFix.hpp</text>
</a>
</g>
</g>
<!-- Node9&#45;&gt;Node10 -->
<g id="edge9" class="edge">
<title>Node9&#45;&gt;Node10</title>
<path fill="none" stroke="midnightblue" d="M389.83,-168.08C389.7,-161.01 389.52,-150.86 389.35,-141.99"/>
<polygon fill="midnightblue" stroke="midnightblue" points="392.85,-141.68 389.16,-131.75 385.85,-141.81 392.85,-141.68"/>
</g>
<!-- Node13 -->
<g id="node13" class="node">
<title>Node13</title>
<g id="a_node13"><a xlink:title=" ">
<polygon fill="white" stroke="#bfbfbf" points="317.5,-0.5 317.5,-19.5 380.5,-19.5 380.5,-0.5 317.5,-0.5"/>
<text text-anchor="middle" x="349" y="-7.5" font-family="Helvetica,sans-Serif" font-size="10.00">Arduino.h</text>
</a>
</g>
</g>
<!-- Node9&#45;&gt;Node13 -->
<g id="edge16" class="edge">
<title>Node9&#45;&gt;Node13</title>
<path fill="none" stroke="midnightblue" d="M360.88,-168.44C343.36,-161.62 322.48,-150.14 312,-132 295.11,-102.75 300.61,-87.8 312,-56 315.94,-45 323.86,-34.77 331.36,-26.85"/>
<polygon fill="midnightblue" stroke="midnightblue" points="333.89,-29.27 338.56,-19.76 328.98,-24.28 333.89,-29.27"/>
</g>
<!-- Node9&#45;&gt;Node15 -->
<g id="edge15" class="edge">
<title>Node9&#45;&gt;Node15</title>
<path fill="none" stroke="midnightblue" d="M452.28,-169.83C541.53,-159.55 704.97,-140.74 795.11,-130.36"/>
<polygon fill="midnightblue" stroke="midnightblue" points="795.66,-133.82 805.19,-129.2 794.86,-126.86 795.66,-133.82"/>
</g>
<!-- Node11 -->
<g id="node11" class="node">
<title>Node11</title>
<g id="a_node11"><a xlink:href="../../d6/d3b/FixArduinoMacros_8hpp.html" target="_top" xlink:title=" ">
<polygon fill="white" stroke="black" points="321,-56.5 321,-75.5 491,-75.5 491,-56.5 321,-56.5"/>
<text text-anchor="middle" x="406" y="-63.5" font-family="Helvetica,sans-Serif" font-size="10.00">AH/Math/FixArduinoMacros.hpp</text>
</a>
</g>
</g>
<!-- Node10&#45;&gt;Node11 -->
<g id="edge10" class="edge">
<title>Node10&#45;&gt;Node11</title>
<path fill="none" stroke="midnightblue" d="M391.81,-112.08C394.08,-104.85 397.37,-94.41 400.21,-85.4"/>
<polygon fill="midnightblue" stroke="midnightblue" points="403.58,-86.34 403.25,-75.75 396.9,-84.24 403.58,-86.34"/>
</g>
<!-- Node10&#45;&gt;Node14 -->
<g id="edge13" class="edge">
<title>Node10&#45;&gt;Node14</title>
<path fill="none" stroke="midnightblue" d="M450.48,-112.44C519.87,-102.79 632.58,-87.1 705.75,-76.92"/>
<polygon fill="midnightblue" stroke="midnightblue" points="706.39,-80.36 715.81,-75.52 705.42,-73.43 706.39,-80.36"/>
</g>
<!-- Node12 -->
<g id="node12" class="node">
<title>Node12</title>
<g id="a_node12"><a xlink:href="../../d1/d65/Warnings_8hpp.html" target="_top" xlink:title=" ">
<polygon fill="white" stroke="black" points="551.5,-0.5 551.5,-19.5 694.5,-19.5 694.5,-0.5 551.5,-0.5"/>
<text text-anchor="middle" x="623" y="-7.5" font-family="Helvetica,sans-Serif" font-size="10.00">AH/Settings/Warnings.hpp</text>
</a>
</g>
</g>
<!-- Node11&#45;&gt;Node12 -->
<g id="edge11" class="edge">
<title>Node11&#45;&gt;Node12</title>
<path fill="none" stroke="midnightblue" d="M440.38,-56.44C477.92,-47.1 538.13,-32.12 579.07,-21.93"/>
<polygon fill="midnightblue" stroke="midnightblue" points="579.92,-25.33 588.78,-19.52 578.23,-18.53 579.92,-25.33"/>
</g>
<!-- Node11&#45;&gt;Node13 -->
<g id="edge12" class="edge">
<title>Node11&#45;&gt;Node13</title>
<path fill="none" stroke="midnightblue" d="M396.84,-56.32C388.5,-48.42 375.97,-36.55 365.82,-26.94"/>
<polygon fill="midnightblue" stroke="midnightblue" points="367.99,-24.17 358.32,-19.83 363.18,-29.25 367.99,-24.17"/>
</g>
<!-- Node14&#45;&gt;Node12 -->
<g id="edge14" class="edge">
<title>Node14&#45;&gt;Node12</title>
<path fill="none" stroke="midnightblue" d="M752.6,-56.44C726.8,-47.4 685.92,-33.06 656.98,-22.92"/>
<polygon fill="midnightblue" stroke="midnightblue" points="657.88,-19.52 647.29,-19.52 655.57,-26.13 657.88,-19.52"/>
</g>
<!-- Node16&#45;&gt;Node7 -->
<g id="edge29" class="edge">
<title>Node16&#45;&gt;Node7</title>
<path fill="none" stroke="midnightblue" d="M671.38,-355.52C638.79,-364.82 583.35,-379.76 543.67,-389.96"/>
<polygon fill="midnightblue" stroke="midnightblue" points="542.76,-386.58 533.94,-392.44 544.49,-393.36 542.76,-386.58"/>
</g>
<!-- Node16&#45;&gt;Node14 -->
<g id="edge19" class="edge">
<title>Node16&#45;&gt;Node14</title>
<path fill="none" stroke="midnightblue" d="M714.89,-336.35C728.44,-328.58 746.95,-315.95 758,-300 775.14,-275.26 777,-265.1 777,-235 777,-235 777,-235 777,-177 777,-144.95 777,-107.64 777,-85.75"/>
<polygon fill="midnightblue" stroke="midnightblue" points="780.5,-85.56 777,-75.56 773.5,-85.56 780.5,-85.56"/>
</g>
<!-- Node17 -->
<g id="node17" class="node">
<title>Node17</title>
<g id="a_node17"><a xlink:href="../../db/d02/Settings_8hpp.html" target="_top" xlink:title="All user settings and debugging options can be changed here.">
<polygon fill="white" stroke="black" points="671.5,-280.5 671.5,-299.5 748.5,-299.5 748.5,-280.5 671.5,-280.5"/>
<text text-anchor="middle" x="710" y="-287.5" font-family="Helvetica,sans-Serif" font-size="10.00">Settings.hpp</text>
</a>
</g>
</g>
<!-- Node16&#45;&gt;Node17 -->
<g id="edge20" class="edge">
<title>Node16&#45;&gt;Node17</title>
<path fill="none" stroke="midnightblue" d="M699.98,-336.08C701.57,-328.93 703.86,-318.64 705.85,-309.69"/>
<polygon fill="midnightblue" stroke="midnightblue" points="709.3,-310.27 708.06,-299.75 702.47,-308.75 709.3,-310.27"/>
</g>
<!-- Node23 -->
<g id="node23" class="node">
<title>Node23</title>
<g id="a_node23"><a xlink:href="../../d9/d98/TeensyUSBTypes_8hpp.html" target="_top" xlink:title=" ">
<polygon fill="white" stroke="black" points="480.5,-280.5 480.5,-299.5 653.5,-299.5 653.5,-280.5 480.5,-280.5"/>
<text text-anchor="middle" x="567" y="-287.5" font-family="Helvetica,sans-Serif" font-size="10.00">AH/Teensy/TeensyUSBTypes.hpp</text>
</a>
</g>
</g>
<!-- Node16&#45;&gt;Node23 -->
<g id="edge28" class="edge">
<title>Node16&#45;&gt;Node23</title>
<path fill="none" stroke="midnightblue" d="M677.24,-336.44C655.68,-327.56 621.74,-313.56 597.21,-303.45"/>
<polygon fill="midnightblue" stroke="midnightblue" points="598.24,-300.09 587.66,-299.52 595.57,-306.56 598.24,-300.09"/>
</g>
<!-- Node18 -->
<g id="node18" class="node">
<title>Node18</title>
<g id="a_node18"><a xlink:href="../../dc/d50/Frequency_8hpp.html" target="_top" xlink:title=" ">
<polygon fill="white" stroke="black" points="615,-168.5 615,-187.5 749,-187.5 749,-168.5 615,-168.5"/>
<text text-anchor="middle" x="682" y="-175.5" font-family="Helvetica,sans-Serif" font-size="10.00">AH/Types/Frequency.hpp</text>
</a>
</g>
</g>
<!-- Node17&#45;&gt;Node18 -->
<g id="edge21" class="edge">
<title>Node17&#45;&gt;Node18</title>
<path fill="none" stroke="midnightblue" d="M713.74,-280.32C718.66,-267.6 725.92,-243.3 719,-224 715.06,-213 707.14,-202.77 699.64,-194.85"/>
<polygon fill="midnightblue" stroke="midnightblue" points="702.02,-192.28 692.44,-187.76 697.11,-197.27 702.02,-192.28"/>
</g>
<!-- Node19 -->
<g id="node19" class="node">
<title>Node19</title>
<g id="a_node19"><a xlink:href="../../d7/d7c/ADCConfig_8hpp.html" target="_top" xlink:title="This file contains the platform&#45;specific ADC resolutions.">
<polygon fill="white" stroke="black" points="481.5,-224.5 481.5,-243.5 638.5,-243.5 638.5,-224.5 481.5,-224.5"/>
<text text-anchor="middle" x="560" y="-231.5" font-family="Helvetica,sans-Serif" font-size="10.00">AH/Hardware/ADCConfig.hpp</text>
</a>
</g>
</g>
<!-- Node17&#45;&gt;Node19 -->
<g id="edge23" class="edge">
<title>Node17&#45;&gt;Node19</title>
<path fill="none" stroke="midnightblue" d="M686.23,-280.44C661.11,-271.4 621.29,-257.06 593.1,-246.92"/>
<polygon fill="midnightblue" stroke="midnightblue" points="594.25,-243.61 583.66,-243.52 591.88,-250.2 594.25,-243.61"/>
</g>
<!-- Node20 -->
<g id="node20" class="node">
<title>Node20</title>
<g id="a_node20"><a xlink:title=" ">
<polygon fill="white" stroke="#bfbfbf" points="656.5,-224.5 656.5,-243.5 709.5,-243.5 709.5,-224.5 656.5,-224.5"/>
<text text-anchor="middle" x="683" y="-231.5" font-family="Helvetica,sans-Serif" font-size="10.00">limits.h</text>
</a>
</g>
</g>
<!-- Node17&#45;&gt;Node20 -->
<g id="edge25" class="edge">
<title>Node17&#45;&gt;Node20</title>
<path fill="none" stroke="midnightblue" d="M705.54,-280.08C701.85,-272.69 696.48,-261.95 691.91,-252.81"/>
<polygon fill="midnightblue" stroke="midnightblue" points="694.98,-251.13 687.38,-243.75 688.72,-254.26 694.98,-251.13"/>
</g>
<!-- Node17&#45;&gt;Node21 -->
<g id="edge26" class="edge">
<title>Node17&#45;&gt;Node21</title>
<path fill="none" stroke="midnightblue" d="M671.27,-281.58C668.47,-281.04 665.69,-280.51 663,-280 578.57,-263.92 557.06,-261.91 473,-244 472.9,-243.98 472.8,-243.96 472.7,-243.94"/>
<polygon fill="midnightblue" stroke="midnightblue" points="473.71,-240.58 463.19,-241.83 472.19,-247.41 473.71,-240.58"/>
</g>
<!-- Node17&#45;&gt;Node22 -->
<g id="edge27" class="edge">
<title>Node17&#45;&gt;Node22</title>
<path fill="none" stroke="midnightblue" d="M748.6,-281.66C803.48,-271.23 903.37,-252.23 957.23,-241.99"/>
<polygon fill="midnightblue" stroke="midnightblue" points="958.19,-245.37 967.36,-240.06 956.89,-238.49 958.19,-245.37"/>
</g>
<!-- Node18&#45;&gt;Node14 -->
<g id="edge22" class="edge">
<title>Node18&#45;&gt;Node14</title>
<path fill="none" stroke="midnightblue" d="M689.45,-168.37C705.27,-150.05 742.41,-107.05 762.87,-83.36"/>
<polygon fill="midnightblue" stroke="midnightblue" points="765.69,-85.45 769.58,-75.59 760.4,-80.87 765.69,-85.45"/>
</g>
<!-- Node19&#45;&gt;Node9 -->
<g id="edge24" class="edge">
<title>Node19&#45;&gt;Node9</title>
<path fill="none" stroke="midnightblue" d="M533.06,-224.44C504.34,-215.32 458.67,-200.81 426.68,-190.65"/>
<polygon fill="midnightblue" stroke="midnightblue" points="427.4,-187.21 416.81,-187.52 425.28,-193.88 427.4,-187.21"/>
</g>
<!-- Node25&#45;&gt;Node14 -->
<g id="edge38" class="edge">
<title>Node25&#45;&gt;Node14</title>
<path fill="none" stroke="midnightblue" d="M1370.93,-565.94C1394.17,-558.51 1423.7,-545.5 1442,-524 1461.51,-501.08 1461,-489.1 1461,-459 1461,-459 1461,-459 1461,-177 1461,-119.36 1077.47,-86.36 884.79,-73.42"/>
<polygon fill="midnightblue" stroke="midnightblue" points="884.85,-69.92 874.64,-72.75 884.38,-76.9 884.85,-69.92"/>
</g>
<!-- Node26 -->
<g id="node26" class="node">
<title>Node26</title>
<g id="a_node26"><a xlink:title=" ">
<polygon fill="white" stroke="#bfbfbf" points="1343,-504.5 1343,-523.5 1433,-523.5 1433,-504.5 1343,-504.5"/>
<text text-anchor="middle" x="1388" y="-511.5" font-family="Helvetica,sans-Serif" font-size="10.00">AH/STL/cstddef</text>
</a>
</g>
</g>
<!-- Node25&#45;&gt;Node26 -->
<g id="edge36" class="edge">
<title>Node25&#45;&gt;Node26</title>
<path fill="none" stroke="midnightblue" d="M1343.45,-565.98C1351.33,-556.96 1363.94,-542.52 1373.74,-531.31"/>
<polygon fill="midnightblue" stroke="midnightblue" points="1376.62,-533.34 1380.56,-523.51 1371.35,-528.74 1376.62,-533.34"/>
</g>
<!-- Node27 -->
<g id="node27" class="node">
<title>Node27</title>
<g id="a_node27"><a xlink:title=" ">
<polygon fill="white" stroke="#bfbfbf" points="1245.5,-504.5 1245.5,-523.5 1324.5,-523.5 1324.5,-504.5 1245.5,-504.5"/>
<text text-anchor="middle" x="1285" y="-511.5" font-family="Helvetica,sans-Serif" font-size="10.00">AH/STL/tuple</text>
</a>
</g>
</g>
<!-- Node25&#45;&gt;Node27 -->
<g id="edge37" class="edge">
<title>Node25&#45;&gt;Node27</title>
<path fill="none" stroke="midnightblue" d="M1328.69,-565.98C1320.97,-556.96 1308.59,-542.52 1298.98,-531.31"/>
<polygon fill="midnightblue" stroke="midnightblue" points="1301.46,-528.82 1292.29,-523.51 1296.14,-533.38 1301.46,-528.82"/>
</g>
<!-- Node30 -->
<g id="node30" class="node">
<title>Node30</title>
<g id="a_node30"><a xlink:href="../../d4/d57/ExtendedIOElement_8hpp.html" target="_top" xlink:title=" ">
<polygon fill="white" stroke="black" points="944,-750.5 944,-769.5 1078,-769.5 1078,-750.5 944,-750.5"/>
<text text-anchor="middle" x="1011" y="-757.5" font-family="Helvetica,sans-Serif" font-size="10.00">ExtendedIOElement.hpp</text>
</a>
</g>
</g>
<!-- Node29&#45;&gt;Node30 -->
<g id="edge43" class="edge">
<title>Node29&#45;&gt;Node30</title>
<path fill="none" stroke="midnightblue" d="M913.38,-806.44C932.22,-797.68 961.73,-783.94 983.38,-773.86"/>
<polygon fill="midnightblue" stroke="midnightblue" points="985.12,-776.91 992.71,-769.52 982.16,-770.56 985.12,-776.91"/>
</g>
<!-- Node36 -->
<g id="node36" class="node">
<title>Node36</title>
<g id="a_node36"><a xlink:href="../../d5/db6/ArrayHelpers_8hpp.html" target="_top" xlink:title=" ">
<polygon fill="white" stroke="black" points="423,-566 423,-585 597,-585 597,-566 423,-566"/>
<text text-anchor="middle" x="510" y="-573" font-family="Helvetica,sans-Serif" font-size="10.00">AH/Containers/ArrayHelpers.hpp</text>
</a>
</g>
</g>
<!-- Node29&#45;&gt;Node36 -->
<g id="edge58" class="edge">
<title>Node29&#45;&gt;Node36</title>
<path fill="none" stroke="midnightblue" d="M880.84,-806.23C822.94,-770.36 603.84,-634.63 532.56,-590.48"/>
<polygon fill="midnightblue" stroke="midnightblue" points="534.23,-587.39 523.88,-585.1 530.54,-593.34 534.23,-587.39"/>
</g>
<!-- Node30&#45;&gt;Node2 -->
<g id="edge44" class="edge">
<title>Node30&#45;&gt;Node2</title>
<path fill="none" stroke="midnightblue" d="M1051.88,-750.44C1096.98,-741 1169.61,-725.8 1218.3,-715.61"/>
<polygon fill="midnightblue" stroke="midnightblue" points="1219.24,-718.99 1228.31,-713.52 1217.81,-712.14 1219.24,-718.99"/>
</g>
<!-- Node30&#45;&gt;Node4 -->
<g id="edge57" class="edge">
<title>Node30&#45;&gt;Node4</title>
<path fill="none" stroke="midnightblue" d="M1009.2,-750.37C1005.09,-728.87 996.46,-671.43 1011,-627 1014.4,-616.62 1020.83,-606.6 1027.39,-598.27"/>
<polygon fill="midnightblue" stroke="midnightblue" points="1030.13,-600.45 1033.89,-590.54 1024.77,-595.95 1030.13,-600.45"/>
</g>
<!-- Node31 -->
<g id="node31" class="node">
<title>Node31</title>
<g id="a_node31"><a xlink:href="../../d4/d93/Updatable_8hpp.html" target="_top" xlink:title=" ">
<polygon fill="white" stroke="black" points="469.5,-504.5 469.5,-523.5 630.5,-523.5 630.5,-504.5 469.5,-504.5"/>
<text text-anchor="middle" x="550" y="-511.5" font-family="Helvetica,sans-Serif" font-size="10.00">AH/Containers/Updatable.hpp</text>
</a>
</g>
</g>
<!-- Node30&#45;&gt;Node31 -->
<g id="edge45" class="edge">
<title>Node30&#45;&gt;Node31</title>
<path fill="none" stroke="midnightblue" d="M1001.59,-750.2C987.03,-736.9 957.83,-711.38 930,-694 808.51,-618.13 649.75,-553.31 582.43,-527.25"/>
<polygon fill="midnightblue" stroke="midnightblue" points="583.39,-523.87 572.8,-523.54 580.88,-530.4 583.39,-523.87"/>
</g>
<!-- Node31&#45;&gt;Node6 -->
<g id="edge52" class="edge">
<title>Node31&#45;&gt;Node6</title>
<path fill="none" stroke="midnightblue" d="M577.25,-504.44C606.44,-495.28 652.92,-480.69 685.31,-470.52"/>
<polygon fill="midnightblue" stroke="midnightblue" points="686.38,-473.85 694.87,-467.52 684.28,-467.17 686.38,-473.85"/>
</g>
<!-- Node31&#45;&gt;Node15 -->
<g id="edge53" class="edge">
<title>Node31&#45;&gt;Node15</title>
<path fill="none" stroke="midnightblue" d="M565.42,-504.49C581.28,-495.65 606.62,-481.28 628,-468 647.06,-456.17 782.72,-374.08 796,-356 813.82,-331.74 815,-321.1 815,-291 815,-291 815,-291 815,-233 815,-198.04 834.4,-161.01 847.43,-140.07"/>
<polygon fill="midnightblue" stroke="midnightblue" points="850.39,-141.95 852.88,-131.65 844.51,-138.15 850.39,-141.95"/>
</g>
<!-- Node31&#45;&gt;Node16 -->
<g id="edge55" class="edge">
<title>Node31&#45;&gt;Node16</title>
<path fill="none" stroke="midnightblue" d="M559.99,-504.45C574.72,-491.9 603.21,-467.81 628,-448 648.56,-431.57 659.53,-433.28 675,-412 685.11,-398.1 691.11,-379.34 694.44,-365.54"/>
<polygon fill="midnightblue" stroke="midnightblue" points="697.87,-366.25 696.56,-355.74 691.02,-364.77 697.87,-366.25"/>
</g>
<!-- Node31&#45;&gt;Node21 -->
<g id="edge56" class="edge">
<title>Node31&#45;&gt;Node21</title>
<path fill="none" stroke="midnightblue" d="M496.87,-504.49C447.67,-493.22 378.91,-467.79 357,-412 352.71,-401.08 347.48,-366.25 358,-336 370.1,-301.19 399.22,-268.79 417.98,-250.48"/>
<polygon fill="midnightblue" stroke="midnightblue" points="420.46,-252.96 425.3,-243.53 415.64,-247.88 420.46,-252.96"/>
</g>
<!-- Node32 -->
<g id="node32" class="node">
<title>Node32</title>
<g id="a_node32"><a xlink:href="../../d4/dba/CRTP_8hpp.html" target="_top" xlink:title=" ">
<polygon fill="white" stroke="black" points="126,-448.5 126,-467.5 260,-467.5 260,-448.5 126,-448.5"/>
<text text-anchor="middle" x="193" y="-455.5" font-family="Helvetica,sans-Serif" font-size="10.00">AH/Containers/CRTP.hpp</text>
</a>
</g>
</g>
<!-- Node31&#45;&gt;Node32 -->
<g id="edge46" class="edge">
<title>Node31&#45;&gt;Node32</title>
<path fill="none" stroke="midnightblue" d="M493.43,-504.44C429.85,-494.83 326.73,-479.23 259.38,-469.04"/>
<polygon fill="midnightblue" stroke="midnightblue" points="259.71,-465.55 249.3,-467.52 258.67,-472.47 259.71,-465.55"/>
</g>
<!-- Node33 -->
<g id="node33" class="node">
<title>Node33</title>
<g id="a_node33"><a xlink:href="../../de/dd1/LinkedList_8hpp.html" target="_top" xlink:title=" ">
<polygon fill="white" stroke="black" points="417.5,-448.5 417.5,-467.5 576.5,-467.5 576.5,-448.5 417.5,-448.5"/>
<text text-anchor="middle" x="497" y="-455.5" font-family="Helvetica,sans-Serif" font-size="10.00">AH/Containers/LinkedList.hpp</text>
</a>
</g>
</g>
<!-- Node31&#45;&gt;Node33 -->
<g id="edge47" class="edge">
<title>Node31&#45;&gt;Node33</title>
<path fill="none" stroke="midnightblue" d="M541.25,-504.08C533.53,-496.22 522.1,-484.57 512.78,-475.08"/>
<polygon fill="midnightblue" stroke="midnightblue" points="515.09,-472.44 505.59,-467.75 510.1,-477.34 515.09,-472.44"/>
</g>
<!-- Node35 -->
<g id="node35" class="node">
<title>Node35</title>
<g id="a_node35"><a xlink:title=" ">
<polygon fill="white" stroke="#bfbfbf" points="278.5,-448.5 278.5,-467.5 361.5,-467.5 361.5,-448.5 278.5,-448.5"/>
<text text-anchor="middle" x="320" y="-455.5" font-family="Helvetica,sans-Serif" font-size="10.00">AH/STL/utility</text>
</a>
</g>
</g>
<!-- Node31&#45;&gt;Node35 -->
<g id="edge54" class="edge">
<title>Node31&#45;&gt;Node35</title>
<path fill="none" stroke="midnightblue" d="M513.56,-504.44C473.6,-495.06 409.41,-479.99 366.02,-469.8"/>
<polygon fill="midnightblue" stroke="midnightblue" points="366.81,-466.39 356.27,-467.52 365.21,-473.21 366.81,-466.39"/>
</g>
<!-- Node33&#45;&gt;Node7 -->
<g id="edge48" class="edge">
<title>Node33&#45;&gt;Node7</title>
<path fill="none" stroke="midnightblue" d="M497,-448.08C497,-441.01 497,-430.86 497,-421.99"/>
<polygon fill="midnightblue" stroke="midnightblue" points="500.5,-421.75 497,-411.75 493.5,-421.75 500.5,-421.75"/>
</g>
<!-- Node33&#45;&gt;Node10 -->
<g id="edge49" class="edge">
<title>Node33&#45;&gt;Node10</title>
<path fill="none" stroke="midnightblue" d="M435.39,-448.47C408.76,-442.14 378.77,-431.12 357,-412 312.34,-372.77 300,-350.45 300,-291 300,-291 300,-291 300,-233 300,-202.9 300.98,-192.11 319,-168 329.19,-154.37 344.83,-143.75 358.74,-136.26"/>
<polygon fill="midnightblue" stroke="midnightblue" points="360.66,-139.21 368.01,-131.58 357.5,-132.97 360.66,-139.21"/>
</g>
<!-- Node33&#45;&gt;Node24 -->
<g id="edge51" class="edge">
<title>Node33&#45;&gt;Node24</title>
<path fill="none" stroke="midnightblue" d="M516.65,-448.44C536.96,-439.6 568.9,-425.69 592.1,-415.59"/>
<polygon fill="midnightblue" stroke="midnightblue" points="593.67,-418.72 601.44,-411.52 590.88,-412.3 593.67,-418.72"/>
</g>
<!-- Node34 -->
<g id="node34" class="node">
<title>Node34</title>
<g id="a_node34"><a xlink:title=" ">
<polygon fill="white" stroke="#bfbfbf" points="365.5,-392.5 365.5,-411.5 418.5,-411.5 418.5,-392.5 365.5,-392.5"/>
<text text-anchor="middle" x="392" y="-399.5" font-family="Helvetica,sans-Serif" font-size="10.00">stdlib.h</text>
</a>
</g>
</g>
<!-- Node33&#45;&gt;Node34 -->
<g id="edge50" class="edge">
<title>Node33&#45;&gt;Node34</title>
<path fill="none" stroke="midnightblue" d="M480.13,-448.32C463.29,-439.66 437.19,-426.24 417.76,-416.25"/>
<polygon fill="midnightblue" stroke="midnightblue" points="419.32,-413.12 408.83,-411.65 416.12,-419.34 419.32,-413.12"/>
</g>
<!-- Node36&#45;&gt;Node5 -->
<g id="edge59" class="edge">
<title>Node36&#45;&gt;Node5</title>
<path fill="none" stroke="midnightblue" d="M553.13,-565.98C607.11,-555.3 699.54,-537.03 757.84,-525.51"/>
<polygon fill="midnightblue" stroke="midnightblue" points="758.82,-528.88 767.95,-523.51 757.47,-522.01 758.82,-528.88"/>
</g>
<!-- Node36&#45;&gt;Node8 -->
<g id="edge61" class="edge">
<title>Node36&#45;&gt;Node8</title>
<path fill="none" stroke="midnightblue" d="M441.94,-565.99C340.24,-551.72 156.3,-519.37 117,-468 50.58,-381.19 234.99,-356.56 356.25,-349.64"/>
<polygon fill="midnightblue" stroke="midnightblue" points="356.53,-353.13 366.32,-349.1 356.15,-346.14 356.53,-353.13"/>
</g>
<!-- Node37 -->
<g id="node37" class="node">
<title>Node37</title>
<g id="a_node37"><a xlink:title=" ">
<polygon fill="white" stroke="#bfbfbf" points="28.5,-504.5 28.5,-523.5 129.5,-523.5 129.5,-504.5 28.5,-504.5"/>
<text text-anchor="middle" x="79" y="-511.5" font-family="Helvetica,sans-Serif" font-size="10.00">AH/STL/algorithm</text>
</a>
</g>
</g>
<!-- Node36&#45;&gt;Node37 -->
<g id="edge60" class="edge">
<title>Node36&#45;&gt;Node37</title>
<path fill="none" stroke="midnightblue" d="M448.15,-565.98C375.38,-555.94 250.91,-538.78 144,-524 142.7,-523.82 141.38,-523.64 140.06,-523.45"/>
<polygon fill="midnightblue" stroke="midnightblue" points="140.13,-519.93 129.74,-522.03 139.17,-526.87 140.13,-519.93"/>
</g>
<!-- Node38&#45;&gt;Node6 -->
<g id="edge63" class="edge">
<title>Node38&#45;&gt;Node6</title>
<path fill="none" stroke="midnightblue" d="M1084.71,-504.44C1002.13,-494.1 864.32,-476.83 784.46,-466.83"/>
<polygon fill="midnightblue" stroke="midnightblue" points="784.42,-463.29 774.06,-465.52 783.55,-470.24 784.42,-463.29"/>
</g>
<!-- Node38&#45;&gt;Node14 -->
<g id="edge64" class="edge">
<title>Node38&#45;&gt;Node14</title>
<path fill="none" stroke="midnightblue" d="M1151.3,-504.48C1147.78,-486.06 1140,-441.08 1140,-403 1140,-403 1140,-403 1140,-177 1140,-143.76 1130.52,-130.64 1103,-112 1068.24,-88.46 965.95,-77.12 885.12,-71.73"/>
<polygon fill="midnightblue" stroke="midnightblue" points="885.08,-68.22 874.88,-71.07 884.63,-75.2 885.08,-68.22"/>
</g>
<!-- Node38&#45;&gt;Node22 -->
<g id="edge65" class="edge">
<title>Node38&#45;&gt;Node22</title>
<path fill="none" stroke="midnightblue" d="M1147.68,-504.46C1142.13,-495.47 1133.24,-480.86 1126,-468 1079.69,-385.7 1077.06,-360.07 1027,-280 1020.97,-270.35 1013.52,-260.08 1007.23,-251.79"/>
<polygon fill="midnightblue" stroke="midnightblue" points="1009.86,-249.47 1000.97,-243.69 1004.32,-253.75 1009.86,-249.47"/>
</g>
<!-- Node39&#45;&gt;Node1 -->
<g id="edge68" class="edge">
<title>Node39&#45;&gt;Node1</title>
<path fill="none" stroke="midnightblue" d="M1078.13,-825.75C1079.66,-832.86 1080.1,-843.14 1079.47,-852.1"/>
<polygon fill="midnightblue" stroke="midnightblue" points="1075.99,-851.71 1078.17,-862.08 1082.93,-852.62 1075.99,-851.71"/>
</g>
<!-- Node39&#45;&gt;Node2 -->
<g id="edge67" class="edge">
<title>Node39&#45;&gt;Node2</title>
<path fill="none" stroke="midnightblue" d="M1088.38,-806.37C1122.37,-787.29 1204.1,-741.42 1244.94,-718.51"/>
<polygon fill="midnightblue" stroke="midnightblue" points="1246.68,-721.54 1253.69,-713.59 1243.26,-715.43 1246.68,-721.54"/>
</g>
<!-- Node40 -->
<g id="node40" class="node">
<title>Node40</title>
<g id="a_node40"><a xlink:href="../../d1/d1f/ShiftRegisterOutRGB_8hpp.html" target="_top" xlink:title=" ">
<polygon fill="white" stroke="black" points="847,-392.5 847,-411.5 985,-411.5 985,-392.5 847,-392.5"/>
<text text-anchor="middle" x="916" y="-399.5" font-family="Helvetica,sans-Serif" font-size="10.00">ShiftRegisterOutRGB.hpp</text>
</a>
</g>
</g>
<!-- Node39&#45;&gt;Node40 -->
<g id="edge69" class="edge">
<title>Node39&#45;&gt;Node40</title>
<path fill="none" stroke="midnightblue" d="M1005.18,-806.42C980.2,-800.08 953.51,-789.09 935,-770 914.05,-748.39 916,-735.1 916,-705 916,-705 916,-705 916,-513 916,-480.95 916,-443.64 916,-421.75"/>
<polygon fill="midnightblue" stroke="midnightblue" points="919.5,-421.56 916,-411.56 912.5,-421.56 919.5,-421.56"/>
</g>
<!-- Node40&#45;&gt;Node16 -->
<g id="edge70" class="edge">
<title>Node40&#45;&gt;Node16</title>
<path fill="none" stroke="midnightblue" d="M881.46,-392.44C843.75,-383.1 783.26,-368.12 742.14,-357.93"/>
<polygon fill="midnightblue" stroke="midnightblue" points="742.93,-354.52 732.38,-355.52 741.25,-361.32 742.93,-354.52"/>
</g>
<!-- Node40&#45;&gt;Node22 -->
<g id="edge71" class="edge">
<title>Node40&#45;&gt;Node22</title>
<path fill="none" stroke="midnightblue" d="M920.19,-392.08C932.58,-365.72 969.15,-287.88 985.7,-252.66"/>
<polygon fill="midnightblue" stroke="midnightblue" points="988.89,-254.11 989.97,-243.57 982.55,-251.13 988.89,-254.11"/>
</g>
</g>
</svg>
