<?xml version="1.0" encoding="UTF-8" standalone="no"?>
<!DOCTYPE svg PUBLIC "-//W3C//DTD SVG 1.1//EN"
 "http://www.w3.org/Graphics/SVG/1.1/DTD/svg11.dtd">
<!-- Generated by graphviz version 2.43.0 (0)
 -->
<!-- Title: LEDs.hpp Pages: 1 -->
<svg width="1338pt" height="789pt"
 viewBox="0.00 0.00 1338.00 789.00" xmlns="http://www.w3.org/2000/svg" xmlns:xlink="http://www.w3.org/1999/xlink">
<g id="graph0" class="graph" transform="scale(1 1) rotate(0) translate(4 785)">
<title>LEDs.hpp</title>
<polygon fill="white" stroke="transparent" points="-4,4 -4,-785 1334,-785 1334,4 -4,4"/>
<!-- Node1 -->
<g id="node1" class="node">
<title>Node1</title>
<g id="a_node1"><a xlink:title=" ">
<polygon fill="#bfbfbf" stroke="black" points="1160,-761.5 1160,-780.5 1222,-780.5 1222,-761.5 1160,-761.5"/>
<text text-anchor="middle" x="1191" y="-768.5" font-family="Helvetica,sans-Serif" font-size="10.00">LEDs.hpp</text>
</a>
</g>
</g>
<!-- Node2 -->
<g id="node2" class="node">
<title>Node2</title>
<g id="a_node2"><a xlink:href="../../d1/d65/Warnings_8hpp.html" target="_top" xlink:title=" ">
<polygon fill="white" stroke="black" points="918.5,-0.5 918.5,-19.5 1061.5,-19.5 1061.5,-0.5 918.5,-0.5"/>
<text text-anchor="middle" x="990" y="-7.5" font-family="Helvetica,sans-Serif" font-size="10.00">AH/Settings/Warnings.hpp</text>
</a>
</g>
</g>
<!-- Node1&#45;&gt;Node2 -->
<g id="edge1" class="edge">
<title>Node1&#45;&gt;Node2</title>
<path fill="none" stroke="midnightblue" d="M1213.95,-761.47C1253.43,-745.15 1330,-705.5 1330,-643.5 1330,-643.5 1330,-643.5 1330,-121 1330,-82.28 1305.97,-74.57 1272,-56 1238.36,-37.61 1142.46,-25.02 1071.79,-17.93"/>
<polygon fill="midnightblue" stroke="midnightblue" points="1071.85,-14.42 1061.56,-16.92 1071.17,-21.39 1071.85,-14.42"/>
</g>
<!-- Node3 -->
<g id="node3" class="node">
<title>Node3</title>
<g id="a_node3"><a xlink:href="../../dd/ddf/ExtendedInputOutput_8hpp.html" target="_top" xlink:title=" ">
<polygon fill="white" stroke="black" points="996.5,-694.5 996.5,-724.5 1173.5,-724.5 1173.5,-694.5 996.5,-694.5"/>
<text text-anchor="start" x="1004.5" y="-712.5" font-family="Helvetica,sans-Serif" font-size="10.00">AH/Hardware/ExtendedInput</text>
<text text-anchor="middle" x="1085" y="-701.5" font-family="Helvetica,sans-Serif" font-size="10.00">Output/ExtendedInputOutput.hpp</text>
</a>
</g>
</g>
<!-- Node1&#45;&gt;Node3 -->
<g id="edge2" class="edge">
<title>Node1&#45;&gt;Node3</title>
<path fill="none" stroke="midnightblue" d="M1175.81,-761.48C1160.99,-753.15 1137.92,-740.21 1118.75,-729.45"/>
<polygon fill="midnightblue" stroke="midnightblue" points="1120.42,-726.37 1109.98,-724.52 1116.99,-732.47 1120.42,-726.37"/>
</g>
<!-- Node3&#45;&gt;Node2 -->
<g id="edge55" class="edge">
<title>Node3&#45;&gt;Node2</title>
<path fill="none" stroke="midnightblue" d="M1154.22,-694.49C1214.39,-677.79 1292,-643.31 1292,-576.5 1292,-576.5 1292,-576.5 1292,-121 1292,-85.09 1274.52,-74.92 1244,-56 1215.73,-38.47 1134.74,-26.13 1071.73,-18.86"/>
<polygon fill="midnightblue" stroke="midnightblue" points="1072.12,-15.38 1061.79,-17.74 1071.33,-22.34 1072.12,-15.38"/>
</g>
<!-- Node4 -->
<g id="node4" class="node">
<title>Node4</title>
<g id="a_node4"><a xlink:href="../../d2/d3c/Arduino-Hardware-Types_8hpp.html" target="_top" xlink:title=" ">
<polygon fill="white" stroke="black" points="853,-627.5 853,-657.5 975,-657.5 975,-627.5 853,-627.5"/>
<text text-anchor="start" x="861" y="-645.5" font-family="Helvetica,sans-Serif" font-size="10.00">AH/Hardware/Arduino</text>
<text text-anchor="middle" x="914" y="-634.5" font-family="Helvetica,sans-Serif" font-size="10.00">&#45;Hardware&#45;Types.hpp</text>
</a>
</g>
</g>
<!-- Node3&#45;&gt;Node4 -->
<g id="edge3" class="edge">
<title>Node3&#45;&gt;Node4</title>
<path fill="none" stroke="midnightblue" d="M1047.9,-694.4C1022.24,-684.64 987.91,-671.59 960.44,-661.15"/>
<polygon fill="midnightblue" stroke="midnightblue" points="961.62,-657.86 951.03,-657.58 959.14,-664.4 961.62,-657.86"/>
</g>
<!-- Node10 -->
<g id="node10" class="node">
<title>Node10</title>
<g id="a_node10"><a xlink:href="../../dc/dc7/NamespaceSettings_8hpp.html" target="_top" xlink:title=" ">
<polygon fill="white" stroke="black" points="308.5,-56.5 308.5,-75.5 503.5,-75.5 503.5,-56.5 308.5,-56.5"/>
<text text-anchor="middle" x="406" y="-63.5" font-family="Helvetica,sans-Serif" font-size="10.00">AH/Settings/NamespaceSettings.hpp</text>
</a>
</g>
</g>
<!-- Node3&#45;&gt;Node10 -->
<g id="edge54" class="edge">
<title>Node3&#45;&gt;Node10</title>
<path fill="none" stroke="midnightblue" d="M996.29,-704.27C774.57,-692.51 214,-655.03 214,-576.5 214,-576.5 214,-576.5 214,-345 214,-225.54 269.08,-201.67 348,-112 358.33,-100.26 372.09,-89.43 383.61,-81.34"/>
<polygon fill="midnightblue" stroke="midnightblue" points="385.58,-84.23 391.89,-75.72 381.65,-78.44 385.58,-84.23"/>
</g>
<!-- Node29 -->
<g id="node29" class="node">
<title>Node29</title>
<g id="a_node29"><a xlink:title=" ">
<polygon fill="white" stroke="#bfbfbf" points="1041.5,-633 1041.5,-652 1128.5,-652 1128.5,-633 1041.5,-633"/>
<text text-anchor="middle" x="1085" y="-640" font-family="Helvetica,sans-Serif" font-size="10.00">AH/STL/climits</text>
</a>
</g>
</g>
<!-- Node3&#45;&gt;Node29 -->
<g id="edge53" class="edge">
<title>Node3&#45;&gt;Node29</title>
<path fill="none" stroke="midnightblue" d="M1085,-694.4C1085,-685.06 1085,-672.71 1085,-662.52"/>
<polygon fill="midnightblue" stroke="midnightblue" points="1088.5,-662.19 1085,-652.19 1081.5,-662.19 1088.5,-662.19"/>
</g>
<!-- Node4&#45;&gt;Node2 -->
<g id="edge4" class="edge">
<title>Node4&#45;&gt;Node2</title>
<path fill="none" stroke="midnightblue" d="M975.18,-631.65C1073.07,-614.13 1254,-573.81 1254,-515 1254,-515 1254,-515 1254,-121 1254,-41.05 1149.56,-18.16 1072.05,-12.17"/>
<polygon fill="midnightblue" stroke="midnightblue" points="1072.01,-8.66 1061.79,-11.47 1071.53,-15.65 1072.01,-8.66"/>
</g>
<!-- Node5 -->
<g id="node5" class="node">
<title>Node5</title>
<g id="a_node5"><a xlink:href="../../d4/d35/Hardware-Types_8hpp.html" target="_top" xlink:title=" ">
<polygon fill="white" stroke="black" points="848.5,-560.5 848.5,-590.5 979.5,-590.5 979.5,-560.5 848.5,-560.5"/>
<text text-anchor="start" x="856.5" y="-578.5" font-family="Helvetica,sans-Serif" font-size="10.00">AH/Hardware/Hardware</text>
<text text-anchor="middle" x="914" y="-567.5" font-family="Helvetica,sans-Serif" font-size="10.00">&#45;Types.hpp</text>
</a>
</g>
</g>
<!-- Node4&#45;&gt;Node5 -->
<g id="edge5" class="edge">
<title>Node4&#45;&gt;Node5</title>
<path fill="none" stroke="midnightblue" d="M914,-627.4C914,-619.64 914,-609.81 914,-600.86"/>
<polygon fill="midnightblue" stroke="midnightblue" points="917.5,-600.58 914,-590.58 910.5,-600.58 917.5,-600.58"/>
</g>
<!-- Node11 -->
<g id="node11" class="node">
<title>Node11</title>
<g id="a_node11"><a xlink:href="../../d6/ddf/Arduino-Wrapper_8h.html" target="_top" xlink:title=" ">
<polygon fill="white" stroke="black" points="624,-168.5 624,-187.5 748,-187.5 748,-168.5 624,-168.5"/>
<text text-anchor="middle" x="686" y="-175.5" font-family="Helvetica,sans-Serif" font-size="10.00">AH/Arduino&#45;Wrapper.h</text>
</a>
</g>
</g>
<!-- Node4&#45;&gt;Node11 -->
<g id="edge52" class="edge">
<title>Node4&#45;&gt;Node11</title>
<path fill="none" stroke="midnightblue" d="M852.95,-641.13C702.86,-638.58 328,-621.55 328,-515 328,-515 328,-515 328,-289 328,-258.9 324.16,-243.6 347,-224 385.84,-190.67 526.15,-181.82 613.62,-179.6"/>
<polygon fill="midnightblue" stroke="midnightblue" points="613.83,-183.1 623.75,-179.37 613.67,-176.1 613.83,-183.1"/>
</g>
<!-- Node26 -->
<g id="node26" class="node">
<title>Node26</title>
<g id="a_node26"><a xlink:href="../../d0/db1/FunctionTraits_8hpp.html" target="_top" xlink:title=" ">
<polygon fill="white" stroke="black" points="61.5,-112.5 61.5,-131.5 214.5,-131.5 214.5,-112.5 61.5,-112.5"/>
<text text-anchor="middle" x="138" y="-119.5" font-family="Helvetica,sans-Serif" font-size="10.00">AH/Types/FunctionTraits.hpp</text>
</a>
</g>
</g>
<!-- Node4&#45;&gt;Node26 -->
<g id="edge47" class="edge">
<title>Node4&#45;&gt;Node26</title>
<path fill="none" stroke="midnightblue" d="M852.55,-640.06C727.04,-636.46 445.53,-624.77 356,-591 302.43,-570.8 252,-572.25 252,-515 252,-515 252,-515 252,-345 252,-259.92 184.93,-174.75 153.68,-139.68"/>
<polygon fill="midnightblue" stroke="midnightblue" points="155.89,-136.91 146.57,-131.88 150.72,-141.62 155.89,-136.91"/>
</g>
<!-- Node5&#45;&gt;Node2 -->
<g id="edge6" class="edge">
<title>Node5&#45;&gt;Node2</title>
<path fill="none" stroke="midnightblue" d="M979.74,-567.27C1045.16,-559.08 1140.14,-544.2 1171,-524 1200.4,-504.76 1216,-494.14 1216,-459 1216,-459 1216,-459 1216,-121 1216,-54.73 1136.46,-28.37 1071.75,-17.9"/>
<polygon fill="midnightblue" stroke="midnightblue" points="1071.92,-14.38 1061.51,-16.35 1070.87,-21.31 1071.92,-14.38"/>
</g>
<!-- Node6 -->
<g id="node6" class="node">
<title>Node6</title>
<g id="a_node6"><a xlink:href="../../de/d76/Array_8hpp.html" target="_top" xlink:title=" ">
<polygon fill="white" stroke="black" points="926.5,-504.5 926.5,-523.5 1061.5,-523.5 1061.5,-504.5 926.5,-504.5"/>
<text text-anchor="middle" x="994" y="-511.5" font-family="Helvetica,sans-Serif" font-size="10.00">AH/Containers/Array.hpp</text>
</a>
</g>
</g>
<!-- Node5&#45;&gt;Node6 -->
<g id="edge7" class="edge">
<title>Node5&#45;&gt;Node6</title>
<path fill="none" stroke="midnightblue" d="M932.96,-560.4C945.42,-551.13 961.7,-539.03 974.31,-529.65"/>
<polygon fill="midnightblue" stroke="midnightblue" points="976.42,-532.43 982.36,-523.66 972.25,-526.82 976.42,-532.43"/>
</g>
<!-- Node9 -->
<g id="node9" class="node">
<title>Node9</title>
<g id="a_node9"><a xlink:href="../../dd/d80/PrintStream_8hpp.html" target="_top" xlink:title=" ">
<polygon fill="white" stroke="black" points="356.5,-224.5 356.5,-243.5 529.5,-243.5 529.5,-224.5 356.5,-224.5"/>
<text text-anchor="middle" x="443" y="-231.5" font-family="Helvetica,sans-Serif" font-size="10.00">AH/PrintStream/PrintStream.hpp</text>
</a>
</g>
</g>
<!-- Node5&#45;&gt;Node9 -->
<g id="edge43" class="edge">
<title>Node5&#45;&gt;Node9</title>
<path fill="none" stroke="midnightblue" d="M848.28,-571.34C722.91,-563.52 462,-537.77 462,-459 462,-459 462,-459 462,-345 462,-312.49 453.84,-275.35 448.22,-253.61"/>
<polygon fill="midnightblue" stroke="midnightblue" points="451.54,-252.5 445.56,-243.75 444.78,-254.32 451.54,-252.5"/>
</g>
<!-- Node5&#45;&gt;Node10 -->
<g id="edge45" class="edge">
<title>Node5&#45;&gt;Node10</title>
<path fill="none" stroke="midnightblue" d="M848.42,-571.22C747.07,-565.38 557.62,-551.15 496,-524 385.54,-475.33 290,-467.71 290,-347 290,-347 290,-347 290,-289 290,-203.25 358.83,-117.88 390.45,-83.19"/>
<polygon fill="midnightblue" stroke="midnightblue" points="393.03,-85.55 397.28,-75.85 387.91,-80.78 393.03,-85.55"/>
</g>
<!-- Node22 -->
<g id="node22" class="node">
<title>Node22</title>
<g id="a_node22"><a xlink:title=" ">
<polygon fill="white" stroke="#bfbfbf" points="870.5,-224.5 870.5,-243.5 923.5,-243.5 923.5,-224.5 870.5,-224.5"/>
<text text-anchor="middle" x="897" y="-231.5" font-family="Helvetica,sans-Serif" font-size="10.00">stdint.h</text>
</a>
</g>
</g>
<!-- Node5&#45;&gt;Node22 -->
<g id="edge46" class="edge">
<title>Node5&#45;&gt;Node22</title>
<path fill="none" stroke="midnightblue" d="M902.68,-560.42C887.86,-540.99 862.64,-504.24 853,-468 841.66,-425.39 859.49,-492.6 892,-300 894.59,-284.64 895.84,-267 896.45,-253.98"/>
<polygon fill="midnightblue" stroke="midnightblue" points="899.95,-254.02 896.82,-243.89 892.95,-253.75 899.95,-254.02"/>
</g>
<!-- Node25 -->
<g id="node25" class="node">
<title>Node25</title>
<g id="a_node25"><a xlink:title=" ">
<polygon fill="white" stroke="#bfbfbf" points="1080,-504.5 1080,-523.5 1162,-523.5 1162,-504.5 1080,-504.5"/>
<text text-anchor="middle" x="1121" y="-511.5" font-family="Helvetica,sans-Serif" font-size="10.00">AH/STL/limits</text>
</a>
</g>
</g>
<!-- Node5&#45;&gt;Node25 -->
<g id="edge44" class="edge">
<title>Node5&#45;&gt;Node25</title>
<path fill="none" stroke="midnightblue" d="M962.79,-560.47C998.97,-550.08 1047.67,-536.08 1081.44,-526.37"/>
<polygon fill="midnightblue" stroke="midnightblue" points="1082.76,-529.63 1091.41,-523.51 1080.83,-522.91 1082.76,-529.63"/>
</g>
<!-- Node6&#45;&gt;Node2 -->
<g id="edge8" class="edge">
<title>Node6&#45;&gt;Node2</title>
<path fill="none" stroke="midnightblue" d="M1057.22,-504.46C1085.22,-498.12 1117.15,-487.1 1141,-468 1166.95,-447.22 1178,-436.24 1178,-403 1178,-403 1178,-403 1178,-121 1178,-62.88 1110.25,-34.9 1056.09,-21.82"/>
<polygon fill="midnightblue" stroke="midnightblue" points="1056.68,-18.36 1046.15,-19.54 1055.12,-25.19 1056.68,-18.36"/>
</g>
<!-- Node7 -->
<g id="node7" class="node">
<title>Node7</title>
<g id="a_node7"><a xlink:href="../../d1/d93/Error_8hpp.html" target="_top" xlink:title=" ">
<polygon fill="white" stroke="black" points="862,-448.5 862,-467.5 966,-467.5 966,-448.5 862,-448.5"/>
<text text-anchor="middle" x="914" y="-455.5" font-family="Helvetica,sans-Serif" font-size="10.00">AH/Error/Error.hpp</text>
</a>
</g>
</g>
<!-- Node6&#45;&gt;Node7 -->
<g id="edge9" class="edge">
<title>Node6&#45;&gt;Node7</title>
<path fill="none" stroke="midnightblue" d="M981.15,-504.32C968.78,-495.98 949.87,-483.21 935.26,-473.35"/>
<polygon fill="midnightblue" stroke="midnightblue" points="937.07,-470.35 926.82,-467.65 933.15,-476.15 937.07,-470.35"/>
</g>
<!-- Node15 -->
<g id="node15" class="node">
<title>Node15</title>
<g id="a_node15"><a xlink:title=" ">
<polygon fill="white" stroke="#bfbfbf" points="740.5,-112.5 740.5,-131.5 847.5,-131.5 847.5,-112.5 740.5,-112.5"/>
<text text-anchor="middle" x="794" y="-119.5" font-family="Helvetica,sans-Serif" font-size="10.00">AH/STL/type_traits</text>
</a>
</g>
</g>
<!-- Node6&#45;&gt;Node15 -->
<g id="edge41" class="edge">
<title>Node6&#45;&gt;Node15</title>
<path fill="none" stroke="midnightblue" d="M1051.94,-504.46C1076.21,-498.13 1102.92,-487.12 1121,-468 1141.68,-446.13 1140,-433.1 1140,-403 1140,-403 1140,-403 1140,-289 1140,-258.9 1142.12,-245.44 1121,-224 1050.72,-152.64 931.21,-131.47 857.78,-125.32"/>
<polygon fill="midnightblue" stroke="midnightblue" points="857.97,-121.83 847.73,-124.55 857.43,-128.81 857.97,-121.83"/>
</g>
<!-- Node21 -->
<g id="node21" class="node">
<title>Node21</title>
<g id="a_node21"><a xlink:title=" ">
<polygon fill="white" stroke="#bfbfbf" points="1056,-224.5 1056,-243.5 1112,-243.5 1112,-224.5 1056,-224.5"/>
<text text-anchor="middle" x="1084" y="-231.5" font-family="Helvetica,sans-Serif" font-size="10.00">stddef.h</text>
</a>
</g>
</g>
<!-- Node6&#45;&gt;Node21 -->
<g id="edge42" class="edge">
<title>Node6&#45;&gt;Node21</title>
<path fill="none" stroke="midnightblue" d="M995.44,-504.18C997.79,-491.27 1003.2,-466.76 1013,-448 1022.51,-429.79 1032.96,-430.45 1042,-412 1068.35,-358.21 1078.71,-286.99 1082.31,-253.67"/>
<polygon fill="midnightblue" stroke="midnightblue" points="1085.81,-253.86 1083.31,-243.56 1078.84,-253.16 1085.81,-253.86"/>
</g>
<!-- Node24 -->
<g id="node24" class="node">
<title>Node24</title>
<g id="a_node24"><a xlink:title=" ">
<polygon fill="white" stroke="#bfbfbf" points="1022,-448.5 1022,-467.5 1112,-467.5 1112,-448.5 1022,-448.5"/>
<text text-anchor="middle" x="1067" y="-455.5" font-family="Helvetica,sans-Serif" font-size="10.00">AH/STL/iterator</text>
</a>
</g>
</g>
<!-- Node6&#45;&gt;Node24 -->
<g id="edge40" class="edge">
<title>Node6&#45;&gt;Node24</title>
<path fill="none" stroke="midnightblue" d="M1005.73,-504.32C1016.84,-496.11 1033.74,-483.6 1046.98,-473.81"/>
<polygon fill="midnightblue" stroke="midnightblue" points="1049.1,-476.59 1055.06,-467.83 1044.94,-470.97 1049.1,-476.59"/>
</g>
<!-- Node7&#45;&gt;Node2 -->
<g id="edge10" class="edge">
<title>Node7&#45;&gt;Node2</title>
<path fill="none" stroke="midnightblue" d="M934.64,-448.42C967.5,-433.23 1028,-398.29 1028,-347 1028,-347 1028,-347 1028,-289 1028,-185.1 1033.74,-156.91 1009,-56 1006.73,-46.73 1002.78,-36.92 999.08,-28.83"/>
<polygon fill="midnightblue" stroke="midnightblue" points="1002.15,-27.16 994.65,-19.68 995.85,-30.21 1002.15,-27.16"/>
</g>
<!-- Node8 -->
<g id="node8" class="node">
<title>Node8</title>
<g id="a_node8"><a xlink:href="../../df/dee/Debug_8hpp.html" target="_top" xlink:title=" ">
<polygon fill="white" stroke="black" points="695.5,-392.5 695.5,-411.5 816.5,-411.5 816.5,-392.5 695.5,-392.5"/>
<text text-anchor="middle" x="756" y="-399.5" font-family="Helvetica,sans-Serif" font-size="10.00">AH/Debug/Debug.hpp</text>
</a>
</g>
</g>
<!-- Node7&#45;&gt;Node8 -->
<g id="edge11" class="edge">
<title>Node7&#45;&gt;Node8</title>
<path fill="none" stroke="midnightblue" d="M888.96,-448.44C862.38,-439.36 820.19,-424.94 790.48,-414.78"/>
<polygon fill="midnightblue" stroke="midnightblue" points="791.51,-411.44 780.92,-411.52 789.25,-418.06 791.51,-411.44"/>
</g>
<!-- Node8&#45;&gt;Node2 -->
<g id="edge12" class="edge">
<title>Node8&#45;&gt;Node2</title>
<path fill="none" stroke="midnightblue" d="M783.64,-392.44C823.07,-378.9 895.42,-348.94 938,-300 1007.38,-220.25 998.49,-80.1 992.6,-29.71"/>
<polygon fill="midnightblue" stroke="midnightblue" points="996.05,-29.11 991.31,-19.63 989.11,-30 996.05,-29.11"/>
</g>
<!-- Node8&#45;&gt;Node9 -->
<g id="edge13" class="edge">
<title>Node8&#45;&gt;Node9</title>
<path fill="none" stroke="midnightblue" d="M736.78,-392.35C716.97,-383.4 685.23,-368.94 658,-356 607.01,-331.78 593.15,-327.77 544,-300 515.5,-283.9 483.98,-263.11 463.86,-249.43"/>
<polygon fill="midnightblue" stroke="midnightblue" points="465.7,-246.45 455.47,-243.69 461.74,-252.22 465.7,-246.45"/>
</g>
<!-- Node16 -->
<g id="node16" class="node">
<title>Node16</title>
<g id="a_node16"><a xlink:href="../../d2/dd5/SettingsWrapper_8hpp.html" target="_top" xlink:title=" ">
<polygon fill="white" stroke="black" points="667,-336.5 667,-355.5 845,-355.5 845,-336.5 667,-336.5"/>
<text text-anchor="middle" x="756" y="-343.5" font-family="Helvetica,sans-Serif" font-size="10.00">AH/Settings/SettingsWrapper.hpp</text>
</a>
</g>
</g>
<!-- Node8&#45;&gt;Node16 -->
<g id="edge25" class="edge">
<title>Node8&#45;&gt;Node16</title>
<path fill="none" stroke="midnightblue" d="M750.83,-392.08C749.32,-384.93 748.89,-374.64 749.54,-365.69"/>
<polygon fill="midnightblue" stroke="midnightblue" points="753.02,-366.13 750.87,-355.75 746.08,-365.2 753.02,-366.13"/>
</g>
<!-- Node9&#45;&gt;Node2 -->
<g id="edge15" class="edge">
<title>Node9&#45;&gt;Node2</title>
<path fill="none" stroke="midnightblue" d="M529.6,-229.15C593.8,-224.26 682.67,-213.16 757,-188 805.25,-171.67 817.49,-164.15 857,-132 891.7,-103.76 889.47,-85.62 923,-56 936.31,-44.24 952.86,-33.1 966.19,-24.84"/>
<polygon fill="midnightblue" stroke="midnightblue" points="968.08,-27.79 974.82,-19.61 964.45,-21.8 968.08,-27.79"/>
</g>
<!-- Node9&#45;&gt;Node10 -->
<g id="edge14" class="edge">
<title>Node9&#45;&gt;Node10</title>
<path fill="none" stroke="midnightblue" d="M436.85,-224.36C425.31,-207.56 400.78,-168.88 392,-132 388.24,-116.23 392.82,-98.2 397.72,-85.13"/>
<polygon fill="midnightblue" stroke="midnightblue" points="400.97,-86.44 401.57,-75.86 394.5,-83.76 400.97,-86.44"/>
</g>
<!-- Node9&#45;&gt;Node11 -->
<g id="edge16" class="edge">
<title>Node9&#45;&gt;Node11</title>
<path fill="none" stroke="midnightblue" d="M481.5,-224.44C523.81,-215.04 591.82,-199.93 637.67,-189.74"/>
<polygon fill="midnightblue" stroke="midnightblue" points="638.67,-193.1 647.68,-187.52 637.15,-186.27 638.67,-193.1"/>
</g>
<!-- Node12 -->
<g id="node12" class="node">
<title>Node12</title>
<g id="a_node12"><a xlink:href="../../d7/d79/MinMaxFix_8hpp.html" target="_top" xlink:title=" ">
<polygon fill="white" stroke="black" points="586,-112.5 586,-131.5 722,-131.5 722,-112.5 586,-112.5"/>
<text text-anchor="middle" x="654" y="-119.5" font-family="Helvetica,sans-Serif" font-size="10.00">AH/Math/MinMaxFix.hpp</text>
</a>
</g>
</g>
<!-- Node11&#45;&gt;Node12 -->
<g id="edge17" class="edge">
<title>Node11&#45;&gt;Node12</title>
<path fill="none" stroke="midnightblue" d="M680.72,-168.08C676.29,-160.61 669.84,-149.72 664.38,-140.52"/>
<polygon fill="midnightblue" stroke="midnightblue" points="667.29,-138.57 659.19,-131.75 661.27,-142.14 667.29,-138.57"/>
</g>
<!-- Node14 -->
<g id="node14" class="node">
<title>Node14</title>
<g id="a_node14"><a xlink:title=" ">
<polygon fill="white" stroke="#bfbfbf" points="436.5,-0.5 436.5,-19.5 499.5,-19.5 499.5,-0.5 436.5,-0.5"/>
<text text-anchor="middle" x="468" y="-7.5" font-family="Helvetica,sans-Serif" font-size="10.00">Arduino.h</text>
</a>
</g>
</g>
<!-- Node11&#45;&gt;Node14 -->
<g id="edge24" class="edge">
<title>Node11&#45;&gt;Node14</title>
<path fill="none" stroke="midnightblue" d="M623.72,-170.71C523.55,-159.08 334.28,-130.29 299,-76 267.81,-28.01 366.47,-15.4 426.05,-12.12"/>
<polygon fill="midnightblue" stroke="midnightblue" points="426.51,-15.61 436.33,-11.63 426.17,-8.62 426.51,-15.61"/>
</g>
<!-- Node11&#45;&gt;Node15 -->
<g id="edge23" class="edge">
<title>Node11&#45;&gt;Node15</title>
<path fill="none" stroke="midnightblue" d="M703.35,-168.32C720.67,-159.66 747.52,-146.24 767.5,-136.25"/>
<polygon fill="midnightblue" stroke="midnightblue" points="769.31,-139.26 776.69,-131.65 766.18,-133 769.31,-139.26"/>
</g>
<!-- Node12&#45;&gt;Node2 -->
<g id="edge18" class="edge">
<title>Node12&#45;&gt;Node2</title>
<path fill="none" stroke="midnightblue" d="M680.09,-112.46C739.63,-92.97 885.66,-45.16 953.84,-22.84"/>
<polygon fill="midnightblue" stroke="midnightblue" points="955.28,-26.05 963.7,-19.61 953.11,-19.4 955.28,-26.05"/>
</g>
<!-- Node12&#45;&gt;Node10 -->
<g id="edge22" class="edge">
<title>Node12&#45;&gt;Node10</title>
<path fill="none" stroke="midnightblue" d="M614.7,-112.44C571.44,-103.02 501.83,-87.87 455.03,-77.68"/>
<polygon fill="midnightblue" stroke="midnightblue" points="455.63,-74.22 445.11,-75.52 454.14,-81.06 455.63,-74.22"/>
</g>
<!-- Node13 -->
<g id="node13" class="node">
<title>Node13</title>
<g id="a_node13"><a xlink:href="../../d6/d3b/FixArduinoMacros_8hpp.html" target="_top" xlink:title=" ">
<polygon fill="white" stroke="black" points="569,-56.5 569,-75.5 739,-75.5 739,-56.5 569,-56.5"/>
<text text-anchor="middle" x="654" y="-63.5" font-family="Helvetica,sans-Serif" font-size="10.00">AH/Math/FixArduinoMacros.hpp</text>
</a>
</g>
</g>
<!-- Node12&#45;&gt;Node13 -->
<g id="edge19" class="edge">
<title>Node12&#45;&gt;Node13</title>
<path fill="none" stroke="midnightblue" d="M654,-112.08C654,-105.01 654,-94.86 654,-85.99"/>
<polygon fill="midnightblue" stroke="midnightblue" points="657.5,-85.75 654,-75.75 650.5,-85.75 657.5,-85.75"/>
</g>
<!-- Node13&#45;&gt;Node2 -->
<g id="edge20" class="edge">
<title>Node13&#45;&gt;Node2</title>
<path fill="none" stroke="midnightblue" d="M707.24,-56.44C766.96,-46.85 863.74,-31.29 927.13,-21.1"/>
<polygon fill="midnightblue" stroke="midnightblue" points="927.69,-24.56 937.01,-19.52 926.58,-17.65 927.69,-24.56"/>
</g>
<!-- Node13&#45;&gt;Node14 -->
<g id="edge21" class="edge">
<title>Node13&#45;&gt;Node14</title>
<path fill="none" stroke="midnightblue" d="M624.53,-56.44C592.83,-47.24 542.27,-32.56 507.23,-22.39"/>
<polygon fill="midnightblue" stroke="midnightblue" points="507.91,-18.94 497.33,-19.52 505.96,-25.67 507.91,-18.94"/>
</g>
<!-- Node16&#45;&gt;Node2 -->
<g id="edge26" class="edge">
<title>Node16&#45;&gt;Node2</title>
<path fill="none" stroke="midnightblue" d="M818.28,-336.48C875.68,-324.71 952,-297.34 952,-235 952,-235 952,-235 952,-121 952,-86.81 968.6,-49.76 979.86,-28.57"/>
<polygon fill="midnightblue" stroke="midnightblue" points="982.95,-30.22 984.72,-19.77 976.82,-26.83 982.95,-30.22"/>
</g>
<!-- Node16&#45;&gt;Node8 -->
<g id="edge39" class="edge">
<title>Node16&#45;&gt;Node8</title>
<path fill="none" stroke="midnightblue" d="M761.13,-355.75C762.66,-362.86 763.1,-373.14 762.47,-382.1"/>
<polygon fill="midnightblue" stroke="midnightblue" points="758.99,-381.71 761.17,-392.08 765.93,-382.62 758.99,-381.71"/>
</g>
<!-- Node16&#45;&gt;Node10 -->
<g id="edge27" class="edge">
<title>Node16&#45;&gt;Node10</title>
<path fill="none" stroke="midnightblue" d="M702.27,-336.43C672.22,-329.85 635.07,-318.63 606,-300 568.09,-275.71 571.53,-255.14 539,-224 491.97,-178.97 461.12,-186.17 425,-132 415.73,-118.09 410.89,-99.58 408.43,-85.87"/>
<polygon fill="midnightblue" stroke="midnightblue" points="411.84,-85.05 406.87,-75.69 404.92,-86.11 411.84,-85.05"/>
</g>
<!-- Node17 -->
<g id="node17" class="node">
<title>Node17</title>
<g id="a_node17"><a xlink:href="../../db/d02/Settings_8hpp.html" target="_top" xlink:title="All user settings and debugging options can be changed here.">
<polygon fill="white" stroke="black" points="614.5,-280.5 614.5,-299.5 691.5,-299.5 691.5,-280.5 614.5,-280.5"/>
<text text-anchor="middle" x="653" y="-287.5" font-family="Helvetica,sans-Serif" font-size="10.00">Settings.hpp</text>
</a>
</g>
</g>
<!-- Node16&#45;&gt;Node17 -->
<g id="edge28" class="edge">
<title>Node16&#45;&gt;Node17</title>
<path fill="none" stroke="midnightblue" d="M739.45,-336.32C723.01,-327.7 697.57,-314.36 678.53,-304.39"/>
<polygon fill="midnightblue" stroke="midnightblue" points="679.99,-301.2 669.51,-299.65 676.74,-307.4 679.99,-301.2"/>
</g>
<!-- Node23 -->
<g id="node23" class="node">
<title>Node23</title>
<g id="a_node23"><a xlink:href="../../d9/d98/TeensyUSBTypes_8hpp.html" target="_top" xlink:title=" ">
<polygon fill="white" stroke="black" points="709.5,-280.5 709.5,-299.5 882.5,-299.5 882.5,-280.5 709.5,-280.5"/>
<text text-anchor="middle" x="796" y="-287.5" font-family="Helvetica,sans-Serif" font-size="10.00">AH/Teensy/TeensyUSBTypes.hpp</text>
</a>
</g>
</g>
<!-- Node16&#45;&gt;Node23 -->
<g id="edge38" class="edge">
<title>Node16&#45;&gt;Node23</title>
<path fill="none" stroke="midnightblue" d="M762.61,-336.08C768.26,-328.46 776.54,-317.26 783.45,-307.94"/>
<polygon fill="midnightblue" stroke="midnightblue" points="786.38,-309.87 789.52,-299.75 780.75,-305.7 786.38,-309.87"/>
</g>
<!-- Node18 -->
<g id="node18" class="node">
<title>Node18</title>
<g id="a_node18"><a xlink:href="../../dc/d50/Frequency_8hpp.html" target="_top" xlink:title=" ">
<polygon fill="white" stroke="black" points="434,-112.5 434,-131.5 568,-131.5 568,-112.5 434,-112.5"/>
<text text-anchor="middle" x="501" y="-119.5" font-family="Helvetica,sans-Serif" font-size="10.00">AH/Types/Frequency.hpp</text>
</a>
</g>
</g>
<!-- Node17&#45;&gt;Node18 -->
<g id="edge29" class="edge">
<title>Node17&#45;&gt;Node18</title>
<path fill="none" stroke="midnightblue" d="M644.83,-280.08C620.38,-253.38 547.58,-173.87 515.95,-139.32"/>
<polygon fill="midnightblue" stroke="midnightblue" points="518.18,-136.58 508.85,-131.57 513.02,-141.31 518.18,-136.58"/>
</g>
<!-- Node19 -->
<g id="node19" class="node">
<title>Node19</title>
<g id="a_node19"><a xlink:href="../../d7/d7c/ADCConfig_8hpp.html" target="_top" xlink:title="This file contains the platform&#45;specific ADC resolutions.">
<polygon fill="white" stroke="black" points="695.5,-224.5 695.5,-243.5 852.5,-243.5 852.5,-224.5 695.5,-224.5"/>
<text text-anchor="middle" x="774" y="-231.5" font-family="Helvetica,sans-Serif" font-size="10.00">AH/Hardware/ADCConfig.hpp</text>
</a>
</g>
</g>
<!-- Node17&#45;&gt;Node19 -->
<g id="edge32" class="edge">
<title>Node17&#45;&gt;Node19</title>
<path fill="none" stroke="midnightblue" d="M672.17,-280.44C691.91,-271.64 722.89,-257.81 745.49,-247.72"/>
<polygon fill="midnightblue" stroke="midnightblue" points="747.21,-250.79 754.92,-243.52 744.36,-244.4 747.21,-250.79"/>
</g>
<!-- Node20 -->
<g id="node20" class="node">
<title>Node20</title>
<g id="a_node20"><a xlink:title=" ">
<polygon fill="white" stroke="#bfbfbf" points="624.5,-224.5 624.5,-243.5 677.5,-243.5 677.5,-224.5 624.5,-224.5"/>
<text text-anchor="middle" x="651" y="-231.5" font-family="Helvetica,sans-Serif" font-size="10.00">limits.h</text>
</a>
</g>
</g>
<!-- Node17&#45;&gt;Node20 -->
<g id="edge35" class="edge">
<title>Node17&#45;&gt;Node20</title>
<path fill="none" stroke="midnightblue" d="M652.67,-280.08C652.41,-273.01 652.03,-262.86 651.7,-253.99"/>
<polygon fill="midnightblue" stroke="midnightblue" points="655.19,-253.61 651.32,-243.75 648.2,-253.87 655.19,-253.61"/>
</g>
<!-- Node17&#45;&gt;Node21 -->
<g id="edge36" class="edge">
<title>Node17&#45;&gt;Node21</title>
<path fill="none" stroke="midnightblue" d="M691.73,-281.5C694.86,-280.97 697.98,-280.46 701,-280 826.6,-260.87 976.43,-245.38 1045.57,-238.64"/>
<polygon fill="midnightblue" stroke="midnightblue" points="1045.95,-242.12 1055.56,-237.67 1045.27,-235.15 1045.95,-242.12"/>
</g>
<!-- Node17&#45;&gt;Node22 -->
<g id="edge37" class="edge">
<title>Node17&#45;&gt;Node22</title>
<path fill="none" stroke="midnightblue" d="M691.62,-281.16C731.59,-272.94 796.07,-259.39 860.38,-244.32"/>
<polygon fill="midnightblue" stroke="midnightblue" points="861.34,-247.69 870.27,-241.99 859.74,-240.88 861.34,-247.69"/>
</g>
<!-- Node18&#45;&gt;Node2 -->
<g id="edge30" class="edge">
<title>Node18&#45;&gt;Node2</title>
<path fill="none" stroke="midnightblue" d="M557.52,-112.48C619.09,-102.88 713.42,-87.17 748,-76 767.67,-69.65 770.46,-62.76 790,-56 834.96,-40.45 887.5,-28.87 927.44,-21.36"/>
<polygon fill="midnightblue" stroke="midnightblue" points="928.12,-24.79 937.31,-19.53 926.84,-17.91 928.12,-24.79"/>
</g>
<!-- Node18&#45;&gt;Node10 -->
<g id="edge31" class="edge">
<title>Node18&#45;&gt;Node10</title>
<path fill="none" stroke="midnightblue" d="M485.74,-112.32C470.78,-103.82 447.75,-90.73 430.27,-80.8"/>
<polygon fill="midnightblue" stroke="midnightblue" points="431.65,-77.55 421.23,-75.65 428.19,-83.64 431.65,-77.55"/>
</g>
<!-- Node19&#45;&gt;Node2 -->
<g id="edge33" class="edge">
<title>Node19&#45;&gt;Node2</title>
<path fill="none" stroke="midnightblue" d="M820.63,-224.48C844.13,-218.03 871.49,-206.91 890,-188 933.67,-143.39 902.59,-107.41 938,-56 946.15,-44.17 958.12,-33.52 968.53,-25.55"/>
<polygon fill="midnightblue" stroke="midnightblue" points="970.77,-28.25 976.78,-19.53 966.64,-22.6 970.77,-28.25"/>
</g>
<!-- Node19&#45;&gt;Node11 -->
<g id="edge34" class="edge">
<title>Node19&#45;&gt;Node11</title>
<path fill="none" stroke="midnightblue" d="M759.86,-224.32C746.13,-215.9 725.06,-202.97 708.94,-193.07"/>
<polygon fill="midnightblue" stroke="midnightblue" points="710.46,-189.9 700.1,-187.65 706.8,-195.87 710.46,-189.9"/>
</g>
<!-- Node26&#45;&gt;Node2 -->
<g id="edge50" class="edge">
<title>Node26&#45;&gt;Node2</title>
<path fill="none" stroke="midnightblue" d="M154.35,-112.35C182.82,-97.75 243.75,-68.61 299,-56 412.76,-30.04 751.29,-17.58 908.32,-13.07"/>
<polygon fill="midnightblue" stroke="midnightblue" points="908.5,-16.56 918.4,-12.78 908.3,-9.57 908.5,-16.56"/>
</g>
<!-- Node26&#45;&gt;Node10 -->
<g id="edge51" class="edge">
<title>Node26&#45;&gt;Node10</title>
<path fill="none" stroke="midnightblue" d="M180.47,-112.44C227.41,-102.98 303.08,-87.74 353.65,-77.55"/>
<polygon fill="midnightblue" stroke="midnightblue" points="354.62,-80.92 363.73,-75.52 353.24,-74.06 354.62,-80.92"/>
</g>
<!-- Node27 -->
<g id="node27" class="node">
<title>Node27</title>
<g id="a_node27"><a xlink:title=" ">
<polygon fill="white" stroke="#bfbfbf" points="0,-56.5 0,-75.5 90,-75.5 90,-56.5 0,-56.5"/>
<text text-anchor="middle" x="45" y="-63.5" font-family="Helvetica,sans-Serif" font-size="10.00">AH/STL/cstddef</text>
</a>
</g>
</g>
<!-- Node26&#45;&gt;Node27 -->
<g id="edge48" class="edge">
<title>Node26&#45;&gt;Node27</title>
<path fill="none" stroke="midnightblue" d="M123.06,-112.32C108.41,-103.82 85.87,-90.73 68.76,-80.8"/>
<polygon fill="midnightblue" stroke="midnightblue" points="70.31,-77.65 59.9,-75.65 66.8,-83.7 70.31,-77.65"/>
</g>
<!-- Node28 -->
<g id="node28" class="node">
<title>Node28</title>
<g id="a_node28"><a xlink:title=" ">
<polygon fill="white" stroke="#bfbfbf" points="108.5,-56.5 108.5,-75.5 187.5,-75.5 187.5,-56.5 108.5,-56.5"/>
<text text-anchor="middle" x="148" y="-63.5" font-family="Helvetica,sans-Serif" font-size="10.00">AH/STL/tuple</text>
</a>
</g>
</g>
<!-- Node26&#45;&gt;Node28 -->
<g id="edge49" class="edge">
<title>Node26&#45;&gt;Node28</title>
<path fill="none" stroke="midnightblue" d="M139.65,-112.08C140.98,-104.93 142.88,-94.64 144.54,-85.69"/>
<polygon fill="midnightblue" stroke="midnightblue" points="148,-86.22 146.38,-75.75 141.12,-84.95 148,-86.22"/>
</g>
</g>
</svg>
