<?xml version="1.0" encoding="UTF-8" standalone="no"?>
<!DOCTYPE svg PUBLIC "-//W3C//DTD SVG 1.1//EN"
 "http://www.w3.org/Graphics/SVG/1.1/DTD/svg11.dtd">
<!-- Generated by graphviz version 2.43.0 (0)
 -->
<!-- Title: Array.hpp Pages: 1 -->
<svg width="796pt" height="532pt"
 viewBox="0.00 0.00 795.50 532.00" xmlns="http://www.w3.org/2000/svg" xmlns:xlink="http://www.w3.org/1999/xlink">
<g id="graph0" class="graph" transform="scale(1 1) rotate(0) translate(4 528)">
<title>Array.hpp</title>
<polygon fill="white" stroke="transparent" points="-4,4 -4,-528 791.5,-528 791.5,4 -4,4"/>
<!-- Node1 -->
<g id="node1" class="node">
<title>Node1</title>
<g id="a_node1"><a xlink:title=" ">
<polygon fill="#bfbfbf" stroke="black" points="619.5,-504.5 619.5,-523.5 681.5,-523.5 681.5,-504.5 619.5,-504.5"/>
<text text-anchor="middle" x="650.5" y="-511.5" font-family="Helvetica,sans-Serif" font-size="10.00">Array.hpp</text>
</a>
</g>
</g>
<!-- Node2 -->
<g id="node2" class="node">
<title>Node2</title>
<g id="a_node2"><a xlink:href="../../d1/d93/Error_8hpp.html" target="_top" xlink:title=" ">
<polygon fill="white" stroke="black" points="397.5,-448.5 397.5,-467.5 501.5,-467.5 501.5,-448.5 397.5,-448.5"/>
<text text-anchor="middle" x="449.5" y="-455.5" font-family="Helvetica,sans-Serif" font-size="10.00">AH/Error/Error.hpp</text>
</a>
</g>
</g>
<!-- Node1&#45;&gt;Node2 -->
<g id="edge1" class="edge">
<title>Node1&#45;&gt;Node2</title>
<path fill="none" stroke="midnightblue" d="M619.09,-504.56C584.63,-495.3 529.17,-480.4 491.11,-470.18"/>
<polygon fill="midnightblue" stroke="midnightblue" points="491.91,-466.77 481.35,-467.56 490.1,-473.53 491.91,-466.77"/>
</g>
<!-- Node11 -->
<g id="node11" class="node">
<title>Node11</title>
<g id="a_node11"><a xlink:title=" ">
<polygon fill="white" stroke="#bfbfbf" points="580,-112.5 580,-131.5 687,-131.5 687,-112.5 580,-112.5"/>
<text text-anchor="middle" x="633.5" y="-119.5" font-family="Helvetica,sans-Serif" font-size="10.00">AH/STL/type_traits</text>
</a>
</g>
</g>
<!-- Node1&#45;&gt;Node11 -->
<g id="edge27" class="edge">
<title>Node1&#45;&gt;Node11</title>
<path fill="none" stroke="midnightblue" d="M653.06,-504.25C658.25,-485.74 669.5,-441.18 669.5,-403 669.5,-403 669.5,-403 669.5,-233 669.5,-198.98 653.76,-161.85 643.09,-140.6"/>
<polygon fill="midnightblue" stroke="midnightblue" points="646.09,-138.77 638.36,-131.53 639.88,-142.01 646.09,-138.77"/>
</g>
<!-- Node17 -->
<g id="node17" class="node">
<title>Node17</title>
<g id="a_node17"><a xlink:title=" ">
<polygon fill="white" stroke="#bfbfbf" points="585.5,-224.5 585.5,-243.5 641.5,-243.5 641.5,-224.5 585.5,-224.5"/>
<text text-anchor="middle" x="613.5" y="-231.5" font-family="Helvetica,sans-Serif" font-size="10.00">stddef.h</text>
</a>
</g>
</g>
<!-- Node1&#45;&gt;Node17 -->
<g id="edge28" class="edge">
<title>Node1&#45;&gt;Node17</title>
<path fill="none" stroke="midnightblue" d="M646.72,-504.35C639.08,-486.03 622.5,-441.82 622.5,-403 622.5,-403 622.5,-403 622.5,-345 622.5,-312.84 618.63,-275.57 615.97,-253.71"/>
<polygon fill="midnightblue" stroke="midnightblue" points="619.41,-253.02 614.68,-243.54 612.46,-253.9 619.41,-253.02"/>
</g>
<!-- Node20 -->
<g id="node20" class="node">
<title>Node20</title>
<g id="a_node20"><a xlink:title=" ">
<polygon fill="white" stroke="#bfbfbf" points="697.5,-448.5 697.5,-467.5 787.5,-467.5 787.5,-448.5 697.5,-448.5"/>
<text text-anchor="middle" x="742.5" y="-455.5" font-family="Helvetica,sans-Serif" font-size="10.00">AH/STL/iterator</text>
</a>
</g>
</g>
<!-- Node1&#45;&gt;Node20 -->
<g id="edge26" class="edge">
<title>Node1&#45;&gt;Node20</title>
<path fill="none" stroke="midnightblue" d="M665.28,-504.32C679.77,-495.82 702.07,-482.73 718.99,-472.8"/>
<polygon fill="midnightblue" stroke="midnightblue" points="720.9,-475.74 727.76,-467.65 717.36,-469.7 720.9,-475.74"/>
</g>
<!-- Node3 -->
<g id="node3" class="node">
<title>Node3</title>
<g id="a_node3"><a xlink:href="../../df/dee/Debug_8hpp.html" target="_top" xlink:title=" ">
<polygon fill="white" stroke="black" points="290,-392.5 290,-411.5 411,-411.5 411,-392.5 290,-392.5"/>
<text text-anchor="middle" x="350.5" y="-399.5" font-family="Helvetica,sans-Serif" font-size="10.00">AH/Debug/Debug.hpp</text>
</a>
</g>
</g>
<!-- Node2&#45;&gt;Node3 -->
<g id="edge2" class="edge">
<title>Node2&#45;&gt;Node3</title>
<path fill="none" stroke="midnightblue" d="M433.59,-448.32C417.86,-439.74 393.56,-426.49 375.29,-416.52"/>
<polygon fill="midnightblue" stroke="midnightblue" points="376.82,-413.37 366.37,-411.65 373.47,-419.52 376.82,-413.37"/>
</g>
<!-- Node4 -->
<g id="node4" class="node">
<title>Node4</title>
<g id="a_node4"><a xlink:href="../../dd/d80/PrintStream_8hpp.html" target="_top" xlink:title=" ">
<polygon fill="white" stroke="black" points="0,-224.5 0,-243.5 173,-243.5 173,-224.5 0,-224.5"/>
<text text-anchor="middle" x="86.5" y="-231.5" font-family="Helvetica,sans-Serif" font-size="10.00">AH/PrintStream/PrintStream.hpp</text>
</a>
</g>
</g>
<!-- Node3&#45;&gt;Node4 -->
<g id="edge3" class="edge">
<title>Node3&#45;&gt;Node4</title>
<path fill="none" stroke="midnightblue" d="M328.46,-392.37C308.18,-384.08 277.54,-370.67 252.5,-356 195.65,-322.68 134.39,-274.43 104.7,-250.15"/>
<polygon fill="midnightblue" stroke="midnightblue" points="106.81,-247.36 96.87,-243.7 102.36,-252.76 106.81,-247.36"/>
</g>
<!-- Node12 -->
<g id="node12" class="node">
<title>Node12</title>
<g id="a_node12"><a xlink:href="../../d2/dd5/SettingsWrapper_8hpp.html" target="_top" xlink:title=" ">
<polygon fill="white" stroke="black" points="261.5,-336.5 261.5,-355.5 439.5,-355.5 439.5,-336.5 261.5,-336.5"/>
<text text-anchor="middle" x="350.5" y="-343.5" font-family="Helvetica,sans-Serif" font-size="10.00">AH/Settings/SettingsWrapper.hpp</text>
</a>
</g>
</g>
<!-- Node3&#45;&gt;Node12 -->
<g id="edge14" class="edge">
<title>Node3&#45;&gt;Node12</title>
<path fill="none" stroke="midnightblue" d="M345.33,-392.08C343.82,-384.93 343.39,-374.64 344.04,-365.69"/>
<polygon fill="midnightblue" stroke="midnightblue" points="347.52,-366.13 345.37,-355.75 340.58,-365.2 347.52,-366.13"/>
</g>
<!-- Node5 -->
<g id="node5" class="node">
<title>Node5</title>
<g id="a_node5"><a xlink:href="../../d6/ddf/Arduino-Wrapper_8h.html" target="_top" xlink:title=" ">
<polygon fill="white" stroke="black" points="381.5,-168.5 381.5,-187.5 505.5,-187.5 505.5,-168.5 381.5,-168.5"/>
<text text-anchor="middle" x="443.5" y="-175.5" font-family="Helvetica,sans-Serif" font-size="10.00">AH/Arduino&#45;Wrapper.h</text>
</a>
</g>
</g>
<!-- Node4&#45;&gt;Node5 -->
<g id="edge4" class="edge">
<title>Node4&#45;&gt;Node5</title>
<path fill="none" stroke="midnightblue" d="M143.07,-224.44C206.65,-214.83 309.77,-199.23 377.12,-189.04"/>
<polygon fill="midnightblue" stroke="midnightblue" points="377.83,-192.47 387.2,-187.52 376.79,-185.55 377.83,-192.47"/>
</g>
<!-- Node10 -->
<g id="node10" class="node">
<title>Node10</title>
<g id="a_node10"><a xlink:href="../../dc/dc7/NamespaceSettings_8hpp.html" target="_top" xlink:title=" ">
<polygon fill="white" stroke="black" points="104,-56.5 104,-75.5 299,-75.5 299,-56.5 104,-56.5"/>
<text text-anchor="middle" x="201.5" y="-63.5" font-family="Helvetica,sans-Serif" font-size="10.00">AH/Settings/NamespaceSettings.hpp</text>
</a>
</g>
</g>
<!-- Node4&#45;&gt;Node10 -->
<g id="edge13" class="edge">
<title>Node4&#45;&gt;Node10</title>
<path fill="none" stroke="midnightblue" d="M92.68,-224.08C111.02,-197.61 165.33,-119.21 189.58,-84.21"/>
<polygon fill="midnightblue" stroke="midnightblue" points="192.75,-85.78 195.56,-75.57 186.99,-81.8 192.75,-85.78"/>
</g>
<!-- Node6 -->
<g id="node6" class="node">
<title>Node6</title>
<g id="a_node6"><a xlink:href="../../d7/d79/MinMaxFix_8hpp.html" target="_top" xlink:title=" ">
<polygon fill="white" stroke="black" points="334.5,-112.5 334.5,-131.5 470.5,-131.5 470.5,-112.5 334.5,-112.5"/>
<text text-anchor="middle" x="402.5" y="-119.5" font-family="Helvetica,sans-Serif" font-size="10.00">AH/Math/MinMaxFix.hpp</text>
</a>
</g>
</g>
<!-- Node5&#45;&gt;Node6 -->
<g id="edge5" class="edge">
<title>Node5&#45;&gt;Node6</title>
<path fill="none" stroke="midnightblue" d="M436.73,-168.08C430.94,-160.46 422.44,-149.26 415.36,-139.94"/>
<polygon fill="midnightblue" stroke="midnightblue" points="417.98,-137.6 409.14,-131.75 412.4,-141.83 417.98,-137.6"/>
</g>
<!-- Node9 -->
<g id="node9" class="node">
<title>Node9</title>
<g id="a_node9"><a xlink:title=" ">
<polygon fill="white" stroke="#bfbfbf" points="427,-0.5 427,-19.5 490,-19.5 490,-0.5 427,-0.5"/>
<text text-anchor="middle" x="458.5" y="-7.5" font-family="Helvetica,sans-Serif" font-size="10.00">Arduino.h</text>
</a>
</g>
</g>
<!-- Node5&#45;&gt;Node9 -->
<g id="edge12" class="edge">
<title>Node5&#45;&gt;Node9</title>
<path fill="none" stroke="midnightblue" d="M452.05,-168.41C460.15,-159.85 472.13,-145.99 479.5,-132 491.62,-108.99 492.68,-101.73 496.5,-76 497.81,-67.21 499.55,-64.35 496.5,-56 492.44,-44.91 484.31,-34.67 476.61,-26.76"/>
<polygon fill="midnightblue" stroke="midnightblue" points="478.86,-24.07 469.21,-19.7 474.03,-29.14 478.86,-24.07"/>
</g>
<!-- Node5&#45;&gt;Node11 -->
<g id="edge11" class="edge">
<title>Node5&#45;&gt;Node11</title>
<path fill="none" stroke="midnightblue" d="M473.61,-168.44C506.13,-159.2 558.08,-144.44 593.89,-134.26"/>
<polygon fill="midnightblue" stroke="midnightblue" points="594.87,-137.62 603.53,-131.52 592.96,-130.88 594.87,-137.62"/>
</g>
<!-- Node7 -->
<g id="node7" class="node">
<title>Node7</title>
<g id="a_node7"><a xlink:href="../../d6/d3b/FixArduinoMacros_8hpp.html" target="_top" xlink:title=" ">
<polygon fill="white" stroke="black" points="317.5,-56.5 317.5,-75.5 487.5,-75.5 487.5,-56.5 317.5,-56.5"/>
<text text-anchor="middle" x="402.5" y="-63.5" font-family="Helvetica,sans-Serif" font-size="10.00">AH/Math/FixArduinoMacros.hpp</text>
</a>
</g>
</g>
<!-- Node6&#45;&gt;Node7 -->
<g id="edge6" class="edge">
<title>Node6&#45;&gt;Node7</title>
<path fill="none" stroke="midnightblue" d="M402.5,-112.08C402.5,-105.01 402.5,-94.86 402.5,-85.99"/>
<polygon fill="midnightblue" stroke="midnightblue" points="406,-85.75 402.5,-75.75 399,-85.75 406,-85.75"/>
</g>
<!-- Node6&#45;&gt;Node10 -->
<g id="edge9" class="edge">
<title>Node6&#45;&gt;Node10</title>
<path fill="none" stroke="midnightblue" d="M370.65,-112.44C336.1,-103.16 280.82,-88.31 242.92,-78.13"/>
<polygon fill="midnightblue" stroke="midnightblue" points="243.77,-74.73 233.2,-75.52 241.95,-81.49 243.77,-74.73"/>
</g>
<!-- Node8 -->
<g id="node8" class="node">
<title>Node8</title>
<g id="a_node8"><a xlink:href="../../d1/d65/Warnings_8hpp.html" target="_top" xlink:title=" ">
<polygon fill="white" stroke="black" points="226,-0.5 226,-19.5 369,-19.5 369,-0.5 226,-0.5"/>
<text text-anchor="middle" x="297.5" y="-7.5" font-family="Helvetica,sans-Serif" font-size="10.00">AH/Settings/Warnings.hpp</text>
</a>
</g>
</g>
<!-- Node7&#45;&gt;Node8 -->
<g id="edge7" class="edge">
<title>Node7&#45;&gt;Node8</title>
<path fill="none" stroke="midnightblue" d="M385.63,-56.32C368.79,-47.66 342.69,-34.24 323.26,-24.25"/>
<polygon fill="midnightblue" stroke="midnightblue" points="324.82,-21.12 314.33,-19.65 321.62,-27.34 324.82,-21.12"/>
</g>
<!-- Node7&#45;&gt;Node9 -->
<g id="edge8" class="edge">
<title>Node7&#45;&gt;Node9</title>
<path fill="none" stroke="midnightblue" d="M411.5,-56.32C419.69,-48.42 432.01,-36.55 441.97,-26.94"/>
<polygon fill="midnightblue" stroke="midnightblue" points="444.57,-29.29 449.34,-19.83 439.71,-24.26 444.57,-29.29"/>
</g>
<!-- Node10&#45;&gt;Node8 -->
<g id="edge10" class="edge">
<title>Node10&#45;&gt;Node8</title>
<path fill="none" stroke="midnightblue" d="M216.92,-56.32C232.04,-47.82 255.32,-34.73 272.97,-24.8"/>
<polygon fill="midnightblue" stroke="midnightblue" points="275.11,-27.61 282.11,-19.65 271.68,-21.51 275.11,-27.61"/>
</g>
<!-- Node12&#45;&gt;Node3 -->
<g id="edge25" class="edge">
<title>Node12&#45;&gt;Node3</title>
<path fill="none" stroke="midnightblue" d="M355.63,-355.75C357.16,-362.86 357.6,-373.14 356.97,-382.1"/>
<polygon fill="midnightblue" stroke="midnightblue" points="353.49,-381.71 355.67,-392.08 360.43,-382.62 353.49,-381.71"/>
</g>
<!-- Node12&#45;&gt;Node10 -->
<g id="edge15" class="edge">
<title>Node12&#45;&gt;Node10</title>
<path fill="none" stroke="midnightblue" d="M317.06,-336.41C273.13,-322.88 201.5,-292.07 201.5,-235 201.5,-235 201.5,-235 201.5,-177 201.5,-144.95 201.5,-107.64 201.5,-85.75"/>
<polygon fill="midnightblue" stroke="midnightblue" points="205,-85.56 201.5,-75.56 198,-85.56 205,-85.56"/>
</g>
<!-- Node13 -->
<g id="node13" class="node">
<title>Node13</title>
<g id="a_node13"><a xlink:href="../../db/d02/Settings_8hpp.html" target="_top" xlink:title="All user settings and debugging options can be changed here.">
<polygon fill="white" stroke="black" points="312,-280.5 312,-299.5 389,-299.5 389,-280.5 312,-280.5"/>
<text text-anchor="middle" x="350.5" y="-287.5" font-family="Helvetica,sans-Serif" font-size="10.00">Settings.hpp</text>
</a>
</g>
</g>
<!-- Node12&#45;&gt;Node13 -->
<g id="edge16" class="edge">
<title>Node12&#45;&gt;Node13</title>
<path fill="none" stroke="midnightblue" d="M350.5,-336.08C350.5,-329.01 350.5,-318.86 350.5,-309.99"/>
<polygon fill="midnightblue" stroke="midnightblue" points="354,-309.75 350.5,-299.75 347,-309.75 354,-309.75"/>
</g>
<!-- Node19 -->
<g id="node19" class="node">
<title>Node19</title>
<g id="a_node19"><a xlink:href="../../d9/d98/TeensyUSBTypes_8hpp.html" target="_top" xlink:title=" ">
<polygon fill="white" stroke="black" points="407,-280.5 407,-299.5 580,-299.5 580,-280.5 407,-280.5"/>
<text text-anchor="middle" x="493.5" y="-287.5" font-family="Helvetica,sans-Serif" font-size="10.00">AH/Teensy/TeensyUSBTypes.hpp</text>
</a>
</g>
</g>
<!-- Node12&#45;&gt;Node19 -->
<g id="edge24" class="edge">
<title>Node12&#45;&gt;Node19</title>
<path fill="none" stroke="midnightblue" d="M373.16,-336.44C396.9,-327.48 434.41,-313.31 461.24,-303.18"/>
<polygon fill="midnightblue" stroke="midnightblue" points="462.83,-306.32 470.95,-299.52 460.36,-299.77 462.83,-306.32"/>
</g>
<!-- Node14 -->
<g id="node14" class="node">
<title>Node14</title>
<g id="a_node14"><a xlink:href="../../dc/d50/Frequency_8hpp.html" target="_top" xlink:title=" ">
<polygon fill="white" stroke="black" points="229.5,-168.5 229.5,-187.5 363.5,-187.5 363.5,-168.5 229.5,-168.5"/>
<text text-anchor="middle" x="296.5" y="-175.5" font-family="Helvetica,sans-Serif" font-size="10.00">AH/Types/Frequency.hpp</text>
</a>
</g>
</g>
<!-- Node13&#45;&gt;Node14 -->
<g id="edge17" class="edge">
<title>Node13&#45;&gt;Node14</title>
<path fill="none" stroke="midnightblue" d="M311.65,-280.36C292.12,-273.85 270.17,-262.7 258.5,-244 247.99,-227.16 263.32,-207.42 277.54,-194.15"/>
<polygon fill="midnightblue" stroke="midnightblue" points="279.92,-196.72 285.15,-187.51 275.31,-191.45 279.92,-196.72"/>
</g>
<!-- Node15 -->
<g id="node15" class="node">
<title>Node15</title>
<g id="a_node15"><a xlink:href="../../d7/d7c/ADCConfig_8hpp.html" target="_top" xlink:title="This file contains the platform&#45;specific ADC resolutions.">
<polygon fill="white" stroke="black" points="268,-224.5 268,-243.5 425,-243.5 425,-224.5 268,-224.5"/>
<text text-anchor="middle" x="346.5" y="-231.5" font-family="Helvetica,sans-Serif" font-size="10.00">AH/Hardware/ADCConfig.hpp</text>
</a>
</g>
</g>
<!-- Node13&#45;&gt;Node15 -->
<g id="edge19" class="edge">
<title>Node13&#45;&gt;Node15</title>
<path fill="none" stroke="midnightblue" d="M349.84,-280.08C349.32,-273.01 348.56,-262.86 347.91,-253.99"/>
<polygon fill="midnightblue" stroke="midnightblue" points="351.38,-253.47 347.15,-243.75 344.4,-253.98 351.38,-253.47"/>
</g>
<!-- Node16 -->
<g id="node16" class="node">
<title>Node16</title>
<g id="a_node16"><a xlink:title=" ">
<polygon fill="white" stroke="#bfbfbf" points="443,-224.5 443,-243.5 496,-243.5 496,-224.5 443,-224.5"/>
<text text-anchor="middle" x="469.5" y="-231.5" font-family="Helvetica,sans-Serif" font-size="10.00">limits.h</text>
</a>
</g>
</g>
<!-- Node13&#45;&gt;Node16 -->
<g id="edge21" class="edge">
<title>Node13&#45;&gt;Node16</title>
<path fill="none" stroke="midnightblue" d="M369.36,-280.44C388.77,-271.64 419.23,-257.81 441.46,-247.72"/>
<polygon fill="midnightblue" stroke="midnightblue" points="443.07,-250.84 450.73,-243.52 440.18,-244.46 443.07,-250.84"/>
</g>
<!-- Node13&#45;&gt;Node17 -->
<g id="edge22" class="edge">
<title>Node13&#45;&gt;Node17</title>
<path fill="none" stroke="midnightblue" d="M389.41,-281.39C444,-270.68 540.57,-251.63 575.5,-244 575.6,-243.98 575.7,-243.96 575.8,-243.93"/>
<polygon fill="midnightblue" stroke="midnightblue" points="576.32,-247.41 585.3,-241.79 574.78,-240.58 576.32,-247.41"/>
</g>
<!-- Node18 -->
<g id="node18" class="node">
<title>Node18</title>
<g id="a_node18"><a xlink:title=" ">
<polygon fill="white" stroke="#bfbfbf" points="514,-224.5 514,-243.5 567,-243.5 567,-224.5 514,-224.5"/>
<text text-anchor="middle" x="540.5" y="-231.5" font-family="Helvetica,sans-Serif" font-size="10.00">stdint.h</text>
</a>
</g>
</g>
<!-- Node13&#45;&gt;Node18 -->
<g id="edge23" class="edge">
<title>Node13&#45;&gt;Node18</title>
<path fill="none" stroke="midnightblue" d="M380.61,-280.44C414.03,-270.94 468,-255.61 503.85,-245.41"/>
<polygon fill="midnightblue" stroke="midnightblue" points="505.24,-248.66 513.91,-242.56 503.33,-241.93 505.24,-248.66"/>
</g>
<!-- Node14&#45;&gt;Node10 -->
<g id="edge18" class="edge">
<title>Node14&#45;&gt;Node10</title>
<path fill="none" stroke="midnightblue" d="M289.05,-168.37C273.23,-150.05 236.09,-107.05 215.63,-83.36"/>
<polygon fill="midnightblue" stroke="midnightblue" points="218.1,-80.87 208.92,-75.59 212.81,-85.45 218.1,-80.87"/>
</g>
<!-- Node15&#45;&gt;Node5 -->
<g id="edge20" class="edge">
<title>Node15&#45;&gt;Node5</title>
<path fill="none" stroke="midnightblue" d="M362.08,-224.32C377.5,-215.74 401.31,-202.49 419.21,-192.52"/>
<polygon fill="midnightblue" stroke="midnightblue" points="420.92,-195.58 427.95,-187.65 417.51,-189.46 420.92,-195.58"/>
</g>
</g>
</svg>
