<?xml version="1.0" encoding="UTF-8" standalone="no"?>
<!DOCTYPE svg PUBLIC "-//W3C//DTD SVG 1.1//EN"
 "http://www.w3.org/Graphics/SVG/1.1/DTD/svg11.dtd">
<!-- Generated by graphviz version 2.43.0 (0)
 -->
<!-- Title: MCP23017.ipp Pages: 1 -->
<svg width="1428pt" height="946pt"
 viewBox="0.00 0.00 1427.50 946.00" xmlns="http://www.w3.org/2000/svg" xmlns:xlink="http://www.w3.org/1999/xlink">
<g id="graph0" class="graph" transform="scale(1 1) rotate(0) translate(4 942)">
<title>MCP23017.ipp</title>
<polygon fill="white" stroke="transparent" points="-4,4 -4,-942 1423.5,-942 1423.5,4 -4,4"/>
<!-- Node1 -->
<g id="node1" class="node">
<title>Node1</title>
<g id="a_node1"><a xlink:title=" ">
<polygon fill="#bfbfbf" stroke="black" points="341,-918.5 341,-937.5 427,-937.5 427,-918.5 341,-918.5"/>
<text text-anchor="middle" x="384" y="-925.5" font-family="Helvetica,sans-Serif" font-size="10.00">MCP23017.ipp</text>
</a>
</g>
</g>
<!-- Node2 -->
<g id="node2" class="node">
<title>Node2</title>
<g id="a_node2"><a xlink:href="../../d7/dca/MCP23017_8hpp.html" target="_top" xlink:title=" ">
<polygon fill="white" stroke="black" points="339.5,-862.5 339.5,-881.5 428.5,-881.5 428.5,-862.5 339.5,-862.5"/>
<text text-anchor="middle" x="384" y="-869.5" font-family="Helvetica,sans-Serif" font-size="10.00">MCP23017.hpp</text>
</a>
</g>
</g>
<!-- Node1&#45;&gt;Node2 -->
<g id="edge1" class="edge">
<title>Node1&#45;&gt;Node2</title>
<path fill="none" stroke="midnightblue" d="M378.83,-918.08C377.32,-910.93 376.89,-900.64 377.54,-891.69"/>
<polygon fill="midnightblue" stroke="midnightblue" points="381.02,-892.13 378.87,-881.75 374.08,-891.2 381.02,-892.13"/>
</g>
<!-- Node2&#45;&gt;Node1 -->
<g id="edge67" class="edge">
<title>Node2&#45;&gt;Node1</title>
<path fill="none" stroke="midnightblue" d="M389.13,-881.75C390.66,-888.86 391.1,-899.14 390.47,-908.1"/>
<polygon fill="midnightblue" stroke="midnightblue" points="386.99,-907.71 389.17,-918.08 393.93,-908.62 386.99,-907.71"/>
</g>
<!-- Node3 -->
<g id="node3" class="node">
<title>Node3</title>
<g id="a_node3"><a xlink:href="../../dd/ddf/ExtendedInputOutput_8hpp.html" target="_top" xlink:title=" ">
<polygon fill="white" stroke="black" points="212.5,-694.5 212.5,-713.5 353.5,-713.5 353.5,-694.5 212.5,-694.5"/>
<text text-anchor="middle" x="283" y="-701.5" font-family="Helvetica,sans-Serif" font-size="10.00">ExtendedInputOutput.hpp</text>
</a>
</g>
</g>
<!-- Node2&#45;&gt;Node3 -->
<g id="edge2" class="edge">
<title>Node2&#45;&gt;Node3</title>
<path fill="none" stroke="midnightblue" d="M378.57,-862.08C362.47,-835.61 314.77,-757.21 293.47,-722.21"/>
<polygon fill="midnightblue" stroke="midnightblue" points="296.4,-720.29 288.21,-713.57 290.42,-723.93 296.4,-720.29"/>
</g>
<!-- Node30 -->
<g id="node30" class="node">
<title>Node30</title>
<g id="a_node30"><a xlink:href="../../d2/d05/StaticSizeExtendedIOElement_8hpp.html" target="_top" xlink:title=" ">
<polygon fill="white" stroke="black" points="422,-806.5 422,-825.5 604,-825.5 604,-806.5 422,-806.5"/>
<text text-anchor="middle" x="513" y="-813.5" font-family="Helvetica,sans-Serif" font-size="10.00">StaticSizeExtendedIOElement.hpp</text>
</a>
</g>
</g>
<!-- Node2&#45;&gt;Node30 -->
<g id="edge43" class="edge">
<title>Node2&#45;&gt;Node30</title>
<path fill="none" stroke="midnightblue" d="M404.44,-862.44C425.67,-853.56 459.1,-839.56 483.25,-829.45"/>
<polygon fill="midnightblue" stroke="midnightblue" points="484.78,-832.61 492.66,-825.52 482.08,-826.15 484.78,-832.61"/>
</g>
<!-- Node39 -->
<g id="node39" class="node">
<title>Node39</title>
<g id="a_node39"><a xlink:href="../../d1/d40/BitArray_8hpp.html" target="_top" xlink:title=" ">
<polygon fill="white" stroke="black" points="309.5,-504.5 309.5,-523.5 458.5,-523.5 458.5,-504.5 309.5,-504.5"/>
<text text-anchor="middle" x="384" y="-511.5" font-family="Helvetica,sans-Serif" font-size="10.00">AH/Containers/BitArray.hpp</text>
</a>
</g>
</g>
<!-- Node2&#45;&gt;Node39 -->
<g id="edge63" class="edge">
<title>Node2&#45;&gt;Node39</title>
<path fill="none" stroke="midnightblue" d="M384,-862.44C384,-843.94 384,-798.81 384,-761 384,-761 384,-761 384,-641.5 384,-603.2 384,-558.38 384,-533.7"/>
<polygon fill="midnightblue" stroke="midnightblue" points="387.5,-533.59 384,-523.59 380.5,-533.59 387.5,-533.59"/>
</g>
<!-- Node4 -->
<g id="node4" class="node">
<title>Node4</title>
<g id="a_node4"><a xlink:href="../../d2/d3c/Arduino-Hardware-Types_8hpp.html" target="_top" xlink:title=" ">
<polygon fill="white" stroke="black" points="222,-627.5 222,-657.5 344,-657.5 344,-627.5 222,-627.5"/>
<text text-anchor="start" x="230" y="-645.5" font-family="Helvetica,sans-Serif" font-size="10.00">AH/Hardware/Arduino</text>
<text text-anchor="middle" x="283" y="-634.5" font-family="Helvetica,sans-Serif" font-size="10.00">&#45;Hardware&#45;Types.hpp</text>
</a>
</g>
</g>
<!-- Node3&#45;&gt;Node4 -->
<g id="edge3" class="edge">
<title>Node3&#45;&gt;Node4</title>
<path fill="none" stroke="midnightblue" d="M283,-694.48C283,-687.47 283,-677.19 283,-667.7"/>
<polygon fill="midnightblue" stroke="midnightblue" points="286.5,-667.52 283,-657.52 279.5,-667.52 286.5,-667.52"/>
</g>
<!-- Node15 -->
<g id="node15" class="node">
<title>Node15</title>
<g id="a_node15"><a xlink:href="../../dc/dc7/NamespaceSettings_8hpp.html" target="_top" xlink:title=" ">
<polygon fill="white" stroke="black" points="538.5,-56.5 538.5,-75.5 733.5,-75.5 733.5,-56.5 538.5,-56.5"/>
<text text-anchor="middle" x="636" y="-63.5" font-family="Helvetica,sans-Serif" font-size="10.00">AH/Settings/NamespaceSettings.hpp</text>
</a>
</g>
</g>
<!-- Node3&#45;&gt;Node15 -->
<g id="edge42" class="edge">
<title>Node3&#45;&gt;Node15</title>
<path fill="none" stroke="midnightblue" d="M212.32,-701.03C128.49,-694.5 0,-669.33 0,-576.5 0,-576.5 0,-576.5 0,-177 0,-124.04 346.84,-89.31 528.26,-74.77"/>
<polygon fill="midnightblue" stroke="midnightblue" points="528.67,-78.25 538.37,-73.97 528.12,-71.27 528.67,-78.25"/>
</g>
<!-- Node29 -->
<g id="node29" class="node">
<title>Node29</title>
<g id="a_node29"><a xlink:title=" ">
<polygon fill="white" stroke="#bfbfbf" points="116.5,-633 116.5,-652 203.5,-652 203.5,-633 116.5,-633"/>
<text text-anchor="middle" x="160" y="-640" font-family="Helvetica,sans-Serif" font-size="10.00">AH/STL/climits</text>
</a>
</g>
</g>
<!-- Node3&#45;&gt;Node29 -->
<g id="edge41" class="edge">
<title>Node3&#45;&gt;Node29</title>
<path fill="none" stroke="midnightblue" d="M265.38,-694.48C244.83,-684.53 210.64,-667.99 186.79,-656.46"/>
<polygon fill="midnightblue" stroke="midnightblue" points="188.12,-653.21 177.59,-652.01 185.07,-659.51 188.12,-653.21"/>
</g>
<!-- Node5 -->
<g id="node5" class="node">
<title>Node5</title>
<g id="a_node5"><a xlink:href="../../d4/d35/Hardware-Types_8hpp.html" target="_top" xlink:title=" ">
<polygon fill="white" stroke="black" points="447.5,-560.5 447.5,-590.5 578.5,-590.5 578.5,-560.5 447.5,-560.5"/>
<text text-anchor="start" x="455.5" y="-578.5" font-family="Helvetica,sans-Serif" font-size="10.00">AH/Hardware/Hardware</text>
<text text-anchor="middle" x="513" y="-567.5" font-family="Helvetica,sans-Serif" font-size="10.00">&#45;Types.hpp</text>
</a>
</g>
</g>
<!-- Node4&#45;&gt;Node5 -->
<g id="edge4" class="edge">
<title>Node4&#45;&gt;Node5</title>
<path fill="none" stroke="midnightblue" d="M332.62,-627.48C368.02,-617.47 415.79,-603.97 453.28,-593.38"/>
<polygon fill="midnightblue" stroke="midnightblue" points="454.4,-596.7 463.07,-590.61 452.49,-589.96 454.4,-596.7"/>
</g>
<!-- Node10 -->
<g id="node10" class="node">
<title>Node10</title>
<g id="a_node10"><a xlink:href="../../d6/ddf/Arduino-Wrapper_8h.html" target="_top" xlink:title=" ">
<polygon fill="white" stroke="black" points="794,-168.5 794,-187.5 918,-187.5 918,-168.5 794,-168.5"/>
<text text-anchor="middle" x="856" y="-175.5" font-family="Helvetica,sans-Serif" font-size="10.00">AH/Arduino&#45;Wrapper.h</text>
</a>
</g>
</g>
<!-- Node4&#45;&gt;Node10 -->
<g id="edge40" class="edge">
<title>Node4&#45;&gt;Node10</title>
<path fill="none" stroke="midnightblue" d="M282.82,-627.46C282.53,-604.12 282,-555.85 282,-515 282,-515 282,-515 282,-457 282,-344.31 290.92,-290.36 382,-224 450.91,-173.79 679.13,-196.15 764,-188 770.29,-187.4 776.82,-186.76 783.37,-186.13"/>
<polygon fill="midnightblue" stroke="midnightblue" points="784.03,-189.58 793.65,-185.13 783.36,-182.61 784.03,-189.58"/>
</g>
<!-- Node26 -->
<g id="node26" class="node">
<title>Node26</title>
<g id="a_node26"><a xlink:href="../../d0/db1/FunctionTraits_8hpp.html" target="_top" xlink:title=" ">
<polygon fill="white" stroke="black" points="97.5,-566 97.5,-585 250.5,-585 250.5,-566 97.5,-566"/>
<text text-anchor="middle" x="174" y="-573" font-family="Helvetica,sans-Serif" font-size="10.00">AH/Types/FunctionTraits.hpp</text>
</a>
</g>
</g>
<!-- Node4&#45;&gt;Node26 -->
<g id="edge36" class="edge">
<title>Node4&#45;&gt;Node26</title>
<path fill="none" stroke="midnightblue" d="M259.35,-627.4C240.82,-616.34 215.19,-601.06 196.86,-590.13"/>
<polygon fill="midnightblue" stroke="midnightblue" points="198.65,-587.12 188.27,-585.01 195.06,-593.13 198.65,-587.12"/>
</g>
<!-- Node6 -->
<g id="node6" class="node">
<title>Node6</title>
<g id="a_node6"><a xlink:href="../../de/d76/Array_8hpp.html" target="_top" xlink:title=" ">
<polygon fill="white" stroke="black" points="556.5,-504.5 556.5,-523.5 691.5,-523.5 691.5,-504.5 556.5,-504.5"/>
<text text-anchor="middle" x="624" y="-511.5" font-family="Helvetica,sans-Serif" font-size="10.00">AH/Containers/Array.hpp</text>
</a>
</g>
</g>
<!-- Node5&#45;&gt;Node6 -->
<g id="edge5" class="edge">
<title>Node5&#45;&gt;Node6</title>
<path fill="none" stroke="midnightblue" d="M539.31,-560.4C557.26,-550.77 580.92,-538.09 598.67,-528.58"/>
<polygon fill="midnightblue" stroke="midnightblue" points="600.69,-531.47 607.85,-523.66 597.38,-525.3 600.69,-531.47"/>
</g>
<!-- Node5&#45;&gt;Node15 -->
<g id="edge34" class="edge">
<title>Node5&#45;&gt;Node15</title>
<path fill="none" stroke="midnightblue" d="M508.69,-560.27C498.16,-525.03 472,-434.3 472,-403 472,-403 472,-403 472,-177 472,-146.77 470.67,-133.42 492,-112 508.58,-95.35 531.23,-84.84 553.65,-78.21"/>
<polygon fill="midnightblue" stroke="midnightblue" points="554.84,-81.52 563.57,-75.52 553,-74.76 554.84,-81.52"/>
</g>
<!-- Node23 -->
<g id="node23" class="node">
<title>Node23</title>
<g id="a_node23"><a xlink:title=" ">
<polygon fill="white" stroke="#bfbfbf" points="390.5,-224.5 390.5,-243.5 443.5,-243.5 443.5,-224.5 390.5,-224.5"/>
<text text-anchor="middle" x="417" y="-231.5" font-family="Helvetica,sans-Serif" font-size="10.00">stdint.h</text>
</a>
</g>
</g>
<!-- Node5&#45;&gt;Node23 -->
<g id="edge35" class="edge">
<title>Node5&#45;&gt;Node23</title>
<path fill="none" stroke="midnightblue" d="M504.55,-560.29C484.17,-525.49 434,-436.44 434,-403 434,-403 434,-403 434,-345 434,-312.58 426.7,-275.42 421.67,-253.64"/>
<polygon fill="midnightblue" stroke="midnightblue" points="425.03,-252.67 419.29,-243.77 418.23,-254.31 425.03,-252.67"/>
</g>
<!-- Node7 -->
<g id="node7" class="node">
<title>Node7</title>
<g id="a_node7"><a xlink:href="../../d1/d93/Error_8hpp.html" target="_top" xlink:title=" ">
<polygon fill="white" stroke="black" points="576,-448.5 576,-467.5 680,-467.5 680,-448.5 576,-448.5"/>
<text text-anchor="middle" x="628" y="-455.5" font-family="Helvetica,sans-Serif" font-size="10.00">AH/Error/Error.hpp</text>
</a>
</g>
</g>
<!-- Node6&#45;&gt;Node7 -->
<g id="edge6" class="edge">
<title>Node6&#45;&gt;Node7</title>
<path fill="none" stroke="midnightblue" d="M624.66,-504.08C625.18,-497.01 625.94,-486.86 626.59,-477.99"/>
<polygon fill="midnightblue" stroke="midnightblue" points="630.1,-477.98 627.35,-467.75 623.12,-477.47 630.1,-477.98"/>
</g>
<!-- Node16 -->
<g id="node16" class="node">
<title>Node16</title>
<g id="a_node16"><a xlink:title=" ">
<polygon fill="white" stroke="#bfbfbf" points="500.5,-112.5 500.5,-131.5 607.5,-131.5 607.5,-112.5 500.5,-112.5"/>
<text text-anchor="middle" x="554" y="-119.5" font-family="Helvetica,sans-Serif" font-size="10.00">AH/STL/type_traits</text>
</a>
</g>
</g>
<!-- Node6&#45;&gt;Node16 -->
<g id="edge32" class="edge">
<title>Node6&#45;&gt;Node16</title>
<path fill="none" stroke="midnightblue" d="M603.36,-504.42C570.5,-489.23 510,-454.29 510,-403 510,-403 510,-403 510,-233 510,-198.04 529.4,-161.01 542.43,-140.07"/>
<polygon fill="midnightblue" stroke="midnightblue" points="545.39,-141.95 547.88,-131.65 539.51,-138.15 545.39,-141.95"/>
</g>
<!-- Node22 -->
<g id="node22" class="node">
<title>Node22</title>
<g id="a_node22"><a xlink:title=" ">
<polygon fill="white" stroke="#bfbfbf" points="909,-224.5 909,-243.5 965,-243.5 965,-224.5 909,-224.5"/>
<text text-anchor="middle" x="937" y="-231.5" font-family="Helvetica,sans-Serif" font-size="10.00">stddef.h</text>
</a>
</g>
</g>
<!-- Node6&#45;&gt;Node22 -->
<g id="edge33" class="edge">
<title>Node6&#45;&gt;Node22</title>
<path fill="none" stroke="midnightblue" d="M605.92,-504.39C592.44,-496.87 575.03,-484.57 567,-468 543.53,-419.58 560.28,-397.2 626,-336 655.13,-308.87 672.05,-317.09 708,-300 725.59,-291.64 728.72,-286.72 747,-280 809.62,-256.97 830.22,-259.92 898.73,-244.24"/>
<polygon fill="midnightblue" stroke="midnightblue" points="899.79,-247.59 908.72,-241.9 898.19,-240.77 899.79,-247.59"/>
</g>
<!-- Node25 -->
<g id="node25" class="node">
<title>Node25</title>
<g id="a_node25"><a xlink:title=" ">
<polygon fill="white" stroke="#bfbfbf" points="808,-392.5 808,-411.5 898,-411.5 898,-392.5 808,-392.5"/>
<text text-anchor="middle" x="853" y="-399.5" font-family="Helvetica,sans-Serif" font-size="10.00">AH/STL/iterator</text>
</a>
</g>
</g>
<!-- Node6&#45;&gt;Node25 -->
<g id="edge31" class="edge">
<title>Node6&#45;&gt;Node25</title>
<path fill="none" stroke="midnightblue" d="M641.97,-504.37C682.02,-485.13 778.79,-438.65 826.08,-415.93"/>
<polygon fill="midnightblue" stroke="midnightblue" points="827.62,-419.08 835.11,-411.59 824.58,-412.77 827.62,-419.08"/>
</g>
<!-- Node8 -->
<g id="node8" class="node">
<title>Node8</title>
<g id="a_node8"><a xlink:href="../../df/dee/Debug_8hpp.html" target="_top" xlink:title=" ">
<polygon fill="white" stroke="black" points="668.5,-392.5 668.5,-411.5 789.5,-411.5 789.5,-392.5 668.5,-392.5"/>
<text text-anchor="middle" x="729" y="-399.5" font-family="Helvetica,sans-Serif" font-size="10.00">AH/Debug/Debug.hpp</text>
</a>
</g>
</g>
<!-- Node7&#45;&gt;Node8 -->
<g id="edge7" class="edge">
<title>Node7&#45;&gt;Node8</title>
<path fill="none" stroke="midnightblue" d="M644.23,-448.32C660.35,-439.7 685.3,-426.36 703.96,-416.39"/>
<polygon fill="midnightblue" stroke="midnightblue" points="705.64,-419.46 712.81,-411.65 702.34,-413.28 705.64,-419.46"/>
</g>
<!-- Node9 -->
<g id="node9" class="node">
<title>Node9</title>
<g id="a_node9"><a xlink:href="../../dd/d80/PrintStream_8hpp.html" target="_top" xlink:title=" ">
<polygon fill="white" stroke="black" points="985.5,-336.5 985.5,-355.5 1158.5,-355.5 1158.5,-336.5 985.5,-336.5"/>
<text text-anchor="middle" x="1072" y="-343.5" font-family="Helvetica,sans-Serif" font-size="10.00">AH/PrintStream/PrintStream.hpp</text>
</a>
</g>
</g>
<!-- Node8&#45;&gt;Node9 -->
<g id="edge8" class="edge">
<title>Node8&#45;&gt;Node9</title>
<path fill="none" stroke="midnightblue" d="M783.35,-392.44C844.31,-382.85 943.11,-367.29 1007.82,-357.1"/>
<polygon fill="midnightblue" stroke="midnightblue" points="1008.57,-360.53 1017.9,-355.52 1007.48,-353.61 1008.57,-360.53"/>
</g>
<!-- Node17 -->
<g id="node17" class="node">
<title>Node17</title>
<g id="a_node17"><a xlink:href="../../d2/dd5/SettingsWrapper_8hpp.html" target="_top" xlink:title=" ">
<polygon fill="white" stroke="black" points="635,-336.5 635,-355.5 813,-355.5 813,-336.5 635,-336.5"/>
<text text-anchor="middle" x="724" y="-343.5" font-family="Helvetica,sans-Serif" font-size="10.00">AH/Settings/SettingsWrapper.hpp</text>
</a>
</g>
</g>
<!-- Node8&#45;&gt;Node17 -->
<g id="edge19" class="edge">
<title>Node8&#45;&gt;Node17</title>
<path fill="none" stroke="midnightblue" d="M723.01,-392.08C720.86,-385.01 719.48,-374.86 719.28,-365.99"/>
<polygon fill="midnightblue" stroke="midnightblue" points="722.79,-365.88 719.68,-355.75 715.79,-365.61 722.79,-365.88"/>
</g>
<!-- Node9&#45;&gt;Node10 -->
<g id="edge9" class="edge">
<title>Node9&#45;&gt;Node10</title>
<path fill="none" stroke="midnightblue" d="M1059.61,-336.35C1048.17,-327.96 1031.14,-314.39 1019,-300 993.69,-269.99 1004.02,-249.3 974,-224 954.94,-207.94 929.54,-197.27 907.19,-190.37"/>
<polygon fill="midnightblue" stroke="midnightblue" points="908.08,-186.98 897.5,-187.55 906.12,-193.7 908.08,-186.98"/>
</g>
<!-- Node9&#45;&gt;Node15 -->
<g id="edge18" class="edge">
<title>Node9&#45;&gt;Node15</title>
<path fill="none" stroke="midnightblue" d="M1067.87,-336.44C1057.61,-315.69 1029.39,-261.7 996,-224 969.81,-194.44 962.07,-186.17 927,-168 874.53,-140.82 854.97,-150.97 799,-132 751.41,-115.87 697.48,-93.54 665.14,-79.7"/>
<polygon fill="midnightblue" stroke="midnightblue" points="666.39,-76.43 655.82,-75.69 663.62,-82.86 666.39,-76.43"/>
</g>
<!-- Node11 -->
<g id="node11" class="node">
<title>Node11</title>
<g id="a_node11"><a xlink:href="../../d7/d79/MinMaxFix_8hpp.html" target="_top" xlink:title=" ">
<polygon fill="white" stroke="black" points="808,-112.5 808,-131.5 944,-131.5 944,-112.5 808,-112.5"/>
<text text-anchor="middle" x="876" y="-119.5" font-family="Helvetica,sans-Serif" font-size="10.00">AH/Math/MinMaxFix.hpp</text>
</a>
</g>
</g>
<!-- Node10&#45;&gt;Node11 -->
<g id="edge10" class="edge">
<title>Node10&#45;&gt;Node11</title>
<path fill="none" stroke="midnightblue" d="M859.3,-168.08C861.98,-160.85 865.85,-150.41 869.19,-141.4"/>
<polygon fill="midnightblue" stroke="midnightblue" points="872.57,-142.34 872.76,-131.75 866,-139.91 872.57,-142.34"/>
</g>
<!-- Node14 -->
<g id="node14" class="node">
<title>Node14</title>
<g id="a_node14"><a xlink:title=" ">
<polygon fill="white" stroke="#bfbfbf" points="883.5,-0.5 883.5,-19.5 946.5,-19.5 946.5,-0.5 883.5,-0.5"/>
<text text-anchor="middle" x="915" y="-7.5" font-family="Helvetica,sans-Serif" font-size="10.00">Arduino.h</text>
</a>
</g>
</g>
<!-- Node10&#45;&gt;Node14 -->
<g id="edge17" class="edge">
<title>Node10&#45;&gt;Node14</title>
<path fill="none" stroke="midnightblue" d="M898.39,-168.45C918.58,-162.02 940.91,-150.93 953,-132 971.18,-103.53 964.6,-87.72 953,-56 948.94,-44.91 940.81,-34.67 933.11,-26.76"/>
<polygon fill="midnightblue" stroke="midnightblue" points="935.36,-24.07 925.71,-19.7 930.53,-29.14 935.36,-24.07"/>
</g>
<!-- Node10&#45;&gt;Node16 -->
<g id="edge16" class="edge">
<title>Node10&#45;&gt;Node16</title>
<path fill="none" stroke="midnightblue" d="M808.15,-168.44C754.8,-158.9 668.56,-143.48 611.56,-133.29"/>
<polygon fill="midnightblue" stroke="midnightblue" points="612.09,-129.83 601.63,-131.52 610.86,-136.72 612.09,-129.83"/>
</g>
<!-- Node12 -->
<g id="node12" class="node">
<title>Node12</title>
<g id="a_node12"><a xlink:href="../../d6/d3b/FixArduinoMacros_8hpp.html" target="_top" xlink:title=" ">
<polygon fill="white" stroke="black" points="774,-56.5 774,-75.5 944,-75.5 944,-56.5 774,-56.5"/>
<text text-anchor="middle" x="859" y="-63.5" font-family="Helvetica,sans-Serif" font-size="10.00">AH/Math/FixArduinoMacros.hpp</text>
</a>
</g>
</g>
<!-- Node11&#45;&gt;Node12 -->
<g id="edge11" class="edge">
<title>Node11&#45;&gt;Node12</title>
<path fill="none" stroke="midnightblue" d="M873.19,-112.08C870.92,-104.85 867.63,-94.41 864.79,-85.4"/>
<polygon fill="midnightblue" stroke="midnightblue" points="868.1,-84.24 861.75,-75.75 861.42,-86.34 868.1,-84.24"/>
</g>
<!-- Node11&#45;&gt;Node15 -->
<g id="edge14" class="edge">
<title>Node11&#45;&gt;Node15</title>
<path fill="none" stroke="midnightblue" d="M837.97,-112.44C796.19,-103.04 729.02,-87.93 683.73,-77.74"/>
<polygon fill="midnightblue" stroke="midnightblue" points="684.38,-74.3 673.85,-75.52 682.84,-81.13 684.38,-74.3"/>
</g>
<!-- Node13 -->
<g id="node13" class="node">
<title>Node13</title>
<g id="a_node13"><a xlink:href="../../d1/d65/Warnings_8hpp.html" target="_top" xlink:title=" ">
<polygon fill="white" stroke="black" points="682.5,-0.5 682.5,-19.5 825.5,-19.5 825.5,-0.5 682.5,-0.5"/>
<text text-anchor="middle" x="754" y="-7.5" font-family="Helvetica,sans-Serif" font-size="10.00">AH/Settings/Warnings.hpp</text>
</a>
</g>
</g>
<!-- Node12&#45;&gt;Node13 -->
<g id="edge12" class="edge">
<title>Node12&#45;&gt;Node13</title>
<path fill="none" stroke="midnightblue" d="M842.13,-56.32C825.29,-47.66 799.19,-34.24 779.76,-24.25"/>
<polygon fill="midnightblue" stroke="midnightblue" points="781.32,-21.12 770.83,-19.65 778.12,-27.34 781.32,-21.12"/>
</g>
<!-- Node12&#45;&gt;Node14 -->
<g id="edge13" class="edge">
<title>Node12&#45;&gt;Node14</title>
<path fill="none" stroke="midnightblue" d="M868,-56.32C876.19,-48.42 888.51,-36.55 898.47,-26.94"/>
<polygon fill="midnightblue" stroke="midnightblue" points="901.07,-29.29 905.84,-19.83 896.21,-24.26 901.07,-29.29"/>
</g>
<!-- Node15&#45;&gt;Node13 -->
<g id="edge15" class="edge">
<title>Node15&#45;&gt;Node13</title>
<path fill="none" stroke="midnightblue" d="M654.7,-56.44C673.94,-47.64 704.15,-33.81 726.2,-23.72"/>
<polygon fill="midnightblue" stroke="midnightblue" points="727.75,-26.86 735.39,-19.52 724.84,-20.5 727.75,-26.86"/>
</g>
<!-- Node17&#45;&gt;Node8 -->
<g id="edge30" class="edge">
<title>Node17&#45;&gt;Node8</title>
<path fill="none" stroke="midnightblue" d="M729.94,-355.75C732.1,-362.78 733.49,-372.91 733.72,-381.8"/>
<polygon fill="midnightblue" stroke="midnightblue" points="730.21,-381.96 733.34,-392.08 737.2,-382.22 730.21,-381.96"/>
</g>
<!-- Node17&#45;&gt;Node15 -->
<g id="edge20" class="edge">
<title>Node17&#45;&gt;Node15</title>
<path fill="none" stroke="midnightblue" d="M670.29,-336.5C648.78,-330.18 626.04,-319.17 613,-300 580.01,-251.49 605.17,-226.27 612,-168 615.45,-138.55 624.38,-105.23 630.32,-85.19"/>
<polygon fill="midnightblue" stroke="midnightblue" points="633.7,-86.11 633.26,-75.53 627,-84.07 633.7,-86.11"/>
</g>
<!-- Node18 -->
<g id="node18" class="node">
<title>Node18</title>
<g id="a_node18"><a xlink:href="../../db/d02/Settings_8hpp.html" target="_top" xlink:title="All user settings and debugging options can be changed here.">
<polygon fill="white" stroke="black" points="621.5,-280.5 621.5,-299.5 698.5,-299.5 698.5,-280.5 621.5,-280.5"/>
<text text-anchor="middle" x="660" y="-287.5" font-family="Helvetica,sans-Serif" font-size="10.00">Settings.hpp</text>
</a>
</g>
</g>
<!-- Node17&#45;&gt;Node18 -->
<g id="edge21" class="edge">
<title>Node17&#45;&gt;Node18</title>
<path fill="none" stroke="midnightblue" d="M713.72,-336.32C704.16,-328.26 689.72,-316.08 678.22,-306.37"/>
<polygon fill="midnightblue" stroke="midnightblue" points="680.37,-303.61 670.47,-299.83 675.86,-308.96 680.37,-303.61"/>
</g>
<!-- Node24 -->
<g id="node24" class="node">
<title>Node24</title>
<g id="a_node24"><a xlink:href="../../d9/d98/TeensyUSBTypes_8hpp.html" target="_top" xlink:title=" ">
<polygon fill="white" stroke="black" points="755.5,-280.5 755.5,-299.5 928.5,-299.5 928.5,-280.5 755.5,-280.5"/>
<text text-anchor="middle" x="842" y="-287.5" font-family="Helvetica,sans-Serif" font-size="10.00">AH/Teensy/TeensyUSBTypes.hpp</text>
</a>
</g>
</g>
<!-- Node17&#45;&gt;Node24 -->
<g id="edge29" class="edge">
<title>Node17&#45;&gt;Node24</title>
<path fill="none" stroke="midnightblue" d="M742.7,-336.44C761.94,-327.64 792.15,-313.81 814.2,-303.72"/>
<polygon fill="midnightblue" stroke="midnightblue" points="815.75,-306.86 823.39,-299.52 812.84,-300.5 815.75,-306.86"/>
</g>
<!-- Node19 -->
<g id="node19" class="node">
<title>Node19</title>
<g id="a_node19"><a xlink:href="../../dc/d50/Frequency_8hpp.html" target="_top" xlink:title=" ">
<polygon fill="white" stroke="black" points="621,-168.5 621,-187.5 755,-187.5 755,-168.5 621,-168.5"/>
<text text-anchor="middle" x="688" y="-175.5" font-family="Helvetica,sans-Serif" font-size="10.00">AH/Types/Frequency.hpp</text>
</a>
</g>
</g>
<!-- Node18&#45;&gt;Node19 -->
<g id="edge22" class="edge">
<title>Node18&#45;&gt;Node19</title>
<path fill="none" stroke="midnightblue" d="M657.01,-280.33C653.12,-267.62 647.52,-243.34 654,-224 657.6,-213.25 664.9,-203.02 671.82,-195.04"/>
<polygon fill="midnightblue" stroke="midnightblue" points="674.48,-197.32 678.71,-187.61 669.35,-192.56 674.48,-197.32"/>
</g>
<!-- Node20 -->
<g id="node20" class="node">
<title>Node20</title>
<g id="a_node20"><a xlink:href="../../d7/d7c/ADCConfig_8hpp.html" target="_top" xlink:title="This file contains the platform&#45;specific ADC resolutions.">
<polygon fill="white" stroke="black" points="733.5,-224.5 733.5,-243.5 890.5,-243.5 890.5,-224.5 733.5,-224.5"/>
<text text-anchor="middle" x="812" y="-231.5" font-family="Helvetica,sans-Serif" font-size="10.00">AH/Hardware/ADCConfig.hpp</text>
</a>
</g>
</g>
<!-- Node18&#45;&gt;Node20 -->
<g id="edge24" class="edge">
<title>Node18&#45;&gt;Node20</title>
<path fill="none" stroke="midnightblue" d="M684.08,-280.44C709.54,-271.4 749.89,-257.06 778.46,-246.92"/>
<polygon fill="midnightblue" stroke="midnightblue" points="779.78,-250.16 788.03,-243.52 777.43,-243.57 779.78,-250.16"/>
</g>
<!-- Node21 -->
<g id="node21" class="node">
<title>Node21</title>
<g id="a_node21"><a xlink:title=" ">
<polygon fill="white" stroke="#bfbfbf" points="662.5,-224.5 662.5,-243.5 715.5,-243.5 715.5,-224.5 662.5,-224.5"/>
<text text-anchor="middle" x="689" y="-231.5" font-family="Helvetica,sans-Serif" font-size="10.00">limits.h</text>
</a>
</g>
</g>
<!-- Node18&#45;&gt;Node21 -->
<g id="edge26" class="edge">
<title>Node18&#45;&gt;Node21</title>
<path fill="none" stroke="midnightblue" d="M664.79,-280.08C668.76,-272.69 674.53,-261.95 679.43,-252.81"/>
<polygon fill="midnightblue" stroke="midnightblue" points="682.65,-254.22 684.3,-243.75 676.49,-250.91 682.65,-254.22"/>
</g>
<!-- Node18&#45;&gt;Node22 -->
<g id="edge27" class="edge">
<title>Node18&#45;&gt;Node22</title>
<path fill="none" stroke="midnightblue" d="M698.78,-282.38C744.39,-274.46 822.59,-260.42 898.97,-244.14"/>
<polygon fill="midnightblue" stroke="midnightblue" points="899.71,-247.56 908.75,-242.03 898.24,-240.71 899.71,-247.56"/>
</g>
<!-- Node18&#45;&gt;Node23 -->
<g id="edge28" class="edge">
<title>Node18&#45;&gt;Node23</title>
<path fill="none" stroke="midnightblue" d="M621.5,-280.44C575.43,-270.21 498.89,-253.2 453.66,-243.15"/>
<polygon fill="midnightblue" stroke="midnightblue" points="454.21,-239.68 443.69,-240.93 452.69,-246.52 454.21,-239.68"/>
</g>
<!-- Node19&#45;&gt;Node15 -->
<g id="edge23" class="edge">
<title>Node19&#45;&gt;Node15</title>
<path fill="none" stroke="midnightblue" d="M683.92,-168.37C675.45,-150.46 655.82,-108.92 644.48,-84.95"/>
<polygon fill="midnightblue" stroke="midnightblue" points="647.5,-83.14 640.06,-75.59 641.17,-86.13 647.5,-83.14"/>
</g>
<!-- Node20&#45;&gt;Node10 -->
<g id="edge25" class="edge">
<title>Node20&#45;&gt;Node10</title>
<path fill="none" stroke="midnightblue" d="M819.27,-224.08C825.54,-216.38 834.79,-205.03 842.43,-195.65"/>
<polygon fill="midnightblue" stroke="midnightblue" points="845.27,-197.71 848.87,-187.75 839.84,-193.29 845.27,-197.71"/>
</g>
<!-- Node26&#45;&gt;Node15 -->
<g id="edge39" class="edge">
<title>Node26&#45;&gt;Node15</title>
<path fill="none" stroke="midnightblue" d="M185.83,-565.75C197.42,-556.57 214.8,-541.13 225,-524 240.41,-498.14 244,-489.1 244,-459 244,-459 244,-459 244,-177 244,-117.72 412.29,-88.9 528.34,-76.07"/>
<polygon fill="midnightblue" stroke="midnightblue" points="528.78,-79.54 538.35,-74.99 528.03,-72.58 528.78,-79.54"/>
</g>
<!-- Node27 -->
<g id="node27" class="node">
<title>Node27</title>
<g id="a_node27"><a xlink:title=" ">
<polygon fill="white" stroke="#bfbfbf" points="126,-504.5 126,-523.5 216,-523.5 216,-504.5 126,-504.5"/>
<text text-anchor="middle" x="171" y="-511.5" font-family="Helvetica,sans-Serif" font-size="10.00">AH/STL/cstddef</text>
</a>
</g>
</g>
<!-- Node26&#45;&gt;Node27 -->
<g id="edge37" class="edge">
<title>Node26&#45;&gt;Node27</title>
<path fill="none" stroke="midnightblue" d="M173.57,-565.98C173.15,-557.58 172.49,-544.48 171.94,-533.66"/>
<polygon fill="midnightblue" stroke="midnightblue" points="175.43,-533.32 171.43,-523.51 168.44,-533.67 175.43,-533.32"/>
</g>
<!-- Node28 -->
<g id="node28" class="node">
<title>Node28</title>
<g id="a_node28"><a xlink:title=" ">
<polygon fill="white" stroke="#bfbfbf" points="28.5,-504.5 28.5,-523.5 107.5,-523.5 107.5,-504.5 28.5,-504.5"/>
<text text-anchor="middle" x="68" y="-511.5" font-family="Helvetica,sans-Serif" font-size="10.00">AH/STL/tuple</text>
</a>
</g>
</g>
<!-- Node26&#45;&gt;Node28 -->
<g id="edge38" class="edge">
<title>Node26&#45;&gt;Node28</title>
<path fill="none" stroke="midnightblue" d="M158.81,-565.98C141.34,-556.17 112.42,-539.93 91.92,-528.42"/>
<polygon fill="midnightblue" stroke="midnightblue" points="93.59,-525.35 83.16,-523.51 90.17,-531.46 93.59,-525.35"/>
</g>
<!-- Node31 -->
<g id="node31" class="node">
<title>Node31</title>
<g id="a_node31"><a xlink:href="../../d4/d57/ExtendedIOElement_8hpp.html" target="_top" xlink:title=" ">
<polygon fill="white" stroke="black" points="446,-750.5 446,-769.5 580,-769.5 580,-750.5 446,-750.5"/>
<text text-anchor="middle" x="513" y="-757.5" font-family="Helvetica,sans-Serif" font-size="10.00">ExtendedIOElement.hpp</text>
</a>
</g>
</g>
<!-- Node30&#45;&gt;Node31 -->
<g id="edge44" class="edge">
<title>Node30&#45;&gt;Node31</title>
<path fill="none" stroke="midnightblue" d="M513,-806.08C513,-799.01 513,-788.86 513,-779.99"/>
<polygon fill="midnightblue" stroke="midnightblue" points="516.5,-779.75 513,-769.75 509.5,-779.75 516.5,-779.75"/>
</g>
<!-- Node37 -->
<g id="node37" class="node">
<title>Node37</title>
<g id="a_node37"><a xlink:href="../../d5/db6/ArrayHelpers_8hpp.html" target="_top" xlink:title=" ">
<polygon fill="white" stroke="black" points="990,-566 990,-585 1164,-585 1164,-566 990,-566"/>
<text text-anchor="middle" x="1077" y="-573" font-family="Helvetica,sans-Serif" font-size="10.00">AH/Containers/ArrayHelpers.hpp</text>
</a>
</g>
</g>
<!-- Node30&#45;&gt;Node37 -->
<g id="edge59" class="edge">
<title>Node30&#45;&gt;Node37</title>
<path fill="none" stroke="midnightblue" d="M533.41,-806.37C618.65,-770.32 946.49,-631.69 1047.32,-589.05"/>
<polygon fill="midnightblue" stroke="midnightblue" points="1048.77,-592.24 1056.62,-585.12 1046.05,-585.79 1048.77,-592.24"/>
</g>
<!-- Node31&#45;&gt;Node3 -->
<g id="edge45" class="edge">
<title>Node31&#45;&gt;Node3</title>
<path fill="none" stroke="midnightblue" d="M476.56,-750.44C436.6,-741.06 372.41,-725.99 329.02,-715.8"/>
<polygon fill="midnightblue" stroke="midnightblue" points="329.81,-712.39 319.27,-713.52 328.21,-719.21 329.81,-712.39"/>
</g>
<!-- Node31&#45;&gt;Node5 -->
<g id="edge58" class="edge">
<title>Node31&#45;&gt;Node5</title>
<path fill="none" stroke="midnightblue" d="M513,-750.2C513,-723.39 513,-642.09 513,-600.93"/>
<polygon fill="midnightblue" stroke="midnightblue" points="516.5,-600.69 513,-590.69 509.5,-600.69 516.5,-600.69"/>
</g>
<!-- Node32 -->
<g id="node32" class="node">
<title>Node32</title>
<g id="a_node32"><a xlink:href="../../d4/d93/Updatable_8hpp.html" target="_top" xlink:title=" ">
<polygon fill="white" stroke="black" points="760.5,-504.5 760.5,-523.5 921.5,-523.5 921.5,-504.5 760.5,-504.5"/>
<text text-anchor="middle" x="841" y="-511.5" font-family="Helvetica,sans-Serif" font-size="10.00">AH/Containers/Updatable.hpp</text>
</a>
</g>
</g>
<!-- Node31&#45;&gt;Node32 -->
<g id="edge46" class="edge">
<title>Node31&#45;&gt;Node32</title>
<path fill="none" stroke="midnightblue" d="M524.67,-750.32C573.29,-714.15 760.03,-575.23 821.36,-529.61"/>
<polygon fill="midnightblue" stroke="midnightblue" points="823.53,-532.36 829.47,-523.58 819.35,-526.74 823.53,-532.36"/>
</g>
<!-- Node32&#45;&gt;Node7 -->
<g id="edge53" class="edge">
<title>Node32&#45;&gt;Node7</title>
<path fill="none" stroke="midnightblue" d="M807.25,-504.44C770.48,-495.12 711.55,-480.18 671.38,-470"/>
<polygon fill="midnightblue" stroke="midnightblue" points="672.15,-466.58 661.59,-467.52 670.43,-473.37 672.15,-466.58"/>
</g>
<!-- Node32&#45;&gt;Node16 -->
<g id="edge54" class="edge">
<title>Node32&#45;&gt;Node16</title>
<path fill="none" stroke="midnightblue" d="M813.51,-504.47C773.38,-490.79 698.49,-460.46 652,-412 575.95,-332.73 558.8,-192.28 555.03,-141.76"/>
<polygon fill="midnightblue" stroke="midnightblue" points="558.52,-141.41 554.37,-131.66 551.53,-141.87 558.52,-141.41"/>
</g>
<!-- Node32&#45;&gt;Node17 -->
<g id="edge56" class="edge">
<title>Node32&#45;&gt;Node17</title>
<path fill="none" stroke="midnightblue" d="M832.25,-504.32C818.12,-490.7 788.94,-464.22 760,-448 718.8,-424.9 687.16,-450.65 660,-412 645.99,-392.07 671.92,-372.63 694.85,-360.28"/>
<polygon fill="midnightblue" stroke="midnightblue" points="696.72,-363.25 704.05,-355.59 693.55,-357.01 696.72,-363.25"/>
</g>
<!-- Node32&#45;&gt;Node22 -->
<g id="edge57" class="edge">
<title>Node32&#45;&gt;Node22</title>
<path fill="none" stroke="midnightblue" d="M921.78,-504.6C944.22,-498.11 966.2,-486.97 980,-468 1005.14,-433.44 961.14,-301.48 943.68,-253"/>
<polygon fill="midnightblue" stroke="midnightblue" points="946.93,-251.71 940.21,-243.51 940.35,-254.11 946.93,-251.71"/>
</g>
<!-- Node33 -->
<g id="node33" class="node">
<title>Node33</title>
<g id="a_node33"><a xlink:href="../../d4/dba/CRTP_8hpp.html" target="_top" xlink:title=" ">
<polygon fill="white" stroke="black" points="1026,-448.5 1026,-467.5 1160,-467.5 1160,-448.5 1026,-448.5"/>
<text text-anchor="middle" x="1093" y="-455.5" font-family="Helvetica,sans-Serif" font-size="10.00">AH/Containers/CRTP.hpp</text>
</a>
</g>
</g>
<!-- Node32&#45;&gt;Node33 -->
<g id="edge47" class="edge">
<title>Node32&#45;&gt;Node33</title>
<path fill="none" stroke="midnightblue" d="M880.93,-504.44C924.89,-495.02 995.63,-479.87 1043.18,-469.68"/>
<polygon fill="midnightblue" stroke="midnightblue" points="1044.21,-473.03 1053.26,-467.52 1042.75,-466.19 1044.21,-473.03"/>
</g>
<!-- Node34 -->
<g id="node34" class="node">
<title>Node34</title>
<g id="a_node34"><a xlink:href="../../de/dd1/LinkedList_8hpp.html" target="_top" xlink:title=" ">
<polygon fill="white" stroke="black" points="811.5,-448.5 811.5,-467.5 970.5,-467.5 970.5,-448.5 811.5,-448.5"/>
<text text-anchor="middle" x="891" y="-455.5" font-family="Helvetica,sans-Serif" font-size="10.00">AH/Containers/LinkedList.hpp</text>
</a>
</g>
</g>
<!-- Node32&#45;&gt;Node34 -->
<g id="edge48" class="edge">
<title>Node32&#45;&gt;Node34</title>
<path fill="none" stroke="midnightblue" d="M849.26,-504.08C856.46,-496.3 867.11,-484.8 875.85,-475.37"/>
<polygon fill="midnightblue" stroke="midnightblue" points="878.67,-477.47 882.9,-467.75 873.53,-472.71 878.67,-477.47"/>
</g>
<!-- Node36 -->
<g id="node36" class="node">
<title>Node36</title>
<g id="a_node36"><a xlink:title=" ">
<polygon fill="white" stroke="#bfbfbf" points="1178.5,-448.5 1178.5,-467.5 1261.5,-467.5 1261.5,-448.5 1178.5,-448.5"/>
<text text-anchor="middle" x="1220" y="-455.5" font-family="Helvetica,sans-Serif" font-size="10.00">AH/STL/utility</text>
</a>
</g>
</g>
<!-- Node32&#45;&gt;Node36 -->
<g id="edge55" class="edge">
<title>Node32&#45;&gt;Node36</title>
<path fill="none" stroke="midnightblue" d="M908.64,-504.49C972.83,-496.24 1072.27,-483 1168.38,-468.04"/>
<polygon fill="midnightblue" stroke="midnightblue" points="1168.93,-471.5 1178.27,-466.5 1167.85,-464.59 1168.93,-471.5"/>
</g>
<!-- Node34&#45;&gt;Node8 -->
<g id="edge49" class="edge">
<title>Node34&#45;&gt;Node8</title>
<path fill="none" stroke="midnightblue" d="M865.33,-448.44C838.08,-439.36 794.82,-424.94 764.35,-414.78"/>
<polygon fill="midnightblue" stroke="midnightblue" points="765.14,-411.36 754.55,-411.52 762.93,-418 765.14,-411.36"/>
</g>
<!-- Node34&#45;&gt;Node11 -->
<g id="edge50" class="edge">
<title>Node34&#45;&gt;Node11</title>
<path fill="none" stroke="midnightblue" d="M944.26,-448.44C1029.48,-433.23 1187,-398.19 1187,-347 1187,-347 1187,-347 1187,-233 1187,-182.01 1036.52,-148.73 944.91,-133.2"/>
<polygon fill="midnightblue" stroke="midnightblue" points="945.3,-129.72 934.86,-131.53 944.15,-136.62 945.3,-129.72"/>
</g>
<!-- Node34&#45;&gt;Node25 -->
<g id="edge52" class="edge">
<title>Node34&#45;&gt;Node25</title>
<path fill="none" stroke="midnightblue" d="M884.73,-448.08C879.36,-440.46 871.48,-429.26 864.92,-419.94"/>
<polygon fill="midnightblue" stroke="midnightblue" points="867.78,-417.91 859.16,-411.75 862.05,-421.94 867.78,-417.91"/>
</g>
<!-- Node35 -->
<g id="node35" class="node">
<title>Node35</title>
<g id="a_node35"><a xlink:title=" ">
<polygon fill="white" stroke="#bfbfbf" points="916.5,-392.5 916.5,-411.5 969.5,-411.5 969.5,-392.5 916.5,-392.5"/>
<text text-anchor="middle" x="943" y="-399.5" font-family="Helvetica,sans-Serif" font-size="10.00">stdlib.h</text>
</a>
</g>
</g>
<!-- Node34&#45;&gt;Node35 -->
<g id="edge51" class="edge">
<title>Node34&#45;&gt;Node35</title>
<path fill="none" stroke="midnightblue" d="M899.59,-448.08C907.16,-440.22 918.38,-428.57 927.51,-419.08"/>
<polygon fill="midnightblue" stroke="midnightblue" points="930.16,-421.38 934.57,-411.75 925.12,-416.53 930.16,-421.38"/>
</g>
<!-- Node37&#45;&gt;Node6 -->
<g id="edge60" class="edge">
<title>Node37&#45;&gt;Node6</title>
<path fill="none" stroke="midnightblue" d="M1012.1,-565.98C929.26,-555.09 786.26,-536.31 698.89,-524.84"/>
<polygon fill="midnightblue" stroke="midnightblue" points="699.15,-521.34 688.78,-523.51 698.24,-528.28 699.15,-521.34"/>
</g>
<!-- Node37&#45;&gt;Node9 -->
<g id="edge62" class="edge">
<title>Node37&#45;&gt;Node9</title>
<path fill="none" stroke="midnightblue" d="M1119.71,-565.98C1188.04,-550.24 1310.44,-512.25 1271,-448 1239.78,-397.14 1174.08,-370.92 1126.69,-358.1"/>
<polygon fill="midnightblue" stroke="midnightblue" points="1127.44,-354.67 1116.88,-355.56 1125.69,-361.45 1127.44,-354.67"/>
</g>
<!-- Node38 -->
<g id="node38" class="node">
<title>Node38</title>
<g id="a_node38"><a xlink:title=" ">
<polygon fill="white" stroke="#bfbfbf" points="1318.5,-504.5 1318.5,-523.5 1419.5,-523.5 1419.5,-504.5 1318.5,-504.5"/>
<text text-anchor="middle" x="1369" y="-511.5" font-family="Helvetica,sans-Serif" font-size="10.00">AH/STL/algorithm</text>
</a>
</g>
</g>
<!-- Node37&#45;&gt;Node38 -->
<g id="edge61" class="edge">
<title>Node37&#45;&gt;Node38</title>
<path fill="none" stroke="midnightblue" d="M1118.84,-565.98C1171.2,-555.3 1260.87,-537.03 1317.43,-525.51"/>
<polygon fill="midnightblue" stroke="midnightblue" points="1318.14,-528.94 1327.24,-523.51 1316.74,-522.08 1318.14,-528.94"/>
</g>
<!-- Node39&#45;&gt;Node7 -->
<g id="edge64" class="edge">
<title>Node39&#45;&gt;Node7</title>
<path fill="none" stroke="midnightblue" d="M422.66,-504.44C465.14,-495.04 533.43,-479.93 579.47,-469.74"/>
<polygon fill="midnightblue" stroke="midnightblue" points="580.51,-473.09 589.52,-467.52 579,-466.26 580.51,-473.09"/>
</g>
<!-- Node39&#45;&gt;Node15 -->
<g id="edge65" class="edge">
<title>Node39&#45;&gt;Node15</title>
<path fill="none" stroke="midnightblue" d="M374.56,-504.31C356.75,-486.93 320,-445.86 320,-403 320,-403 320,-403 320,-177 320,-125.44 471.97,-92.49 565.13,-77.14"/>
<polygon fill="midnightblue" stroke="midnightblue" points="565.76,-80.58 575.07,-75.53 564.64,-73.67 565.76,-80.58"/>
</g>
<!-- Node39&#45;&gt;Node23 -->
<g id="edge66" class="edge">
<title>Node39&#45;&gt;Node23</title>
<path fill="none" stroke="midnightblue" d="M385.57,-504.48C388.82,-486.04 396,-441.04 396,-403 396,-403 396,-403 396,-345 396,-312.38 405.02,-275.28 411.23,-253.57"/>
<polygon fill="midnightblue" stroke="midnightblue" points="414.67,-254.32 414.17,-243.73 407.96,-252.32 414.67,-254.32"/>
</g>
</g>
</svg>
