<?xml version="1.0" encoding="UTF-8" standalone="no"?>
<!DOCTYPE svg PUBLIC "-//W3C//DTD SVG 1.1//EN"
 "http://www.w3.org/Graphics/SVG/1.1/DTD/svg11.dtd">
<!-- Generated by graphviz version 2.43.0 (0)
 -->
<!-- Title: Arduino&#45;Hardware&#45;Types.hpp Pages: 1 -->
<svg width="992pt" height="655pt"
 viewBox="0.00 0.00 992.00 655.00" xmlns="http://www.w3.org/2000/svg" xmlns:xlink="http://www.w3.org/1999/xlink">
<g id="graph0" class="graph" transform="scale(1 1) rotate(0) translate(4 651)">
<title>Arduino&#45;Hardware&#45;Types.hpp</title>
<polygon fill="white" stroke="transparent" points="-4,4 -4,-651 988,-651 988,4 -4,4"/>
<!-- Node1 -->
<g id="node1" class="node">
<title>Node1</title>
<g id="a_node1"><a xlink:title=" ">
<polygon fill="#bfbfbf" stroke="black" points="576,-627.5 576,-646.5 733,-646.5 733,-627.5 576,-627.5"/>
<text text-anchor="middle" x="654.5" y="-634.5" font-family="Helvetica,sans-Serif" font-size="10.00">Arduino&#45;Hardware&#45;Types.hpp</text>
</a>
</g>
</g>
<!-- Node2 -->
<g id="node2" class="node">
<title>Node2</title>
<g id="a_node2"><a xlink:href="../../d4/d35/Hardware-Types_8hpp.html" target="_top" xlink:title=" ">
<polygon fill="white" stroke="black" points="589,-560.5 589,-590.5 720,-590.5 720,-560.5 589,-560.5"/>
<text text-anchor="start" x="597" y="-578.5" font-family="Helvetica,sans-Serif" font-size="10.00">AH/Hardware/Hardware</text>
<text text-anchor="middle" x="654.5" y="-567.5" font-family="Helvetica,sans-Serif" font-size="10.00">&#45;Types.hpp</text>
</a>
</g>
</g>
<!-- Node1&#45;&gt;Node2 -->
<g id="edge1" class="edge">
<title>Node1&#45;&gt;Node2</title>
<path fill="none" stroke="midnightblue" d="M654.5,-627.48C654.5,-620.47 654.5,-610.19 654.5,-600.7"/>
<polygon fill="midnightblue" stroke="midnightblue" points="658,-600.52 654.5,-590.52 651,-600.52 658,-600.52"/>
</g>
<!-- Node7 -->
<g id="node7" class="node">
<title>Node7</title>
<g id="a_node7"><a xlink:href="../../d6/ddf/Arduino-Wrapper_8h.html" target="_top" xlink:title=" ">
<polygon fill="white" stroke="black" points="100.5,-168.5 100.5,-187.5 224.5,-187.5 224.5,-168.5 100.5,-168.5"/>
<text text-anchor="middle" x="162.5" y="-175.5" font-family="Helvetica,sans-Serif" font-size="10.00">AH/Arduino&#45;Wrapper.h</text>
</a>
</g>
</g>
<!-- Node1&#45;&gt;Node7 -->
<g id="edge37" class="edge">
<title>Node1&#45;&gt;Node7</title>
<path fill="none" stroke="midnightblue" d="M575.91,-636.98C408.43,-636.95 31.5,-624.7 31.5,-515 31.5,-515 31.5,-515 31.5,-289 31.5,-258.9 30.28,-246.3 50.5,-224 65.26,-207.72 86.71,-197.23 106.91,-190.52"/>
<polygon fill="midnightblue" stroke="midnightblue" points="108.15,-193.8 116.68,-187.51 106.09,-187.1 108.15,-193.8"/>
</g>
<!-- Node23 -->
<g id="node23" class="node">
<title>Node23</title>
<g id="a_node23"><a xlink:href="../../d0/db1/FunctionTraits_8hpp.html" target="_top" xlink:title=" ">
<polygon fill="white" stroke="black" points="751,-566 751,-585 904,-585 904,-566 751,-566"/>
<text text-anchor="middle" x="827.5" y="-573" font-family="Helvetica,sans-Serif" font-size="10.00">AH/Types/FunctionTraits.hpp</text>
</a>
</g>
</g>
<!-- Node1&#45;&gt;Node23 -->
<g id="edge33" class="edge">
<title>Node1&#45;&gt;Node23</title>
<path fill="none" stroke="midnightblue" d="M679.29,-627.48C709.09,-617.22 759.29,-599.96 792.9,-588.4"/>
<polygon fill="midnightblue" stroke="midnightblue" points="794.44,-591.57 802.76,-585.01 792.16,-584.95 794.44,-591.57"/>
</g>
<!-- Node3 -->
<g id="node3" class="node">
<title>Node3</title>
<g id="a_node3"><a xlink:href="../../de/d76/Array_8hpp.html" target="_top" xlink:title=" ">
<polygon fill="white" stroke="black" points="212,-504.5 212,-523.5 347,-523.5 347,-504.5 212,-504.5"/>
<text text-anchor="middle" x="279.5" y="-511.5" font-family="Helvetica,sans-Serif" font-size="10.00">AH/Containers/Array.hpp</text>
</a>
</g>
</g>
<!-- Node2&#45;&gt;Node3 -->
<g id="edge2" class="edge">
<title>Node2&#45;&gt;Node3</title>
<path fill="none" stroke="midnightblue" d="M588.75,-564.07C519.72,-553.11 411.9,-536.01 343.52,-525.16"/>
<polygon fill="midnightblue" stroke="midnightblue" points="343.74,-521.65 333.32,-523.54 342.64,-528.56 343.74,-521.65"/>
</g>
<!-- Node12 -->
<g id="node12" class="node">
<title>Node12</title>
<g id="a_node12"><a xlink:href="../../dc/dc7/NamespaceSettings_8hpp.html" target="_top" xlink:title=" ">
<polygon fill="white" stroke="black" points="485,-56.5 485,-75.5 680,-75.5 680,-56.5 485,-56.5"/>
<text text-anchor="middle" x="582.5" y="-63.5" font-family="Helvetica,sans-Serif" font-size="10.00">AH/Settings/NamespaceSettings.hpp</text>
</a>
</g>
</g>
<!-- Node2&#45;&gt;Node12 -->
<g id="edge31" class="edge">
<title>Node2&#45;&gt;Node12</title>
<path fill="none" stroke="midnightblue" d="M671.75,-560.43C694.17,-540.44 730.5,-501.49 730.5,-459 730.5,-459 730.5,-459 730.5,-177 730.5,-124.02 668.66,-93.57 624.92,-78.66"/>
<polygon fill="midnightblue" stroke="midnightblue" points="625.94,-75.31 615.35,-75.54 623.77,-81.97 625.94,-75.31"/>
</g>
<!-- Node20 -->
<g id="node20" class="node">
<title>Node20</title>
<g id="a_node20"><a xlink:title=" ">
<polygon fill="white" stroke="#bfbfbf" points="611,-224.5 611,-243.5 664,-243.5 664,-224.5 611,-224.5"/>
<text text-anchor="middle" x="637.5" y="-231.5" font-family="Helvetica,sans-Serif" font-size="10.00">stdint.h</text>
</a>
</g>
</g>
<!-- Node2&#45;&gt;Node20 -->
<g id="edge32" class="edge">
<title>Node2&#45;&gt;Node20</title>
<path fill="none" stroke="midnightblue" d="M654.5,-560.28C654.5,-538.48 654.5,-495.49 654.5,-459 654.5,-459 654.5,-459 654.5,-345 654.5,-312.58 647.2,-275.42 642.17,-253.64"/>
<polygon fill="midnightblue" stroke="midnightblue" points="645.53,-252.67 639.79,-243.77 638.73,-254.31 645.53,-252.67"/>
</g>
<!-- Node4 -->
<g id="node4" class="node">
<title>Node4</title>
<g id="a_node4"><a xlink:href="../../d1/d93/Error_8hpp.html" target="_top" xlink:title=" ">
<polygon fill="white" stroke="black" points="328.5,-448.5 328.5,-467.5 432.5,-467.5 432.5,-448.5 328.5,-448.5"/>
<text text-anchor="middle" x="380.5" y="-455.5" font-family="Helvetica,sans-Serif" font-size="10.00">AH/Error/Error.hpp</text>
</a>
</g>
</g>
<!-- Node3&#45;&gt;Node4 -->
<g id="edge3" class="edge">
<title>Node3&#45;&gt;Node4</title>
<path fill="none" stroke="midnightblue" d="M295.73,-504.32C311.85,-495.7 336.8,-482.36 355.46,-472.39"/>
<polygon fill="midnightblue" stroke="midnightblue" points="357.14,-475.46 364.31,-467.65 353.84,-469.28 357.14,-475.46"/>
</g>
<!-- Node13 -->
<g id="node13" class="node">
<title>Node13</title>
<g id="a_node13"><a xlink:title=" ">
<polygon fill="white" stroke="#bfbfbf" points="0,-112.5 0,-131.5 107,-131.5 107,-112.5 0,-112.5"/>
<text text-anchor="middle" x="53.5" y="-119.5" font-family="Helvetica,sans-Serif" font-size="10.00">AH/STL/type_traits</text>
</a>
</g>
</g>
<!-- Node3&#45;&gt;Node13 -->
<g id="edge29" class="edge">
<title>Node3&#45;&gt;Node13</title>
<path fill="none" stroke="midnightblue" d="M211.9,-505.78C150.51,-495.02 69.5,-468.44 69.5,-403 69.5,-403 69.5,-403 69.5,-345 69.5,-299.32 54.74,-289.48 50.5,-244 49.67,-235.15 50.37,-232.89 50.5,-224 50.93,-195.27 52.04,-161.97 52.78,-141.7"/>
<polygon fill="midnightblue" stroke="midnightblue" points="56.28,-141.77 53.16,-131.64 49.28,-141.51 56.28,-141.77"/>
</g>
<!-- Node19 -->
<g id="node19" class="node">
<title>Node19</title>
<g id="a_node19"><a xlink:title=" ">
<polygon fill="white" stroke="#bfbfbf" points="251.5,-224.5 251.5,-243.5 307.5,-243.5 307.5,-224.5 251.5,-224.5"/>
<text text-anchor="middle" x="279.5" y="-231.5" font-family="Helvetica,sans-Serif" font-size="10.00">stddef.h</text>
</a>
</g>
</g>
<!-- Node3&#45;&gt;Node19 -->
<g id="edge30" class="edge">
<title>Node3&#45;&gt;Node19</title>
<path fill="none" stroke="midnightblue" d="M279.5,-504.44C279.5,-485.94 279.5,-440.81 279.5,-403 279.5,-403 279.5,-403 279.5,-345 279.5,-312.95 279.5,-275.64 279.5,-253.75"/>
<polygon fill="midnightblue" stroke="midnightblue" points="283,-253.56 279.5,-243.56 276,-253.56 283,-253.56"/>
</g>
<!-- Node22 -->
<g id="node22" class="node">
<title>Node22</title>
<g id="a_node22"><a xlink:title=" ">
<polygon fill="white" stroke="#bfbfbf" points="161.5,-448.5 161.5,-467.5 251.5,-467.5 251.5,-448.5 161.5,-448.5"/>
<text text-anchor="middle" x="206.5" y="-455.5" font-family="Helvetica,sans-Serif" font-size="10.00">AH/STL/iterator</text>
</a>
</g>
</g>
<!-- Node3&#45;&gt;Node22 -->
<g id="edge28" class="edge">
<title>Node3&#45;&gt;Node22</title>
<path fill="none" stroke="midnightblue" d="M267.77,-504.32C256.66,-496.11 239.76,-483.6 226.52,-473.81"/>
<polygon fill="midnightblue" stroke="midnightblue" points="228.56,-470.97 218.44,-467.83 224.4,-476.59 228.56,-470.97"/>
</g>
<!-- Node5 -->
<g id="node5" class="node">
<title>Node5</title>
<g id="a_node5"><a xlink:href="../../df/dee/Debug_8hpp.html" target="_top" xlink:title=" ">
<polygon fill="white" stroke="black" points="341,-392.5 341,-411.5 462,-411.5 462,-392.5 341,-392.5"/>
<text text-anchor="middle" x="401.5" y="-399.5" font-family="Helvetica,sans-Serif" font-size="10.00">AH/Debug/Debug.hpp</text>
</a>
</g>
</g>
<!-- Node4&#45;&gt;Node5 -->
<g id="edge4" class="edge">
<title>Node4&#45;&gt;Node5</title>
<path fill="none" stroke="midnightblue" d="M383.97,-448.08C386.81,-440.77 390.93,-430.18 394.46,-421.1"/>
<polygon fill="midnightblue" stroke="midnightblue" points="397.73,-422.34 398.1,-411.75 391.21,-419.8 397.73,-422.34"/>
</g>
<!-- Node6 -->
<g id="node6" class="node">
<title>Node6</title>
<g id="a_node6"><a xlink:href="../../dd/d80/PrintStream_8hpp.html" target="_top" xlink:title=" ">
<polygon fill="white" stroke="black" points="60,-224.5 60,-243.5 233,-243.5 233,-224.5 60,-224.5"/>
<text text-anchor="middle" x="146.5" y="-231.5" font-family="Helvetica,sans-Serif" font-size="10.00">AH/PrintStream/PrintStream.hpp</text>
</a>
</g>
</g>
<!-- Node5&#45;&gt;Node6 -->
<g id="edge5" class="edge">
<title>Node5&#45;&gt;Node6</title>
<path fill="none" stroke="midnightblue" d="M388.15,-392.31C346.67,-365.3 219.72,-282.67 168.39,-249.25"/>
<polygon fill="midnightblue" stroke="midnightblue" points="170.01,-246.13 159.72,-243.61 166.19,-251.99 170.01,-246.13"/>
</g>
<!-- Node14 -->
<g id="node14" class="node">
<title>Node14</title>
<g id="a_node14"><a xlink:href="../../d2/dd5/SettingsWrapper_8hpp.html" target="_top" xlink:title=" ">
<polygon fill="white" stroke="black" points="345.5,-336.5 345.5,-355.5 523.5,-355.5 523.5,-336.5 345.5,-336.5"/>
<text text-anchor="middle" x="434.5" y="-343.5" font-family="Helvetica,sans-Serif" font-size="10.00">AH/Settings/SettingsWrapper.hpp</text>
</a>
</g>
</g>
<!-- Node5&#45;&gt;Node14 -->
<g id="edge16" class="edge">
<title>Node5&#45;&gt;Node14</title>
<path fill="none" stroke="midnightblue" d="M401.78,-392.08C404.84,-384.46 411.29,-373.26 417.83,-363.94"/>
<polygon fill="midnightblue" stroke="midnightblue" points="420.78,-365.84 424.02,-355.75 415.2,-361.62 420.78,-365.84"/>
</g>
<!-- Node6&#45;&gt;Node7 -->
<g id="edge6" class="edge">
<title>Node6&#45;&gt;Node7</title>
<path fill="none" stroke="midnightblue" d="M149.14,-224.08C151.29,-216.85 154.38,-206.41 157.05,-197.4"/>
<polygon fill="midnightblue" stroke="midnightblue" points="160.42,-198.33 159.91,-187.75 153.71,-196.34 160.42,-198.33"/>
</g>
<!-- Node6&#45;&gt;Node12 -->
<g id="edge15" class="edge">
<title>Node6&#45;&gt;Node12</title>
<path fill="none" stroke="midnightblue" d="M169.02,-224.42C241.16,-196.96 466.66,-111.11 550.6,-79.15"/>
<polygon fill="midnightblue" stroke="midnightblue" points="552.01,-82.35 560.11,-75.52 549.52,-75.81 552.01,-82.35"/>
</g>
<!-- Node8 -->
<g id="node8" class="node">
<title>Node8</title>
<g id="a_node8"><a xlink:href="../../d7/d79/MinMaxFix_8hpp.html" target="_top" xlink:title=" ">
<polygon fill="white" stroke="black" points="248.5,-112.5 248.5,-131.5 384.5,-131.5 384.5,-112.5 248.5,-112.5"/>
<text text-anchor="middle" x="316.5" y="-119.5" font-family="Helvetica,sans-Serif" font-size="10.00">AH/Math/MinMaxFix.hpp</text>
</a>
</g>
</g>
<!-- Node7&#45;&gt;Node8 -->
<g id="edge7" class="edge">
<title>Node7&#45;&gt;Node8</title>
<path fill="none" stroke="midnightblue" d="M186.9,-168.44C212.7,-159.4 253.58,-145.06 282.52,-134.92"/>
<polygon fill="midnightblue" stroke="midnightblue" points="283.93,-138.13 292.21,-131.52 281.62,-131.52 283.93,-138.13"/>
</g>
<!-- Node11 -->
<g id="node11" class="node">
<title>Node11</title>
<g id="a_node11"><a xlink:title=" ">
<polygon fill="white" stroke="#bfbfbf" points="195,-0.5 195,-19.5 258,-19.5 258,-0.5 195,-0.5"/>
<text text-anchor="middle" x="226.5" y="-7.5" font-family="Helvetica,sans-Serif" font-size="10.00">Arduino.h</text>
</a>
</g>
</g>
<!-- Node7&#45;&gt;Node11 -->
<g id="edge14" class="edge">
<title>Node7&#45;&gt;Node11</title>
<path fill="none" stroke="midnightblue" d="M165.94,-168.08C176.06,-141.83 205.86,-64.55 219.52,-29.12"/>
<polygon fill="midnightblue" stroke="midnightblue" points="222.86,-30.16 223.2,-19.57 216.33,-27.64 222.86,-30.16"/>
</g>
<!-- Node7&#45;&gt;Node13 -->
<g id="edge13" class="edge">
<title>Node7&#45;&gt;Node13</title>
<path fill="none" stroke="midnightblue" d="M144.99,-168.32C127.43,-159.62 100.17,-146.12 79.97,-136.11"/>
<polygon fill="midnightblue" stroke="midnightblue" points="81.48,-132.96 70.97,-131.65 78.38,-139.23 81.48,-132.96"/>
</g>
<!-- Node9 -->
<g id="node9" class="node">
<title>Node9</title>
<g id="a_node9"><a xlink:href="../../d6/d3b/FixArduinoMacros_8hpp.html" target="_top" xlink:title=" ">
<polygon fill="white" stroke="black" points="231.5,-56.5 231.5,-75.5 401.5,-75.5 401.5,-56.5 231.5,-56.5"/>
<text text-anchor="middle" x="316.5" y="-63.5" font-family="Helvetica,sans-Serif" font-size="10.00">AH/Math/FixArduinoMacros.hpp</text>
</a>
</g>
</g>
<!-- Node8&#45;&gt;Node9 -->
<g id="edge8" class="edge">
<title>Node8&#45;&gt;Node9</title>
<path fill="none" stroke="midnightblue" d="M316.5,-112.08C316.5,-105.01 316.5,-94.86 316.5,-85.99"/>
<polygon fill="midnightblue" stroke="midnightblue" points="320,-85.75 316.5,-75.75 313,-85.75 320,-85.75"/>
</g>
<!-- Node8&#45;&gt;Node12 -->
<g id="edge11" class="edge">
<title>Node8&#45;&gt;Node12</title>
<path fill="none" stroke="midnightblue" d="M358.65,-112.44C405.25,-102.98 480.34,-87.74 530.55,-77.55"/>
<polygon fill="midnightblue" stroke="midnightblue" points="531.44,-80.94 540.55,-75.52 530.05,-74.08 531.44,-80.94"/>
</g>
<!-- Node10 -->
<g id="node10" class="node">
<title>Node10</title>
<g id="a_node10"><a xlink:href="../../d1/d65/Warnings_8hpp.html" target="_top" xlink:title=" ">
<polygon fill="white" stroke="black" points="405,-0.5 405,-19.5 548,-19.5 548,-0.5 405,-0.5"/>
<text text-anchor="middle" x="476.5" y="-7.5" font-family="Helvetica,sans-Serif" font-size="10.00">AH/Settings/Warnings.hpp</text>
</a>
</g>
</g>
<!-- Node9&#45;&gt;Node10 -->
<g id="edge9" class="edge">
<title>Node9&#45;&gt;Node10</title>
<path fill="none" stroke="midnightblue" d="M341.85,-56.44C368.77,-47.36 411.5,-32.94 441.59,-22.78"/>
<polygon fill="midnightblue" stroke="midnightblue" points="442.91,-26.03 451.27,-19.52 440.67,-19.4 442.91,-26.03"/>
</g>
<!-- Node9&#45;&gt;Node11 -->
<g id="edge10" class="edge">
<title>Node9&#45;&gt;Node11</title>
<path fill="none" stroke="midnightblue" d="M302.04,-56.32C288,-47.9 266.45,-34.97 249.96,-25.07"/>
<polygon fill="midnightblue" stroke="midnightblue" points="251.3,-21.8 240.92,-19.65 247.7,-27.8 251.3,-21.8"/>
</g>
<!-- Node12&#45;&gt;Node10 -->
<g id="edge12" class="edge">
<title>Node12&#45;&gt;Node10</title>
<path fill="none" stroke="midnightblue" d="M565.47,-56.32C548.47,-47.66 522.12,-34.24 502.51,-24.25"/>
<polygon fill="midnightblue" stroke="midnightblue" points="503.99,-21.08 493.49,-19.65 500.81,-27.31 503.99,-21.08"/>
</g>
<!-- Node14&#45;&gt;Node5 -->
<g id="edge27" class="edge">
<title>Node14&#45;&gt;Node5</title>
<path fill="none" stroke="midnightblue" d="M434.28,-355.75C431.28,-363.33 424.85,-374.5 418.31,-383.86"/>
<polygon fill="midnightblue" stroke="midnightblue" points="415.33,-381.99 412.12,-392.08 420.93,-386.2 415.33,-381.99"/>
</g>
<!-- Node14&#45;&gt;Node12 -->
<g id="edge17" class="edge">
<title>Node14&#45;&gt;Node12</title>
<path fill="none" stroke="midnightblue" d="M523.65,-342.35C598.22,-334.8 692.5,-310.35 692.5,-235 692.5,-235 692.5,-235 692.5,-177 692.5,-130.91 643.62,-97.39 611.03,-80.16"/>
<polygon fill="midnightblue" stroke="midnightblue" points="612.41,-76.94 601.91,-75.54 609.25,-83.18 612.41,-76.94"/>
</g>
<!-- Node15 -->
<g id="node15" class="node">
<title>Node15</title>
<g id="a_node15"><a xlink:href="../../db/d02/Settings_8hpp.html" target="_top" xlink:title="All user settings and debugging options can be changed here.">
<polygon fill="white" stroke="black" points="358,-280.5 358,-299.5 435,-299.5 435,-280.5 358,-280.5"/>
<text text-anchor="middle" x="396.5" y="-287.5" font-family="Helvetica,sans-Serif" font-size="10.00">Settings.hpp</text>
</a>
</g>
</g>
<!-- Node14&#45;&gt;Node15 -->
<g id="edge18" class="edge">
<title>Node14&#45;&gt;Node15</title>
<path fill="none" stroke="midnightblue" d="M428.23,-336.08C422.86,-328.46 414.98,-317.26 408.42,-307.94"/>
<polygon fill="midnightblue" stroke="midnightblue" points="411.28,-305.91 402.66,-299.75 405.55,-309.94 411.28,-305.91"/>
</g>
<!-- Node21 -->
<g id="node21" class="node">
<title>Node21</title>
<g id="a_node21"><a xlink:href="../../d9/d98/TeensyUSBTypes_8hpp.html" target="_top" xlink:title=" ">
<polygon fill="white" stroke="black" points="453,-280.5 453,-299.5 626,-299.5 626,-280.5 453,-280.5"/>
<text text-anchor="middle" x="539.5" y="-287.5" font-family="Helvetica,sans-Serif" font-size="10.00">AH/Teensy/TeensyUSBTypes.hpp</text>
</a>
</g>
</g>
<!-- Node14&#45;&gt;Node21 -->
<g id="edge26" class="edge">
<title>Node14&#45;&gt;Node21</title>
<path fill="none" stroke="midnightblue" d="M451.37,-336.32C468.21,-327.66 494.31,-314.24 513.74,-304.25"/>
<polygon fill="midnightblue" stroke="midnightblue" points="515.38,-307.34 522.67,-299.65 512.18,-301.12 515.38,-307.34"/>
</g>
<!-- Node16 -->
<g id="node16" class="node">
<title>Node16</title>
<g id="a_node16"><a xlink:href="../../dc/d50/Frequency_8hpp.html" target="_top" xlink:title=" ">
<polygon fill="white" stroke="black" points="515.5,-168.5 515.5,-187.5 649.5,-187.5 649.5,-168.5 515.5,-168.5"/>
<text text-anchor="middle" x="582.5" y="-175.5" font-family="Helvetica,sans-Serif" font-size="10.00">AH/Types/Frequency.hpp</text>
</a>
</g>
</g>
<!-- Node15&#45;&gt;Node16 -->
<g id="edge19" class="edge">
<title>Node15&#45;&gt;Node16</title>
<path fill="none" stroke="midnightblue" d="M435.26,-280.65C481.64,-270.34 554.25,-253.06 563.5,-244 575.7,-232.06 580.17,-212.75 581.76,-198.28"/>
<polygon fill="midnightblue" stroke="midnightblue" points="585.28,-198.17 582.5,-187.94 578.29,-197.66 585.28,-198.17"/>
</g>
<!-- Node17 -->
<g id="node17" class="node">
<title>Node17</title>
<g id="a_node17"><a xlink:href="../../d7/d7c/ADCConfig_8hpp.html" target="_top" xlink:title="This file contains the platform&#45;specific ADC resolutions.">
<polygon fill="white" stroke="black" points="326,-224.5 326,-243.5 483,-243.5 483,-224.5 326,-224.5"/>
<text text-anchor="middle" x="404.5" y="-231.5" font-family="Helvetica,sans-Serif" font-size="10.00">AH/Hardware/ADCConfig.hpp</text>
</a>
</g>
</g>
<!-- Node15&#45;&gt;Node17 -->
<g id="edge21" class="edge">
<title>Node15&#45;&gt;Node17</title>
<path fill="none" stroke="midnightblue" d="M397.82,-280.08C398.88,-272.93 400.41,-262.64 401.73,-253.69"/>
<polygon fill="midnightblue" stroke="midnightblue" points="405.2,-254.16 403.2,-243.75 398.28,-253.13 405.2,-254.16"/>
</g>
<!-- Node18 -->
<g id="node18" class="node">
<title>Node18</title>
<g id="a_node18"><a xlink:title=" ">
<polygon fill="white" stroke="#bfbfbf" points="501,-224.5 501,-243.5 554,-243.5 554,-224.5 501,-224.5"/>
<text text-anchor="middle" x="527.5" y="-231.5" font-family="Helvetica,sans-Serif" font-size="10.00">limits.h</text>
</a>
</g>
</g>
<!-- Node15&#45;&gt;Node18 -->
<g id="edge23" class="edge">
<title>Node15&#45;&gt;Node18</title>
<path fill="none" stroke="midnightblue" d="M417.26,-280.44C438.82,-271.56 472.76,-257.56 497.29,-247.45"/>
<polygon fill="midnightblue" stroke="midnightblue" points="498.93,-250.56 506.84,-243.52 496.26,-244.09 498.93,-250.56"/>
</g>
<!-- Node15&#45;&gt;Node19 -->
<g id="edge24" class="edge">
<title>Node15&#45;&gt;Node19</title>
<path fill="none" stroke="midnightblue" d="M377.96,-280.44C358.88,-271.64 328.93,-257.81 307.06,-247.72"/>
<polygon fill="midnightblue" stroke="midnightblue" points="308.5,-244.53 297.95,-243.52 305.57,-250.88 308.5,-244.53"/>
</g>
<!-- Node15&#45;&gt;Node20 -->
<g id="edge25" class="edge">
<title>Node15&#45;&gt;Node20</title>
<path fill="none" stroke="midnightblue" d="M434.69,-280.44C480.25,-270.24 555.88,-253.29 600.78,-243.23"/>
<polygon fill="midnightblue" stroke="midnightblue" points="601.69,-246.61 610.68,-241.01 600.16,-239.78 601.69,-246.61"/>
</g>
<!-- Node16&#45;&gt;Node12 -->
<g id="edge20" class="edge">
<title>Node16&#45;&gt;Node12</title>
<path fill="none" stroke="midnightblue" d="M582.5,-168.37C582.5,-150.62 582.5,-109.67 582.5,-85.6"/>
<polygon fill="midnightblue" stroke="midnightblue" points="586,-85.59 582.5,-75.59 579,-85.59 586,-85.59"/>
</g>
<!-- Node17&#45;&gt;Node7 -->
<g id="edge22" class="edge">
<title>Node17&#45;&gt;Node7</title>
<path fill="none" stroke="midnightblue" d="M366.15,-224.44C324.03,-215.04 256.29,-199.93 210.63,-189.74"/>
<polygon fill="midnightblue" stroke="midnightblue" points="211.19,-186.28 200.67,-187.52 209.66,-193.11 211.19,-186.28"/>
</g>
<!-- Node23&#45;&gt;Node12 -->
<g id="edge36" class="edge">
<title>Node23&#45;&gt;Node12</title>
<path fill="none" stroke="midnightblue" d="M818.98,-565.93C809.97,-556.44 795.92,-540.29 787.5,-524 773.68,-497.26 768.5,-489.1 768.5,-459 768.5,-459 768.5,-459 768.5,-177 768.5,-118.99 700.64,-90.93 646.9,-77.8"/>
<polygon fill="midnightblue" stroke="midnightblue" points="647.58,-74.36 637.05,-75.52 646,-81.18 647.58,-74.36"/>
</g>
<!-- Node24 -->
<g id="node24" class="node">
<title>Node24</title>
<g id="a_node24"><a xlink:title=" ">
<polygon fill="white" stroke="#bfbfbf" points="796.5,-504.5 796.5,-523.5 886.5,-523.5 886.5,-504.5 796.5,-504.5"/>
<text text-anchor="middle" x="841.5" y="-511.5" font-family="Helvetica,sans-Serif" font-size="10.00">AH/STL/cstddef</text>
</a>
</g>
</g>
<!-- Node23&#45;&gt;Node24 -->
<g id="edge34" class="edge">
<title>Node23&#45;&gt;Node24</title>
<path fill="none" stroke="midnightblue" d="M829.51,-565.98C831.5,-557.49 834.63,-544.2 837.19,-533.32"/>
<polygon fill="midnightblue" stroke="midnightblue" points="840.61,-534.04 839.5,-523.51 833.8,-532.44 840.61,-534.04"/>
</g>
<!-- Node25 -->
<g id="node25" class="node">
<title>Node25</title>
<g id="a_node25"><a xlink:title=" ">
<polygon fill="white" stroke="#bfbfbf" points="905,-504.5 905,-523.5 984,-523.5 984,-504.5 905,-504.5"/>
<text text-anchor="middle" x="944.5" y="-511.5" font-family="Helvetica,sans-Serif" font-size="10.00">AH/STL/tuple</text>
</a>
</g>
</g>
<!-- Node23&#45;&gt;Node25 -->
<g id="edge35" class="edge">
<title>Node23&#45;&gt;Node25</title>
<path fill="none" stroke="midnightblue" d="M844.26,-565.98C863.72,-556.08 896.05,-539.64 918.71,-528.12"/>
<polygon fill="midnightblue" stroke="midnightblue" points="920.44,-531.16 927.77,-523.51 917.27,-524.92 920.44,-531.16"/>
</g>
</g>
</svg>
