<?xml version="1.0" encoding="UTF-8" standalone="no"?>
<!DOCTYPE svg PUBLIC "-//W3C//DTD SVG 1.1//EN"
 "http://www.w3.org/Graphics/SVG/1.1/DTD/svg11.dtd">
<!-- Generated by graphviz version 2.43.0 (0)
 -->
<!-- Title: DotBarDisplayLEDs.hpp Pages: 1 -->
<svg width="1334pt" height="845pt"
 viewBox="0.00 0.00 1334.00 845.00" xmlns="http://www.w3.org/2000/svg" xmlns:xlink="http://www.w3.org/1999/xlink">
<g id="graph0" class="graph" transform="scale(1 1) rotate(0) translate(4 841)">
<title>DotBarDisplayLEDs.hpp</title>
<polygon fill="white" stroke="transparent" points="-4,4 -4,-841 1330,-841 1330,4 -4,4"/>
<!-- Node1 -->
<g id="node1" class="node">
<title>Node1</title>
<g id="a_node1"><a xlink:title=" ">
<polygon fill="#bfbfbf" stroke="black" points="75,-817.5 75,-836.5 207,-836.5 207,-817.5 75,-817.5"/>
<text text-anchor="middle" x="141" y="-824.5" font-family="Helvetica,sans-Serif" font-size="10.00">DotBarDisplayLEDs.hpp</text>
</a>
</g>
</g>
<!-- Node2 -->
<g id="node2" class="node">
<title>Node2</title>
<g id="a_node2"><a xlink:href="../../d1/d65/Warnings_8hpp.html" target="_top" xlink:title=" ">
<polygon fill="white" stroke="black" points="927.5,-0.5 927.5,-19.5 1070.5,-19.5 1070.5,-0.5 927.5,-0.5"/>
<text text-anchor="middle" x="999" y="-7.5" font-family="Helvetica,sans-Serif" font-size="10.00">AH/Settings/Warnings.hpp</text>
</a>
</g>
</g>
<!-- Node1&#45;&gt;Node2 -->
<g id="edge1" class="edge">
<title>Node1&#45;&gt;Node2</title>
<path fill="none" stroke="midnightblue" d="M113.48,-817.43C72.45,-802.73 0,-768.57 0,-710.5 0,-710.5 0,-710.5 0,-121 0,-82.58 22.39,-72.69 57,-56 133.31,-19.2 702.04,-12.49 917.02,-11.27"/>
<polygon fill="midnightblue" stroke="midnightblue" points="917.31,-14.77 927.29,-11.21 917.27,-7.77 917.31,-14.77"/>
</g>
<!-- Node3 -->
<g id="node3" class="node">
<title>Node3</title>
<g id="a_node3"><a xlink:href="../../d9/d4f/LEDs_8hpp.html" target="_top" xlink:title=" ">
<polygon fill="white" stroke="black" points="366,-761.5 366,-780.5 522,-780.5 522,-761.5 366,-761.5"/>
<text text-anchor="middle" x="444" y="-768.5" font-family="Helvetica,sans-Serif" font-size="10.00">AH/Hardware/LEDs/LEDs.hpp</text>
</a>
</g>
</g>
<!-- Node1&#45;&gt;Node3 -->
<g id="edge2" class="edge">
<title>Node1&#45;&gt;Node3</title>
<path fill="none" stroke="midnightblue" d="M189.01,-817.44C242.53,-807.9 329.07,-792.48 386.24,-782.29"/>
<polygon fill="midnightblue" stroke="midnightblue" points="386.98,-785.72 396.21,-780.52 385.75,-778.83 386.98,-785.72"/>
</g>
<!-- Node3&#45;&gt;Node2 -->
<g id="edge3" class="edge">
<title>Node3&#45;&gt;Node2</title>
<path fill="none" stroke="midnightblue" d="M522.27,-766.95C738.13,-757.49 1326,-724.33 1326,-643.5 1326,-643.5 1326,-643.5 1326,-121 1326,-81.98 1301.24,-74.71 1267,-56 1235.64,-38.87 1147.57,-26.25 1080.87,-18.81"/>
<polygon fill="midnightblue" stroke="midnightblue" points="1081.1,-15.32 1070.78,-17.71 1080.34,-22.27 1081.1,-15.32"/>
</g>
<!-- Node4 -->
<g id="node4" class="node">
<title>Node4</title>
<g id="a_node4"><a xlink:href="../../dd/ddf/ExtendedInputOutput_8hpp.html" target="_top" xlink:title=" ">
<polygon fill="white" stroke="black" points="355.5,-694.5 355.5,-724.5 532.5,-724.5 532.5,-694.5 355.5,-694.5"/>
<text text-anchor="start" x="363.5" y="-712.5" font-family="Helvetica,sans-Serif" font-size="10.00">AH/Hardware/ExtendedInput</text>
<text text-anchor="middle" x="444" y="-701.5" font-family="Helvetica,sans-Serif" font-size="10.00">Output/ExtendedInputOutput.hpp</text>
</a>
</g>
</g>
<!-- Node3&#45;&gt;Node4 -->
<g id="edge4" class="edge">
<title>Node3&#45;&gt;Node4</title>
<path fill="none" stroke="midnightblue" d="M444,-761.48C444,-754.47 444,-744.19 444,-734.7"/>
<polygon fill="midnightblue" stroke="midnightblue" points="447.5,-734.52 444,-724.52 440.5,-734.52 447.5,-734.52"/>
</g>
<!-- Node4&#45;&gt;Node2 -->
<g id="edge57" class="edge">
<title>Node4&#45;&gt;Node2</title>
<path fill="none" stroke="midnightblue" d="M532.73,-703.83C749.42,-691.24 1288,-652.32 1288,-576.5 1288,-576.5 1288,-576.5 1288,-121 1288,-84.82 1269.75,-75.07 1239,-56 1212.9,-39.82 1139.49,-27.54 1080.66,-19.93"/>
<polygon fill="midnightblue" stroke="midnightblue" points="1080.97,-16.44 1070.61,-18.66 1080.09,-23.38 1080.97,-16.44"/>
</g>
<!-- Node5 -->
<g id="node5" class="node">
<title>Node5</title>
<g id="a_node5"><a xlink:href="../../d2/d3c/Arduino-Hardware-Types_8hpp.html" target="_top" xlink:title=" ">
<polygon fill="white" stroke="black" points="445,-627.5 445,-657.5 567,-657.5 567,-627.5 445,-627.5"/>
<text text-anchor="start" x="453" y="-645.5" font-family="Helvetica,sans-Serif" font-size="10.00">AH/Hardware/Arduino</text>
<text text-anchor="middle" x="506" y="-634.5" font-family="Helvetica,sans-Serif" font-size="10.00">&#45;Hardware&#45;Types.hpp</text>
</a>
</g>
</g>
<!-- Node4&#45;&gt;Node5 -->
<g id="edge5" class="edge">
<title>Node4&#45;&gt;Node5</title>
<path fill="none" stroke="midnightblue" d="M457.45,-694.4C465.66,-685.79 476.31,-674.63 485.55,-664.94"/>
<polygon fill="midnightblue" stroke="midnightblue" points="488.2,-667.23 492.57,-657.58 483.14,-662.4 488.2,-667.23"/>
</g>
<!-- Node11 -->
<g id="node11" class="node">
<title>Node11</title>
<g id="a_node11"><a xlink:href="../../dc/dc7/NamespaceSettings_8hpp.html" target="_top" xlink:title=" ">
<polygon fill="white" stroke="black" points="309.5,-56.5 309.5,-75.5 504.5,-75.5 504.5,-56.5 309.5,-56.5"/>
<text text-anchor="middle" x="407" y="-63.5" font-family="Helvetica,sans-Serif" font-size="10.00">AH/Settings/NamespaceSettings.hpp</text>
</a>
</g>
</g>
<!-- Node4&#45;&gt;Node11 -->
<g id="edge56" class="edge">
<title>Node4&#45;&gt;Node11</title>
<path fill="none" stroke="midnightblue" d="M355.2,-694.94C289,-679.2 210,-645.88 210,-576.5 210,-576.5 210,-576.5 210,-345 210,-233.99 218.97,-187.88 300,-112 316.75,-96.31 339.77,-85.68 360.16,-78.71"/>
<polygon fill="midnightblue" stroke="midnightblue" points="361.48,-81.96 369.93,-75.57 359.34,-75.3 361.48,-81.96"/>
</g>
<!-- Node30 -->
<g id="node30" class="node">
<title>Node30</title>
<g id="a_node30"><a xlink:title=" ">
<polygon fill="white" stroke="#bfbfbf" points="339.5,-633 339.5,-652 426.5,-652 426.5,-633 339.5,-633"/>
<text text-anchor="middle" x="383" y="-640" font-family="Helvetica,sans-Serif" font-size="10.00">AH/STL/climits</text>
</a>
</g>
</g>
<!-- Node4&#45;&gt;Node30 -->
<g id="edge55" class="edge">
<title>Node4&#45;&gt;Node30</title>
<path fill="none" stroke="midnightblue" d="M430.76,-694.4C421.16,-684.16 408.15,-670.3 398.13,-659.62"/>
<polygon fill="midnightblue" stroke="midnightblue" points="400.55,-657.09 391.16,-652.19 395.45,-661.88 400.55,-657.09"/>
</g>
<!-- Node5&#45;&gt;Node2 -->
<g id="edge6" class="edge">
<title>Node5&#45;&gt;Node2</title>
<path fill="none" stroke="midnightblue" d="M567.2,-637.53C745.17,-625.18 1250,-584.07 1250,-515 1250,-515 1250,-515 1250,-121 1250,-45.68 1154.02,-21.45 1080.76,-13.93"/>
<polygon fill="midnightblue" stroke="midnightblue" points="1080.87,-10.42 1070.59,-12.97 1080.22,-17.39 1080.87,-10.42"/>
</g>
<!-- Node6 -->
<g id="node6" class="node">
<title>Node6</title>
<g id="a_node6"><a xlink:href="../../d4/d35/Hardware-Types_8hpp.html" target="_top" xlink:title=" ">
<polygon fill="white" stroke="black" points="542.5,-560.5 542.5,-590.5 673.5,-590.5 673.5,-560.5 542.5,-560.5"/>
<text text-anchor="start" x="550.5" y="-578.5" font-family="Helvetica,sans-Serif" font-size="10.00">AH/Hardware/Hardware</text>
<text text-anchor="middle" x="608" y="-567.5" font-family="Helvetica,sans-Serif" font-size="10.00">&#45;Types.hpp</text>
</a>
</g>
</g>
<!-- Node5&#45;&gt;Node6 -->
<g id="edge7" class="edge">
<title>Node5&#45;&gt;Node6</title>
<path fill="none" stroke="midnightblue" d="M528.13,-627.4C542.57,-618.2 561.6,-606.07 577.47,-595.95"/>
<polygon fill="midnightblue" stroke="midnightblue" points="579.36,-598.9 585.91,-590.58 575.6,-593 579.36,-598.9"/>
</g>
<!-- Node12 -->
<g id="node12" class="node">
<title>Node12</title>
<g id="a_node12"><a xlink:href="../../d6/ddf/Arduino-Wrapper_8h.html" target="_top" xlink:title=" ">
<polygon fill="white" stroke="black" points="443,-168.5 443,-187.5 567,-187.5 567,-168.5 443,-168.5"/>
<text text-anchor="middle" x="505" y="-175.5" font-family="Helvetica,sans-Serif" font-size="10.00">AH/Arduino&#45;Wrapper.h</text>
</a>
</g>
</g>
<!-- Node5&#45;&gt;Node12 -->
<g id="edge54" class="edge">
<title>Node5&#45;&gt;Node12</title>
<path fill="none" stroke="midnightblue" d="M468.17,-627.42C425.5,-608.79 362,-571.57 362,-515 362,-515 362,-515 362,-289 362,-258.9 360.41,-245.95 381,-224 396.56,-207.42 418.7,-196.93 439.98,-190.3"/>
<polygon fill="midnightblue" stroke="midnightblue" points="441.03,-193.64 449.67,-187.52 439.09,-186.91 441.03,-193.64"/>
</g>
<!-- Node27 -->
<g id="node27" class="node">
<title>Node27</title>
<g id="a_node27"><a xlink:href="../../d0/db1/FunctionTraits_8hpp.html" target="_top" xlink:title=" ">
<polygon fill="white" stroke="black" points="66.5,-112.5 66.5,-131.5 219.5,-131.5 219.5,-112.5 66.5,-112.5"/>
<text text-anchor="middle" x="143" y="-119.5" font-family="Helvetica,sans-Serif" font-size="10.00">AH/Types/FunctionTraits.hpp</text>
</a>
</g>
</g>
<!-- Node5&#45;&gt;Node27 -->
<g id="edge49" class="edge">
<title>Node5&#45;&gt;Node27</title>
<path fill="none" stroke="midnightblue" d="M454.41,-627.46C379.12,-605.43 248,-560.52 248,-515 248,-515 248,-515 248,-345 248,-260.89 185.64,-174.58 157.04,-139.41"/>
<polygon fill="midnightblue" stroke="midnightblue" points="159.63,-137.05 150.55,-131.6 154.25,-141.53 159.63,-137.05"/>
</g>
<!-- Node6&#45;&gt;Node2 -->
<g id="edge8" class="edge">
<title>Node6&#45;&gt;Node2</title>
<path fill="none" stroke="midnightblue" d="M673.64,-572.47C793.82,-568.04 1044.27,-555.27 1125,-524 1170.01,-506.57 1212,-507.27 1212,-459 1212,-459 1212,-459 1212,-121 1212,-59.3 1140.57,-32.17 1080.44,-20.27"/>
<polygon fill="midnightblue" stroke="midnightblue" points="1080.99,-16.81 1070.52,-18.42 1079.71,-23.69 1080.99,-16.81"/>
</g>
<!-- Node7 -->
<g id="node7" class="node">
<title>Node7</title>
<g id="a_node7"><a xlink:href="../../de/d76/Array_8hpp.html" target="_top" xlink:title=" ">
<polygon fill="white" stroke="black" points="880.5,-504.5 880.5,-523.5 1015.5,-523.5 1015.5,-504.5 880.5,-504.5"/>
<text text-anchor="middle" x="948" y="-511.5" font-family="Helvetica,sans-Serif" font-size="10.00">AH/Containers/Array.hpp</text>
</a>
</g>
</g>
<!-- Node6&#45;&gt;Node7 -->
<g id="edge9" class="edge">
<title>Node6&#45;&gt;Node7</title>
<path fill="none" stroke="midnightblue" d="M673.56,-563.03C736.03,-552.09 829.24,-535.78 889.33,-525.27"/>
<polygon fill="midnightblue" stroke="midnightblue" points="890.16,-528.67 899.41,-523.5 888.96,-521.78 890.16,-528.67"/>
</g>
<!-- Node10 -->
<g id="node10" class="node">
<title>Node10</title>
<g id="a_node10"><a xlink:href="../../dd/d80/PrintStream_8hpp.html" target="_top" xlink:title=" ">
<polygon fill="white" stroke="black" points="390.5,-224.5 390.5,-243.5 563.5,-243.5 563.5,-224.5 390.5,-224.5"/>
<text text-anchor="middle" x="477" y="-231.5" font-family="Helvetica,sans-Serif" font-size="10.00">AH/PrintStream/PrintStream.hpp</text>
</a>
</g>
</g>
<!-- Node6&#45;&gt;Node10 -->
<g id="edge45" class="edge">
<title>Node6&#45;&gt;Node10</title>
<path fill="none" stroke="midnightblue" d="M576.95,-560.42C542.29,-542.33 491,-507.38 491,-459 491,-459 491,-459 491,-345 491,-312.54 484.93,-275.12 480.78,-253.36"/>
<polygon fill="midnightblue" stroke="midnightblue" points="484.21,-252.64 478.83,-243.51 477.34,-254 484.21,-252.64"/>
</g>
<!-- Node6&#45;&gt;Node11 -->
<g id="edge47" class="edge">
<title>Node6&#45;&gt;Node11</title>
<path fill="none" stroke="midnightblue" d="M542.45,-564.61C448.3,-548.52 286,-512.97 286,-459 286,-459 286,-459 286,-177 286,-128.99 338.8,-96.41 374.64,-79.82"/>
<polygon fill="midnightblue" stroke="midnightblue" points="376.52,-82.82 384.24,-75.57 373.68,-76.42 376.52,-82.82"/>
</g>
<!-- Node23 -->
<g id="node23" class="node">
<title>Node23</title>
<g id="a_node23"><a xlink:title=" ">
<polygon fill="white" stroke="#bfbfbf" points="581.5,-224.5 581.5,-243.5 634.5,-243.5 634.5,-224.5 581.5,-224.5"/>
<text text-anchor="middle" x="608" y="-231.5" font-family="Helvetica,sans-Serif" font-size="10.00">stdint.h</text>
</a>
</g>
</g>
<!-- Node6&#45;&gt;Node23 -->
<g id="edge48" class="edge">
<title>Node6&#45;&gt;Node23</title>
<path fill="none" stroke="midnightblue" d="M608,-560.28C608,-538.48 608,-495.49 608,-459 608,-459 608,-459 608,-345 608,-312.95 608,-275.64 608,-253.75"/>
<polygon fill="midnightblue" stroke="midnightblue" points="611.5,-253.56 608,-243.56 604.5,-253.56 611.5,-253.56"/>
</g>
<!-- Node26 -->
<g id="node26" class="node">
<title>Node26</title>
<g id="a_node26"><a xlink:title=" ">
<polygon fill="white" stroke="#bfbfbf" points="1034,-504.5 1034,-523.5 1116,-523.5 1116,-504.5 1034,-504.5"/>
<text text-anchor="middle" x="1075" y="-511.5" font-family="Helvetica,sans-Serif" font-size="10.00">AH/STL/limits</text>
</a>
</g>
</g>
<!-- Node6&#45;&gt;Node26 -->
<g id="edge46" class="edge">
<title>Node6&#45;&gt;Node26</title>
<path fill="none" stroke="midnightblue" d="M673.52,-567.75C753.7,-559.22 893.8,-543.46 1023.7,-524.12"/>
<polygon fill="midnightblue" stroke="midnightblue" points="1024.46,-527.55 1033.83,-522.6 1023.42,-520.63 1024.46,-527.55"/>
</g>
<!-- Node7&#45;&gt;Node2 -->
<g id="edge10" class="edge">
<title>Node7&#45;&gt;Node2</title>
<path fill="none" stroke="midnightblue" d="M1000.3,-504.48C1057.83,-494.67 1143.68,-478.55 1155,-468 1177.02,-447.48 1174,-433.1 1174,-403 1174,-403 1174,-403 1174,-121 1174,-64.31 1107.37,-35.7 1056.33,-22.1"/>
<polygon fill="midnightblue" stroke="midnightblue" points="1056.91,-18.64 1046.36,-19.58 1055.19,-25.42 1056.91,-18.64"/>
</g>
<!-- Node8 -->
<g id="node8" class="node">
<title>Node8</title>
<g id="a_node8"><a xlink:href="../../d1/d93/Error_8hpp.html" target="_top" xlink:title=" ">
<polygon fill="white" stroke="black" points="896,-448.5 896,-467.5 1000,-467.5 1000,-448.5 896,-448.5"/>
<text text-anchor="middle" x="948" y="-455.5" font-family="Helvetica,sans-Serif" font-size="10.00">AH/Error/Error.hpp</text>
</a>
</g>
</g>
<!-- Node7&#45;&gt;Node8 -->
<g id="edge11" class="edge">
<title>Node7&#45;&gt;Node8</title>
<path fill="none" stroke="midnightblue" d="M948,-504.08C948,-497.01 948,-486.86 948,-477.99"/>
<polygon fill="midnightblue" stroke="midnightblue" points="951.5,-477.75 948,-467.75 944.5,-477.75 951.5,-477.75"/>
</g>
<!-- Node16 -->
<g id="node16" class="node">
<title>Node16</title>
<g id="a_node16"><a xlink:title=" ">
<polygon fill="white" stroke="#bfbfbf" points="825.5,-112.5 825.5,-131.5 932.5,-131.5 932.5,-112.5 825.5,-112.5"/>
<text text-anchor="middle" x="879" y="-119.5" font-family="Helvetica,sans-Serif" font-size="10.00">AH/STL/type_traits</text>
</a>
</g>
</g>
<!-- Node7&#45;&gt;Node16 -->
<g id="edge43" class="edge">
<title>Node7&#45;&gt;Node16</title>
<path fill="none" stroke="midnightblue" d="M964.16,-504.38C977.69,-496.46 996.71,-483.61 1009,-468 1045.11,-422.15 1060,-405.36 1060,-347 1060,-347 1060,-347 1060,-289 1060,-258.9 1059.19,-247.98 1041,-224 1007.63,-180 949.08,-150.49 912.26,-135.25"/>
<polygon fill="midnightblue" stroke="midnightblue" points="913.52,-131.99 902.94,-131.5 910.91,-138.48 913.52,-131.99"/>
</g>
<!-- Node22 -->
<g id="node22" class="node">
<title>Node22</title>
<g id="a_node22"><a xlink:title=" ">
<polygon fill="white" stroke="#bfbfbf" points="976,-224.5 976,-243.5 1032,-243.5 1032,-224.5 976,-224.5"/>
<text text-anchor="middle" x="1004" y="-231.5" font-family="Helvetica,sans-Serif" font-size="10.00">stddef.h</text>
</a>
</g>
</g>
<!-- Node7&#45;&gt;Node22 -->
<g id="edge44" class="edge">
<title>Node7&#45;&gt;Node22</title>
<path fill="none" stroke="midnightblue" d="M928.09,-504.41C913.78,-497.04 895.54,-484.92 887,-468 882.99,-460.07 884.79,-456.61 887,-448 892.46,-426.73 966.42,-299.18 993.85,-252.29"/>
<polygon fill="midnightblue" stroke="midnightblue" points="996.92,-253.97 998.96,-243.57 990.89,-250.43 996.92,-253.97"/>
</g>
<!-- Node25 -->
<g id="node25" class="node">
<title>Node25</title>
<g id="a_node25"><a xlink:title=" ">
<polygon fill="white" stroke="#bfbfbf" points="1056,-448.5 1056,-467.5 1146,-467.5 1146,-448.5 1056,-448.5"/>
<text text-anchor="middle" x="1101" y="-455.5" font-family="Helvetica,sans-Serif" font-size="10.00">AH/STL/iterator</text>
</a>
</g>
</g>
<!-- Node7&#45;&gt;Node25 -->
<g id="edge42" class="edge">
<title>Node7&#45;&gt;Node25</title>
<path fill="none" stroke="midnightblue" d="M972.24,-504.44C997.87,-495.4 1038.49,-481.06 1067.24,-470.92"/>
<polygon fill="midnightblue" stroke="midnightblue" points="1068.61,-474.15 1076.87,-467.52 1066.28,-467.54 1068.61,-474.15"/>
</g>
<!-- Node8&#45;&gt;Node2 -->
<g id="edge12" class="edge">
<title>Node8&#45;&gt;Node2</title>
<path fill="none" stroke="midnightblue" d="M964.03,-448.35C1009.49,-422.5 1136,-341.06 1136,-235 1136,-235 1136,-235 1136,-121 1136,-70 1077.55,-38.69 1037.01,-23.11"/>
<polygon fill="midnightblue" stroke="midnightblue" points="1037.98,-19.74 1027.39,-19.58 1035.57,-26.31 1037.98,-19.74"/>
</g>
<!-- Node9 -->
<g id="node9" class="node">
<title>Node9</title>
<g id="a_node9"><a xlink:href="../../df/dee/Debug_8hpp.html" target="_top" xlink:title=" ">
<polygon fill="white" stroke="black" points="772.5,-392.5 772.5,-411.5 893.5,-411.5 893.5,-392.5 772.5,-392.5"/>
<text text-anchor="middle" x="833" y="-399.5" font-family="Helvetica,sans-Serif" font-size="10.00">AH/Debug/Debug.hpp</text>
</a>
</g>
</g>
<!-- Node8&#45;&gt;Node9 -->
<g id="edge13" class="edge">
<title>Node8&#45;&gt;Node9</title>
<path fill="none" stroke="midnightblue" d="M929.78,-448.44C911.1,-439.68 881.84,-425.94 860.38,-415.86"/>
<polygon fill="midnightblue" stroke="midnightblue" points="861.68,-412.6 851.14,-411.52 858.7,-418.93 861.68,-412.6"/>
</g>
<!-- Node9&#45;&gt;Node2 -->
<g id="edge14" class="edge">
<title>Node9&#45;&gt;Node2</title>
<path fill="none" stroke="midnightblue" d="M885.36,-392.44C962.58,-376.49 1098,-334.35 1098,-235 1098,-235 1098,-235 1098,-121 1098,-77.18 1054.06,-42.93 1024.73,-24.94"/>
<polygon fill="midnightblue" stroke="midnightblue" points="1026.19,-21.74 1015.79,-19.68 1022.64,-27.77 1026.19,-21.74"/>
</g>
<!-- Node9&#45;&gt;Node10 -->
<g id="edge15" class="edge">
<title>Node9&#45;&gt;Node10</title>
<path fill="none" stroke="midnightblue" d="M814.19,-392.42C794.45,-383.4 762.51,-368.77 735,-356 650.79,-316.92 551.41,-270.12 504.34,-247.91"/>
<polygon fill="midnightblue" stroke="midnightblue" points="505.66,-244.66 495.12,-243.56 502.67,-250.99 505.66,-244.66"/>
</g>
<!-- Node17 -->
<g id="node17" class="node">
<title>Node17</title>
<g id="a_node17"><a xlink:href="../../d2/dd5/SettingsWrapper_8hpp.html" target="_top" xlink:title=" ">
<polygon fill="white" stroke="black" points="744,-336.5 744,-355.5 922,-355.5 922,-336.5 744,-336.5"/>
<text text-anchor="middle" x="833" y="-343.5" font-family="Helvetica,sans-Serif" font-size="10.00">AH/Settings/SettingsWrapper.hpp</text>
</a>
</g>
</g>
<!-- Node9&#45;&gt;Node17 -->
<g id="edge27" class="edge">
<title>Node9&#45;&gt;Node17</title>
<path fill="none" stroke="midnightblue" d="M827.83,-392.08C826.32,-384.93 825.89,-374.64 826.54,-365.69"/>
<polygon fill="midnightblue" stroke="midnightblue" points="830.02,-366.13 827.87,-355.75 823.08,-365.2 830.02,-366.13"/>
</g>
<!-- Node10&#45;&gt;Node2 -->
<g id="edge17" class="edge">
<title>Node10&#45;&gt;Node2</title>
<path fill="none" stroke="midnightblue" d="M500.7,-224.48C546.92,-207.71 652.18,-168.89 739,-132 825.42,-95.28 925.61,-47 972.38,-24.12"/>
<polygon fill="midnightblue" stroke="midnightblue" points="974.09,-27.18 981.53,-19.63 971.01,-20.89 974.09,-27.18"/>
</g>
<!-- Node10&#45;&gt;Node11 -->
<g id="edge16" class="edge">
<title>Node10&#45;&gt;Node11</title>
<path fill="none" stroke="midnightblue" d="M465.7,-224.25C455.81,-215.98 441.85,-202.67 434,-188 416.3,-154.9 410.19,-110.75 408.09,-85.96"/>
<polygon fill="midnightblue" stroke="midnightblue" points="411.56,-85.49 407.36,-75.76 404.58,-85.99 411.56,-85.49"/>
</g>
<!-- Node10&#45;&gt;Node12 -->
<g id="edge18" class="edge">
<title>Node10&#45;&gt;Node12</title>
<path fill="none" stroke="midnightblue" d="M481.62,-224.08C485.46,-216.69 491.02,-205.95 495.76,-196.81"/>
<polygon fill="midnightblue" stroke="midnightblue" points="498.97,-198.24 500.46,-187.75 492.75,-195.02 498.97,-198.24"/>
</g>
<!-- Node13 -->
<g id="node13" class="node">
<title>Node13</title>
<g id="a_node13"><a xlink:href="../../d7/d79/MinMaxFix_8hpp.html" target="_top" xlink:title=" ">
<polygon fill="white" stroke="black" points="440,-112.5 440,-131.5 576,-131.5 576,-112.5 440,-112.5"/>
<text text-anchor="middle" x="508" y="-119.5" font-family="Helvetica,sans-Serif" font-size="10.00">AH/Math/MinMaxFix.hpp</text>
</a>
</g>
</g>
<!-- Node12&#45;&gt;Node13 -->
<g id="edge19" class="edge">
<title>Node12&#45;&gt;Node13</title>
<path fill="none" stroke="midnightblue" d="M505.5,-168.08C505.89,-161.01 506.45,-150.86 506.95,-141.99"/>
<polygon fill="midnightblue" stroke="midnightblue" points="510.45,-141.93 507.51,-131.75 503.46,-141.54 510.45,-141.93"/>
</g>
<!-- Node15 -->
<g id="node15" class="node">
<title>Node15</title>
<g id="a_node15"><a xlink:title=" ">
<polygon fill="white" stroke="#bfbfbf" points="291.5,-0.5 291.5,-19.5 354.5,-19.5 354.5,-0.5 291.5,-0.5"/>
<text text-anchor="middle" x="323" y="-7.5" font-family="Helvetica,sans-Serif" font-size="10.00">Arduino.h</text>
</a>
</g>
</g>
<!-- Node12&#45;&gt;Node15 -->
<g id="edge26" class="edge">
<title>Node12&#45;&gt;Node15</title>
<path fill="none" stroke="midnightblue" d="M442.92,-175.29C325.97,-171.43 82.4,-160.08 57,-132 34.34,-106.95 35.2,-81.8 57,-56 85.19,-22.64 213.51,-14 281.09,-11.77"/>
<polygon fill="midnightblue" stroke="midnightblue" points="281.49,-15.26 291.38,-11.47 281.29,-8.26 281.49,-15.26"/>
</g>
<!-- Node12&#45;&gt;Node16 -->
<g id="edge25" class="edge">
<title>Node12&#45;&gt;Node16</title>
<path fill="none" stroke="midnightblue" d="M564.26,-168.44C632.78,-158.55 745.11,-142.33 815.41,-132.18"/>
<polygon fill="midnightblue" stroke="midnightblue" points="816.07,-135.62 825.47,-130.73 815.07,-128.69 816.07,-135.62"/>
</g>
<!-- Node13&#45;&gt;Node2 -->
<g id="edge20" class="edge">
<title>Node13&#45;&gt;Node2</title>
<path fill="none" stroke="midnightblue" d="M566.34,-112.44C605.65,-105.48 658.12,-93.85 702,-76 717.89,-69.54 718.93,-61.99 735,-56 793.83,-34.07 864.06,-22.75 917.29,-16.96"/>
<polygon fill="midnightblue" stroke="midnightblue" points="917.78,-20.42 927.36,-15.9 917.05,-13.46 917.78,-20.42"/>
</g>
<!-- Node13&#45;&gt;Node11 -->
<g id="edge24" class="edge">
<title>Node13&#45;&gt;Node11</title>
<path fill="none" stroke="midnightblue" d="M491.77,-112.32C475.65,-103.7 450.7,-90.36 432.04,-80.39"/>
<polygon fill="midnightblue" stroke="midnightblue" points="433.66,-77.28 423.19,-75.65 430.36,-83.46 433.66,-77.28"/>
</g>
<!-- Node14 -->
<g id="node14" class="node">
<title>Node14</title>
<g id="a_node14"><a xlink:href="../../d6/d3b/FixArduinoMacros_8hpp.html" target="_top" xlink:title=" ">
<polygon fill="white" stroke="black" points="523,-56.5 523,-75.5 693,-75.5 693,-56.5 523,-56.5"/>
<text text-anchor="middle" x="608" y="-63.5" font-family="Helvetica,sans-Serif" font-size="10.00">AH/Math/FixArduinoMacros.hpp</text>
</a>
</g>
</g>
<!-- Node13&#45;&gt;Node14 -->
<g id="edge21" class="edge">
<title>Node13&#45;&gt;Node14</title>
<path fill="none" stroke="midnightblue" d="M524.07,-112.32C539.96,-103.74 564.51,-90.49 582.96,-80.52"/>
<polygon fill="midnightblue" stroke="midnightblue" points="584.84,-83.49 591.97,-75.65 581.51,-77.33 584.84,-83.49"/>
</g>
<!-- Node14&#45;&gt;Node2 -->
<g id="edge22" class="edge">
<title>Node14&#45;&gt;Node2</title>
<path fill="none" stroke="midnightblue" d="M669.96,-56.44C739.88,-46.79 853.47,-31.1 927.2,-20.92"/>
<polygon fill="midnightblue" stroke="midnightblue" points="927.91,-24.35 937.33,-19.52 926.95,-17.42 927.91,-24.35"/>
</g>
<!-- Node14&#45;&gt;Node15 -->
<g id="edge23" class="edge">
<title>Node14&#45;&gt;Node15</title>
<path fill="none" stroke="midnightblue" d="M562.84,-56.44C508.4,-46.13 417.64,-28.93 364.76,-18.91"/>
<polygon fill="midnightblue" stroke="midnightblue" points="365.19,-15.43 354.71,-17.01 363.88,-22.31 365.19,-15.43"/>
</g>
<!-- Node17&#45;&gt;Node2 -->
<g id="edge28" class="edge">
<title>Node17&#45;&gt;Node2</title>
<path fill="none" stroke="midnightblue" d="M868.82,-336.45C889.27,-329.79 913.79,-318.47 929,-300 963.84,-257.68 989.05,-86.69 996.63,-29.63"/>
<polygon fill="midnightblue" stroke="midnightblue" points="1000.12,-29.91 997.94,-19.54 993.18,-29.01 1000.12,-29.91"/>
</g>
<!-- Node17&#45;&gt;Node9 -->
<g id="edge41" class="edge">
<title>Node17&#45;&gt;Node9</title>
<path fill="none" stroke="midnightblue" d="M838.13,-355.75C839.66,-362.86 840.1,-373.14 839.47,-382.1"/>
<polygon fill="midnightblue" stroke="midnightblue" points="835.99,-381.71 838.17,-392.08 842.93,-382.62 835.99,-381.71"/>
</g>
<!-- Node17&#45;&gt;Node11 -->
<g id="edge29" class="edge">
<title>Node17&#45;&gt;Node11</title>
<path fill="none" stroke="midnightblue" d="M743.76,-343.81C597.78,-339.42 324,-319.87 324,-235 324,-235 324,-235 324,-177 324,-135.91 361.36,-100.44 385.95,-81.55"/>
<polygon fill="midnightblue" stroke="midnightblue" points="388.07,-84.33 394.03,-75.57 383.91,-78.7 388.07,-84.33"/>
</g>
<!-- Node18 -->
<g id="node18" class="node">
<title>Node18</title>
<g id="a_node18"><a xlink:href="../../db/d02/Settings_8hpp.html" target="_top" xlink:title="All user settings and debugging options can be changed here.">
<polygon fill="white" stroke="black" points="651.5,-280.5 651.5,-299.5 728.5,-299.5 728.5,-280.5 651.5,-280.5"/>
<text text-anchor="middle" x="690" y="-287.5" font-family="Helvetica,sans-Serif" font-size="10.00">Settings.hpp</text>
</a>
</g>
</g>
<!-- Node17&#45;&gt;Node18 -->
<g id="edge30" class="edge">
<title>Node17&#45;&gt;Node18</title>
<path fill="none" stroke="midnightblue" d="M810.34,-336.44C786.6,-327.48 749.09,-313.31 722.26,-303.18"/>
<polygon fill="midnightblue" stroke="midnightblue" points="723.14,-299.77 712.55,-299.52 720.67,-306.32 723.14,-299.77"/>
</g>
<!-- Node24 -->
<g id="node24" class="node">
<title>Node24</title>
<g id="a_node24"><a xlink:href="../../d9/d98/TeensyUSBTypes_8hpp.html" target="_top" xlink:title=" ">
<polygon fill="white" stroke="black" points="746.5,-280.5 746.5,-299.5 919.5,-299.5 919.5,-280.5 746.5,-280.5"/>
<text text-anchor="middle" x="833" y="-287.5" font-family="Helvetica,sans-Serif" font-size="10.00">AH/Teensy/TeensyUSBTypes.hpp</text>
</a>
</g>
</g>
<!-- Node17&#45;&gt;Node24 -->
<g id="edge40" class="edge">
<title>Node17&#45;&gt;Node24</title>
<path fill="none" stroke="midnightblue" d="M833,-336.08C833,-329.01 833,-318.86 833,-309.99"/>
<polygon fill="midnightblue" stroke="midnightblue" points="836.5,-309.75 833,-299.75 829.5,-309.75 836.5,-309.75"/>
</g>
<!-- Node19 -->
<g id="node19" class="node">
<title>Node19</title>
<g id="a_node19"><a xlink:href="../../dc/d50/Frequency_8hpp.html" target="_top" xlink:title=" ">
<polygon fill="white" stroke="black" points="596,-112.5 596,-131.5 730,-131.5 730,-112.5 596,-112.5"/>
<text text-anchor="middle" x="663" y="-119.5" font-family="Helvetica,sans-Serif" font-size="10.00">AH/Types/Frequency.hpp</text>
</a>
</g>
</g>
<!-- Node18&#45;&gt;Node19 -->
<g id="edge31" class="edge">
<title>Node18&#45;&gt;Node19</title>
<path fill="none" stroke="midnightblue" d="M688.55,-280.08C684.3,-253.95 671.82,-177.21 666.02,-141.58"/>
<polygon fill="midnightblue" stroke="midnightblue" points="669.45,-140.88 664.39,-131.57 662.54,-142 669.45,-140.88"/>
</g>
<!-- Node20 -->
<g id="node20" class="node">
<title>Node20</title>
<g id="a_node20"><a xlink:href="../../d7/d7c/ADCConfig_8hpp.html" target="_top" xlink:title="This file contains the platform&#45;specific ADC resolutions.">
<polygon fill="white" stroke="black" points="691.5,-224.5 691.5,-243.5 848.5,-243.5 848.5,-224.5 691.5,-224.5"/>
<text text-anchor="middle" x="770" y="-231.5" font-family="Helvetica,sans-Serif" font-size="10.00">AH/Hardware/ADCConfig.hpp</text>
</a>
</g>
</g>
<!-- Node18&#45;&gt;Node20 -->
<g id="edge34" class="edge">
<title>Node18&#45;&gt;Node20</title>
<path fill="none" stroke="midnightblue" d="M702.85,-280.32C715.22,-271.98 734.13,-259.21 748.74,-249.35"/>
<polygon fill="midnightblue" stroke="midnightblue" points="750.85,-252.15 757.18,-243.65 746.93,-246.35 750.85,-252.15"/>
</g>
<!-- Node21 -->
<g id="node21" class="node">
<title>Node21</title>
<g id="a_node21"><a xlink:title=" ">
<polygon fill="white" stroke="#bfbfbf" points="866.5,-224.5 866.5,-243.5 919.5,-243.5 919.5,-224.5 866.5,-224.5"/>
<text text-anchor="middle" x="893" y="-231.5" font-family="Helvetica,sans-Serif" font-size="10.00">limits.h</text>
</a>
</g>
</g>
<!-- Node18&#45;&gt;Node21 -->
<g id="edge37" class="edge">
<title>Node18&#45;&gt;Node21</title>
<path fill="none" stroke="midnightblue" d="M722.17,-280.44C758.8,-270.7 818.53,-254.81 856.78,-244.64"/>
<polygon fill="midnightblue" stroke="midnightblue" points="857.72,-248.01 866.48,-242.05 855.92,-241.24 857.72,-248.01"/>
</g>
<!-- Node18&#45;&gt;Node22 -->
<g id="edge38" class="edge">
<title>Node18&#45;&gt;Node22</title>
<path fill="none" stroke="midnightblue" d="M728.5,-281.72C731.71,-281.13 734.91,-280.55 738,-280 818.88,-265.58 913.81,-249.79 965.56,-241.28"/>
<polygon fill="midnightblue" stroke="midnightblue" points="966.33,-244.7 975.63,-239.63 965.19,-237.8 966.33,-244.7"/>
</g>
<!-- Node18&#45;&gt;Node23 -->
<g id="edge39" class="edge">
<title>Node18&#45;&gt;Node23</title>
<path fill="none" stroke="midnightblue" d="M676.83,-280.32C664.15,-271.98 644.77,-259.21 629.79,-249.35"/>
<polygon fill="midnightblue" stroke="midnightblue" points="631.42,-246.23 621.14,-243.65 627.57,-252.08 631.42,-246.23"/>
</g>
<!-- Node19&#45;&gt;Node2 -->
<g id="edge32" class="edge">
<title>Node19&#45;&gt;Node2</title>
<path fill="none" stroke="midnightblue" d="M675.73,-112.48C697.02,-98.6 741.62,-71.15 783,-56 828.46,-39.36 881.67,-28.18 923.9,-21.13"/>
<polygon fill="midnightblue" stroke="midnightblue" points="924.53,-24.57 933.84,-19.51 923.41,-17.67 924.53,-24.57"/>
</g>
<!-- Node19&#45;&gt;Node11 -->
<g id="edge33" class="edge">
<title>Node19&#45;&gt;Node11</title>
<path fill="none" stroke="midnightblue" d="M622.44,-112.44C577.68,-103 505.62,-87.8 457.3,-77.61"/>
<polygon fill="midnightblue" stroke="midnightblue" points="457.88,-74.16 447.37,-75.52 456.44,-81.01 457.88,-74.16"/>
</g>
<!-- Node20&#45;&gt;Node2 -->
<g id="edge35" class="edge">
<title>Node20&#45;&gt;Node2</title>
<path fill="none" stroke="midnightblue" d="M793.56,-224.46C829.74,-210.3 899.27,-178.8 942,-132 956.64,-115.96 980.31,-58.77 992.01,-29.12"/>
<polygon fill="midnightblue" stroke="midnightblue" points="995.36,-30.16 995.73,-19.57 988.84,-27.62 995.36,-30.16"/>
</g>
<!-- Node20&#45;&gt;Node12 -->
<g id="edge36" class="edge">
<title>Node20&#45;&gt;Node12</title>
<path fill="none" stroke="midnightblue" d="M728.01,-224.44C681.59,-214.98 606.77,-199.74 556.76,-189.55"/>
<polygon fill="midnightblue" stroke="midnightblue" points="557.29,-186.08 546.79,-187.52 555.89,-192.94 557.29,-186.08"/>
</g>
<!-- Node27&#45;&gt;Node2 -->
<g id="edge52" class="edge">
<title>Node27&#45;&gt;Node2</title>
<path fill="none" stroke="midnightblue" d="M168.44,-112.4C192.79,-103.94 230.38,-90.24 262,-76 279.4,-68.17 281.63,-61.17 300,-56 413.83,-23.96 758.12,-14.63 917.02,-12"/>
<polygon fill="midnightblue" stroke="midnightblue" points="917.27,-15.49 927.21,-11.83 917.16,-8.49 917.27,-15.49"/>
</g>
<!-- Node27&#45;&gt;Node11 -->
<g id="edge53" class="edge">
<title>Node27&#45;&gt;Node11</title>
<path fill="none" stroke="midnightblue" d="M184.83,-112.44C231.08,-102.98 305.61,-87.74 355.44,-77.55"/>
<polygon fill="midnightblue" stroke="midnightblue" points="356.27,-80.95 365.36,-75.52 354.87,-74.09 356.27,-80.95"/>
</g>
<!-- Node28 -->
<g id="node28" class="node">
<title>Node28</title>
<g id="a_node28"><a xlink:title=" ">
<polygon fill="white" stroke="#bfbfbf" points="66,-56.5 66,-75.5 156,-75.5 156,-56.5 66,-56.5"/>
<text text-anchor="middle" x="111" y="-63.5" font-family="Helvetica,sans-Serif" font-size="10.00">AH/STL/cstddef</text>
</a>
</g>
</g>
<!-- Node27&#45;&gt;Node28 -->
<g id="edge50" class="edge">
<title>Node27&#45;&gt;Node28</title>
<path fill="none" stroke="midnightblue" d="M137.72,-112.08C133.29,-104.61 126.84,-93.72 121.38,-84.52"/>
<polygon fill="midnightblue" stroke="midnightblue" points="124.29,-82.57 116.19,-75.75 118.27,-86.14 124.29,-82.57"/>
</g>
<!-- Node29 -->
<g id="node29" class="node">
<title>Node29</title>
<g id="a_node29"><a xlink:title=" ">
<polygon fill="white" stroke="#bfbfbf" points="174.5,-56.5 174.5,-75.5 253.5,-75.5 253.5,-56.5 174.5,-56.5"/>
<text text-anchor="middle" x="214" y="-63.5" font-family="Helvetica,sans-Serif" font-size="10.00">AH/STL/tuple</text>
</a>
</g>
</g>
<!-- Node27&#45;&gt;Node29 -->
<g id="edge51" class="edge">
<title>Node27&#45;&gt;Node29</title>
<path fill="none" stroke="midnightblue" d="M154.41,-112.32C165.11,-104.18 181.34,-91.84 194.16,-82.09"/>
<polygon fill="midnightblue" stroke="midnightblue" points="196.54,-84.67 202.39,-75.83 192.31,-79.1 196.54,-84.67"/>
</g>
</g>
</svg>
