<?xml version="1.0" encoding="UTF-8" standalone="no"?>
<!DOCTYPE svg PUBLIC "-//W3C//DTD SVG 1.1//EN"
 "http://www.w3.org/Graphics/SVG/1.1/DTD/svg11.dtd">
<!-- Generated by graphviz version 2.43.0 (0)
 -->
<!-- Title: Debug.hpp Pages: 1 -->
<svg width="1984pt" height="588pt"
 viewBox="0.00 0.00 1983.84 588.00" xmlns="http://www.w3.org/2000/svg" xmlns:xlink="http://www.w3.org/1999/xlink">
<g id="graph0" class="graph" transform="scale(1 1) rotate(0) translate(4 584)">
<title>Debug.hpp</title>
<polygon fill="white" stroke="transparent" points="-4,4 -4,-584 1979.84,-584 1979.84,4 -4,4"/>
<!-- Node1 -->
<g id="node1" class="node">
<title>Node1</title>
<g id="a_node1"><a xlink:title=" ">
<polygon fill="#bfbfbf" stroke="black" points="492.67,-560.5 492.67,-579.5 561.67,-579.5 561.67,-560.5 492.67,-560.5"/>
<text text-anchor="middle" x="527.17" y="-567.5" font-family="Helvetica,sans-Serif" font-size="10.00">Debug.hpp</text>
</a>
</g>
</g>
<!-- Node2 -->
<g id="node2" class="node">
<title>Node2</title>
<g id="a_node2"><a xlink:href="../../df/d66/Debug_8cpp.html" target="_top" xlink:title=" ">
<polygon fill="white" stroke="black" points="382.17,-504.5 382.17,-523.5 450.17,-523.5 450.17,-504.5 382.17,-504.5"/>
<text text-anchor="middle" x="416.17" y="-511.5" font-family="Helvetica,sans-Serif" font-size="10.00">Debug.cpp</text>
</a>
</g>
</g>
<!-- Node1&#45;&gt;Node2 -->
<g id="edge1" class="edge">
<title>Node1&#45;&gt;Node2</title>
<path fill="none" stroke="midnightblue" d="M500.17,-555.86C479.58,-545.85 451.83,-532.35 433.96,-523.65"/>
<polygon fill="midnightblue" stroke="midnightblue" points="498.81,-559.1 509.34,-560.32 501.88,-552.8 498.81,-559.1"/>
</g>
<!-- Node3 -->
<g id="node3" class="node">
<title>Node3</title>
<g id="a_node3"><a xlink:href="../../d1/d93/Error_8hpp.html" target="_top" xlink:title=" ">
<polygon fill="white" stroke="black" points="734.17,-504.5 734.17,-523.5 794.17,-523.5 794.17,-504.5 734.17,-504.5"/>
<text text-anchor="middle" x="764.17" y="-511.5" font-family="Helvetica,sans-Serif" font-size="10.00">Error.hpp</text>
</a>
</g>
</g>
<!-- Node1&#45;&gt;Node3 -->
<g id="edge2" class="edge">
<title>Node1&#45;&gt;Node3</title>
<path fill="none" stroke="midnightblue" d="M571.88,-558.81C619.27,-548.01 692.84,-531.25 733.88,-521.9"/>
<polygon fill="midnightblue" stroke="midnightblue" points="570.86,-555.46 561.89,-561.09 572.42,-562.28 570.86,-555.46"/>
</g>
<!-- Node43 -->
<g id="node43" class="node">
<title>Node43</title>
<g id="a_node43"><a xlink:href="../../de/dd1/LinkedList_8hpp.html" target="_top" xlink:title=" ">
<polygon fill="white" stroke="black" points="604.17,-504.5 604.17,-523.5 690.17,-523.5 690.17,-504.5 604.17,-504.5"/>
<text text-anchor="middle" x="647.17" y="-511.5" font-family="Helvetica,sans-Serif" font-size="10.00">LinkedList.hpp</text>
</a>
</g>
</g>
<!-- Node1&#45;&gt;Node43 -->
<g id="edge67" class="edge">
<title>Node1&#45;&gt;Node43</title>
<path fill="none" stroke="midnightblue" d="M555.55,-556.23C577.99,-546.13 608.71,-532.31 628.25,-523.52"/>
<polygon fill="midnightblue" stroke="midnightblue" points="553.87,-553.15 546.19,-560.44 556.74,-559.53 553.87,-553.15"/>
</g>
<!-- Node44 -->
<g id="node44" class="node">
<title>Node44</title>
<g id="a_node44"><a xlink:href="../../d2/dd5/SettingsWrapper_8hpp.html" target="_top" xlink:title=" ">
<polygon fill="white" stroke="black" points="468.17,-504.5 468.17,-523.5 586.17,-523.5 586.17,-504.5 468.17,-504.5"/>
<text text-anchor="middle" x="527.17" y="-511.5" font-family="Helvetica,sans-Serif" font-size="10.00">SettingsWrapper.hpp</text>
</a>
</g>
</g>
<!-- Node1&#45;&gt;Node44 -->
<g id="edge69" class="edge">
<title>Node1&#45;&gt;Node44</title>
<path fill="none" stroke="midnightblue" d="M520.7,-550.1C520.07,-541.14 520.52,-530.86 522.04,-523.75"/>
<polygon fill="midnightblue" stroke="midnightblue" points="517.24,-550.62 522.01,-560.08 524.18,-549.71 517.24,-550.62"/>
</g>
<!-- Node4 -->
<g id="node4" class="node">
<title>Node4</title>
<g id="a_node4"><a xlink:href="../../de/d76/Array_8hpp.html" target="_top" xlink:title=" ">
<polygon fill="white" stroke="black" points="1221.17,-448.5 1221.17,-467.5 1283.17,-467.5 1283.17,-448.5 1221.17,-448.5"/>
<text text-anchor="middle" x="1252.17" y="-455.5" font-family="Helvetica,sans-Serif" font-size="10.00">Array.hpp</text>
</a>
</g>
</g>
<!-- Node3&#45;&gt;Node4 -->
<g id="edge3" class="edge">
<title>Node3&#45;&gt;Node4</title>
<path fill="none" stroke="midnightblue" d="M804.4,-508.55C899.34,-498.04 1135.78,-471.88 1220.96,-462.45"/>
<polygon fill="midnightblue" stroke="midnightblue" points="803.89,-505.08 794.33,-509.66 804.66,-512.04 803.89,-505.08"/>
</g>
<!-- Node30 -->
<g id="node30" class="node">
<title>Node30</title>
<g id="a_node30"><a xlink:href="../../da/d1f/ExtendedIOElement_8cpp.html" target="_top" xlink:title=" ">
<polygon fill="white" stroke="black" points="641.17,-168.5 641.17,-187.5 775.17,-187.5 775.17,-168.5 641.17,-168.5"/>
<text text-anchor="middle" x="708.17" y="-175.5" font-family="Helvetica,sans-Serif" font-size="10.00">ExtendedIOElement.cpp</text>
</a>
</g>
</g>
<!-- Node3&#45;&gt;Node30 -->
<g id="edge62" class="edge">
<title>Node3&#45;&gt;Node30</title>
<path fill="none" stroke="midnightblue" d="M745.37,-497.81C736.4,-489.75 726.14,-479.21 719.17,-468 691.42,-423.36 689.73,-407.86 681.17,-356 670.54,-291.59 695.52,-213.75 704.84,-187.85"/>
<polygon fill="midnightblue" stroke="midnightblue" points="743.24,-500.6 753.1,-504.47 747.8,-495.29 743.24,-500.6"/>
</g>
<!-- Node31 -->
<g id="node31" class="node">
<title>Node31</title>
<g id="a_node31"><a xlink:href="../../d6/d3c/ExtendedInputOutput_8cpp.html" target="_top" xlink:title=" ">
<polygon fill="white" stroke="black" points="793.17,-168.5 793.17,-187.5 933.17,-187.5 933.17,-168.5 793.17,-168.5"/>
<text text-anchor="middle" x="863.17" y="-175.5" font-family="Helvetica,sans-Serif" font-size="10.00">ExtendedInputOutput.cpp</text>
</a>
</g>
</g>
<!-- Node3&#45;&gt;Node31 -->
<g id="edge63" class="edge">
<title>Node3&#45;&gt;Node31</title>
<path fill="none" stroke="midnightblue" d="M755.91,-495.25C746.73,-473.86 733.17,-436.59 733.17,-403 733.17,-403 733.17,-403 733.17,-289 733.17,-258.9 731.99,-246.33 752.17,-224 769.25,-205.1 795.41,-193.99 818.03,-187.53"/>
<polygon fill="midnightblue" stroke="midnightblue" points="752.72,-496.69 759.99,-504.39 759.11,-493.83 752.72,-496.69"/>
</g>
<!-- Node39 -->
<g id="node39" class="node">
<title>Node39</title>
<g id="a_node39"><a xlink:href="../../d1/d40/BitArray_8hpp.html" target="_top" xlink:title=" ">
<polygon fill="white" stroke="black" points="1822.17,-168.5 1822.17,-187.5 1898.17,-187.5 1898.17,-168.5 1822.17,-168.5"/>
<text text-anchor="middle" x="1860.17" y="-175.5" font-family="Helvetica,sans-Serif" font-size="10.00">BitArray.hpp</text>
</a>
</g>
</g>
<!-- Node3&#45;&gt;Node39 -->
<g id="edge57" class="edge">
<title>Node3&#45;&gt;Node39</title>
<path fill="none" stroke="midnightblue" d="M804.48,-513.35C1004.76,-514.59 1883.17,-513.69 1883.17,-403 1883.17,-403 1883.17,-403 1883.17,-289 1883.17,-250.56 1869.55,-206.14 1863.27,-187.71"/>
<polygon fill="midnightblue" stroke="midnightblue" points="804.42,-509.85 794.39,-513.29 804.37,-516.85 804.42,-509.85"/>
</g>
<!-- Node40 -->
<g id="node40" class="node">
<title>Node40</title>
<g id="a_node40"><a xlink:href="../../d6/df4/Exit_8cpp.html" target="_top" xlink:title=" ">
<polygon fill="white" stroke="black" points="1911.17,-448.5 1911.17,-467.5 1967.17,-467.5 1967.17,-448.5 1911.17,-448.5"/>
<text text-anchor="middle" x="1939.17" y="-455.5" font-family="Helvetica,sans-Serif" font-size="10.00">Exit.cpp</text>
</a>
</g>
</g>
<!-- Node3&#45;&gt;Node40 -->
<g id="edge61" class="edge">
<title>Node3&#45;&gt;Node40</title>
<path fill="none" stroke="midnightblue" d="M804.49,-512.33C980.11,-509.25 1679.21,-495.47 1897.17,-468 1901.61,-467.44 1906.28,-466.65 1910.82,-465.76"/>
<polygon fill="midnightblue" stroke="midnightblue" points="804.33,-508.83 794.39,-512.5 804.45,-515.83 804.33,-508.83"/>
</g>
<!-- Node41 -->
<g id="node41" class="node">
<title>Node41</title>
<g id="a_node41"><a xlink:href="../../d4/d93/Updatable_8hpp.html" target="_top" xlink:title=" ">
<polygon fill="white" stroke="black" points="579.17,-448.5 579.17,-467.5 667.17,-467.5 667.17,-448.5 579.17,-448.5"/>
<text text-anchor="middle" x="623.17" y="-455.5" font-family="Helvetica,sans-Serif" font-size="10.00">Updatable.hpp</text>
</a>
</g>
</g>
<!-- Node3&#45;&gt;Node41 -->
<g id="edge64" class="edge">
<title>Node3&#45;&gt;Node41</title>
<path fill="none" stroke="midnightblue" d="M732.24,-500.77C705.76,-490.63 668.78,-476.47 645.41,-467.52"/>
<polygon fill="midnightblue" stroke="midnightblue" points="731.24,-504.14 741.83,-504.44 733.74,-497.6 731.24,-504.14"/>
</g>
<!-- Node42 -->
<g id="node42" class="node">
<title>Node42</title>
<g id="a_node42"><a xlink:href="../../d4/d1b/vector_8cpp.html" target="_top" xlink:title=" ">
<polygon fill="white" stroke="black" points="761.67,-448.5 761.67,-467.5 828.67,-467.5 828.67,-448.5 761.67,-448.5"/>
<text text-anchor="middle" x="795.17" y="-455.5" font-family="Helvetica,sans-Serif" font-size="10.00">vector.cpp</text>
</a>
</g>
</g>
<!-- Node3&#45;&gt;Node42 -->
<g id="edge66" class="edge">
<title>Node3&#45;&gt;Node42</title>
<path fill="none" stroke="midnightblue" d="M774.35,-495.27C779.65,-486.05 785.89,-475.17 790.15,-467.75"/>
<polygon fill="midnightblue" stroke="midnightblue" points="771.23,-493.67 769.29,-504.08 777.31,-497.15 771.23,-493.67"/>
</g>
<!-- Node5 -->
<g id="node5" class="node">
<title>Node5</title>
<g id="a_node5"><a xlink:href="../../d7/def/AnalogMultiplex_8hpp.html" target="_top" xlink:title=" ">
<polygon fill="white" stroke="black" points="1027.67,-112.5 1027.67,-131.5 1144.67,-131.5 1144.67,-112.5 1027.67,-112.5"/>
<text text-anchor="middle" x="1086.17" y="-119.5" font-family="Helvetica,sans-Serif" font-size="10.00">AnalogMultiplex.hpp</text>
</a>
</g>
</g>
<!-- Node4&#45;&gt;Node5 -->
<g id="edge4" class="edge">
<title>Node4&#45;&gt;Node5</title>
<path fill="none" stroke="midnightblue" d="M1210.87,-455.78C1089.59,-449.61 736.53,-412.32 632.17,-188 628.42,-179.94 626.21,-174.59 632.17,-168 658.23,-139.24 910.51,-128.14 1027.34,-124.52"/>
<polygon fill="midnightblue" stroke="midnightblue" points="1210.71,-459.28 1220.87,-456.25 1211.04,-452.29 1210.71,-459.28"/>
</g>
<!-- Node6 -->
<g id="node6" class="node">
<title>Node6</title>
<g id="a_node6"><a xlink:href="../../d5/db6/ArrayHelpers_8hpp.html" target="_top" xlink:title=" ">
<polygon fill="white" stroke="black" points="1753.67,-280.5 1753.67,-299.5 1854.67,-299.5 1854.67,-280.5 1753.67,-280.5"/>
<text text-anchor="middle" x="1804.17" y="-287.5" font-family="Helvetica,sans-Serif" font-size="10.00">ArrayHelpers.hpp</text>
</a>
</g>
</g>
<!-- Node4&#45;&gt;Node6 -->
<g id="edge5" class="edge">
<title>Node4&#45;&gt;Node6</title>
<path fill="none" stroke="midnightblue" d="M1293.37,-456.28C1380.79,-453.13 1589.12,-436.99 1739.17,-356 1765.29,-341.9 1787.77,-313.98 1798.11,-299.76"/>
<polygon fill="midnightblue" stroke="midnightblue" points="1293.2,-452.78 1283.32,-456.6 1293.43,-459.78 1293.2,-452.78"/>
</g>
<!-- Node17 -->
<g id="node17" class="node">
<title>Node17</title>
<g id="a_node17"><a xlink:href="../../d4/d35/Hardware-Types_8hpp.html" target="_top" xlink:title=" ">
<polygon fill="white" stroke="black" points="1194.17,-392.5 1194.17,-411.5 1310.17,-411.5 1310.17,-392.5 1194.17,-392.5"/>
<text text-anchor="middle" x="1252.17" y="-399.5" font-family="Helvetica,sans-Serif" font-size="10.00">Hardware&#45;Types.hpp</text>
</a>
</g>
</g>
<!-- Node4&#45;&gt;Node17 -->
<g id="edge21" class="edge">
<title>Node4&#45;&gt;Node17</title>
<path fill="none" stroke="midnightblue" d="M1252.17,-437.8C1252.17,-428.91 1252.17,-418.78 1252.17,-411.75"/>
<polygon fill="midnightblue" stroke="midnightblue" points="1248.67,-438.08 1252.17,-448.08 1255.67,-438.08 1248.67,-438.08"/>
</g>
<!-- Node38 -->
<g id="node38" class="node">
<title>Node38</title>
<g id="a_node38"><a xlink:href="../../dd/ddf/RegisterEncoders_8hpp.html" target="_top" xlink:title=" ">
<polygon fill="white" stroke="black" points="1527.17,-336.5 1527.17,-355.5 1649.17,-355.5 1649.17,-336.5 1527.17,-336.5"/>
<text text-anchor="middle" x="1588.17" y="-343.5" font-family="Helvetica,sans-Serif" font-size="10.00">RegisterEncoders.hpp</text>
</a>
</g>
</g>
<!-- Node4&#45;&gt;Node38 -->
<g id="edge55" class="edge">
<title>Node4&#45;&gt;Node38</title>
<path fill="none" stroke="midnightblue" d="M1288.09,-445.24C1356.08,-422.98 1502.12,-375.17 1561.87,-355.61"/>
<polygon fill="midnightblue" stroke="midnightblue" points="1286.67,-442.02 1278.26,-448.46 1288.85,-448.67 1286.67,-442.02"/>
</g>
<!-- Node7 -->
<g id="node7" class="node">
<title>Node7</title>
<g id="a_node7"><a xlink:href="../../d2/d05/StaticSizeExtendedIOElement_8hpp.html" target="_top" xlink:title=" ">
<polygon fill="white" stroke="black" points="1103.17,-168.5 1103.17,-187.5 1285.17,-187.5 1285.17,-168.5 1103.17,-168.5"/>
<text text-anchor="middle" x="1194.17" y="-175.5" font-family="Helvetica,sans-Serif" font-size="10.00">StaticSizeExtendedIOElement.hpp</text>
</a>
</g>
</g>
<!-- Node6&#45;&gt;Node7 -->
<g id="edge6" class="edge">
<title>Node6&#45;&gt;Node7</title>
<path fill="none" stroke="midnightblue" d="M1801.44,-270.21C1798.17,-255.1 1791.13,-234.69 1776.17,-224 1771.24,-220.47 1448.01,-197.04 1285.45,-185.46"/>
<polygon fill="midnightblue" stroke="midnightblue" points="1797.99,-270.84 1803.21,-280.06 1804.88,-269.6 1797.99,-270.84"/>
</g>
<!-- Node7&#45;&gt;Node5 -->
<g id="edge7" class="edge">
<title>Node7&#45;&gt;Node5</title>
<path fill="none" stroke="midnightblue" d="M1167.62,-163.73C1147.63,-153.73 1120.79,-140.31 1103.48,-131.65"/>
<polygon fill="midnightblue" stroke="midnightblue" points="1166.31,-166.98 1176.82,-168.32 1169.44,-160.72 1166.31,-166.98"/>
</g>
<!-- Node8 -->
<g id="node8" class="node">
<title>Node8</title>
<g id="a_node8"><a xlink:href="../../d2/d25/MAX7219_8hpp.html" target="_top" xlink:title=" ">
<polygon fill="white" stroke="black" points="1322.17,-112.5 1322.17,-131.5 1406.17,-131.5 1406.17,-112.5 1322.17,-112.5"/>
<text text-anchor="middle" x="1364.17" y="-119.5" font-family="Helvetica,sans-Serif" font-size="10.00">MAX7219.hpp</text>
</a>
</g>
</g>
<!-- Node7&#45;&gt;Node8 -->
<g id="edge8" class="edge">
<title>Node7&#45;&gt;Node8</title>
<path fill="none" stroke="midnightblue" d="M1230.99,-165.3C1263.02,-155.13 1308.69,-140.62 1337.36,-131.52"/>
<polygon fill="midnightblue" stroke="midnightblue" points="1229.58,-162.08 1221.11,-168.44 1231.7,-168.75 1229.58,-162.08"/>
</g>
<!-- Node9 -->
<g id="node9" class="node">
<title>Node9</title>
<g id="a_node9"><a xlink:href="../../d7/dca/MCP23017_8hpp.html" target="_top" xlink:title=" ">
<polygon fill="white" stroke="black" points="1815.67,-112.5 1815.67,-131.5 1904.67,-131.5 1904.67,-112.5 1815.67,-112.5"/>
<text text-anchor="middle" x="1860.17" y="-119.5" font-family="Helvetica,sans-Serif" font-size="10.00">MCP23017.hpp</text>
</a>
</g>
</g>
<!-- Node7&#45;&gt;Node9 -->
<g id="edge9" class="edge">
<title>Node7&#45;&gt;Node9</title>
<path fill="none" stroke="midnightblue" d="M1295.78,-168.76C1443.1,-156.82 1709.91,-135.18 1815.46,-126.63"/>
<polygon fill="midnightblue" stroke="midnightblue" points="1295.06,-165.31 1285.38,-169.6 1295.63,-172.29 1295.06,-165.31"/>
</g>
<!-- Node11 -->
<g id="node11" class="node">
<title>Node11</title>
<g id="a_node11"><a xlink:href="../../d8/d93/ShiftRegisterOutBase_8hpp.html" target="_top" xlink:title=" ">
<polygon fill="white" stroke="black" points="1162.67,-112.5 1162.67,-131.5 1303.67,-131.5 1303.67,-112.5 1162.67,-112.5"/>
<text text-anchor="middle" x="1233.17" y="-119.5" font-family="Helvetica,sans-Serif" font-size="10.00">ShiftRegisterOutBase.hpp</text>
</a>
</g>
</g>
<!-- Node7&#45;&gt;Node11 -->
<g id="edge12" class="edge">
<title>Node7&#45;&gt;Node11</title>
<path fill="none" stroke="midnightblue" d="M1206.55,-159.86C1213.31,-150.5 1221.38,-139.33 1226.85,-131.75"/>
<polygon fill="midnightblue" stroke="midnightblue" points="1203.63,-157.93 1200.61,-168.08 1209.3,-162.03 1203.63,-157.93"/>
</g>
<!-- Node10 -->
<g id="node10" class="node">
<title>Node10</title>
<g id="a_node10"><a xlink:href="../../d2/d94/MCP23017_8ipp.html" target="_top" xlink:title=" ">
<polygon fill="white" stroke="black" points="1817.17,-56.5 1817.17,-75.5 1903.17,-75.5 1903.17,-56.5 1817.17,-56.5"/>
<text text-anchor="middle" x="1860.17" y="-63.5" font-family="Helvetica,sans-Serif" font-size="10.00">MCP23017.ipp</text>
</a>
</g>
</g>
<!-- Node9&#45;&gt;Node10 -->
<g id="edge10" class="edge">
<title>Node9&#45;&gt;Node10</title>
<path fill="none" stroke="midnightblue" d="M1853.7,-102.1C1853.07,-93.14 1853.52,-82.86 1855.04,-75.75"/>
<polygon fill="midnightblue" stroke="midnightblue" points="1850.24,-102.62 1855.01,-112.08 1857.18,-101.71 1850.24,-102.62"/>
</g>
<!-- Node10&#45;&gt;Node9 -->
<g id="edge11" class="edge">
<title>Node10&#45;&gt;Node9</title>
<path fill="none" stroke="midnightblue" d="M1866.63,-85.69C1867.28,-94.64 1866.85,-104.93 1865.34,-112.08"/>
<polygon fill="midnightblue" stroke="midnightblue" points="1870.1,-85.2 1865.3,-75.75 1863.16,-86.13 1870.1,-85.2"/>
</g>
<!-- Node12 -->
<g id="node12" class="node">
<title>Node12</title>
<g id="a_node12"><a xlink:href="../../d7/d88/SPIShiftRegisterOut_8hpp.html" target="_top" xlink:title=" ">
<polygon fill="white" stroke="black" points="1481.17,-56.5 1481.17,-75.5 1613.17,-75.5 1613.17,-56.5 1481.17,-56.5"/>
<text text-anchor="middle" x="1547.17" y="-63.5" font-family="Helvetica,sans-Serif" font-size="10.00">SPIShiftRegisterOut.hpp</text>
</a>
</g>
</g>
<!-- Node11&#45;&gt;Node12 -->
<g id="edge13" class="edge">
<title>Node11&#45;&gt;Node12</title>
<path fill="none" stroke="midnightblue" d="M1292.91,-110.73C1352.24,-100.52 1442.17,-85.06 1497.65,-75.52"/>
<polygon fill="midnightblue" stroke="midnightblue" points="1292.19,-107.3 1282.93,-112.44 1293.38,-114.2 1292.19,-107.3"/>
</g>
<!-- Node14 -->
<g id="node14" class="node">
<title>Node14</title>
<g id="a_node14"><a xlink:href="../../d0/db4/ShiftRegisterOut_8hpp.html" target="_top" xlink:title=" ">
<polygon fill="white" stroke="black" points="1160.67,-56.5 1160.67,-75.5 1277.67,-75.5 1277.67,-56.5 1160.67,-56.5"/>
<text text-anchor="middle" x="1219.17" y="-63.5" font-family="Helvetica,sans-Serif" font-size="10.00">ShiftRegisterOut.hpp</text>
</a>
</g>
</g>
<!-- Node11&#45;&gt;Node14 -->
<g id="edge16" class="edge">
<title>Node11&#45;&gt;Node14</title>
<path fill="none" stroke="midnightblue" d="M1228.35,-102.4C1226.01,-93.36 1223.3,-82.94 1221.44,-75.75"/>
<polygon fill="midnightblue" stroke="midnightblue" points="1224.96,-103.28 1230.86,-112.08 1231.74,-101.52 1224.96,-103.28"/>
</g>
<!-- Node16 -->
<g id="node16" class="node">
<title>Node16</title>
<g id="a_node16"><a xlink:href="../../d5/d47/ShiftRegisterOutBase_8ipp.html" target="_top" xlink:title=" ">
<polygon fill="white" stroke="black" points="997.17,-56.5 997.17,-75.5 1135.17,-75.5 1135.17,-56.5 997.17,-56.5"/>
<text text-anchor="middle" x="1066.17" y="-63.5" font-family="Helvetica,sans-Serif" font-size="10.00">ShiftRegisterOutBase.ipp</text>
</a>
</g>
</g>
<!-- Node11&#45;&gt;Node16 -->
<g id="edge19" class="edge">
<title>Node11&#45;&gt;Node16</title>
<path fill="none" stroke="midnightblue" d="M1191.76,-109.44C1158.64,-99.26 1113.7,-84.66 1087.43,-75.52"/>
<polygon fill="midnightblue" stroke="midnightblue" points="1191.04,-112.88 1201.62,-112.44 1193.08,-106.18 1191.04,-112.88"/>
</g>
<!-- Node13 -->
<g id="node13" class="node">
<title>Node13</title>
<g id="a_node13"><a xlink:href="../../da/d45/SPIShiftRegisterOut_8ipp.html" target="_top" xlink:title=" ">
<polygon fill="white" stroke="black" points="1482.67,-0.5 1482.67,-19.5 1611.67,-19.5 1611.67,-0.5 1482.67,-0.5"/>
<text text-anchor="middle" x="1547.17" y="-7.5" font-family="Helvetica,sans-Serif" font-size="10.00">SPIShiftRegisterOut.ipp</text>
</a>
</g>
</g>
<!-- Node12&#45;&gt;Node13 -->
<g id="edge14" class="edge">
<title>Node12&#45;&gt;Node13</title>
<path fill="none" stroke="midnightblue" d="M1540.7,-46.1C1540.07,-37.14 1540.52,-26.86 1542.04,-19.75"/>
<polygon fill="midnightblue" stroke="midnightblue" points="1537.24,-46.62 1542.01,-56.08 1544.18,-45.71 1537.24,-46.62"/>
</g>
<!-- Node13&#45;&gt;Node12 -->
<g id="edge15" class="edge">
<title>Node13&#45;&gt;Node12</title>
<path fill="none" stroke="midnightblue" d="M1553.63,-29.69C1554.28,-38.64 1553.85,-48.93 1552.34,-56.08"/>
<polygon fill="midnightblue" stroke="midnightblue" points="1557.1,-29.2 1552.3,-19.75 1550.16,-30.13 1557.1,-29.2"/>
</g>
<!-- Node15 -->
<g id="node15" class="node">
<title>Node15</title>
<g id="a_node15"><a xlink:href="../../de/d95/ShiftRegisterOut_8ipp.html" target="_top" xlink:title=" ">
<polygon fill="white" stroke="black" points="1162.17,-0.5 1162.17,-19.5 1276.17,-19.5 1276.17,-0.5 1162.17,-0.5"/>
<text text-anchor="middle" x="1219.17" y="-7.5" font-family="Helvetica,sans-Serif" font-size="10.00">ShiftRegisterOut.ipp</text>
</a>
</g>
</g>
<!-- Node14&#45;&gt;Node15 -->
<g id="edge17" class="edge">
<title>Node14&#45;&gt;Node15</title>
<path fill="none" stroke="midnightblue" d="M1212.7,-46.1C1212.07,-37.14 1212.52,-26.86 1214.04,-19.75"/>
<polygon fill="midnightblue" stroke="midnightblue" points="1209.24,-46.62 1214.01,-56.08 1216.18,-45.71 1209.24,-46.62"/>
</g>
<!-- Node15&#45;&gt;Node14 -->
<g id="edge18" class="edge">
<title>Node15&#45;&gt;Node14</title>
<path fill="none" stroke="midnightblue" d="M1225.63,-29.69C1226.28,-38.64 1225.85,-48.93 1224.34,-56.08"/>
<polygon fill="midnightblue" stroke="midnightblue" points="1229.1,-29.2 1224.3,-19.75 1222.16,-30.13 1229.1,-29.2"/>
</g>
<!-- Node16&#45;&gt;Node11 -->
<g id="edge20" class="edge">
<title>Node16&#45;&gt;Node11</title>
<path fill="none" stroke="midnightblue" d="M1107.44,-78.52C1140.53,-88.69 1185.47,-103.28 1211.8,-112.44"/>
<polygon fill="midnightblue" stroke="midnightblue" points="1108.18,-75.08 1097.59,-75.52 1106.14,-81.78 1108.18,-75.08"/>
</g>
<!-- Node18 -->
<g id="node18" class="node">
<title>Node18</title>
<g id="a_node18"><a xlink:href="../../d2/d3c/Arduino-Hardware-Types_8hpp.html" target="_top" xlink:title=" ">
<polygon fill="white" stroke="black" points="1023.67,-336.5 1023.67,-355.5 1180.67,-355.5 1180.67,-336.5 1023.67,-336.5"/>
<text text-anchor="middle" x="1102.17" y="-343.5" font-family="Helvetica,sans-Serif" font-size="10.00">Arduino&#45;Hardware&#45;Types.hpp</text>
</a>
</g>
</g>
<!-- Node17&#45;&gt;Node18 -->
<g id="edge22" class="edge">
<title>Node17&#45;&gt;Node18</title>
<path fill="none" stroke="midnightblue" d="M1218.95,-389.04C1190.72,-378.88 1150.91,-364.55 1125.83,-355.52"/>
<polygon fill="midnightblue" stroke="midnightblue" points="1217.81,-392.35 1228.4,-392.44 1220.18,-385.76 1217.81,-392.35"/>
</g>
<!-- Node28 -->
<g id="node28" class="node">
<title>Node28</title>
<g id="a_node28"><a xlink:href="../../d9/d4b/ButtonMatrix_8hpp.html" target="_top" xlink:title=" ">
<polygon fill="white" stroke="black" points="1552.67,-168.5 1552.67,-187.5 1653.67,-187.5 1653.67,-168.5 1552.67,-168.5"/>
<text text-anchor="middle" x="1603.17" y="-175.5" font-family="Helvetica,sans-Serif" font-size="10.00">ButtonMatrix.hpp</text>
</a>
</g>
</g>
<!-- Node17&#45;&gt;Node28 -->
<g id="edge52" class="edge">
<title>Node17&#45;&gt;Node28</title>
<path fill="none" stroke="midnightblue" d="M1320.76,-398.66C1420.45,-394.38 1599.86,-383.09 1658.17,-356 1666.37,-352.19 1772.61,-252.3 1776.17,-244 1779.68,-235.83 1781.61,-231.03 1776.17,-224 1768.18,-213.66 1695.76,-197.43 1647.19,-187.55"/>
<polygon fill="midnightblue" stroke="midnightblue" points="1320.33,-395.18 1310.48,-399.09 1320.62,-402.17 1320.33,-395.18"/>
</g>
<!-- Node29 -->
<g id="node29" class="node">
<title>Node29</title>
<g id="a_node29"><a xlink:href="../../d4/d57/ExtendedIOElement_8hpp.html" target="_top" xlink:title=" ">
<polygon fill="white" stroke="black" points="761.17,-224.5 761.17,-243.5 895.17,-243.5 895.17,-224.5 761.17,-224.5"/>
<text text-anchor="middle" x="828.17" y="-231.5" font-family="Helvetica,sans-Serif" font-size="10.00">ExtendedIOElement.hpp</text>
</a>
</g>
</g>
<!-- Node17&#45;&gt;Node29 -->
<g id="edge53" class="edge">
<title>Node17&#45;&gt;Node29</title>
<path fill="none" stroke="midnightblue" d="M1184.04,-395.23C1135.34,-389.42 1069,-378.02 1014.17,-356 940.53,-326.43 864.97,-266.1 838.26,-243.66"/>
<polygon fill="midnightblue" stroke="midnightblue" points="1183.82,-398.73 1194.15,-396.39 1184.61,-391.77 1183.82,-398.73"/>
</g>
<!-- Node32 -->
<g id="node32" class="node">
<title>Node32</title>
<g id="a_node32"><a xlink:href="../../d8/df3/FilteredAnalog_8hpp.html" target="_top" xlink:title=" ">
<polygon fill="white" stroke="black" points="1507.17,-224.5 1507.17,-243.5 1615.17,-243.5 1615.17,-224.5 1507.17,-224.5"/>
<text text-anchor="middle" x="1561.17" y="-231.5" font-family="Helvetica,sans-Serif" font-size="10.00">FilteredAnalog.hpp</text>
</a>
</g>
</g>
<!-- Node17&#45;&gt;Node32 -->
<g id="edge54" class="edge">
<title>Node17&#45;&gt;Node32</title>
<path fill="none" stroke="midnightblue" d="M1277.36,-387.47C1338.74,-354.5 1494.69,-270.71 1545.15,-243.61"/>
<polygon fill="midnightblue" stroke="midnightblue" points="1275.5,-384.49 1268.35,-392.31 1278.82,-390.66 1275.5,-384.49"/>
</g>
<!-- Node19 -->
<g id="node19" class="node">
<title>Node19</title>
<g id="a_node19"><a xlink:href="../../dd/ddf/ExtendedInputOutput_8hpp.html" target="_top" xlink:title=" ">
<polygon fill="white" stroke="black" points="985.67,-280.5 985.67,-299.5 1126.67,-299.5 1126.67,-280.5 985.67,-280.5"/>
<text text-anchor="middle" x="1056.17" y="-287.5" font-family="Helvetica,sans-Serif" font-size="10.00">ExtendedInputOutput.hpp</text>
</a>
</g>
</g>
<!-- Node18&#45;&gt;Node19 -->
<g id="edge23" class="edge">
<title>Node18&#45;&gt;Node19</title>
<path fill="none" stroke="midnightblue" d="M1088.06,-328.43C1080,-318.97 1070.21,-307.48 1063.63,-299.75"/>
<polygon fill="midnightblue" stroke="midnightblue" points="1085.43,-330.74 1094.58,-336.08 1090.76,-326.2 1085.43,-330.74"/>
</g>
<!-- Node19&#45;&gt;Node5 -->
<g id="edge24" class="edge">
<title>Node19&#45;&gt;Node5</title>
<path fill="none" stroke="midnightblue" d="M1054.29,-270.02C1052.5,-245.83 1051.34,-202.96 1061.17,-168 1065,-154.41 1073.62,-140.45 1079.67,-131.76"/>
<polygon fill="midnightblue" stroke="midnightblue" points="1050.83,-270.62 1055.18,-280.28 1057.81,-270.01 1050.83,-270.62"/>
</g>
<!-- Node19&#45;&gt;Node9 -->
<g id="edge46" class="edge">
<title>Node19&#45;&gt;Node9</title>
<path fill="none" stroke="midnightblue" d="M1136.9,-280.43C1236.34,-269.65 1395.43,-251.66 1422.17,-244 1442.44,-238.2 1444.79,-229.38 1465.17,-224 1512.81,-211.41 1873.77,-224.23 1907.17,-188 1924.26,-169.47 1893.69,-144.65 1874.31,-131.7"/>
<polygon fill="midnightblue" stroke="midnightblue" points="1136.44,-276.95 1126.88,-281.51 1137.2,-283.91 1136.44,-276.95"/>
</g>
<!-- Node19&#45;&gt;Node11 -->
<g id="edge50" class="edge">
<title>Node19&#45;&gt;Node11</title>
<path fill="none" stroke="midnightblue" d="M1059.89,-270.17C1066.2,-239.96 1079.74,-182.56 1094.17,-168 1113.1,-148.9 1140.19,-137.91 1165.43,-131.58"/>
<polygon fill="midnightblue" stroke="midnightblue" points="1056.4,-269.78 1057.84,-280.27 1063.26,-271.17 1056.4,-269.78"/>
</g>
<!-- Node19&#45;&gt;Node13 -->
<g id="edge48" class="edge">
<title>Node19&#45;&gt;Node13</title>
<path fill="none" stroke="midnightblue" d="M1136.97,-280.31C1252.14,-267.88 1450.54,-246.26 1458.17,-244 1477.23,-238.36 1479.04,-229.38 1498.17,-224 1589.42,-198.35 1859.04,-257.79 1923.17,-188 1947.5,-161.53 2033.5,-180.37 1912.17,-56 1891.61,-34.92 1711.1,-20.85 1611.87,-14.64"/>
<polygon fill="midnightblue" stroke="midnightblue" points="1136.35,-276.86 1126.78,-281.41 1137.1,-283.82 1136.35,-276.86"/>
</g>
<!-- Node19&#45;&gt;Node15 -->
<g id="edge49" class="edge">
<title>Node19&#45;&gt;Node15</title>
<path fill="none" stroke="midnightblue" d="M1031.93,-275.09C1003.78,-256.91 961.17,-222.26 961.17,-179 961.17,-179 961.17,-179 961.17,-121 961.17,-89.72 963.94,-75.79 988.17,-56 1014.24,-34.71 1102.43,-22.19 1161.98,-15.96"/>
<polygon fill="midnightblue" stroke="midnightblue" points="1030.14,-278.1 1040.49,-280.4 1033.83,-272.15 1030.14,-278.1"/>
</g>
<!-- Node19&#45;&gt;Node16 -->
<g id="edge51" class="edge">
<title>Node19&#45;&gt;Node16</title>
<path fill="none" stroke="midnightblue" d="M1045.51,-271.33C1027.28,-238.66 994.28,-167.15 1018.17,-112 1024.98,-96.28 1040.29,-83.53 1051.8,-75.67"/>
<polygon fill="midnightblue" stroke="midnightblue" points="1042.58,-273.25 1050.62,-280.16 1048.64,-269.75 1042.58,-273.25"/>
</g>
<!-- Node20 -->
<g id="node20" class="node">
<title>Node20</title>
<g id="a_node20"><a xlink:href="../../d4/db3/Button_8hpp.html" target="_top" xlink:title=" ">
<polygon fill="white" stroke="black" points="237.17,-224.5 237.17,-243.5 307.17,-243.5 307.17,-224.5 237.17,-224.5"/>
<text text-anchor="middle" x="272.17" y="-231.5" font-family="Helvetica,sans-Serif" font-size="10.00">Button.hpp</text>
</a>
</g>
</g>
<!-- Node19&#45;&gt;Node20 -->
<g id="edge25" class="edge">
<title>Node19&#45;&gt;Node20</title>
<path fill="none" stroke="midnightblue" d="M975.53,-283.45C807.43,-271.87 425.39,-245.55 307.49,-237.43"/>
<polygon fill="midnightblue" stroke="midnightblue" points="975.34,-286.94 985.56,-284.14 975.83,-279.96 975.34,-286.94"/>
</g>
<!-- Node27 -->
<g id="node27" class="node">
<title>Node27</title>
<g id="a_node27"><a xlink:href="../../d5/d41/ButtonMatrix_8ipp.html" target="_top" xlink:title=" ">
<polygon fill="white" stroke="black" points="1235.17,-224.5 1235.17,-243.5 1333.17,-243.5 1333.17,-224.5 1235.17,-224.5"/>
<text text-anchor="middle" x="1284.17" y="-231.5" font-family="Helvetica,sans-Serif" font-size="10.00">ButtonMatrix.ipp</text>
</a>
</g>
</g>
<!-- Node19&#45;&gt;Node27 -->
<g id="edge32" class="edge">
<title>Node19&#45;&gt;Node27</title>
<path fill="none" stroke="midnightblue" d="M1102.24,-278.09C1145.32,-267.89 1208.76,-252.86 1248.21,-243.52"/>
<polygon fill="midnightblue" stroke="midnightblue" points="1101.22,-274.73 1092.3,-280.44 1102.84,-281.54 1101.22,-274.73"/>
</g>
<!-- Node19&#45;&gt;Node29 -->
<g id="edge35" class="edge">
<title>Node19&#45;&gt;Node29</title>
<path fill="none" stroke="midnightblue" d="M1010.1,-278.09C967.03,-267.89 903.59,-252.86 864.13,-243.52"/>
<polygon fill="midnightblue" stroke="midnightblue" points="1009.51,-281.54 1020.05,-280.44 1011.12,-274.73 1009.51,-281.54"/>
</g>
<!-- Node19&#45;&gt;Node31 -->
<g id="edge39" class="edge">
<title>Node19&#45;&gt;Node31</title>
<path fill="none" stroke="midnightblue" d="M1020.59,-277.05C998.73,-269.05 970.52,-257.53 947.17,-244 917.97,-227.09 887.6,-201.14 872.65,-187.72"/>
<polygon fill="midnightblue" stroke="midnightblue" points="1019.56,-280.4 1030.15,-280.48 1021.92,-273.81 1019.56,-280.4"/>
</g>
<!-- Node19&#45;&gt;Node32 -->
<g id="edge40" class="edge">
<title>Node19&#45;&gt;Node32</title>
<path fill="none" stroke="midnightblue" d="M1137.28,-280.41C1138.59,-280.27 1139.89,-280.13 1141.17,-280 1297.59,-263.72 1336.98,-262.32 1493.17,-244 1497.67,-243.47 1502.33,-242.9 1507,-242.32"/>
<polygon fill="midnightblue" stroke="midnightblue" points="1136.71,-276.95 1127.13,-281.47 1137.44,-283.91 1136.71,-276.95"/>
</g>
<!-- Node33 -->
<g id="node33" class="node">
<title>Node33</title>
<g id="a_node33"><a xlink:href="../../d9/d4f/LEDs_8hpp.html" target="_top" xlink:title=" ">
<polygon fill="white" stroke="black" points="1351.17,-224.5 1351.17,-243.5 1413.17,-243.5 1413.17,-224.5 1351.17,-224.5"/>
<text text-anchor="middle" x="1382.17" y="-231.5" font-family="Helvetica,sans-Serif" font-size="10.00">LEDs.hpp</text>
</a>
</g>
</g>
<!-- Node19&#45;&gt;Node33 -->
<g id="edge41" class="edge">
<title>Node19&#45;&gt;Node33</title>
<path fill="none" stroke="midnightblue" d="M1127.9,-279.04C1185.88,-270.67 1269.52,-257.87 1342.17,-244 1344.97,-243.47 1347.87,-242.88 1350.77,-242.27"/>
<polygon fill="midnightblue" stroke="midnightblue" points="1127.14,-275.61 1117.74,-280.5 1128.14,-282.54 1127.14,-275.61"/>
</g>
<!-- Node35 -->
<g id="node35" class="node">
<title>Node35</title>
<g id="a_node35"><a xlink:href="../../d7/d13/MAX7219__Base_8hpp.html" target="_top" xlink:title=" ">
<polygon fill="white" stroke="black" points="1103.67,-224.5 1103.67,-243.5 1216.67,-243.5 1216.67,-224.5 1103.67,-224.5"/>
<text text-anchor="middle" x="1160.17" y="-231.5" font-family="Helvetica,sans-Serif" font-size="10.00">MAX7219_Base.hpp</text>
</a>
</g>
</g>
<!-- Node19&#45;&gt;Node35 -->
<g id="edge43" class="edge">
<title>Node19&#45;&gt;Node35</title>
<path fill="none" stroke="midnightblue" d="M1082,-275.59C1101.23,-265.61 1126.92,-252.27 1143.5,-243.65"/>
<polygon fill="midnightblue" stroke="midnightblue" points="1080.14,-272.61 1072.88,-280.32 1083.37,-278.82 1080.14,-272.61"/>
</g>
<!-- Node37 -->
<g id="node37" class="node">
<title>Node37</title>
<g id="a_node37"><a xlink:href="../../d8/dd2/MCP23017Encoders_8hpp.html" target="_top" xlink:title=" ">
<polygon fill="white" stroke="black" points="1633.17,-224.5 1633.17,-243.5 1767.17,-243.5 1767.17,-224.5 1633.17,-224.5"/>
<text text-anchor="middle" x="1700.17" y="-231.5" font-family="Helvetica,sans-Serif" font-size="10.00">MCP23017Encoders.hpp</text>
</a>
</g>
</g>
<!-- Node19&#45;&gt;Node37 -->
<g id="edge47" class="edge">
<title>Node19&#45;&gt;Node37</title>
<path fill="none" stroke="midnightblue" d="M1137.14,-283.58C1247.41,-275.97 1450.91,-261.12 1624.17,-244 1627.08,-243.71 1630.05,-243.41 1633.05,-243.09"/>
<polygon fill="midnightblue" stroke="midnightblue" points="1136.83,-280.09 1127.09,-284.27 1137.31,-287.07 1136.83,-280.09"/>
</g>
<!-- Node21 -->
<g id="node21" class="node">
<title>Node21</title>
<g id="a_node21"><a xlink:href="../../de/dd1/Button_8cpp.html" target="_top" xlink:title=" ">
<polygon fill="white" stroke="black" points="166.67,-168.5 166.67,-187.5 235.67,-187.5 235.67,-168.5 166.67,-168.5"/>
<text text-anchor="middle" x="201.17" y="-175.5" font-family="Helvetica,sans-Serif" font-size="10.00">Button.cpp</text>
</a>
</g>
</g>
<!-- Node20&#45;&gt;Node21 -->
<g id="edge26" class="edge">
<title>Node20&#45;&gt;Node21</title>
<path fill="none" stroke="midnightblue" d="M252.58,-218.1C239.8,-208.38 223.56,-196.03 212.79,-187.83"/>
<polygon fill="midnightblue" stroke="midnightblue" points="250.69,-221.06 260.77,-224.32 254.92,-215.48 250.69,-221.06"/>
</g>
<!-- Node22 -->
<g id="node22" class="node">
<title>Node22</title>
<g id="a_node22"><a xlink:href="../../d5/d04/IncrementButton_8hpp.html" target="_top" xlink:title=" ">
<polygon fill="white" stroke="black" points="29.67,-168.5 29.67,-187.5 148.67,-187.5 148.67,-168.5 29.67,-168.5"/>
<text text-anchor="middle" x="89.17" y="-175.5" font-family="Helvetica,sans-Serif" font-size="10.00">IncrementButton.hpp</text>
</a>
</g>
</g>
<!-- Node20&#45;&gt;Node22 -->
<g id="edge27" class="edge">
<title>Node20&#45;&gt;Node22</title>
<path fill="none" stroke="midnightblue" d="M233.43,-221.57C198.91,-211.38 149.17,-196.7 118.03,-187.52"/>
<polygon fill="midnightblue" stroke="midnightblue" points="232.59,-224.97 243.18,-224.44 234.58,-218.26 232.59,-224.97"/>
</g>
<!-- Node24 -->
<g id="node24" class="node">
<title>Node24</title>
<g id="a_node24"><a xlink:href="../../df/df5/IncrementDecrementButtons_8hpp.html" target="_top" xlink:title=" ">
<polygon fill="white" stroke="black" points="253.67,-168.5 253.67,-187.5 432.67,-187.5 432.67,-168.5 253.67,-168.5"/>
<text text-anchor="middle" x="343.17" y="-175.5" font-family="Helvetica,sans-Serif" font-size="10.00">IncrementDecrementButtons.hpp</text>
</a>
</g>
</g>
<!-- Node20&#45;&gt;Node24 -->
<g id="edge29" class="edge">
<title>Node20&#45;&gt;Node24</title>
<path fill="none" stroke="midnightblue" d="M291.76,-218.1C304.54,-208.38 320.79,-196.03 331.56,-187.83"/>
<polygon fill="midnightblue" stroke="midnightblue" points="289.42,-215.48 283.58,-224.32 293.66,-221.06 289.42,-215.48"/>
</g>
<!-- Node26 -->
<g id="node26" class="node">
<title>Node26</title>
<g id="a_node26"><a xlink:href="../../dc/dc5/MultiPurposeButton_8hpp.html" target="_top" xlink:title=" ">
<polygon fill="white" stroke="black" points="451.17,-168.5 451.17,-187.5 585.17,-187.5 585.17,-168.5 451.17,-168.5"/>
<text text-anchor="middle" x="518.17" y="-175.5" font-family="Helvetica,sans-Serif" font-size="10.00">MultiPurposeButton.hpp</text>
</a>
</g>
</g>
<!-- Node20&#45;&gt;Node26 -->
<g id="edge31" class="edge">
<title>Node20&#45;&gt;Node26</title>
<path fill="none" stroke="midnightblue" d="M317.21,-223.11C363.65,-212.92 435.32,-197.19 479.34,-187.52"/>
<polygon fill="midnightblue" stroke="midnightblue" points="316.44,-219.7 307.42,-225.26 317.94,-226.54 316.44,-219.7"/>
</g>
<!-- Node23 -->
<g id="node23" class="node">
<title>Node23</title>
<g id="a_node23"><a xlink:href="../../db/d9d/IncrementButton_8cpp.html" target="_top" xlink:title=" ">
<polygon fill="white" stroke="black" points="29.67,-112.5 29.67,-131.5 148.67,-131.5 148.67,-112.5 29.67,-112.5"/>
<text text-anchor="middle" x="89.17" y="-119.5" font-family="Helvetica,sans-Serif" font-size="10.00">IncrementButton.cpp</text>
</a>
</g>
</g>
<!-- Node22&#45;&gt;Node23 -->
<g id="edge28" class="edge">
<title>Node22&#45;&gt;Node23</title>
<path fill="none" stroke="midnightblue" d="M89.17,-157.8C89.17,-148.91 89.17,-138.78 89.17,-131.75"/>
<polygon fill="midnightblue" stroke="midnightblue" points="85.67,-158.08 89.17,-168.08 92.67,-158.08 85.67,-158.08"/>
</g>
<!-- Node25 -->
<g id="node25" class="node">
<title>Node25</title>
<g id="a_node25"><a xlink:href="../../da/d66/IncrementDecrementButtons_8cpp.html" target="_top" xlink:title=" ">
<polygon fill="white" stroke="black" points="254.17,-112.5 254.17,-131.5 432.17,-131.5 432.17,-112.5 254.17,-112.5"/>
<text text-anchor="middle" x="343.17" y="-119.5" font-family="Helvetica,sans-Serif" font-size="10.00">IncrementDecrementButtons.cpp</text>
</a>
</g>
</g>
<!-- Node24&#45;&gt;Node25 -->
<g id="edge30" class="edge">
<title>Node24&#45;&gt;Node25</title>
<path fill="none" stroke="midnightblue" d="M343.17,-157.8C343.17,-148.91 343.17,-138.78 343.17,-131.75"/>
<polygon fill="midnightblue" stroke="midnightblue" points="339.67,-158.08 343.17,-168.08 346.67,-158.08 339.67,-158.08"/>
</g>
<!-- Node27&#45;&gt;Node28 -->
<g id="edge33" class="edge">
<title>Node27&#45;&gt;Node28</title>
<path fill="none" stroke="midnightblue" d="M1339.69,-222.68C1399.76,-212.19 1494.55,-196.17 1552.62,-186.73"/>
<polygon fill="midnightblue" stroke="midnightblue" points="1338.88,-219.27 1329.63,-224.44 1340.08,-226.17 1338.88,-219.27"/>
</g>
<!-- Node28&#45;&gt;Node27 -->
<g id="edge34" class="edge">
<title>Node28&#45;&gt;Node27</title>
<path fill="none" stroke="midnightblue" d="M1547.83,-189.29C1487.31,-199.86 1391.37,-216.07 1333.37,-225.49"/>
<polygon fill="midnightblue" stroke="midnightblue" points="1548.72,-192.69 1557.97,-187.51 1547.51,-185.79 1548.72,-192.69"/>
</g>
<!-- Node29&#45;&gt;Node7 -->
<g id="edge38" class="edge">
<title>Node29&#45;&gt;Node7</title>
<path fill="none" stroke="midnightblue" d="M896.09,-222.98C965.23,-212.78 1071.24,-197.14 1136.45,-187.52"/>
<polygon fill="midnightblue" stroke="midnightblue" points="895.55,-219.52 886.17,-224.44 896.57,-226.45 895.55,-219.52"/>
</g>
<!-- Node29&#45;&gt;Node30 -->
<g id="edge36" class="edge">
<title>Node29&#45;&gt;Node30</title>
<path fill="none" stroke="midnightblue" d="M799.8,-220.23C777.35,-210.13 746.64,-196.31 727.1,-187.52"/>
<polygon fill="midnightblue" stroke="midnightblue" points="798.6,-223.53 809.16,-224.44 801.48,-217.15 798.6,-223.53"/>
</g>
<!-- Node29&#45;&gt;Node31 -->
<g id="edge37" class="edge">
<title>Node29&#45;&gt;Node31</title>
<path fill="none" stroke="midnightblue" d="M839.47,-215.57C845.49,-206.27 852.64,-195.25 857.5,-187.75"/>
<polygon fill="midnightblue" stroke="midnightblue" points="836.45,-213.79 833.95,-224.08 842.33,-217.6 836.45,-213.79"/>
</g>
<!-- Node34 -->
<g id="node34" class="node">
<title>Node34</title>
<g id="a_node34"><a xlink:href="../../d6/d3a/DotBarDisplayLEDs_8hpp.html" target="_top" xlink:title=" ">
<polygon fill="white" stroke="black" points="1672.17,-168.5 1672.17,-187.5 1804.17,-187.5 1804.17,-168.5 1672.17,-168.5"/>
<text text-anchor="middle" x="1738.17" y="-175.5" font-family="Helvetica,sans-Serif" font-size="10.00">DotBarDisplayLEDs.hpp</text>
</a>
</g>
</g>
<!-- Node33&#45;&gt;Node34 -->
<g id="edge42" class="edge">
<title>Node33&#45;&gt;Node34</title>
<path fill="none" stroke="midnightblue" d="M1423.84,-224.59C1424.96,-224.38 1426.07,-224.19 1427.17,-224 1511.45,-209.49 1609.12,-195.87 1672.18,-187.5"/>
<polygon fill="midnightblue" stroke="midnightblue" points="1422.79,-221.22 1413.6,-226.49 1424.08,-228.1 1422.79,-221.22"/>
</g>
<!-- Node35&#45;&gt;Node8 -->
<g id="edge44" class="edge">
<title>Node35&#45;&gt;Node8</title>
<path fill="none" stroke="midnightblue" d="M1209.36,-221.87C1235.68,-214.61 1267.98,-203.56 1294.17,-188 1320.41,-172.41 1345.09,-145.65 1356.9,-131.83"/>
<polygon fill="midnightblue" stroke="midnightblue" points="1208.35,-218.52 1199.59,-224.47 1210.15,-225.28 1208.35,-218.52"/>
</g>
<!-- Node36 -->
<g id="node36" class="node">
<title>Node36</title>
<g id="a_node36"><a xlink:href="../../d5/d0c/MAX7219SevenSegmentDisplay_8hpp.html" target="_top" xlink:title=" ">
<polygon fill="white" stroke="black" points="1341.67,-168.5 1341.67,-187.5 1534.67,-187.5 1534.67,-168.5 1341.67,-168.5"/>
<text text-anchor="middle" x="1438.17" y="-175.5" font-family="Helvetica,sans-Serif" font-size="10.00">MAX7219SevenSegmentDisplay.hpp</text>
</a>
</g>
</g>
<!-- Node35&#45;&gt;Node36 -->
<g id="edge45" class="edge">
<title>Node35&#45;&gt;Node36</title>
<path fill="none" stroke="midnightblue" d="M1214.36,-222.47C1266.9,-212.27 1345.61,-196.98 1394.33,-187.52"/>
<polygon fill="midnightblue" stroke="midnightblue" points="1213.37,-219.1 1204.22,-224.44 1214.71,-225.97 1213.37,-219.1"/>
</g>
<!-- Node38&#45;&gt;Node37 -->
<g id="edge56" class="edge">
<title>Node38&#45;&gt;Node37</title>
<path fill="none" stroke="midnightblue" d="M1604.25,-329.21C1628.26,-305.63 1672.65,-262.03 1691.42,-243.59"/>
<polygon fill="midnightblue" stroke="midnightblue" points="1601.64,-326.86 1596.96,-336.37 1606.55,-331.86 1601.64,-326.86"/>
</g>
<!-- Node39&#45;&gt;Node8 -->
<g id="edge58" class="edge">
<title>Node39&#45;&gt;Node8</title>
<path fill="none" stroke="midnightblue" d="M1811.81,-167.92C1656.72,-145.72 1484.47,-131.73 1406.42,-125.97"/>
<polygon fill="midnightblue" stroke="midnightblue" points="1811.6,-171.43 1822,-169.4 1812.61,-164.5 1811.6,-171.43"/>
</g>
<!-- Node39&#45;&gt;Node9 -->
<g id="edge59" class="edge">
<title>Node39&#45;&gt;Node9</title>
<path fill="none" stroke="midnightblue" d="M1860.17,-157.8C1860.17,-148.91 1860.17,-138.78 1860.17,-131.75"/>
<polygon fill="midnightblue" stroke="midnightblue" points="1856.67,-158.08 1860.17,-168.08 1863.67,-158.08 1856.67,-158.08"/>
</g>
<!-- Node39&#45;&gt;Node11 -->
<g id="edge60" class="edge">
<title>Node39&#45;&gt;Node11</title>
<path fill="none" stroke="midnightblue" d="M1812.03,-168C1590.56,-139.39 1531.78,-152.16 1313.17,-132 1310.11,-131.72 1306.98,-131.42 1303.83,-131.1"/>
<polygon fill="midnightblue" stroke="midnightblue" points="1811.64,-171.48 1822.01,-169.3 1812.55,-164.54 1811.64,-171.48"/>
</g>
<!-- Node41&#45;&gt;Node29 -->
<g id="edge65" class="edge">
<title>Node41&#45;&gt;Node29</title>
<path fill="none" stroke="midnightblue" d="M638.1,-440.83C678.49,-397.09 788.94,-277.48 819.97,-243.88"/>
<polygon fill="midnightblue" stroke="midnightblue" points="635.42,-438.58 631.21,-448.3 640.56,-443.33 635.42,-438.58"/>
</g>
<!-- Node43&#45;&gt;Node41 -->
<g id="edge68" class="edge">
<title>Node43&#45;&gt;Node41</title>
<path fill="none" stroke="midnightblue" d="M639.03,-494.69C634.99,-485.59 630.29,-475.01 627.06,-467.75"/>
<polygon fill="midnightblue" stroke="midnightblue" points="635.95,-496.37 643.21,-504.08 642.35,-493.52 635.95,-496.37"/>
</g>
<!-- Node44&#45;&gt;Node1 -->
<g id="edge71" class="edge">
<title>Node44&#45;&gt;Node1</title>
<path fill="none" stroke="midnightblue" d="M533.63,-533.69C534.28,-542.64 533.85,-552.93 532.34,-560.08"/>
<polygon fill="midnightblue" stroke="midnightblue" points="537.1,-533.2 532.3,-523.75 530.16,-534.13 537.1,-533.2"/>
</g>
<!-- Node44&#45;&gt;Node20 -->
<g id="edge70" class="edge">
<title>Node44&#45;&gt;Node20</title>
<path fill="none" stroke="midnightblue" d="M457.81,-503.97C344.56,-492.38 39.17,-496.09 39.17,-403 39.17,-403 39.17,-403 39.17,-345 39.17,-258.55 171.95,-239.94 237.04,-236.01"/>
<polygon fill="midnightblue" stroke="midnightblue" points="457.51,-507.45 467.84,-505.1 458.3,-500.5 457.51,-507.45"/>
</g>
<!-- Node44&#45;&gt;Node32 -->
<g id="edge72" class="edge">
<title>Node44&#45;&gt;Node32</title>
<path fill="none" stroke="midnightblue" d="M534.51,-495.17C541.52,-480.34 553.49,-459.83 570.17,-448 648.82,-392.24 1318.9,-275.88 1510.31,-243.51"/>
<polygon fill="midnightblue" stroke="midnightblue" points="531.3,-493.78 530.45,-504.34 537.7,-496.61 531.3,-493.78"/>
</g>
<!-- Node44&#45;&gt;Node41 -->
<g id="edge76" class="edge">
<title>Node44&#45;&gt;Node41</title>
<path fill="none" stroke="midnightblue" d="M551.75,-499.18C569.41,-489.24 592.69,-476.15 607.79,-467.65"/>
<polygon fill="midnightblue" stroke="midnightblue" points="549.6,-496.37 542.6,-504.32 553.03,-502.47 549.6,-496.37"/>
</g>
<!-- Node45 -->
<g id="node45" class="node">
<title>Node45</title>
<g id="a_node45"><a xlink:href="../../d1/d1f/ShiftRegisterOutRGB_8hpp.html" target="_top" xlink:title=" ">
<polygon fill="white" stroke="black" points="164.17,-448.5 164.17,-467.5 302.17,-467.5 302.17,-448.5 164.17,-448.5"/>
<text text-anchor="middle" x="233.17" y="-455.5" font-family="Helvetica,sans-Serif" font-size="10.00">ShiftRegisterOutRGB.hpp</text>
</a>
</g>
</g>
<!-- Node44&#45;&gt;Node45 -->
<g id="edge73" class="edge">
<title>Node44&#45;&gt;Node45</title>
<path fill="none" stroke="midnightblue" d="M470.55,-502.6C414.99,-492.4 331.28,-477.02 279.54,-467.52"/>
<polygon fill="midnightblue" stroke="midnightblue" points="470.12,-506.08 480.59,-504.44 471.38,-499.19 470.12,-506.08"/>
</g>
<!-- Node45&#45;&gt;Node16 -->
<g id="edge74" class="edge">
<title>Node45&#45;&gt;Node16</title>
<path fill="none" stroke="midnightblue" d="M230.58,-438.01C227.97,-424.24 222.87,-405.7 213.17,-392 145.44,-296.3 1.17,-352.25 1.17,-235 1.17,-235 1.17,-235 1.17,-177 1.17,-146.9 -3.52,-130.57 20.17,-112 58.6,-81.89 769.44,-70.62 996.84,-67.78"/>
<polygon fill="midnightblue" stroke="midnightblue" points="227.18,-438.93 232.24,-448.24 234.09,-437.81 227.18,-438.93"/>
</g>
<!-- Node46 -->
<g id="node46" class="node">
<title>Node46</title>
<g id="a_node46"><a xlink:href="../../db/d0b/ShiftRegisterOutRGB_8cpp.html" target="_top" xlink:title=" ">
<polygon fill="white" stroke="black" points="67.67,-392.5 67.67,-411.5 204.67,-411.5 204.67,-392.5 67.67,-392.5"/>
<text text-anchor="middle" x="136.17" y="-399.5" font-family="Helvetica,sans-Serif" font-size="10.00">ShiftRegisterOutRGB.cpp</text>
</a>
</g>
</g>
<!-- Node45&#45;&gt;Node46 -->
<g id="edge75" class="edge">
<title>Node45&#45;&gt;Node46</title>
<path fill="none" stroke="midnightblue" d="M208.84,-443.45C190.93,-433.48 167.12,-420.23 151.72,-411.65"/>
<polygon fill="midnightblue" stroke="midnightblue" points="207.15,-446.52 217.59,-448.32 210.55,-440.4 207.15,-446.52"/>
</g>
</g>
</svg>
