<?xml version="1.0" encoding="UTF-8" standalone="no"?>
<!DOCTYPE svg PUBLIC "-//W3C//DTD SVG 1.1//EN"
 "http://www.w3.org/Graphics/SVG/1.1/DTD/svg11.dtd">
<!-- Generated by graphviz version 2.43.0 (0)
 -->
<!-- Title: ArrayHelpers.hpp Pages: 1 -->
<svg width="632pt" height="588pt"
 viewBox="0.00 0.00 632.00 588.00" xmlns="http://www.w3.org/2000/svg" xmlns:xlink="http://www.w3.org/1999/xlink">
<g id="graph0" class="graph" transform="scale(1 1) rotate(0) translate(4 584)">
<title>ArrayHelpers.hpp</title>
<polygon fill="white" stroke="transparent" points="-4,4 -4,-584 628,-584 628,4 -4,4"/>
<!-- Node1 -->
<g id="node1" class="node">
<title>Node1</title>
<g id="a_node1"><a xlink:title=" ">
<polygon fill="#bfbfbf" stroke="black" points="434,-560.5 434,-579.5 535,-579.5 535,-560.5 434,-560.5"/>
<text text-anchor="middle" x="484.5" y="-567.5" font-family="Helvetica,sans-Serif" font-size="10.00">ArrayHelpers.hpp</text>
</a>
</g>
</g>
<!-- Node2 -->
<g id="node2" class="node">
<title>Node2</title>
<g id="a_node2"><a xlink:href="../../de/d76/Array_8hpp.html" target="_top" xlink:title=" ">
<polygon fill="white" stroke="black" points="117.5,-504.5 117.5,-523.5 179.5,-523.5 179.5,-504.5 117.5,-504.5"/>
<text text-anchor="middle" x="148.5" y="-511.5" font-family="Helvetica,sans-Serif" font-size="10.00">Array.hpp</text>
</a>
</g>
</g>
<!-- Node1&#45;&gt;Node2 -->
<g id="edge1" class="edge">
<title>Node1&#45;&gt;Node2</title>
<path fill="none" stroke="midnightblue" d="M433.83,-560.86C367.29,-550.16 251.67,-531.58 190.02,-521.67"/>
<polygon fill="midnightblue" stroke="midnightblue" points="190.31,-518.18 179.88,-520.04 189.2,-525.09 190.31,-518.18"/>
</g>
<!-- Node5 -->
<g id="node5" class="node">
<title>Node5</title>
<g id="a_node5"><a xlink:href="../../dd/d80/PrintStream_8hpp.html" target="_top" xlink:title=" ">
<polygon fill="white" stroke="black" points="451,-336.5 451,-355.5 624,-355.5 624,-336.5 451,-336.5"/>
<text text-anchor="middle" x="537.5" y="-343.5" font-family="Helvetica,sans-Serif" font-size="10.00">AH/PrintStream/PrintStream.hpp</text>
</a>
</g>
</g>
<!-- Node1&#45;&gt;Node5 -->
<g id="edge31" class="edge">
<title>Node1&#45;&gt;Node5</title>
<path fill="none" stroke="midnightblue" d="M486.58,-560.3C494.39,-527.56 522.13,-411.38 533.04,-365.67"/>
<polygon fill="midnightblue" stroke="midnightblue" points="536.46,-366.42 535.38,-355.88 529.65,-364.8 536.46,-366.42"/>
</g>
<!-- Node22 -->
<g id="node22" class="node">
<title>Node22</title>
<g id="a_node22"><a xlink:title=" ">
<polygon fill="white" stroke="#bfbfbf" points="513,-504.5 513,-523.5 614,-523.5 614,-504.5 513,-504.5"/>
<text text-anchor="middle" x="563.5" y="-511.5" font-family="Helvetica,sans-Serif" font-size="10.00">AH/STL/algorithm</text>
</a>
</g>
</g>
<!-- Node1&#45;&gt;Node22 -->
<g id="edge30" class="edge">
<title>Node1&#45;&gt;Node22</title>
<path fill="none" stroke="midnightblue" d="M497.19,-560.32C509.4,-551.98 528.08,-539.21 542.5,-529.35"/>
<polygon fill="midnightblue" stroke="midnightblue" points="544.56,-532.19 550.84,-523.65 540.61,-526.41 544.56,-532.19"/>
</g>
<!-- Node3 -->
<g id="node3" class="node">
<title>Node3</title>
<g id="a_node3"><a xlink:href="../../d1/d93/Error_8hpp.html" target="_top" xlink:title=" ">
<polygon fill="white" stroke="black" points="234.5,-448.5 234.5,-467.5 338.5,-467.5 338.5,-448.5 234.5,-448.5"/>
<text text-anchor="middle" x="286.5" y="-455.5" font-family="Helvetica,sans-Serif" font-size="10.00">AH/Error/Error.hpp</text>
</a>
</g>
</g>
<!-- Node2&#45;&gt;Node3 -->
<g id="edge2" class="edge">
<title>Node2&#45;&gt;Node3</title>
<path fill="none" stroke="midnightblue" d="M170.37,-504.44C193.28,-495.48 229.48,-481.31 255.37,-471.18"/>
<polygon fill="midnightblue" stroke="midnightblue" points="256.7,-474.42 264.74,-467.52 254.15,-467.9 256.7,-474.42"/>
</g>
<!-- Node12 -->
<g id="node12" class="node">
<title>Node12</title>
<g id="a_node12"><a xlink:title=" ">
<polygon fill="white" stroke="#bfbfbf" points="0,-112.5 0,-131.5 107,-131.5 107,-112.5 0,-112.5"/>
<text text-anchor="middle" x="53.5" y="-119.5" font-family="Helvetica,sans-Serif" font-size="10.00">AH/STL/type_traits</text>
</a>
</g>
</g>
<!-- Node2&#45;&gt;Node12 -->
<g id="edge28" class="edge">
<title>Node2&#45;&gt;Node12</title>
<path fill="none" stroke="midnightblue" d="M117.26,-509.95C88.51,-505.5 46.65,-494.6 21.5,-468 0.82,-446.13 2.5,-433.1 2.5,-403 2.5,-403 2.5,-403 2.5,-233 2.5,-197.24 24.95,-160.51 40.06,-139.84"/>
<polygon fill="midnightblue" stroke="midnightblue" points="42.93,-141.85 46.19,-131.77 37.36,-137.61 42.93,-141.85"/>
</g>
<!-- Node18 -->
<g id="node18" class="node">
<title>Node18</title>
<g id="a_node18"><a xlink:title=" ">
<polygon fill="white" stroke="#bfbfbf" points="59.5,-224.5 59.5,-243.5 115.5,-243.5 115.5,-224.5 59.5,-224.5"/>
<text text-anchor="middle" x="87.5" y="-231.5" font-family="Helvetica,sans-Serif" font-size="10.00">stddef.h</text>
</a>
</g>
</g>
<!-- Node2&#45;&gt;Node18 -->
<g id="edge29" class="edge">
<title>Node2&#45;&gt;Node18</title>
<path fill="none" stroke="midnightblue" d="M148.5,-504.44C148.5,-485.94 148.5,-440.81 148.5,-403 148.5,-403 148.5,-403 148.5,-345 148.5,-307.57 121.16,-270.96 103.09,-250.84"/>
<polygon fill="midnightblue" stroke="midnightblue" points="105.62,-248.43 96.24,-243.51 100.51,-253.21 105.62,-248.43"/>
</g>
<!-- Node21 -->
<g id="node21" class="node">
<title>Node21</title>
<g id="a_node21"><a xlink:title=" ">
<polygon fill="white" stroke="#bfbfbf" points="30.5,-448.5 30.5,-467.5 120.5,-467.5 120.5,-448.5 30.5,-448.5"/>
<text text-anchor="middle" x="75.5" y="-455.5" font-family="Helvetica,sans-Serif" font-size="10.00">AH/STL/iterator</text>
</a>
</g>
</g>
<!-- Node2&#45;&gt;Node21 -->
<g id="edge27" class="edge">
<title>Node2&#45;&gt;Node21</title>
<path fill="none" stroke="midnightblue" d="M136.77,-504.32C125.66,-496.11 108.76,-483.6 95.52,-473.81"/>
<polygon fill="midnightblue" stroke="midnightblue" points="97.56,-470.97 87.44,-467.83 93.4,-476.59 97.56,-470.97"/>
</g>
<!-- Node4 -->
<g id="node4" class="node">
<title>Node4</title>
<g id="a_node4"><a xlink:href="../../df/dee/Debug_8hpp.html" target="_top" xlink:title=" ">
<polygon fill="white" stroke="black" points="283,-392.5 283,-411.5 404,-411.5 404,-392.5 283,-392.5"/>
<text text-anchor="middle" x="343.5" y="-399.5" font-family="Helvetica,sans-Serif" font-size="10.00">AH/Debug/Debug.hpp</text>
</a>
</g>
</g>
<!-- Node3&#45;&gt;Node4 -->
<g id="edge3" class="edge">
<title>Node3&#45;&gt;Node4</title>
<path fill="none" stroke="midnightblue" d="M295.66,-448.32C304,-440.42 316.53,-428.55 326.68,-418.94"/>
<polygon fill="midnightblue" stroke="midnightblue" points="329.32,-421.25 334.18,-411.83 324.51,-416.17 329.32,-421.25"/>
</g>
<!-- Node4&#45;&gt;Node5 -->
<g id="edge4" class="edge">
<title>Node4&#45;&gt;Node5</title>
<path fill="none" stroke="midnightblue" d="M374.24,-392.44C407.44,-383.2 460.49,-368.44 497.06,-358.26"/>
<polygon fill="midnightblue" stroke="midnightblue" points="498.21,-361.57 506.9,-355.52 496.33,-354.83 498.21,-361.57"/>
</g>
<!-- Node13 -->
<g id="node13" class="node">
<title>Node13</title>
<g id="a_node13"><a xlink:href="../../d2/dd5/SettingsWrapper_8hpp.html" target="_top" xlink:title=" ">
<polygon fill="white" stroke="black" points="254.5,-336.5 254.5,-355.5 432.5,-355.5 432.5,-336.5 254.5,-336.5"/>
<text text-anchor="middle" x="343.5" y="-343.5" font-family="Helvetica,sans-Serif" font-size="10.00">AH/Settings/SettingsWrapper.hpp</text>
</a>
</g>
</g>
<!-- Node4&#45;&gt;Node13 -->
<g id="edge15" class="edge">
<title>Node4&#45;&gt;Node13</title>
<path fill="none" stroke="midnightblue" d="M338.33,-392.08C336.82,-384.93 336.39,-374.64 337.04,-365.69"/>
<polygon fill="midnightblue" stroke="midnightblue" points="340.52,-366.13 338.37,-355.75 333.58,-365.2 340.52,-366.13"/>
</g>
<!-- Node6 -->
<g id="node6" class="node">
<title>Node6</title>
<g id="a_node6"><a xlink:href="../../d6/ddf/Arduino-Wrapper_8h.html" target="_top" xlink:title=" ">
<polygon fill="white" stroke="black" points="150.5,-168.5 150.5,-187.5 274.5,-187.5 274.5,-168.5 150.5,-168.5"/>
<text text-anchor="middle" x="212.5" y="-175.5" font-family="Helvetica,sans-Serif" font-size="10.00">AH/Arduino&#45;Wrapper.h</text>
</a>
</g>
</g>
<!-- Node5&#45;&gt;Node6 -->
<g id="edge5" class="edge">
<title>Node5&#45;&gt;Node6</title>
<path fill="none" stroke="midnightblue" d="M533.34,-336.24C522.09,-313.57 488.68,-252.73 441.5,-224 415.59,-208.22 341.63,-195.5 284.7,-187.66"/>
<polygon fill="midnightblue" stroke="midnightblue" points="285.02,-184.18 274.64,-186.31 284.08,-191.11 285.02,-184.18"/>
</g>
<!-- Node11 -->
<g id="node11" class="node">
<title>Node11</title>
<g id="a_node11"><a xlink:href="../../dc/dc7/NamespaceSettings_8hpp.html" target="_top" xlink:title=" ">
<polygon fill="white" stroke="black" points="402,-56.5 402,-75.5 597,-75.5 597,-56.5 402,-56.5"/>
<text text-anchor="middle" x="499.5" y="-63.5" font-family="Helvetica,sans-Serif" font-size="10.00">AH/Settings/NamespaceSettings.hpp</text>
</a>
</g>
</g>
<!-- Node5&#45;&gt;Node11 -->
<g id="edge14" class="edge">
<title>Node5&#45;&gt;Node11</title>
<path fill="none" stroke="midnightblue" d="M542.78,-336.23C553.23,-318.04 575.5,-274.6 575.5,-235 575.5,-235 575.5,-235 575.5,-177 575.5,-137.28 541.54,-101.5 519.02,-82.15"/>
<polygon fill="midnightblue" stroke="midnightblue" points="520.98,-79.24 511.04,-75.57 516.52,-84.63 520.98,-79.24"/>
</g>
<!-- Node7 -->
<g id="node7" class="node">
<title>Node7</title>
<g id="a_node7"><a xlink:href="../../d7/d79/MinMaxFix_8hpp.html" target="_top" xlink:title=" ">
<polygon fill="white" stroke="black" points="230.5,-112.5 230.5,-131.5 366.5,-131.5 366.5,-112.5 230.5,-112.5"/>
<text text-anchor="middle" x="298.5" y="-119.5" font-family="Helvetica,sans-Serif" font-size="10.00">AH/Math/MinMaxFix.hpp</text>
</a>
</g>
</g>
<!-- Node6&#45;&gt;Node7 -->
<g id="edge6" class="edge">
<title>Node6&#45;&gt;Node7</title>
<path fill="none" stroke="midnightblue" d="M226.32,-168.32C239.73,-159.9 260.32,-146.97 276.09,-137.07"/>
<polygon fill="midnightblue" stroke="midnightblue" points="278.11,-139.94 284.72,-131.65 274.39,-134.01 278.11,-139.94"/>
</g>
<!-- Node10 -->
<g id="node10" class="node">
<title>Node10</title>
<g id="a_node10"><a xlink:title=" ">
<polygon fill="white" stroke="#bfbfbf" points="210,-0.5 210,-19.5 273,-19.5 273,-0.5 210,-0.5"/>
<text text-anchor="middle" x="241.5" y="-7.5" font-family="Helvetica,sans-Serif" font-size="10.00">Arduino.h</text>
</a>
</g>
</g>
<!-- Node6&#45;&gt;Node10 -->
<g id="edge13" class="edge">
<title>Node6&#45;&gt;Node10</title>
<path fill="none" stroke="midnightblue" d="M209.67,-168.46C203.43,-148.23 190.15,-96.03 204.5,-56 208.44,-45 216.36,-34.77 223.86,-26.85"/>
<polygon fill="midnightblue" stroke="midnightblue" points="226.39,-29.27 231.06,-19.76 221.48,-24.28 226.39,-29.27"/>
</g>
<!-- Node6&#45;&gt;Node12 -->
<g id="edge12" class="edge">
<title>Node6&#45;&gt;Node12</title>
<path fill="none" stroke="midnightblue" d="M187.31,-168.44C160.56,-159.36 118.1,-144.94 88.19,-134.78"/>
<polygon fill="midnightblue" stroke="midnightblue" points="89.17,-131.42 78.58,-131.52 86.92,-138.05 89.17,-131.42"/>
</g>
<!-- Node8 -->
<g id="node8" class="node">
<title>Node8</title>
<g id="a_node8"><a xlink:href="../../d6/d3b/FixArduinoMacros_8hpp.html" target="_top" xlink:title=" ">
<polygon fill="white" stroke="black" points="213.5,-56.5 213.5,-75.5 383.5,-75.5 383.5,-56.5 213.5,-56.5"/>
<text text-anchor="middle" x="298.5" y="-63.5" font-family="Helvetica,sans-Serif" font-size="10.00">AH/Math/FixArduinoMacros.hpp</text>
</a>
</g>
</g>
<!-- Node7&#45;&gt;Node8 -->
<g id="edge7" class="edge">
<title>Node7&#45;&gt;Node8</title>
<path fill="none" stroke="midnightblue" d="M298.5,-112.08C298.5,-105.01 298.5,-94.86 298.5,-85.99"/>
<polygon fill="midnightblue" stroke="midnightblue" points="302,-85.75 298.5,-75.75 295,-85.75 302,-85.75"/>
</g>
<!-- Node7&#45;&gt;Node11 -->
<g id="edge10" class="edge">
<title>Node7&#45;&gt;Node11</title>
<path fill="none" stroke="midnightblue" d="M330.35,-112.44C364.9,-103.16 420.18,-88.31 458.08,-78.13"/>
<polygon fill="midnightblue" stroke="midnightblue" points="459.05,-81.49 467.8,-75.52 457.23,-74.73 459.05,-81.49"/>
</g>
<!-- Node9 -->
<g id="node9" class="node">
<title>Node9</title>
<g id="a_node9"><a xlink:href="../../d1/d65/Warnings_8hpp.html" target="_top" xlink:title=" ">
<polygon fill="white" stroke="black" points="359,-0.5 359,-19.5 502,-19.5 502,-0.5 359,-0.5"/>
<text text-anchor="middle" x="430.5" y="-7.5" font-family="Helvetica,sans-Serif" font-size="10.00">AH/Settings/Warnings.hpp</text>
</a>
</g>
</g>
<!-- Node8&#45;&gt;Node9 -->
<g id="edge8" class="edge">
<title>Node8&#45;&gt;Node9</title>
<path fill="none" stroke="midnightblue" d="M319.42,-56.44C341.24,-47.52 375.65,-33.44 400.39,-23.32"/>
<polygon fill="midnightblue" stroke="midnightblue" points="401.75,-26.54 409.68,-19.52 399.1,-20.06 401.75,-26.54"/>
</g>
<!-- Node8&#45;&gt;Node10 -->
<g id="edge9" class="edge">
<title>Node8&#45;&gt;Node10</title>
<path fill="none" stroke="midnightblue" d="M289.34,-56.32C281,-48.42 268.47,-36.55 258.32,-26.94"/>
<polygon fill="midnightblue" stroke="midnightblue" points="260.49,-24.17 250.82,-19.83 255.68,-29.25 260.49,-24.17"/>
</g>
<!-- Node11&#45;&gt;Node9 -->
<g id="edge11" class="edge">
<title>Node11&#45;&gt;Node9</title>
<path fill="none" stroke="midnightblue" d="M488.41,-56.32C478.01,-48.18 462.24,-35.84 449.78,-26.09"/>
<polygon fill="midnightblue" stroke="midnightblue" points="451.82,-23.24 441.79,-19.83 447.51,-28.75 451.82,-23.24"/>
</g>
<!-- Node13&#45;&gt;Node4 -->
<g id="edge26" class="edge">
<title>Node13&#45;&gt;Node4</title>
<path fill="none" stroke="midnightblue" d="M348.63,-355.75C350.16,-362.86 350.6,-373.14 349.97,-382.1"/>
<polygon fill="midnightblue" stroke="midnightblue" points="346.49,-381.71 348.67,-392.08 353.43,-382.62 346.49,-381.71"/>
</g>
<!-- Node13&#45;&gt;Node11 -->
<g id="edge16" class="edge">
<title>Node13&#45;&gt;Node11</title>
<path fill="none" stroke="midnightblue" d="M380.08,-336.46C426.18,-323.27 499.5,-293.16 499.5,-235 499.5,-235 499.5,-235 499.5,-177 499.5,-144.95 499.5,-107.64 499.5,-85.75"/>
<polygon fill="midnightblue" stroke="midnightblue" points="503,-85.56 499.5,-75.56 496,-85.56 503,-85.56"/>
</g>
<!-- Node14 -->
<g id="node14" class="node">
<title>Node14</title>
<g id="a_node14"><a xlink:href="../../db/d02/Settings_8hpp.html" target="_top" xlink:title="All user settings and debugging options can be changed here.">
<polygon fill="white" stroke="black" points="368,-280.5 368,-299.5 445,-299.5 445,-280.5 368,-280.5"/>
<text text-anchor="middle" x="406.5" y="-287.5" font-family="Helvetica,sans-Serif" font-size="10.00">Settings.hpp</text>
</a>
</g>
</g>
<!-- Node13&#45;&gt;Node14 -->
<g id="edge17" class="edge">
<title>Node13&#45;&gt;Node14</title>
<path fill="none" stroke="midnightblue" d="M353.62,-336.32C363.03,-328.26 377.24,-316.08 388.57,-306.37"/>
<polygon fill="midnightblue" stroke="midnightblue" points="390.88,-309 396.19,-299.83 386.32,-303.68 390.88,-309"/>
</g>
<!-- Node20 -->
<g id="node20" class="node">
<title>Node20</title>
<g id="a_node20"><a xlink:href="../../d9/d98/TeensyUSBTypes_8hpp.html" target="_top" xlink:title=" ">
<polygon fill="white" stroke="black" points="177,-280.5 177,-299.5 350,-299.5 350,-280.5 177,-280.5"/>
<text text-anchor="middle" x="263.5" y="-287.5" font-family="Helvetica,sans-Serif" font-size="10.00">AH/Teensy/TeensyUSBTypes.hpp</text>
</a>
</g>
</g>
<!-- Node13&#45;&gt;Node20 -->
<g id="edge25" class="edge">
<title>Node13&#45;&gt;Node20</title>
<path fill="none" stroke="midnightblue" d="M330.65,-336.32C318.28,-327.98 299.37,-315.21 284.76,-305.35"/>
<polygon fill="midnightblue" stroke="midnightblue" points="286.57,-302.35 276.32,-299.65 282.65,-308.15 286.57,-302.35"/>
</g>
<!-- Node15 -->
<g id="node15" class="node">
<title>Node15</title>
<g id="a_node15"><a xlink:href="../../dc/d50/Frequency_8hpp.html" target="_top" xlink:title=" ">
<polygon fill="white" stroke="black" points="337.5,-168.5 337.5,-187.5 471.5,-187.5 471.5,-168.5 337.5,-168.5"/>
<text text-anchor="middle" x="404.5" y="-175.5" font-family="Helvetica,sans-Serif" font-size="10.00">AH/Types/Frequency.hpp</text>
</a>
</g>
</g>
<!-- Node14&#45;&gt;Node15 -->
<g id="edge18" class="edge">
<title>Node14&#45;&gt;Node15</title>
<path fill="none" stroke="midnightblue" d="M416.85,-280.15C429.71,-267.99 449.11,-245.24 441.5,-224 437.56,-213 429.64,-202.77 422.14,-194.85"/>
<polygon fill="midnightblue" stroke="midnightblue" points="424.52,-192.28 414.94,-187.76 419.61,-197.27 424.52,-192.28"/>
</g>
<!-- Node16 -->
<g id="node16" class="node">
<title>Node16</title>
<g id="a_node16"><a xlink:href="../../d7/d7c/ADCConfig_8hpp.html" target="_top" xlink:title="This file contains the platform&#45;specific ADC resolutions.">
<polygon fill="white" stroke="black" points="134,-224.5 134,-243.5 291,-243.5 291,-224.5 134,-224.5"/>
<text text-anchor="middle" x="212.5" y="-231.5" font-family="Helvetica,sans-Serif" font-size="10.00">AH/Hardware/ADCConfig.hpp</text>
</a>
</g>
</g>
<!-- Node14&#45;&gt;Node16 -->
<g id="edge20" class="edge">
<title>Node14&#45;&gt;Node16</title>
<path fill="none" stroke="midnightblue" d="M375.76,-280.44C342.56,-271.2 289.51,-256.44 252.94,-246.26"/>
<polygon fill="midnightblue" stroke="midnightblue" points="253.67,-242.83 243.1,-243.52 251.79,-249.57 253.67,-242.83"/>
</g>
<!-- Node17 -->
<g id="node17" class="node">
<title>Node17</title>
<g id="a_node17"><a xlink:title=" ">
<polygon fill="white" stroke="#bfbfbf" points="309,-224.5 309,-243.5 362,-243.5 362,-224.5 309,-224.5"/>
<text text-anchor="middle" x="335.5" y="-231.5" font-family="Helvetica,sans-Serif" font-size="10.00">limits.h</text>
</a>
</g>
</g>
<!-- Node14&#45;&gt;Node17 -->
<g id="edge22" class="edge">
<title>Node14&#45;&gt;Node17</title>
<path fill="none" stroke="midnightblue" d="M395.09,-280.32C384.39,-272.18 368.16,-259.84 355.34,-250.09"/>
<polygon fill="midnightblue" stroke="midnightblue" points="357.19,-247.1 347.11,-243.83 352.96,-252.67 357.19,-247.1"/>
</g>
<!-- Node14&#45;&gt;Node18 -->
<g id="edge23" class="edge">
<title>Node14&#45;&gt;Node18</title>
<path fill="none" stroke="midnightblue" d="M367.75,-281.62C364.62,-281.06 361.51,-280.51 358.5,-280 257.92,-262.84 229.43,-264.34 125.67,-244.09"/>
<polygon fill="midnightblue" stroke="midnightblue" points="126.21,-240.63 115.73,-242.13 124.86,-247.5 126.21,-240.63"/>
</g>
<!-- Node19 -->
<g id="node19" class="node">
<title>Node19</title>
<g id="a_node19"><a xlink:title=" ">
<polygon fill="white" stroke="#bfbfbf" points="380,-224.5 380,-243.5 433,-243.5 433,-224.5 380,-224.5"/>
<text text-anchor="middle" x="406.5" y="-231.5" font-family="Helvetica,sans-Serif" font-size="10.00">stdint.h</text>
</a>
</g>
</g>
<!-- Node14&#45;&gt;Node19 -->
<g id="edge24" class="edge">
<title>Node14&#45;&gt;Node19</title>
<path fill="none" stroke="midnightblue" d="M406.5,-280.08C406.5,-273.01 406.5,-262.86 406.5,-253.99"/>
<polygon fill="midnightblue" stroke="midnightblue" points="410,-253.75 406.5,-243.75 403,-253.75 410,-253.75"/>
</g>
<!-- Node15&#45;&gt;Node11 -->
<g id="edge19" class="edge">
<title>Node15&#45;&gt;Node11</title>
<path fill="none" stroke="midnightblue" d="M411.95,-168.37C427.77,-150.05 464.91,-107.05 485.37,-83.36"/>
<polygon fill="midnightblue" stroke="midnightblue" points="488.19,-85.45 492.08,-75.59 482.9,-80.87 488.19,-85.45"/>
</g>
<!-- Node16&#45;&gt;Node6 -->
<g id="edge21" class="edge">
<title>Node16&#45;&gt;Node6</title>
<path fill="none" stroke="midnightblue" d="M212.5,-224.08C212.5,-217.01 212.5,-206.86 212.5,-197.99"/>
<polygon fill="midnightblue" stroke="midnightblue" points="216,-197.75 212.5,-187.75 209,-197.75 216,-197.75"/>
</g>
</g>
</svg>
