<?xml version="1.0" encoding="UTF-8" standalone="no"?>
<!DOCTYPE svg PUBLIC "-//W3C//DTD SVG 1.1//EN"
 "http://www.w3.org/Graphics/SVG/1.1/DTD/svg11.dtd">
<!-- Generated by graphviz version 2.43.0 (0)
 -->
<!-- Title: ShiftRegisterOutRGB.cpp Pages: 1 -->
<svg width="706pt" height="476pt"
 viewBox="0.00 0.00 706.44 476.00" xmlns="http://www.w3.org/2000/svg" xmlns:xlink="http://www.w3.org/1999/xlink">
<g id="graph0" class="graph" transform="scale(1 1) rotate(0) translate(4 472)">
<title>ShiftRegisterOutRGB.cpp</title>
<polygon fill="white" stroke="transparent" points="-4,4 -4,-472 702.44,-472 702.44,4 -4,4"/>
<!-- Node1 -->
<g id="node1" class="node">
<title>Node1</title>
<g id="a_node1"><a xlink:title=" ">
<polygon fill="#bfbfbf" stroke="black" points="329.44,-448.5 329.44,-467.5 466.44,-467.5 466.44,-448.5 329.44,-448.5"/>
<text text-anchor="middle" x="397.94" y="-455.5" font-family="Helvetica,sans-Serif" font-size="10.00">ShiftRegisterOutRGB.cpp</text>
</a>
</g>
</g>
<!-- Node2 -->
<g id="node2" class="node">
<title>Node2</title>
<g id="a_node2"><a xlink:href="../../d1/d1f/ShiftRegisterOutRGB_8hpp.html" target="_top" xlink:title=" ">
<polygon fill="white" stroke="black" points="328.94,-392.5 328.94,-411.5 466.94,-411.5 466.94,-392.5 328.94,-392.5"/>
<text text-anchor="middle" x="397.94" y="-399.5" font-family="Helvetica,sans-Serif" font-size="10.00">ShiftRegisterOutRGB.hpp</text>
</a>
</g>
</g>
<!-- Node1&#45;&gt;Node2 -->
<g id="edge1" class="edge">
<title>Node1&#45;&gt;Node2</title>
<path fill="none" stroke="midnightblue" d="M397.94,-448.08C397.94,-441.01 397.94,-430.86 397.94,-421.99"/>
<polygon fill="midnightblue" stroke="midnightblue" points="401.44,-421.75 397.94,-411.75 394.44,-421.75 401.44,-421.75"/>
</g>
<!-- Node3 -->
<g id="node3" class="node">
<title>Node3</title>
<g id="a_node3"><a xlink:href="../../d2/dd5/SettingsWrapper_8hpp.html" target="_top" xlink:title=" ">
<polygon fill="white" stroke="black" points="250.94,-336.5 250.94,-355.5 428.94,-355.5 428.94,-336.5 250.94,-336.5"/>
<text text-anchor="middle" x="339.94" y="-343.5" font-family="Helvetica,sans-Serif" font-size="10.00">AH/Settings/SettingsWrapper.hpp</text>
</a>
</g>
</g>
<!-- Node2&#45;&gt;Node3 -->
<g id="edge2" class="edge">
<title>Node2&#45;&gt;Node3</title>
<path fill="none" stroke="midnightblue" d="M388.62,-392.32C380.05,-384.34 367.13,-372.31 356.75,-362.65"/>
<polygon fill="midnightblue" stroke="midnightblue" points="359.13,-360.09 349.43,-355.83 354.36,-365.21 359.13,-360.09"/>
</g>
<!-- Node16 -->
<g id="node16" class="node">
<title>Node16</title>
<g id="a_node16"><a xlink:title=" ">
<polygon fill="white" stroke="#bfbfbf" points="645.44,-224.5 645.44,-243.5 698.44,-243.5 698.44,-224.5 645.44,-224.5"/>
<text text-anchor="middle" x="671.94" y="-231.5" font-family="Helvetica,sans-Serif" font-size="10.00">stdint.h</text>
</a>
</g>
</g>
<!-- Node2&#45;&gt;Node16 -->
<g id="edge26" class="edge">
<title>Node2&#45;&gt;Node16</title>
<path fill="none" stroke="midnightblue" d="M412.29,-392.31C457.05,-365.19 594.4,-281.98 649.11,-248.83"/>
<polygon fill="midnightblue" stroke="midnightblue" points="651,-251.78 657.74,-243.61 647.37,-245.79 651,-251.78"/>
</g>
<!-- Node4 -->
<g id="node4" class="node">
<title>Node4</title>
<g id="a_node4"><a xlink:href="../../dc/dc7/NamespaceSettings_8hpp.html" target="_top" xlink:title=" ">
<polygon fill="white" stroke="black" points="95.44,-56.5 95.44,-75.5 230.44,-75.5 230.44,-56.5 95.44,-56.5"/>
<text text-anchor="middle" x="162.94" y="-63.5" font-family="Helvetica,sans-Serif" font-size="10.00">NamespaceSettings.hpp</text>
</a>
</g>
</g>
<!-- Node3&#45;&gt;Node4 -->
<g id="edge3" class="edge">
<title>Node3&#45;&gt;Node4</title>
<path fill="none" stroke="midnightblue" d="M250.68,-343.05C168.22,-339.4 53.57,-329.08 19.94,-300 -2.82,-280.31 0.94,-265.1 0.94,-235 0.94,-235 0.94,-235 0.94,-177 0.94,-121.93 65.8,-92.51 113.44,-78.33"/>
<polygon fill="midnightblue" stroke="midnightblue" points="114.65,-81.63 123.31,-75.53 112.74,-74.89 114.65,-81.63"/>
</g>
<!-- Node6 -->
<g id="node6" class="node">
<title>Node6</title>
<g id="a_node6"><a xlink:href="../../db/d02/Settings_8hpp.html" target="_top" xlink:title="All user settings and debugging options can be changed here.">
<polygon fill="white" stroke="black" points="220.44,-280.5 220.44,-299.5 297.44,-299.5 297.44,-280.5 220.44,-280.5"/>
<text text-anchor="middle" x="258.94" y="-287.5" font-family="Helvetica,sans-Serif" font-size="10.00">Settings.hpp</text>
</a>
</g>
</g>
<!-- Node3&#45;&gt;Node6 -->
<g id="edge5" class="edge">
<title>Node3&#45;&gt;Node6</title>
<path fill="none" stroke="midnightblue" d="M326.93,-336.32C314.41,-327.98 295.26,-315.21 280.47,-305.35"/>
<polygon fill="midnightblue" stroke="midnightblue" points="282.18,-302.29 271.92,-299.65 278.3,-308.11 282.18,-302.29"/>
</g>
<!-- Node17 -->
<g id="node17" class="node">
<title>Node17</title>
<g id="a_node17"><a xlink:href="../../d9/d98/TeensyUSBTypes_8hpp.html" target="_top" xlink:title=" ">
<polygon fill="white" stroke="black" points="29.44,-280.5 29.44,-299.5 202.44,-299.5 202.44,-280.5 29.44,-280.5"/>
<text text-anchor="middle" x="115.94" y="-287.5" font-family="Helvetica,sans-Serif" font-size="10.00">AH/Teensy/TeensyUSBTypes.hpp</text>
</a>
</g>
</g>
<!-- Node3&#45;&gt;Node17 -->
<g id="edge20" class="edge">
<title>Node3&#45;&gt;Node17</title>
<path fill="none" stroke="midnightblue" d="M304.45,-336.44C265.62,-327.08 203.28,-312.06 161.02,-301.87"/>
<polygon fill="midnightblue" stroke="midnightblue" points="161.81,-298.46 151.27,-299.52 160.17,-305.26 161.81,-298.46"/>
</g>
<!-- Node18 -->
<g id="node18" class="node">
<title>Node18</title>
<g id="a_node18"><a xlink:href="../../df/dee/Debug_8hpp.html" target="_top" xlink:title=" ">
<polygon fill="white" stroke="black" points="315.44,-280.5 315.44,-299.5 436.44,-299.5 436.44,-280.5 315.44,-280.5"/>
<text text-anchor="middle" x="375.94" y="-287.5" font-family="Helvetica,sans-Serif" font-size="10.00">AH/Debug/Debug.hpp</text>
</a>
</g>
</g>
<!-- Node3&#45;&gt;Node18 -->
<g id="edge21" class="edge">
<title>Node3&#45;&gt;Node18</title>
<path fill="none" stroke="midnightblue" d="M340.72,-336.08C344.23,-328.38 351.42,-317.03 358.55,-307.65"/>
<polygon fill="midnightblue" stroke="midnightblue" points="361.38,-309.72 364.98,-299.75 355.95,-305.3 361.38,-309.72"/>
</g>
<!-- Node5 -->
<g id="node5" class="node">
<title>Node5</title>
<g id="a_node5"><a xlink:href="../../d1/d65/Warnings_8hpp.html" target="_top" xlink:title=" ">
<polygon fill="white" stroke="black" points="189.44,-0.5 189.44,-19.5 332.44,-19.5 332.44,-0.5 189.44,-0.5"/>
<text text-anchor="middle" x="260.94" y="-7.5" font-family="Helvetica,sans-Serif" font-size="10.00">AH/Settings/Warnings.hpp</text>
</a>
</g>
</g>
<!-- Node4&#45;&gt;Node5 -->
<g id="edge4" class="edge">
<title>Node4&#45;&gt;Node5</title>
<path fill="none" stroke="midnightblue" d="M178.69,-56.32C194.26,-47.74 218.32,-34.49 236.4,-24.52"/>
<polygon fill="midnightblue" stroke="midnightblue" points="238.17,-27.55 245.23,-19.65 234.79,-21.42 238.17,-27.55"/>
</g>
<!-- Node7 -->
<g id="node7" class="node">
<title>Node7</title>
<g id="a_node7"><a xlink:href="../../dc/d50/Frequency_8hpp.html" target="_top" xlink:title=" ">
<polygon fill="white" stroke="black" points="37.94,-168.5 37.94,-187.5 171.94,-187.5 171.94,-168.5 37.94,-168.5"/>
<text text-anchor="middle" x="104.94" y="-175.5" font-family="Helvetica,sans-Serif" font-size="10.00">AH/Types/Frequency.hpp</text>
</a>
</g>
</g>
<!-- Node6&#45;&gt;Node7 -->
<g id="edge6" class="edge">
<title>Node6&#45;&gt;Node7</title>
<path fill="none" stroke="midnightblue" d="M221.34,-280.45C186.65,-271.86 138.52,-257.93 124.94,-244 112.98,-231.73 108.15,-212.47 106.21,-198.09"/>
<polygon fill="midnightblue" stroke="midnightblue" points="109.67,-197.45 105.2,-187.84 102.7,-198.14 109.67,-197.45"/>
</g>
<!-- Node8 -->
<g id="node8" class="node">
<title>Node8</title>
<g id="a_node8"><a xlink:href="../../d7/d7c/ADCConfig_8hpp.html" target="_top" xlink:title="This file contains the platform&#45;specific ADC resolutions.">
<polygon fill="white" stroke="black" points="470.44,-224.5 470.44,-243.5 627.44,-243.5 627.44,-224.5 470.44,-224.5"/>
<text text-anchor="middle" x="548.94" y="-231.5" font-family="Helvetica,sans-Serif" font-size="10.00">AH/Hardware/ADCConfig.hpp</text>
</a>
</g>
</g>
<!-- Node6&#45;&gt;Node8 -->
<g id="edge8" class="edge">
<title>Node6&#45;&gt;Node8</title>
<path fill="none" stroke="midnightblue" d="M297.45,-281.77C300.66,-281.17 303.86,-280.58 306.94,-280 370.67,-268.1 443.85,-254.5 492.91,-245.4"/>
<polygon fill="midnightblue" stroke="midnightblue" points="493.8,-248.79 502.99,-243.52 492.52,-241.91 493.8,-248.79"/>
</g>
<!-- Node14 -->
<g id="node14" class="node">
<title>Node14</title>
<g id="a_node14"><a xlink:title=" ">
<polygon fill="white" stroke="#bfbfbf" points="133.44,-224.5 133.44,-243.5 186.44,-243.5 186.44,-224.5 133.44,-224.5"/>
<text text-anchor="middle" x="159.94" y="-231.5" font-family="Helvetica,sans-Serif" font-size="10.00">limits.h</text>
</a>
</g>
</g>
<!-- Node6&#45;&gt;Node14 -->
<g id="edge17" class="edge">
<title>Node6&#45;&gt;Node14</title>
<path fill="none" stroke="midnightblue" d="M243.04,-280.32C227.3,-271.74 203,-258.49 184.73,-248.52"/>
<polygon fill="midnightblue" stroke="midnightblue" points="186.26,-245.37 175.81,-243.65 182.91,-251.52 186.26,-245.37"/>
</g>
<!-- Node15 -->
<g id="node15" class="node">
<title>Node15</title>
<g id="a_node15"><a xlink:title=" ">
<polygon fill="white" stroke="#bfbfbf" points="204.94,-224.5 204.94,-243.5 260.94,-243.5 260.94,-224.5 204.94,-224.5"/>
<text text-anchor="middle" x="232.94" y="-231.5" font-family="Helvetica,sans-Serif" font-size="10.00">stddef.h</text>
</a>
</g>
</g>
<!-- Node6&#45;&gt;Node15 -->
<g id="edge18" class="edge">
<title>Node6&#45;&gt;Node15</title>
<path fill="none" stroke="midnightblue" d="M254.65,-280.08C251.09,-272.69 245.92,-261.95 241.52,-252.81"/>
<polygon fill="midnightblue" stroke="midnightblue" points="244.65,-251.24 237.15,-243.75 238.34,-254.28 244.65,-251.24"/>
</g>
<!-- Node6&#45;&gt;Node16 -->
<g id="edge19" class="edge">
<title>Node6&#45;&gt;Node16</title>
<path fill="none" stroke="midnightblue" d="M297.67,-281.47C300.8,-280.95 303.92,-280.45 306.94,-280 449.61,-258.87 489.99,-269.91 635.1,-244.11"/>
<polygon fill="midnightblue" stroke="midnightblue" points="636.06,-247.5 645.28,-242.28 634.81,-240.61 636.06,-247.5"/>
</g>
<!-- Node7&#45;&gt;Node4 -->
<g id="edge7" class="edge">
<title>Node7&#45;&gt;Node4</title>
<path fill="none" stroke="midnightblue" d="M109.49,-168.37C118.98,-150.38 141.03,-108.55 153.65,-84.63"/>
<polygon fill="midnightblue" stroke="midnightblue" points="156.84,-86.07 158.41,-75.59 150.65,-82.8 156.84,-86.07"/>
</g>
<!-- Node9 -->
<g id="node9" class="node">
<title>Node9</title>
<g id="a_node9"><a xlink:href="../../d6/ddf/Arduino-Wrapper_8h.html" target="_top" xlink:title=" ">
<polygon fill="white" stroke="black" points="373.94,-168.5 373.94,-187.5 497.94,-187.5 497.94,-168.5 373.94,-168.5"/>
<text text-anchor="middle" x="435.94" y="-175.5" font-family="Helvetica,sans-Serif" font-size="10.00">AH/Arduino&#45;Wrapper.h</text>
</a>
</g>
</g>
<!-- Node8&#45;&gt;Node9 -->
<g id="edge9" class="edge">
<title>Node8&#45;&gt;Node9</title>
<path fill="none" stroke="midnightblue" d="M531.04,-224.44C512.69,-215.68 483.94,-201.94 462.85,-191.86"/>
<polygon fill="midnightblue" stroke="midnightblue" points="464.29,-188.67 453.76,-187.52 461.28,-194.99 464.29,-188.67"/>
</g>
<!-- Node10 -->
<g id="node10" class="node">
<title>Node10</title>
<g id="a_node10"><a xlink:href="../../d7/d79/MinMaxFix_8hpp.html" target="_top" xlink:title=" ">
<polygon fill="white" stroke="black" points="227.94,-112.5 227.94,-131.5 363.94,-131.5 363.94,-112.5 227.94,-112.5"/>
<text text-anchor="middle" x="295.94" y="-119.5" font-family="Helvetica,sans-Serif" font-size="10.00">AH/Math/MinMaxFix.hpp</text>
</a>
</g>
</g>
<!-- Node9&#45;&gt;Node10 -->
<g id="edge10" class="edge">
<title>Node9&#45;&gt;Node10</title>
<path fill="none" stroke="midnightblue" d="M413.76,-168.44C390.51,-159.48 353.79,-145.31 327.53,-135.18"/>
<polygon fill="midnightblue" stroke="midnightblue" points="328.61,-131.85 318.02,-131.52 326.09,-138.38 328.61,-131.85"/>
</g>
<!-- Node12 -->
<g id="node12" class="node">
<title>Node12</title>
<g id="a_node12"><a xlink:title=" ">
<polygon fill="white" stroke="#bfbfbf" points="375.44,-0.5 375.44,-19.5 438.44,-19.5 438.44,-0.5 375.44,-0.5"/>
<text text-anchor="middle" x="406.94" y="-7.5" font-family="Helvetica,sans-Serif" font-size="10.00">Arduino.h</text>
</a>
</g>
</g>
<!-- Node9&#45;&gt;Node12 -->
<g id="edge16" class="edge">
<title>Node9&#45;&gt;Node12</title>
<path fill="none" stroke="midnightblue" d="M456.79,-168.43C471.52,-161.13 490.15,-149.09 498.94,-132 503.01,-124.1 502.15,-120.29 498.94,-112 484.65,-75.09 449.91,-43.39 427.44,-25.79"/>
<polygon fill="midnightblue" stroke="midnightblue" points="429.3,-22.8 419.22,-19.54 425.07,-28.38 429.3,-22.8"/>
</g>
<!-- Node13 -->
<g id="node13" class="node">
<title>Node13</title>
<g id="a_node13"><a xlink:title=" ">
<polygon fill="white" stroke="#bfbfbf" points="382.44,-112.5 382.44,-131.5 489.44,-131.5 489.44,-112.5 382.44,-112.5"/>
<text text-anchor="middle" x="435.94" y="-119.5" font-family="Helvetica,sans-Serif" font-size="10.00">AH/STL/type_traits</text>
</a>
</g>
</g>
<!-- Node9&#45;&gt;Node13 -->
<g id="edge15" class="edge">
<title>Node9&#45;&gt;Node13</title>
<path fill="none" stroke="midnightblue" d="M435.94,-168.08C435.94,-161.01 435.94,-150.86 435.94,-141.99"/>
<polygon fill="midnightblue" stroke="midnightblue" points="439.44,-141.75 435.94,-131.75 432.44,-141.75 439.44,-141.75"/>
</g>
<!-- Node10&#45;&gt;Node4 -->
<g id="edge14" class="edge">
<title>Node10&#45;&gt;Node4</title>
<path fill="none" stroke="midnightblue" d="M274.87,-112.44C252.88,-103.52 218.21,-89.44 193.28,-79.32"/>
<polygon fill="midnightblue" stroke="midnightblue" points="194.5,-76.04 183.92,-75.52 191.87,-82.52 194.5,-76.04"/>
</g>
<!-- Node11 -->
<g id="node11" class="node">
<title>Node11</title>
<g id="a_node11"><a xlink:href="../../d6/d3b/FixArduinoMacros_8hpp.html" target="_top" xlink:title=" ">
<polygon fill="white" stroke="black" points="248.94,-56.5 248.94,-75.5 418.94,-75.5 418.94,-56.5 248.94,-56.5"/>
<text text-anchor="middle" x="333.94" y="-63.5" font-family="Helvetica,sans-Serif" font-size="10.00">AH/Math/FixArduinoMacros.hpp</text>
</a>
</g>
</g>
<!-- Node10&#45;&gt;Node11 -->
<g id="edge11" class="edge">
<title>Node10&#45;&gt;Node11</title>
<path fill="none" stroke="midnightblue" d="M302.22,-112.08C307.58,-104.46 315.46,-93.26 322.02,-83.94"/>
<polygon fill="midnightblue" stroke="midnightblue" points="324.89,-85.94 327.78,-75.75 319.17,-81.91 324.89,-85.94"/>
</g>
<!-- Node11&#45;&gt;Node5 -->
<g id="edge12" class="edge">
<title>Node11&#45;&gt;Node5</title>
<path fill="none" stroke="midnightblue" d="M322.21,-56.32C311.1,-48.11 294.2,-35.6 280.96,-25.81"/>
<polygon fill="midnightblue" stroke="midnightblue" points="283,-22.97 272.88,-19.83 278.84,-28.59 283,-22.97"/>
</g>
<!-- Node11&#45;&gt;Node12 -->
<g id="edge13" class="edge">
<title>Node11&#45;&gt;Node12</title>
<path fill="none" stroke="midnightblue" d="M345.67,-56.32C356.78,-48.11 373.68,-35.6 386.92,-25.81"/>
<polygon fill="midnightblue" stroke="midnightblue" points="389.04,-28.59 395,-19.83 384.88,-22.97 389.04,-28.59"/>
</g>
<!-- Node18&#45;&gt;Node3 -->
<g id="edge25" class="edge">
<title>Node18&#45;&gt;Node3</title>
<path fill="none" stroke="midnightblue" d="M375.24,-299.75C371.78,-307.4 364.62,-318.74 357.49,-328.14"/>
<polygon fill="midnightblue" stroke="midnightblue" points="354.63,-326.11 351.05,-336.08 360.07,-330.52 354.63,-326.11"/>
</g>
<!-- Node19 -->
<g id="node19" class="node">
<title>Node19</title>
<g id="a_node19"><a xlink:href="../../dd/d80/PrintStream_8hpp.html" target="_top" xlink:title=" ">
<polygon fill="white" stroke="black" points="279.44,-224.5 279.44,-243.5 452.44,-243.5 452.44,-224.5 279.44,-224.5"/>
<text text-anchor="middle" x="365.94" y="-231.5" font-family="Helvetica,sans-Serif" font-size="10.00">AH/PrintStream/PrintStream.hpp</text>
</a>
</g>
</g>
<!-- Node18&#45;&gt;Node19 -->
<g id="edge22" class="edge">
<title>Node18&#45;&gt;Node19</title>
<path fill="none" stroke="midnightblue" d="M374.29,-280.08C372.96,-272.93 371.06,-262.64 369.4,-253.69"/>
<polygon fill="midnightblue" stroke="midnightblue" points="372.82,-252.95 367.56,-243.75 365.94,-254.22 372.82,-252.95"/>
</g>
<!-- Node19&#45;&gt;Node4 -->
<g id="edge24" class="edge">
<title>Node19&#45;&gt;Node4</title>
<path fill="none" stroke="midnightblue" d="M350.84,-224.41C323.13,-208.27 262.98,-171.48 218.94,-132 202.38,-117.16 186.09,-97.52 175.39,-83.73"/>
<polygon fill="midnightblue" stroke="midnightblue" points="178.06,-81.45 169.21,-75.62 172.49,-85.69 178.06,-81.45"/>
</g>
<!-- Node19&#45;&gt;Node9 -->
<g id="edge23" class="edge">
<title>Node19&#45;&gt;Node9</title>
<path fill="none" stroke="midnightblue" d="M377.19,-224.32C387.74,-216.18 403.74,-203.84 416.38,-194.09"/>
<polygon fill="midnightblue" stroke="midnightblue" points="418.71,-196.71 424.49,-187.83 414.43,-191.17 418.71,-196.71"/>
</g>
</g>
</svg>
