<?xml version="1.0" encoding="UTF-8" standalone="no"?>
<!DOCTYPE svg PUBLIC "-//W3C//DTD SVG 1.1//EN"
 "http://www.w3.org/Graphics/SVG/1.1/DTD/svg11.dtd">
<!-- Generated by graphviz version 2.43.0 (0)
 -->
<!-- Title: ShiftRegisterOutBase.ipp Pages: 1 -->
<svg width="1278pt" height="946pt"
 viewBox="0.00 0.00 1278.12 946.00" xmlns="http://www.w3.org/2000/svg" xmlns:xlink="http://www.w3.org/1999/xlink">
<g id="graph0" class="graph" transform="scale(1 1) rotate(0) translate(4 942)">
<title>ShiftRegisterOutBase.ipp</title>
<polygon fill="white" stroke="transparent" points="-4,4 -4,-942 1274.12,-942 1274.12,4 -4,4"/>
<!-- Node1 -->
<g id="node1" class="node">
<title>Node1</title>
<g id="a_node1"><a xlink:title=" ">
<polygon fill="#bfbfbf" stroke="black" points="616,-918.5 616,-937.5 754,-937.5 754,-918.5 616,-918.5"/>
<text text-anchor="middle" x="685" y="-925.5" font-family="Helvetica,sans-Serif" font-size="10.00">ShiftRegisterOutBase.ipp</text>
</a>
</g>
</g>
<!-- Node2 -->
<g id="node2" class="node">
<title>Node2</title>
<g id="a_node2"><a xlink:href="../../dd/ddf/ExtendedInputOutput_8hpp.html" target="_top" xlink:title=" ">
<polygon fill="white" stroke="black" points="420.5,-694.5 420.5,-713.5 561.5,-713.5 561.5,-694.5 420.5,-694.5"/>
<text text-anchor="middle" x="491" y="-701.5" font-family="Helvetica,sans-Serif" font-size="10.00">ExtendedInputOutput.hpp</text>
</a>
</g>
</g>
<!-- Node1&#45;&gt;Node2 -->
<g id="edge1" class="edge">
<title>Node1&#45;&gt;Node2</title>
<path fill="none" stroke="midnightblue" d="M665.31,-918.46C648.28,-910.51 623.56,-897.56 605,-882 556.28,-841.15 547.09,-825.46 516,-770 507.68,-755.17 500.96,-737.02 496.59,-723.67"/>
<polygon fill="midnightblue" stroke="midnightblue" points="499.82,-722.26 493.49,-713.77 493.14,-724.35 499.82,-722.26"/>
</g>
<!-- Node29 -->
<g id="node29" class="node">
<title>Node29</title>
<g id="a_node29"><a xlink:href="../../d8/d93/ShiftRegisterOutBase_8hpp.html" target="_top" xlink:title=" ">
<polygon fill="white" stroke="black" points="614.5,-862.5 614.5,-881.5 755.5,-881.5 755.5,-862.5 614.5,-862.5"/>
<text text-anchor="middle" x="685" y="-869.5" font-family="Helvetica,sans-Serif" font-size="10.00">ShiftRegisterOutBase.hpp</text>
</a>
</g>
</g>
<!-- Node1&#45;&gt;Node29 -->
<g id="edge42" class="edge">
<title>Node1&#45;&gt;Node29</title>
<path fill="none" stroke="midnightblue" d="M679.83,-918.08C678.32,-910.93 677.89,-900.64 678.54,-891.69"/>
<polygon fill="midnightblue" stroke="midnightblue" points="682.02,-892.13 679.87,-881.75 675.08,-891.2 682.02,-892.13"/>
</g>
<!-- Node40 -->
<g id="node40" class="node">
<title>Node40</title>
<g id="a_node40"><a xlink:href="../../d1/d1f/ShiftRegisterOutRGB_8hpp.html" target="_top" xlink:title=" ">
<polygon fill="white" stroke="black" points="956,-392.5 956,-411.5 1094,-411.5 1094,-392.5 956,-392.5"/>
<text text-anchor="middle" x="1025" y="-399.5" font-family="Helvetica,sans-Serif" font-size="10.00">ShiftRegisterOutRGB.hpp</text>
</a>
</g>
</g>
<!-- Node1&#45;&gt;Node40 -->
<g id="edge69" class="edge">
<title>Node1&#45;&gt;Node40</title>
<path fill="none" stroke="midnightblue" d="M754.08,-927.93C905.45,-928.11 1253,-917.57 1253,-817 1253,-817 1253,-817 1253,-513 1253,-445.07 1169.88,-419.07 1104.02,-409.13"/>
<polygon fill="midnightblue" stroke="midnightblue" points="1104.42,-405.65 1094.03,-407.72 1103.44,-412.58 1104.42,-405.65"/>
</g>
<!-- Node3 -->
<g id="node3" class="node">
<title>Node3</title>
<g id="a_node3"><a xlink:href="../../d2/d3c/Arduino-Hardware-Types_8hpp.html" target="_top" xlink:title=" ">
<polygon fill="white" stroke="black" points="430,-627.5 430,-657.5 552,-657.5 552,-627.5 430,-627.5"/>
<text text-anchor="start" x="438" y="-645.5" font-family="Helvetica,sans-Serif" font-size="10.00">AH/Hardware/Arduino</text>
<text text-anchor="middle" x="491" y="-634.5" font-family="Helvetica,sans-Serif" font-size="10.00">&#45;Hardware&#45;Types.hpp</text>
</a>
</g>
</g>
<!-- Node2&#45;&gt;Node3 -->
<g id="edge2" class="edge">
<title>Node2&#45;&gt;Node3</title>
<path fill="none" stroke="midnightblue" d="M491,-694.48C491,-687.47 491,-677.19 491,-667.7"/>
<polygon fill="midnightblue" stroke="midnightblue" points="494.5,-667.52 491,-657.52 487.5,-667.52 494.5,-667.52"/>
</g>
<!-- Node14 -->
<g id="node14" class="node">
<title>Node14</title>
<g id="a_node14"><a xlink:href="../../dc/dc7/NamespaceSettings_8hpp.html" target="_top" xlink:title=" ">
<polygon fill="white" stroke="black" points="535.5,-56.5 535.5,-75.5 730.5,-75.5 730.5,-56.5 535.5,-56.5"/>
<text text-anchor="middle" x="633" y="-63.5" font-family="Helvetica,sans-Serif" font-size="10.00">AH/Settings/NamespaceSettings.hpp</text>
</a>
</g>
</g>
<!-- Node2&#45;&gt;Node14 -->
<g id="edge41" class="edge">
<title>Node2&#45;&gt;Node14</title>
<path fill="none" stroke="midnightblue" d="M420.39,-699.48C284.52,-690.76 0,-662.27 0,-576.5 0,-576.5 0,-576.5 0,-177 0,-110.81 70.22,-129.71 134,-112 205.08,-92.27 401.01,-78.93 525.15,-72.17"/>
<polygon fill="midnightblue" stroke="midnightblue" points="525.65,-75.65 535.45,-71.62 525.27,-68.66 525.65,-75.65"/>
</g>
<!-- Node28 -->
<g id="node28" class="node">
<title>Node28</title>
<g id="a_node28"><a xlink:title=" ">
<polygon fill="white" stroke="#bfbfbf" points="324.5,-633 324.5,-652 411.5,-652 411.5,-633 324.5,-633"/>
<text text-anchor="middle" x="368" y="-640" font-family="Helvetica,sans-Serif" font-size="10.00">AH/STL/climits</text>
</a>
</g>
</g>
<!-- Node2&#45;&gt;Node28 -->
<g id="edge40" class="edge">
<title>Node2&#45;&gt;Node28</title>
<path fill="none" stroke="midnightblue" d="M473.38,-694.48C452.83,-684.53 418.64,-667.99 394.79,-656.46"/>
<polygon fill="midnightblue" stroke="midnightblue" points="396.12,-653.21 385.59,-652.01 393.07,-659.51 396.12,-653.21"/>
</g>
<!-- Node4 -->
<g id="node4" class="node">
<title>Node4</title>
<g id="a_node4"><a xlink:href="../../d4/d35/Hardware-Types_8hpp.html" target="_top" xlink:title=" ">
<polygon fill="white" stroke="black" points="396.5,-560.5 396.5,-590.5 527.5,-590.5 527.5,-560.5 396.5,-560.5"/>
<text text-anchor="start" x="404.5" y="-578.5" font-family="Helvetica,sans-Serif" font-size="10.00">AH/Hardware/Hardware</text>
<text text-anchor="middle" x="462" y="-567.5" font-family="Helvetica,sans-Serif" font-size="10.00">&#45;Types.hpp</text>
</a>
</g>
</g>
<!-- Node3&#45;&gt;Node4 -->
<g id="edge3" class="edge">
<title>Node3&#45;&gt;Node4</title>
<path fill="none" stroke="midnightblue" d="M484.71,-627.4C481.14,-619.39 476.57,-609.16 472.47,-599.98"/>
<polygon fill="midnightblue" stroke="midnightblue" points="475.55,-598.28 468.28,-590.58 469.16,-601.13 475.55,-598.28"/>
</g>
<!-- Node9 -->
<g id="node9" class="node">
<title>Node9</title>
<g id="a_node9"><a xlink:href="../../d6/ddf/Arduino-Wrapper_8h.html" target="_top" xlink:title=" ">
<polygon fill="white" stroke="black" points="1011,-168.5 1011,-187.5 1135,-187.5 1135,-168.5 1011,-168.5"/>
<text text-anchor="middle" x="1073" y="-175.5" font-family="Helvetica,sans-Serif" font-size="10.00">AH/Arduino&#45;Wrapper.h</text>
</a>
</g>
</g>
<!-- Node3&#45;&gt;Node9 -->
<g id="edge39" class="edge">
<title>Node3&#45;&gt;Node9</title>
<path fill="none" stroke="midnightblue" d="M552.01,-638.6C721.79,-629 1192.25,-591.49 1267,-468 1271.6,-460.4 1270.28,-456.26 1267,-448 1244.29,-390.71 1172,-408.63 1172,-347 1172,-347 1172,-347 1172,-289 1172,-245.18 1128.06,-210.93 1098.73,-192.94"/>
<polygon fill="midnightblue" stroke="midnightblue" points="1100.19,-189.74 1089.79,-187.68 1096.64,-195.77 1100.19,-189.74"/>
</g>
<!-- Node25 -->
<g id="node25" class="node">
<title>Node25</title>
<g id="a_node25"><a xlink:href="../../d0/db1/FunctionTraits_8hpp.html" target="_top" xlink:title=" ">
<polygon fill="white" stroke="black" points="86.5,-566 86.5,-585 239.5,-585 239.5,-566 86.5,-566"/>
<text text-anchor="middle" x="163" y="-573" font-family="Helvetica,sans-Serif" font-size="10.00">AH/Types/FunctionTraits.hpp</text>
</a>
</g>
</g>
<!-- Node3&#45;&gt;Node25 -->
<g id="edge35" class="edge">
<title>Node3&#45;&gt;Node25</title>
<path fill="none" stroke="midnightblue" d="M429.81,-628.97C426.5,-628.3 423.21,-627.64 420,-627 349.99,-612.97 269.17,-597.15 217.14,-587.02"/>
<polygon fill="midnightblue" stroke="midnightblue" points="217.62,-583.54 207.13,-585.07 216.28,-590.42 217.62,-583.54"/>
</g>
<!-- Node5 -->
<g id="node5" class="node">
<title>Node5</title>
<g id="a_node5"><a xlink:href="../../de/d76/Array_8hpp.html" target="_top" xlink:title=" ">
<polygon fill="white" stroke="black" points="394.5,-504.5 394.5,-523.5 529.5,-523.5 529.5,-504.5 394.5,-504.5"/>
<text text-anchor="middle" x="462" y="-511.5" font-family="Helvetica,sans-Serif" font-size="10.00">AH/Containers/Array.hpp</text>
</a>
</g>
</g>
<!-- Node4&#45;&gt;Node5 -->
<g id="edge4" class="edge">
<title>Node4&#45;&gt;Node5</title>
<path fill="none" stroke="midnightblue" d="M462,-560.4C462,-552.47 462,-542.46 462,-533.86"/>
<polygon fill="midnightblue" stroke="midnightblue" points="465.5,-533.66 462,-523.66 458.5,-533.66 465.5,-533.66"/>
</g>
<!-- Node4&#45;&gt;Node14 -->
<g id="edge33" class="edge">
<title>Node4&#45;&gt;Node14</title>
<path fill="none" stroke="midnightblue" d="M396.25,-560.52C344.83,-545.28 282,-515.16 282,-459 282,-459 282,-459 282,-177 282,-121.92 441.38,-91.12 545.34,-76.89"/>
<polygon fill="midnightblue" stroke="midnightblue" points="546.09,-80.32 555.54,-75.53 545.16,-73.39 546.09,-80.32"/>
</g>
<!-- Node22 -->
<g id="node22" class="node">
<title>Node22</title>
<g id="a_node22"><a xlink:title=" ">
<polygon fill="white" stroke="#bfbfbf" points="877.5,-224.5 877.5,-243.5 930.5,-243.5 930.5,-224.5 877.5,-224.5"/>
<text text-anchor="middle" x="904" y="-231.5" font-family="Helvetica,sans-Serif" font-size="10.00">stdint.h</text>
</a>
</g>
</g>
<!-- Node4&#45;&gt;Node22 -->
<g id="edge34" class="edge">
<title>Node4&#45;&gt;Node22</title>
<path fill="none" stroke="midnightblue" d="M426.01,-560.35C410.45,-552.22 393.81,-540.32 385,-524 371.4,-498.82 405.26,-453.34 410,-448 422.07,-434.4 674.04,-286.57 691,-280 762.93,-252.12 787.77,-260.96 867.32,-244.01"/>
<polygon fill="midnightblue" stroke="midnightblue" points="868.28,-247.39 877.3,-241.82 866.78,-240.55 868.28,-247.39"/>
</g>
<!-- Node6 -->
<g id="node6" class="node">
<title>Node6</title>
<g id="a_node6"><a xlink:href="../../d1/d93/Error_8hpp.html" target="_top" xlink:title=" ">
<polygon fill="white" stroke="black" points="576,-448.5 576,-467.5 680,-467.5 680,-448.5 576,-448.5"/>
<text text-anchor="middle" x="628" y="-455.5" font-family="Helvetica,sans-Serif" font-size="10.00">AH/Error/Error.hpp</text>
</a>
</g>
</g>
<!-- Node5&#45;&gt;Node6 -->
<g id="edge5" class="edge">
<title>Node5&#45;&gt;Node6</title>
<path fill="none" stroke="midnightblue" d="M488.3,-504.44C516.35,-495.32 560.94,-480.81 592.18,-470.65"/>
<polygon fill="midnightblue" stroke="midnightblue" points="593.39,-473.94 601.82,-467.52 591.23,-467.28 593.39,-473.94"/>
</g>
<!-- Node15 -->
<g id="node15" class="node">
<title>Node15</title>
<g id="a_node15"><a xlink:title=" ">
<polygon fill="white" stroke="#bfbfbf" points="402.5,-112.5 402.5,-131.5 509.5,-131.5 509.5,-112.5 402.5,-112.5"/>
<text text-anchor="middle" x="456" y="-119.5" font-family="Helvetica,sans-Serif" font-size="10.00">AH/STL/type_traits</text>
</a>
</g>
</g>
<!-- Node5&#45;&gt;Node15 -->
<g id="edge31" class="edge">
<title>Node5&#45;&gt;Node15</title>
<path fill="none" stroke="midnightblue" d="M450.86,-504.18C417.38,-476.59 320,-387.99 320,-291 320,-291 320,-291 320,-233 320,-182.08 378.34,-150.67 418.6,-135.06"/>
<polygon fill="midnightblue" stroke="midnightblue" points="419.99,-138.28 428.15,-131.52 417.56,-131.72 419.99,-138.28"/>
</g>
<!-- Node21 -->
<g id="node21" class="node">
<title>Node21</title>
<g id="a_node21"><a xlink:title=" ">
<polygon fill="white" stroke="#bfbfbf" points="406,-224.5 406,-243.5 462,-243.5 462,-224.5 406,-224.5"/>
<text text-anchor="middle" x="434" y="-231.5" font-family="Helvetica,sans-Serif" font-size="10.00">stddef.h</text>
</a>
</g>
</g>
<!-- Node5&#45;&gt;Node21 -->
<g id="edge32" class="edge">
<title>Node5&#45;&gt;Node21</title>
<path fill="none" stroke="midnightblue" d="M449.79,-504.24C439.65,-496.14 425.96,-483.11 420,-468 389.36,-390.27 407.45,-362.61 420,-280 421.37,-271 424.19,-261.33 426.95,-253.26"/>
<polygon fill="midnightblue" stroke="midnightblue" points="430.27,-254.37 430.4,-243.78 423.69,-251.98 430.27,-254.37"/>
</g>
<!-- Node24 -->
<g id="node24" class="node">
<title>Node24</title>
<g id="a_node24"><a xlink:title=" ">
<polygon fill="white" stroke="#bfbfbf" points="525,-392.5 525,-411.5 615,-411.5 615,-392.5 525,-392.5"/>
<text text-anchor="middle" x="570" y="-399.5" font-family="Helvetica,sans-Serif" font-size="10.00">AH/STL/iterator</text>
</a>
</g>
</g>
<!-- Node5&#45;&gt;Node24 -->
<g id="edge30" class="edge">
<title>Node5&#45;&gt;Node24</title>
<path fill="none" stroke="midnightblue" d="M470.47,-504.37C488.61,-485.89 531.42,-442.29 554.54,-418.74"/>
<polygon fill="midnightblue" stroke="midnightblue" points="557.06,-421.18 561.56,-411.59 552.06,-416.28 557.06,-421.18"/>
</g>
<!-- Node7 -->
<g id="node7" class="node">
<title>Node7</title>
<g id="a_node7"><a xlink:href="../../df/dee/Debug_8hpp.html" target="_top" xlink:title=" ">
<polygon fill="white" stroke="black" points="694.5,-392.5 694.5,-411.5 815.5,-411.5 815.5,-392.5 694.5,-392.5"/>
<text text-anchor="middle" x="755" y="-399.5" font-family="Helvetica,sans-Serif" font-size="10.00">AH/Debug/Debug.hpp</text>
</a>
</g>
</g>
<!-- Node6&#45;&gt;Node7 -->
<g id="edge6" class="edge">
<title>Node6&#45;&gt;Node7</title>
<path fill="none" stroke="midnightblue" d="M648.12,-448.44C669.02,-439.56 701.93,-425.56 725.72,-415.45"/>
<polygon fill="midnightblue" stroke="midnightblue" points="727.14,-418.65 734.97,-411.52 724.4,-412.21 727.14,-418.65"/>
</g>
<!-- Node8 -->
<g id="node8" class="node">
<title>Node8</title>
<g id="a_node8"><a xlink:href="../../dd/d80/PrintStream_8hpp.html" target="_top" xlink:title=" ">
<polygon fill="white" stroke="black" points="970.5,-336.5 970.5,-355.5 1143.5,-355.5 1143.5,-336.5 970.5,-336.5"/>
<text text-anchor="middle" x="1057" y="-343.5" font-family="Helvetica,sans-Serif" font-size="10.00">AH/PrintStream/PrintStream.hpp</text>
</a>
</g>
</g>
<!-- Node7&#45;&gt;Node8 -->
<g id="edge7" class="edge">
<title>Node7&#45;&gt;Node8</title>
<path fill="none" stroke="midnightblue" d="M802.85,-392.44C856.2,-382.9 942.44,-367.48 999.44,-357.29"/>
<polygon fill="midnightblue" stroke="midnightblue" points="1000.14,-360.72 1009.37,-355.52 998.91,-353.83 1000.14,-360.72"/>
</g>
<!-- Node16 -->
<g id="node16" class="node">
<title>Node16</title>
<g id="a_node16"><a xlink:href="../../d2/dd5/SettingsWrapper_8hpp.html" target="_top" xlink:title=" ">
<polygon fill="white" stroke="black" points="666,-336.5 666,-355.5 844,-355.5 844,-336.5 666,-336.5"/>
<text text-anchor="middle" x="755" y="-343.5" font-family="Helvetica,sans-Serif" font-size="10.00">AH/Settings/SettingsWrapper.hpp</text>
</a>
</g>
</g>
<!-- Node7&#45;&gt;Node16 -->
<g id="edge18" class="edge">
<title>Node7&#45;&gt;Node16</title>
<path fill="none" stroke="midnightblue" d="M749.83,-392.08C748.32,-384.93 747.89,-374.64 748.54,-365.69"/>
<polygon fill="midnightblue" stroke="midnightblue" points="752.02,-366.13 749.87,-355.75 745.08,-365.2 752.02,-366.13"/>
</g>
<!-- Node8&#45;&gt;Node9 -->
<g id="edge8" class="edge">
<title>Node8&#45;&gt;Node9</title>
<path fill="none" stroke="midnightblue" d="M1057.86,-336.08C1060.38,-309.95 1067.77,-233.21 1071.21,-197.58"/>
<polygon fill="midnightblue" stroke="midnightblue" points="1074.7,-197.86 1072.17,-187.57 1067.73,-197.19 1074.7,-197.86"/>
</g>
<!-- Node8&#45;&gt;Node14 -->
<g id="edge17" class="edge">
<title>Node8&#45;&gt;Node14</title>
<path fill="none" stroke="midnightblue" d="M1045.31,-336.47C1023.76,-319.66 980,-279.99 980,-235 980,-235 980,-235 980,-177 980,-122.26 821.11,-91.23 718.36,-76.89"/>
<polygon fill="midnightblue" stroke="midnightblue" points="718.68,-73.4 708.29,-75.52 717.73,-80.34 718.68,-73.4"/>
</g>
<!-- Node10 -->
<g id="node10" class="node">
<title>Node10</title>
<g id="a_node10"><a xlink:href="../../d7/d79/MinMaxFix_8hpp.html" target="_top" xlink:title=" ">
<polygon fill="white" stroke="black" points="1008,-112.5 1008,-131.5 1144,-131.5 1144,-112.5 1008,-112.5"/>
<text text-anchor="middle" x="1076" y="-119.5" font-family="Helvetica,sans-Serif" font-size="10.00">AH/Math/MinMaxFix.hpp</text>
</a>
</g>
</g>
<!-- Node9&#45;&gt;Node10 -->
<g id="edge9" class="edge">
<title>Node9&#45;&gt;Node10</title>
<path fill="none" stroke="midnightblue" d="M1073.5,-168.08C1073.89,-161.01 1074.45,-150.86 1074.95,-141.99"/>
<polygon fill="midnightblue" stroke="midnightblue" points="1078.45,-141.93 1075.51,-131.75 1071.46,-141.54 1078.45,-141.93"/>
</g>
<!-- Node13 -->
<g id="node13" class="node">
<title>Node13</title>
<g id="a_node13"><a xlink:title=" ">
<polygon fill="white" stroke="#bfbfbf" points="1149.5,-0.5 1149.5,-19.5 1212.5,-19.5 1212.5,-0.5 1149.5,-0.5"/>
<text text-anchor="middle" x="1181" y="-7.5" font-family="Helvetica,sans-Serif" font-size="10.00">Arduino.h</text>
</a>
</g>
</g>
<!-- Node9&#45;&gt;Node13 -->
<g id="edge16" class="edge">
<title>Node9&#45;&gt;Node13</title>
<path fill="none" stroke="midnightblue" d="M1098.79,-168.37C1116.42,-161.22 1139.03,-149.4 1153,-132 1176.88,-102.26 1181.13,-55.84 1181.47,-30"/>
<polygon fill="midnightblue" stroke="midnightblue" points="1184.97,-29.68 1181.41,-19.7 1177.97,-29.72 1184.97,-29.68"/>
</g>
<!-- Node9&#45;&gt;Node15 -->
<g id="edge15" class="edge">
<title>Node9&#45;&gt;Node15</title>
<path fill="none" stroke="midnightblue" d="M1010.73,-171.55C892.99,-161.25 638.91,-139.01 519.92,-128.59"/>
<polygon fill="midnightblue" stroke="midnightblue" points="520.13,-125.1 509.86,-127.71 519.52,-132.07 520.13,-125.1"/>
</g>
<!-- Node11 -->
<g id="node11" class="node">
<title>Node11</title>
<g id="a_node11"><a xlink:href="../../d6/d3b/FixArduinoMacros_8hpp.html" target="_top" xlink:title=" ">
<polygon fill="white" stroke="black" points="991,-56.5 991,-75.5 1161,-75.5 1161,-56.5 991,-56.5"/>
<text text-anchor="middle" x="1076" y="-63.5" font-family="Helvetica,sans-Serif" font-size="10.00">AH/Math/FixArduinoMacros.hpp</text>
</a>
</g>
</g>
<!-- Node10&#45;&gt;Node11 -->
<g id="edge10" class="edge">
<title>Node10&#45;&gt;Node11</title>
<path fill="none" stroke="midnightblue" d="M1076,-112.08C1076,-105.01 1076,-94.86 1076,-85.99"/>
<polygon fill="midnightblue" stroke="midnightblue" points="1079.5,-85.75 1076,-75.75 1072.5,-85.75 1079.5,-85.75"/>
</g>
<!-- Node10&#45;&gt;Node14 -->
<g id="edge13" class="edge">
<title>Node10&#45;&gt;Node14</title>
<path fill="none" stroke="midnightblue" d="M1007.75,-112.68C928.22,-102.99 796.99,-86.99 712.81,-76.73"/>
<polygon fill="midnightblue" stroke="midnightblue" points="713.14,-73.24 702.79,-75.51 712.29,-80.19 713.14,-73.24"/>
</g>
<!-- Node12 -->
<g id="node12" class="node">
<title>Node12</title>
<g id="a_node12"><a xlink:href="../../d1/d65/Warnings_8hpp.html" target="_top" xlink:title=" ">
<polygon fill="white" stroke="black" points="826.5,-0.5 826.5,-19.5 969.5,-19.5 969.5,-0.5 826.5,-0.5"/>
<text text-anchor="middle" x="898" y="-7.5" font-family="Helvetica,sans-Serif" font-size="10.00">AH/Settings/Warnings.hpp</text>
</a>
</g>
</g>
<!-- Node11&#45;&gt;Node12 -->
<g id="edge11" class="edge">
<title>Node11&#45;&gt;Node12</title>
<path fill="none" stroke="midnightblue" d="M1047.8,-56.44C1017.59,-47.28 969.49,-32.69 935.97,-22.52"/>
<polygon fill="midnightblue" stroke="midnightblue" points="936.66,-19.07 926.07,-19.52 934.63,-25.77 936.66,-19.07"/>
</g>
<!-- Node11&#45;&gt;Node13 -->
<g id="edge12" class="edge">
<title>Node11&#45;&gt;Node13</title>
<path fill="none" stroke="midnightblue" d="M1092.87,-56.32C1109.71,-47.66 1135.81,-34.24 1155.24,-24.25"/>
<polygon fill="midnightblue" stroke="midnightblue" points="1156.88,-27.34 1164.17,-19.65 1153.68,-21.12 1156.88,-27.34"/>
</g>
<!-- Node14&#45;&gt;Node12 -->
<g id="edge14" class="edge">
<title>Node14&#45;&gt;Node12</title>
<path fill="none" stroke="midnightblue" d="M674.99,-56.44C721.41,-46.98 796.23,-31.74 846.24,-21.55"/>
<polygon fill="midnightblue" stroke="midnightblue" points="847.11,-24.94 856.21,-19.52 845.71,-18.08 847.11,-24.94"/>
</g>
<!-- Node16&#45;&gt;Node7 -->
<g id="edge29" class="edge">
<title>Node16&#45;&gt;Node7</title>
<path fill="none" stroke="midnightblue" d="M760.13,-355.75C761.66,-362.86 762.1,-373.14 761.47,-382.1"/>
<polygon fill="midnightblue" stroke="midnightblue" points="757.99,-381.71 760.17,-392.08 764.93,-382.62 757.99,-381.71"/>
</g>
<!-- Node16&#45;&gt;Node14 -->
<g id="edge19" class="edge">
<title>Node16&#45;&gt;Node14</title>
<path fill="none" stroke="midnightblue" d="M683.8,-336.49C634.78,-329.25 575.32,-317.24 557,-300 535.08,-279.38 538,-265.1 538,-235 538,-235 538,-235 538,-177 538,-133.74 580.61,-99.09 608.75,-80.91"/>
<polygon fill="midnightblue" stroke="midnightblue" points="610.66,-83.85 617.31,-75.6 606.97,-77.9 610.66,-83.85"/>
</g>
<!-- Node17 -->
<g id="node17" class="node">
<title>Node17</title>
<g id="a_node17"><a xlink:href="../../db/d02/Settings_8hpp.html" target="_top" xlink:title="All user settings and debugging options can be changed here.">
<polygon fill="white" stroke="black" points="566.5,-280.5 566.5,-299.5 643.5,-299.5 643.5,-280.5 566.5,-280.5"/>
<text text-anchor="middle" x="605" y="-287.5" font-family="Helvetica,sans-Serif" font-size="10.00">Settings.hpp</text>
</a>
</g>
</g>
<!-- Node16&#45;&gt;Node17 -->
<g id="edge20" class="edge">
<title>Node16&#45;&gt;Node17</title>
<path fill="none" stroke="midnightblue" d="M731.23,-336.44C706.11,-327.4 666.29,-313.06 638.1,-302.92"/>
<polygon fill="midnightblue" stroke="midnightblue" points="639.25,-299.61 628.66,-299.52 636.88,-306.2 639.25,-299.61"/>
</g>
<!-- Node23 -->
<g id="node23" class="node">
<title>Node23</title>
<g id="a_node23"><a xlink:href="../../d9/d98/TeensyUSBTypes_8hpp.html" target="_top" xlink:title=" ">
<polygon fill="white" stroke="black" points="700.5,-280.5 700.5,-299.5 873.5,-299.5 873.5,-280.5 700.5,-280.5"/>
<text text-anchor="middle" x="787" y="-287.5" font-family="Helvetica,sans-Serif" font-size="10.00">AH/Teensy/TeensyUSBTypes.hpp</text>
</a>
</g>
</g>
<!-- Node16&#45;&gt;Node23 -->
<g id="edge28" class="edge">
<title>Node16&#45;&gt;Node23</title>
<path fill="none" stroke="midnightblue" d="M760.28,-336.08C764.71,-328.61 771.16,-317.72 776.62,-308.52"/>
<polygon fill="midnightblue" stroke="midnightblue" points="779.73,-310.14 781.81,-299.75 773.71,-306.57 779.73,-310.14"/>
</g>
<!-- Node18 -->
<g id="node18" class="node">
<title>Node18</title>
<g id="a_node18"><a xlink:href="../../dc/d50/Frequency_8hpp.html" target="_top" xlink:title=" ">
<polygon fill="white" stroke="black" points="566,-168.5 566,-187.5 700,-187.5 700,-168.5 566,-168.5"/>
<text text-anchor="middle" x="633" y="-175.5" font-family="Helvetica,sans-Serif" font-size="10.00">AH/Types/Frequency.hpp</text>
</a>
</g>
</g>
<!-- Node17&#45;&gt;Node18 -->
<g id="edge21" class="edge">
<title>Node17&#45;&gt;Node18</title>
<path fill="none" stroke="midnightblue" d="M607.2,-280.37C611.72,-262.62 622.14,-221.67 628.27,-197.6"/>
<polygon fill="midnightblue" stroke="midnightblue" points="631.74,-198.15 630.81,-187.59 624.95,-196.42 631.74,-198.15"/>
</g>
<!-- Node19 -->
<g id="node19" class="node">
<title>Node19</title>
<g id="a_node19"><a xlink:href="../../d7/d7c/ADCConfig_8hpp.html" target="_top" xlink:title="This file contains the platform&#45;specific ADC resolutions.">
<polygon fill="white" stroke="black" points="702.5,-224.5 702.5,-243.5 859.5,-243.5 859.5,-224.5 702.5,-224.5"/>
<text text-anchor="middle" x="781" y="-231.5" font-family="Helvetica,sans-Serif" font-size="10.00">AH/Hardware/ADCConfig.hpp</text>
</a>
</g>
</g>
<!-- Node17&#45;&gt;Node19 -->
<g id="edge23" class="edge">
<title>Node17&#45;&gt;Node19</title>
<path fill="none" stroke="midnightblue" d="M632.89,-280.44C662.75,-271.28 710.31,-256.69 743.46,-246.52"/>
<polygon fill="midnightblue" stroke="midnightblue" points="744.71,-249.8 753.24,-243.52 742.66,-243.1 744.71,-249.8"/>
</g>
<!-- Node20 -->
<g id="node20" class="node">
<title>Node20</title>
<g id="a_node20"><a xlink:title=" ">
<polygon fill="white" stroke="#bfbfbf" points="631.5,-224.5 631.5,-243.5 684.5,-243.5 684.5,-224.5 631.5,-224.5"/>
<text text-anchor="middle" x="658" y="-231.5" font-family="Helvetica,sans-Serif" font-size="10.00">limits.h</text>
</a>
</g>
</g>
<!-- Node17&#45;&gt;Node20 -->
<g id="edge25" class="edge">
<title>Node17&#45;&gt;Node20</title>
<path fill="none" stroke="midnightblue" d="M613.75,-280.08C621.47,-272.22 632.9,-260.57 642.22,-251.08"/>
<polygon fill="midnightblue" stroke="midnightblue" points="644.9,-253.34 649.41,-243.75 639.91,-248.44 644.9,-253.34"/>
</g>
<!-- Node17&#45;&gt;Node21 -->
<g id="edge26" class="edge">
<title>Node17&#45;&gt;Node21</title>
<path fill="none" stroke="midnightblue" d="M577.9,-280.44C549.01,-271.32 503.08,-256.81 470.89,-246.65"/>
<polygon fill="midnightblue" stroke="midnightblue" points="471.56,-243.19 460.97,-243.52 469.45,-249.87 471.56,-243.19"/>
</g>
<!-- Node17&#45;&gt;Node22 -->
<g id="edge27" class="edge">
<title>Node17&#45;&gt;Node22</title>
<path fill="none" stroke="midnightblue" d="M643.67,-282.42C707.03,-271.64 829.09,-250.85 867,-243.89"/>
<polygon fill="midnightblue" stroke="midnightblue" points="868.16,-247.23 877.32,-241.91 866.83,-240.36 868.16,-247.23"/>
</g>
<!-- Node18&#45;&gt;Node14 -->
<g id="edge22" class="edge">
<title>Node18&#45;&gt;Node14</title>
<path fill="none" stroke="midnightblue" d="M633,-168.37C633,-150.62 633,-109.67 633,-85.6"/>
<polygon fill="midnightblue" stroke="midnightblue" points="636.5,-85.59 633,-75.59 629.5,-85.59 636.5,-85.59"/>
</g>
<!-- Node19&#45;&gt;Node9 -->
<g id="edge24" class="edge">
<title>Node19&#45;&gt;Node9</title>
<path fill="none" stroke="midnightblue" d="M827.27,-224.44C878.74,-214.92 961.89,-199.55 1017,-189.36"/>
<polygon fill="midnightblue" stroke="midnightblue" points="1017.75,-192.78 1026.95,-187.52 1016.48,-185.89 1017.75,-192.78"/>
</g>
<!-- Node25&#45;&gt;Node14 -->
<g id="edge38" class="edge">
<title>Node25&#45;&gt;Node14</title>
<path fill="none" stroke="midnightblue" d="M128.07,-565.94C104.83,-558.51 75.3,-545.5 57,-524 37.49,-501.08 38,-489.1 38,-459 38,-459 38,-459 38,-177 38,-128.01 353.9,-92.01 525.34,-76.08"/>
<polygon fill="midnightblue" stroke="midnightblue" points="525.78,-79.56 535.41,-75.15 525.14,-72.59 525.78,-79.56"/>
</g>
<!-- Node26 -->
<g id="node26" class="node">
<title>Node26</title>
<g id="a_node26"><a xlink:title=" ">
<polygon fill="white" stroke="#bfbfbf" points="66,-504.5 66,-523.5 156,-523.5 156,-504.5 66,-504.5"/>
<text text-anchor="middle" x="111" y="-511.5" font-family="Helvetica,sans-Serif" font-size="10.00">AH/STL/cstddef</text>
</a>
</g>
</g>
<!-- Node25&#45;&gt;Node26 -->
<g id="edge36" class="edge">
<title>Node25&#45;&gt;Node26</title>
<path fill="none" stroke="midnightblue" d="M155.55,-565.98C147.67,-556.96 135.06,-542.52 125.26,-531.31"/>
<polygon fill="midnightblue" stroke="midnightblue" points="127.65,-528.74 118.44,-523.51 122.38,-533.34 127.65,-528.74"/>
</g>
<!-- Node27 -->
<g id="node27" class="node">
<title>Node27</title>
<g id="a_node27"><a xlink:title=" ">
<polygon fill="white" stroke="#bfbfbf" points="174.5,-504.5 174.5,-523.5 253.5,-523.5 253.5,-504.5 174.5,-504.5"/>
<text text-anchor="middle" x="214" y="-511.5" font-family="Helvetica,sans-Serif" font-size="10.00">AH/STL/tuple</text>
</a>
</g>
</g>
<!-- Node25&#45;&gt;Node27 -->
<g id="edge37" class="edge">
<title>Node25&#45;&gt;Node27</title>
<path fill="none" stroke="midnightblue" d="M170.31,-565.98C178.03,-556.96 190.41,-542.52 200.02,-531.31"/>
<polygon fill="midnightblue" stroke="midnightblue" points="202.86,-533.38 206.71,-523.51 197.54,-528.82 202.86,-533.38"/>
</g>
<!-- Node29&#45;&gt;Node1 -->
<g id="edge68" class="edge">
<title>Node29&#45;&gt;Node1</title>
<path fill="none" stroke="midnightblue" d="M690.13,-881.75C691.66,-888.86 692.1,-899.14 691.47,-908.1"/>
<polygon fill="midnightblue" stroke="midnightblue" points="687.99,-907.71 690.17,-918.08 694.93,-908.62 687.99,-907.71"/>
</g>
<!-- Node29&#45;&gt;Node2 -->
<g id="edge43" class="edge">
<title>Node29&#45;&gt;Node2</title>
<path fill="none" stroke="midnightblue" d="M656.7,-862.43C635.49,-855.07 606.55,-842.95 585,-826 547.35,-796.38 516.15,-748.55 500.96,-722.79"/>
<polygon fill="midnightblue" stroke="midnightblue" points="503.8,-720.72 495.78,-713.8 497.74,-724.21 503.8,-720.72"/>
</g>
<!-- Node30 -->
<g id="node30" class="node">
<title>Node30</title>
<g id="a_node30"><a xlink:href="../../d2/d05/StaticSizeExtendedIOElement_8hpp.html" target="_top" xlink:title=" ">
<polygon fill="white" stroke="black" points="594,-806.5 594,-825.5 776,-825.5 776,-806.5 594,-806.5"/>
<text text-anchor="middle" x="685" y="-813.5" font-family="Helvetica,sans-Serif" font-size="10.00">StaticSizeExtendedIOElement.hpp</text>
</a>
</g>
</g>
<!-- Node29&#45;&gt;Node30 -->
<g id="edge44" class="edge">
<title>Node29&#45;&gt;Node30</title>
<path fill="none" stroke="midnightblue" d="M685,-862.08C685,-855.01 685,-844.86 685,-835.99"/>
<polygon fill="midnightblue" stroke="midnightblue" points="688.5,-835.75 685,-825.75 681.5,-835.75 688.5,-835.75"/>
</g>
<!-- Node39 -->
<g id="node39" class="node">
<title>Node39</title>
<g id="a_node39"><a xlink:href="../../d1/d40/BitArray_8hpp.html" target="_top" xlink:title=" ">
<polygon fill="white" stroke="black" points="979.5,-504.5 979.5,-523.5 1128.5,-523.5 1128.5,-504.5 979.5,-504.5"/>
<text text-anchor="middle" x="1054" y="-511.5" font-family="Helvetica,sans-Serif" font-size="10.00">AH/Containers/BitArray.hpp</text>
</a>
</g>
</g>
<!-- Node29&#45;&gt;Node39 -->
<g id="edge64" class="edge">
<title>Node29&#45;&gt;Node39</title>
<path fill="none" stroke="midnightblue" d="M743.12,-862.46C832.63,-847.66 994,-813.67 994,-761 994,-761 994,-761 994,-641.5 994,-598.58 1022.54,-554.69 1040.25,-531.58"/>
<polygon fill="midnightblue" stroke="midnightblue" points="1043.17,-533.54 1046.64,-523.53 1037.69,-529.19 1043.17,-533.54"/>
</g>
<!-- Node31 -->
<g id="node31" class="node">
<title>Node31</title>
<g id="a_node31"><a xlink:href="../../d4/d57/ExtendedIOElement_8hpp.html" target="_top" xlink:title=" ">
<polygon fill="white" stroke="black" points="559,-750.5 559,-769.5 693,-769.5 693,-750.5 559,-750.5"/>
<text text-anchor="middle" x="626" y="-757.5" font-family="Helvetica,sans-Serif" font-size="10.00">ExtendedIOElement.hpp</text>
</a>
</g>
</g>
<!-- Node30&#45;&gt;Node31 -->
<g id="edge45" class="edge">
<title>Node30&#45;&gt;Node31</title>
<path fill="none" stroke="midnightblue" d="M675.52,-806.32C666.8,-798.34 653.66,-786.31 643.1,-776.65"/>
<polygon fill="midnightblue" stroke="midnightblue" points="645.39,-774 635.65,-769.83 640.67,-779.17 645.39,-774"/>
</g>
<!-- Node37 -->
<g id="node37" class="node">
<title>Node37</title>
<g id="a_node37"><a xlink:href="../../d5/db6/ArrayHelpers_8hpp.html" target="_top" xlink:title=" ">
<polygon fill="white" stroke="black" points="673,-566 673,-585 847,-585 847,-566 673,-566"/>
<text text-anchor="middle" x="760" y="-573" font-family="Helvetica,sans-Serif" font-size="10.00">AH/Containers/ArrayHelpers.hpp</text>
</a>
</g>
</g>
<!-- Node30&#45;&gt;Node37 -->
<g id="edge60" class="edge">
<title>Node30&#45;&gt;Node37</title>
<path fill="none" stroke="midnightblue" d="M688.44,-806.44C692.01,-797.43 697.66,-782.82 702,-770 723.51,-706.43 745.27,-629.77 754.89,-595.12"/>
<polygon fill="midnightblue" stroke="midnightblue" points="758.38,-595.63 757.67,-585.05 751.63,-593.76 758.38,-595.63"/>
</g>
<!-- Node31&#45;&gt;Node2 -->
<g id="edge46" class="edge">
<title>Node31&#45;&gt;Node2</title>
<path fill="none" stroke="midnightblue" d="M604.61,-750.44C582.29,-741.52 547.1,-727.44 521.79,-717.32"/>
<polygon fill="midnightblue" stroke="midnightblue" points="522.88,-713.98 512.29,-713.52 520.28,-720.48 522.88,-713.98"/>
</g>
<!-- Node31&#45;&gt;Node4 -->
<g id="edge59" class="edge">
<title>Node31&#45;&gt;Node4</title>
<path fill="none" stroke="midnightblue" d="M623.85,-750.48C617.71,-727.72 598.12,-664.65 561,-627 547.51,-613.32 529.54,-602.64 512.62,-594.7"/>
<polygon fill="midnightblue" stroke="midnightblue" points="513.91,-591.45 503.35,-590.57 511.06,-597.84 513.91,-591.45"/>
</g>
<!-- Node32 -->
<g id="node32" class="node">
<title>Node32</title>
<g id="a_node32"><a xlink:href="../../d4/d93/Updatable_8hpp.html" target="_top" xlink:title=" ">
<polygon fill="white" stroke="black" points="547.5,-504.5 547.5,-523.5 708.5,-523.5 708.5,-504.5 547.5,-504.5"/>
<text text-anchor="middle" x="628" y="-511.5" font-family="Helvetica,sans-Serif" font-size="10.00">AH/Containers/Updatable.hpp</text>
</a>
</g>
</g>
<!-- Node31&#45;&gt;Node32 -->
<g id="edge47" class="edge">
<title>Node31&#45;&gt;Node32</title>
<path fill="none" stroke="midnightblue" d="M626.07,-750.32C626.36,-715.18 627.44,-583.12 627.85,-533.76"/>
<polygon fill="midnightblue" stroke="midnightblue" points="631.35,-533.61 627.93,-523.58 624.35,-533.55 631.35,-533.61"/>
</g>
<!-- Node32&#45;&gt;Node6 -->
<g id="edge54" class="edge">
<title>Node32&#45;&gt;Node6</title>
<path fill="none" stroke="midnightblue" d="M628,-504.08C628,-497.01 628,-486.86 628,-477.99"/>
<polygon fill="midnightblue" stroke="midnightblue" points="631.5,-477.75 628,-467.75 624.5,-477.75 631.5,-477.75"/>
</g>
<!-- Node32&#45;&gt;Node15 -->
<g id="edge55" class="edge">
<title>Node32&#45;&gt;Node15</title>
<path fill="none" stroke="midnightblue" d="M612.13,-504.46C597.66,-496.23 576.13,-482.87 560,-468 515.42,-426.91 497,-407.63 497,-347 497,-347 497,-347 497,-233 497,-198.52 479.09,-161.56 466.94,-140.47"/>
<polygon fill="midnightblue" stroke="midnightblue" points="469.84,-138.49 461.7,-131.71 463.84,-142.09 469.84,-138.49"/>
</g>
<!-- Node32&#45;&gt;Node16 -->
<g id="edge57" class="edge">
<title>Node32&#45;&gt;Node16</title>
<path fill="none" stroke="midnightblue" d="M608.98,-504.38C586.33,-492.83 553.18,-471.11 567,-448 571.63,-440.25 678.22,-385.74 728.8,-360.18"/>
<polygon fill="midnightblue" stroke="midnightblue" points="730.49,-363.24 737.84,-355.61 727.34,-356.99 730.49,-363.24"/>
</g>
<!-- Node32&#45;&gt;Node21 -->
<g id="edge58" class="edge">
<title>Node32&#45;&gt;Node21</title>
<path fill="none" stroke="midnightblue" d="M567.42,-504.5C510.49,-492.69 434,-465.24 434,-403 434,-403 434,-403 434,-345 434,-312.95 434,-275.64 434,-253.75"/>
<polygon fill="midnightblue" stroke="midnightblue" points="437.5,-253.56 434,-243.56 430.5,-253.56 437.5,-253.56"/>
</g>
<!-- Node33 -->
<g id="node33" class="node">
<title>Node33</title>
<g id="a_node33"><a xlink:href="../../d4/dba/CRTP_8hpp.html" target="_top" xlink:title=" ">
<polygon fill="white" stroke="black" points="977,-448.5 977,-467.5 1111,-467.5 1111,-448.5 977,-448.5"/>
<text text-anchor="middle" x="1044" y="-455.5" font-family="Helvetica,sans-Serif" font-size="10.00">AH/Containers/CRTP.hpp</text>
</a>
</g>
</g>
<!-- Node32&#45;&gt;Node33 -->
<g id="edge48" class="edge">
<title>Node32&#45;&gt;Node33</title>
<path fill="none" stroke="midnightblue" d="M693.92,-504.44C768.46,-494.77 889.66,-479.04 968.09,-468.85"/>
<polygon fill="midnightblue" stroke="midnightblue" points="968.93,-472.27 978.39,-467.52 968.02,-465.33 968.93,-472.27"/>
</g>
<!-- Node34 -->
<g id="node34" class="node">
<title>Node34</title>
<g id="a_node34"><a xlink:href="../../de/dd1/LinkedList_8hpp.html" target="_top" xlink:title=" ">
<polygon fill="white" stroke="black" points="799.5,-448.5 799.5,-467.5 958.5,-467.5 958.5,-448.5 799.5,-448.5"/>
<text text-anchor="middle" x="879" y="-455.5" font-family="Helvetica,sans-Serif" font-size="10.00">AH/Containers/LinkedList.hpp</text>
</a>
</g>
</g>
<!-- Node32&#45;&gt;Node34 -->
<g id="edge49" class="edge">
<title>Node32&#45;&gt;Node34</title>
<path fill="none" stroke="midnightblue" d="M667.77,-504.44C711.56,-495.02 782.01,-479.87 829.38,-469.68"/>
<polygon fill="midnightblue" stroke="midnightblue" points="830.37,-473.04 839.41,-467.52 828.9,-466.2 830.37,-473.04"/>
</g>
<!-- Node36 -->
<g id="node36" class="node">
<title>Node36</title>
<g id="a_node36"><a xlink:title=" ">
<polygon fill="white" stroke="#bfbfbf" points="698.5,-448.5 698.5,-467.5 781.5,-467.5 781.5,-448.5 698.5,-448.5"/>
<text text-anchor="middle" x="740" y="-455.5" font-family="Helvetica,sans-Serif" font-size="10.00">AH/STL/utility</text>
</a>
</g>
</g>
<!-- Node32&#45;&gt;Node36 -->
<g id="edge56" class="edge">
<title>Node32&#45;&gt;Node36</title>
<path fill="none" stroke="midnightblue" d="M645.99,-504.32C664.04,-495.62 692.05,-482.12 712.8,-472.11"/>
<polygon fill="midnightblue" stroke="midnightblue" points="714.56,-475.15 722.05,-467.65 711.52,-468.84 714.56,-475.15"/>
</g>
<!-- Node34&#45;&gt;Node7 -->
<g id="edge50" class="edge">
<title>Node34&#45;&gt;Node7</title>
<path fill="none" stroke="midnightblue" d="M859.35,-448.44C839.04,-439.6 807.1,-425.69 783.9,-415.59"/>
<polygon fill="midnightblue" stroke="midnightblue" points="785.12,-412.3 774.56,-411.52 782.33,-418.72 785.12,-412.3"/>
</g>
<!-- Node34&#45;&gt;Node10 -->
<g id="edge51" class="edge">
<title>Node34&#45;&gt;Node10</title>
<path fill="none" stroke="midnightblue" d="M946.38,-448.5C1043.16,-434.37 1210,-402.03 1210,-347 1210,-347 1210,-347 1210,-233 1210,-182.39 1152.2,-150.81 1112.52,-135.09"/>
<polygon fill="midnightblue" stroke="midnightblue" points="1113.71,-131.8 1103.12,-131.53 1111.23,-138.35 1113.71,-131.8"/>
</g>
<!-- Node34&#45;&gt;Node24 -->
<g id="edge53" class="edge">
<title>Node34&#45;&gt;Node24</title>
<path fill="none" stroke="midnightblue" d="M830.04,-448.44C774.33,-438.71 683.56,-422.85 625.34,-412.67"/>
<polygon fill="midnightblue" stroke="midnightblue" points="625.67,-409.18 615.21,-410.9 624.46,-416.07 625.67,-409.18"/>
</g>
<!-- Node35 -->
<g id="node35" class="node">
<title>Node35</title>
<g id="a_node35"><a xlink:title=" ">
<polygon fill="white" stroke="#bfbfbf" points="846.5,-392.5 846.5,-411.5 899.5,-411.5 899.5,-392.5 846.5,-392.5"/>
<text text-anchor="middle" x="873" y="-399.5" font-family="Helvetica,sans-Serif" font-size="10.00">stdlib.h</text>
</a>
</g>
</g>
<!-- Node34&#45;&gt;Node35 -->
<g id="edge52" class="edge">
<title>Node34&#45;&gt;Node35</title>
<path fill="none" stroke="midnightblue" d="M878.01,-448.08C877.21,-440.93 876.07,-430.64 875.08,-421.69"/>
<polygon fill="midnightblue" stroke="midnightblue" points="878.56,-421.3 873.97,-411.75 871.6,-422.08 878.56,-421.3"/>
</g>
<!-- Node37&#45;&gt;Node5 -->
<g id="edge61" class="edge">
<title>Node37&#45;&gt;Node5</title>
<path fill="none" stroke="midnightblue" d="M717.3,-565.98C663.86,-555.3 572.35,-537.03 514.63,-525.51"/>
<polygon fill="midnightblue" stroke="midnightblue" points="515.11,-522.03 504.62,-523.51 513.74,-528.9 515.11,-522.03"/>
</g>
<!-- Node37&#45;&gt;Node8 -->
<g id="edge63" class="edge">
<title>Node37&#45;&gt;Node8</title>
<path fill="none" stroke="midnightblue" d="M847.27,-573.59C944.9,-570.75 1094.91,-560.38 1137,-524 1163.11,-501.43 1165.3,-480.25 1153,-448 1138.63,-410.32 1102.26,-378.89 1078.65,-361.54"/>
<polygon fill="midnightblue" stroke="midnightblue" points="1080.47,-358.54 1070.29,-355.6 1076.41,-364.25 1080.47,-358.54"/>
</g>
<!-- Node38 -->
<g id="node38" class="node">
<title>Node38</title>
<g id="a_node38"><a xlink:title=" ">
<polygon fill="white" stroke="#bfbfbf" points="726.5,-504.5 726.5,-523.5 827.5,-523.5 827.5,-504.5 726.5,-504.5"/>
<text text-anchor="middle" x="777" y="-511.5" font-family="Helvetica,sans-Serif" font-size="10.00">AH/STL/algorithm</text>
</a>
</g>
</g>
<!-- Node37&#45;&gt;Node38 -->
<g id="edge62" class="edge">
<title>Node37&#45;&gt;Node38</title>
<path fill="none" stroke="midnightblue" d="M762.44,-565.98C764.86,-557.49 768.66,-544.2 771.77,-533.32"/>
<polygon fill="midnightblue" stroke="midnightblue" points="775.19,-534.09 774.57,-523.51 768.46,-532.16 775.19,-534.09"/>
</g>
<!-- Node39&#45;&gt;Node6 -->
<g id="edge65" class="edge">
<title>Node39&#45;&gt;Node6</title>
<path fill="none" stroke="midnightblue" d="M980.53,-504.46C909,-496.03 796.95,-482.51 690.21,-468.14"/>
<polygon fill="midnightblue" stroke="midnightblue" points="690.61,-464.66 680.23,-466.79 689.67,-471.6 690.61,-464.66"/>
</g>
<!-- Node39&#45;&gt;Node14 -->
<g id="edge66" class="edge">
<title>Node39&#45;&gt;Node14</title>
<path fill="none" stroke="midnightblue" d="M1080.57,-504.38C1133.7,-485.29 1248,-434.1 1248,-347 1248,-347 1248,-347 1248,-177 1248,-125.84 1201.18,-129.21 1153,-112 1079.68,-85.8 870.48,-74.5 740.86,-69.9"/>
<polygon fill="midnightblue" stroke="midnightblue" points="740.63,-66.39 730.51,-69.54 740.38,-73.38 740.63,-66.39"/>
</g>
<!-- Node39&#45;&gt;Node22 -->
<g id="edge67" class="edge">
<title>Node39&#45;&gt;Node22</title>
<path fill="none" stroke="midnightblue" d="M1074.54,-504.36C1099.97,-492.45 1137.86,-469.96 1120,-448 1070.45,-387.07 1003.86,-466.18 947,-412 902.59,-369.68 900.79,-289.85 902.53,-253.67"/>
<polygon fill="midnightblue" stroke="midnightblue" points="906.03,-253.76 903.17,-243.56 899.04,-253.32 906.03,-253.76"/>
</g>
<!-- Node40&#45;&gt;Node16 -->
<g id="edge70" class="edge">
<title>Node40&#45;&gt;Node16</title>
<path fill="none" stroke="midnightblue" d="M982.22,-392.44C934.82,-382.96 858.37,-367.67 807.42,-357.48"/>
<polygon fill="midnightblue" stroke="midnightblue" points="808.07,-354.05 797.58,-355.52 806.7,-360.91 808.07,-354.05"/>
</g>
<!-- Node40&#45;&gt;Node22 -->
<g id="edge71" class="edge">
<title>Node40&#45;&gt;Node22</title>
<path fill="none" stroke="midnightblue" d="M1008.19,-392.42C994.09,-384.53 974.2,-371.7 961,-356 934.57,-324.57 917.46,-278.83 909.4,-253.54"/>
<polygon fill="midnightblue" stroke="midnightblue" points="912.69,-252.31 906.42,-243.77 905.99,-254.36 912.69,-252.31"/>
</g>
</g>
</svg>
