<?xml version="1.0" encoding="UTF-8" standalone="no"?>
<!DOCTYPE svg PUBLIC "-//W3C//DTD SVG 1.1//EN"
 "http://www.w3.org/Graphics/SVG/1.1/DTD/svg11.dtd">
<!-- Generated by graphviz version 2.43.0 (0)
 -->
<!-- Title: MAX7219.hpp Pages: 1 -->
<svg width="1784pt" height="901pt"
 viewBox="0.00 0.00 1784.00 901.00" xmlns="http://www.w3.org/2000/svg" xmlns:xlink="http://www.w3.org/1999/xlink">
<g id="graph0" class="graph" transform="scale(1 1) rotate(0) translate(4 897)">
<title>MAX7219.hpp</title>
<polygon fill="white" stroke="transparent" points="-4,4 -4,-897 1780,-897 1780,4 -4,4"/>
<!-- Node1 -->
<g id="node1" class="node">
<title>Node1</title>
<g id="a_node1"><a xlink:title=" ">
<polygon fill="#bfbfbf" stroke="black" points="1453,-873.5 1453,-892.5 1537,-892.5 1537,-873.5 1453,-873.5"/>
<text text-anchor="middle" x="1495" y="-880.5" font-family="Helvetica,sans-Serif" font-size="10.00">MAX7219.hpp</text>
</a>
</g>
</g>
<!-- Node2 -->
<g id="node2" class="node">
<title>Node2</title>
<g id="a_node2"><a xlink:href="../../d1/d65/Warnings_8hpp.html" target="_top" xlink:title=" ">
<polygon fill="white" stroke="black" points="1010.5,-0.5 1010.5,-19.5 1153.5,-19.5 1153.5,-0.5 1010.5,-0.5"/>
<text text-anchor="middle" x="1082" y="-7.5" font-family="Helvetica,sans-Serif" font-size="10.00">AH/Settings/Warnings.hpp</text>
</a>
</g>
</g>
<!-- Node1&#45;&gt;Node2 -->
<g id="edge1" class="edge">
<title>Node1&#45;&gt;Node2</title>
<path fill="none" stroke="midnightblue" d="M1537.07,-882.96C1615.46,-882.32 1776,-868.56 1776,-766.5 1776,-766.5 1776,-766.5 1776,-121 1776,-73.09 1734.83,-72.9 1690,-56 1595.94,-20.54 1306.75,-12.93 1163.77,-11.36"/>
<polygon fill="midnightblue" stroke="midnightblue" points="1163.77,-7.86 1153.73,-11.26 1163.7,-14.86 1163.77,-7.86"/>
</g>
<!-- Node3 -->
<g id="node3" class="node">
<title>Node3</title>
<g id="a_node3"><a xlink:href="../../d2/d05/StaticSizeExtendedIOElement_8hpp.html" target="_top" xlink:title=" ">
<polygon fill="white" stroke="black" points="1230,-817.5 1230,-836.5 1412,-836.5 1412,-817.5 1230,-817.5"/>
<text text-anchor="middle" x="1321" y="-824.5" font-family="Helvetica,sans-Serif" font-size="10.00">StaticSizeExtendedIOElement.hpp</text>
</a>
</g>
</g>
<!-- Node1&#45;&gt;Node3 -->
<g id="edge2" class="edge">
<title>Node1&#45;&gt;Node3</title>
<path fill="none" stroke="midnightblue" d="M1467.43,-873.44C1437.9,-864.28 1390.88,-849.69 1358.12,-839.52"/>
<polygon fill="midnightblue" stroke="midnightblue" points="1359.03,-836.14 1348.44,-836.52 1356.96,-842.82 1359.03,-836.14"/>
</g>
<!-- Node39 -->
<g id="node39" class="node">
<title>Node39</title>
<g id="a_node39"><a xlink:href="../../d1/d40/BitArray_8hpp.html" target="_top" xlink:title=" ">
<polygon fill="white" stroke="black" points="920.5,-504.5 920.5,-523.5 1069.5,-523.5 1069.5,-504.5 920.5,-504.5"/>
<text text-anchor="middle" x="995" y="-511.5" font-family="Helvetica,sans-Serif" font-size="10.00">AH/Containers/BitArray.hpp</text>
</a>
</g>
</g>
<!-- Node1&#45;&gt;Node39 -->
<g id="edge80" class="edge">
<title>Node1&#45;&gt;Node39</title>
<path fill="none" stroke="midnightblue" d="M1452.88,-879.69C1299.41,-870.71 779,-835.2 779,-766.5 779,-766.5 779,-766.5 779,-641.5 779,-571.89 863.57,-539.86 926.87,-525.64"/>
<polygon fill="midnightblue" stroke="midnightblue" points="927.79,-529.03 936.83,-523.51 926.32,-522.18 927.79,-529.03"/>
</g>
<!-- Node40 -->
<g id="node40" class="node">
<title>Node40</title>
<g id="a_node40"><a xlink:href="../../d7/d13/MAX7219__Base_8hpp.html" target="_top" xlink:title=" ">
<polygon fill="white" stroke="black" points="1547,-750.5 1547,-780.5 1705,-780.5 1705,-750.5 1547,-750.5"/>
<text text-anchor="start" x="1555" y="-768.5" font-family="Helvetica,sans-Serif" font-size="10.00">AH/Hardware/LEDs/MAX7219</text>
<text text-anchor="middle" x="1626" y="-757.5" font-family="Helvetica,sans-Serif" font-size="10.00">_Base.hpp</text>
</a>
</g>
</g>
<!-- Node1&#45;&gt;Node40 -->
<g id="edge85" class="edge">
<title>Node1&#45;&gt;Node40</title>
<path fill="none" stroke="midnightblue" d="M1504.85,-873.32C1525.41,-855.19 1573.39,-812.88 1602.42,-787.29"/>
<polygon fill="midnightblue" stroke="midnightblue" points="1604.88,-789.78 1610.07,-780.55 1600.25,-784.53 1604.88,-789.78"/>
</g>
<!-- Node3&#45;&gt;Node2 -->
<g id="edge3" class="edge">
<title>Node3&#45;&gt;Node2</title>
<path fill="none" stroke="midnightblue" d="M1314.56,-817.48C1308.25,-808.74 1298.74,-794.56 1293,-781 1279.42,-748.94 1274,-739.82 1274,-705 1274,-705 1274,-705 1274,-121 1274,-62.59 1206.28,-34.76 1151.28,-21.79"/>
<polygon fill="midnightblue" stroke="midnightblue" points="1151.7,-18.3 1141.17,-19.54 1150.17,-25.13 1151.7,-18.3"/>
</g>
<!-- Node4 -->
<g id="node4" class="node">
<title>Node4</title>
<g id="a_node4"><a xlink:href="../../d4/d57/ExtendedIOElement_8hpp.html" target="_top" xlink:title=" ">
<polygon fill="white" stroke="black" points="1302,-756 1302,-775 1436,-775 1436,-756 1302,-756"/>
<text text-anchor="middle" x="1369" y="-763" font-family="Helvetica,sans-Serif" font-size="10.00">ExtendedIOElement.hpp</text>
</a>
</g>
</g>
<!-- Node3&#45;&gt;Node4 -->
<g id="edge4" class="edge">
<title>Node3&#45;&gt;Node4</title>
<path fill="none" stroke="midnightblue" d="M1327.88,-817.48C1335.15,-808.46 1346.8,-794.02 1355.84,-782.81"/>
<polygon fill="midnightblue" stroke="midnightblue" points="1358.58,-784.99 1362.14,-775.01 1353.13,-780.59 1358.58,-784.99"/>
</g>
<!-- Node37 -->
<g id="node37" class="node">
<title>Node37</title>
<g id="a_node37"><a xlink:href="../../d5/db6/ArrayHelpers_8hpp.html" target="_top" xlink:title=" ">
<polygon fill="white" stroke="black" points="30,-566 30,-585 204,-585 204,-566 30,-566"/>
<text text-anchor="middle" x="117" y="-573" font-family="Helvetica,sans-Serif" font-size="10.00">AH/Containers/ArrayHelpers.hpp</text>
</a>
</g>
</g>
<!-- Node3&#45;&gt;Node37 -->
<g id="edge75" class="edge">
<title>Node3&#45;&gt;Node37</title>
<path fill="none" stroke="midnightblue" d="M1279.9,-817.48C1098.42,-779.88 368.93,-628.71 168.29,-587.13"/>
<polygon fill="midnightblue" stroke="midnightblue" points="168.82,-583.66 158.31,-585.06 167.4,-590.52 168.82,-583.66"/>
</g>
<!-- Node4&#45;&gt;Node2 -->
<g id="edge5" class="edge">
<title>Node4&#45;&gt;Node2</title>
<path fill="none" stroke="midnightblue" d="M1361.55,-755.76C1346.1,-736.72 1312,-689.48 1312,-643.5 1312,-643.5 1312,-643.5 1312,-121 1312,-90.2 1311.23,-76.22 1288,-56 1269.3,-39.73 1212.74,-28.08 1163.61,-20.72"/>
<polygon fill="midnightblue" stroke="midnightblue" points="1163.97,-17.23 1153.57,-19.26 1162.97,-24.16 1163.97,-17.23"/>
</g>
<!-- Node5 -->
<g id="node5" class="node">
<title>Node5</title>
<g id="a_node5"><a xlink:href="../../dd/ddf/ExtendedInputOutput_8hpp.html" target="_top" xlink:title=" ">
<polygon fill="white" stroke="black" points="1397.5,-694.5 1397.5,-713.5 1538.5,-713.5 1538.5,-694.5 1397.5,-694.5"/>
<text text-anchor="middle" x="1468" y="-701.5" font-family="Helvetica,sans-Serif" font-size="10.00">ExtendedInputOutput.hpp</text>
</a>
</g>
</g>
<!-- Node4&#45;&gt;Node5 -->
<g id="edge6" class="edge">
<title>Node4&#45;&gt;Node5</title>
<path fill="none" stroke="midnightblue" d="M1383.18,-755.98C1399.36,-746.25 1426.03,-730.23 1445.14,-718.74"/>
<polygon fill="midnightblue" stroke="midnightblue" points="1447.07,-721.66 1453.84,-713.51 1443.47,-715.66 1447.07,-721.66"/>
</g>
<!-- Node7 -->
<g id="node7" class="node">
<title>Node7</title>
<g id="a_node7"><a xlink:href="../../d4/d35/Hardware-Types_8hpp.html" target="_top" xlink:title=" ">
<polygon fill="white" stroke="black" points="1088.5,-560.5 1088.5,-590.5 1219.5,-590.5 1219.5,-560.5 1088.5,-560.5"/>
<text text-anchor="start" x="1096.5" y="-578.5" font-family="Helvetica,sans-Serif" font-size="10.00">AH/Hardware/Hardware</text>
<text text-anchor="middle" x="1154" y="-567.5" font-family="Helvetica,sans-Serif" font-size="10.00">&#45;Types.hpp</text>
</a>
</g>
</g>
<!-- Node4&#45;&gt;Node7 -->
<g id="edge74" class="edge">
<title>Node4&#45;&gt;Node7</title>
<path fill="none" stroke="midnightblue" d="M1355.76,-755.92C1341.18,-746.28 1317.24,-729.89 1298,-714 1251.71,-675.77 1201.95,-626.13 1174.74,-598.16"/>
<polygon fill="midnightblue" stroke="midnightblue" points="1177.15,-595.62 1167.68,-590.87 1172.12,-600.49 1177.15,-595.62"/>
</g>
<!-- Node32 -->
<g id="node32" class="node">
<title>Node32</title>
<g id="a_node32"><a xlink:href="../../d4/d93/Updatable_8hpp.html" target="_top" xlink:title=" ">
<polygon fill="white" stroke="black" points="512.5,-504.5 512.5,-523.5 673.5,-523.5 673.5,-504.5 512.5,-504.5"/>
<text text-anchor="middle" x="593" y="-511.5" font-family="Helvetica,sans-Serif" font-size="10.00">AH/Containers/Updatable.hpp</text>
</a>
</g>
</g>
<!-- Node4&#45;&gt;Node32 -->
<g id="edge60" class="edge">
<title>Node4&#45;&gt;Node32</title>
<path fill="none" stroke="midnightblue" d="M1301.64,-757.97C1199.37,-746.51 1000,-718.04 841,-658 750.22,-623.72 653.67,-558.56 612.94,-529.55"/>
<polygon fill="midnightblue" stroke="midnightblue" points="614.85,-526.61 604.69,-523.62 610.77,-532.3 614.85,-526.61"/>
</g>
<!-- Node5&#45;&gt;Node2 -->
<g id="edge59" class="edge">
<title>Node5&#45;&gt;Node2</title>
<path fill="none" stroke="midnightblue" d="M1520.28,-694.48C1541.59,-688.15 1564.19,-677.14 1577,-658 1584.66,-646.55 1580.35,-640.36 1577,-627 1550.65,-521.89 1504.13,-511.84 1462,-412 1429.73,-335.53 1411.66,-110.43 1349,-56 1321.87,-32.43 1231.9,-20.96 1163.83,-15.55"/>
<polygon fill="midnightblue" stroke="midnightblue" points="1163.77,-12.04 1153.54,-14.76 1163.24,-19.01 1163.77,-12.04"/>
</g>
<!-- Node6 -->
<g id="node6" class="node">
<title>Node6</title>
<g id="a_node6"><a xlink:href="../../d2/d3c/Arduino-Hardware-Types_8hpp.html" target="_top" xlink:title=" ">
<polygon fill="white" stroke="black" points="1340,-627.5 1340,-657.5 1462,-657.5 1462,-627.5 1340,-627.5"/>
<text text-anchor="start" x="1348" y="-645.5" font-family="Helvetica,sans-Serif" font-size="10.00">AH/Hardware/Arduino</text>
<text text-anchor="middle" x="1401" y="-634.5" font-family="Helvetica,sans-Serif" font-size="10.00">&#45;Hardware&#45;Types.hpp</text>
</a>
</g>
</g>
<!-- Node5&#45;&gt;Node6 -->
<g id="edge7" class="edge">
<title>Node5&#45;&gt;Node6</title>
<path fill="none" stroke="midnightblue" d="M1458.4,-694.48C1449.58,-686.64 1436.15,-674.71 1424.5,-664.37"/>
<polygon fill="midnightblue" stroke="midnightblue" points="1426.59,-661.55 1416.79,-657.52 1421.94,-666.78 1426.59,-661.55"/>
</g>
<!-- Node12 -->
<g id="node12" class="node">
<title>Node12</title>
<g id="a_node12"><a xlink:href="../../dc/dc7/NamespaceSettings_8hpp.html" target="_top" xlink:title=" ">
<polygon fill="white" stroke="black" points="807.5,-56.5 807.5,-75.5 1002.5,-75.5 1002.5,-56.5 807.5,-56.5"/>
<text text-anchor="middle" x="905" y="-63.5" font-family="Helvetica,sans-Serif" font-size="10.00">AH/Settings/NamespaceSettings.hpp</text>
</a>
</g>
</g>
<!-- Node5&#45;&gt;Node12 -->
<g id="edge58" class="edge">
<title>Node5&#45;&gt;Node12</title>
<path fill="none" stroke="midnightblue" d="M1414.43,-694.46C1285.19,-672.62 962.49,-610.31 903,-524 886.21,-499.64 927.31,-495.18 939,-468 998.01,-330.76 946,-281.37 948,-132 948.12,-123.11 951.31,-120.25 948,-112 943.32,-100.33 934.01,-89.97 925.24,-82.14"/>
<polygon fill="midnightblue" stroke="midnightblue" points="927.42,-79.4 917.5,-75.7 922.95,-84.78 927.42,-79.4"/>
</g>
<!-- Node31 -->
<g id="node31" class="node">
<title>Node31</title>
<g id="a_node31"><a xlink:title=" ">
<polygon fill="white" stroke="#bfbfbf" points="1480.5,-633 1480.5,-652 1567.5,-652 1567.5,-633 1480.5,-633"/>
<text text-anchor="middle" x="1524" y="-640" font-family="Helvetica,sans-Serif" font-size="10.00">AH/STL/climits</text>
</a>
</g>
</g>
<!-- Node5&#45;&gt;Node31 -->
<g id="edge57" class="edge">
<title>Node5&#45;&gt;Node31</title>
<path fill="none" stroke="midnightblue" d="M1476.02,-694.48C1484.59,-685.37 1498.36,-670.74 1508.96,-659.48"/>
<polygon fill="midnightblue" stroke="midnightblue" points="1511.69,-661.69 1515.99,-652.01 1506.59,-656.89 1511.69,-661.69"/>
</g>
<!-- Node6&#45;&gt;Node2 -->
<g id="edge8" class="edge">
<title>Node6&#45;&gt;Node2</title>
<path fill="none" stroke="midnightblue" d="M1391.17,-627.45C1376.35,-604.86 1350,-558.57 1350,-515 1350,-515 1350,-515 1350,-121 1350,-90.2 1349.56,-75.83 1326,-56 1301.77,-35.6 1224.86,-23.79 1163.78,-17.43"/>
<polygon fill="midnightblue" stroke="midnightblue" points="1164.04,-13.94 1153.74,-16.42 1163.34,-20.9 1164.04,-13.94"/>
</g>
<!-- Node6&#45;&gt;Node7 -->
<g id="edge9" class="edge">
<title>Node6&#45;&gt;Node7</title>
<path fill="none" stroke="midnightblue" d="M1347.71,-627.48C1309.45,-617.41 1257.74,-603.8 1217.36,-593.17"/>
<polygon fill="midnightblue" stroke="midnightblue" points="1218.18,-589.77 1207.62,-590.61 1216.4,-596.54 1218.18,-589.77"/>
</g>
<!-- Node13 -->
<g id="node13" class="node">
<title>Node13</title>
<g id="a_node13"><a xlink:href="../../d6/ddf/Arduino-Wrapper_8h.html" target="_top" xlink:title=" ">
<polygon fill="white" stroke="black" points="228,-168.5 228,-187.5 352,-187.5 352,-168.5 228,-168.5"/>
<text text-anchor="middle" x="290" y="-175.5" font-family="Helvetica,sans-Serif" font-size="10.00">AH/Arduino&#45;Wrapper.h</text>
</a>
</g>
</g>
<!-- Node6&#45;&gt;Node13 -->
<g id="edge56" class="edge">
<title>Node6&#45;&gt;Node13</title>
<path fill="none" stroke="midnightblue" d="M1339.76,-638.28C1094.38,-624.74 191.99,-568.35 119,-468 46.75,-368.67 209.24,-237.09 269.03,-193.62"/>
<polygon fill="midnightblue" stroke="midnightblue" points="271.29,-196.31 277.38,-187.64 267.21,-190.62 271.29,-196.31"/>
</g>
<!-- Node28 -->
<g id="node28" class="node">
<title>Node28</title>
<g id="a_node28"><a xlink:href="../../d0/db1/FunctionTraits_8hpp.html" target="_top" xlink:title=" ">
<polygon fill="white" stroke="black" points="1416.5,-112.5 1416.5,-131.5 1569.5,-131.5 1569.5,-112.5 1416.5,-112.5"/>
<text text-anchor="middle" x="1493" y="-119.5" font-family="Helvetica,sans-Serif" font-size="10.00">AH/Types/FunctionTraits.hpp</text>
</a>
</g>
</g>
<!-- Node6&#45;&gt;Node28 -->
<g id="edge51" class="edge">
<title>Node6&#45;&gt;Node28</title>
<path fill="none" stroke="midnightblue" d="M1416.54,-627.19C1438.51,-605.31 1476,-561.21 1476,-515 1476,-515 1476,-515 1476,-233 1476,-200.58 1483.3,-163.42 1488.33,-141.64"/>
<polygon fill="midnightblue" stroke="midnightblue" points="1491.77,-142.31 1490.71,-131.77 1484.97,-140.67 1491.77,-142.31"/>
</g>
<!-- Node7&#45;&gt;Node2 -->
<g id="edge10" class="edge">
<title>Node7&#45;&gt;Node2</title>
<path fill="none" stroke="midnightblue" d="M1173.02,-560.39C1197.24,-540.64 1236,-502.28 1236,-459 1236,-459 1236,-459 1236,-121 1236,-67.13 1172.82,-37.14 1127.4,-22.54"/>
<polygon fill="midnightblue" stroke="midnightblue" points="1128.3,-19.16 1117.72,-19.57 1126.25,-25.85 1128.3,-19.16"/>
</g>
<!-- Node8 -->
<g id="node8" class="node">
<title>Node8</title>
<g id="a_node8"><a xlink:href="../../de/d76/Array_8hpp.html" target="_top" xlink:title=" ">
<polygon fill="white" stroke="black" points="691.5,-504.5 691.5,-523.5 826.5,-523.5 826.5,-504.5 691.5,-504.5"/>
<text text-anchor="middle" x="759" y="-511.5" font-family="Helvetica,sans-Serif" font-size="10.00">AH/Containers/Array.hpp</text>
</a>
</g>
</g>
<!-- Node7&#45;&gt;Node8 -->
<g id="edge11" class="edge">
<title>Node7&#45;&gt;Node8</title>
<path fill="none" stroke="midnightblue" d="M1088.33,-564.61C1015.52,-553.64 898.72,-536.05 825.56,-525.03"/>
<polygon fill="midnightblue" stroke="midnightblue" points="825.94,-521.54 815.53,-523.52 824.9,-528.47 825.94,-521.54"/>
</g>
<!-- Node11 -->
<g id="node11" class="node">
<title>Node11</title>
<g id="a_node11"><a xlink:href="../../dd/d80/PrintStream_8hpp.html" target="_top" xlink:title=" ">
<polygon fill="white" stroke="black" points="218.5,-336.5 218.5,-355.5 391.5,-355.5 391.5,-336.5 218.5,-336.5"/>
<text text-anchor="middle" x="305" y="-343.5" font-family="Helvetica,sans-Serif" font-size="10.00">AH/PrintStream/PrintStream.hpp</text>
</a>
</g>
</g>
<!-- Node7&#45;&gt;Node11 -->
<g id="edge47" class="edge">
<title>Node7&#45;&gt;Node11</title>
<path fill="none" stroke="midnightblue" d="M1088.24,-570.98C970.6,-564.32 716.43,-548.35 503,-524 461.58,-519.27 159.19,-499.6 132,-468 88.09,-416.97 196.25,-376.88 260.86,-358.3"/>
<polygon fill="midnightblue" stroke="midnightblue" points="262.15,-361.57 270.83,-355.5 260.26,-354.83 262.15,-361.57"/>
</g>
<!-- Node7&#45;&gt;Node12 -->
<g id="edge49" class="edge">
<title>Node7&#45;&gt;Node12</title>
<path fill="none" stroke="midnightblue" d="M1088.38,-570C1024.2,-564.07 932.99,-551.03 911,-524 905.39,-517.1 905.77,-511.19 911,-504 941.5,-462.05 991.5,-509.95 1022,-468 1056.5,-420.55 1027.18,-394.44 1022,-336 1013.08,-235.26 1039.88,-194.93 982,-112 971.8,-97.38 955.2,-86.81 940.03,-79.61"/>
<polygon fill="midnightblue" stroke="midnightblue" points="941.39,-76.38 930.83,-75.55 938.57,-82.79 941.39,-76.38"/>
</g>
<!-- Node24 -->
<g id="node24" class="node">
<title>Node24</title>
<g id="a_node24"><a xlink:title=" ">
<polygon fill="white" stroke="#bfbfbf" points="1148.5,-224.5 1148.5,-243.5 1201.5,-243.5 1201.5,-224.5 1148.5,-224.5"/>
<text text-anchor="middle" x="1175" y="-231.5" font-family="Helvetica,sans-Serif" font-size="10.00">stdint.h</text>
</a>
</g>
</g>
<!-- Node7&#45;&gt;Node24 -->
<g id="edge50" class="edge">
<title>Node7&#45;&gt;Node24</title>
<path fill="none" stroke="midnightblue" d="M1163.33,-560.22C1176.25,-539.03 1198,-497.62 1198,-459 1198,-459 1198,-459 1198,-401 1198,-347.08 1185.95,-284.23 1179.29,-253.64"/>
<polygon fill="midnightblue" stroke="midnightblue" points="1182.64,-252.58 1177.04,-243.58 1175.81,-254.11 1182.64,-252.58"/>
</g>
<!-- Node27 -->
<g id="node27" class="node">
<title>Node27</title>
<g id="a_node27"><a xlink:title=" ">
<polygon fill="white" stroke="#bfbfbf" points="1088,-504.5 1088,-523.5 1170,-523.5 1170,-504.5 1088,-504.5"/>
<text text-anchor="middle" x="1129" y="-511.5" font-family="Helvetica,sans-Serif" font-size="10.00">AH/STL/limits</text>
</a>
</g>
</g>
<!-- Node7&#45;&gt;Node27 -->
<g id="edge48" class="edge">
<title>Node7&#45;&gt;Node27</title>
<path fill="none" stroke="midnightblue" d="M1148.08,-560.4C1144.63,-552.2 1140.25,-541.78 1136.56,-532.99"/>
<polygon fill="midnightblue" stroke="midnightblue" points="1139.74,-531.52 1132.64,-523.66 1133.28,-534.23 1139.74,-531.52"/>
</g>
<!-- Node8&#45;&gt;Node2 -->
<g id="edge12" class="edge">
<title>Node8&#45;&gt;Node2</title>
<path fill="none" stroke="midnightblue" d="M819.67,-504.47C849.26,-498.08 884.16,-487.01 911,-468 1040.35,-376.38 1120,-337.51 1120,-179 1120,-179 1120,-179 1120,-121 1120,-86.81 1103.4,-49.76 1092.14,-28.57"/>
<polygon fill="midnightblue" stroke="midnightblue" points="1095.18,-26.83 1087.28,-19.77 1089.05,-30.22 1095.18,-26.83"/>
</g>
<!-- Node9 -->
<g id="node9" class="node">
<title>Node9</title>
<g id="a_node9"><a xlink:href="../../d1/d93/Error_8hpp.html" target="_top" xlink:title=" ">
<polygon fill="white" stroke="black" points="762,-448.5 762,-467.5 866,-467.5 866,-448.5 762,-448.5"/>
<text text-anchor="middle" x="814" y="-455.5" font-family="Helvetica,sans-Serif" font-size="10.00">AH/Error/Error.hpp</text>
</a>
</g>
</g>
<!-- Node8&#45;&gt;Node9 -->
<g id="edge13" class="edge">
<title>Node8&#45;&gt;Node9</title>
<path fill="none" stroke="midnightblue" d="M768.08,-504.08C776.17,-496.14 788.2,-484.34 797.91,-474.8"/>
<polygon fill="midnightblue" stroke="midnightblue" points="800.4,-477.25 805.09,-467.75 795.5,-472.26 800.4,-477.25"/>
</g>
<!-- Node17 -->
<g id="node17" class="node">
<title>Node17</title>
<g id="a_node17"><a xlink:title=" ">
<polygon fill="white" stroke="#bfbfbf" points="832.5,-112.5 832.5,-131.5 939.5,-131.5 939.5,-112.5 832.5,-112.5"/>
<text text-anchor="middle" x="886" y="-119.5" font-family="Helvetica,sans-Serif" font-size="10.00">AH/STL/type_traits</text>
</a>
</g>
</g>
<!-- Node8&#45;&gt;Node17 -->
<g id="edge45" class="edge">
<title>Node8&#45;&gt;Node17</title>
<path fill="none" stroke="midnightblue" d="M826.63,-506.04C850.9,-499.92 875.96,-488.65 891,-468 937.33,-404.41 894,-369.68 894,-291 894,-291 894,-291 894,-233 894,-200.86 890.56,-163.58 888.19,-141.72"/>
<polygon fill="midnightblue" stroke="midnightblue" points="891.64,-141.09 887.05,-131.54 884.69,-141.87 891.64,-141.09"/>
</g>
<!-- Node23 -->
<g id="node23" class="node">
<title>Node23</title>
<g id="a_node23"><a xlink:title=" ">
<polygon fill="white" stroke="#bfbfbf" points="714,-224.5 714,-243.5 770,-243.5 770,-224.5 714,-224.5"/>
<text text-anchor="middle" x="742" y="-231.5" font-family="Helvetica,sans-Serif" font-size="10.00">stddef.h</text>
</a>
</g>
</g>
<!-- Node8&#45;&gt;Node23 -->
<g id="edge46" class="edge">
<title>Node8&#45;&gt;Node23</title>
<path fill="none" stroke="midnightblue" d="M817.57,-504.48C839.33,-498.16 861.88,-487.16 875,-468 880.02,-460.67 877.45,-456.54 875,-448 851.53,-366.09 786.38,-285.11 756.87,-251.37"/>
<polygon fill="midnightblue" stroke="midnightblue" points="759.44,-248.99 750.18,-243.84 754.2,-253.64 759.44,-248.99"/>
</g>
<!-- Node26 -->
<g id="node26" class="node">
<title>Node26</title>
<g id="a_node26"><a xlink:title=" ">
<polygon fill="white" stroke="#bfbfbf" points="308,-392.5 308,-411.5 398,-411.5 398,-392.5 308,-392.5"/>
<text text-anchor="middle" x="353" y="-399.5" font-family="Helvetica,sans-Serif" font-size="10.00">AH/STL/iterator</text>
</a>
</g>
</g>
<!-- Node8&#45;&gt;Node26 -->
<g id="edge44" class="edge">
<title>Node8&#45;&gt;Node26</title>
<path fill="none" stroke="midnightblue" d="M736.02,-504.47C699.66,-491.18 626.48,-465.27 563,-448 511.04,-433.86 450.87,-421.35 408.29,-413.14"/>
<polygon fill="midnightblue" stroke="midnightblue" points="408.88,-409.69 398.4,-411.24 407.57,-416.56 408.88,-409.69"/>
</g>
<!-- Node9&#45;&gt;Node2 -->
<g id="edge14" class="edge">
<title>Node9&#45;&gt;Node2</title>
<path fill="none" stroke="midnightblue" d="M823.86,-448.29C872.21,-405.37 1082,-216.96 1082,-179 1082,-179 1082,-179 1082,-121 1082,-88.95 1082,-51.64 1082,-29.75"/>
<polygon fill="midnightblue" stroke="midnightblue" points="1085.5,-29.56 1082,-19.56 1078.5,-29.56 1085.5,-29.56"/>
</g>
<!-- Node10 -->
<g id="node10" class="node">
<title>Node10</title>
<g id="a_node10"><a xlink:href="../../df/dee/Debug_8hpp.html" target="_top" xlink:title=" ">
<polygon fill="white" stroke="black" points="452.5,-392.5 452.5,-411.5 573.5,-411.5 573.5,-392.5 452.5,-392.5"/>
<text text-anchor="middle" x="513" y="-399.5" font-family="Helvetica,sans-Serif" font-size="10.00">AH/Debug/Debug.hpp</text>
</a>
</g>
</g>
<!-- Node9&#45;&gt;Node10 -->
<g id="edge15" class="edge">
<title>Node9&#45;&gt;Node10</title>
<path fill="none" stroke="midnightblue" d="M766.31,-448.44C713.14,-438.9 627.18,-423.48 570.37,-413.29"/>
<polygon fill="midnightblue" stroke="midnightblue" points="570.93,-409.84 560.47,-411.52 569.7,-416.73 570.93,-409.84"/>
</g>
<!-- Node10&#45;&gt;Node2 -->
<g id="edge16" class="edge">
<title>Node10&#45;&gt;Node2</title>
<path fill="none" stroke="midnightblue" d="M497.26,-392.34C481.98,-383.73 458.32,-369.83 439,-356 375.89,-310.82 337.87,-314.31 305,-244 290.09,-212.11 333.59,-210.09 361,-188 425.6,-135.94 417.61,-90.65 493,-56 581.07,-15.52 860.19,-10.29 1000.22,-10.32"/>
<polygon fill="midnightblue" stroke="midnightblue" points="1000.47,-13.82 1010.47,-10.33 1000.47,-6.82 1000.47,-13.82"/>
</g>
<!-- Node10&#45;&gt;Node11 -->
<g id="edge17" class="edge">
<title>Node10&#45;&gt;Node11</title>
<path fill="none" stroke="midnightblue" d="M480.04,-392.44C444.21,-383.14 386.84,-368.25 347.61,-358.06"/>
<polygon fill="midnightblue" stroke="midnightblue" points="348.36,-354.64 337.8,-355.52 346.6,-361.42 348.36,-354.64"/>
</g>
<!-- Node18 -->
<g id="node18" class="node">
<title>Node18</title>
<g id="a_node18"><a xlink:href="../../d2/dd5/SettingsWrapper_8hpp.html" target="_top" xlink:title=" ">
<polygon fill="white" stroke="black" points="448,-336.5 448,-355.5 626,-355.5 626,-336.5 448,-336.5"/>
<text text-anchor="middle" x="537" y="-343.5" font-family="Helvetica,sans-Serif" font-size="10.00">AH/Settings/SettingsWrapper.hpp</text>
</a>
</g>
</g>
<!-- Node10&#45;&gt;Node18 -->
<g id="edge29" class="edge">
<title>Node10&#45;&gt;Node18</title>
<path fill="none" stroke="midnightblue" d="M511.8,-392.08C513.54,-384.61 517.98,-373.72 522.85,-364.52"/>
<polygon fill="midnightblue" stroke="midnightblue" points="525.95,-366.15 527.98,-355.75 519.91,-362.61 525.95,-366.15"/>
</g>
<!-- Node11&#45;&gt;Node2 -->
<g id="edge19" class="edge">
<title>Node11&#45;&gt;Node2</title>
<path fill="none" stroke="midnightblue" d="M295.8,-336.16C262.99,-303.6 156.67,-188.26 213,-112 236.16,-80.64 257.62,-92.38 293,-76 311.76,-67.31 314.98,-61.16 335,-56 458.69,-24.11 833.08,-14.66 1000.07,-11.99"/>
<polygon fill="midnightblue" stroke="midnightblue" points="1000.34,-15.49 1010.28,-11.83 1000.23,-8.49 1000.34,-15.49"/>
</g>
<!-- Node11&#45;&gt;Node12 -->
<g id="edge18" class="edge">
<title>Node11&#45;&gt;Node12</title>
<path fill="none" stroke="midnightblue" d="M315.68,-336.42C332.5,-323.19 366.48,-297.49 398,-280 408.4,-274.23 781,-116.53 792,-112 819.38,-100.71 850.67,-88.29 873.38,-79.36"/>
<polygon fill="midnightblue" stroke="midnightblue" points="874.82,-82.55 882.85,-75.64 872.26,-76.04 874.82,-82.55"/>
</g>
<!-- Node11&#45;&gt;Node13 -->
<g id="edge20" class="edge">
<title>Node11&#45;&gt;Node13</title>
<path fill="none" stroke="midnightblue" d="M299.31,-336.43C293.76,-327.65 285.52,-313.43 281,-300 270.15,-267.76 265.57,-257.4 272,-224 273.79,-214.7 277.48,-204.89 281.06,-196.8"/>
<polygon fill="midnightblue" stroke="midnightblue" points="284.27,-198.2 285.38,-187.66 277.94,-195.21 284.27,-198.2"/>
</g>
<!-- Node14 -->
<g id="node14" class="node">
<title>Node14</title>
<g id="a_node14"><a xlink:href="../../d7/d79/MinMaxFix_8hpp.html" target="_top" xlink:title=" ">
<polygon fill="white" stroke="black" points="222,-112.5 222,-131.5 358,-131.5 358,-112.5 222,-112.5"/>
<text text-anchor="middle" x="290" y="-119.5" font-family="Helvetica,sans-Serif" font-size="10.00">AH/Math/MinMaxFix.hpp</text>
</a>
</g>
</g>
<!-- Node13&#45;&gt;Node14 -->
<g id="edge21" class="edge">
<title>Node13&#45;&gt;Node14</title>
<path fill="none" stroke="midnightblue" d="M290,-168.08C290,-161.01 290,-150.86 290,-141.99"/>
<polygon fill="midnightblue" stroke="midnightblue" points="293.5,-141.75 290,-131.75 286.5,-141.75 293.5,-141.75"/>
</g>
<!-- Node16 -->
<g id="node16" class="node">
<title>Node16</title>
<g id="a_node16"><a xlink:title=" ">
<polygon fill="white" stroke="#bfbfbf" points="92.5,-0.5 92.5,-19.5 155.5,-19.5 155.5,-0.5 92.5,-0.5"/>
<text text-anchor="middle" x="124" y="-7.5" font-family="Helvetica,sans-Serif" font-size="10.00">Arduino.h</text>
</a>
</g>
</g>
<!-- Node13&#45;&gt;Node16 -->
<g id="edge28" class="edge">
<title>Node13&#45;&gt;Node16</title>
<path fill="none" stroke="midnightblue" d="M251.75,-168.47C207.49,-156.32 136.65,-129.34 105,-76 96.13,-61.05 103.85,-41.68 111.95,-27.99"/>
<polygon fill="midnightblue" stroke="midnightblue" points="114.92,-29.84 117.42,-19.54 109.04,-26.03 114.92,-29.84"/>
</g>
<!-- Node13&#45;&gt;Node17 -->
<g id="edge27" class="edge">
<title>Node13&#45;&gt;Node17</title>
<path fill="none" stroke="midnightblue" d="M352.1,-171.37C465.98,-161.06 707.1,-139.21 822.22,-128.78"/>
<polygon fill="midnightblue" stroke="midnightblue" points="822.65,-132.25 832.29,-127.87 822.02,-125.28 822.65,-132.25"/>
</g>
<!-- Node14&#45;&gt;Node2 -->
<g id="edge22" class="edge">
<title>Node14&#45;&gt;Node2</title>
<path fill="none" stroke="midnightblue" d="M297.77,-112.27C311.47,-97.56 341.57,-68.25 374,-56 486.4,-13.56 838.66,-9.67 999.92,-10.22"/>
<polygon fill="midnightblue" stroke="midnightblue" points="1000.25,-13.72 1010.27,-10.27 1000.28,-6.72 1000.25,-13.72"/>
</g>
<!-- Node14&#45;&gt;Node12 -->
<g id="edge26" class="edge">
<title>Node14&#45;&gt;Node12</title>
<path fill="none" stroke="midnightblue" d="M358.17,-115.01C464.66,-105.66 671.39,-87.51 797.91,-76.4"/>
<polygon fill="midnightblue" stroke="midnightblue" points="798.36,-79.88 808.01,-75.52 797.75,-72.9 798.36,-79.88"/>
</g>
<!-- Node15 -->
<g id="node15" class="node">
<title>Node15</title>
<g id="a_node15"><a xlink:href="../../d6/d3b/FixArduinoMacros_8hpp.html" target="_top" xlink:title=" ">
<polygon fill="white" stroke="black" points="114,-56.5 114,-75.5 284,-75.5 284,-56.5 114,-56.5"/>
<text text-anchor="middle" x="199" y="-63.5" font-family="Helvetica,sans-Serif" font-size="10.00">AH/Math/FixArduinoMacros.hpp</text>
</a>
</g>
</g>
<!-- Node14&#45;&gt;Node15 -->
<g id="edge23" class="edge">
<title>Node14&#45;&gt;Node15</title>
<path fill="none" stroke="midnightblue" d="M275.38,-112.32C261.05,-103.82 238.99,-90.73 222.25,-80.8"/>
<polygon fill="midnightblue" stroke="midnightblue" points="223.97,-77.75 213.58,-75.65 220.4,-83.77 223.97,-77.75"/>
</g>
<!-- Node15&#45;&gt;Node2 -->
<g id="edge24" class="edge">
<title>Node15&#45;&gt;Node2</title>
<path fill="none" stroke="midnightblue" d="M284.04,-57.08C288.76,-56.7 293.44,-56.34 298,-56 553.83,-37.03 857.14,-21.64 999.92,-14.81"/>
<polygon fill="midnightblue" stroke="midnightblue" points="1000.51,-18.29 1010.33,-14.31 1000.18,-11.29 1000.51,-18.29"/>
</g>
<!-- Node15&#45;&gt;Node16 -->
<g id="edge25" class="edge">
<title>Node15&#45;&gt;Node16</title>
<path fill="none" stroke="midnightblue" d="M186.95,-56.32C175.54,-48.11 158.17,-35.6 144.57,-25.81"/>
<polygon fill="midnightblue" stroke="midnightblue" points="146.43,-22.84 136.27,-19.83 142.34,-28.52 146.43,-22.84"/>
</g>
<!-- Node18&#45;&gt;Node2 -->
<g id="edge30" class="edge">
<title>Node18&#45;&gt;Node2</title>
<path fill="none" stroke="midnightblue" d="M455.85,-336.49C433.54,-329.99 411.73,-318.87 398,-300 392.77,-292.81 393.14,-287.44 398,-280 419.76,-246.68 447.79,-267.38 480,-244 511.33,-221.25 538,-217.72 538,-179 538,-179 538,-179 538,-121 538,-27.87 848.18,-12.66 1000.11,-10.8"/>
<polygon fill="midnightblue" stroke="midnightblue" points="1000.36,-14.3 1010.32,-10.7 1000.29,-7.3 1000.36,-14.3"/>
</g>
<!-- Node18&#45;&gt;Node10 -->
<g id="edge43" class="edge">
<title>Node18&#45;&gt;Node10</title>
<path fill="none" stroke="midnightblue" d="M538.24,-355.75C536.54,-363.17 532.12,-374.05 527.26,-383.27"/>
<polygon fill="midnightblue" stroke="midnightblue" points="524.14,-381.68 522.13,-392.08 530.19,-385.2 524.14,-381.68"/>
</g>
<!-- Node18&#45;&gt;Node12 -->
<g id="edge31" class="edge">
<title>Node18&#45;&gt;Node12</title>
<path fill="none" stroke="midnightblue" d="M613.88,-336.45C639.15,-330.07 665.48,-319.03 684,-300 708.44,-274.88 686.97,-254.05 705,-224 742.21,-162 764.6,-154.63 823,-112 839.99,-99.59 860.79,-88.22 877.19,-80.01"/>
<polygon fill="midnightblue" stroke="midnightblue" points="878.83,-83.1 886.27,-75.56 875.75,-76.81 878.83,-83.1"/>
</g>
<!-- Node19 -->
<g id="node19" class="node">
<title>Node19</title>
<g id="a_node19"><a xlink:href="../../db/d02/Settings_8hpp.html" target="_top" xlink:title="All user settings and debugging options can be changed here.">
<polygon fill="white" stroke="black" points="407.5,-280.5 407.5,-299.5 484.5,-299.5 484.5,-280.5 407.5,-280.5"/>
<text text-anchor="middle" x="446" y="-287.5" font-family="Helvetica,sans-Serif" font-size="10.00">Settings.hpp</text>
</a>
</g>
</g>
<!-- Node18&#45;&gt;Node19 -->
<g id="edge32" class="edge">
<title>Node18&#45;&gt;Node19</title>
<path fill="none" stroke="midnightblue" d="M522.38,-336.32C508.05,-327.82 485.99,-314.73 469.25,-304.8"/>
<polygon fill="midnightblue" stroke="midnightblue" points="470.97,-301.75 460.58,-299.65 467.4,-307.77 470.97,-301.75"/>
</g>
<!-- Node25 -->
<g id="node25" class="node">
<title>Node25</title>
<g id="a_node25"><a xlink:href="../../d9/d98/TeensyUSBTypes_8hpp.html" target="_top" xlink:title=" ">
<polygon fill="white" stroke="black" points="502.5,-280.5 502.5,-299.5 675.5,-299.5 675.5,-280.5 502.5,-280.5"/>
<text text-anchor="middle" x="589" y="-287.5" font-family="Helvetica,sans-Serif" font-size="10.00">AH/Teensy/TeensyUSBTypes.hpp</text>
</a>
</g>
</g>
<!-- Node18&#45;&gt;Node25 -->
<g id="edge42" class="edge">
<title>Node18&#45;&gt;Node25</title>
<path fill="none" stroke="midnightblue" d="M545.59,-336.08C553.16,-328.22 564.38,-316.57 573.51,-307.08"/>
<polygon fill="midnightblue" stroke="midnightblue" points="576.16,-309.38 580.57,-299.75 571.12,-304.53 576.16,-309.38"/>
</g>
<!-- Node20 -->
<g id="node20" class="node">
<title>Node20</title>
<g id="a_node20"><a xlink:href="../../dc/d50/Frequency_8hpp.html" target="_top" xlink:title=" ">
<polygon fill="white" stroke="black" points="566,-112.5 566,-131.5 700,-131.5 700,-112.5 566,-112.5"/>
<text text-anchor="middle" x="633" y="-119.5" font-family="Helvetica,sans-Serif" font-size="10.00">AH/Types/Frequency.hpp</text>
</a>
</g>
</g>
<!-- Node19&#45;&gt;Node20 -->
<g id="edge33" class="edge">
<title>Node19&#45;&gt;Node20</title>
<path fill="none" stroke="midnightblue" d="M484.68,-280.67C536.73,-269.28 623.41,-249.62 628,-244 651.86,-214.79 644.74,-167.11 638.34,-141.18"/>
<polygon fill="midnightblue" stroke="midnightblue" points="641.71,-140.26 635.73,-131.52 634.95,-142.09 641.71,-140.26"/>
</g>
<!-- Node21 -->
<g id="node21" class="node">
<title>Node21</title>
<g id="a_node21"><a xlink:href="../../d7/d7c/ADCConfig_8hpp.html" target="_top" xlink:title="This file contains the platform&#45;specific ADC resolutions.">
<polygon fill="white" stroke="black" points="314.5,-224.5 314.5,-243.5 471.5,-243.5 471.5,-224.5 314.5,-224.5"/>
<text text-anchor="middle" x="393" y="-231.5" font-family="Helvetica,sans-Serif" font-size="10.00">AH/Hardware/ADCConfig.hpp</text>
</a>
</g>
</g>
<!-- Node19&#45;&gt;Node21 -->
<g id="edge36" class="edge">
<title>Node19&#45;&gt;Node21</title>
<path fill="none" stroke="midnightblue" d="M437.25,-280.08C429.53,-272.22 418.1,-260.57 408.78,-251.08"/>
<polygon fill="midnightblue" stroke="midnightblue" points="411.09,-248.44 401.59,-243.75 406.1,-253.34 411.09,-248.44"/>
</g>
<!-- Node22 -->
<g id="node22" class="node">
<title>Node22</title>
<g id="a_node22"><a xlink:title=" ">
<polygon fill="white" stroke="#bfbfbf" points="566.5,-224.5 566.5,-243.5 619.5,-243.5 619.5,-224.5 566.5,-224.5"/>
<text text-anchor="middle" x="593" y="-231.5" font-family="Helvetica,sans-Serif" font-size="10.00">limits.h</text>
</a>
</g>
</g>
<!-- Node19&#45;&gt;Node22 -->
<g id="edge39" class="edge">
<title>Node19&#45;&gt;Node22</title>
<path fill="none" stroke="midnightblue" d="M469.29,-280.44C493.81,-271.44 532.6,-257.19 560.2,-247.05"/>
<polygon fill="midnightblue" stroke="midnightblue" points="561.64,-250.25 569.82,-243.52 559.22,-243.68 561.64,-250.25"/>
</g>
<!-- Node19&#45;&gt;Node23 -->
<g id="edge40" class="edge">
<title>Node19&#45;&gt;Node23</title>
<path fill="none" stroke="midnightblue" d="M484.72,-281.55C487.52,-281.02 490.3,-280.5 493,-280 567.64,-266.11 654.98,-250.47 703.86,-241.77"/>
<polygon fill="midnightblue" stroke="midnightblue" points="704.74,-245.16 713.98,-239.97 703.52,-238.27 704.74,-245.16"/>
</g>
<!-- Node19&#45;&gt;Node24 -->
<g id="edge41" class="edge">
<title>Node19&#45;&gt;Node24</title>
<path fill="none" stroke="midnightblue" d="M484.67,-281.2C487.48,-280.76 490.28,-280.35 493,-280 737.97,-248.59 1035.41,-238.51 1138.08,-235.84"/>
<polygon fill="midnightblue" stroke="midnightblue" points="1138.33,-239.33 1148.24,-235.58 1138.15,-232.33 1138.33,-239.33"/>
</g>
<!-- Node20&#45;&gt;Node2 -->
<g id="edge34" class="edge">
<title>Node20&#45;&gt;Node2</title>
<path fill="none" stroke="midnightblue" d="M640.5,-112.47C653.72,-98.05 682.76,-69.17 714,-56 764.02,-34.91 907.89,-22.08 1000.22,-15.77"/>
<polygon fill="midnightblue" stroke="midnightblue" points="1000.63,-19.26 1010.38,-15.09 1000.16,-12.27 1000.63,-19.26"/>
</g>
<!-- Node20&#45;&gt;Node12 -->
<g id="edge35" class="edge">
<title>Node20&#45;&gt;Node12</title>
<path fill="none" stroke="midnightblue" d="M676.1,-112.44C723.85,-102.96 800.86,-87.67 852.19,-77.48"/>
<polygon fill="midnightblue" stroke="midnightblue" points="852.98,-80.9 862.1,-75.52 851.61,-74.03 852.98,-80.9"/>
</g>
<!-- Node21&#45;&gt;Node2 -->
<g id="edge37" class="edge">
<title>Node21&#45;&gt;Node2</title>
<path fill="none" stroke="midnightblue" d="M396.31,-224.32C408.18,-194.54 451.81,-96.1 524,-56 564.58,-33.46 855.34,-19.5 1000.28,-13.87"/>
<polygon fill="midnightblue" stroke="midnightblue" points="1000.61,-17.36 1010.46,-13.48 1000.34,-10.36 1000.61,-17.36"/>
</g>
<!-- Node21&#45;&gt;Node13 -->
<g id="edge38" class="edge">
<title>Node21&#45;&gt;Node13</title>
<path fill="none" stroke="midnightblue" d="M376.45,-224.32C360.01,-215.7 334.57,-202.36 315.53,-192.39"/>
<polygon fill="midnightblue" stroke="midnightblue" points="316.99,-189.2 306.51,-187.65 313.74,-195.4 316.99,-189.2"/>
</g>
<!-- Node28&#45;&gt;Node2 -->
<g id="edge54" class="edge">
<title>Node28&#45;&gt;Node2</title>
<path fill="none" stroke="midnightblue" d="M1483.83,-112.08C1468.38,-97.64 1435.54,-69.39 1402,-56 1325.1,-25.29 1230.49,-15.03 1164.17,-11.85"/>
<polygon fill="midnightblue" stroke="midnightblue" points="1163.92,-8.34 1153.77,-11.4 1163.61,-15.33 1163.92,-8.34"/>
</g>
<!-- Node28&#45;&gt;Node12 -->
<g id="edge55" class="edge">
<title>Node28&#45;&gt;Node12</title>
<path fill="none" stroke="midnightblue" d="M1416.43,-113.97C1311.94,-104.37 1124.38,-87.15 1007.75,-76.44"/>
<polygon fill="midnightblue" stroke="midnightblue" points="1008.01,-72.95 997.74,-75.52 1007.37,-79.92 1008.01,-72.95"/>
</g>
<!-- Node29 -->
<g id="node29" class="node">
<title>Node29</title>
<g id="a_node29"><a xlink:title=" ">
<polygon fill="white" stroke="#bfbfbf" points="1454,-56.5 1454,-75.5 1544,-75.5 1544,-56.5 1454,-56.5"/>
<text text-anchor="middle" x="1499" y="-63.5" font-family="Helvetica,sans-Serif" font-size="10.00">AH/STL/cstddef</text>
</a>
</g>
</g>
<!-- Node28&#45;&gt;Node29 -->
<g id="edge52" class="edge">
<title>Node28&#45;&gt;Node29</title>
<path fill="none" stroke="midnightblue" d="M1493.99,-112.08C1494.79,-104.93 1495.93,-94.64 1496.92,-85.69"/>
<polygon fill="midnightblue" stroke="midnightblue" points="1500.4,-86.08 1498.03,-75.75 1493.44,-85.3 1500.4,-86.08"/>
</g>
<!-- Node30 -->
<g id="node30" class="node">
<title>Node30</title>
<g id="a_node30"><a xlink:title=" ">
<polygon fill="white" stroke="#bfbfbf" points="1562.5,-56.5 1562.5,-75.5 1641.5,-75.5 1641.5,-56.5 1562.5,-56.5"/>
<text text-anchor="middle" x="1602" y="-63.5" font-family="Helvetica,sans-Serif" font-size="10.00">AH/STL/tuple</text>
</a>
</g>
</g>
<!-- Node28&#45;&gt;Node30 -->
<g id="edge53" class="edge">
<title>Node28&#45;&gt;Node30</title>
<path fill="none" stroke="midnightblue" d="M1510.51,-112.32C1528.07,-103.62 1555.33,-90.12 1575.53,-80.11"/>
<polygon fill="midnightblue" stroke="midnightblue" points="1577.12,-83.23 1584.53,-75.65 1574.02,-76.96 1577.12,-83.23"/>
</g>
<!-- Node32&#45;&gt;Node2 -->
<g id="edge61" class="edge">
<title>Node32&#45;&gt;Node2</title>
<path fill="none" stroke="midnightblue" d="M604.86,-504.23C615.83,-495.75 632.18,-482.13 644,-468 674.87,-431.11 750.11,-330.89 779,-244 805.5,-164.31 740.32,-117.04 798,-56 824.98,-27.46 926.08,-17 1000,-13.18"/>
<polygon fill="midnightblue" stroke="midnightblue" points="1000.42,-16.66 1010.24,-12.68 1000.08,-9.67 1000.42,-16.66"/>
</g>
<!-- Node32&#45;&gt;Node9 -->
<g id="edge69" class="edge">
<title>Node32&#45;&gt;Node9</title>
<path fill="none" stroke="midnightblue" d="M628.02,-504.44C666.25,-495.1 727.57,-480.12 769.26,-469.93"/>
<polygon fill="midnightblue" stroke="midnightblue" points="770.26,-473.29 779.15,-467.52 768.6,-466.49 770.26,-473.29"/>
</g>
<!-- Node32&#45;&gt;Node17 -->
<g id="edge70" class="edge">
<title>Node32&#45;&gt;Node17</title>
<path fill="none" stroke="midnightblue" d="M628.28,-504.48C652.77,-497.41 685.29,-485.64 710,-468 826.73,-384.69 871.12,-200.73 882.68,-141.65"/>
<polygon fill="midnightblue" stroke="midnightblue" points="886.17,-142.04 884.57,-131.57 879.29,-140.76 886.17,-142.04"/>
</g>
<!-- Node32&#45;&gt;Node18 -->
<g id="edge72" class="edge">
<title>Node32&#45;&gt;Node18</title>
<path fill="none" stroke="midnightblue" d="M594.15,-504.27C596.47,-483.62 600.07,-430.59 582,-392 576.55,-380.36 566.75,-370 557.69,-362.17"/>
<polygon fill="midnightblue" stroke="midnightblue" points="559.69,-359.29 549.72,-355.72 555.29,-364.73 559.69,-359.29"/>
</g>
<!-- Node32&#45;&gt;Node23 -->
<g id="edge73" class="edge">
<title>Node32&#45;&gt;Node23</title>
<path fill="none" stroke="midnightblue" d="M598.82,-504.38C617.77,-476.05 678.73,-382.93 718,-300 725.24,-284.71 731.77,-266.61 736.18,-253.39"/>
<polygon fill="midnightblue" stroke="midnightblue" points="739.6,-254.2 739.36,-243.61 732.94,-252.04 739.6,-254.2"/>
</g>
<!-- Node33 -->
<g id="node33" class="node">
<title>Node33</title>
<g id="a_node33"><a xlink:href="../../d4/dba/CRTP_8hpp.html" target="_top" xlink:title=" ">
<polygon fill="white" stroke="black" points="420,-448.5 420,-467.5 554,-467.5 554,-448.5 420,-448.5"/>
<text text-anchor="middle" x="487" y="-455.5" font-family="Helvetica,sans-Serif" font-size="10.00">AH/Containers/CRTP.hpp</text>
</a>
</g>
</g>
<!-- Node32&#45;&gt;Node33 -->
<g id="edge62" class="edge">
<title>Node32&#45;&gt;Node33</title>
<path fill="none" stroke="midnightblue" d="M575.97,-504.32C558.97,-495.66 532.62,-482.24 513.01,-472.25"/>
<polygon fill="midnightblue" stroke="midnightblue" points="514.49,-469.08 503.99,-467.65 511.31,-475.31 514.49,-469.08"/>
</g>
<!-- Node34 -->
<g id="node34" class="node">
<title>Node34</title>
<g id="a_node34"><a xlink:href="../../de/dd1/LinkedList_8hpp.html" target="_top" xlink:title=" ">
<polygon fill="white" stroke="black" points="141.5,-448.5 141.5,-467.5 300.5,-467.5 300.5,-448.5 141.5,-448.5"/>
<text text-anchor="middle" x="221" y="-455.5" font-family="Helvetica,sans-Serif" font-size="10.00">AH/Containers/LinkedList.hpp</text>
</a>
</g>
</g>
<!-- Node32&#45;&gt;Node34 -->
<g id="edge63" class="edge">
<title>Node32&#45;&gt;Node34</title>
<path fill="none" stroke="midnightblue" d="M534.06,-504.44C467.66,-494.81 359.9,-479.16 289.74,-468.98"/>
<polygon fill="midnightblue" stroke="midnightblue" points="290.07,-465.49 279.67,-467.52 289.06,-472.42 290.07,-465.49"/>
</g>
<!-- Node36 -->
<g id="node36" class="node">
<title>Node36</title>
<g id="a_node36"><a xlink:title=" ">
<polygon fill="white" stroke="#bfbfbf" points="318.5,-448.5 318.5,-467.5 401.5,-467.5 401.5,-448.5 318.5,-448.5"/>
<text text-anchor="middle" x="360" y="-455.5" font-family="Helvetica,sans-Serif" font-size="10.00">AH/STL/utility</text>
</a>
</g>
</g>
<!-- Node32&#45;&gt;Node36 -->
<g id="edge71" class="edge">
<title>Node32&#45;&gt;Node36</title>
<path fill="none" stroke="midnightblue" d="M556.08,-504.44C515.6,-495.06 450.58,-479.99 406.62,-469.8"/>
<polygon fill="midnightblue" stroke="midnightblue" points="407.28,-466.36 396.75,-467.52 405.7,-473.18 407.28,-466.36"/>
</g>
<!-- Node34&#45;&gt;Node2 -->
<g id="edge64" class="edge">
<title>Node34&#45;&gt;Node2</title>
<path fill="none" stroke="midnightblue" d="M210.85,-448.45C179.46,-420.96 86,-331.08 86,-235 86,-235 86,-235 86,-121 86,-90.9 81.34,-74.6 105,-56 139.94,-28.53 771.44,-15.89 1000.16,-12.2"/>
<polygon fill="midnightblue" stroke="midnightblue" points="1000.47,-15.7 1010.42,-12.04 1000.36,-8.7 1000.47,-15.7"/>
</g>
<!-- Node34&#45;&gt;Node10 -->
<g id="edge65" class="edge">
<title>Node34&#45;&gt;Node10</title>
<path fill="none" stroke="midnightblue" d="M267.27,-448.44C318.74,-438.92 401.89,-423.55 457,-413.36"/>
<polygon fill="midnightblue" stroke="midnightblue" points="457.75,-416.78 466.95,-411.52 456.48,-409.89 457.75,-416.78"/>
</g>
<!-- Node34&#45;&gt;Node14 -->
<g id="edge66" class="edge">
<title>Node34&#45;&gt;Node14</title>
<path fill="none" stroke="midnightblue" d="M217.91,-448.14C205.48,-410.82 162.43,-263.96 219,-168 227.51,-153.56 242.67,-143.02 256.81,-135.79"/>
<polygon fill="midnightblue" stroke="midnightblue" points="258.32,-138.94 265.87,-131.5 255.33,-132.61 258.32,-138.94"/>
</g>
<!-- Node34&#45;&gt;Node26 -->
<g id="edge68" class="edge">
<title>Node34&#45;&gt;Node26</title>
<path fill="none" stroke="midnightblue" d="M241.92,-448.44C263.74,-439.52 298.15,-425.44 322.89,-415.32"/>
<polygon fill="midnightblue" stroke="midnightblue" points="324.25,-418.54 332.18,-411.52 321.6,-412.06 324.25,-418.54"/>
</g>
<!-- Node35 -->
<g id="node35" class="node">
<title>Node35</title>
<g id="a_node35"><a xlink:title=" ">
<polygon fill="white" stroke="#bfbfbf" points="218.5,-392.5 218.5,-411.5 271.5,-411.5 271.5,-392.5 218.5,-392.5"/>
<text text-anchor="middle" x="245" y="-399.5" font-family="Helvetica,sans-Serif" font-size="10.00">stdlib.h</text>
</a>
</g>
</g>
<!-- Node34&#45;&gt;Node35 -->
<g id="edge67" class="edge">
<title>Node34&#45;&gt;Node35</title>
<path fill="none" stroke="midnightblue" d="M224.96,-448.08C228.21,-440.77 232.92,-430.18 236.95,-421.1"/>
<polygon fill="midnightblue" stroke="midnightblue" points="240.25,-422.31 241.11,-411.75 233.85,-419.47 240.25,-422.31"/>
</g>
<!-- Node37&#45;&gt;Node2 -->
<g id="edge76" class="edge">
<title>Node37&#45;&gt;Node2</title>
<path fill="none" stroke="midnightblue" d="M97.15,-565.99C63.77,-550.19 0,-512.95 0,-459 0,-459 0,-459 0,-121 0,-73.44 40.31,-72.26 85,-56 169.84,-25.13 777.38,-14.7 1000.28,-11.89"/>
<polygon fill="midnightblue" stroke="midnightblue" points="1000.32,-15.39 1010.28,-11.76 1000.24,-8.39 1000.32,-15.39"/>
</g>
<!-- Node37&#45;&gt;Node8 -->
<g id="edge77" class="edge">
<title>Node37&#45;&gt;Node8</title>
<path fill="none" stroke="midnightblue" d="M204.18,-567.45C313.17,-558.47 505.71,-542.05 681.46,-524.03"/>
<polygon fill="midnightblue" stroke="midnightblue" points="681.82,-527.51 691.41,-523.01 681.1,-520.55 681.82,-527.51"/>
</g>
<!-- Node37&#45;&gt;Node11 -->
<g id="edge79" class="edge">
<title>Node37&#45;&gt;Node11</title>
<path fill="none" stroke="midnightblue" d="M100.23,-565.89C85.76,-557.42 65.85,-543.01 57,-524 53.25,-515.94 54.26,-512.46 57,-504 75.92,-445.55 87.44,-426.89 138,-392 162.76,-374.92 193.72,-364.31 222.23,-357.73"/>
<polygon fill="midnightblue" stroke="midnightblue" points="223.17,-361.11 232.2,-355.57 221.69,-354.27 223.17,-361.11"/>
</g>
<!-- Node38 -->
<g id="node38" class="node">
<title>Node38</title>
<g id="a_node38"><a xlink:title=" ">
<polygon fill="white" stroke="#bfbfbf" points="66.5,-504.5 66.5,-523.5 167.5,-523.5 167.5,-504.5 66.5,-504.5"/>
<text text-anchor="middle" x="117" y="-511.5" font-family="Helvetica,sans-Serif" font-size="10.00">AH/STL/algorithm</text>
</a>
</g>
</g>
<!-- Node37&#45;&gt;Node38 -->
<g id="edge78" class="edge">
<title>Node37&#45;&gt;Node38</title>
<path fill="none" stroke="midnightblue" d="M117,-565.98C117,-557.58 117,-544.48 117,-533.66"/>
<polygon fill="midnightblue" stroke="midnightblue" points="120.5,-533.51 117,-523.51 113.5,-533.51 120.5,-533.51"/>
</g>
<!-- Node39&#45;&gt;Node2 -->
<g id="edge81" class="edge">
<title>Node39&#45;&gt;Node2</title>
<path fill="none" stroke="midnightblue" d="M1026.65,-504.43C1052.6,-496.75 1089.83,-484.21 1120,-468 1169.8,-441.25 1176.48,-425.53 1222,-392 1380.03,-275.58 1422.18,-250.05 1579,-132 1616.17,-104.02 1682.58,-90.17 1651,-56 1618.64,-20.98 1313.36,-13.18 1163.79,-11.47"/>
<polygon fill="midnightblue" stroke="midnightblue" points="1163.77,-7.97 1153.74,-11.36 1163.7,-14.97 1163.77,-7.97"/>
</g>
<!-- Node39&#45;&gt;Node9 -->
<g id="edge82" class="edge">
<title>Node39&#45;&gt;Node9</title>
<path fill="none" stroke="midnightblue" d="M966.32,-504.44C935.47,-495.24 886.27,-480.56 852.17,-470.39"/>
<polygon fill="midnightblue" stroke="midnightblue" points="853.13,-467.02 842.55,-467.52 851.13,-473.73 853.13,-467.02"/>
</g>
<!-- Node39&#45;&gt;Node12 -->
<g id="edge83" class="edge">
<title>Node39&#45;&gt;Node12</title>
<path fill="none" stroke="midnightblue" d="M1016.81,-504.45C1031.94,-497.22 1050.95,-485.26 1060,-468 1133.89,-326.97 1121.01,-235.07 1020,-112 1006.56,-95.62 986.36,-85.18 966.62,-78.54"/>
<polygon fill="midnightblue" stroke="midnightblue" points="967.58,-75.17 956.99,-75.57 965.52,-81.86 967.58,-75.17"/>
</g>
<!-- Node39&#45;&gt;Node24 -->
<g id="edge84" class="edge">
<title>Node39&#45;&gt;Node24</title>
<path fill="none" stroke="midnightblue" d="M1032.64,-504.44C1054.3,-497.77 1080.59,-486.45 1098,-468 1119.13,-445.6 1122,-433.8 1122,-403 1122,-403 1122,-403 1122,-345 1122,-308.99 1145.33,-272.34 1161.04,-251.75"/>
<polygon fill="midnightblue" stroke="midnightblue" points="1163.93,-253.73 1167.41,-243.72 1158.45,-249.38 1163.93,-253.73"/>
</g>
<!-- Node40&#45;&gt;Node2 -->
<g id="edge86" class="edge">
<title>Node40&#45;&gt;Node2</title>
<path fill="none" stroke="midnightblue" d="M1633.2,-750.49C1673.41,-670.13 1861.6,-263.93 1669,-56 1635.41,-19.74 1317.46,-12.58 1164.04,-11.25"/>
<polygon fill="midnightblue" stroke="midnightblue" points="1163.76,-7.75 1153.73,-11.17 1163.7,-14.75 1163.76,-7.75"/>
</g>
<!-- Node40&#45;&gt;Node5 -->
<g id="edge87" class="edge">
<title>Node40&#45;&gt;Node5</title>
<path fill="none" stroke="midnightblue" d="M1588.56,-750.4C1561.81,-740.33 1526.18,-726.91 1500.6,-717.28"/>
<polygon fill="midnightblue" stroke="midnightblue" points="1501.58,-713.91 1490.99,-713.66 1499.12,-720.46 1501.58,-713.91"/>
</g>
<!-- Node41 -->
<g id="node41" class="node">
<title>Node41</title>
<g id="a_node41"><a xlink:title=" ">
<polygon fill="white" stroke="#bfbfbf" points="1706.5,-694.5 1706.5,-713.5 1747.5,-713.5 1747.5,-694.5 1706.5,-694.5"/>
<text text-anchor="middle" x="1727" y="-701.5" font-family="Helvetica,sans-Serif" font-size="10.00">SPI.h</text>
</a>
</g>
</g>
<!-- Node40&#45;&gt;Node41 -->
<g id="edge88" class="edge">
<title>Node40&#45;&gt;Node41</title>
<path fill="none" stroke="midnightblue" d="M1649.94,-750.4C1666.13,-740.86 1687.41,-728.32 1703.5,-718.84"/>
<polygon fill="midnightblue" stroke="midnightblue" points="1705.46,-721.75 1712.3,-713.66 1701.91,-715.72 1705.46,-721.75"/>
</g>
</g>
</svg>
