<?xml version="1.0" encoding="UTF-8" standalone="no"?>
<!DOCTYPE svg PUBLIC "-//W3C//DTD SVG 1.1//EN"
 "http://www.w3.org/Graphics/SVG/1.1/DTD/svg11.dtd">
<!-- Generated by graphviz version 2.43.0 (0)
 -->
<!-- Title: TeensyUSBTypes.hpp Pages: 1 -->
<svg width="1982pt" height="700pt"
 viewBox="0.00 0.00 1982.19 700.00" xmlns="http://www.w3.org/2000/svg" xmlns:xlink="http://www.w3.org/1999/xlink">
<g id="graph0" class="graph" transform="scale(1 1) rotate(0) translate(4 696)">
<title>TeensyUSBTypes.hpp</title>
<polygon fill="white" stroke="transparent" points="-4,4 -4,-696 1978.19,-696 1978.19,4 -4,4"/>
<!-- Node1 -->
<g id="node1" class="node">
<title>Node1</title>
<g id="a_node1"><a xlink:title=" ">
<polygon fill="#bfbfbf" stroke="black" points="1271.69,-672.5 1271.69,-691.5 1390.69,-691.5 1390.69,-672.5 1271.69,-672.5"/>
<text text-anchor="middle" x="1331.19" y="-679.5" font-family="Helvetica,sans-Serif" font-size="10.00">TeensyUSBTypes.hpp</text>
</a>
</g>
</g>
<!-- Node2 -->
<g id="node2" class="node">
<title>Node2</title>
<g id="a_node2"><a xlink:href="../../d2/dd5/SettingsWrapper_8hpp.html" target="_top" xlink:title=" ">
<polygon fill="white" stroke="black" points="1272.19,-616.5 1272.19,-635.5 1390.19,-635.5 1390.19,-616.5 1272.19,-616.5"/>
<text text-anchor="middle" x="1331.19" y="-623.5" font-family="Helvetica,sans-Serif" font-size="10.00">SettingsWrapper.hpp</text>
</a>
</g>
</g>
<!-- Node1&#45;&gt;Node2 -->
<g id="edge1" class="edge">
<title>Node1&#45;&gt;Node2</title>
<path fill="none" stroke="midnightblue" d="M1331.19,-661.8C1331.19,-652.91 1331.19,-642.78 1331.19,-635.75"/>
<polygon fill="midnightblue" stroke="midnightblue" points="1327.69,-662.08 1331.19,-672.08 1334.69,-662.08 1327.69,-662.08"/>
</g>
<!-- Node3 -->
<g id="node3" class="node">
<title>Node3</title>
<g id="a_node3"><a xlink:href="../../d4/db3/Button_8hpp.html" target="_top" xlink:title=" ">
<polygon fill="white" stroke="black" points="292.19,-224.5 292.19,-243.5 362.19,-243.5 362.19,-224.5 292.19,-224.5"/>
<text text-anchor="middle" x="327.19" y="-231.5" font-family="Helvetica,sans-Serif" font-size="10.00">Button.hpp</text>
</a>
</g>
</g>
<!-- Node2&#45;&gt;Node3 -->
<g id="edge2" class="edge">
<title>Node2&#45;&gt;Node3</title>
<path fill="none" stroke="midnightblue" d="M1261.9,-622.76C993.76,-613.66 39.19,-576.92 39.19,-515 39.19,-515 39.19,-515 39.19,-345 39.19,-291.41 215.41,-254.35 292.17,-240.75"/>
<polygon fill="midnightblue" stroke="midnightblue" points="1261.78,-626.26 1271.9,-623.1 1262.02,-619.27 1261.78,-626.26"/>
</g>
<!-- Node10 -->
<g id="node10" class="node">
<title>Node10</title>
<g id="a_node10"><a xlink:href="../../df/dee/Debug_8hpp.html" target="_top" xlink:title=" ">
<polygon fill="white" stroke="black" points="1511.69,-560.5 1511.69,-579.5 1580.69,-579.5 1580.69,-560.5 1511.69,-560.5"/>
<text text-anchor="middle" x="1546.19" y="-567.5" font-family="Helvetica,sans-Serif" font-size="10.00">Debug.hpp</text>
</a>
</g>
</g>
<!-- Node2&#45;&gt;Node10 -->
<g id="edge9" class="edge">
<title>Node2&#45;&gt;Node10</title>
<path fill="none" stroke="midnightblue" d="M1369.93,-613.87C1410.32,-603.28 1472.82,-587.64 1511.6,-578.47"/>
<polygon fill="midnightblue" stroke="midnightblue" points="1368.95,-610.51 1360.17,-616.44 1370.73,-617.28 1368.95,-610.51"/>
</g>
<!-- Node34 -->
<g id="node34" class="node">
<title>Node34</title>
<g id="a_node34"><a xlink:href="../../d8/df3/FilteredAnalog_8hpp.html" target="_top" xlink:title=" ">
<polygon fill="white" stroke="black" points="694.19,-224.5 694.19,-243.5 802.19,-243.5 802.19,-224.5 694.19,-224.5"/>
<text text-anchor="middle" x="748.19" y="-231.5" font-family="Helvetica,sans-Serif" font-size="10.00">FilteredAnalog.hpp</text>
</a>
</g>
</g>
<!-- Node2&#45;&gt;Node34 -->
<g id="edge73" class="edge">
<title>Node2&#45;&gt;Node34</title>
<path fill="none" stroke="midnightblue" d="M1262.01,-621.94C1077.95,-612.89 590.19,-582.53 590.19,-515 590.19,-515 590.19,-515 590.19,-401 590.19,-321.03 687.6,-264.3 729.45,-243.62"/>
<polygon fill="midnightblue" stroke="midnightblue" points="1261.96,-625.44 1272.12,-622.43 1262.3,-618.45 1261.96,-625.44"/>
</g>
<!-- Node43 -->
<g id="node43" class="node">
<title>Node43</title>
<g id="a_node43"><a xlink:href="../../d4/d93/Updatable_8hpp.html" target="_top" xlink:title=" ">
<polygon fill="white" stroke="black" points="1750.19,-448.5 1750.19,-467.5 1838.19,-467.5 1838.19,-448.5 1750.19,-448.5"/>
<text text-anchor="middle" x="1794.19" y="-455.5" font-family="Helvetica,sans-Serif" font-size="10.00">Updatable.hpp</text>
</a>
</g>
</g>
<!-- Node2&#45;&gt;Node43 -->
<g id="edge77" class="edge">
<title>Node2&#45;&gt;Node43</title>
<path fill="none" stroke="midnightblue" d="M1400.69,-618.23C1512.09,-605.94 1723.4,-576.29 1775.19,-524 1790.42,-508.63 1793.57,-481.78 1794.14,-467.89"/>
<polygon fill="midnightblue" stroke="midnightblue" points="1400.12,-614.77 1390.55,-619.33 1400.87,-621.73 1400.12,-614.77"/>
</g>
<!-- Node46 -->
<g id="node46" class="node">
<title>Node46</title>
<g id="a_node46"><a xlink:href="../../d1/d1f/ShiftRegisterOutRGB_8hpp.html" target="_top" xlink:title=" ">
<polygon fill="white" stroke="black" points="833.19,-560.5 833.19,-579.5 971.19,-579.5 971.19,-560.5 833.19,-560.5"/>
<text text-anchor="middle" x="902.19" y="-567.5" font-family="Helvetica,sans-Serif" font-size="10.00">ShiftRegisterOutRGB.hpp</text>
</a>
</g>
</g>
<!-- Node2&#45;&gt;Node46 -->
<g id="edge74" class="edge">
<title>Node2&#45;&gt;Node46</title>
<path fill="none" stroke="midnightblue" d="M1261.97,-616.29C1181.55,-606.16 1049.76,-589.57 969.97,-579.53"/>
<polygon fill="midnightblue" stroke="midnightblue" points="1261.63,-619.77 1271.99,-617.55 1262.51,-612.83 1261.63,-619.77"/>
</g>
<!-- Node4 -->
<g id="node4" class="node">
<title>Node4</title>
<g id="a_node4"><a xlink:href="../../de/dd1/Button_8cpp.html" target="_top" xlink:title=" ">
<polygon fill="white" stroke="black" points="363.69,-168.5 363.69,-187.5 432.69,-187.5 432.69,-168.5 363.69,-168.5"/>
<text text-anchor="middle" x="398.19" y="-175.5" font-family="Helvetica,sans-Serif" font-size="10.00">Button.cpp</text>
</a>
</g>
</g>
<!-- Node3&#45;&gt;Node4 -->
<g id="edge3" class="edge">
<title>Node3&#45;&gt;Node4</title>
<path fill="none" stroke="midnightblue" d="M346.78,-218.1C359.56,-208.38 375.81,-196.03 386.58,-187.83"/>
<polygon fill="midnightblue" stroke="midnightblue" points="344.44,-215.48 338.6,-224.32 348.68,-221.06 344.44,-215.48"/>
</g>
<!-- Node5 -->
<g id="node5" class="node">
<title>Node5</title>
<g id="a_node5"><a xlink:href="../../d5/d04/IncrementButton_8hpp.html" target="_top" xlink:title=" ">
<polygon fill="white" stroke="black" points="29.69,-168.5 29.69,-187.5 148.69,-187.5 148.69,-168.5 29.69,-168.5"/>
<text text-anchor="middle" x="89.19" y="-175.5" font-family="Helvetica,sans-Serif" font-size="10.00">IncrementButton.hpp</text>
</a>
</g>
</g>
<!-- Node3&#45;&gt;Node5 -->
<g id="edge4" class="edge">
<title>Node3&#45;&gt;Node5</title>
<path fill="none" stroke="midnightblue" d="M282.3,-222.81C237.36,-212.62 169,-197.11 126.81,-187.54"/>
<polygon fill="midnightblue" stroke="midnightblue" points="281.55,-226.23 292.08,-225.03 283.1,-219.41 281.55,-226.23"/>
</g>
<!-- Node7 -->
<g id="node7" class="node">
<title>Node7</title>
<g id="a_node7"><a xlink:href="../../df/df5/IncrementDecrementButtons_8hpp.html" target="_top" xlink:title=" ">
<polygon fill="white" stroke="black" points="166.69,-168.5 166.69,-187.5 345.69,-187.5 345.69,-168.5 166.69,-168.5"/>
<text text-anchor="middle" x="256.19" y="-175.5" font-family="Helvetica,sans-Serif" font-size="10.00">IncrementDecrementButtons.hpp</text>
</a>
</g>
</g>
<!-- Node3&#45;&gt;Node7 -->
<g id="edge6" class="edge">
<title>Node3&#45;&gt;Node7</title>
<path fill="none" stroke="midnightblue" d="M307.6,-218.1C294.83,-208.38 278.58,-196.03 267.81,-187.83"/>
<polygon fill="midnightblue" stroke="midnightblue" points="305.71,-221.06 315.79,-224.32 309.95,-215.48 305.71,-221.06"/>
</g>
<!-- Node9 -->
<g id="node9" class="node">
<title>Node9</title>
<g id="a_node9"><a xlink:href="../../dc/dc5/MultiPurposeButton_8hpp.html" target="_top" xlink:title=" ">
<polygon fill="white" stroke="black" points="451.19,-168.5 451.19,-187.5 585.19,-187.5 585.19,-168.5 451.19,-168.5"/>
<text text-anchor="middle" x="518.19" y="-175.5" font-family="Helvetica,sans-Serif" font-size="10.00">MultiPurposeButton.hpp</text>
</a>
</g>
</g>
<!-- Node3&#45;&gt;Node9 -->
<g id="edge8" class="edge">
<title>Node3&#45;&gt;Node9</title>
<path fill="none" stroke="midnightblue" d="M367.17,-221.7C403.21,-211.51 455.44,-196.74 488.07,-187.52"/>
<polygon fill="midnightblue" stroke="midnightblue" points="366.13,-218.35 357.46,-224.44 368.03,-225.09 366.13,-218.35"/>
</g>
<!-- Node6 -->
<g id="node6" class="node">
<title>Node6</title>
<g id="a_node6"><a xlink:href="../../db/d9d/IncrementButton_8cpp.html" target="_top" xlink:title=" ">
<polygon fill="white" stroke="black" points="29.69,-112.5 29.69,-131.5 148.69,-131.5 148.69,-112.5 29.69,-112.5"/>
<text text-anchor="middle" x="89.19" y="-119.5" font-family="Helvetica,sans-Serif" font-size="10.00">IncrementButton.cpp</text>
</a>
</g>
</g>
<!-- Node5&#45;&gt;Node6 -->
<g id="edge5" class="edge">
<title>Node5&#45;&gt;Node6</title>
<path fill="none" stroke="midnightblue" d="M89.19,-157.8C89.19,-148.91 89.19,-138.78 89.19,-131.75"/>
<polygon fill="midnightblue" stroke="midnightblue" points="85.69,-158.08 89.19,-168.08 92.69,-158.08 85.69,-158.08"/>
</g>
<!-- Node8 -->
<g id="node8" class="node">
<title>Node8</title>
<g id="a_node8"><a xlink:href="../../da/d66/IncrementDecrementButtons_8cpp.html" target="_top" xlink:title=" ">
<polygon fill="white" stroke="black" points="167.19,-112.5 167.19,-131.5 345.19,-131.5 345.19,-112.5 167.19,-112.5"/>
<text text-anchor="middle" x="256.19" y="-119.5" font-family="Helvetica,sans-Serif" font-size="10.00">IncrementDecrementButtons.cpp</text>
</a>
</g>
</g>
<!-- Node7&#45;&gt;Node8 -->
<g id="edge7" class="edge">
<title>Node7&#45;&gt;Node8</title>
<path fill="none" stroke="midnightblue" d="M256.19,-157.8C256.19,-148.91 256.19,-138.78 256.19,-131.75"/>
<polygon fill="midnightblue" stroke="midnightblue" points="252.69,-158.08 256.19,-168.08 259.69,-158.08 252.69,-158.08"/>
</g>
<!-- Node10&#45;&gt;Node2 -->
<g id="edge72" class="edge">
<title>Node10&#45;&gt;Node2</title>
<path fill="none" stroke="midnightblue" d="M1507.47,-582.13C1468.64,-592.31 1409.34,-607.16 1370.35,-616.44"/>
<polygon fill="midnightblue" stroke="midnightblue" points="1508.59,-585.45 1517.37,-579.52 1506.8,-578.68 1508.59,-585.45"/>
</g>
<!-- Node11 -->
<g id="node11" class="node">
<title>Node11</title>
<g id="a_node11"><a xlink:href="../../df/d66/Debug_8cpp.html" target="_top" xlink:title=" ">
<polygon fill="white" stroke="black" points="1594.19,-504.5 1594.19,-523.5 1662.19,-523.5 1662.19,-504.5 1594.19,-504.5"/>
<text text-anchor="middle" x="1628.19" y="-511.5" font-family="Helvetica,sans-Serif" font-size="10.00">Debug.cpp</text>
</a>
</g>
</g>
<!-- Node10&#45;&gt;Node11 -->
<g id="edge10" class="edge">
<title>Node10&#45;&gt;Node11</title>
<path fill="none" stroke="midnightblue" d="M1568.03,-554.62C1583.01,-544.76 1602.39,-531.99 1615.05,-523.65"/>
<polygon fill="midnightblue" stroke="midnightblue" points="1565.79,-551.9 1559.37,-560.32 1569.64,-557.75 1565.79,-551.9"/>
</g>
<!-- Node12 -->
<g id="node12" class="node">
<title>Node12</title>
<g id="a_node12"><a xlink:href="../../d1/d93/Error_8hpp.html" target="_top" xlink:title=" ">
<polygon fill="white" stroke="black" points="1516.19,-504.5 1516.19,-523.5 1576.19,-523.5 1576.19,-504.5 1516.19,-504.5"/>
<text text-anchor="middle" x="1546.19" y="-511.5" font-family="Helvetica,sans-Serif" font-size="10.00">Error.hpp</text>
</a>
</g>
</g>
<!-- Node10&#45;&gt;Node12 -->
<g id="edge11" class="edge">
<title>Node10&#45;&gt;Node12</title>
<path fill="none" stroke="midnightblue" d="M1546.19,-549.8C1546.19,-540.91 1546.19,-530.78 1546.19,-523.75"/>
<polygon fill="midnightblue" stroke="midnightblue" points="1542.69,-550.08 1546.19,-560.08 1549.69,-550.08 1542.69,-550.08"/>
</g>
<!-- Node45 -->
<g id="node45" class="node">
<title>Node45</title>
<g id="a_node45"><a xlink:href="../../de/dd1/LinkedList_8hpp.html" target="_top" xlink:title=" ">
<polygon fill="white" stroke="black" points="1680.19,-504.5 1680.19,-523.5 1766.19,-523.5 1766.19,-504.5 1680.19,-504.5"/>
<text text-anchor="middle" x="1723.19" y="-511.5" font-family="Helvetica,sans-Serif" font-size="10.00">LinkedList.hpp</text>
</a>
</g>
</g>
<!-- Node10&#45;&gt;Node45 -->
<g id="edge70" class="edge">
<title>Node10&#45;&gt;Node45</title>
<path fill="none" stroke="midnightblue" d="M1584.1,-557.44C1617.47,-547.26 1665.29,-532.66 1695.28,-523.52"/>
<polygon fill="midnightblue" stroke="midnightblue" points="1582.78,-554.18 1574.24,-560.44 1584.83,-560.87 1582.78,-554.18"/>
</g>
<!-- Node13 -->
<g id="node13" class="node">
<title>Node13</title>
<g id="a_node13"><a xlink:href="../../de/d76/Array_8hpp.html" target="_top" xlink:title=" ">
<polygon fill="white" stroke="black" points="1382.19,-448.5 1382.19,-467.5 1444.19,-467.5 1444.19,-448.5 1382.19,-448.5"/>
<text text-anchor="middle" x="1413.19" y="-455.5" font-family="Helvetica,sans-Serif" font-size="10.00">Array.hpp</text>
</a>
</g>
</g>
<!-- Node12&#45;&gt;Node13 -->
<g id="edge12" class="edge">
<title>Node12&#45;&gt;Node13</title>
<path fill="none" stroke="midnightblue" d="M1515.75,-500.64C1490.79,-490.5 1456.12,-476.43 1434.17,-467.52"/>
<polygon fill="midnightblue" stroke="midnightblue" points="1514.54,-503.92 1525.12,-504.44 1517.17,-497.44 1514.54,-503.92"/>
</g>
<!-- Node32 -->
<g id="node32" class="node">
<title>Node32</title>
<g id="a_node32"><a xlink:href="../../da/d1f/ExtendedIOElement_8cpp.html" target="_top" xlink:title=" ">
<polygon fill="white" stroke="black" points="1840.19,-168.5 1840.19,-187.5 1974.19,-187.5 1974.19,-168.5 1840.19,-168.5"/>
<text text-anchor="middle" x="1907.19" y="-175.5" font-family="Helvetica,sans-Serif" font-size="10.00">ExtendedIOElement.cpp</text>
</a>
</g>
</g>
<!-- Node12&#45;&gt;Node32 -->
<g id="edge65" class="edge">
<title>Node12&#45;&gt;Node32</title>
<path fill="none" stroke="midnightblue" d="M1585.67,-501.36C1609.7,-493.52 1640.59,-482.04 1666.19,-468 1738.83,-428.16 1761.65,-419.21 1815.19,-356 1862.87,-299.71 1894.9,-214.56 1904.31,-187.54"/>
<polygon fill="midnightblue" stroke="midnightblue" points="1584.29,-498.13 1575.83,-504.5 1586.42,-504.8 1584.29,-498.13"/>
</g>
<!-- Node33 -->
<g id="node33" class="node">
<title>Node33</title>
<g id="a_node33"><a xlink:href="../../d6/d3c/ExtendedInputOutput_8cpp.html" target="_top" xlink:title=" ">
<polygon fill="white" stroke="black" points="1388.19,-168.5 1388.19,-187.5 1528.19,-187.5 1528.19,-168.5 1388.19,-168.5"/>
<text text-anchor="middle" x="1458.19" y="-175.5" font-family="Helvetica,sans-Serif" font-size="10.00">ExtendedInputOutput.cpp</text>
</a>
</g>
</g>
<!-- Node12&#45;&gt;Node33 -->
<g id="edge66" class="edge">
<title>Node12&#45;&gt;Node33</title>
<path fill="none" stroke="midnightblue" d="M1585.32,-501.23C1611.84,-492.37 1643.42,-479.78 1651.19,-468 1656.09,-460.58 1652.74,-456.75 1651.19,-448 1632.69,-343.61 1642.86,-300.24 1569.19,-224 1551.06,-205.23 1524.03,-194.05 1501.18,-187.53"/>
<polygon fill="midnightblue" stroke="midnightblue" points="1583.9,-498.01 1575.47,-504.43 1586.06,-504.67 1583.9,-498.01"/>
</g>
<!-- Node41 -->
<g id="node41" class="node">
<title>Node41</title>
<g id="a_node41"><a xlink:href="../../d1/d40/BitArray_8hpp.html" target="_top" xlink:title=" ">
<polygon fill="white" stroke="black" points="1746.19,-168.5 1746.19,-187.5 1822.19,-187.5 1822.19,-168.5 1746.19,-168.5"/>
<text text-anchor="middle" x="1784.19" y="-175.5" font-family="Helvetica,sans-Serif" font-size="10.00">BitArray.hpp</text>
</a>
</g>
</g>
<!-- Node12&#45;&gt;Node41 -->
<g id="edge60" class="edge">
<title>Node12&#45;&gt;Node41</title>
<path fill="none" stroke="midnightblue" d="M1547.66,-494.09C1549.7,-479.81 1554.57,-460.6 1566.19,-448 1603.66,-407.39 1766.18,-401.73 1797.19,-356 1834.03,-301.68 1800.57,-215.22 1788.29,-187.71"/>
<polygon fill="midnightblue" stroke="midnightblue" points="1544.15,-493.94 1546.55,-504.26 1551.11,-494.69 1544.15,-493.94"/>
</g>
<!-- Node42 -->
<g id="node42" class="node">
<title>Node42</title>
<g id="a_node42"><a xlink:href="../../d6/df4/Exit_8cpp.html" target="_top" xlink:title=" ">
<polygon fill="white" stroke="black" points="1462.19,-448.5 1462.19,-467.5 1518.19,-467.5 1518.19,-448.5 1462.19,-448.5"/>
<text text-anchor="middle" x="1490.19" y="-455.5" font-family="Helvetica,sans-Serif" font-size="10.00">Exit.cpp</text>
</a>
</g>
</g>
<!-- Node12&#45;&gt;Node42 -->
<g id="edge64" class="edge">
<title>Node12&#45;&gt;Node42</title>
<path fill="none" stroke="midnightblue" d="M1529.86,-497.25C1519.93,-487.67 1507.61,-475.79 1499.35,-467.83"/>
<polygon fill="midnightblue" stroke="midnightblue" points="1527.57,-499.9 1537.2,-504.32 1532.43,-494.86 1527.57,-499.9"/>
</g>
<!-- Node12&#45;&gt;Node43 -->
<g id="edge67" class="edge">
<title>Node12&#45;&gt;Node43</title>
<path fill="none" stroke="midnightblue" d="M1586.27,-503.78C1650.26,-489.55 1713.62,-476.02 1753.7,-467.53"/>
<polygon fill="midnightblue" stroke="midnightblue" points="1585.42,-500.39 1576.42,-505.98 1586.94,-507.22 1585.42,-500.39"/>
</g>
<!-- Node44 -->
<g id="node44" class="node">
<title>Node44</title>
<g id="a_node44"><a xlink:href="../../d4/d1b/vector_8cpp.html" target="_top" xlink:title=" ">
<polygon fill="white" stroke="black" points="1574.69,-448.5 1574.69,-467.5 1641.69,-467.5 1641.69,-448.5 1574.69,-448.5"/>
<text text-anchor="middle" x="1608.19" y="-455.5" font-family="Helvetica,sans-Serif" font-size="10.00">vector.cpp</text>
</a>
</g>
</g>
<!-- Node12&#45;&gt;Node44 -->
<g id="edge69" class="edge">
<title>Node12&#45;&gt;Node44</title>
<path fill="none" stroke="midnightblue" d="M1563.95,-497.54C1575,-487.91 1588.82,-475.87 1598.05,-467.83"/>
<polygon fill="midnightblue" stroke="midnightblue" points="1561.4,-495.12 1556.15,-504.32 1565.99,-500.4 1561.4,-495.12"/>
</g>
<!-- Node14 -->
<g id="node14" class="node">
<title>Node14</title>
<g id="a_node14"><a xlink:href="../../d7/def/AnalogMultiplex_8hpp.html" target="_top" xlink:title=" ">
<polygon fill="white" stroke="black" points="1100.69,-112.5 1100.69,-131.5 1217.69,-131.5 1217.69,-112.5 1100.69,-112.5"/>
<text text-anchor="middle" x="1159.19" y="-119.5" font-family="Helvetica,sans-Serif" font-size="10.00">AnalogMultiplex.hpp</text>
</a>
</g>
</g>
<!-- Node13&#45;&gt;Node14 -->
<g id="edge13" class="edge">
<title>Node13&#45;&gt;Node14</title>
<path fill="none" stroke="midnightblue" d="M1371.88,-449.9C1321.75,-441.24 1234.69,-426 1160.19,-412 909.66,-364.94 712.11,-430.06 632.19,-188 629.41,-179.56 626.18,-174.55 632.19,-168 663.36,-134.05 969.72,-125.68 1100.5,-123.64"/>
<polygon fill="midnightblue" stroke="midnightblue" points="1371.55,-453.4 1382,-451.65 1372.74,-446.5 1371.55,-453.4"/>
</g>
<!-- Node15 -->
<g id="node15" class="node">
<title>Node15</title>
<g id="a_node15"><a xlink:href="../../d5/db6/ArrayHelpers_8hpp.html" target="_top" xlink:title=" ">
<polygon fill="white" stroke="black" points="1686.69,-336.5 1686.69,-355.5 1787.69,-355.5 1787.69,-336.5 1686.69,-336.5"/>
<text text-anchor="middle" x="1737.19" y="-343.5" font-family="Helvetica,sans-Serif" font-size="10.00">ArrayHelpers.hpp</text>
</a>
</g>
</g>
<!-- Node13&#45;&gt;Node15 -->
<g id="edge14" class="edge">
<title>Node13&#45;&gt;Node15</title>
<path fill="none" stroke="midnightblue" d="M1454.15,-447.37C1503.89,-435.6 1582.83,-416.67 1596.19,-412 1643.01,-395.62 1695.37,-369.21 1721.12,-355.65"/>
<polygon fill="midnightblue" stroke="midnightblue" points="1453.25,-443.98 1444.32,-449.69 1454.86,-450.8 1453.25,-443.98"/>
</g>
<!-- Node26 -->
<g id="node26" class="node">
<title>Node26</title>
<g id="a_node26"><a xlink:href="../../d4/d35/Hardware-Types_8hpp.html" target="_top" xlink:title=" ">
<polygon fill="white" stroke="black" points="1169.19,-392.5 1169.19,-411.5 1285.19,-411.5 1285.19,-392.5 1169.19,-392.5"/>
<text text-anchor="middle" x="1227.19" y="-399.5" font-family="Helvetica,sans-Serif" font-size="10.00">Hardware&#45;Types.hpp</text>
</a>
</g>
</g>
<!-- Node13&#45;&gt;Node26 -->
<g id="edge30" class="edge">
<title>Node13&#45;&gt;Node26</title>
<path fill="none" stroke="midnightblue" d="M1373.82,-445.57C1338.73,-435.38 1288.17,-420.7 1256.53,-411.52"/>
<polygon fill="midnightblue" stroke="midnightblue" points="1373.14,-449.02 1383.72,-448.44 1375.09,-442.29 1373.14,-449.02"/>
</g>
<!-- Node40 -->
<g id="node40" class="node">
<title>Node40</title>
<g id="a_node40"><a xlink:href="../../dd/ddf/RegisterEncoders_8hpp.html" target="_top" xlink:title=" ">
<polygon fill="white" stroke="black" points="1435.19,-280.5 1435.19,-299.5 1557.19,-299.5 1557.19,-280.5 1435.19,-280.5"/>
<text text-anchor="middle" x="1496.19" y="-287.5" font-family="Helvetica,sans-Serif" font-size="10.00">RegisterEncoders.hpp</text>
</a>
</g>
</g>
<!-- Node13&#45;&gt;Node40 -->
<g id="edge58" class="edge">
<title>Node13&#45;&gt;Node40</title>
<path fill="none" stroke="midnightblue" d="M1422.27,-438.86C1440.07,-403.25 1478.97,-325.45 1491.91,-299.57"/>
<polygon fill="midnightblue" stroke="midnightblue" points="1419,-437.57 1417.66,-448.08 1425.26,-440.7 1419,-437.57"/>
</g>
<!-- Node16 -->
<g id="node16" class="node">
<title>Node16</title>
<g id="a_node16"><a xlink:href="../../d2/d05/StaticSizeExtendedIOElement_8hpp.html" target="_top" xlink:title=" ">
<polygon fill="white" stroke="black" points="1546.19,-168.5 1546.19,-187.5 1728.19,-187.5 1728.19,-168.5 1546.19,-168.5"/>
<text text-anchor="middle" x="1637.19" y="-175.5" font-family="Helvetica,sans-Serif" font-size="10.00">StaticSizeExtendedIOElement.hpp</text>
</a>
</g>
</g>
<!-- Node15&#45;&gt;Node16 -->
<g id="edge15" class="edge">
<title>Node15&#45;&gt;Node16</title>
<path fill="none" stroke="midnightblue" d="M1747.65,-327.71C1761.34,-302.59 1781.18,-255.55 1759.19,-224 1745.9,-204.92 1723.55,-193.91 1701.59,-187.57"/>
<polygon fill="midnightblue" stroke="midnightblue" points="1744.56,-326.06 1742.63,-336.47 1750.64,-329.54 1744.56,-326.06"/>
</g>
<!-- Node16&#45;&gt;Node14 -->
<g id="edge16" class="edge">
<title>Node16&#45;&gt;Node14</title>
<path fill="none" stroke="midnightblue" d="M1551.71,-167.34C1455.36,-156.46 1301.29,-139.05 1217.72,-129.61"/>
<polygon fill="midnightblue" stroke="midnightblue" points="1551.39,-170.83 1561.72,-168.47 1552.17,-163.87 1551.39,-170.83"/>
</g>
<!-- Node17 -->
<g id="node17" class="node">
<title>Node17</title>
<g id="a_node17"><a xlink:href="../../d2/d25/MAX7219_8hpp.html" target="_top" xlink:title=" ">
<polygon fill="white" stroke="black" points="1384.19,-112.5 1384.19,-131.5 1468.19,-131.5 1468.19,-112.5 1384.19,-112.5"/>
<text text-anchor="middle" x="1426.19" y="-119.5" font-family="Helvetica,sans-Serif" font-size="10.00">MAX7219.hpp</text>
</a>
</g>
</g>
<!-- Node16&#45;&gt;Node17 -->
<g id="edge17" class="edge">
<title>Node16&#45;&gt;Node17</title>
<path fill="none" stroke="midnightblue" d="M1594.05,-165.96C1554.2,-155.76 1495.83,-140.82 1459.47,-131.52"/>
<polygon fill="midnightblue" stroke="midnightblue" points="1593.2,-169.35 1603.76,-168.44 1594.94,-162.57 1593.2,-169.35"/>
</g>
<!-- Node18 -->
<g id="node18" class="node">
<title>Node18</title>
<g id="a_node18"><a xlink:href="../../d7/dca/MCP23017_8hpp.html" target="_top" xlink:title=" ">
<polygon fill="white" stroke="black" points="1714.69,-112.5 1714.69,-131.5 1803.69,-131.5 1803.69,-112.5 1714.69,-112.5"/>
<text text-anchor="middle" x="1759.19" y="-119.5" font-family="Helvetica,sans-Serif" font-size="10.00">MCP23017.hpp</text>
</a>
</g>
</g>
<!-- Node16&#45;&gt;Node18 -->
<g id="edge18" class="edge">
<title>Node16&#45;&gt;Node18</title>
<path fill="none" stroke="midnightblue" d="M1665.73,-164.37C1688.58,-154.26 1720,-140.35 1739.95,-131.52"/>
<polygon fill="midnightblue" stroke="midnightblue" points="1664.25,-161.2 1656.52,-168.44 1667.09,-167.6 1664.25,-161.2"/>
</g>
<!-- Node20 -->
<g id="node20" class="node">
<title>Node20</title>
<g id="a_node20"><a xlink:href="../../d8/d93/ShiftRegisterOutBase_8hpp.html" target="_top" xlink:title=" ">
<polygon fill="white" stroke="black" points="1486.69,-112.5 1486.69,-131.5 1627.69,-131.5 1627.69,-112.5 1486.69,-112.5"/>
<text text-anchor="middle" x="1557.19" y="-119.5" font-family="Helvetica,sans-Serif" font-size="10.00">ShiftRegisterOutBase.hpp</text>
</a>
</g>
</g>
<!-- Node16&#45;&gt;Node20 -->
<g id="edge21" class="edge">
<title>Node16&#45;&gt;Node20</title>
<path fill="none" stroke="midnightblue" d="M1615.89,-162.62C1601.28,-152.76 1582.37,-139.99 1570.01,-131.65"/>
<polygon fill="midnightblue" stroke="midnightblue" points="1614.09,-165.63 1624.34,-168.32 1618.01,-159.83 1614.09,-165.63"/>
</g>
<!-- Node19 -->
<g id="node19" class="node">
<title>Node19</title>
<g id="a_node19"><a xlink:href="../../d2/d94/MCP23017_8ipp.html" target="_top" xlink:title=" ">
<polygon fill="white" stroke="black" points="1716.19,-56.5 1716.19,-75.5 1802.19,-75.5 1802.19,-56.5 1716.19,-56.5"/>
<text text-anchor="middle" x="1759.19" y="-63.5" font-family="Helvetica,sans-Serif" font-size="10.00">MCP23017.ipp</text>
</a>
</g>
</g>
<!-- Node18&#45;&gt;Node19 -->
<g id="edge19" class="edge">
<title>Node18&#45;&gt;Node19</title>
<path fill="none" stroke="midnightblue" d="M1752.72,-102.1C1752.09,-93.14 1752.54,-82.86 1754.06,-75.75"/>
<polygon fill="midnightblue" stroke="midnightblue" points="1749.26,-102.62 1754.03,-112.08 1756.2,-101.71 1749.26,-102.62"/>
</g>
<!-- Node19&#45;&gt;Node18 -->
<g id="edge20" class="edge">
<title>Node19&#45;&gt;Node18</title>
<path fill="none" stroke="midnightblue" d="M1765.65,-85.69C1766.3,-94.64 1765.87,-104.93 1764.36,-112.08"/>
<polygon fill="midnightblue" stroke="midnightblue" points="1769.12,-85.2 1764.32,-75.75 1762.18,-86.13 1769.12,-85.2"/>
</g>
<!-- Node21 -->
<g id="node21" class="node">
<title>Node21</title>
<g id="a_node21"><a xlink:href="../../d7/d88/SPIShiftRegisterOut_8hpp.html" target="_top" xlink:title=" ">
<polygon fill="white" stroke="black" points="1566.19,-56.5 1566.19,-75.5 1698.19,-75.5 1698.19,-56.5 1566.19,-56.5"/>
<text text-anchor="middle" x="1632.19" y="-63.5" font-family="Helvetica,sans-Serif" font-size="10.00">SPIShiftRegisterOut.hpp</text>
</a>
</g>
</g>
<!-- Node20&#45;&gt;Node21 -->
<g id="edge22" class="edge">
<title>Node20&#45;&gt;Node21</title>
<path fill="none" stroke="midnightblue" d="M1577.5,-106.38C1591.05,-96.62 1608.44,-84.11 1619.92,-75.83"/>
<polygon fill="midnightblue" stroke="midnightblue" points="1575.31,-103.64 1569.24,-112.32 1579.4,-109.32 1575.31,-103.64"/>
</g>
<!-- Node23 -->
<g id="node23" class="node">
<title>Node23</title>
<g id="a_node23"><a xlink:href="../../d0/db4/ShiftRegisterOut_8hpp.html" target="_top" xlink:title=" ">
<polygon fill="white" stroke="black" points="1430.69,-56.5 1430.69,-75.5 1547.69,-75.5 1547.69,-56.5 1430.69,-56.5"/>
<text text-anchor="middle" x="1489.19" y="-63.5" font-family="Helvetica,sans-Serif" font-size="10.00">ShiftRegisterOut.hpp</text>
</a>
</g>
</g>
<!-- Node20&#45;&gt;Node23 -->
<g id="edge25" class="edge">
<title>Node20&#45;&gt;Node23</title>
<path fill="none" stroke="midnightblue" d="M1538.43,-106.1C1526.19,-96.38 1510.63,-84.03 1500.32,-75.83"/>
<polygon fill="midnightblue" stroke="midnightblue" points="1536.26,-108.85 1546.27,-112.32 1540.61,-103.36 1536.26,-108.85"/>
</g>
<!-- Node25 -->
<g id="node25" class="node">
<title>Node25</title>
<g id="a_node25"><a xlink:href="../../d5/d47/ShiftRegisterOutBase_8ipp.html" target="_top" xlink:title=" ">
<polygon fill="white" stroke="black" points="1274.19,-56.5 1274.19,-75.5 1412.19,-75.5 1412.19,-56.5 1274.19,-56.5"/>
<text text-anchor="middle" x="1343.19" y="-63.5" font-family="Helvetica,sans-Serif" font-size="10.00">ShiftRegisterOutBase.ipp</text>
</a>
</g>
</g>
<!-- Node20&#45;&gt;Node25 -->
<g id="edge28" class="edge">
<title>Node20&#45;&gt;Node25</title>
<path fill="none" stroke="midnightblue" d="M1508.4,-110.09C1466.23,-99.89 1406.84,-84.86 1371.86,-75.52"/>
<polygon fill="midnightblue" stroke="midnightblue" points="1507.65,-113.51 1518.2,-112.44 1509.29,-106.7 1507.65,-113.51"/>
</g>
<!-- Node22 -->
<g id="node22" class="node">
<title>Node22</title>
<g id="a_node22"><a xlink:href="../../da/d45/SPIShiftRegisterOut_8ipp.html" target="_top" xlink:title=" ">
<polygon fill="white" stroke="black" points="1567.69,-0.5 1567.69,-19.5 1696.69,-19.5 1696.69,-0.5 1567.69,-0.5"/>
<text text-anchor="middle" x="1632.19" y="-7.5" font-family="Helvetica,sans-Serif" font-size="10.00">SPIShiftRegisterOut.ipp</text>
</a>
</g>
</g>
<!-- Node21&#45;&gt;Node22 -->
<g id="edge23" class="edge">
<title>Node21&#45;&gt;Node22</title>
<path fill="none" stroke="midnightblue" d="M1625.72,-46.1C1625.09,-37.14 1625.54,-26.86 1627.06,-19.75"/>
<polygon fill="midnightblue" stroke="midnightblue" points="1622.26,-46.62 1627.03,-56.08 1629.2,-45.71 1622.26,-46.62"/>
</g>
<!-- Node22&#45;&gt;Node21 -->
<g id="edge24" class="edge">
<title>Node22&#45;&gt;Node21</title>
<path fill="none" stroke="midnightblue" d="M1638.65,-29.69C1639.3,-38.64 1638.87,-48.93 1637.36,-56.08"/>
<polygon fill="midnightblue" stroke="midnightblue" points="1642.12,-29.2 1637.32,-19.75 1635.18,-30.13 1642.12,-29.2"/>
</g>
<!-- Node24 -->
<g id="node24" class="node">
<title>Node24</title>
<g id="a_node24"><a xlink:href="../../de/d95/ShiftRegisterOut_8ipp.html" target="_top" xlink:title=" ">
<polygon fill="white" stroke="black" points="1432.19,-0.5 1432.19,-19.5 1546.19,-19.5 1546.19,-0.5 1432.19,-0.5"/>
<text text-anchor="middle" x="1489.19" y="-7.5" font-family="Helvetica,sans-Serif" font-size="10.00">ShiftRegisterOut.ipp</text>
</a>
</g>
</g>
<!-- Node23&#45;&gt;Node24 -->
<g id="edge26" class="edge">
<title>Node23&#45;&gt;Node24</title>
<path fill="none" stroke="midnightblue" d="M1482.72,-46.1C1482.09,-37.14 1482.54,-26.86 1484.06,-19.75"/>
<polygon fill="midnightblue" stroke="midnightblue" points="1479.26,-46.62 1484.03,-56.08 1486.2,-45.71 1479.26,-46.62"/>
</g>
<!-- Node24&#45;&gt;Node23 -->
<g id="edge27" class="edge">
<title>Node24&#45;&gt;Node23</title>
<path fill="none" stroke="midnightblue" d="M1495.65,-29.69C1496.3,-38.64 1495.87,-48.93 1494.36,-56.08"/>
<polygon fill="midnightblue" stroke="midnightblue" points="1499.12,-29.2 1494.32,-19.75 1492.18,-30.13 1499.12,-29.2"/>
</g>
<!-- Node25&#45;&gt;Node20 -->
<g id="edge29" class="edge">
<title>Node25&#45;&gt;Node20</title>
<path fill="none" stroke="midnightblue" d="M1391.8,-77.87C1433.93,-88.06 1493.33,-103.08 1528.37,-112.44"/>
<polygon fill="midnightblue" stroke="midnightblue" points="1392.56,-74.45 1382.02,-75.52 1390.93,-81.26 1392.56,-74.45"/>
</g>
<!-- Node27 -->
<g id="node27" class="node">
<title>Node27</title>
<g id="a_node27"><a xlink:href="../../d2/d3c/Arduino-Hardware-Types_8hpp.html" target="_top" xlink:title=" ">
<polygon fill="white" stroke="black" points="1148.69,-336.5 1148.69,-355.5 1305.69,-355.5 1305.69,-336.5 1148.69,-336.5"/>
<text text-anchor="middle" x="1227.19" y="-343.5" font-family="Helvetica,sans-Serif" font-size="10.00">Arduino&#45;Hardware&#45;Types.hpp</text>
</a>
</g>
</g>
<!-- Node26&#45;&gt;Node27 -->
<g id="edge31" class="edge">
<title>Node26&#45;&gt;Node27</title>
<path fill="none" stroke="midnightblue" d="M1227.19,-381.8C1227.19,-372.91 1227.19,-362.78 1227.19,-355.75"/>
<polygon fill="midnightblue" stroke="midnightblue" points="1223.69,-382.08 1227.19,-392.08 1230.69,-382.08 1223.69,-382.08"/>
</g>
<!-- Node30 -->
<g id="node30" class="node">
<title>Node30</title>
<g id="a_node30"><a xlink:href="../../d9/d4b/ButtonMatrix_8hpp.html" target="_top" xlink:title=" ">
<polygon fill="white" stroke="black" points="641.69,-168.5 641.69,-187.5 742.69,-187.5 742.69,-168.5 641.69,-168.5"/>
<text text-anchor="middle" x="692.19" y="-175.5" font-family="Helvetica,sans-Serif" font-size="10.00">ButtonMatrix.hpp</text>
</a>
</g>
</g>
<!-- Node26&#45;&gt;Node30 -->
<g id="edge55" class="edge">
<title>Node26&#45;&gt;Node30</title>
<path fill="none" stroke="midnightblue" d="M1179.5,-390.12C1142.44,-381.46 1089.85,-368.72 1044.19,-356 883.19,-311.13 784.23,-378.64 685.19,-244 672.82,-227.18 681.85,-200.96 687.91,-187.54"/>
<polygon fill="midnightblue" stroke="midnightblue" points="1178.98,-393.59 1189.52,-392.45 1180.57,-386.77 1178.98,-393.59"/>
</g>
<!-- Node31 -->
<g id="node31" class="node">
<title>Node31</title>
<g id="a_node31"><a xlink:href="../../d4/d57/ExtendedIOElement_8hpp.html" target="_top" xlink:title=" ">
<polygon fill="white" stroke="black" points="1616.19,-224.5 1616.19,-243.5 1750.19,-243.5 1750.19,-224.5 1616.19,-224.5"/>
<text text-anchor="middle" x="1683.19" y="-231.5" font-family="Helvetica,sans-Serif" font-size="10.00">ExtendedIOElement.hpp</text>
</a>
</g>
</g>
<!-- Node26&#45;&gt;Node31 -->
<g id="edge56" class="edge">
<title>Node26&#45;&gt;Node31</title>
<path fill="none" stroke="midnightblue" d="M1275.32,-390.17C1342.08,-374.36 1465.92,-342.2 1566.19,-300 1605.6,-283.42 1648.8,-257.09 1669.99,-243.6"/>
<polygon fill="midnightblue" stroke="midnightblue" points="1274.43,-386.78 1265.5,-392.47 1276.03,-393.6 1274.43,-386.78"/>
</g>
<!-- Node26&#45;&gt;Node34 -->
<g id="edge57" class="edge">
<title>Node26&#45;&gt;Node34</title>
<path fill="none" stroke="midnightblue" d="M1192.81,-389.08C1101.07,-357.29 852.07,-271 772.79,-243.52"/>
<polygon fill="midnightblue" stroke="midnightblue" points="1191.85,-392.46 1202.45,-392.42 1194.15,-385.84 1191.85,-392.46"/>
</g>
<!-- Node28 -->
<g id="node28" class="node">
<title>Node28</title>
<g id="a_node28"><a xlink:href="../../dd/ddf/ExtendedInputOutput_8hpp.html" target="_top" xlink:title=" ">
<polygon fill="white" stroke="black" points="1156.69,-280.5 1156.69,-299.5 1297.69,-299.5 1297.69,-280.5 1156.69,-280.5"/>
<text text-anchor="middle" x="1227.19" y="-287.5" font-family="Helvetica,sans-Serif" font-size="10.00">ExtendedInputOutput.hpp</text>
</a>
</g>
</g>
<!-- Node27&#45;&gt;Node28 -->
<g id="edge32" class="edge">
<title>Node27&#45;&gt;Node28</title>
<path fill="none" stroke="midnightblue" d="M1227.19,-325.8C1227.19,-316.91 1227.19,-306.78 1227.19,-299.75"/>
<polygon fill="midnightblue" stroke="midnightblue" points="1223.69,-326.08 1227.19,-336.08 1230.69,-326.08 1223.69,-326.08"/>
</g>
<!-- Node28&#45;&gt;Node3 -->
<g id="edge34" class="edge">
<title>Node28&#45;&gt;Node3</title>
<path fill="none" stroke="midnightblue" d="M1146.44,-284.15C957.67,-272.83 493.64,-244.99 362.33,-237.11"/>
<polygon fill="midnightblue" stroke="midnightblue" points="1146.38,-287.66 1156.57,-284.76 1146.8,-280.67 1146.38,-287.66"/>
</g>
<!-- Node28&#45;&gt;Node14 -->
<g id="edge33" class="edge">
<title>Node28&#45;&gt;Node14</title>
<path fill="none" stroke="midnightblue" d="M1221.74,-270.72C1214.34,-246.7 1200.19,-203.41 1184.19,-168 1178.31,-154.97 1170.01,-140.65 1164.62,-131.74"/>
<polygon fill="midnightblue" stroke="midnightblue" points="1218.39,-271.75 1224.65,-280.3 1225.09,-269.71 1218.39,-271.75"/>
</g>
<!-- Node28&#45;&gt;Node18 -->
<g id="edge49" class="edge">
<title>Node28&#45;&gt;Node18</title>
<path fill="none" stroke="midnightblue" d="M1260.86,-276.53C1278.96,-268.83 1301.04,-257.79 1318.19,-244 1351.96,-216.87 1341.31,-189 1379.19,-168 1408.03,-152.02 1620.61,-133.76 1714.66,-126.37"/>
<polygon fill="midnightblue" stroke="midnightblue" points="1259.19,-273.43 1251.26,-280.45 1261.84,-279.9 1259.19,-273.43"/>
</g>
<!-- Node28&#45;&gt;Node20 -->
<g id="edge53" class="edge">
<title>Node28&#45;&gt;Node20</title>
<path fill="none" stroke="midnightblue" d="M1254.2,-275.63C1268.39,-267.74 1285.42,-256.79 1298.19,-244 1326.42,-215.73 1313.42,-190.85 1346.19,-168 1369.2,-151.96 1437.49,-139.29 1490.21,-131.53"/>
<polygon fill="midnightblue" stroke="midnightblue" points="1252.53,-272.56 1245.37,-280.37 1255.84,-278.73 1252.53,-272.56"/>
</g>
<!-- Node28&#45;&gt;Node22 -->
<g id="edge51" class="edge">
<title>Node28&#45;&gt;Node22</title>
<path fill="none" stroke="midnightblue" d="M1232.41,-270.39C1238.03,-248.65 1246.19,-211.51 1246.19,-179 1246.19,-179 1246.19,-179 1246.19,-121 1246.19,-90.9 1242.26,-75.49 1265.19,-56 1266.62,-54.78 1462.31,-31.27 1567.31,-18.73"/>
<polygon fill="midnightblue" stroke="midnightblue" points="1228.98,-269.68 1229.76,-280.25 1235.73,-271.5 1228.98,-269.68"/>
</g>
<!-- Node28&#45;&gt;Node24 -->
<g id="edge52" class="edge">
<title>Node28&#45;&gt;Node24</title>
<path fill="none" stroke="midnightblue" d="M1217.64,-271.71C1201.23,-242.37 1167.85,-184.44 1151.19,-168 1125.46,-142.6 1071.92,-141.94 1092.19,-112 1130.17,-55.91 1331.46,-27.37 1431.98,-16.44"/>
<polygon fill="midnightblue" stroke="midnightblue" points="1214.59,-273.42 1222.51,-280.46 1220.71,-270.02 1214.59,-273.42"/>
</g>
<!-- Node28&#45;&gt;Node25 -->
<g id="edge54" class="edge">
<title>Node28&#45;&gt;Node25</title>
<path fill="none" stroke="midnightblue" d="M1240.62,-272.33C1246.95,-264.07 1254.38,-253.79 1260.19,-244 1296.74,-182.42 1329.43,-102.11 1339.79,-75.78"/>
<polygon fill="midnightblue" stroke="midnightblue" points="1237.72,-270.36 1234.3,-280.39 1243.22,-274.68 1237.72,-270.36"/>
</g>
<!-- Node29 -->
<g id="node29" class="node">
<title>Node29</title>
<g id="a_node29"><a xlink:href="../../d5/d41/ButtonMatrix_8ipp.html" target="_top" xlink:title=" ">
<polygon fill="white" stroke="black" points="820.19,-224.5 820.19,-243.5 918.19,-243.5 918.19,-224.5 820.19,-224.5"/>
<text text-anchor="middle" x="869.19" y="-231.5" font-family="Helvetica,sans-Serif" font-size="10.00">ButtonMatrix.ipp</text>
</a>
</g>
</g>
<!-- Node28&#45;&gt;Node29 -->
<g id="edge35" class="edge">
<title>Node28&#45;&gt;Node29</title>
<path fill="none" stroke="midnightblue" d="M1160.23,-278.96C1099.63,-269.87 1007.92,-256.08 928.19,-244 925.02,-243.52 921.75,-243.02 918.45,-242.52"/>
<polygon fill="midnightblue" stroke="midnightblue" points="1160.02,-282.47 1170.42,-280.49 1161.05,-275.55 1160.02,-282.47"/>
</g>
<!-- Node28&#45;&gt;Node31 -->
<g id="edge38" class="edge">
<title>Node28&#45;&gt;Node31</title>
<path fill="none" stroke="midnightblue" d="M1308.11,-279.42C1395.79,-269.03 1534.09,-252.66 1616,-242.96"/>
<polygon fill="midnightblue" stroke="midnightblue" points="1307.46,-275.97 1297.94,-280.62 1308.29,-282.92 1307.46,-275.97"/>
</g>
<!-- Node28&#45;&gt;Node33 -->
<g id="edge42" class="edge">
<title>Node28&#45;&gt;Node33</title>
<path fill="none" stroke="midnightblue" d="M1278.92,-278.04C1307.92,-270.71 1344.19,-259.53 1374.19,-244 1404.32,-228.4 1434.54,-201.64 1449.15,-187.83"/>
<polygon fill="midnightblue" stroke="midnightblue" points="1277.86,-274.69 1268.98,-280.47 1279.53,-281.49 1277.86,-274.69"/>
</g>
<!-- Node28&#45;&gt;Node34 -->
<g id="edge43" class="edge">
<title>Node28&#45;&gt;Node34</title>
<path fill="none" stroke="midnightblue" d="M1146.47,-281.09C1062.59,-272.68 927.55,-258.6 811.19,-244 808.34,-243.64 805.42,-243.26 802.47,-242.87"/>
<polygon fill="midnightblue" stroke="midnightblue" points="1146.15,-284.58 1156.45,-282.09 1146.84,-277.61 1146.15,-284.58"/>
</g>
<!-- Node35 -->
<g id="node35" class="node">
<title>Node35</title>
<g id="a_node35"><a xlink:href="../../d9/d4f/LEDs_8hpp.html" target="_top" xlink:title=" ">
<polygon fill="white" stroke="black" points="1074.19,-224.5 1074.19,-243.5 1136.19,-243.5 1136.19,-224.5 1074.19,-224.5"/>
<text text-anchor="middle" x="1105.19" y="-231.5" font-family="Helvetica,sans-Serif" font-size="10.00">LEDs.hpp</text>
</a>
</g>
</g>
<!-- Node28&#45;&gt;Node35 -->
<g id="edge44" class="edge">
<title>Node28&#45;&gt;Node35</title>
<path fill="none" stroke="midnightblue" d="M1198.65,-276.37C1175.81,-266.26 1144.39,-252.35 1124.43,-243.52"/>
<polygon fill="midnightblue" stroke="midnightblue" points="1197.3,-279.6 1207.86,-280.44 1200.13,-273.2 1197.3,-279.6"/>
</g>
<!-- Node37 -->
<g id="node37" class="node">
<title>Node37</title>
<g id="a_node37"><a xlink:href="../../d7/d13/MAX7219__Base_8hpp.html" target="_top" xlink:title=" ">
<polygon fill="white" stroke="black" points="936.69,-224.5 936.69,-243.5 1049.69,-243.5 1049.69,-224.5 936.69,-224.5"/>
<text text-anchor="middle" x="993.19" y="-231.5" font-family="Helvetica,sans-Serif" font-size="10.00">MAX7219_Base.hpp</text>
</a>
</g>
</g>
<!-- Node28&#45;&gt;Node37 -->
<g id="edge46" class="edge">
<title>Node28&#45;&gt;Node37</title>
<path fill="none" stroke="midnightblue" d="M1180.19,-278.15C1135.98,-267.95 1070.68,-252.88 1030.1,-243.52"/>
<polygon fill="midnightblue" stroke="midnightblue" points="1179.58,-281.61 1190.12,-280.44 1181.16,-274.78 1179.58,-281.61"/>
</g>
<!-- Node39 -->
<g id="node39" class="node">
<title>Node39</title>
<g id="a_node39"><a xlink:href="../../d8/dd2/MCP23017Encoders_8hpp.html" target="_top" xlink:title=" ">
<polygon fill="white" stroke="black" points="1426.19,-224.5 1426.19,-243.5 1560.19,-243.5 1560.19,-224.5 1426.19,-224.5"/>
<text text-anchor="middle" x="1493.19" y="-231.5" font-family="Helvetica,sans-Serif" font-size="10.00">MCP23017Encoders.hpp</text>
</a>
</g>
</g>
<!-- Node28&#45;&gt;Node39 -->
<g id="edge50" class="edge">
<title>Node28&#45;&gt;Node39</title>
<path fill="none" stroke="midnightblue" d="M1279.36,-278.41C1329.63,-268.2 1404.72,-252.96 1451.24,-243.52"/>
<polygon fill="midnightblue" stroke="midnightblue" points="1278.45,-275.02 1269.34,-280.44 1279.84,-281.88 1278.45,-275.02"/>
</g>
<!-- Node29&#45;&gt;Node30 -->
<g id="edge36" class="edge">
<title>Node29&#45;&gt;Node30</title>
<path fill="none" stroke="midnightblue" d="M826.09,-221.57C791.04,-211.38 743.12,-196.7 715.03,-187.52"/>
<polygon fill="midnightblue" stroke="midnightblue" points="825.48,-225.03 836.06,-224.44 827.42,-218.31 825.48,-225.03"/>
</g>
<!-- Node30&#45;&gt;Node29 -->
<g id="edge37" class="edge">
<title>Node30&#45;&gt;Node29</title>
<path fill="none" stroke="midnightblue" d="M735.15,-190.39C770.15,-200.56 818.09,-215.24 846.24,-224.44"/>
<polygon fill="midnightblue" stroke="midnightblue" points="735.77,-186.92 725.19,-187.52 733.83,-193.65 735.77,-186.92"/>
</g>
<!-- Node31&#45;&gt;Node16 -->
<g id="edge41" class="edge">
<title>Node31&#45;&gt;Node16</title>
<path fill="none" stroke="midnightblue" d="M1669.08,-216.43C1661.02,-206.97 1651.23,-195.48 1644.65,-187.75"/>
<polygon fill="midnightblue" stroke="midnightblue" points="1666.45,-218.74 1675.6,-224.08 1671.78,-214.2 1666.45,-218.74"/>
</g>
<!-- Node31&#45;&gt;Node32 -->
<g id="edge39" class="edge">
<title>Node31&#45;&gt;Node32</title>
<path fill="none" stroke="midnightblue" d="M1728.46,-222.09C1770.78,-211.89 1833.1,-196.86 1871.87,-187.52"/>
<polygon fill="midnightblue" stroke="midnightblue" points="1727.59,-218.7 1718.69,-224.44 1729.23,-225.5 1727.59,-218.7"/>
</g>
<!-- Node31&#45;&gt;Node33 -->
<g id="edge40" class="edge">
<title>Node31&#45;&gt;Node33</title>
<path fill="none" stroke="midnightblue" d="M1637.73,-222.09C1595.22,-211.89 1532.61,-196.86 1493.68,-187.52"/>
<polygon fill="midnightblue" stroke="midnightblue" points="1637,-225.51 1647.54,-224.44 1638.63,-218.71 1637,-225.51"/>
</g>
<!-- Node36 -->
<g id="node36" class="node">
<title>Node36</title>
<g id="a_node36"><a xlink:href="../../d6/d3a/DotBarDisplayLEDs_8hpp.html" target="_top" xlink:title=" ">
<polygon fill="white" stroke="black" points="1010.19,-168.5 1010.19,-187.5 1142.19,-187.5 1142.19,-168.5 1010.19,-168.5"/>
<text text-anchor="middle" x="1076.19" y="-175.5" font-family="Helvetica,sans-Serif" font-size="10.00">DotBarDisplayLEDs.hpp</text>
</a>
</g>
</g>
<!-- Node35&#45;&gt;Node36 -->
<g id="edge45" class="edge">
<title>Node35&#45;&gt;Node36</title>
<path fill="none" stroke="midnightblue" d="M1095.52,-214.98C1090.59,-205.82 1084.84,-195.09 1080.89,-187.75"/>
<polygon fill="midnightblue" stroke="midnightblue" points="1092.59,-216.93 1100.4,-224.08 1098.76,-213.62 1092.59,-216.93"/>
</g>
<!-- Node37&#45;&gt;Node17 -->
<g id="edge47" class="edge">
<title>Node37&#45;&gt;Node17</title>
<path fill="none" stroke="midnightblue" d="M989.86,-214.42C988.39,-199.74 989.18,-179.81 1001.19,-168 1028.18,-141.47 1282.03,-128.65 1384.05,-124.53"/>
<polygon fill="midnightblue" stroke="midnightblue" points="986.41,-214.99 991.28,-224.4 993.34,-214.01 986.41,-214.99"/>
</g>
<!-- Node38 -->
<g id="node38" class="node">
<title>Node38</title>
<g id="a_node38"><a xlink:href="../../d5/d0c/MAX7219SevenSegmentDisplay_8hpp.html" target="_top" xlink:title=" ">
<polygon fill="white" stroke="black" points="760.69,-168.5 760.69,-187.5 953.69,-187.5 953.69,-168.5 760.69,-168.5"/>
<text text-anchor="middle" x="857.19" y="-175.5" font-family="Helvetica,sans-Serif" font-size="10.00">MAX7219SevenSegmentDisplay.hpp</text>
</a>
</g>
</g>
<!-- Node37&#45;&gt;Node38 -->
<g id="edge48" class="edge">
<title>Node37&#45;&gt;Node38</title>
<path fill="none" stroke="midnightblue" d="M962.06,-220.64C936.54,-210.5 901.08,-196.43 878.64,-187.52"/>
<polygon fill="midnightblue" stroke="midnightblue" points="961.06,-224.01 971.64,-224.44 963.64,-217.5 961.06,-224.01"/>
</g>
<!-- Node40&#45;&gt;Node39 -->
<g id="edge59" class="edge">
<title>Node40&#45;&gt;Node39</title>
<path fill="none" stroke="midnightblue" d="M1495.13,-269.8C1494.63,-260.91 1494.07,-250.78 1493.68,-243.75"/>
<polygon fill="midnightblue" stroke="midnightblue" points="1491.65,-270.29 1495.7,-280.08 1498.64,-269.9 1491.65,-270.29"/>
</g>
<!-- Node41&#45;&gt;Node17 -->
<g id="edge61" class="edge">
<title>Node41&#45;&gt;Node17</title>
<path fill="none" stroke="midnightblue" d="M1736.08,-167.89C1620.85,-149.1 1589.88,-149.42 1478.19,-132 1475.02,-131.51 1471.75,-130.98 1468.46,-130.44"/>
<polygon fill="midnightblue" stroke="midnightblue" points="1735.57,-171.35 1746,-169.52 1736.7,-164.44 1735.57,-171.35"/>
</g>
<!-- Node41&#45;&gt;Node18 -->
<g id="edge62" class="edge">
<title>Node41&#45;&gt;Node18</title>
<path fill="none" stroke="midnightblue" d="M1775.85,-158.98C1771.61,-149.82 1766.64,-139.09 1763.24,-131.75"/>
<polygon fill="midnightblue" stroke="midnightblue" points="1772.69,-160.48 1780.07,-168.08 1779.04,-157.54 1772.69,-160.48"/>
</g>
<!-- Node41&#45;&gt;Node20 -->
<g id="edge63" class="edge">
<title>Node41&#45;&gt;Node20</title>
<path fill="none" stroke="midnightblue" d="M1738.32,-166.09C1695.44,-155.89 1632.28,-140.86 1592.99,-131.52"/>
<polygon fill="midnightblue" stroke="midnightblue" points="1737.69,-169.53 1748.22,-168.44 1739.31,-162.72 1737.69,-169.53"/>
</g>
<!-- Node43&#45;&gt;Node31 -->
<g id="edge68" class="edge">
<title>Node43&#45;&gt;Node31</title>
<path fill="none" stroke="midnightblue" d="M1768.18,-443.35C1739.99,-426.91 1696.58,-396.39 1678.19,-356 1660.6,-317.35 1673.88,-264.36 1680.27,-243.72"/>
<polygon fill="midnightblue" stroke="midnightblue" points="1766.67,-446.51 1777.1,-448.38 1770.11,-440.42 1766.67,-446.51"/>
</g>
<!-- Node45&#45;&gt;Node43 -->
<g id="edge71" class="edge">
<title>Node45&#45;&gt;Node43</title>
<path fill="none" stroke="midnightblue" d="M1742.78,-498.1C1755.56,-488.38 1771.81,-476.03 1782.58,-467.83"/>
<polygon fill="midnightblue" stroke="midnightblue" points="1740.44,-495.48 1734.6,-504.32 1744.68,-501.06 1740.44,-495.48"/>
</g>
<!-- Node46&#45;&gt;Node25 -->
<g id="edge75" class="edge">
<title>Node46&#45;&gt;Node25</title>
<path fill="none" stroke="midnightblue" d="M822.8,-562.72C602.76,-544.26 1.19,-486.18 1.19,-403 1.19,-403 1.19,-403 1.19,-177 1.19,-146.9 -3.58,-130.46 20.19,-112 70.06,-73.28 1009.16,-67.88 1274.12,-67.12"/>
<polygon fill="midnightblue" stroke="midnightblue" points="822.73,-566.23 832.99,-563.57 823.31,-559.25 822.73,-566.23"/>
</g>
<!-- Node47 -->
<g id="node47" class="node">
<title>Node47</title>
<g id="a_node47"><a xlink:href="../../db/d0b/ShiftRegisterOutRGB_8cpp.html" target="_top" xlink:title=" ">
<polygon fill="white" stroke="black" points="833.69,-504.5 833.69,-523.5 970.69,-523.5 970.69,-504.5 833.69,-504.5"/>
<text text-anchor="middle" x="902.19" y="-511.5" font-family="Helvetica,sans-Serif" font-size="10.00">ShiftRegisterOutRGB.cpp</text>
</a>
</g>
</g>
<!-- Node46&#45;&gt;Node47 -->
<g id="edge76" class="edge">
<title>Node46&#45;&gt;Node47</title>
<path fill="none" stroke="midnightblue" d="M902.19,-549.8C902.19,-540.91 902.19,-530.78 902.19,-523.75"/>
<polygon fill="midnightblue" stroke="midnightblue" points="898.69,-550.08 902.19,-560.08 905.69,-550.08 898.69,-550.08"/>
</g>
</g>
</svg>
