<?xml version="1.0" encoding="UTF-8" standalone="no"?>
<!DOCTYPE svg PUBLIC "-//W3C//DTD SVG 1.1//EN"
 "http://www.w3.org/Graphics/SVG/1.1/DTD/svg11.dtd">
<!-- Generated by graphviz version 2.43.0 (0)
 -->
<!-- Title: ExtendedIOElement Pages: 1 -->
<svg width="364pt" height="1195pt"
 viewBox="0.00 0.00 363.80 1195.00" xmlns="http://www.w3.org/2000/svg" xmlns:xlink="http://www.w3.org/1999/xlink">
<g id="graph0" class="graph" transform="scale(1 1) rotate(0) translate(4 1191)">
<title>ExtendedIOElement</title>
<polygon fill="white" stroke="transparent" points="-4,4 -4,-1191 359.8,-1191 359.8,4 -4,4"/>
<!-- Node1 -->
<g id="node1" class="node">
<title>Node1</title>
<g id="a_node1"><a xlink:title="An abstract base class for Extended Input/Output elements.">
<polygon fill="#bfbfbf" stroke="black" points="165,-628.5 165,-971.5 326,-971.5 326,-628.5 165,-628.5"/>
<text text-anchor="middle" x="245.5" y="-959.5" font-family="Helvetica,sans-Serif" font-size="10.00">ExtendedIOElement</text>
<polyline fill="none" stroke="black" points="165,-952.5 326,-952.5 "/>
<text text-anchor="middle" x="245.5" y="-940.5" font-family="Helvetica,sans-Serif" font-size="10.00"> </text>
<polyline fill="none" stroke="black" points="165,-933.5 326,-933.5 "/>
<text text-anchor="start" x="173" y="-921.5" font-family="Helvetica,sans-Serif" font-size="10.00">+ pinMode()</text>
<text text-anchor="start" x="173" y="-910.5" font-family="Helvetica,sans-Serif" font-size="10.00">+ pinModeBuffered()</text>
<text text-anchor="start" x="173" y="-899.5" font-family="Helvetica,sans-Serif" font-size="10.00">+ digitalWrite()</text>
<text text-anchor="start" x="173" y="-888.5" font-family="Helvetica,sans-Serif" font-size="10.00">+ digitalWriteBuffered()</text>
<text text-anchor="start" x="173" y="-877.5" font-family="Helvetica,sans-Serif" font-size="10.00">+ digitalRead()</text>
<text text-anchor="start" x="173" y="-866.5" font-family="Helvetica,sans-Serif" font-size="10.00">+ digitalReadBuffered()</text>
<text text-anchor="start" x="173" y="-855.5" font-family="Helvetica,sans-Serif" font-size="10.00">+ analogWrite()</text>
<text text-anchor="start" x="173" y="-844.5" font-family="Helvetica,sans-Serif" font-size="10.00">+ analogWriteBuffered()</text>
<text text-anchor="start" x="173" y="-833.5" font-family="Helvetica,sans-Serif" font-size="10.00">+ analogRead()</text>
<text text-anchor="start" x="173" y="-822.5" font-family="Helvetica,sans-Serif" font-size="10.00">+ analogReadBuffered()</text>
<text text-anchor="start" x="173" y="-811.5" font-family="Helvetica,sans-Serif" font-size="10.00">+ begin()</text>
<text text-anchor="start" x="173" y="-800.5" font-family="Helvetica,sans-Serif" font-size="10.00">+ updateBufferedOutputs()</text>
<text text-anchor="start" x="173" y="-789.5" font-family="Helvetica,sans-Serif" font-size="10.00">+ updateBufferedInputs()</text>
<text text-anchor="start" x="173" y="-778.5" font-family="Helvetica,sans-Serif" font-size="10.00">+ pin()</text>
<text text-anchor="start" x="173" y="-767.5" font-family="Helvetica,sans-Serif" font-size="10.00">+ operator[]()</text>
<text text-anchor="start" x="173" y="-756.5" font-family="Helvetica,sans-Serif" font-size="10.00">+ getLength()</text>
<text text-anchor="start" x="173" y="-745.5" font-family="Helvetica,sans-Serif" font-size="10.00">+ getEnd()</text>
<text text-anchor="start" x="173" y="-734.5" font-family="Helvetica,sans-Serif" font-size="10.00">+ getStart()</text>
<text text-anchor="start" x="173" y="-723.5" font-family="Helvetica,sans-Serif" font-size="10.00">+ beginAll()</text>
<text text-anchor="start" x="173" y="-712.5" font-family="Helvetica,sans-Serif" font-size="10.00">+ updateAllBufferedOutputs()</text>
<text text-anchor="start" x="173" y="-701.5" font-family="Helvetica,sans-Serif" font-size="10.00">+ updateAllBufferedInputs()</text>
<text text-anchor="start" x="173" y="-690.5" font-family="Helvetica,sans-Serif" font-size="10.00">+ getAll()</text>
<text text-anchor="start" x="173" y="-679.5" font-family="Helvetica,sans-Serif" font-size="10.00"># ExtendedIOElement()</text>
<text text-anchor="start" x="173" y="-668.5" font-family="Helvetica,sans-Serif" font-size="10.00"># ExtendedIOElement()</text>
<text text-anchor="start" x="173" y="-657.5" font-family="Helvetica,sans-Serif" font-size="10.00"># operator=()</text>
<text text-anchor="start" x="173" y="-646.5" font-family="Helvetica,sans-Serif" font-size="10.00"># ExtendedIOElement()</text>
<text text-anchor="start" x="173" y="-635.5" font-family="Helvetica,sans-Serif" font-size="10.00"># operator=()</text>
</a>
</g>
</g>
<!-- Node3 -->
<g id="node3" class="node">
<title>Node3</title>
<g id="a_node3"><a xlink:href="../../d4/d23/classDoublyLinkable.html" target="_top" xlink:title=" ">
<polygon fill="white" stroke="black" points="0,-358.5 0,-481.5 149,-481.5 149,-358.5 0,-358.5"/>
<text text-anchor="start" x="8" y="-469.5" font-family="Helvetica,sans-Serif" font-size="10.00">DoublyLinkable&lt; Extended</text>
<text text-anchor="middle" x="74.5" y="-458.5" font-family="Helvetica,sans-Serif" font-size="10.00">IOElement &gt;</text>
<polyline fill="none" stroke="black" points="0,-451.5 149,-451.5 "/>
<text text-anchor="middle" x="74.5" y="-439.5" font-family="Helvetica,sans-Serif" font-size="10.00"> </text>
<polyline fill="none" stroke="black" points="0,-432.5 149,-432.5 "/>
<text text-anchor="start" x="8" y="-420.5" font-family="Helvetica,sans-Serif" font-size="10.00"># ~DoublyLinkable()</text>
<text text-anchor="start" x="8" y="-409.5" font-family="Helvetica,sans-Serif" font-size="10.00"># DoublyLinkable()</text>
<text text-anchor="start" x="8" y="-398.5" font-family="Helvetica,sans-Serif" font-size="10.00"># DoublyLinkable()</text>
<text text-anchor="start" x="8" y="-387.5" font-family="Helvetica,sans-Serif" font-size="10.00"># DoublyLinkable()</text>
<text text-anchor="start" x="8" y="-376.5" font-family="Helvetica,sans-Serif" font-size="10.00"># operator=()</text>
<text text-anchor="start" x="8" y="-365.5" font-family="Helvetica,sans-Serif" font-size="10.00"># operator=()</text>
</a>
</g>
</g>
<!-- Node1&#45;&gt;Node3 -->
<g id="edge3" class="edge">
<title>Node1&#45;&gt;Node3</title>
<path fill="none" stroke="#404040" d="M168.25,-628.25C146.67,-580.52 124.37,-531.23 106.94,-492.7"/>
<polygon fill="none" stroke="#404040" points="106.87,-492.55 100.75,-488.73 101.92,-481.62 108.04,-485.44 106.87,-492.55"/>
<text text-anchor="middle" x="186" y="-602" font-family="Helvetica,sans-Serif" font-size="10.00"> #next</text>
<text text-anchor="middle" x="186" y="-591" font-family="Helvetica,sans-Serif" font-size="10.00">#previous</text>
</g>
<!-- Node4 -->
<g id="node4" class="node">
<title>Node4</title>
<g id="a_node4"><a xlink:href="../../dd/d16/classDoublyLinkedList.html" target="_top" xlink:title=" ">
<polygon fill="white" stroke="black" points="167,-270.5 167,-569.5 324,-569.5 324,-270.5 167,-270.5"/>
<text text-anchor="start" x="175" y="-557.5" font-family="Helvetica,sans-Serif" font-size="10.00">DoublyLinkedList&lt; Extended</text>
<text text-anchor="middle" x="245.5" y="-546.5" font-family="Helvetica,sans-Serif" font-size="10.00">IOElement &gt;</text>
<polyline fill="none" stroke="black" points="167,-539.5 324,-539.5 "/>
<text text-anchor="middle" x="245.5" y="-527.5" font-family="Helvetica,sans-Serif" font-size="10.00"> </text>
<polyline fill="none" stroke="black" points="167,-520.5 324,-520.5 "/>
<text text-anchor="start" x="175" y="-508.5" font-family="Helvetica,sans-Serif" font-size="10.00">+ append()</text>
<text text-anchor="start" x="175" y="-497.5" font-family="Helvetica,sans-Serif" font-size="10.00">+ append()</text>
<text text-anchor="start" x="175" y="-486.5" font-family="Helvetica,sans-Serif" font-size="10.00">+ insertBefore()</text>
<text text-anchor="start" x="175" y="-475.5" font-family="Helvetica,sans-Serif" font-size="10.00">+ insertBefore()</text>
<text text-anchor="start" x="175" y="-464.5" font-family="Helvetica,sans-Serif" font-size="10.00">+ insertSorted()</text>
<text text-anchor="start" x="175" y="-453.5" font-family="Helvetica,sans-Serif" font-size="10.00">+ insertSorted()</text>
<text text-anchor="start" x="175" y="-442.5" font-family="Helvetica,sans-Serif" font-size="10.00">+ remove()</text>
<text text-anchor="start" x="175" y="-431.5" font-family="Helvetica,sans-Serif" font-size="10.00">+ remove()</text>
<text text-anchor="start" x="175" y="-420.5" font-family="Helvetica,sans-Serif" font-size="10.00">+ moveDown()</text>
<text text-anchor="start" x="175" y="-409.5" font-family="Helvetica,sans-Serif" font-size="10.00">+ moveDown()</text>
<text text-anchor="start" x="175" y="-398.5" font-family="Helvetica,sans-Serif" font-size="10.00">+ couldContain()</text>
<text text-anchor="start" x="175" y="-387.5" font-family="Helvetica,sans-Serif" font-size="10.00">+ couldContain()</text>
<text text-anchor="start" x="175" y="-376.5" font-family="Helvetica,sans-Serif" font-size="10.00">+ begin()</text>
<text text-anchor="start" x="175" y="-365.5" font-family="Helvetica,sans-Serif" font-size="10.00">+ begin()</text>
<text text-anchor="start" x="175" y="-354.5" font-family="Helvetica,sans-Serif" font-size="10.00">+ end()</text>
<text text-anchor="start" x="175" y="-343.5" font-family="Helvetica,sans-Serif" font-size="10.00">+ end()</text>
<text text-anchor="start" x="175" y="-332.5" font-family="Helvetica,sans-Serif" font-size="10.00">+ rbegin()</text>
<text text-anchor="start" x="175" y="-321.5" font-family="Helvetica,sans-Serif" font-size="10.00">+ rbegin()</text>
<text text-anchor="start" x="175" y="-310.5" font-family="Helvetica,sans-Serif" font-size="10.00">+ rend()</text>
<text text-anchor="start" x="175" y="-299.5" font-family="Helvetica,sans-Serif" font-size="10.00">+ rend()</text>
<text text-anchor="start" x="175" y="-288.5" font-family="Helvetica,sans-Serif" font-size="10.00">+ getFirst()</text>
<text text-anchor="start" x="175" y="-277.5" font-family="Helvetica,sans-Serif" font-size="10.00">+ getLast()</text>
</a>
</g>
</g>
<!-- Node1&#45;&gt;Node4 -->
<g id="edge5" class="edge">
<title>Node1&#45;&gt;Node4</title>
<path fill="none" stroke="#404040" d="M245.5,-628.25C245.5,-612.81 245.5,-597.21 245.5,-581.86"/>
<polygon fill="none" stroke="#404040" points="245.5,-581.61 241.5,-575.61 245.5,-569.61 249.5,-575.61 245.5,-581.61"/>
<text text-anchor="middle" x="258.5" y="-602" font-family="Helvetica,sans-Serif" font-size="10.00"> &#45;first</text>
<text text-anchor="middle" x="258.5" y="-591" font-family="Helvetica,sans-Serif" font-size="10.00">&#45;last</text>
</g>
<!-- Node2 -->
<g id="node2" class="node">
<title>Node2</title>
<g id="a_node2"><a xlink:href="../../d2/dfb/classUpdatableCRTP.html" target="_top" xlink:title=" ">
<polygon fill="white" stroke="black" points="140,-0.5 140,-222.5 351,-222.5 351,-0.5 140,-0.5"/>
<text text-anchor="middle" x="245.5" y="-210.5" font-family="Helvetica,sans-Serif" font-size="10.00">UpdatableCRTP&lt; ExtendedIOElement &gt;</text>
<polyline fill="none" stroke="black" points="140,-203.5 351,-203.5 "/>
<text text-anchor="middle" x="245.5" y="-191.5" font-family="Helvetica,sans-Serif" font-size="10.00"> </text>
<polyline fill="none" stroke="black" points="140,-184.5 351,-184.5 "/>
<text text-anchor="start" x="148" y="-172.5" font-family="Helvetica,sans-Serif" font-size="10.00">+ ~UpdatableCRTP()</text>
<text text-anchor="start" x="148" y="-161.5" font-family="Helvetica,sans-Serif" font-size="10.00"># UpdatableCRTP()</text>
<text text-anchor="start" x="148" y="-150.5" font-family="Helvetica,sans-Serif" font-size="10.00"># UpdatableCRTP()</text>
<text text-anchor="start" x="148" y="-139.5" font-family="Helvetica,sans-Serif" font-size="10.00"># UpdatableCRTP()</text>
<text text-anchor="start" x="148" y="-128.5" font-family="Helvetica,sans-Serif" font-size="10.00"># operator=()</text>
<text text-anchor="start" x="148" y="-117.5" font-family="Helvetica,sans-Serif" font-size="10.00"># operator=()</text>
<text text-anchor="start" x="148" y="-106.5" font-family="Helvetica,sans-Serif" font-size="10.00">* enable()</text>
<text text-anchor="start" x="148" y="-95.5" font-family="Helvetica,sans-Serif" font-size="10.00">* disable()</text>
<text text-anchor="start" x="148" y="-84.5" font-family="Helvetica,sans-Serif" font-size="10.00">* isEnabled()</text>
<text text-anchor="start" x="148" y="-73.5" font-family="Helvetica,sans-Serif" font-size="10.00">* moveDown()</text>
<text text-anchor="start" x="148" y="-62.5" font-family="Helvetica,sans-Serif" font-size="10.00">* enable()</text>
<text text-anchor="start" x="148" y="-51.5" font-family="Helvetica,sans-Serif" font-size="10.00">* enable()</text>
<text text-anchor="start" x="148" y="-40.5" font-family="Helvetica,sans-Serif" font-size="10.00">* enable()</text>
<text text-anchor="start" x="148" y="-29.5" font-family="Helvetica,sans-Serif" font-size="10.00">* disable()</text>
<text text-anchor="start" x="148" y="-18.5" font-family="Helvetica,sans-Serif" font-size="10.00">* disable()</text>
<text text-anchor="start" x="148" y="-7.5" font-family="Helvetica,sans-Serif" font-size="10.00">* disable()</text>
</a>
</g>
</g>
<!-- Node2&#45;&gt;Node1 -->
<g id="edge1" class="edge">
<title>Node2&#45;&gt;Node1</title>
<path fill="none" stroke="midnightblue" d="M320.28,-232.13C325.62,-244.58 330.2,-257.32 333.5,-270 367.1,-399.03 357.82,-438.9 333.5,-570 329.93,-589.26 324.8,-609 318.78,-628.41"/>
<polygon fill="none" stroke="midnightblue" points="323.33,-230.38 316.06,-222.68 316.94,-233.24 323.33,-230.38"/>
</g>
<!-- Node3&#45;&gt;Node2 -->
<g id="edge2" class="edge">
<title>Node3&#45;&gt;Node2</title>
<path fill="none" stroke="midnightblue" d="M113.25,-349.4C127.19,-324.36 143.05,-295.91 157.5,-270 166.05,-254.68 175.06,-238.53 183.94,-222.64"/>
<polygon fill="none" stroke="midnightblue" points="110.01,-348.02 108.2,-358.46 116.13,-351.42 110.01,-348.02"/>
</g>
<!-- Node4&#45;&gt;Node2 -->
<g id="edge4" class="edge">
<title>Node4&#45;&gt;Node2</title>
<path fill="none" stroke="#404040" d="M245.5,-270.24C245.5,-258.35 245.5,-246.43 245.5,-234.76"/>
<polygon fill="none" stroke="#404040" points="245.5,-234.7 241.5,-228.7 245.5,-222.7 249.5,-228.7 245.5,-234.7"/>
<text text-anchor="middle" x="278.5" y="-244" font-family="Helvetica,sans-Serif" font-size="10.00"> #updatables</text>
</g>
<!-- Node5 -->
<g id="node5" class="node">
<title>Node5</title>
<g id="a_node5"><a xlink:href="../../d6/dd0/structExtIO_1_1pin__t.html" target="_top" xlink:title="Type for storing pin numbers of Extended Input/Output elements.">
<polygon fill="white" stroke="black" points="199,-1052.5 199,-1186.5 292,-1186.5 292,-1052.5 199,-1052.5"/>
<text text-anchor="middle" x="245.5" y="-1174.5" font-family="Helvetica,sans-Serif" font-size="10.00">pin_t</text>
<polyline fill="none" stroke="black" points="199,-1167.5 292,-1167.5 "/>
<text text-anchor="start" x="207" y="-1155.5" font-family="Helvetica,sans-Serif" font-size="10.00">+ pin</text>
<polyline fill="none" stroke="black" points="199,-1148.5 292,-1148.5 "/>
<text text-anchor="start" x="207" y="-1136.5" font-family="Helvetica,sans-Serif" font-size="10.00">+ pin_t()</text>
<text text-anchor="start" x="207" y="-1125.5" font-family="Helvetica,sans-Serif" font-size="10.00">+ pin_t()</text>
<text text-anchor="start" x="207" y="-1114.5" font-family="Helvetica,sans-Serif" font-size="10.00">+ operator+=()</text>
<text text-anchor="start" x="207" y="-1103.5" font-family="Helvetica,sans-Serif" font-size="10.00">+ operator++()</text>
<text text-anchor="start" x="207" y="-1092.5" font-family="Helvetica,sans-Serif" font-size="10.00">+ operator++()</text>
<text text-anchor="start" x="207" y="-1081.5" font-family="Helvetica,sans-Serif" font-size="10.00">+ operator&#45;=()</text>
<text text-anchor="start" x="207" y="-1070.5" font-family="Helvetica,sans-Serif" font-size="10.00">+ operator&#45;&#45;()</text>
<text text-anchor="start" x="207" y="-1059.5" font-family="Helvetica,sans-Serif" font-size="10.00">+ operator&#45;&#45;()</text>
</a>
</g>
</g>
<!-- Node5&#45;&gt;Node1 -->
<g id="edge6" class="edge">
<title>Node5&#45;&gt;Node1</title>
<path fill="none" stroke="#404040" d="M245.5,-1052.33C245.5,-1031.79 245.5,-1008.07 245.5,-983.58"/>
<polygon fill="none" stroke="#404040" points="245.5,-983.51 241.5,-977.51 245.5,-971.51 249.5,-977.51 245.5,-983.51"/>
<text text-anchor="middle" x="263" y="-1026" font-family="Helvetica,sans-Serif" font-size="10.00"> &#45;end</text>
<text text-anchor="middle" x="263" y="-1015" font-family="Helvetica,sans-Serif" font-size="10.00">&#45;length</text>
<text text-anchor="middle" x="263" y="-1004" font-family="Helvetica,sans-Serif" font-size="10.00">&#45;offset</text>
<text text-anchor="middle" x="263" y="-993" font-family="Helvetica,sans-Serif" font-size="10.00">&#45;start</text>
</g>
</g>
</svg>
