<?xml version="1.0" encoding="UTF-8" standalone="no"?>
<!DOCTYPE svg PUBLIC "-//W3C//DTD SVG 1.1//EN"
 "http://www.w3.org/Graphics/SVG/1.1/DTD/svg11.dtd">
<!-- Generated by graphviz version 2.43.0 (0)
 -->
<!-- Title: Hardware Pages: 1 -->
<svg width="424pt" height="255pt"
 viewBox="0.00 0.00 424.00 255.00" xmlns="http://www.w3.org/2000/svg" xmlns:xlink="http://www.w3.org/1999/xlink">
<g id="graph0" class="graph" transform="scale(1 1) rotate(0) translate(4 251)">
<title>Hardware</title>
<polygon fill="white" stroke="transparent" points="-4,4 -4,-251 420,-251 420,4 -4,4"/>
<g id="clust1" class="cluster">
<title>clusterdir_15b6432dff6a6d357bf70f8fbf2cdf14</title>
<g id="a_clust1"><a xlink:href="dir_15b6432dff6a6d357bf70f8fbf2cdf14.html" target="_top" xlink:title="AH">
<polygon fill="#eef0f6" stroke="#7f7f7f" stroke-dasharray="5,2" points="8,-8 8,-239 408,-239 408,-8 8,-8"/>
<text text-anchor="middle" x="208" y="-227" font-family="Helvetica,sans-Serif" font-size="10.00">AH</text>
</a>
</g>
</g>
<g id="clust2" class="cluster">
<title>clusterdir_fe496568715fe26a65b354e6e2365ccd</title>
<g id="a_clust2"><a xlink:href="dir_fe496568715fe26a65b354e6e2365ccd.html" target="_top">
<polygon fill="#eef0f6" stroke="#404040" stroke-width="2" points="16,-16 16,-212 152,-212 152,-16 16,-16"/>
</a>
</g>
</g>
<!-- dir_17c5e84722ec43f18e2d8633178d0f79 -->
<g id="node1" class="node">
<title>dir_17c5e84722ec43f18e2d8633178d0f79</title>
<g id="a_node1"><a xlink:href="dir_17c5e84722ec43f18e2d8633178d0f79.html" target="_top" xlink:title="Math">
<polygon fill="#a7b5d1" stroke="#404040" points="380,-132 326,-132 326,-96 380,-96 380,-132"/>
<text text-anchor="middle" x="353" y="-111.5" font-family="Helvetica,sans-Serif" font-size="10.00">Math</text>
</a>
</g>
</g>
<!-- dir_a084c16939eb8fb9f97e0d007826b989 -->
<g id="node2" class="node">
<title>dir_a084c16939eb8fb9f97e0d007826b989</title>
<g id="a_node2"><a xlink:href="dir_a084c16939eb8fb9f97e0d007826b989.html" target="_top" xlink:title="Error">
<polygon fill="#a7b5d1" stroke="#404040" points="214,-60 160,-60 160,-24 214,-24 214,-60"/>
<text text-anchor="middle" x="187" y="-39.5" font-family="Helvetica,sans-Serif" font-size="10.00">Error</text>
</a>
</g>
</g>
<!-- dir_a47c593fc78d643c88f09a46c50bf78a -->
<g id="node3" class="node">
<title>dir_a47c593fc78d643c88f09a46c50bf78a</title>
<g id="a_node3"><a xlink:href="dir_a47c593fc78d643c88f09a46c50bf78a.html" target="_top" xlink:title="Containers">
<polygon fill="#a7b5d1" stroke="#404040" points="387.5,-60 318.5,-60 318.5,-24 387.5,-24 387.5,-60"/>
<text text-anchor="middle" x="353" y="-39.5" font-family="Helvetica,sans-Serif" font-size="10.00">Containers</text>
</a>
</g>
</g>
<!-- dir_c93ba603db00711c7f5106968469b448 -->
<g id="node4" class="node">
<title>dir_c93ba603db00711c7f5106968469b448</title>
<g id="a_node4"><a xlink:href="dir_c93ba603db00711c7f5106968469b448.html" target="_top" xlink:title="Settings">
<polygon fill="#a7b5d1" stroke="#404040" points="288,-60 232,-60 232,-24 288,-24 288,-60"/>
<text text-anchor="middle" x="260" y="-39.5" font-family="Helvetica,sans-Serif" font-size="10.00">Settings</text>
</a>
</g>
</g>
<!-- dir_d61b814a793619a867cee0523d2eb6da -->
<g id="node5" class="node">
<title>dir_d61b814a793619a867cee0523d2eb6da</title>
<g id="a_node5"><a xlink:href="dir_d61b814a793619a867cee0523d2eb6da.html" target="_top" xlink:title="Filters">
<polygon fill="#a7b5d1" stroke="#404040" points="236,-132 182,-132 182,-96 236,-96 236,-132"/>
<text text-anchor="middle" x="209" y="-111.5" font-family="Helvetica,sans-Serif" font-size="10.00">Filters</text>
</a>
</g>
</g>
<!-- dir_dbe54f2115b12050a4f51da0d7c3487b -->
<g id="node6" class="node">
<title>dir_dbe54f2115b12050a4f51da0d7c3487b</title>
<g id="a_node6"><a xlink:href="dir_dbe54f2115b12050a4f51da0d7c3487b.html" target="_top" xlink:title="Types">
<polygon fill="#a7b5d1" stroke="#404040" points="308,-132 254,-132 254,-96 308,-96 308,-132"/>
<text text-anchor="middle" x="281" y="-111.5" font-family="Helvetica,sans-Serif" font-size="10.00">Types</text>
</a>
</g>
</g>
<!-- dir_fe496568715fe26a65b354e6e2365ccd -->
<g id="node7" class="node">
<title>dir_fe496568715fe26a65b354e6e2365ccd</title>
<text text-anchor="middle" x="112" y="-183.5" font-family="Helvetica,sans-Serif" font-size="10.00">Hardware</text>
</g>
<!-- dir_fe496568715fe26a65b354e6e2365ccd&#45;&gt;dir_17c5e84722ec43f18e2d8633178d0f79 -->
<g id="edge1" class="edge">
<title>dir_fe496568715fe26a65b354e6e2365ccd&#45;&gt;dir_17c5e84722ec43f18e2d8633178d0f79</title>
<path fill="none" stroke="black" d="M144.17,-178.65C183.11,-170.53 250.66,-155.11 316.08,-132"/>
<polygon fill="black" stroke="black" points="317.48,-135.22 325.71,-128.54 315.11,-128.63 317.48,-135.22"/>
<g id="a_edge1&#45;headlabel"><a xlink:href="dir_000007_000009.html" target="_top" xlink:title="2">
<text text-anchor="middle" x="315.06" y="-136.6" font-family="Helvetica,sans-Serif" font-size="10.00">2</text>
</a>
</g>
</g>
<!-- dir_fe496568715fe26a65b354e6e2365ccd&#45;&gt;dir_a47c593fc78d643c88f09a46c50bf78a -->
<g id="edge3" class="edge">
<title>dir_fe496568715fe26a65b354e6e2365ccd&#45;&gt;dir_a47c593fc78d643c88f09a46c50bf78a</title>
<path fill="none" stroke="black" d="M144.21,-183.79C210.43,-180.55 358.23,-169.22 389,-132 404.45,-113.31 390.72,-87.13 375.98,-67.99"/>
<polygon fill="black" stroke="black" points="378.5,-65.54 369.46,-60.01 373.07,-69.97 378.5,-65.54"/>
<g id="a_edge3&#45;headlabel"><a xlink:href="dir_000007_000001.html" target="_top" xlink:title="9">
<text text-anchor="middle" x="382.97" y="-64.03" font-family="Helvetica,sans-Serif" font-size="10.00">9</text>
</a>
</g>
</g>
<!-- dir_fe496568715fe26a65b354e6e2365ccd&#45;&gt;dir_c93ba603db00711c7f5106968469b448 -->
<g id="edge4" class="edge">
<title>dir_fe496568715fe26a65b354e6e2365ccd&#45;&gt;dir_c93ba603db00711c7f5106968469b448</title>
<path fill="none" stroke="black" d="M126.35,-167.82C134.56,-157.68 144.81,-144.43 153,-132 163.07,-116.72 160.32,-109.2 173,-96 187.16,-81.26 206.27,-69.02 222.98,-60.04"/>
<polygon fill="black" stroke="black" points="224.69,-63.09 231.96,-55.38 221.47,-56.87 224.69,-63.09"/>
<g id="a_edge4&#45;headlabel"><a xlink:href="dir_000007_000012.html" target="_top" xlink:title="7">
<text text-anchor="middle" x="222.81" y="-64.76" font-family="Helvetica,sans-Serif" font-size="10.00">7</text>
</a>
</g>
</g>
<!-- dir_fe496568715fe26a65b354e6e2365ccd&#45;&gt;dir_d61b814a793619a867cee0523d2eb6da -->
<g id="edge5" class="edge">
<title>dir_fe496568715fe26a65b354e6e2365ccd&#45;&gt;dir_d61b814a793619a867cee0523d2eb6da</title>
<path fill="none" stroke="black" d="M135.98,-167.7C148.31,-158.8 163.52,-147.82 176.85,-138.2"/>
<polygon fill="black" stroke="black" points="179.24,-140.79 185.3,-132.1 175.14,-135.12 179.24,-140.79"/>
<g id="a_edge5&#45;headlabel"><a xlink:href="dir_000007_000006.html" target="_top" xlink:title="2">
<text text-anchor="middle" x="177.98" y="-142.7" font-family="Helvetica,sans-Serif" font-size="10.00">2</text>
</a>
</g>
</g>
<!-- dir_fe496568715fe26a65b354e6e2365ccd&#45;&gt;dir_dbe54f2115b12050a4f51da0d7c3487b -->
<g id="edge6" class="edge">
<title>dir_fe496568715fe26a65b354e6e2365ccd&#45;&gt;dir_dbe54f2115b12050a4f51da0d7c3487b</title>
<path fill="none" stroke="black" d="M144.21,-172.81C169.28,-163.18 205.11,-149.1 244.43,-132.13"/>
<polygon fill="black" stroke="black" points="246.18,-135.19 253.96,-127.99 243.39,-128.77 246.18,-135.19"/>
<g id="a_edge6&#45;headlabel"><a xlink:href="dir_000007_000017.html" target="_top" xlink:title="1">
<text text-anchor="middle" x="244.01" y="-136.72" font-family="Helvetica,sans-Serif" font-size="10.00">1</text>
</a>
</g>
</g>
<!-- dir_6d0023d18521cff94ce9c6d6e763c3b1 -->
<g id="node8" class="node">
<title>dir_6d0023d18521cff94ce9c6d6e763c3b1</title>
<g id="a_node8"><a xlink:href="dir_6d0023d18521cff94ce9c6d6e763c3b1.html" target="_top" xlink:title="ExtendedInputOutput">
<polygon fill="#a7b5d1" stroke="#404040" points="144,-132 24,-132 24,-96 144,-96 144,-132"/>
<text text-anchor="middle" x="84" y="-111.5" font-family="Helvetica,sans-Serif" font-size="10.00">ExtendedInputOutput</text>
</a>
</g>
</g>
<!-- dir_fe496568715fe26a65b354e6e2365ccd&#45;&gt;dir_6d0023d18521cff94ce9c6d6e763c3b1 -->
<g id="edge2" class="edge">
<title>dir_fe496568715fe26a65b354e6e2365ccd&#45;&gt;dir_6d0023d18521cff94ce9c6d6e763c3b1</title>
<path fill="none" stroke="black" d="M105.08,-167.7C101.93,-159.81 98.12,-150.3 94.62,-141.55"/>
<polygon fill="black" stroke="black" points="97.81,-140.09 90.84,-132.1 91.31,-142.69 97.81,-140.09"/>
<g id="a_edge2&#45;headlabel"><a xlink:href="dir_000007_000005.html" target="_top" xlink:title="6">
<text text-anchor="middle" x="101.78" y="-139.87" font-family="Helvetica,sans-Serif" font-size="10.00">6</text>
</a>
</g>
</g>
<!-- dir_6d0023d18521cff94ce9c6d6e763c3b1&#45;&gt;dir_a084c16939eb8fb9f97e0d007826b989 -->
<g id="edge8" class="edge">
<title>dir_6d0023d18521cff94ce9c6d6e763c3b1&#45;&gt;dir_a084c16939eb8fb9f97e0d007826b989</title>
<path fill="none" stroke="black" d="M109.2,-95.88C122.41,-86.89 138.79,-75.76 153.11,-66.03"/>
<polygon fill="black" stroke="black" points="155.4,-68.71 161.71,-60.19 151.47,-62.92 155.4,-68.71"/>
<g id="a_edge8&#45;headlabel"><a xlink:href="dir_000005_000003.html" target="_top" xlink:title="2">
<text text-anchor="middle" x="154.03" y="-70.57" font-family="Helvetica,sans-Serif" font-size="10.00">2</text>
</a>
</g>
</g>
<!-- dir_6d0023d18521cff94ce9c6d6e763c3b1&#45;&gt;dir_a47c593fc78d643c88f09a46c50bf78a -->
<g id="edge9" class="edge">
<title>dir_6d0023d18521cff94ce9c6d6e763c3b1&#45;&gt;dir_a47c593fc78d643c88f09a46c50bf78a</title>
<path fill="none" stroke="black" d="M144.29,-96.95C145.54,-96.63 146.77,-96.31 148,-96 214.04,-79.25 231.27,-77.9 297,-60 300.81,-58.96 304.75,-57.85 308.69,-56.71"/>
<polygon fill="black" stroke="black" points="309.84,-60.02 318.44,-53.83 307.86,-53.3 309.84,-60.02"/>
<g id="a_edge9&#45;headlabel"><a xlink:href="dir_000005_000001.html" target="_top" xlink:title="6">
<text text-anchor="middle" x="307.19" y="-61.26" font-family="Helvetica,sans-Serif" font-size="10.00">6</text>
</a>
</g>
</g>
<!-- dir_6d0023d18521cff94ce9c6d6e763c3b1&#45;&gt;dir_c93ba603db00711c7f5106968469b448 -->
<g id="edge10" class="edge">
<title>dir_6d0023d18521cff94ce9c6d6e763c3b1&#45;&gt;dir_c93ba603db00711c7f5106968469b448</title>
<path fill="none" stroke="black" d="M130.96,-95.98C155.82,-86.77 187.01,-74.89 222.26,-60.2"/>
<polygon fill="black" stroke="black" points="223.94,-63.29 231.8,-56.19 221.23,-56.83 223.94,-63.29"/>
<g id="a_edge10&#45;headlabel"><a xlink:href="dir_000005_000012.html" target="_top" xlink:title="2">
<text text-anchor="middle" x="221.72" y="-64.8" font-family="Helvetica,sans-Serif" font-size="10.00">2</text>
</a>
</g>
</g>
<!-- dir_242b6e8526387d642d81914582ef5537 -->
<g id="node9" class="node">
<title>dir_242b6e8526387d642d81914582ef5537</title>
<g id="a_node9"><a xlink:href="dir_242b6e8526387d642d81914582ef5537.html" target="_top" xlink:title="LEDs">
<polygon fill="#a7b5d1" stroke="#404040" points="111,-60 57,-60 57,-24 111,-24 111,-60"/>
<text text-anchor="middle" x="84" y="-39.5" font-family="Helvetica,sans-Serif" font-size="10.00">LEDs</text>
</a>
</g>
</g>
<!-- dir_6d0023d18521cff94ce9c6d6e763c3b1&#45;&gt;dir_242b6e8526387d642d81914582ef5537 -->
<g id="edge7" class="edge">
<title>dir_6d0023d18521cff94ce9c6d6e763c3b1&#45;&gt;dir_242b6e8526387d642d81914582ef5537</title>
<path fill="none" stroke="black" d="M78.08,-95.7C77.29,-87.98 77.06,-78.71 77.4,-70.11"/>
<polygon fill="black" stroke="black" points="80.9,-70.32 78.1,-60.1 73.92,-69.84 80.9,-70.32"/>
<g id="a_edge7&#45;headlabel"><a xlink:href="dir_000005_000008.html" target="_top" xlink:title="1">
<text text-anchor="middle" x="83.48" y="-71.61" font-family="Helvetica,sans-Serif" font-size="10.00">1</text>
</a>
</g>
</g>
<!-- dir_242b6e8526387d642d81914582ef5537&#45;&gt;dir_6d0023d18521cff94ce9c6d6e763c3b1 -->
<g id="edge11" class="edge">
<title>dir_242b6e8526387d642d81914582ef5537&#45;&gt;dir_6d0023d18521cff94ce9c6d6e763c3b1</title>
<path fill="none" stroke="black" d="M89.9,-60.1C90.7,-67.79 90.94,-77.05 90.6,-85.67"/>
<polygon fill="black" stroke="black" points="87.11,-85.48 89.92,-95.7 94.09,-85.96 87.11,-85.48"/>
<g id="a_edge11&#45;headlabel"><a xlink:href="dir_000008_000005.html" target="_top" xlink:title="2">
<text text-anchor="middle" x="84.52" y="-79.2" font-family="Helvetica,sans-Serif" font-size="10.00">2</text>
</a>
</g>
</g>
</g>
</svg>
