<?xml version="1.0" encoding="UTF-8" standalone="no"?>
<!DOCTYPE svg PUBLIC "-//W3C//DTD SVG 1.1//EN"
 "http://www.w3.org/Graphics/SVG/1.1/DTD/svg11.dtd">
<!-- Generated by graphviz version 2.43.0 (0)
 -->
<!-- Title: AH Pages: 1 -->
<svg width="402pt" height="615pt"
 viewBox="0.00 0.00 402.00 615.00" xmlns="http://www.w3.org/2000/svg" xmlns:xlink="http://www.w3.org/1999/xlink">
<g id="graph0" class="graph" transform="scale(1 1) rotate(0) translate(4 611)">
<title>AH</title>
<polygon fill="white" stroke="transparent" points="-4,4 -4,-611 398,-611 398,4 -4,4"/>
<g id="clust1" class="cluster">
<title>clusterdir_68267d1309a1af8e8297ef4c3efbcdba</title>
<g id="a_clust1"><a xlink:href="dir_68267d1309a1af8e8297ef4c3efbcdba.html" target="_top" xlink:title="src">
<polygon fill="#eef0f6" stroke="#404040" stroke-dasharray="5,2" points="8,-8 8,-599 386,-599 386,-8 8,-8"/>
<text text-anchor="middle" x="197" y="-587" font-family="Helvetica,sans-Serif" font-size="10.00">src</text>
</a>
</g>
</g>
<g id="clust2" class="cluster">
<title>clusterdir_15b6432dff6a6d357bf70f8fbf2cdf14</title>
<g id="a_clust2"><a xlink:href="dir_15b6432dff6a6d357bf70f8fbf2cdf14.html" target="_top">
<polygon fill="#eef0f6" stroke="#404040" stroke-width="2" points="16,-16 16,-572 378,-572 378,-16 16,-16"/>
</a>
</g>
</g>
<!-- dir_15b6432dff6a6d357bf70f8fbf2cdf14 -->
<g id="node1" class="node">
<title>dir_15b6432dff6a6d357bf70f8fbf2cdf14</title>
<text text-anchor="middle" x="267" y="-543.5" font-family="Helvetica,sans-Serif" font-size="10.00">AH</text>
</g>
<!-- dir_17c5e84722ec43f18e2d8633178d0f79 -->
<g id="node7" class="node">
<title>dir_17c5e84722ec43f18e2d8633178d0f79</title>
<g id="a_node7"><a xlink:href="dir_17c5e84722ec43f18e2d8633178d0f79.html" target="_top" xlink:title="Math">
<polygon fill="#a7b5d1" stroke="#404040" points="294,-492 240,-492 240,-456 294,-456 294,-492"/>
<text text-anchor="middle" x="267" y="-471.5" font-family="Helvetica,sans-Serif" font-size="10.00">Math</text>
</a>
</g>
</g>
<!-- dir_15b6432dff6a6d357bf70f8fbf2cdf14&#45;&gt;dir_17c5e84722ec43f18e2d8633178d0f79 -->
<g id="edge1" class="edge">
<title>dir_15b6432dff6a6d357bf70f8fbf2cdf14&#45;&gt;dir_17c5e84722ec43f18e2d8633178d0f79</title>
<path fill="none" stroke="black" d="M267,-527.7C267,-519.98 267,-510.71 267,-502.11"/>
<polygon fill="black" stroke="black" points="270.5,-502.1 267,-492.1 263.5,-502.1 270.5,-502.1"/>
<g id="a_edge1&#45;headlabel"><a xlink:href="dir_000000_000009.html" target="_top" xlink:title="4">
<text text-anchor="middle" x="273.34" y="-503.2" font-family="Helvetica,sans-Serif" font-size="10.00">4</text>
</a>
</g>
</g>
<!-- dir_a47c593fc78d643c88f09a46c50bf78a -->
<g id="node2" class="node">
<title>dir_a47c593fc78d643c88f09a46c50bf78a</title>
<g id="a_node2"><a xlink:href="dir_a47c593fc78d643c88f09a46c50bf78a.html" target="_top" xlink:title="Containers">
<polygon fill="#a7b5d1" stroke="#404040" points="349.5,-204 280.5,-204 280.5,-168 349.5,-168 349.5,-204"/>
<text text-anchor="middle" x="315" y="-183.5" font-family="Helvetica,sans-Serif" font-size="10.00">Containers</text>
</a>
</g>
</g>
<!-- dir_54ed9a2f055393fe51924247a0779d9a -->
<g id="node3" class="node">
<title>dir_54ed9a2f055393fe51924247a0779d9a</title>
<g id="a_node3"><a xlink:href="dir_54ed9a2f055393fe51924247a0779d9a.html" target="_top" xlink:title="Debug">
<polygon fill="#a7b5d1" stroke="#404040" points="288,-60 234,-60 234,-24 288,-24 288,-60"/>
<text text-anchor="middle" x="261" y="-39.5" font-family="Helvetica,sans-Serif" font-size="10.00">Debug</text>
</a>
</g>
</g>
<!-- dir_a47c593fc78d643c88f09a46c50bf78a&#45;&gt;dir_54ed9a2f055393fe51924247a0779d9a -->
<g id="edge4" class="edge">
<title>dir_a47c593fc78d643c88f09a46c50bf78a&#45;&gt;dir_54ed9a2f055393fe51924247a0779d9a</title>
<path fill="none" stroke="black" d="M313.54,-167.67C311.54,-149.29 306.96,-119.69 297,-96 292.97,-86.41 287.08,-76.76 281.22,-68.36"/>
<polygon fill="black" stroke="black" points="283.94,-66.14 275.22,-60.13 278.28,-70.27 283.94,-66.14"/>
<g id="a_edge4&#45;headlabel"><a xlink:href="dir_000001_000002.html" target="_top" xlink:title="1">
<text text-anchor="middle" x="288.35" y="-64.87" font-family="Helvetica,sans-Serif" font-size="10.00">1</text>
</a>
</g>
</g>
<!-- dir_a084c16939eb8fb9f97e0d007826b989 -->
<g id="node4" class="node">
<title>dir_a084c16939eb8fb9f97e0d007826b989</title>
<g id="a_node4"><a xlink:href="dir_a084c16939eb8fb9f97e0d007826b989.html" target="_top" xlink:title="Error">
<polygon fill="#a7b5d1" stroke="#404040" points="288,-132 234,-132 234,-96 288,-96 288,-132"/>
<text text-anchor="middle" x="261" y="-111.5" font-family="Helvetica,sans-Serif" font-size="10.00">Error</text>
</a>
</g>
</g>
<!-- dir_a47c593fc78d643c88f09a46c50bf78a&#45;&gt;dir_a084c16939eb8fb9f97e0d007826b989 -->
<g id="edge5" class="edge">
<title>dir_a47c593fc78d643c88f09a46c50bf78a&#45;&gt;dir_a084c16939eb8fb9f97e0d007826b989</title>
<path fill="none" stroke="black" d="M301.65,-167.7C295.24,-159.39 287.44,-149.28 280.39,-140.14"/>
<polygon fill="black" stroke="black" points="283.07,-137.88 274.19,-132.1 277.53,-142.16 283.07,-137.88"/>
<g id="a_edge5&#45;headlabel"><a xlink:href="dir_000001_000003.html" target="_top" xlink:title="3">
<text text-anchor="middle" x="287.52" y="-136.5" font-family="Helvetica,sans-Serif" font-size="10.00">3</text>
</a>
</g>
</g>
<!-- dir_a47c593fc78d643c88f09a46c50bf78a&#45;&gt;dir_17c5e84722ec43f18e2d8633178d0f79 -->
<g id="edge2" class="edge">
<title>dir_a47c593fc78d643c88f09a46c50bf78a&#45;&gt;dir_17c5e84722ec43f18e2d8633178d0f79</title>
<path fill="none" stroke="black" d="M312.1,-204.31C304.02,-252.41 281.27,-388 271.52,-446.06"/>
<polygon fill="black" stroke="black" points="268.06,-445.52 269.86,-455.97 274.97,-446.68 268.06,-445.52"/>
<g id="a_edge2&#45;headlabel"><a xlink:href="dir_000001_000009.html" target="_top" xlink:title="1">
<text text-anchor="middle" x="265.86" y="-439.01" font-family="Helvetica,sans-Serif" font-size="10.00">1</text>
</a>
</g>
</g>
<!-- dir_3c4018d305623b2abf46b1ad99013cf4 -->
<g id="node8" class="node">
<title>dir_3c4018d305623b2abf46b1ad99013cf4</title>
<g id="a_node8"><a xlink:href="dir_3c4018d305623b2abf46b1ad99013cf4.html" target="_top" xlink:title="PrintStream">
<polygon fill="#a7b5d1" stroke="#404040" points="370,-420 296,-420 296,-384 370,-384 370,-420"/>
<text text-anchor="middle" x="333" y="-399.5" font-family="Helvetica,sans-Serif" font-size="10.00">PrintStream</text>
</a>
</g>
</g>
<!-- dir_a47c593fc78d643c88f09a46c50bf78a&#45;&gt;dir_3c4018d305623b2abf46b1ad99013cf4 -->
<g id="edge3" class="edge">
<title>dir_a47c593fc78d643c88f09a46c50bf78a&#45;&gt;dir_3c4018d305623b2abf46b1ad99013cf4</title>
<path fill="none" stroke="black" d="M316.45,-204.23C319.57,-241.32 326.94,-328.98 330.7,-373.71"/>
<polygon fill="black" stroke="black" points="327.23,-374.18 331.56,-383.85 334.21,-373.59 327.23,-374.18"/>
<g id="a_edge3&#45;headlabel"><a xlink:href="dir_000001_000011.html" target="_top" xlink:title="1">
<text text-anchor="middle" x="324.1" y="-368.33" font-family="Helvetica,sans-Serif" font-size="10.00">1</text>
</a>
</g>
</g>
<!-- dir_c93ba603db00711c7f5106968469b448 -->
<g id="node9" class="node">
<title>dir_c93ba603db00711c7f5106968469b448</title>
<g id="a_node9"><a xlink:href="dir_c93ba603db00711c7f5106968469b448.html" target="_top" xlink:title="Settings">
<polygon fill="#a7b5d1" stroke="#404040" points="219,-348 163,-348 163,-312 219,-312 219,-348"/>
<text text-anchor="middle" x="191" y="-327.5" font-family="Helvetica,sans-Serif" font-size="10.00">Settings</text>
</a>
</g>
</g>
<!-- dir_a47c593fc78d643c88f09a46c50bf78a&#45;&gt;dir_c93ba603db00711c7f5106968469b448 -->
<g id="edge6" class="edge">
<title>dir_a47c593fc78d643c88f09a46c50bf78a&#45;&gt;dir_c93ba603db00711c7f5106968469b448</title>
<path fill="none" stroke="black" d="M312.47,-204.17C308.85,-223.5 300.59,-254.97 283,-276 268.53,-293.3 246.88,-306.16 228.22,-314.89"/>
<polygon fill="black" stroke="black" points="226.78,-311.7 219.06,-318.95 229.62,-318.09 226.78,-311.7"/>
<g id="a_edge6&#45;headlabel"><a xlink:href="dir_000001_000012.html" target="_top" xlink:title="2">
<text text-anchor="middle" x="228.91" y="-305.14" font-family="Helvetica,sans-Serif" font-size="10.00">2</text>
</a>
</g>
</g>
<!-- dir_54ed9a2f055393fe51924247a0779d9a&#45;&gt;dir_3c4018d305623b2abf46b1ad99013cf4 -->
<g id="edge7" class="edge">
<title>dir_54ed9a2f055393fe51924247a0779d9a&#45;&gt;dir_3c4018d305623b2abf46b1ad99013cf4</title>
<path fill="none" stroke="black" d="M286.32,-60.17C318.24,-84.08 369,-130.64 369,-185 369,-259 369,-259 369,-259 369,-300.22 354.57,-346.17 343.98,-374.34"/>
<polygon fill="black" stroke="black" points="340.64,-373.28 340.29,-383.87 347.16,-375.81 340.64,-373.28"/>
<g id="a_edge7&#45;headlabel"><a xlink:href="dir_000002_000011.html" target="_top" xlink:title="1">
<text text-anchor="middle" x="339.29" y="-366.4" font-family="Helvetica,sans-Serif" font-size="10.00">1</text>
</a>
</g>
</g>
<!-- dir_54ed9a2f055393fe51924247a0779d9a&#45;&gt;dir_c93ba603db00711c7f5106968469b448 -->
<g id="edge8" class="edge">
<title>dir_54ed9a2f055393fe51924247a0779d9a&#45;&gt;dir_c93ba603db00711c7f5106968469b448</title>
<path fill="none" stroke="black" d="M233.82,-50.02C185.4,-63.09 86.13,-96.55 44,-168 8.59,-228.06 99.12,-282.9 153.59,-310.42"/>
<polygon fill="black" stroke="black" points="152.14,-313.6 162.65,-314.91 155.25,-307.33 152.14,-313.6"/>
<g id="a_edge8&#45;headlabel"><a xlink:href="dir_000002_000012.html" target="_top" xlink:title="1">
<text text-anchor="middle" x="147.66" y="-312.05" font-family="Helvetica,sans-Serif" font-size="10.00">1</text>
</a>
</g>
</g>
<!-- dir_a084c16939eb8fb9f97e0d007826b989&#45;&gt;dir_54ed9a2f055393fe51924247a0779d9a -->
<g id="edge9" class="edge">
<title>dir_a084c16939eb8fb9f97e0d007826b989&#45;&gt;dir_54ed9a2f055393fe51924247a0779d9a</title>
<path fill="none" stroke="black" d="M261,-95.7C261,-87.98 261,-78.71 261,-70.11"/>
<polygon fill="black" stroke="black" points="264.5,-70.1 261,-60.1 257.5,-70.1 264.5,-70.1"/>
<g id="a_edge9&#45;headlabel"><a xlink:href="dir_000003_000002.html" target="_top" xlink:title="1">
<text text-anchor="middle" x="267.34" y="-71.2" font-family="Helvetica,sans-Serif" font-size="10.00">1</text>
</a>
</g>
</g>
<!-- dir_d61b814a793619a867cee0523d2eb6da -->
<g id="node5" class="node">
<title>dir_d61b814a793619a867cee0523d2eb6da</title>
<g id="a_node5"><a xlink:href="dir_d61b814a793619a867cee0523d2eb6da.html" target="_top" xlink:title="Filters">
<polygon fill="#a7b5d1" stroke="#404040" points="170,-204 116,-204 116,-168 170,-168 170,-204"/>
<text text-anchor="middle" x="143" y="-183.5" font-family="Helvetica,sans-Serif" font-size="10.00">Filters</text>
</a>
</g>
</g>
<!-- dir_d61b814a793619a867cee0523d2eb6da&#45;&gt;dir_c93ba603db00711c7f5106968469b448 -->
<g id="edge10" class="edge">
<title>dir_d61b814a793619a867cee0523d2eb6da&#45;&gt;dir_c93ba603db00711c7f5106968469b448</title>
<path fill="none" stroke="black" d="M127.7,-204.33C113.42,-222.71 96.11,-252.32 109,-276 118.57,-293.59 136.77,-306.23 153.6,-314.74"/>
<polygon fill="black" stroke="black" points="152.2,-317.95 162.74,-319.05 155.19,-311.62 152.2,-317.95"/>
<g id="a_edge10&#45;headlabel"><a xlink:href="dir_000006_000012.html" target="_top" xlink:title="2">
<text text-anchor="middle" x="147.74" y="-316.49" font-family="Helvetica,sans-Serif" font-size="10.00">2</text>
</a>
</g>
</g>
<!-- dir_fe496568715fe26a65b354e6e2365ccd -->
<g id="node6" class="node">
<title>dir_fe496568715fe26a65b354e6e2365ccd</title>
<g id="a_node6"><a xlink:href="dir_fe496568715fe26a65b354e6e2365ccd.html" target="_top" xlink:title="Hardware">
<polygon fill="#a7b5d1" stroke="#404040" points="274,-276 210,-276 210,-240 274,-240 274,-276"/>
<text text-anchor="middle" x="242" y="-255.5" font-family="Helvetica,sans-Serif" font-size="10.00">Hardware</text>
</a>
</g>
</g>
<!-- dir_fe496568715fe26a65b354e6e2365ccd&#45;&gt;dir_a47c593fc78d643c88f09a46c50bf78a -->
<g id="edge13" class="edge">
<title>dir_fe496568715fe26a65b354e6e2365ccd&#45;&gt;dir_a47c593fc78d643c88f09a46c50bf78a</title>
<path fill="none" stroke="black" d="M260.04,-239.7C269.06,-231.05 280.12,-220.45 289.94,-211.03"/>
<polygon fill="black" stroke="black" points="292.37,-213.55 297.16,-204.1 287.52,-208.5 292.37,-213.55"/>
<g id="a_edge13&#45;headlabel"><a xlink:href="dir_000007_000001.html" target="_top" xlink:title="9">
<text text-anchor="middle" x="291.74" y="-215.59" font-family="Helvetica,sans-Serif" font-size="10.00">9</text>
</a>
</g>
</g>
<!-- dir_fe496568715fe26a65b354e6e2365ccd&#45;&gt;dir_a084c16939eb8fb9f97e0d007826b989 -->
<g id="edge12" class="edge">
<title>dir_fe496568715fe26a65b354e6e2365ccd&#45;&gt;dir_a084c16939eb8fb9f97e0d007826b989</title>
<path fill="none" stroke="black" d="M245.16,-239.85C247.01,-229.49 249.31,-216.01 251,-204 253.91,-183.34 256.52,-159.9 258.34,-142.25"/>
<polygon fill="black" stroke="black" points="261.84,-142.4 259.37,-132.1 254.88,-141.69 261.84,-142.4"/>
<g id="a_edge12&#45;headlabel"><a xlink:href="dir_000007_000003.html" target="_top" xlink:title="2">
<text text-anchor="middle" x="264.31" y="-143.76" font-family="Helvetica,sans-Serif" font-size="10.00">2</text>
</a>
</g>
</g>
<!-- dir_fe496568715fe26a65b354e6e2365ccd&#45;&gt;dir_d61b814a793619a867cee0523d2eb6da -->
<g id="edge15" class="edge">
<title>dir_fe496568715fe26a65b354e6e2365ccd&#45;&gt;dir_d61b814a793619a867cee0523d2eb6da</title>
<path fill="none" stroke="black" d="M217.78,-239.88C205.08,-230.89 189.34,-219.76 175.58,-210.03"/>
<polygon fill="black" stroke="black" points="177.5,-207.11 167.31,-204.19 173.46,-212.82 177.5,-207.11"/>
<g id="a_edge15&#45;headlabel"><a xlink:href="dir_000007_000006.html" target="_top" xlink:title="2">
<text text-anchor="middle" x="182.07" y="-204.36" font-family="Helvetica,sans-Serif" font-size="10.00">2</text>
</a>
</g>
</g>
<!-- dir_fe496568715fe26a65b354e6e2365ccd&#45;&gt;dir_17c5e84722ec43f18e2d8633178d0f79 -->
<g id="edge11" class="edge">
<title>dir_fe496568715fe26a65b354e6e2365ccd&#45;&gt;dir_17c5e84722ec43f18e2d8633178d0f79</title>
<path fill="none" stroke="black" d="M244.01,-276.23C248.35,-313.32 258.59,-400.98 263.81,-445.71"/>
<polygon fill="black" stroke="black" points="260.36,-446.32 265,-455.85 267.31,-445.51 260.36,-446.32"/>
<g id="a_edge11&#45;headlabel"><a xlink:href="dir_000007_000009.html" target="_top" xlink:title="2">
<text text-anchor="middle" x="257.12" y="-440.58" font-family="Helvetica,sans-Serif" font-size="10.00">2</text>
</a>
</g>
</g>
<!-- dir_fe496568715fe26a65b354e6e2365ccd&#45;&gt;dir_c93ba603db00711c7f5106968469b448 -->
<g id="edge14" class="edge">
<title>dir_fe496568715fe26a65b354e6e2365ccd&#45;&gt;dir_c93ba603db00711c7f5106968469b448</title>
<path fill="none" stroke="black" d="M235.43,-276.1C230.27,-284.38 223.11,-294.49 215.99,-303.64"/>
<polygon fill="black" stroke="black" points="213.06,-301.71 209.52,-311.7 218.51,-306.09 213.06,-301.71"/>
<g id="a_edge14&#45;headlabel"><a xlink:href="dir_000007_000012.html" target="_top" xlink:title="7">
<text text-anchor="middle" x="213.09" y="-294.63" font-family="Helvetica,sans-Serif" font-size="10.00">7</text>
</a>
</g>
</g>
<!-- dir_dbe54f2115b12050a4f51da0d7c3487b -->
<g id="node13" class="node">
<title>dir_dbe54f2115b12050a4f51da0d7c3487b</title>
<g id="a_node13"><a xlink:href="dir_dbe54f2115b12050a4f51da0d7c3487b.html" target="_top" xlink:title="Types">
<polygon fill="#a7b5d1" stroke="#404040" points="242,-204 188,-204 188,-168 242,-168 242,-204"/>
<text text-anchor="middle" x="215" y="-183.5" font-family="Helvetica,sans-Serif" font-size="10.00">Types</text>
</a>
</g>
</g>
<!-- dir_fe496568715fe26a65b354e6e2365ccd&#45;&gt;dir_dbe54f2115b12050a4f51da0d7c3487b -->
<g id="edge16" class="edge">
<title>dir_fe496568715fe26a65b354e6e2365ccd&#45;&gt;dir_dbe54f2115b12050a4f51da0d7c3487b</title>
<path fill="none" stroke="black" d="M235.33,-239.7C232.29,-231.81 228.62,-222.3 225.24,-213.55"/>
<polygon fill="black" stroke="black" points="228.46,-212.17 221.6,-204.1 221.93,-214.69 228.46,-212.17"/>
<g id="a_edge16&#45;headlabel"><a xlink:href="dir_000007_000017.html" target="_top" xlink:title="1">
<text text-anchor="middle" x="232.4" y="-212.01" font-family="Helvetica,sans-Serif" font-size="10.00">1</text>
</a>
</g>
</g>
<!-- dir_17c5e84722ec43f18e2d8633178d0f79&#45;&gt;dir_3c4018d305623b2abf46b1ad99013cf4 -->
<g id="edge17" class="edge">
<title>dir_17c5e84722ec43f18e2d8633178d0f79&#45;&gt;dir_3c4018d305623b2abf46b1ad99013cf4</title>
<path fill="none" stroke="black" d="M283.31,-455.7C291.31,-447.22 301.07,-436.86 309.82,-427.58"/>
<polygon fill="black" stroke="black" points="312.56,-429.78 316.87,-420.1 307.47,-424.98 312.56,-429.78"/>
<g id="a_edge17&#45;headlabel"><a xlink:href="dir_000009_000011.html" target="_top" xlink:title="2">
<text text-anchor="middle" x="312.16" y="-431.84" font-family="Helvetica,sans-Serif" font-size="10.00">2</text>
</a>
</g>
</g>
<!-- dir_17c5e84722ec43f18e2d8633178d0f79&#45;&gt;dir_c93ba603db00711c7f5106968469b448 -->
<g id="edge18" class="edge">
<title>dir_17c5e84722ec43f18e2d8633178d0f79&#45;&gt;dir_c93ba603db00711c7f5106968469b448</title>
<path fill="none" stroke="black" d="M239.86,-465.58C218.04,-458.02 188.84,-443.94 175,-420 164.01,-400.99 169.81,-376.19 177.33,-357.59"/>
<polygon fill="black" stroke="black" points="180.62,-358.8 181.46,-348.24 174.21,-355.97 180.62,-358.8"/>
<g id="a_edge18&#45;headlabel"><a xlink:href="dir_000009_000012.html" target="_top" xlink:title="4">
<text text-anchor="middle" x="181.76" y="-360.74" font-family="Helvetica,sans-Serif" font-size="10.00">4</text>
</a>
</g>
</g>
<!-- dir_3c4018d305623b2abf46b1ad99013cf4&#45;&gt;dir_c93ba603db00711c7f5106968469b448 -->
<g id="edge19" class="edge">
<title>dir_3c4018d305623b2abf46b1ad99013cf4&#45;&gt;dir_c93ba603db00711c7f5106968469b448</title>
<path fill="none" stroke="black" d="M298.26,-383.88C277.09,-373.44 250.04,-360.1 228.4,-349.44"/>
<polygon fill="black" stroke="black" points="229.7,-346.18 219.19,-344.9 226.61,-352.46 229.7,-346.18"/>
<g id="a_edge19&#45;headlabel"><a xlink:href="dir_000011_000012.html" target="_top" xlink:title="1">
<text text-anchor="middle" x="234.18" y="-342.72" font-family="Helvetica,sans-Serif" font-size="10.00">1</text>
</a>
</g>
</g>
<!-- dir_c93ba603db00711c7f5106968469b448&#45;&gt;dir_54ed9a2f055393fe51924247a0779d9a -->
<g id="edge21" class="edge">
<title>dir_c93ba603db00711c7f5106968469b448&#45;&gt;dir_54ed9a2f055393fe51924247a0779d9a</title>
<path fill="none" stroke="black" d="M162.77,-319.4C105.69,-296.51 -13.83,-235.55 26,-168 68.47,-95.98 168.99,-62.55 223.93,-49.71"/>
<polygon fill="black" stroke="black" points="224.95,-53.07 233.95,-47.48 223.43,-46.24 224.95,-53.07"/>
<g id="a_edge21&#45;headlabel"><a xlink:href="dir_000012_000002.html" target="_top" xlink:title="1">
<text text-anchor="middle" x="222.06" y="-54.12" font-family="Helvetica,sans-Serif" font-size="10.00">1</text>
</a>
</g>
</g>
<!-- dir_c93ba603db00711c7f5106968469b448&#45;&gt;dir_fe496568715fe26a65b354e6e2365ccd -->
<g id="edge23" class="edge">
<title>dir_c93ba603db00711c7f5106968469b448&#45;&gt;dir_fe496568715fe26a65b354e6e2365ccd</title>
<path fill="none" stroke="black" d="M197.69,-311.7C202.89,-303.39 210.06,-293.28 217.18,-284.14"/>
<polygon fill="black" stroke="black" points="220.1,-286.09 223.64,-276.1 214.65,-281.7 220.1,-286.09"/>
<g id="a_edge23&#45;headlabel"><a xlink:href="dir_000012_000007.html" target="_top" xlink:title="1">
<text text-anchor="middle" x="220.06" y="-288.17" font-family="Helvetica,sans-Serif" font-size="10.00">1</text>
</a>
</g>
</g>
<!-- dir_22cc041e64085de06e5f66b2732f928a -->
<g id="node11" class="node">
<title>dir_22cc041e64085de06e5f66b2732f928a</title>
<g id="a_node11"><a xlink:href="dir_22cc041e64085de06e5f66b2732f928a.html" target="_top" xlink:title="Teensy">
<polygon fill="#a7b5d1" stroke="#404040" points="172,-276 118,-276 118,-240 172,-240 172,-276"/>
<text text-anchor="middle" x="145" y="-255.5" font-family="Helvetica,sans-Serif" font-size="10.00">Teensy</text>
</a>
</g>
</g>
<!-- dir_c93ba603db00711c7f5106968469b448&#45;&gt;dir_22cc041e64085de06e5f66b2732f928a -->
<g id="edge20" class="edge">
<title>dir_c93ba603db00711c7f5106968469b448&#45;&gt;dir_22cc041e64085de06e5f66b2732f928a</title>
<path fill="none" stroke="black" d="M179.63,-311.7C174.28,-303.56 167.8,-293.69 161.89,-284.7"/>
<polygon fill="black" stroke="black" points="164.66,-282.54 156.24,-276.1 158.81,-286.38 164.66,-282.54"/>
<g id="a_edge20&#45;headlabel"><a xlink:href="dir_000012_000015.html" target="_top" xlink:title="1">
<text text-anchor="middle" x="169" y="-281.48" font-family="Helvetica,sans-Serif" font-size="10.00">1</text>
</a>
</g>
</g>
<!-- dir_c93ba603db00711c7f5106968469b448&#45;&gt;dir_dbe54f2115b12050a4f51da0d7c3487b -->
<g id="edge22" class="edge">
<title>dir_c93ba603db00711c7f5106968469b448&#45;&gt;dir_dbe54f2115b12050a4f51da0d7c3487b</title>
<path fill="none" stroke="black" d="M185.46,-311.83C184.59,-293.82 187.36,-264.76 192,-240 193.62,-231.35 195.89,-222.04 198.56,-213.67"/>
<polygon fill="black" stroke="black" points="201.94,-214.64 202,-204.04 195.34,-212.29 201.94,-214.64"/>
<g id="a_edge22&#45;headlabel"><a xlink:href="dir_000012_000017.html" target="_top" xlink:title="1">
<text text-anchor="middle" x="203.4" y="-216.48" font-family="Helvetica,sans-Serif" font-size="10.00">1</text>
</a>
</g>
</g>
<!-- dir_8d917646bcea03bd54151009018fc7e7 -->
<g id="node10" class="node">
<title>dir_8d917646bcea03bd54151009018fc7e7</title>
<g id="a_node10"><a xlink:href="dir_8d917646bcea03bd54151009018fc7e7.html" target="_top" xlink:title="STL">
<polygon fill="#a7b5d1" stroke="#404040" points="98,-204 44,-204 44,-168 98,-168 98,-204"/>
<text text-anchor="middle" x="71" y="-183.5" font-family="Helvetica,sans-Serif" font-size="10.00">STL</text>
</a>
</g>
</g>
<!-- dir_8d917646bcea03bd54151009018fc7e7&#45;&gt;dir_a084c16939eb8fb9f97e0d007826b989 -->
<g id="edge24" class="edge">
<title>dir_8d917646bcea03bd54151009018fc7e7&#45;&gt;dir_a084c16939eb8fb9f97e0d007826b989</title>
<path fill="none" stroke="black" d="M98.38,-171.69C101.27,-170.4 104.18,-169.15 107,-168 146.47,-151.95 192.83,-136.43 224.3,-126.38"/>
<polygon fill="black" stroke="black" points="225.49,-129.67 233.96,-123.31 223.37,-123 225.49,-129.67"/>
<g id="a_edge24&#45;headlabel"><a xlink:href="dir_000014_000003.html" target="_top" xlink:title="1">
<text text-anchor="middle" x="222.92" y="-130.96" font-family="Helvetica,sans-Serif" font-size="10.00">1</text>
</a>
</g>
</g>
<!-- dir_a685bf69d461a29e99591549e2feaab1 -->
<g id="node12" class="node">
<title>dir_a685bf69d461a29e99591549e2feaab1</title>
<g id="a_node12"><a xlink:href="dir_a685bf69d461a29e99591549e2feaab1.html" target="_top" xlink:title="Timing">
<polygon fill="#a7b5d1" stroke="#404040" points="238,-420 184,-420 184,-384 238,-384 238,-420"/>
<text text-anchor="middle" x="211" y="-399.5" font-family="Helvetica,sans-Serif" font-size="10.00">Timing</text>
</a>
</g>
</g>
<!-- dir_a685bf69d461a29e99591549e2feaab1&#45;&gt;dir_c93ba603db00711c7f5106968469b448 -->
<g id="edge25" class="edge">
<title>dir_a685bf69d461a29e99591549e2feaab1&#45;&gt;dir_c93ba603db00711c7f5106968469b448</title>
<path fill="none" stroke="black" d="M206.06,-383.7C203.83,-375.9 201.15,-366.51 198.67,-357.83"/>
<polygon fill="black" stroke="black" points="202,-356.76 195.89,-348.1 195.27,-358.68 202,-356.76"/>
<g id="a_edge25&#45;headlabel"><a xlink:href="dir_000016_000012.html" target="_top" xlink:title="1">
<text text-anchor="middle" x="205.72" y="-356.93" font-family="Helvetica,sans-Serif" font-size="10.00">1</text>
</a>
</g>
</g>
<!-- dir_dbe54f2115b12050a4f51da0d7c3487b&#45;&gt;dir_c93ba603db00711c7f5106968469b448 -->
<g id="edge26" class="edge">
<title>dir_dbe54f2115b12050a4f51da0d7c3487b&#45;&gt;dir_c93ba603db00711c7f5106968469b448</title>
<path fill="none" stroke="black" d="M217.64,-204.04C215.85,-214.36 212.28,-227.84 210,-240 206.16,-260.5 203.6,-283.96 200.74,-301.64"/>
<polygon fill="black" stroke="black" points="197.23,-301.37 198.9,-311.83 204.12,-302.61 197.23,-301.37"/>
<g id="a_edge26&#45;headlabel"><a xlink:href="dir_000017_000012.html" target="_top" xlink:title="2">
<text text-anchor="middle" x="195.07" y="-294.82" font-family="Helvetica,sans-Serif" font-size="10.00">2</text>
</a>
</g>
</g>
</g>
</svg>
