<?xml version="1.0" encoding="UTF-8" standalone="no"?>
<!DOCTYPE svg PUBLIC "-//W3C//DTD SVG 1.1//EN"
 "http://www.w3.org/Graphics/SVG/1.1/DTD/svg11.dtd">
<!-- Generated by graphviz version 2.43.0 (0)
 -->
<!-- Title: LEDs Pages: 1 -->
<svg width="160pt" height="167pt"
 viewBox="0.00 0.00 160.00 167.00" xmlns="http://www.w3.org/2000/svg" xmlns:xlink="http://www.w3.org/1999/xlink">
<g id="graph0" class="graph" transform="scale(1 1) rotate(0) translate(4 163)">
<title>LEDs</title>
<polygon fill="white" stroke="transparent" points="-4,4 -4,-163 156,-163 156,4 -4,4"/>
<g id="clust1" class="cluster">
<title>clusterdir_fe496568715fe26a65b354e6e2365ccd</title>
<g id="a_clust1"><a xlink:href="dir_fe496568715fe26a65b354e6e2365ccd.html" target="_top" xlink:title="Hardware">
<polygon fill="#eef0f6" stroke="#7f7f7f" stroke-dasharray="5,2" points="8,-8 8,-151 144,-151 144,-8 8,-8"/>
<text text-anchor="middle" x="76" y="-139" font-family="Helvetica,sans-Serif" font-size="10.00">Hardware</text>
</a>
</g>
</g>
<!-- dir_6d0023d18521cff94ce9c6d6e763c3b1 -->
<g id="node1" class="node">
<title>dir_6d0023d18521cff94ce9c6d6e763c3b1</title>
<g id="a_node1"><a xlink:href="dir_6d0023d18521cff94ce9c6d6e763c3b1.html" target="_top" xlink:title="ExtendedInputOutput">
<polygon fill="#a7b5d1" stroke="#404040" points="136,-52 16,-52 16,-16 136,-16 136,-52"/>
<text text-anchor="middle" x="76" y="-31.5" font-family="Helvetica,sans-Serif" font-size="10.00">ExtendedInputOutput</text>
</a>
</g>
</g>
<!-- dir_242b6e8526387d642d81914582ef5537 -->
<g id="node2" class="node">
<title>dir_242b6e8526387d642d81914582ef5537</title>
<g id="a_node2"><a xlink:href="dir_242b6e8526387d642d81914582ef5537.html" target="_top" xlink:title="LEDs">
<polygon fill="#eef0f6" stroke="#404040" stroke-width="2" points="103,-124 49,-124 49,-88 103,-88 103,-124"/>
<text text-anchor="middle" x="76" y="-103.5" font-family="Helvetica,sans-Serif" font-size="10.00">LEDs</text>
</a>
</g>
</g>
<!-- dir_242b6e8526387d642d81914582ef5537&#45;&gt;dir_6d0023d18521cff94ce9c6d6e763c3b1 -->
<g id="edge1" class="edge">
<title>dir_242b6e8526387d642d81914582ef5537&#45;&gt;dir_6d0023d18521cff94ce9c6d6e763c3b1</title>
<path fill="none" stroke="black" d="M76,-87.7C76,-79.98 76,-70.71 76,-62.11"/>
<polygon fill="black" stroke="black" points="79.5,-62.1 76,-52.1 72.5,-62.1 79.5,-62.1"/>
<g id="a_edge1&#45;headlabel"><a xlink:href="dir_000008_000005.html" target="_top" xlink:title="2">
<text text-anchor="middle" x="82.34" y="-63.2" font-family="Helvetica,sans-Serif" font-size="10.00">2</text>
</a>
</g>
</g>
</g>
</svg>
