<?xml version="1.0" encoding="UTF-8" standalone="no"?>
<!DOCTYPE svg PUBLIC "-//W3C//DTD SVG 1.1//EN"
 "http://www.w3.org/Graphics/SVG/1.1/DTD/svg11.dtd">
<!-- Generated by graphviz version 2.43.0 (0)
 -->
<!-- Title: SPIShiftRegisterOut.ipp Pages: 1 -->
<svg width="1620pt" height="1002pt"
 viewBox="0.00 0.00 1619.50 1002.00" xmlns="http://www.w3.org/2000/svg" xmlns:xlink="http://www.w3.org/1999/xlink">
<g id="graph0" class="graph" transform="scale(1 1) rotate(0) translate(4 998)">
<title>SPIShiftRegisterOut.ipp</title>
<polygon fill="white" stroke="transparent" points="-4,4 -4,-998 1615.5,-998 1615.5,4 -4,4"/>
<!-- Node1 -->
<g id="node1" class="node">
<title>Node1</title>
<g id="a_node1"><a xlink:title=" ">
<polygon fill="#bfbfbf" stroke="black" points="1432.5,-974.5 1432.5,-993.5 1561.5,-993.5 1561.5,-974.5 1432.5,-974.5"/>
<text text-anchor="middle" x="1497" y="-981.5" font-family="Helvetica,sans-Serif" font-size="10.00">SPIShiftRegisterOut.ipp</text>
</a>
</g>
</g>
<!-- Node2 -->
<g id="node2" class="node">
<title>Node2</title>
<g id="a_node2"><a xlink:href="../../dd/ddf/ExtendedInputOutput_8hpp.html" target="_top" xlink:title=" ">
<polygon fill="white" stroke="black" points="333.5,-694.5 333.5,-713.5 474.5,-713.5 474.5,-694.5 333.5,-694.5"/>
<text text-anchor="middle" x="404" y="-701.5" font-family="Helvetica,sans-Serif" font-size="10.00">ExtendedInputOutput.hpp</text>
</a>
</g>
</g>
<!-- Node1&#45;&gt;Node2 -->
<g id="edge1" class="edge">
<title>Node1&#45;&gt;Node2</title>
<path fill="none" stroke="midnightblue" d="M1432.13,-980.67C1177.2,-971.12 258,-932.52 258,-873 258,-873 258,-873 258,-815 258,-762.44 319.09,-731.85 362.24,-716.8"/>
<polygon fill="midnightblue" stroke="midnightblue" points="363.58,-720.05 371.96,-713.56 361.37,-713.4 363.58,-720.05"/>
</g>
<!-- Node29 -->
<g id="node29" class="node">
<title>Node29</title>
<g id="a_node29"><a xlink:href="../../d7/d88/SPIShiftRegisterOut_8hpp.html" target="_top" xlink:title=" ">
<polygon fill="white" stroke="black" points="1431,-918.5 1431,-937.5 1563,-937.5 1563,-918.5 1431,-918.5"/>
<text text-anchor="middle" x="1497" y="-925.5" font-family="Helvetica,sans-Serif" font-size="10.00">SPIShiftRegisterOut.hpp</text>
</a>
</g>
</g>
<!-- Node1&#45;&gt;Node29 -->
<g id="edge42" class="edge">
<title>Node1&#45;&gt;Node29</title>
<path fill="none" stroke="midnightblue" d="M1491.83,-974.08C1490.32,-966.93 1489.89,-956.64 1490.54,-947.69"/>
<polygon fill="midnightblue" stroke="midnightblue" points="1494.02,-948.13 1491.87,-937.75 1487.08,-947.2 1494.02,-948.13"/>
</g>
<!-- Node43 -->
<g id="node43" class="node">
<title>Node43</title>
<g id="a_node43"><a xlink:title=" ">
<polygon fill="white" stroke="#bfbfbf" points="1570.5,-862.5 1570.5,-881.5 1611.5,-881.5 1611.5,-862.5 1570.5,-862.5"/>
<text text-anchor="middle" x="1591" y="-869.5" font-family="Helvetica,sans-Serif" font-size="10.00">SPI.h</text>
</a>
</g>
</g>
<!-- Node1&#45;&gt;Node43 -->
<g id="edge78" class="edge">
<title>Node1&#45;&gt;Node43</title>
<path fill="none" stroke="midnightblue" d="M1520.18,-974.48C1536.88,-967.22 1558.73,-955.19 1572,-938 1582.32,-924.63 1587.04,-905.81 1589.19,-891.86"/>
<polygon fill="midnightblue" stroke="midnightblue" points="1592.67,-892.26 1590.43,-881.91 1585.72,-891.4 1592.67,-892.26"/>
</g>
<!-- Node3 -->
<g id="node3" class="node">
<title>Node3</title>
<g id="a_node3"><a xlink:href="../../d2/d3c/Arduino-Hardware-Types_8hpp.html" target="_top" xlink:title=" ">
<polygon fill="white" stroke="black" points="430,-627.5 430,-657.5 552,-657.5 552,-627.5 430,-627.5"/>
<text text-anchor="start" x="438" y="-645.5" font-family="Helvetica,sans-Serif" font-size="10.00">AH/Hardware/Arduino</text>
<text text-anchor="middle" x="491" y="-634.5" font-family="Helvetica,sans-Serif" font-size="10.00">&#45;Hardware&#45;Types.hpp</text>
</a>
</g>
</g>
<!-- Node2&#45;&gt;Node3 -->
<g id="edge2" class="edge">
<title>Node2&#45;&gt;Node3</title>
<path fill="none" stroke="midnightblue" d="M416.46,-694.48C428.36,-686.34 446.71,-673.79 462.23,-663.18"/>
<polygon fill="midnightblue" stroke="midnightblue" points="464.22,-666.06 470.5,-657.52 460.27,-660.28 464.22,-666.06"/>
</g>
<!-- Node14 -->
<g id="node14" class="node">
<title>Node14</title>
<g id="a_node14"><a xlink:href="../../dc/dc7/NamespaceSettings_8hpp.html" target="_top" xlink:title=" ">
<polygon fill="white" stroke="black" points="589.5,-56.5 589.5,-75.5 784.5,-75.5 784.5,-56.5 589.5,-56.5"/>
<text text-anchor="middle" x="687" y="-63.5" font-family="Helvetica,sans-Serif" font-size="10.00">AH/Settings/NamespaceSettings.hpp</text>
</a>
</g>
</g>
<!-- Node2&#45;&gt;Node14 -->
<g id="edge41" class="edge">
<title>Node2&#45;&gt;Node14</title>
<path fill="none" stroke="midnightblue" d="M333.17,-695.53C217.3,-681.33 0,-645.5 0,-576.5 0,-576.5 0,-576.5 0,-177 0,-112.8 67.19,-129.35 129,-112 210.82,-89.04 441.23,-76.45 579.05,-70.78"/>
<polygon fill="midnightblue" stroke="midnightblue" points="579.37,-74.27 589.22,-70.36 579.09,-67.27 579.37,-74.27"/>
</g>
<!-- Node28 -->
<g id="node28" class="node">
<title>Node28</title>
<g id="a_node28"><a xlink:title=" ">
<polygon fill="white" stroke="#bfbfbf" points="324.5,-633 324.5,-652 411.5,-652 411.5,-633 324.5,-633"/>
<text text-anchor="middle" x="368" y="-640" font-family="Helvetica,sans-Serif" font-size="10.00">AH/STL/climits</text>
</a>
</g>
</g>
<!-- Node2&#45;&gt;Node28 -->
<g id="edge40" class="edge">
<title>Node2&#45;&gt;Node28</title>
<path fill="none" stroke="midnightblue" d="M398.84,-694.48C393.55,-685.73 385.16,-671.87 378.47,-660.81"/>
<polygon fill="midnightblue" stroke="midnightblue" points="381.32,-658.75 373.15,-652.01 375.33,-662.38 381.32,-658.75"/>
</g>
<!-- Node4 -->
<g id="node4" class="node">
<title>Node4</title>
<g id="a_node4"><a xlink:href="../../d4/d35/Hardware-Types_8hpp.html" target="_top" xlink:title=" ">
<polygon fill="white" stroke="black" points="420.5,-560.5 420.5,-590.5 551.5,-590.5 551.5,-560.5 420.5,-560.5"/>
<text text-anchor="start" x="428.5" y="-578.5" font-family="Helvetica,sans-Serif" font-size="10.00">AH/Hardware/Hardware</text>
<text text-anchor="middle" x="486" y="-567.5" font-family="Helvetica,sans-Serif" font-size="10.00">&#45;Types.hpp</text>
</a>
</g>
</g>
<!-- Node3&#45;&gt;Node4 -->
<g id="edge3" class="edge">
<title>Node3&#45;&gt;Node4</title>
<path fill="none" stroke="midnightblue" d="M489.92,-627.4C489.31,-619.56 488.55,-609.6 487.85,-600.57"/>
<polygon fill="midnightblue" stroke="midnightblue" points="491.34,-600.28 487.08,-590.58 484.36,-600.82 491.34,-600.28"/>
</g>
<!-- Node9 -->
<g id="node9" class="node">
<title>Node9</title>
<g id="a_node9"><a xlink:href="../../d6/ddf/Arduino-Wrapper_8h.html" target="_top" xlink:title=" ">
<polygon fill="white" stroke="black" points="1322,-168.5 1322,-187.5 1446,-187.5 1446,-168.5 1322,-168.5"/>
<text text-anchor="middle" x="1384" y="-175.5" font-family="Helvetica,sans-Serif" font-size="10.00">AH/Arduino&#45;Wrapper.h</text>
</a>
</g>
</g>
<!-- Node3&#45;&gt;Node9 -->
<g id="edge39" class="edge">
<title>Node3&#45;&gt;Node9</title>
<path fill="none" stroke="midnightblue" d="M552.03,-642.05C753.4,-642.23 1384,-629.21 1384,-459 1384,-459 1384,-459 1384,-289 1384,-256.95 1384,-219.64 1384,-197.75"/>
<polygon fill="midnightblue" stroke="midnightblue" points="1387.5,-197.56 1384,-187.56 1380.5,-197.56 1387.5,-197.56"/>
</g>
<!-- Node25 -->
<g id="node25" class="node">
<title>Node25</title>
<g id="a_node25"><a xlink:href="../../d0/db1/FunctionTraits_8hpp.html" target="_top" xlink:title=" ">
<polygon fill="white" stroke="black" points="74.5,-566 74.5,-585 227.5,-585 227.5,-566 74.5,-566"/>
<text text-anchor="middle" x="151" y="-573" font-family="Helvetica,sans-Serif" font-size="10.00">AH/Types/FunctionTraits.hpp</text>
</a>
</g>
</g>
<!-- Node3&#45;&gt;Node25 -->
<g id="edge35" class="edge">
<title>Node3&#45;&gt;Node25</title>
<path fill="none" stroke="midnightblue" d="M429.82,-628.94C426.5,-628.28 423.21,-627.63 420,-627 346.84,-612.66 262.32,-596.93 207.84,-586.9"/>
<polygon fill="midnightblue" stroke="midnightblue" points="208.16,-583.4 197.7,-585.03 206.9,-590.29 208.16,-583.4"/>
</g>
<!-- Node5 -->
<g id="node5" class="node">
<title>Node5</title>
<g id="a_node5"><a xlink:href="../../de/d76/Array_8hpp.html" target="_top" xlink:title=" ">
<polygon fill="white" stroke="black" points="565.5,-504.5 565.5,-523.5 700.5,-523.5 700.5,-504.5 565.5,-504.5"/>
<text text-anchor="middle" x="633" y="-511.5" font-family="Helvetica,sans-Serif" font-size="10.00">AH/Containers/Array.hpp</text>
</a>
</g>
</g>
<!-- Node4&#45;&gt;Node5 -->
<g id="edge4" class="edge">
<title>Node4&#45;&gt;Node5</title>
<path fill="none" stroke="midnightblue" d="M520.84,-560.4C545.5,-550.42 578.29,-537.15 602.03,-527.53"/>
<polygon fill="midnightblue" stroke="midnightblue" points="603.65,-530.65 611.61,-523.66 601.03,-524.17 603.65,-530.65"/>
</g>
<!-- Node4&#45;&gt;Node14 -->
<g id="edge33" class="edge">
<title>Node4&#45;&gt;Node14</title>
<path fill="none" stroke="midnightblue" d="M474.38,-560.35C447.45,-526.04 383,-434.8 383,-347 383,-347 383,-347 383,-177 383,-126.81 531.39,-93.06 620.82,-77.27"/>
<polygon fill="midnightblue" stroke="midnightblue" points="621.63,-80.68 630.89,-75.53 620.44,-73.79 621.63,-80.68"/>
</g>
<!-- Node22 -->
<g id="node22" class="node">
<title>Node22</title>
<g id="a_node22"><a xlink:title=" ">
<polygon fill="white" stroke="#bfbfbf" points="457.5,-224.5 457.5,-243.5 510.5,-243.5 510.5,-224.5 457.5,-224.5"/>
<text text-anchor="middle" x="484" y="-231.5" font-family="Helvetica,sans-Serif" font-size="10.00">stdint.h</text>
</a>
</g>
</g>
<!-- Node4&#45;&gt;Node22 -->
<g id="edge34" class="edge">
<title>Node4&#45;&gt;Node22</title>
<path fill="none" stroke="midnightblue" d="M484.77,-560.31C482.24,-529.62 476.8,-454.78 478,-392 478.96,-341.92 481.63,-282.91 483.06,-253.54"/>
<polygon fill="midnightblue" stroke="midnightblue" points="486.56,-253.67 483.56,-243.51 479.57,-253.32 486.56,-253.67"/>
</g>
<!-- Node6 -->
<g id="node6" class="node">
<title>Node6</title>
<g id="a_node6"><a xlink:href="../../d1/d93/Error_8hpp.html" target="_top" xlink:title=" ">
<polygon fill="white" stroke="black" points="670,-448.5 670,-467.5 774,-467.5 774,-448.5 670,-448.5"/>
<text text-anchor="middle" x="722" y="-455.5" font-family="Helvetica,sans-Serif" font-size="10.00">AH/Error/Error.hpp</text>
</a>
</g>
</g>
<!-- Node5&#45;&gt;Node6 -->
<g id="edge5" class="edge">
<title>Node5&#45;&gt;Node6</title>
<path fill="none" stroke="midnightblue" d="M647.3,-504.32C661.18,-495.9 682.49,-482.97 698.8,-473.07"/>
<polygon fill="midnightblue" stroke="midnightblue" points="701,-475.83 707.74,-467.65 697.37,-469.85 701,-475.83"/>
</g>
<!-- Node15 -->
<g id="node15" class="node">
<title>Node15</title>
<g id="a_node15"><a xlink:title=" ">
<polygon fill="white" stroke="#bfbfbf" points="715.5,-112.5 715.5,-131.5 822.5,-131.5 822.5,-112.5 715.5,-112.5"/>
<text text-anchor="middle" x="769" y="-119.5" font-family="Helvetica,sans-Serif" font-size="10.00">AH/STL/type_traits</text>
</a>
</g>
</g>
<!-- Node5&#45;&gt;Node15 -->
<g id="edge31" class="edge">
<title>Node5&#45;&gt;Node15</title>
<path fill="none" stroke="midnightblue" d="M631.13,-504.5C628.67,-492 625.12,-467.98 629,-448 654.58,-316.26 682.18,-288.13 742,-168 746.67,-158.62 752.59,-148.59 757.7,-140.38"/>
<polygon fill="midnightblue" stroke="midnightblue" points="760.79,-142.05 763.2,-131.73 754.88,-138.29 760.79,-142.05"/>
</g>
<!-- Node21 -->
<g id="node21" class="node">
<title>Node21</title>
<g id="a_node21"><a xlink:title=" ">
<polygon fill="white" stroke="#bfbfbf" points="1083,-224.5 1083,-243.5 1139,-243.5 1139,-224.5 1083,-224.5"/>
<text text-anchor="middle" x="1111" y="-231.5" font-family="Helvetica,sans-Serif" font-size="10.00">stddef.h</text>
</a>
</g>
</g>
<!-- Node5&#45;&gt;Node21 -->
<g id="edge32" class="edge">
<title>Node5&#45;&gt;Node21</title>
<path fill="none" stroke="midnightblue" d="M631.52,-504.26C629.72,-490.57 628.44,-463.98 642,-448 731.12,-342.95 812.44,-412.69 938,-356 981.63,-336.3 990.81,-327.48 1030,-300 1052.42,-284.28 1076.75,-264.33 1092.83,-250.71"/>
<polygon fill="midnightblue" stroke="midnightblue" points="1095.52,-253.01 1100.85,-243.86 1090.97,-247.69 1095.52,-253.01"/>
</g>
<!-- Node24 -->
<g id="node24" class="node">
<title>Node24</title>
<g id="a_node24"><a xlink:title=" ">
<polygon fill="white" stroke="#bfbfbf" points="902,-392.5 902,-411.5 992,-411.5 992,-392.5 902,-392.5"/>
<text text-anchor="middle" x="947" y="-399.5" font-family="Helvetica,sans-Serif" font-size="10.00">AH/STL/iterator</text>
</a>
</g>
</g>
<!-- Node5&#45;&gt;Node24 -->
<g id="edge30" class="edge">
<title>Node5&#45;&gt;Node24</title>
<path fill="none" stroke="midnightblue" d="M634.09,-504.22C636.35,-489.98 642.95,-462.01 661,-448 662.14,-447.11 809.12,-424.3 891.9,-411.5"/>
<polygon fill="midnightblue" stroke="midnightblue" points="892.56,-414.94 901.91,-409.95 891.49,-408.02 892.56,-414.94"/>
</g>
<!-- Node7 -->
<g id="node7" class="node">
<title>Node7</title>
<g id="a_node7"><a xlink:href="../../df/dee/Debug_8hpp.html" target="_top" xlink:title=" ">
<polygon fill="white" stroke="black" points="1010.5,-392.5 1010.5,-411.5 1131.5,-411.5 1131.5,-392.5 1010.5,-392.5"/>
<text text-anchor="middle" x="1071" y="-399.5" font-family="Helvetica,sans-Serif" font-size="10.00">AH/Debug/Debug.hpp</text>
</a>
</g>
</g>
<!-- Node6&#45;&gt;Node7 -->
<g id="edge6" class="edge">
<title>Node6&#45;&gt;Node7</title>
<path fill="none" stroke="midnightblue" d="M774.25,-448.92C836.02,-439.36 938.85,-423.45 1005.78,-413.09"/>
<polygon fill="midnightblue" stroke="midnightblue" points="1006.45,-416.53 1015.8,-411.54 1005.38,-409.61 1006.45,-416.53"/>
</g>
<!-- Node8 -->
<g id="node8" class="node">
<title>Node8</title>
<g id="a_node8"><a xlink:href="../../dd/d80/PrintStream_8hpp.html" target="_top" xlink:title=" ">
<polygon fill="white" stroke="black" points="1116.5,-336.5 1116.5,-355.5 1289.5,-355.5 1289.5,-336.5 1116.5,-336.5"/>
<text text-anchor="middle" x="1203" y="-343.5" font-family="Helvetica,sans-Serif" font-size="10.00">AH/PrintStream/PrintStream.hpp</text>
</a>
</g>
</g>
<!-- Node7&#45;&gt;Node8 -->
<g id="edge7" class="edge">
<title>Node7&#45;&gt;Node8</title>
<path fill="none" stroke="midnightblue" d="M1091.92,-392.44C1113.74,-383.52 1148.15,-369.44 1172.89,-359.32"/>
<polygon fill="midnightblue" stroke="midnightblue" points="1174.25,-362.54 1182.18,-355.52 1171.6,-356.06 1174.25,-362.54"/>
</g>
<!-- Node16 -->
<g id="node16" class="node">
<title>Node16</title>
<g id="a_node16"><a xlink:href="../../d2/dd5/SettingsWrapper_8hpp.html" target="_top" xlink:title=" ">
<polygon fill="white" stroke="black" points="751,-336.5 751,-355.5 929,-355.5 929,-336.5 751,-336.5"/>
<text text-anchor="middle" x="840" y="-343.5" font-family="Helvetica,sans-Serif" font-size="10.00">AH/Settings/SettingsWrapper.hpp</text>
</a>
</g>
</g>
<!-- Node7&#45;&gt;Node16 -->
<g id="edge18" class="edge">
<title>Node7&#45;&gt;Node16</title>
<path fill="none" stroke="midnightblue" d="M1029.31,-392.44C987.3,-383.1 923.05,-368.12 881.22,-357.93"/>
<polygon fill="midnightblue" stroke="midnightblue" points="881.9,-354.5 871.35,-355.52 880.23,-361.29 881.9,-354.5"/>
</g>
<!-- Node8&#45;&gt;Node9 -->
<g id="edge8" class="edge">
<title>Node8&#45;&gt;Node9</title>
<path fill="none" stroke="midnightblue" d="M1212.73,-336.08C1242.09,-309.15 1330.01,-228.51 1367.15,-194.45"/>
<polygon fill="midnightblue" stroke="midnightblue" points="1369.65,-196.91 1374.66,-187.57 1364.92,-191.75 1369.65,-196.91"/>
</g>
<!-- Node8&#45;&gt;Node14 -->
<g id="edge17" class="edge">
<title>Node8&#45;&gt;Node14</title>
<path fill="none" stroke="midnightblue" d="M1198.68,-336.41C1189.95,-318.2 1171,-274.18 1171,-235 1171,-235 1171,-235 1171,-177 1171,-100.37 937.38,-77.12 794.76,-70.07"/>
<polygon fill="midnightblue" stroke="midnightblue" points="794.81,-66.57 784.65,-69.59 794.48,-73.56 794.81,-66.57"/>
</g>
<!-- Node10 -->
<g id="node10" class="node">
<title>Node10</title>
<g id="a_node10"><a xlink:href="../../d7/d79/MinMaxFix_8hpp.html" target="_top" xlink:title=" ">
<polygon fill="white" stroke="black" points="1213,-112.5 1213,-131.5 1349,-131.5 1349,-112.5 1213,-112.5"/>
<text text-anchor="middle" x="1281" y="-119.5" font-family="Helvetica,sans-Serif" font-size="10.00">AH/Math/MinMaxFix.hpp</text>
</a>
</g>
</g>
<!-- Node9&#45;&gt;Node10 -->
<g id="edge9" class="edge">
<title>Node9&#45;&gt;Node10</title>
<path fill="none" stroke="midnightblue" d="M1367.45,-168.32C1351.01,-159.7 1325.57,-146.36 1306.53,-136.39"/>
<polygon fill="midnightblue" stroke="midnightblue" points="1307.99,-133.2 1297.51,-131.65 1304.74,-139.4 1307.99,-133.2"/>
</g>
<!-- Node13 -->
<g id="node13" class="node">
<title>Node13</title>
<g id="a_node13"><a xlink:title=" ">
<polygon fill="white" stroke="#bfbfbf" points="1295.5,-0.5 1295.5,-19.5 1358.5,-19.5 1358.5,-0.5 1295.5,-0.5"/>
<text text-anchor="middle" x="1327" y="-7.5" font-family="Helvetica,sans-Serif" font-size="10.00">Arduino.h</text>
</a>
</g>
</g>
<!-- Node9&#45;&gt;Node13 -->
<g id="edge16" class="edge">
<title>Node9&#45;&gt;Node13</title>
<path fill="none" stroke="midnightblue" d="M1384.2,-168.34C1384.36,-147.82 1382.85,-95.07 1365,-56 1360.03,-45.12 1351.66,-34.78 1344.05,-26.77"/>
<polygon fill="midnightblue" stroke="midnightblue" points="1346.39,-24.16 1336.83,-19.59 1341.45,-29.13 1346.39,-24.16"/>
</g>
<!-- Node9&#45;&gt;Node15 -->
<g id="edge15" class="edge">
<title>Node9&#45;&gt;Node15</title>
<path fill="none" stroke="midnightblue" d="M1321.93,-171.55C1204.58,-161.25 951.32,-139.01 832.71,-128.59"/>
<polygon fill="midnightblue" stroke="midnightblue" points="832.96,-125.1 822.69,-127.71 832.34,-132.08 832.96,-125.1"/>
</g>
<!-- Node11 -->
<g id="node11" class="node">
<title>Node11</title>
<g id="a_node11"><a xlink:href="../../d6/d3b/FixArduinoMacros_8hpp.html" target="_top" xlink:title=" ">
<polygon fill="white" stroke="black" points="1186,-56.5 1186,-75.5 1356,-75.5 1356,-56.5 1186,-56.5"/>
<text text-anchor="middle" x="1271" y="-63.5" font-family="Helvetica,sans-Serif" font-size="10.00">AH/Math/FixArduinoMacros.hpp</text>
</a>
</g>
</g>
<!-- Node10&#45;&gt;Node11 -->
<g id="edge10" class="edge">
<title>Node10&#45;&gt;Node11</title>
<path fill="none" stroke="midnightblue" d="M1279.35,-112.08C1278.02,-104.93 1276.12,-94.64 1274.46,-85.69"/>
<polygon fill="midnightblue" stroke="midnightblue" points="1277.88,-84.95 1272.62,-75.75 1271,-86.22 1277.88,-84.95"/>
</g>
<!-- Node10&#45;&gt;Node14 -->
<g id="edge13" class="edge">
<title>Node10&#45;&gt;Node14</title>
<path fill="none" stroke="midnightblue" d="M1212.83,-114.58C1203.48,-113.71 1194,-112.83 1185,-112 1049.61,-99.54 893.48,-85.48 792.67,-76.44"/>
<polygon fill="midnightblue" stroke="midnightblue" points="792.75,-72.94 782.48,-75.53 792.13,-79.91 792.75,-72.94"/>
</g>
<!-- Node12 -->
<g id="node12" class="node">
<title>Node12</title>
<g id="a_node12"><a xlink:href="../../d1/d65/Warnings_8hpp.html" target="_top" xlink:title=" ">
<polygon fill="white" stroke="black" points="901.5,-0.5 901.5,-19.5 1044.5,-19.5 1044.5,-0.5 901.5,-0.5"/>
<text text-anchor="middle" x="973" y="-7.5" font-family="Helvetica,sans-Serif" font-size="10.00">AH/Settings/Warnings.hpp</text>
</a>
</g>
</g>
<!-- Node11&#45;&gt;Node12 -->
<g id="edge11" class="edge">
<title>Node11&#45;&gt;Node12</title>
<path fill="none" stroke="midnightblue" d="M1223.78,-56.44C1171.25,-46.92 1086.39,-31.55 1030.15,-21.36"/>
<polygon fill="midnightblue" stroke="midnightblue" points="1030.46,-17.86 1020,-19.52 1029.21,-24.74 1030.46,-17.86"/>
</g>
<!-- Node11&#45;&gt;Node13 -->
<g id="edge12" class="edge">
<title>Node11&#45;&gt;Node13</title>
<path fill="none" stroke="midnightblue" d="M1280,-56.32C1288.19,-48.42 1300.51,-36.55 1310.47,-26.94"/>
<polygon fill="midnightblue" stroke="midnightblue" points="1313.07,-29.29 1317.84,-19.83 1308.21,-24.26 1313.07,-29.29"/>
</g>
<!-- Node14&#45;&gt;Node12 -->
<g id="edge14" class="edge">
<title>Node14&#45;&gt;Node12</title>
<path fill="none" stroke="midnightblue" d="M732.32,-56.44C782.63,-46.94 863.84,-31.61 917.81,-21.42"/>
<polygon fill="midnightblue" stroke="midnightblue" points="918.72,-24.81 927.89,-19.52 917.42,-17.93 918.72,-24.81"/>
</g>
<!-- Node16&#45;&gt;Node7 -->
<g id="edge29" class="edge">
<title>Node16&#45;&gt;Node7</title>
<path fill="none" stroke="midnightblue" d="M881.51,-355.52C923.46,-364.84 987.7,-379.82 1029.6,-390.02"/>
<polygon fill="midnightblue" stroke="midnightblue" points="1028.94,-393.46 1039.49,-392.44 1030.61,-386.67 1028.94,-393.46"/>
</g>
<!-- Node16&#45;&gt;Node14 -->
<g id="edge19" class="edge">
<title>Node16&#45;&gt;Node14</title>
<path fill="none" stroke="midnightblue" d="M804.14,-336.48C783.68,-329.83 759.16,-318.51 744,-300 691.07,-235.37 686.09,-128.95 686.42,-85.93"/>
<polygon fill="midnightblue" stroke="midnightblue" points="689.92,-85.84 686.61,-75.77 682.92,-85.71 689.92,-85.84"/>
</g>
<!-- Node17 -->
<g id="node17" class="node">
<title>Node17</title>
<g id="a_node17"><a xlink:href="../../db/d02/Settings_8hpp.html" target="_top" xlink:title="All user settings and debugging options can be changed here.">
<polygon fill="white" stroke="black" points="944.5,-280.5 944.5,-299.5 1021.5,-299.5 1021.5,-280.5 944.5,-280.5"/>
<text text-anchor="middle" x="983" y="-287.5" font-family="Helvetica,sans-Serif" font-size="10.00">Settings.hpp</text>
</a>
</g>
</g>
<!-- Node16&#45;&gt;Node17 -->
<g id="edge20" class="edge">
<title>Node16&#45;&gt;Node17</title>
<path fill="none" stroke="midnightblue" d="M862.66,-336.44C886.4,-327.48 923.91,-313.31 950.74,-303.18"/>
<polygon fill="midnightblue" stroke="midnightblue" points="952.33,-306.32 960.45,-299.52 949.86,-299.77 952.33,-306.32"/>
</g>
<!-- Node23 -->
<g id="node23" class="node">
<title>Node23</title>
<g id="a_node23"><a xlink:href="../../d9/d98/TeensyUSBTypes_8hpp.html" target="_top" xlink:title=" ">
<polygon fill="white" stroke="black" points="753.5,-280.5 753.5,-299.5 926.5,-299.5 926.5,-280.5 753.5,-280.5"/>
<text text-anchor="middle" x="840" y="-287.5" font-family="Helvetica,sans-Serif" font-size="10.00">AH/Teensy/TeensyUSBTypes.hpp</text>
</a>
</g>
</g>
<!-- Node16&#45;&gt;Node23 -->
<g id="edge28" class="edge">
<title>Node16&#45;&gt;Node23</title>
<path fill="none" stroke="midnightblue" d="M840,-336.08C840,-329.01 840,-318.86 840,-309.99"/>
<polygon fill="midnightblue" stroke="midnightblue" points="843.5,-309.75 840,-299.75 836.5,-309.75 843.5,-309.75"/>
</g>
<!-- Node18 -->
<g id="node18" class="node">
<title>Node18</title>
<g id="a_node18"><a xlink:href="../../dc/d50/Frequency_8hpp.html" target="_top" xlink:title=" ">
<polygon fill="white" stroke="black" points="769,-168.5 769,-187.5 903,-187.5 903,-168.5 769,-168.5"/>
<text text-anchor="middle" x="836" y="-175.5" font-family="Helvetica,sans-Serif" font-size="10.00">AH/Types/Frequency.hpp</text>
</a>
</g>
</g>
<!-- Node17&#45;&gt;Node18 -->
<g id="edge21" class="edge">
<title>Node17&#45;&gt;Node18</title>
<path fill="none" stroke="midnightblue" d="M944.45,-280.42C900.63,-270.28 834.2,-253.57 827,-244 816.86,-230.52 821.46,-210.89 827.14,-196.73"/>
<polygon fill="midnightblue" stroke="midnightblue" points="830.36,-198.11 831.27,-187.56 823.98,-195.24 830.36,-198.11"/>
</g>
<!-- Node19 -->
<g id="node19" class="node">
<title>Node19</title>
<g id="a_node19"><a xlink:href="../../d7/d7c/ADCConfig_8hpp.html" target="_top" xlink:title="This file contains the platform&#45;specific ADC resolutions.">
<polygon fill="white" stroke="black" points="907.5,-224.5 907.5,-243.5 1064.5,-243.5 1064.5,-224.5 907.5,-224.5"/>
<text text-anchor="middle" x="986" y="-231.5" font-family="Helvetica,sans-Serif" font-size="10.00">AH/Hardware/ADCConfig.hpp</text>
</a>
</g>
</g>
<!-- Node17&#45;&gt;Node19 -->
<g id="edge23" class="edge">
<title>Node17&#45;&gt;Node19</title>
<path fill="none" stroke="midnightblue" d="M983.5,-280.08C983.89,-273.01 984.45,-262.86 984.95,-253.99"/>
<polygon fill="midnightblue" stroke="midnightblue" points="988.45,-253.93 985.51,-243.75 981.46,-253.54 988.45,-253.93"/>
</g>
<!-- Node20 -->
<g id="node20" class="node">
<title>Node20</title>
<g id="a_node20"><a xlink:title=" ">
<polygon fill="white" stroke="#bfbfbf" points="836.5,-224.5 836.5,-243.5 889.5,-243.5 889.5,-224.5 836.5,-224.5"/>
<text text-anchor="middle" x="863" y="-231.5" font-family="Helvetica,sans-Serif" font-size="10.00">limits.h</text>
</a>
</g>
</g>
<!-- Node17&#45;&gt;Node20 -->
<g id="edge25" class="edge">
<title>Node17&#45;&gt;Node20</title>
<path fill="none" stroke="midnightblue" d="M963.99,-280.44C944.41,-271.64 913.69,-257.81 891.27,-247.72"/>
<polygon fill="midnightblue" stroke="midnightblue" points="892.48,-244.43 881.93,-243.52 889.61,-250.81 892.48,-244.43"/>
</g>
<!-- Node17&#45;&gt;Node21 -->
<g id="edge26" class="edge">
<title>Node17&#45;&gt;Node21</title>
<path fill="none" stroke="midnightblue" d="M1003.28,-280.44C1024.35,-271.56 1057.52,-257.56 1081.49,-247.45"/>
<polygon fill="midnightblue" stroke="midnightblue" points="1082.96,-250.63 1090.81,-243.52 1080.24,-244.18 1082.96,-250.63"/>
</g>
<!-- Node17&#45;&gt;Node22 -->
<g id="edge27" class="edge">
<title>Node17&#45;&gt;Node22</title>
<path fill="none" stroke="midnightblue" d="M944.27,-281.44C941.14,-280.92 938.02,-280.43 935,-280 781.75,-258.03 597.67,-243.25 520.67,-237.59"/>
<polygon fill="midnightblue" stroke="midnightblue" points="520.76,-234.08 510.53,-236.85 520.25,-241.06 520.76,-234.08"/>
</g>
<!-- Node18&#45;&gt;Node14 -->
<g id="edge22" class="edge">
<title>Node18&#45;&gt;Node14</title>
<path fill="none" stroke="midnightblue" d="M838.11,-168.33C840.88,-154.74 843.97,-128.29 831,-112 818.1,-95.8 799.44,-85.31 779.8,-78.56"/>
<polygon fill="midnightblue" stroke="midnightblue" points="780.68,-75.17 770.1,-75.53 778.6,-81.85 780.68,-75.17"/>
</g>
<!-- Node19&#45;&gt;Node9 -->
<g id="edge24" class="edge">
<title>Node19&#45;&gt;Node9</title>
<path fill="none" stroke="midnightblue" d="M1049.06,-224.44C1120.45,-214.76 1236.54,-199.01 1311.58,-188.83"/>
<polygon fill="midnightblue" stroke="midnightblue" points="1312.45,-192.24 1321.89,-187.43 1311.51,-185.3 1312.45,-192.24"/>
</g>
<!-- Node25&#45;&gt;Node14 -->
<g id="edge38" class="edge">
<title>Node25&#45;&gt;Node14</title>
<path fill="none" stroke="midnightblue" d="M122.41,-565.86C101.44,-558.11 73.8,-544.72 57,-524 38.05,-500.62 38,-489.1 38,-459 38,-459 38,-459 38,-177 38,-122.75 395.05,-88.46 579.49,-74.37"/>
<polygon fill="midnightblue" stroke="midnightblue" points="579.78,-77.85 589.49,-73.61 579.25,-70.87 579.78,-77.85"/>
</g>
<!-- Node26 -->
<g id="node26" class="node">
<title>Node26</title>
<g id="a_node26"><a xlink:title=" ">
<polygon fill="white" stroke="#bfbfbf" points="66,-504.5 66,-523.5 156,-523.5 156,-504.5 66,-504.5"/>
<text text-anchor="middle" x="111" y="-511.5" font-family="Helvetica,sans-Serif" font-size="10.00">AH/STL/cstddef</text>
</a>
</g>
</g>
<!-- Node25&#45;&gt;Node26 -->
<g id="edge36" class="edge">
<title>Node25&#45;&gt;Node26</title>
<path fill="none" stroke="midnightblue" d="M145.27,-565.98C139.33,-557.14 129.88,-543.09 122.41,-531.98"/>
<polygon fill="midnightblue" stroke="midnightblue" points="125.2,-529.86 116.72,-523.51 119.39,-533.76 125.2,-529.86"/>
</g>
<!-- Node27 -->
<g id="node27" class="node">
<title>Node27</title>
<g id="a_node27"><a xlink:title=" ">
<polygon fill="white" stroke="#bfbfbf" points="174.5,-504.5 174.5,-523.5 253.5,-523.5 253.5,-504.5 174.5,-504.5"/>
<text text-anchor="middle" x="214" y="-511.5" font-family="Helvetica,sans-Serif" font-size="10.00">AH/STL/tuple</text>
</a>
</g>
</g>
<!-- Node25&#45;&gt;Node27 -->
<g id="edge37" class="edge">
<title>Node25&#45;&gt;Node27</title>
<path fill="none" stroke="midnightblue" d="M160.03,-565.98C169.76,-556.78 185.46,-541.96 197.42,-530.66"/>
<polygon fill="midnightblue" stroke="midnightblue" points="200.12,-532.92 204.99,-523.51 195.32,-527.83 200.12,-532.92"/>
</g>
<!-- Node29&#45;&gt;Node1 -->
<g id="edge77" class="edge">
<title>Node29&#45;&gt;Node1</title>
<path fill="none" stroke="midnightblue" d="M1502.13,-937.75C1503.66,-944.86 1504.1,-955.14 1503.47,-964.1"/>
<polygon fill="midnightblue" stroke="midnightblue" points="1499.99,-963.71 1502.17,-974.08 1506.93,-964.62 1499.99,-963.71"/>
</g>
<!-- Node29&#45;&gt;Node9 -->
<g id="edge75" class="edge">
<title>Node29&#45;&gt;Node9</title>
<path fill="none" stroke="midnightblue" d="M1503.26,-918.37C1515.62,-900.44 1542,-857.44 1542,-817 1542,-817 1542,-817 1542,-289 1542,-234.39 1477.65,-204.68 1431.08,-190.33"/>
<polygon fill="midnightblue" stroke="midnightblue" points="1432.02,-186.96 1421.44,-187.5 1430.05,-193.68 1432.02,-186.96"/>
</g>
<!-- Node30 -->
<g id="node30" class="node">
<title>Node30</title>
<g id="a_node30"><a xlink:href="../../d8/d93/ShiftRegisterOutBase_8hpp.html" target="_top" xlink:title=" ">
<polygon fill="white" stroke="black" points="430.5,-862.5 430.5,-881.5 571.5,-881.5 571.5,-862.5 430.5,-862.5"/>
<text text-anchor="middle" x="501" y="-869.5" font-family="Helvetica,sans-Serif" font-size="10.00">ShiftRegisterOutBase.hpp</text>
</a>
</g>
</g>
<!-- Node29&#45;&gt;Node30 -->
<g id="edge43" class="edge">
<title>Node29&#45;&gt;Node30</title>
<path fill="none" stroke="midnightblue" d="M1430.88,-923.42C1254.59,-913.86 773.75,-887.79 581.75,-877.38"/>
<polygon fill="midnightblue" stroke="midnightblue" points="581.9,-873.88 571.73,-876.83 581.52,-880.87 581.9,-873.88"/>
</g>
<!-- Node29&#45;&gt;Node43 -->
<g id="edge76" class="edge">
<title>Node29&#45;&gt;Node43</title>
<path fill="none" stroke="midnightblue" d="M1512.1,-918.32C1526.9,-909.82 1549.69,-896.73 1566.98,-886.8"/>
<polygon fill="midnightblue" stroke="midnightblue" points="1569.01,-889.67 1575.93,-881.65 1565.52,-883.6 1569.01,-889.67"/>
</g>
<!-- Node30&#45;&gt;Node2 -->
<g id="edge44" class="edge">
<title>Node30&#45;&gt;Node2</title>
<path fill="none" stroke="midnightblue" d="M474.34,-862.47C456.92,-855.47 435.21,-843.79 423,-826 401.71,-794.99 400.77,-749.05 402.22,-723.63"/>
<polygon fill="midnightblue" stroke="midnightblue" points="405.72,-723.76 402.99,-713.52 398.74,-723.23 405.72,-723.76"/>
</g>
<!-- Node31 -->
<g id="node31" class="node">
<title>Node31</title>
<g id="a_node31"><a xlink:href="../../d2/d05/StaticSizeExtendedIOElement_8hpp.html" target="_top" xlink:title=" ">
<polygon fill="white" stroke="black" points="588,-806.5 588,-825.5 770,-825.5 770,-806.5 588,-806.5"/>
<text text-anchor="middle" x="679" y="-813.5" font-family="Helvetica,sans-Serif" font-size="10.00">StaticSizeExtendedIOElement.hpp</text>
</a>
</g>
</g>
<!-- Node30&#45;&gt;Node31 -->
<g id="edge45" class="edge">
<title>Node30&#45;&gt;Node31</title>
<path fill="none" stroke="midnightblue" d="M529.2,-862.44C559.41,-853.28 607.51,-838.69 641.03,-828.52"/>
<polygon fill="midnightblue" stroke="midnightblue" points="642.37,-831.77 650.93,-825.52 640.34,-825.07 642.37,-831.77"/>
</g>
<!-- Node40 -->
<g id="node40" class="node">
<title>Node40</title>
<g id="a_node40"><a xlink:href="../../d1/d40/BitArray_8hpp.html" target="_top" xlink:title=" ">
<polygon fill="white" stroke="black" points="271.5,-504.5 271.5,-523.5 420.5,-523.5 420.5,-504.5 271.5,-504.5"/>
<text text-anchor="middle" x="346" y="-511.5" font-family="Helvetica,sans-Serif" font-size="10.00">AH/Containers/BitArray.hpp</text>
</a>
</g>
</g>
<!-- Node30&#45;&gt;Node40 -->
<g id="edge65" class="edge">
<title>Node30&#45;&gt;Node40</title>
<path fill="none" stroke="midnightblue" d="M431.02,-862.49C371.64,-850.9 296,-823.81 296,-761 296,-761 296,-761 296,-641.5 296,-599.99 319.57,-555.84 334.35,-532.25"/>
<polygon fill="midnightblue" stroke="midnightblue" points="337.37,-534.03 339.87,-523.73 331.49,-530.22 337.37,-534.03"/>
</g>
<!-- Node41 -->
<g id="node41" class="node">
<title>Node41</title>
<g id="a_node41"><a xlink:href="../../d5/d47/ShiftRegisterOutBase_8ipp.html" target="_top" xlink:title=" ">
<polygon fill="white" stroke="black" points="432,-806.5 432,-825.5 570,-825.5 570,-806.5 432,-806.5"/>
<text text-anchor="middle" x="501" y="-813.5" font-family="Helvetica,sans-Serif" font-size="10.00">ShiftRegisterOutBase.ipp</text>
</a>
</g>
</g>
<!-- Node30&#45;&gt;Node41 -->
<g id="edge69" class="edge">
<title>Node30&#45;&gt;Node41</title>
<path fill="none" stroke="midnightblue" d="M495.83,-862.08C494.32,-854.93 493.89,-844.64 494.54,-835.69"/>
<polygon fill="midnightblue" stroke="midnightblue" points="498.02,-836.13 495.87,-825.75 491.08,-835.2 498.02,-836.13"/>
</g>
<!-- Node32 -->
<g id="node32" class="node">
<title>Node32</title>
<g id="a_node32"><a xlink:href="../../d4/d57/ExtendedIOElement_8hpp.html" target="_top" xlink:title=" ">
<polygon fill="white" stroke="black" points="494,-750.5 494,-769.5 628,-769.5 628,-750.5 494,-750.5"/>
<text text-anchor="middle" x="561" y="-757.5" font-family="Helvetica,sans-Serif" font-size="10.00">ExtendedIOElement.hpp</text>
</a>
</g>
</g>
<!-- Node31&#45;&gt;Node32 -->
<g id="edge46" class="edge">
<title>Node31&#45;&gt;Node32</title>
<path fill="none" stroke="midnightblue" d="M660.3,-806.44C641.06,-797.64 610.85,-783.81 588.8,-773.72"/>
<polygon fill="midnightblue" stroke="midnightblue" points="590.16,-770.5 579.61,-769.52 587.25,-776.86 590.16,-770.5"/>
</g>
<!-- Node38 -->
<g id="node38" class="node">
<title>Node38</title>
<g id="a_node38"><a xlink:href="../../d5/db6/ArrayHelpers_8hpp.html" target="_top" xlink:title=" ">
<polygon fill="white" stroke="black" points="1340,-566 1340,-585 1514,-585 1514,-566 1340,-566"/>
<text text-anchor="middle" x="1427" y="-573" font-family="Helvetica,sans-Serif" font-size="10.00">AH/Containers/ArrayHelpers.hpp</text>
</a>
</g>
</g>
<!-- Node31&#45;&gt;Node38 -->
<g id="edge61" class="edge">
<title>Node31&#45;&gt;Node38</title>
<path fill="none" stroke="midnightblue" d="M706.06,-806.37C819.91,-770.07 1260.07,-629.72 1390.43,-588.16"/>
<polygon fill="midnightblue" stroke="midnightblue" points="1391.51,-591.49 1399.97,-585.12 1389.38,-584.82 1391.51,-591.49"/>
</g>
<!-- Node32&#45;&gt;Node2 -->
<g id="edge47" class="edge">
<title>Node32&#45;&gt;Node2</title>
<path fill="none" stroke="midnightblue" d="M536.12,-750.44C509.71,-741.36 467.78,-726.94 438.26,-716.78"/>
<polygon fill="midnightblue" stroke="midnightblue" points="439.36,-713.46 428.76,-713.52 437.08,-720.08 439.36,-713.46"/>
</g>
<!-- Node32&#45;&gt;Node4 -->
<g id="edge60" class="edge">
<title>Node32&#45;&gt;Node4</title>
<path fill="none" stroke="midnightblue" d="M563.63,-750.31C569.79,-728.17 583.07,-668.47 561,-627 554.06,-613.95 542.08,-603.67 529.7,-595.89"/>
<polygon fill="midnightblue" stroke="midnightblue" points="531.1,-592.65 520.69,-590.66 527.58,-598.7 531.1,-592.65"/>
</g>
<!-- Node33 -->
<g id="node33" class="node">
<title>Node33</title>
<g id="a_node33"><a xlink:href="../../d4/d93/Updatable_8hpp.html" target="_top" xlink:title=" ">
<polygon fill="white" stroke="black" points="813.5,-504.5 813.5,-523.5 974.5,-523.5 974.5,-504.5 813.5,-504.5"/>
<text text-anchor="middle" x="894" y="-511.5" font-family="Helvetica,sans-Serif" font-size="10.00">AH/Containers/Updatable.hpp</text>
</a>
</g>
</g>
<!-- Node32&#45;&gt;Node33 -->
<g id="edge48" class="edge">
<title>Node32&#45;&gt;Node33</title>
<path fill="none" stroke="midnightblue" d="M572.85,-750.32C622.21,-714.15 811.8,-575.23 874.06,-529.61"/>
<polygon fill="midnightblue" stroke="midnightblue" points="876.29,-532.31 882.29,-523.58 872.16,-526.67 876.29,-532.31"/>
</g>
<!-- Node33&#45;&gt;Node6 -->
<g id="edge55" class="edge">
<title>Node33&#45;&gt;Node6</title>
<path fill="none" stroke="midnightblue" d="M866.75,-504.44C837.56,-495.28 791.08,-480.69 758.69,-470.52"/>
<polygon fill="midnightblue" stroke="midnightblue" points="759.72,-467.17 749.13,-467.52 757.62,-473.85 759.72,-467.17"/>
</g>
<!-- Node33&#45;&gt;Node15 -->
<g id="edge56" class="edge">
<title>Node33&#45;&gt;Node15</title>
<path fill="none" stroke="midnightblue" d="M880.35,-504.49C848.6,-483.79 770.35,-427.2 742,-356 711.99,-280.64 745.03,-181.48 761.17,-141.19"/>
<polygon fill="midnightblue" stroke="midnightblue" points="764.44,-142.44 765.03,-131.86 757.98,-139.76 764.44,-142.44"/>
</g>
<!-- Node33&#45;&gt;Node16 -->
<g id="edge58" class="edge">
<title>Node33&#45;&gt;Node16</title>
<path fill="none" stroke="midnightblue" d="M884.67,-504.31C876.24,-495.89 864.24,-482.31 858,-468 843.2,-434.05 840.21,-390.21 839.81,-365.7"/>
<polygon fill="midnightblue" stroke="midnightblue" points="843.31,-365.62 839.78,-355.63 836.31,-365.64 843.31,-365.62"/>
</g>
<!-- Node33&#45;&gt;Node21 -->
<g id="edge59" class="edge">
<title>Node33&#45;&gt;Node21</title>
<path fill="none" stroke="midnightblue" d="M974.59,-509.47C1084.03,-503.83 1268.46,-491.01 1289,-468 1328.5,-423.75 1289.4,-432.61 1211,-392 1167.57,-369.5 1135.37,-395.84 1107,-356 1085.24,-325.44 1095.77,-278.67 1104.14,-253.15"/>
<polygon fill="midnightblue" stroke="midnightblue" points="1107.47,-254.22 1107.49,-243.63 1100.87,-251.9 1107.47,-254.22"/>
</g>
<!-- Node34 -->
<g id="node34" class="node">
<title>Node34</title>
<g id="a_node34"><a xlink:href="../../d4/dba/CRTP_8hpp.html" target="_top" xlink:title=" ">
<polygon fill="white" stroke="black" points="1146,-448.5 1146,-467.5 1280,-467.5 1280,-448.5 1146,-448.5"/>
<text text-anchor="middle" x="1213" y="-455.5" font-family="Helvetica,sans-Serif" font-size="10.00">AH/Containers/CRTP.hpp</text>
</a>
</g>
</g>
<!-- Node33&#45;&gt;Node34 -->
<g id="edge49" class="edge">
<title>Node33&#45;&gt;Node34</title>
<path fill="none" stroke="midnightblue" d="M944.55,-504.44C1001.01,-494.89 1092.37,-479.42 1152.57,-469.23"/>
<polygon fill="midnightblue" stroke="midnightblue" points="1153.41,-472.64 1162.69,-467.52 1152.25,-465.73 1153.41,-472.64"/>
</g>
<!-- Node35 -->
<g id="node35" class="node">
<title>Node35</title>
<g id="a_node35"><a xlink:href="../../de/dd1/LinkedList_8hpp.html" target="_top" xlink:title=" ">
<polygon fill="white" stroke="black" points="867.5,-448.5 867.5,-467.5 1026.5,-467.5 1026.5,-448.5 867.5,-448.5"/>
<text text-anchor="middle" x="947" y="-455.5" font-family="Helvetica,sans-Serif" font-size="10.00">AH/Containers/LinkedList.hpp</text>
</a>
</g>
</g>
<!-- Node33&#45;&gt;Node35 -->
<g id="edge50" class="edge">
<title>Node33&#45;&gt;Node35</title>
<path fill="none" stroke="midnightblue" d="M902.75,-504.08C910.47,-496.22 921.9,-484.57 931.22,-475.08"/>
<polygon fill="midnightblue" stroke="midnightblue" points="933.9,-477.34 938.41,-467.75 928.91,-472.44 933.9,-477.34"/>
</g>
<!-- Node37 -->
<g id="node37" class="node">
<title>Node37</title>
<g id="a_node37"><a xlink:title=" ">
<polygon fill="white" stroke="#bfbfbf" points="1044.5,-448.5 1044.5,-467.5 1127.5,-467.5 1127.5,-448.5 1044.5,-448.5"/>
<text text-anchor="middle" x="1086" y="-455.5" font-family="Helvetica,sans-Serif" font-size="10.00">AH/STL/utility</text>
</a>
</g>
</g>
<!-- Node33&#45;&gt;Node37 -->
<g id="edge57" class="edge">
<title>Node33&#45;&gt;Node37</title>
<path fill="none" stroke="midnightblue" d="M924.42,-504.44C957.28,-495.2 1009.78,-480.44 1045.97,-470.26"/>
<polygon fill="midnightblue" stroke="midnightblue" points="1047.04,-473.59 1055.72,-467.52 1045.15,-466.85 1047.04,-473.59"/>
</g>
<!-- Node35&#45;&gt;Node7 -->
<g id="edge51" class="edge">
<title>Node35&#45;&gt;Node7</title>
<path fill="none" stroke="midnightblue" d="M966.65,-448.44C986.96,-439.6 1018.9,-425.69 1042.1,-415.59"/>
<polygon fill="midnightblue" stroke="midnightblue" points="1043.67,-418.72 1051.44,-411.52 1040.88,-412.3 1043.67,-418.72"/>
</g>
<!-- Node35&#45;&gt;Node10 -->
<g id="edge52" class="edge">
<title>Node35&#45;&gt;Node10</title>
<path fill="none" stroke="midnightblue" d="M1015.59,-448.48C1081.57,-439.72 1176.27,-425.48 1211,-412 1253.87,-395.36 1275.98,-396.37 1298,-356 1336.87,-284.75 1304.58,-182.51 1288.63,-141.28"/>
<polygon fill="midnightblue" stroke="midnightblue" points="1291.78,-139.73 1284.81,-131.75 1285.29,-142.33 1291.78,-139.73"/>
</g>
<!-- Node35&#45;&gt;Node24 -->
<g id="edge54" class="edge">
<title>Node35&#45;&gt;Node24</title>
<path fill="none" stroke="midnightblue" d="M947,-448.08C947,-441.01 947,-430.86 947,-421.99"/>
<polygon fill="midnightblue" stroke="midnightblue" points="950.5,-421.75 947,-411.75 943.5,-421.75 950.5,-421.75"/>
</g>
<!-- Node36 -->
<g id="node36" class="node">
<title>Node36</title>
<g id="a_node36"><a xlink:title=" ">
<polygon fill="white" stroke="#bfbfbf" points="1149.5,-392.5 1149.5,-411.5 1202.5,-411.5 1202.5,-392.5 1149.5,-392.5"/>
<text text-anchor="middle" x="1176" y="-399.5" font-family="Helvetica,sans-Serif" font-size="10.00">stdlib.h</text>
</a>
</g>
</g>
<!-- Node35&#45;&gt;Node36 -->
<g id="edge53" class="edge">
<title>Node35&#45;&gt;Node36</title>
<path fill="none" stroke="midnightblue" d="M984.4,-448.46C1021.26,-440.01 1079.44,-426.56 1139.27,-412.15"/>
<polygon fill="midnightblue" stroke="midnightblue" points="1140.38,-415.48 1149.28,-409.73 1138.73,-408.68 1140.38,-415.48"/>
</g>
<!-- Node38&#45;&gt;Node5 -->
<g id="edge62" class="edge">
<title>Node38&#45;&gt;Node5</title>
<path fill="none" stroke="midnightblue" d="M1339.76,-567.96C1183.87,-556.28 859.91,-532 710.97,-520.84"/>
<polygon fill="midnightblue" stroke="midnightblue" points="710.79,-517.32 700.56,-520.06 710.27,-524.3 710.79,-517.32"/>
</g>
<!-- Node38&#45;&gt;Node8 -->
<g id="edge64" class="edge">
<title>Node38&#45;&gt;Node8</title>
<path fill="none" stroke="midnightblue" d="M1422.96,-565.79C1407.65,-533.06 1352.48,-417.94 1322,-392 1303.03,-375.85 1277.67,-365.2 1255.23,-358.33"/>
<polygon fill="midnightblue" stroke="midnightblue" points="1256.08,-354.93 1245.5,-355.52 1254.14,-361.66 1256.08,-354.93"/>
</g>
<!-- Node39 -->
<g id="node39" class="node">
<title>Node39</title>
<g id="a_node39"><a xlink:title=" ">
<polygon fill="white" stroke="#bfbfbf" points="1412.5,-504.5 1412.5,-523.5 1513.5,-523.5 1513.5,-504.5 1412.5,-504.5"/>
<text text-anchor="middle" x="1463" y="-511.5" font-family="Helvetica,sans-Serif" font-size="10.00">AH/STL/algorithm</text>
</a>
</g>
</g>
<!-- Node38&#45;&gt;Node39 -->
<g id="edge63" class="edge">
<title>Node38&#45;&gt;Node39</title>
<path fill="none" stroke="midnightblue" d="M1432.16,-565.98C1437.45,-557.23 1445.84,-543.37 1452.53,-532.31"/>
<polygon fill="midnightblue" stroke="midnightblue" points="1455.67,-533.88 1457.85,-523.51 1449.68,-530.25 1455.67,-533.88"/>
</g>
<!-- Node40&#45;&gt;Node6 -->
<g id="edge66" class="edge">
<title>Node40&#45;&gt;Node6</title>
<path fill="none" stroke="midnightblue" d="M405.58,-504.44C475.05,-494.47 589.34,-478.05 659.89,-467.92"/>
<polygon fill="midnightblue" stroke="midnightblue" points="660.56,-471.36 669.97,-466.47 659.57,-464.43 660.56,-471.36"/>
</g>
<!-- Node40&#45;&gt;Node14 -->
<g id="edge67" class="edge">
<title>Node40&#45;&gt;Node14</title>
<path fill="none" stroke="midnightblue" d="M345.87,-504.44C345.6,-485.94 345,-440.81 345,-403 345,-403 345,-403 345,-177 345,-146.2 345.03,-131.34 369,-112 400.73,-86.4 499.99,-75.36 579.26,-70.61"/>
<polygon fill="midnightblue" stroke="midnightblue" points="579.54,-74.1 589.32,-70.03 579.14,-67.11 579.54,-74.1"/>
</g>
<!-- Node40&#45;&gt;Node22 -->
<g id="edge68" class="edge">
<title>Node40&#45;&gt;Node22</title>
<path fill="none" stroke="midnightblue" d="M348.54,-504.5C358.15,-473.09 394.27,-361.28 445,-280 451.49,-269.61 460.32,-259.19 467.95,-251.01"/>
<polygon fill="midnightblue" stroke="midnightblue" points="470.62,-253.28 475.03,-243.64 465.58,-248.42 470.62,-253.28"/>
</g>
<!-- Node41&#45;&gt;Node2 -->
<g id="edge70" class="edge">
<title>Node41&#45;&gt;Node2</title>
<path fill="none" stroke="midnightblue" d="M493.39,-806.37C477.24,-788.05 439.32,-745.05 418.43,-721.36"/>
<polygon fill="midnightblue" stroke="midnightblue" points="420.82,-718.78 411.58,-713.59 415.56,-723.41 420.82,-718.78"/>
</g>
<!-- Node41&#45;&gt;Node30 -->
<g id="edge71" class="edge">
<title>Node41&#45;&gt;Node30</title>
<path fill="none" stroke="midnightblue" d="M506.13,-825.75C507.66,-832.86 508.1,-843.14 507.47,-852.1"/>
<polygon fill="midnightblue" stroke="midnightblue" points="503.99,-851.71 506.17,-862.08 510.93,-852.62 503.99,-851.71"/>
</g>
<!-- Node42 -->
<g id="node42" class="node">
<title>Node42</title>
<g id="a_node42"><a xlink:href="../../d1/d1f/ShiftRegisterOutRGB_8hpp.html" target="_top" xlink:title=" ">
<polygon fill="white" stroke="black" points="487,-392.5 487,-411.5 625,-411.5 625,-392.5 487,-392.5"/>
<text text-anchor="middle" x="556" y="-399.5" font-family="Helvetica,sans-Serif" font-size="10.00">ShiftRegisterOutRGB.hpp</text>
</a>
</g>
</g>
<!-- Node41&#45;&gt;Node42 -->
<g id="edge72" class="edge">
<title>Node41&#45;&gt;Node42</title>
<path fill="none" stroke="midnightblue" d="M543.92,-806.5C579.46,-798.48 625.86,-785.42 637,-770 642.21,-762.79 638.52,-758.76 637,-750 618.73,-644.87 578.01,-628.41 556,-524 548.52,-488.49 551.13,-445.81 553.62,-421.81"/>
<polygon fill="midnightblue" stroke="midnightblue" points="557.13,-421.97 554.79,-411.63 550.18,-421.17 557.13,-421.97"/>
</g>
<!-- Node42&#45;&gt;Node16 -->
<g id="edge73" class="edge">
<title>Node42&#45;&gt;Node16</title>
<path fill="none" stroke="midnightblue" d="M601,-392.44C650.96,-382.94 731.6,-367.61 785.2,-357.42"/>
<polygon fill="midnightblue" stroke="midnightblue" points="786.04,-360.82 795.21,-355.52 784.73,-353.95 786.04,-360.82"/>
</g>
<!-- Node42&#45;&gt;Node22 -->
<g id="edge74" class="edge">
<title>Node42&#45;&gt;Node22</title>
<path fill="none" stroke="midnightblue" d="M552.13,-392.08C540.75,-365.83 507.22,-288.55 491.86,-253.12"/>
<polygon fill="midnightblue" stroke="midnightblue" points="494.91,-251.35 487.72,-243.57 488.48,-254.14 494.91,-251.35"/>
</g>
</g>
</svg>
