<?xml version="1.0" encoding="UTF-8" standalone="no"?>
<!DOCTYPE svg PUBLIC "-//W3C//DTD SVG 1.1//EN"
 "http://www.w3.org/Graphics/SVG/1.1/DTD/svg11.dtd">
<!-- Generated by graphviz version 2.43.0 (0)
 -->
<!-- Title: SettingsWrapper.hpp Pages: 1 -->
<svg width="640pt" height="364pt"
 viewBox="0.00 0.00 639.50 364.00" xmlns="http://www.w3.org/2000/svg" xmlns:xlink="http://www.w3.org/1999/xlink">
<g id="graph0" class="graph" transform="scale(1 1) rotate(0) translate(4 360)">
<title>SettingsWrapper.hpp</title>
<polygon fill="white" stroke="transparent" points="-4,4 -4,-360 635.5,-360 635.5,4 -4,4"/>
<!-- Node1 -->
<g id="node1" class="node">
<title>Node1</title>
<g id="a_node1"><a xlink:title=" ">
<polygon fill="#bfbfbf" stroke="black" points="83,-336.5 83,-355.5 201,-355.5 201,-336.5 83,-336.5"/>
<text text-anchor="middle" x="142" y="-343.5" font-family="Helvetica,sans-Serif" font-size="10.00">SettingsWrapper.hpp</text>
</a>
</g>
</g>
<!-- Node2 -->
<g id="node2" class="node">
<title>Node2</title>
<g id="a_node2"><a xlink:href="../../dc/dc7/NamespaceSettings_8hpp.html" target="_top" xlink:title=" ">
<polygon fill="white" stroke="black" points="66.5,-56.5 66.5,-75.5 201.5,-75.5 201.5,-56.5 66.5,-56.5"/>
<text text-anchor="middle" x="134" y="-63.5" font-family="Helvetica,sans-Serif" font-size="10.00">NamespaceSettings.hpp</text>
</a>
</g>
</g>
<!-- Node1&#45;&gt;Node2 -->
<g id="edge1" class="edge">
<title>Node1&#45;&gt;Node2</title>
<path fill="none" stroke="midnightblue" d="M111.54,-336.4C69.81,-322.53 0,-290.98 0,-235 0,-235 0,-235 0,-177 0,-126.39 57.8,-94.81 97.48,-79.09"/>
<polygon fill="midnightblue" stroke="midnightblue" points="98.77,-82.35 106.88,-75.53 96.29,-75.8 98.77,-82.35"/>
</g>
<!-- Node4 -->
<g id="node4" class="node">
<title>Node4</title>
<g id="a_node4"><a xlink:href="../../db/d02/Settings_8hpp.html" target="_top" xlink:title="All user settings and debugging options can be changed here.">
<polygon fill="white" stroke="black" points="247.5,-280.5 247.5,-299.5 324.5,-299.5 324.5,-280.5 247.5,-280.5"/>
<text text-anchor="middle" x="286" y="-287.5" font-family="Helvetica,sans-Serif" font-size="10.00">Settings.hpp</text>
</a>
</g>
</g>
<!-- Node1&#45;&gt;Node4 -->
<g id="edge3" class="edge">
<title>Node1&#45;&gt;Node4</title>
<path fill="none" stroke="midnightblue" d="M164.82,-336.44C188.83,-327.44 226.83,-313.19 253.87,-303.05"/>
<polygon fill="midnightblue" stroke="midnightblue" points="255.16,-306.3 263.29,-299.52 252.7,-299.75 255.16,-306.3"/>
</g>
<!-- Node15 -->
<g id="node15" class="node">
<title>Node15</title>
<g id="a_node15"><a xlink:href="../../d9/d98/TeensyUSBTypes_8hpp.html" target="_top" xlink:title=" ">
<polygon fill="white" stroke="black" points="342.5,-280.5 342.5,-299.5 515.5,-299.5 515.5,-280.5 342.5,-280.5"/>
<text text-anchor="middle" x="429" y="-287.5" font-family="Helvetica,sans-Serif" font-size="10.00">AH/Teensy/TeensyUSBTypes.hpp</text>
</a>
</g>
</g>
<!-- Node1&#45;&gt;Node15 -->
<g id="edge18" class="edge">
<title>Node1&#45;&gt;Node15</title>
<path fill="none" stroke="midnightblue" d="M187.48,-336.44C237.96,-326.94 319.46,-311.61 373.62,-301.42"/>
<polygon fill="midnightblue" stroke="midnightblue" points="374.56,-304.81 383.74,-299.52 373.26,-297.93 374.56,-304.81"/>
</g>
<!-- Node16 -->
<g id="node16" class="node">
<title>Node16</title>
<g id="a_node16"><a xlink:href="../../df/dee/Debug_8hpp.html" target="_top" xlink:title=" ">
<polygon fill="white" stroke="black" points="81.5,-280.5 81.5,-299.5 202.5,-299.5 202.5,-280.5 81.5,-280.5"/>
<text text-anchor="middle" x="142" y="-287.5" font-family="Helvetica,sans-Serif" font-size="10.00">AH/Debug/Debug.hpp</text>
</a>
</g>
</g>
<!-- Node1&#45;&gt;Node16 -->
<g id="edge19" class="edge">
<title>Node1&#45;&gt;Node16</title>
<path fill="none" stroke="midnightblue" d="M136.83,-336.08C135.32,-328.93 134.89,-318.64 135.54,-309.69"/>
<polygon fill="midnightblue" stroke="midnightblue" points="139.02,-310.13 136.87,-299.75 132.08,-309.2 139.02,-310.13"/>
</g>
<!-- Node3 -->
<g id="node3" class="node">
<title>Node3</title>
<g id="a_node3"><a xlink:href="../../d1/d65/Warnings_8hpp.html" target="_top" xlink:title=" ">
<polygon fill="white" stroke="black" points="160.5,-0.5 160.5,-19.5 303.5,-19.5 303.5,-0.5 160.5,-0.5"/>
<text text-anchor="middle" x="232" y="-7.5" font-family="Helvetica,sans-Serif" font-size="10.00">AH/Settings/Warnings.hpp</text>
</a>
</g>
</g>
<!-- Node2&#45;&gt;Node3 -->
<g id="edge2" class="edge">
<title>Node2&#45;&gt;Node3</title>
<path fill="none" stroke="midnightblue" d="M149.75,-56.32C165.32,-47.74 189.38,-34.49 207.46,-24.52"/>
<polygon fill="midnightblue" stroke="midnightblue" points="209.22,-27.55 216.29,-19.65 205.85,-21.42 209.22,-27.55"/>
</g>
<!-- Node5 -->
<g id="node5" class="node">
<title>Node5</title>
<g id="a_node5"><a xlink:href="../../dc/d50/Frequency_8hpp.html" target="_top" xlink:title=" ">
<polygon fill="white" stroke="black" points="153,-168.5 153,-187.5 287,-187.5 287,-168.5 153,-168.5"/>
<text text-anchor="middle" x="220" y="-175.5" font-family="Helvetica,sans-Serif" font-size="10.00">AH/Types/Frequency.hpp</text>
</a>
</g>
</g>
<!-- Node4&#45;&gt;Node5 -->
<g id="edge4" class="edge">
<title>Node4&#45;&gt;Node5</title>
<path fill="none" stroke="midnightblue" d="M277.58,-280.24C269.53,-271.55 257.41,-257.59 249,-244 239.77,-229.07 231.85,-210.7 226.64,-197.3"/>
<polygon fill="midnightblue" stroke="midnightblue" points="229.85,-195.91 223.06,-187.78 223.3,-198.38 229.85,-195.91"/>
</g>
<!-- Node6 -->
<g id="node6" class="node">
<title>Node6</title>
<g id="a_node6"><a xlink:href="../../d7/d7c/ADCConfig_8hpp.html" target="_top" xlink:title="This file contains the platform&#45;specific ADC resolutions.">
<polygon fill="white" stroke="black" points="403.5,-224.5 403.5,-243.5 560.5,-243.5 560.5,-224.5 403.5,-224.5"/>
<text text-anchor="middle" x="482" y="-231.5" font-family="Helvetica,sans-Serif" font-size="10.00">AH/Hardware/ADCConfig.hpp</text>
</a>
</g>
</g>
<!-- Node4&#45;&gt;Node6 -->
<g id="edge6" class="edge">
<title>Node4&#45;&gt;Node6</title>
<path fill="none" stroke="midnightblue" d="M317.06,-280.44C350.6,-271.2 404.2,-256.44 441.14,-246.26"/>
<polygon fill="midnightblue" stroke="midnightblue" points="442.38,-249.55 451.09,-243.52 440.52,-242.8 442.38,-249.55"/>
</g>
<!-- Node12 -->
<g id="node12" class="node">
<title>Node12</title>
<g id="a_node12"><a xlink:title=" ">
<polygon fill="white" stroke="#bfbfbf" points="578.5,-224.5 578.5,-243.5 631.5,-243.5 631.5,-224.5 578.5,-224.5"/>
<text text-anchor="middle" x="605" y="-231.5" font-family="Helvetica,sans-Serif" font-size="10.00">limits.h</text>
</a>
</g>
</g>
<!-- Node4&#45;&gt;Node12 -->
<g id="edge15" class="edge">
<title>Node4&#45;&gt;Node12</title>
<path fill="none" stroke="midnightblue" d="M324.75,-281.62C327.88,-281.06 330.99,-280.51 334,-280 435.44,-262.76 464.31,-265.07 568.34,-244.18"/>
<polygon fill="midnightblue" stroke="midnightblue" points="569.21,-247.58 578.31,-242.16 567.81,-240.72 569.21,-247.58"/>
</g>
<!-- Node13 -->
<g id="node13" class="node">
<title>Node13</title>
<g id="a_node13"><a xlink:title=" ">
<polygon fill="white" stroke="#bfbfbf" points="258,-224.5 258,-243.5 314,-243.5 314,-224.5 258,-224.5"/>
<text text-anchor="middle" x="286" y="-231.5" font-family="Helvetica,sans-Serif" font-size="10.00">stddef.h</text>
</a>
</g>
</g>
<!-- Node4&#45;&gt;Node13 -->
<g id="edge16" class="edge">
<title>Node4&#45;&gt;Node13</title>
<path fill="none" stroke="midnightblue" d="M286,-280.08C286,-273.01 286,-262.86 286,-253.99"/>
<polygon fill="midnightblue" stroke="midnightblue" points="289.5,-253.75 286,-243.75 282.5,-253.75 289.5,-253.75"/>
</g>
<!-- Node14 -->
<g id="node14" class="node">
<title>Node14</title>
<g id="a_node14"><a xlink:title=" ">
<polygon fill="white" stroke="#bfbfbf" points="332.5,-224.5 332.5,-243.5 385.5,-243.5 385.5,-224.5 332.5,-224.5"/>
<text text-anchor="middle" x="359" y="-231.5" font-family="Helvetica,sans-Serif" font-size="10.00">stdint.h</text>
</a>
</g>
</g>
<!-- Node4&#45;&gt;Node14 -->
<g id="edge17" class="edge">
<title>Node4&#45;&gt;Node14</title>
<path fill="none" stroke="midnightblue" d="M297.73,-280.32C308.84,-272.11 325.74,-259.6 338.98,-249.81"/>
<polygon fill="midnightblue" stroke="midnightblue" points="341.1,-252.59 347.06,-243.83 336.94,-246.97 341.1,-252.59"/>
</g>
<!-- Node5&#45;&gt;Node2 -->
<g id="edge5" class="edge">
<title>Node5&#45;&gt;Node2</title>
<path fill="none" stroke="midnightblue" d="M209.23,-168.47C198.9,-159.94 183.25,-146.11 172,-132 160.31,-117.34 149.79,-98.7 142.8,-85.15"/>
<polygon fill="midnightblue" stroke="midnightblue" points="145.79,-83.3 138.18,-75.92 139.53,-86.43 145.79,-83.3"/>
</g>
<!-- Node7 -->
<g id="node7" class="node">
<title>Node7</title>
<g id="a_node7"><a xlink:href="../../d6/ddf/Arduino-Wrapper_8h.html" target="_top" xlink:title=" ">
<polygon fill="white" stroke="black" points="327,-168.5 327,-187.5 451,-187.5 451,-168.5 327,-168.5"/>
<text text-anchor="middle" x="389" y="-175.5" font-family="Helvetica,sans-Serif" font-size="10.00">AH/Arduino&#45;Wrapper.h</text>
</a>
</g>
</g>
<!-- Node6&#45;&gt;Node7 -->
<g id="edge7" class="edge">
<title>Node6&#45;&gt;Node7</title>
<path fill="none" stroke="midnightblue" d="M467.06,-224.32C452.41,-215.82 429.87,-202.73 412.76,-192.8"/>
<polygon fill="midnightblue" stroke="midnightblue" points="414.31,-189.65 403.9,-187.65 410.8,-195.7 414.31,-189.65"/>
</g>
<!-- Node8 -->
<g id="node8" class="node">
<title>Node8</title>
<g id="a_node8"><a xlink:href="../../d7/d79/MinMaxFix_8hpp.html" target="_top" xlink:title=" ">
<polygon fill="white" stroke="black" points="181,-112.5 181,-131.5 317,-131.5 317,-112.5 181,-112.5"/>
<text text-anchor="middle" x="249" y="-119.5" font-family="Helvetica,sans-Serif" font-size="10.00">AH/Math/MinMaxFix.hpp</text>
</a>
</g>
</g>
<!-- Node7&#45;&gt;Node8 -->
<g id="edge8" class="edge">
<title>Node7&#45;&gt;Node8</title>
<path fill="none" stroke="midnightblue" d="M366.82,-168.44C343.57,-159.48 306.85,-145.31 280.58,-135.18"/>
<polygon fill="midnightblue" stroke="midnightblue" points="281.67,-131.85 271.08,-131.52 279.15,-138.38 281.67,-131.85"/>
</g>
<!-- Node10 -->
<g id="node10" class="node">
<title>Node10</title>
<g id="a_node10"><a xlink:title=" ">
<polygon fill="white" stroke="#bfbfbf" points="346.5,-0.5 346.5,-19.5 409.5,-19.5 409.5,-0.5 346.5,-0.5"/>
<text text-anchor="middle" x="378" y="-7.5" font-family="Helvetica,sans-Serif" font-size="10.00">Arduino.h</text>
</a>
</g>
</g>
<!-- Node7&#45;&gt;Node10 -->
<g id="edge14" class="edge">
<title>Node7&#45;&gt;Node10</title>
<path fill="none" stroke="midnightblue" d="M409.85,-168.43C424.58,-161.13 443.2,-149.09 452,-132 456.07,-124.1 454.76,-120.45 452,-112 440.76,-77.63 412.87,-45.27 394.72,-26.83"/>
<polygon fill="midnightblue" stroke="midnightblue" points="396.97,-24.13 387.39,-19.6 392.05,-29.11 396.97,-24.13"/>
</g>
<!-- Node11 -->
<g id="node11" class="node">
<title>Node11</title>
<g id="a_node11"><a xlink:title=" ">
<polygon fill="white" stroke="#bfbfbf" points="335.5,-112.5 335.5,-131.5 442.5,-131.5 442.5,-112.5 335.5,-112.5"/>
<text text-anchor="middle" x="389" y="-119.5" font-family="Helvetica,sans-Serif" font-size="10.00">AH/STL/type_traits</text>
</a>
</g>
</g>
<!-- Node7&#45;&gt;Node11 -->
<g id="edge13" class="edge">
<title>Node7&#45;&gt;Node11</title>
<path fill="none" stroke="midnightblue" d="M389,-168.08C389,-161.01 389,-150.86 389,-141.99"/>
<polygon fill="midnightblue" stroke="midnightblue" points="392.5,-141.75 389,-131.75 385.5,-141.75 392.5,-141.75"/>
</g>
<!-- Node8&#45;&gt;Node2 -->
<g id="edge12" class="edge">
<title>Node8&#45;&gt;Node2</title>
<path fill="none" stroke="midnightblue" d="M230.78,-112.44C212.1,-103.68 182.84,-89.94 161.38,-79.86"/>
<polygon fill="midnightblue" stroke="midnightblue" points="162.68,-76.6 152.14,-75.52 159.7,-82.93 162.68,-76.6"/>
</g>
<!-- Node9 -->
<g id="node9" class="node">
<title>Node9</title>
<g id="a_node9"><a xlink:href="../../d6/d3b/FixArduinoMacros_8hpp.html" target="_top" xlink:title=" ">
<polygon fill="white" stroke="black" points="220,-56.5 220,-75.5 390,-75.5 390,-56.5 220,-56.5"/>
<text text-anchor="middle" x="305" y="-63.5" font-family="Helvetica,sans-Serif" font-size="10.00">AH/Math/FixArduinoMacros.hpp</text>
</a>
</g>
</g>
<!-- Node8&#45;&gt;Node9 -->
<g id="edge9" class="edge">
<title>Node8&#45;&gt;Node9</title>
<path fill="none" stroke="midnightblue" d="M258,-112.32C266.19,-104.42 278.51,-92.55 288.47,-82.94"/>
<polygon fill="midnightblue" stroke="midnightblue" points="291.07,-85.29 295.84,-75.83 286.21,-80.26 291.07,-85.29"/>
</g>
<!-- Node9&#45;&gt;Node3 -->
<g id="edge10" class="edge">
<title>Node9&#45;&gt;Node3</title>
<path fill="none" stroke="midnightblue" d="M293.27,-56.32C282.16,-48.11 265.26,-35.6 252.02,-25.81"/>
<polygon fill="midnightblue" stroke="midnightblue" points="254.06,-22.97 243.94,-19.83 249.9,-28.59 254.06,-22.97"/>
</g>
<!-- Node9&#45;&gt;Node10 -->
<g id="edge11" class="edge">
<title>Node9&#45;&gt;Node10</title>
<path fill="none" stroke="midnightblue" d="M316.73,-56.32C327.84,-48.11 344.74,-35.6 357.98,-25.81"/>
<polygon fill="midnightblue" stroke="midnightblue" points="360.1,-28.59 366.06,-19.83 355.94,-22.97 360.1,-28.59"/>
</g>
<!-- Node16&#45;&gt;Node1 -->
<g id="edge23" class="edge">
<title>Node16&#45;&gt;Node1</title>
<path fill="none" stroke="midnightblue" d="M147.13,-299.75C148.66,-306.86 149.1,-317.14 148.47,-326.1"/>
<polygon fill="midnightblue" stroke="midnightblue" points="144.99,-325.71 147.17,-336.08 151.93,-326.62 144.99,-325.71"/>
</g>
<!-- Node17 -->
<g id="node17" class="node">
<title>Node17</title>
<g id="a_node17"><a xlink:href="../../dd/d80/PrintStream_8hpp.html" target="_top" xlink:title=" ">
<polygon fill="white" stroke="black" points="28.5,-224.5 28.5,-243.5 201.5,-243.5 201.5,-224.5 28.5,-224.5"/>
<text text-anchor="middle" x="115" y="-231.5" font-family="Helvetica,sans-Serif" font-size="10.00">AH/PrintStream/PrintStream.hpp</text>
</a>
</g>
</g>
<!-- Node16&#45;&gt;Node17 -->
<g id="edge20" class="edge">
<title>Node16&#45;&gt;Node17</title>
<path fill="none" stroke="midnightblue" d="M137.54,-280.08C133.85,-272.69 128.48,-261.95 123.91,-252.81"/>
<polygon fill="midnightblue" stroke="midnightblue" points="126.98,-251.13 119.38,-243.75 120.72,-254.26 126.98,-251.13"/>
</g>
<!-- Node17&#45;&gt;Node2 -->
<g id="edge22" class="edge">
<title>Node17&#45;&gt;Node2</title>
<path fill="none" stroke="midnightblue" d="M116.02,-224.08C119.01,-197.95 127.8,-121.21 131.87,-85.58"/>
<polygon fill="midnightblue" stroke="midnightblue" points="135.36,-85.9 133.02,-75.57 128.4,-85.11 135.36,-85.9"/>
</g>
<!-- Node17&#45;&gt;Node7 -->
<g id="edge21" class="edge">
<title>Node17&#45;&gt;Node7</title>
<path fill="none" stroke="midnightblue" d="M158.42,-224.44C206.52,-214.96 284.09,-199.67 335.81,-189.48"/>
<polygon fill="midnightblue" stroke="midnightblue" points="336.65,-192.88 345.79,-187.52 335.3,-186.02 336.65,-192.88"/>
</g>
</g>
</svg>
