<?xml version="1.0" encoding="UTF-8" standalone="no"?>
<!DOCTYPE svg PUBLIC "-//W3C//DTD SVG 1.1//EN"
 "http://www.w3.org/Graphics/SVG/1.1/DTD/svg11.dtd">
<!-- Generated by graphviz version 2.43.0 (0)
 -->
<!-- Title: MAX7219_Base.hpp Pages: 1 -->
<svg width="1496pt" height="789pt"
 viewBox="0.00 0.00 1495.50 789.00" xmlns="http://www.w3.org/2000/svg" xmlns:xlink="http://www.w3.org/1999/xlink">
<g id="graph0" class="graph" transform="scale(1 1) rotate(0) translate(4 785)">
<title>MAX7219_Base.hpp</title>
<polygon fill="white" stroke="transparent" points="-4,4 -4,-785 1491.5,-785 1491.5,4 -4,4"/>
<!-- Node1 -->
<g id="node1" class="node">
<title>Node1</title>
<g id="a_node1"><a xlink:title=" ">
<polygon fill="#bfbfbf" stroke="black" points="1361.5,-761.5 1361.5,-780.5 1474.5,-780.5 1474.5,-761.5 1361.5,-761.5"/>
<text text-anchor="middle" x="1418" y="-768.5" font-family="Helvetica,sans-Serif" font-size="10.00">MAX7219_Base.hpp</text>
</a>
</g>
</g>
<!-- Node2 -->
<g id="node2" class="node">
<title>Node2</title>
<g id="a_node2"><a xlink:href="../../d1/d65/Warnings_8hpp.html" target="_top" xlink:title=" ">
<polygon fill="white" stroke="black" points="441.5,-0.5 441.5,-19.5 584.5,-19.5 584.5,-0.5 441.5,-0.5"/>
<text text-anchor="middle" x="513" y="-7.5" font-family="Helvetica,sans-Serif" font-size="10.00">AH/Settings/Warnings.hpp</text>
</a>
</g>
</g>
<!-- Node1&#45;&gt;Node2 -->
<g id="edge1" class="edge">
<title>Node1&#45;&gt;Node2</title>
<path fill="none" stroke="midnightblue" d="M1418,-761.41C1418,-740.98 1418,-687.86 1418,-643.5 1418,-643.5 1418,-643.5 1418,-121 1418,-77.56 1385.17,-72.55 1345,-56 1276.96,-27.97 791.42,-16.07 595.08,-12.37"/>
<polygon fill="midnightblue" stroke="midnightblue" points="594.89,-8.86 584.83,-12.17 594.76,-15.86 594.89,-8.86"/>
</g>
<!-- Node3 -->
<g id="node3" class="node">
<title>Node3</title>
<g id="a_node3"><a xlink:href="../../dd/ddf/ExtendedInputOutput_8hpp.html" target="_top" xlink:title=" ">
<polygon fill="white" stroke="black" points="991.5,-694.5 991.5,-724.5 1168.5,-724.5 1168.5,-694.5 991.5,-694.5"/>
<text text-anchor="start" x="999.5" y="-712.5" font-family="Helvetica,sans-Serif" font-size="10.00">AH/Hardware/ExtendedInput</text>
<text text-anchor="middle" x="1080" y="-701.5" font-family="Helvetica,sans-Serif" font-size="10.00">Output/ExtendedInputOutput.hpp</text>
</a>
</g>
</g>
<!-- Node1&#45;&gt;Node3 -->
<g id="edge2" class="edge">
<title>Node1&#45;&gt;Node3</title>
<path fill="none" stroke="midnightblue" d="M1369.57,-761.48C1317.59,-752.32 1233.86,-737.58 1169.77,-726.3"/>
<polygon fill="midnightblue" stroke="midnightblue" points="1170.12,-722.81 1159.66,-724.52 1168.9,-729.7 1170.12,-722.81"/>
</g>
<!-- Node30 -->
<g id="node30" class="node">
<title>Node30</title>
<g id="a_node30"><a xlink:title=" ">
<polygon fill="white" stroke="#bfbfbf" points="1446.5,-700 1446.5,-719 1487.5,-719 1487.5,-700 1446.5,-700"/>
<text text-anchor="middle" x="1467" y="-707" font-family="Helvetica,sans-Serif" font-size="10.00">SPI.h</text>
</a>
</g>
</g>
<!-- Node1&#45;&gt;Node30 -->
<g id="edge56" class="edge">
<title>Node1&#45;&gt;Node30</title>
<path fill="none" stroke="midnightblue" d="M1425.02,-761.48C1432.44,-752.46 1444.33,-738.02 1453.57,-726.81"/>
<polygon fill="midnightblue" stroke="midnightblue" points="1456.34,-728.95 1459.99,-719.01 1450.93,-724.5 1456.34,-728.95"/>
</g>
<!-- Node3&#45;&gt;Node2 -->
<g id="edge55" class="edge">
<title>Node3&#45;&gt;Node2</title>
<path fill="none" stroke="midnightblue" d="M1168.7,-700.18C1244.71,-687.59 1342,-655.96 1342,-576.5 1342,-576.5 1342,-576.5 1342,-121 1342,-90.9 1346.57,-74.71 1323,-56 1266.95,-11.51 789.37,-9.3 594.89,-10.28"/>
<polygon fill="midnightblue" stroke="midnightblue" points="594.71,-6.78 584.73,-10.33 594.75,-13.78 594.71,-6.78"/>
</g>
<!-- Node4 -->
<g id="node4" class="node">
<title>Node4</title>
<g id="a_node4"><a xlink:href="../../d2/d3c/Arduino-Hardware-Types_8hpp.html" target="_top" xlink:title=" ">
<polygon fill="white" stroke="black" points="824,-627.5 824,-657.5 946,-657.5 946,-627.5 824,-627.5"/>
<text text-anchor="start" x="832" y="-645.5" font-family="Helvetica,sans-Serif" font-size="10.00">AH/Hardware/Arduino</text>
<text text-anchor="middle" x="885" y="-634.5" font-family="Helvetica,sans-Serif" font-size="10.00">&#45;Hardware&#45;Types.hpp</text>
</a>
</g>
</g>
<!-- Node3&#45;&gt;Node4 -->
<g id="edge3" class="edge">
<title>Node3&#45;&gt;Node4</title>
<path fill="none" stroke="midnightblue" d="M1037.69,-694.4C1008.05,-684.52 968.26,-671.25 936.73,-660.74"/>
<polygon fill="midnightblue" stroke="midnightblue" points="937.82,-657.42 927.23,-657.58 935.61,-664.06 937.82,-657.42"/>
</g>
<!-- Node10 -->
<g id="node10" class="node">
<title>Node10</title>
<g id="a_node10"><a xlink:href="../../dc/dc7/NamespaceSettings_8hpp.html" target="_top" xlink:title=" ">
<polygon fill="white" stroke="black" points="649.5,-56.5 649.5,-75.5 844.5,-75.5 844.5,-56.5 649.5,-56.5"/>
<text text-anchor="middle" x="747" y="-63.5" font-family="Helvetica,sans-Serif" font-size="10.00">AH/Settings/NamespaceSettings.hpp</text>
</a>
</g>
</g>
<!-- Node3&#45;&gt;Node10 -->
<g id="edge54" class="edge">
<title>Node3&#45;&gt;Node10</title>
<path fill="none" stroke="midnightblue" d="M1080,-694.24C1080,-670.03 1080,-619.35 1080,-576.5 1080,-576.5 1080,-576.5 1080,-401 1080,-246.79 1025.99,-180.85 888,-112 858.1,-97.08 822.2,-85.71 794.1,-78.13"/>
<polygon fill="midnightblue" stroke="midnightblue" points="794.69,-74.67 784.13,-75.51 792.91,-81.44 794.69,-74.67"/>
</g>
<!-- Node29 -->
<g id="node29" class="node">
<title>Node29</title>
<g id="a_node29"><a xlink:title=" ">
<polygon fill="white" stroke="#bfbfbf" points="964.5,-633 964.5,-652 1051.5,-652 1051.5,-633 964.5,-633"/>
<text text-anchor="middle" x="1008" y="-640" font-family="Helvetica,sans-Serif" font-size="10.00">AH/STL/climits</text>
</a>
</g>
</g>
<!-- Node3&#45;&gt;Node29 -->
<g id="edge53" class="edge">
<title>Node3&#45;&gt;Node29</title>
<path fill="none" stroke="midnightblue" d="M1064.38,-694.4C1052.82,-683.96 1037.08,-669.75 1025.17,-659"/>
<polygon fill="midnightblue" stroke="midnightblue" points="1027.4,-656.3 1017.63,-652.19 1022.71,-661.49 1027.4,-656.3"/>
</g>
<!-- Node4&#45;&gt;Node2 -->
<g id="edge4" class="edge">
<title>Node4&#45;&gt;Node2</title>
<path fill="none" stroke="midnightblue" d="M823.82,-639.21C623.5,-630.91 0,-598.38 0,-515 0,-515 0,-515 0,-121 0,-81.38 25.47,-73.52 61,-56 124.1,-24.88 318.82,-15.28 431.03,-12.32"/>
<polygon fill="midnightblue" stroke="midnightblue" points="431.38,-15.81 441.29,-12.06 431.21,-8.81 431.38,-15.81"/>
</g>
<!-- Node5 -->
<g id="node5" class="node">
<title>Node5</title>
<g id="a_node5"><a xlink:href="../../d4/d35/Hardware-Types_8hpp.html" target="_top" xlink:title=" ">
<polygon fill="white" stroke="black" points="672.5,-560.5 672.5,-590.5 803.5,-590.5 803.5,-560.5 672.5,-560.5"/>
<text text-anchor="start" x="680.5" y="-578.5" font-family="Helvetica,sans-Serif" font-size="10.00">AH/Hardware/Hardware</text>
<text text-anchor="middle" x="738" y="-567.5" font-family="Helvetica,sans-Serif" font-size="10.00">&#45;Types.hpp</text>
</a>
</g>
</g>
<!-- Node4&#45;&gt;Node5 -->
<g id="edge5" class="edge">
<title>Node4&#45;&gt;Node5</title>
<path fill="none" stroke="midnightblue" d="M853.1,-627.4C831.43,-617.81 802.57,-605.05 779.16,-594.7"/>
<polygon fill="midnightblue" stroke="midnightblue" points="780.4,-591.42 769.83,-590.58 777.56,-597.82 780.4,-591.42"/>
</g>
<!-- Node11 -->
<g id="node11" class="node">
<title>Node11</title>
<g id="a_node11"><a xlink:href="../../d6/ddf/Arduino-Wrapper_8h.html" target="_top" xlink:title=" ">
<polygon fill="white" stroke="black" points="814,-168.5 814,-187.5 938,-187.5 938,-168.5 814,-168.5"/>
<text text-anchor="middle" x="876" y="-175.5" font-family="Helvetica,sans-Serif" font-size="10.00">AH/Arduino&#45;Wrapper.h</text>
</a>
</g>
</g>
<!-- Node4&#45;&gt;Node11 -->
<g id="edge52" class="edge">
<title>Node4&#45;&gt;Node11</title>
<path fill="none" stroke="midnightblue" d="M893.29,-627.24C905.79,-604.36 928,-557.68 928,-515 928,-515 928,-515 928,-289 928,-258.9 922.32,-250.99 909,-224 904.02,-213.92 896.78,-203.73 890.34,-195.61"/>
<polygon fill="midnightblue" stroke="midnightblue" points="892.89,-193.19 883.83,-187.7 887.49,-197.64 892.89,-193.19"/>
</g>
<!-- Node26 -->
<g id="node26" class="node">
<title>Node26</title>
<g id="a_node26"><a xlink:href="../../d0/db1/FunctionTraits_8hpp.html" target="_top" xlink:title=" ">
<polygon fill="white" stroke="black" points="1094.5,-112.5 1094.5,-131.5 1247.5,-131.5 1247.5,-112.5 1094.5,-112.5"/>
<text text-anchor="middle" x="1171" y="-119.5" font-family="Helvetica,sans-Serif" font-size="10.00">AH/Types/FunctionTraits.hpp</text>
</a>
</g>
</g>
<!-- Node4&#45;&gt;Node26 -->
<g id="edge47" class="edge">
<title>Node4&#45;&gt;Node26</title>
<path fill="none" stroke="midnightblue" d="M928.73,-627.46C975.19,-609.48 1042,-573.46 1042,-515 1042,-515 1042,-515 1042,-233 1042,-183.35 1098.02,-151.37 1136.23,-135.33"/>
<polygon fill="midnightblue" stroke="midnightblue" points="1137.54,-138.57 1145.51,-131.59 1134.93,-132.08 1137.54,-138.57"/>
</g>
<!-- Node5&#45;&gt;Node2 -->
<g id="edge6" class="edge">
<title>Node5&#45;&gt;Node2</title>
<path fill="none" stroke="midnightblue" d="M672.46,-570.53C498.44,-559.14 38,-522.93 38,-459 38,-459 38,-459 38,-121 38,-77.89 70.68,-73.69 110,-56 165.55,-31.01 330.16,-19.24 430.99,-14.24"/>
<polygon fill="midnightblue" stroke="midnightblue" points="431.33,-17.73 441.15,-13.75 430.99,-10.74 431.33,-17.73"/>
</g>
<!-- Node6 -->
<g id="node6" class="node">
<title>Node6</title>
<g id="a_node6"><a xlink:href="../../de/d76/Array_8hpp.html" target="_top" xlink:title=" ">
<polygon fill="white" stroke="black" points="388.5,-504.5 388.5,-523.5 523.5,-523.5 523.5,-504.5 388.5,-504.5"/>
<text text-anchor="middle" x="456" y="-511.5" font-family="Helvetica,sans-Serif" font-size="10.00">AH/Containers/Array.hpp</text>
</a>
</g>
</g>
<!-- Node5&#45;&gt;Node6 -->
<g id="edge7" class="edge">
<title>Node5&#45;&gt;Node6</title>
<path fill="none" stroke="midnightblue" d="M672.24,-560.62C621.6,-549.94 552.64,-535.39 506.34,-525.62"/>
<polygon fill="midnightblue" stroke="midnightblue" points="507.03,-522.19 496.52,-523.55 505.59,-529.04 507.03,-522.19"/>
</g>
<!-- Node9 -->
<g id="node9" class="node">
<title>Node9</title>
<g id="a_node9"><a xlink:href="../../dd/d80/PrintStream_8hpp.html" target="_top" xlink:title=" ">
<polygon fill="white" stroke="black" points="726.5,-224.5 726.5,-243.5 899.5,-243.5 899.5,-224.5 726.5,-224.5"/>
<text text-anchor="middle" x="813" y="-231.5" font-family="Helvetica,sans-Serif" font-size="10.00">AH/PrintStream/PrintStream.hpp</text>
</a>
</g>
</g>
<!-- Node5&#45;&gt;Node9 -->
<g id="edge43" class="edge">
<title>Node5&#45;&gt;Node9</title>
<path fill="none" stroke="midnightblue" d="M755.74,-560.14C766.32,-550.79 779.35,-537.8 788,-524 804.28,-498.04 811,-489.64 811,-459 811,-459 811,-459 811,-345 811,-312.94 811.86,-275.64 812.45,-253.75"/>
<polygon fill="midnightblue" stroke="midnightblue" points="815.96,-253.65 812.74,-243.56 808.96,-253.45 815.96,-253.65"/>
</g>
<!-- Node5&#45;&gt;Node10 -->
<g id="edge45" class="edge">
<title>Node5&#45;&gt;Node10</title>
<path fill="none" stroke="midnightblue" d="M770.67,-560.48C833.71,-530.96 966,-456.04 966,-347 966,-347 966,-347 966,-233 966,-202.9 966.25,-191.14 947,-168 923.86,-140.17 828.68,-99.43 778.42,-79.26"/>
<polygon fill="midnightblue" stroke="midnightblue" points="779.59,-75.95 769,-75.5 777,-82.46 779.59,-75.95"/>
</g>
<!-- Node22 -->
<g id="node22" class="node">
<title>Node22</title>
<g id="a_node22"><a xlink:title=" ">
<polygon fill="white" stroke="#bfbfbf" points="578.5,-224.5 578.5,-243.5 631.5,-243.5 631.5,-224.5 578.5,-224.5"/>
<text text-anchor="middle" x="605" y="-231.5" font-family="Helvetica,sans-Serif" font-size="10.00">stdint.h</text>
</a>
</g>
</g>
<!-- Node5&#45;&gt;Node22 -->
<g id="edge46" class="edge">
<title>Node5&#45;&gt;Node22</title>
<path fill="none" stroke="midnightblue" d="M719.97,-560.32C709.27,-551.04 696.23,-538.05 688,-524 633.87,-431.63 613.2,-301.78 607.12,-253.78"/>
<polygon fill="midnightblue" stroke="midnightblue" points="610.57,-253.16 605.9,-243.65 603.62,-253.99 610.57,-253.16"/>
</g>
<!-- Node25 -->
<g id="node25" class="node">
<title>Node25</title>
<g id="a_node25"><a xlink:title=" ">
<polygon fill="white" stroke="#bfbfbf" points="697,-504.5 697,-523.5 779,-523.5 779,-504.5 697,-504.5"/>
<text text-anchor="middle" x="738" y="-511.5" font-family="Helvetica,sans-Serif" font-size="10.00">AH/STL/limits</text>
</a>
</g>
</g>
<!-- Node5&#45;&gt;Node25 -->
<g id="edge44" class="edge">
<title>Node5&#45;&gt;Node25</title>
<path fill="none" stroke="midnightblue" d="M738,-560.4C738,-552.47 738,-542.46 738,-533.86"/>
<polygon fill="midnightblue" stroke="midnightblue" points="741.5,-533.66 738,-523.66 734.5,-533.66 741.5,-533.66"/>
</g>
<!-- Node6&#45;&gt;Node2 -->
<g id="edge8" class="edge">
<title>Node6&#45;&gt;Node2</title>
<path fill="none" stroke="midnightblue" d="M388.06,-507.33C278.76,-496.31 76,-467.22 76,-403 76,-403 76,-403 76,-121 76,-48.54 304.79,-23.35 431.28,-14.96"/>
<polygon fill="midnightblue" stroke="midnightblue" points="431.57,-18.45 441.33,-14.31 431.12,-11.46 431.57,-18.45"/>
</g>
<!-- Node7 -->
<g id="node7" class="node">
<title>Node7</title>
<g id="a_node7"><a xlink:href="../../d1/d93/Error_8hpp.html" target="_top" xlink:title=" ">
<polygon fill="white" stroke="black" points="461,-448.5 461,-467.5 565,-467.5 565,-448.5 461,-448.5"/>
<text text-anchor="middle" x="513" y="-455.5" font-family="Helvetica,sans-Serif" font-size="10.00">AH/Error/Error.hpp</text>
</a>
</g>
</g>
<!-- Node6&#45;&gt;Node7 -->
<g id="edge9" class="edge">
<title>Node6&#45;&gt;Node7</title>
<path fill="none" stroke="midnightblue" d="M465.16,-504.32C473.5,-496.42 486.03,-484.55 496.18,-474.94"/>
<polygon fill="midnightblue" stroke="midnightblue" points="498.82,-477.25 503.68,-467.83 494.01,-472.17 498.82,-477.25"/>
</g>
<!-- Node15 -->
<g id="node15" class="node">
<title>Node15</title>
<g id="a_node15"><a xlink:title=" ">
<polygon fill="white" stroke="#bfbfbf" points="612.5,-112.5 612.5,-131.5 719.5,-131.5 719.5,-112.5 612.5,-112.5"/>
<text text-anchor="middle" x="666" y="-119.5" font-family="Helvetica,sans-Serif" font-size="10.00">AH/STL/type_traits</text>
</a>
</g>
</g>
<!-- Node6&#45;&gt;Node15 -->
<g id="edge41" class="edge">
<title>Node6&#45;&gt;Node15</title>
<path fill="none" stroke="midnightblue" d="M497.6,-504.49C566.79,-487.65 698,-443.04 698,-347 698,-347 698,-347 698,-233 698,-199.33 684.01,-162.08 674.53,-140.72"/>
<polygon fill="midnightblue" stroke="midnightblue" points="677.68,-139.21 670.32,-131.59 671.33,-142.14 677.68,-139.21"/>
</g>
<!-- Node21 -->
<g id="node21" class="node">
<title>Node21</title>
<g id="a_node21"><a xlink:title=" ">
<polygon fill="white" stroke="#bfbfbf" points="104,-224.5 104,-243.5 160,-243.5 160,-224.5 104,-224.5"/>
<text text-anchor="middle" x="132" y="-231.5" font-family="Helvetica,sans-Serif" font-size="10.00">stddef.h</text>
</a>
</g>
</g>
<!-- Node6&#45;&gt;Node21 -->
<g id="edge42" class="edge">
<title>Node6&#45;&gt;Node21</title>
<path fill="none" stroke="midnightblue" d="M395.64,-504.5C304.17,-489.89 141,-456.36 141,-403 141,-403 141,-403 141,-345 141,-312.84 137.13,-275.57 134.47,-253.71"/>
<polygon fill="midnightblue" stroke="midnightblue" points="137.91,-253.02 133.18,-243.54 130.96,-253.9 137.91,-253.02"/>
</g>
<!-- Node24 -->
<g id="node24" class="node">
<title>Node24</title>
<g id="a_node24"><a xlink:title=" ">
<polygon fill="white" stroke="#bfbfbf" points="353,-448.5 353,-467.5 443,-467.5 443,-448.5 353,-448.5"/>
<text text-anchor="middle" x="398" y="-455.5" font-family="Helvetica,sans-Serif" font-size="10.00">AH/STL/iterator</text>
</a>
</g>
</g>
<!-- Node6&#45;&gt;Node24 -->
<g id="edge40" class="edge">
<title>Node6&#45;&gt;Node24</title>
<path fill="none" stroke="midnightblue" d="M446.68,-504.32C438.11,-496.34 425.19,-484.31 414.81,-474.65"/>
<polygon fill="midnightblue" stroke="midnightblue" points="417.19,-472.09 407.49,-467.83 412.42,-477.21 417.19,-472.09"/>
</g>
<!-- Node7&#45;&gt;Node2 -->
<g id="edge10" class="edge">
<title>Node7&#45;&gt;Node2</title>
<path fill="none" stroke="midnightblue" d="M523.75,-448.33C558.85,-418.93 666.31,-319.49 640,-224 617.64,-142.84 555.35,-61.4 527.17,-27.46"/>
<polygon fill="midnightblue" stroke="midnightblue" points="529.61,-24.92 520.48,-19.53 524.25,-29.43 529.61,-24.92"/>
</g>
<!-- Node8 -->
<g id="node8" class="node">
<title>Node8</title>
<g id="a_node8"><a xlink:href="../../df/dee/Debug_8hpp.html" target="_top" xlink:title=" ">
<polygon fill="white" stroke="black" points="423.5,-392.5 423.5,-411.5 544.5,-411.5 544.5,-392.5 423.5,-392.5"/>
<text text-anchor="middle" x="484" y="-399.5" font-family="Helvetica,sans-Serif" font-size="10.00">AH/Debug/Debug.hpp</text>
</a>
</g>
</g>
<!-- Node7&#45;&gt;Node8 -->
<g id="edge11" class="edge">
<title>Node7&#45;&gt;Node8</title>
<path fill="none" stroke="midnightblue" d="M508.21,-448.08C504.24,-440.69 498.47,-429.95 493.57,-420.81"/>
<polygon fill="midnightblue" stroke="midnightblue" points="496.51,-418.91 488.7,-411.75 490.35,-422.22 496.51,-418.91"/>
</g>
<!-- Node8&#45;&gt;Node2 -->
<g id="edge12" class="edge">
<title>Node8&#45;&gt;Node2</title>
<path fill="none" stroke="midnightblue" d="M430.74,-392.44C345.52,-377.23 188,-342.19 188,-291 188,-291 188,-291 188,-121 188,-74.15 228.3,-75.28 271,-56 321.54,-33.18 383.03,-21.93 431.38,-16.39"/>
<polygon fill="midnightblue" stroke="midnightblue" points="431.92,-19.85 441.48,-15.29 431.16,-12.89 431.92,-19.85"/>
</g>
<!-- Node8&#45;&gt;Node9 -->
<g id="edge13" class="edge">
<title>Node8&#45;&gt;Node9</title>
<path fill="none" stroke="midnightblue" d="M503.29,-392.5C523.16,-383.66 554.94,-369.29 582,-356 657.97,-318.69 746.16,-271.35 788.22,-248.52"/>
<polygon fill="midnightblue" stroke="midnightblue" points="790.07,-251.5 797.18,-243.65 786.73,-245.35 790.07,-251.5"/>
</g>
<!-- Node16 -->
<g id="node16" class="node">
<title>Node16</title>
<g id="a_node16"><a xlink:href="../../d2/dd5/SettingsWrapper_8hpp.html" target="_top" xlink:title=" ">
<polygon fill="white" stroke="black" points="395,-336.5 395,-355.5 573,-355.5 573,-336.5 395,-336.5"/>
<text text-anchor="middle" x="484" y="-343.5" font-family="Helvetica,sans-Serif" font-size="10.00">AH/Settings/SettingsWrapper.hpp</text>
</a>
</g>
</g>
<!-- Node8&#45;&gt;Node16 -->
<g id="edge25" class="edge">
<title>Node8&#45;&gt;Node16</title>
<path fill="none" stroke="midnightblue" d="M478.83,-392.08C477.32,-384.93 476.89,-374.64 477.54,-365.69"/>
<polygon fill="midnightblue" stroke="midnightblue" points="481.02,-366.13 478.87,-355.75 474.08,-365.2 481.02,-366.13"/>
</g>
<!-- Node9&#45;&gt;Node2 -->
<g id="edge15" class="edge">
<title>Node9&#45;&gt;Node2</title>
<path fill="none" stroke="midnightblue" d="M807.27,-224.26C789.95,-197.9 738.64,-120.49 728,-112 694.97,-85.65 678.4,-93.64 640,-76 603.88,-59.4 563.13,-38.07 537.76,-24.46"/>
<polygon fill="midnightblue" stroke="midnightblue" points="539.29,-21.31 528.82,-19.65 535.97,-27.47 539.29,-21.31"/>
</g>
<!-- Node9&#45;&gt;Node10 -->
<g id="edge14" class="edge">
<title>Node9&#45;&gt;Node10</title>
<path fill="none" stroke="midnightblue" d="M809.45,-224.08C799.02,-197.83 768.29,-120.55 754.2,-85.12"/>
<polygon fill="midnightblue" stroke="midnightblue" points="757.35,-83.57 750.41,-75.57 750.85,-86.15 757.35,-83.57"/>
</g>
<!-- Node9&#45;&gt;Node11 -->
<g id="edge16" class="edge">
<title>Node9&#45;&gt;Node11</title>
<path fill="none" stroke="midnightblue" d="M823.12,-224.32C832.53,-216.26 846.74,-204.08 858.07,-194.37"/>
<polygon fill="midnightblue" stroke="midnightblue" points="860.38,-197 865.69,-187.83 855.82,-191.68 860.38,-197"/>
</g>
<!-- Node12 -->
<g id="node12" class="node">
<title>Node12</title>
<g id="a_node12"><a xlink:href="../../d7/d79/MinMaxFix_8hpp.html" target="_top" xlink:title=" ">
<polygon fill="white" stroke="black" points="940,-112.5 940,-131.5 1076,-131.5 1076,-112.5 940,-112.5"/>
<text text-anchor="middle" x="1008" y="-119.5" font-family="Helvetica,sans-Serif" font-size="10.00">AH/Math/MinMaxFix.hpp</text>
</a>
</g>
</g>
<!-- Node11&#45;&gt;Node12 -->
<g id="edge17" class="edge">
<title>Node11&#45;&gt;Node12</title>
<path fill="none" stroke="midnightblue" d="M896.92,-168.44C918.74,-159.52 953.15,-145.44 977.89,-135.32"/>
<polygon fill="midnightblue" stroke="midnightblue" points="979.25,-138.54 987.18,-131.52 976.6,-132.06 979.25,-138.54"/>
</g>
<!-- Node14 -->
<g id="node14" class="node">
<title>Node14</title>
<g id="a_node14"><a xlink:title=" ">
<polygon fill="white" stroke="#bfbfbf" points="1150.5,-0.5 1150.5,-19.5 1213.5,-19.5 1213.5,-0.5 1150.5,-0.5"/>
<text text-anchor="middle" x="1182" y="-7.5" font-family="Helvetica,sans-Serif" font-size="10.00">Arduino.h</text>
</a>
</g>
</g>
<!-- Node11&#45;&gt;Node14 -->
<g id="edge24" class="edge">
<title>Node11&#45;&gt;Node14</title>
<path fill="none" stroke="midnightblue" d="M938.02,-174.02C1030.91,-168.83 1201.2,-156.29 1257,-132 1292.27,-116.64 1306.84,-110.91 1323,-76 1342.47,-33.96 1272.22,-19.07 1223.97,-13.82"/>
<polygon fill="midnightblue" stroke="midnightblue" points="1224.04,-10.31 1213.74,-12.82 1223.35,-17.28 1224.04,-10.31"/>
</g>
<!-- Node11&#45;&gt;Node15 -->
<g id="edge23" class="edge">
<title>Node11&#45;&gt;Node15</title>
<path fill="none" stroke="midnightblue" d="M842.72,-168.44C806.55,-159.14 748.62,-144.25 709.02,-134.06"/>
<polygon fill="midnightblue" stroke="midnightblue" points="709.68,-130.62 699.12,-131.52 707.93,-137.4 709.68,-130.62"/>
</g>
<!-- Node12&#45;&gt;Node2 -->
<g id="edge18" class="edge">
<title>Node12&#45;&gt;Node2</title>
<path fill="none" stroke="midnightblue" d="M983,-112.35C959.07,-103.84 922.12,-90.11 891,-76 873.62,-68.12 871.19,-61.79 853,-56 767.42,-28.77 664.66,-18.01 594.67,-13.76"/>
<polygon fill="midnightblue" stroke="midnightblue" points="594.77,-10.26 584.58,-13.18 594.37,-17.25 594.77,-10.26"/>
</g>
<!-- Node12&#45;&gt;Node10 -->
<g id="edge22" class="edge">
<title>Node12&#45;&gt;Node10</title>
<path fill="none" stroke="midnightblue" d="M966.64,-112.44C920.92,-102.98 847.24,-87.74 797.98,-77.55"/>
<polygon fill="midnightblue" stroke="midnightblue" points="798.66,-74.12 788.16,-75.52 797.25,-80.97 798.66,-74.12"/>
</g>
<!-- Node13 -->
<g id="node13" class="node">
<title>Node13</title>
<g id="a_node13"><a xlink:href="../../d6/d3b/FixArduinoMacros_8hpp.html" target="_top" xlink:title=" ">
<polygon fill="white" stroke="black" points="900,-56.5 900,-75.5 1070,-75.5 1070,-56.5 900,-56.5"/>
<text text-anchor="middle" x="985" y="-63.5" font-family="Helvetica,sans-Serif" font-size="10.00">AH/Math/FixArduinoMacros.hpp</text>
</a>
</g>
</g>
<!-- Node12&#45;&gt;Node13 -->
<g id="edge19" class="edge">
<title>Node12&#45;&gt;Node13</title>
<path fill="none" stroke="midnightblue" d="M1004.2,-112.08C1001.09,-104.77 996.58,-94.18 992.71,-85.1"/>
<polygon fill="midnightblue" stroke="midnightblue" points="995.87,-83.58 988.73,-75.75 989.43,-86.32 995.87,-83.58"/>
</g>
<!-- Node13&#45;&gt;Node2 -->
<g id="edge20" class="edge">
<title>Node13&#45;&gt;Node2</title>
<path fill="none" stroke="midnightblue" d="M910.47,-56.47C824.55,-46.64 683.77,-30.54 594.86,-20.37"/>
<polygon fill="midnightblue" stroke="midnightblue" points="595.15,-16.88 584.82,-19.22 594.36,-23.83 595.15,-16.88"/>
</g>
<!-- Node13&#45;&gt;Node14 -->
<g id="edge21" class="edge">
<title>Node13&#45;&gt;Node14</title>
<path fill="none" stroke="midnightblue" d="M1016.22,-56.44C1049.93,-47.2 1103.8,-32.44 1140.93,-22.26"/>
<polygon fill="midnightblue" stroke="midnightblue" points="1142.21,-25.54 1150.93,-19.52 1140.36,-18.78 1142.21,-25.54"/>
</g>
<!-- Node16&#45;&gt;Node2 -->
<g id="edge26" class="edge">
<title>Node16&#45;&gt;Node2</title>
<path fill="none" stroke="midnightblue" d="M394.75,-337.88C336.33,-331.44 266.9,-319.85 245,-300 222.7,-279.79 226,-265.1 226,-235 226,-235 226,-235 226,-121 226,-72.8 368.92,-37.85 453.05,-21.45"/>
<polygon fill="midnightblue" stroke="midnightblue" points="453.85,-24.86 463.01,-19.54 452.53,-17.99 453.85,-24.86"/>
</g>
<!-- Node16&#45;&gt;Node8 -->
<g id="edge39" class="edge">
<title>Node16&#45;&gt;Node8</title>
<path fill="none" stroke="midnightblue" d="M489.13,-355.75C490.66,-362.86 491.1,-373.14 490.47,-382.1"/>
<polygon fill="midnightblue" stroke="midnightblue" points="486.99,-381.71 489.17,-392.08 493.93,-382.62 486.99,-381.71"/>
</g>
<!-- Node16&#45;&gt;Node10 -->
<g id="edge27" class="edge">
<title>Node16&#45;&gt;Node10</title>
<path fill="none" stroke="midnightblue" d="M495.45,-336.48C505.93,-328.18 521.25,-314.68 531,-300 580.51,-225.48 537.78,-173.25 603,-112 620.79,-95.29 644.71,-84.78 667.94,-78.18"/>
<polygon fill="midnightblue" stroke="midnightblue" points="669.05,-81.51 677.83,-75.58 667.27,-74.74 669.05,-81.51"/>
</g>
<!-- Node17 -->
<g id="node17" class="node">
<title>Node17</title>
<g id="a_node17"><a xlink:href="../../db/d02/Settings_8hpp.html" target="_top" xlink:title="All user settings and debugging options can be changed here.">
<polygon fill="white" stroke="black" points="445.5,-280.5 445.5,-299.5 522.5,-299.5 522.5,-280.5 445.5,-280.5"/>
<text text-anchor="middle" x="484" y="-287.5" font-family="Helvetica,sans-Serif" font-size="10.00">Settings.hpp</text>
</a>
</g>
</g>
<!-- Node16&#45;&gt;Node17 -->
<g id="edge28" class="edge">
<title>Node16&#45;&gt;Node17</title>
<path fill="none" stroke="midnightblue" d="M484,-336.08C484,-329.01 484,-318.86 484,-309.99"/>
<polygon fill="midnightblue" stroke="midnightblue" points="487.5,-309.75 484,-299.75 480.5,-309.75 487.5,-309.75"/>
</g>
<!-- Node23 -->
<g id="node23" class="node">
<title>Node23</title>
<g id="a_node23"><a xlink:href="../../d9/d98/TeensyUSBTypes_8hpp.html" target="_top" xlink:title=" ">
<polygon fill="white" stroke="black" points="254.5,-280.5 254.5,-299.5 427.5,-299.5 427.5,-280.5 254.5,-280.5"/>
<text text-anchor="middle" x="341" y="-287.5" font-family="Helvetica,sans-Serif" font-size="10.00">AH/Teensy/TeensyUSBTypes.hpp</text>
</a>
</g>
</g>
<!-- Node16&#45;&gt;Node23 -->
<g id="edge38" class="edge">
<title>Node16&#45;&gt;Node23</title>
<path fill="none" stroke="midnightblue" d="M461.34,-336.44C437.6,-327.48 400.09,-313.31 373.26,-303.18"/>
<polygon fill="midnightblue" stroke="midnightblue" points="374.14,-299.77 363.55,-299.52 371.67,-306.32 374.14,-299.77"/>
</g>
<!-- Node18 -->
<g id="node18" class="node">
<title>Node18</title>
<g id="a_node18"><a xlink:href="../../dc/d50/Frequency_8hpp.html" target="_top" xlink:title=" ">
<polygon fill="white" stroke="black" points="384,-112.5 384,-131.5 518,-131.5 518,-112.5 384,-112.5"/>
<text text-anchor="middle" x="451" y="-119.5" font-family="Helvetica,sans-Serif" font-size="10.00">AH/Types/Frequency.hpp</text>
</a>
</g>
</g>
<!-- Node17&#45;&gt;Node18 -->
<g id="edge29" class="edge">
<title>Node17&#45;&gt;Node18</title>
<path fill="none" stroke="midnightblue" d="M445.23,-280.67C411.27,-272.49 365.71,-259.08 355,-244 326.37,-203.69 388.78,-158.68 425.94,-136.65"/>
<polygon fill="midnightblue" stroke="midnightblue" points="427.85,-139.59 434.77,-131.56 424.36,-133.52 427.85,-139.59"/>
</g>
<!-- Node19 -->
<g id="node19" class="node">
<title>Node19</title>
<g id="a_node19"><a xlink:href="../../d7/d7c/ADCConfig_8hpp.html" target="_top" xlink:title="This file contains the platform&#45;specific ADC resolutions.">
<polygon fill="white" stroke="black" points="364.5,-224.5 364.5,-243.5 521.5,-243.5 521.5,-224.5 364.5,-224.5"/>
<text text-anchor="middle" x="443" y="-231.5" font-family="Helvetica,sans-Serif" font-size="10.00">AH/Hardware/ADCConfig.hpp</text>
</a>
</g>
</g>
<!-- Node17&#45;&gt;Node19 -->
<g id="edge32" class="edge">
<title>Node17&#45;&gt;Node19</title>
<path fill="none" stroke="midnightblue" d="M477.23,-280.08C471.44,-272.46 462.94,-261.26 455.86,-251.94"/>
<polygon fill="midnightblue" stroke="midnightblue" points="458.48,-249.6 449.64,-243.75 452.9,-253.83 458.48,-249.6"/>
</g>
<!-- Node20 -->
<g id="node20" class="node">
<title>Node20</title>
<g id="a_node20"><a xlink:title=" ">
<polygon fill="white" stroke="#bfbfbf" points="254.5,-224.5 254.5,-243.5 307.5,-243.5 307.5,-224.5 254.5,-224.5"/>
<text text-anchor="middle" x="281" y="-231.5" font-family="Helvetica,sans-Serif" font-size="10.00">limits.h</text>
</a>
</g>
</g>
<!-- Node17&#45;&gt;Node20 -->
<g id="edge35" class="edge">
<title>Node17&#45;&gt;Node20</title>
<path fill="none" stroke="midnightblue" d="M451.83,-280.44C415.2,-270.7 355.47,-254.81 317.22,-244.64"/>
<polygon fill="midnightblue" stroke="midnightblue" points="318.08,-241.24 307.52,-242.05 316.28,-248.01 318.08,-241.24"/>
</g>
<!-- Node17&#45;&gt;Node21 -->
<g id="edge36" class="edge">
<title>Node17&#45;&gt;Node21</title>
<path fill="none" stroke="midnightblue" d="M445.25,-281.6C442.12,-281.05 439.01,-280.5 436,-280 340.65,-264.01 227.95,-248.11 170.25,-240.18"/>
<polygon fill="midnightblue" stroke="midnightblue" points="170.52,-236.69 160.14,-238.8 169.57,-243.62 170.52,-236.69"/>
</g>
<!-- Node17&#45;&gt;Node22 -->
<g id="edge37" class="edge">
<title>Node17&#45;&gt;Node22</title>
<path fill="none" stroke="midnightblue" d="M503.17,-280.44C522.91,-271.64 553.89,-257.81 576.49,-247.72"/>
<polygon fill="midnightblue" stroke="midnightblue" points="578.21,-250.79 585.92,-243.52 575.36,-244.4 578.21,-250.79"/>
</g>
<!-- Node18&#45;&gt;Node2 -->
<g id="edge30" class="edge">
<title>Node18&#45;&gt;Node2</title>
<path fill="none" stroke="midnightblue" d="M455.87,-112.37C466.05,-94.3 489.79,-52.18 503.24,-28.31"/>
<polygon fill="midnightblue" stroke="midnightblue" points="506.3,-30.02 508.16,-19.59 500.2,-26.58 506.3,-30.02"/>
</g>
<!-- Node18&#45;&gt;Node10 -->
<g id="edge31" class="edge">
<title>Node18&#45;&gt;Node10</title>
<path fill="none" stroke="midnightblue" d="M497.9,-112.44C550.08,-102.92 634.37,-87.55 690.23,-77.36"/>
<polygon fill="midnightblue" stroke="midnightblue" points="691.11,-80.75 700.32,-75.52 689.85,-73.87 691.11,-80.75"/>
</g>
<!-- Node19&#45;&gt;Node2 -->
<g id="edge33" class="edge">
<title>Node19&#45;&gt;Node2</title>
<path fill="none" stroke="midnightblue" d="M431.53,-224.33C406.96,-204.66 353.2,-154.98 375,-112 397.13,-68.38 447.92,-39.08 481.33,-23.73"/>
<polygon fill="midnightblue" stroke="midnightblue" points="482.94,-26.84 490.67,-19.59 480.11,-20.44 482.94,-26.84"/>
</g>
<!-- Node19&#45;&gt;Node11 -->
<g id="edge34" class="edge">
<title>Node19&#45;&gt;Node11</title>
<path fill="none" stroke="midnightblue" d="M511.61,-224.44C591.31,-214.5 722.22,-198.18 803.53,-188.04"/>
<polygon fill="midnightblue" stroke="midnightblue" points="804.19,-191.48 813.68,-186.77 803.32,-184.54 804.19,-191.48"/>
</g>
<!-- Node26&#45;&gt;Node2 -->
<g id="edge50" class="edge">
<title>Node26&#45;&gt;Node2</title>
<path fill="none" stroke="midnightblue" d="M1160.25,-112.29C1140.02,-96.11 1096.75,-62.42 1079,-56 992.28,-24.62 729.92,-15.07 595.03,-12.2"/>
<polygon fill="midnightblue" stroke="midnightblue" points="594.82,-8.7 584.75,-11.99 594.68,-15.7 594.82,-8.7"/>
</g>
<!-- Node26&#45;&gt;Node10 -->
<g id="edge51" class="edge">
<title>Node26&#45;&gt;Node10</title>
<path fill="none" stroke="midnightblue" d="M1103.82,-112.44C1027.68,-102.75 903.81,-86.97 823.88,-76.79"/>
<polygon fill="midnightblue" stroke="midnightblue" points="824.23,-73.31 813.87,-75.52 823.35,-80.25 824.23,-73.31"/>
</g>
<!-- Node27 -->
<g id="node27" class="node">
<title>Node27</title>
<g id="a_node27"><a xlink:title=" ">
<polygon fill="white" stroke="#bfbfbf" points="1126,-56.5 1126,-75.5 1216,-75.5 1216,-56.5 1126,-56.5"/>
<text text-anchor="middle" x="1171" y="-63.5" font-family="Helvetica,sans-Serif" font-size="10.00">AH/STL/cstddef</text>
</a>
</g>
</g>
<!-- Node26&#45;&gt;Node27 -->
<g id="edge48" class="edge">
<title>Node26&#45;&gt;Node27</title>
<path fill="none" stroke="midnightblue" d="M1171,-112.08C1171,-105.01 1171,-94.86 1171,-85.99"/>
<polygon fill="midnightblue" stroke="midnightblue" points="1174.5,-85.75 1171,-75.75 1167.5,-85.75 1174.5,-85.75"/>
</g>
<!-- Node28 -->
<g id="node28" class="node">
<title>Node28</title>
<g id="a_node28"><a xlink:title=" ">
<polygon fill="white" stroke="#bfbfbf" points="1234.5,-56.5 1234.5,-75.5 1313.5,-75.5 1313.5,-56.5 1234.5,-56.5"/>
<text text-anchor="middle" x="1274" y="-63.5" font-family="Helvetica,sans-Serif" font-size="10.00">AH/STL/tuple</text>
</a>
</g>
</g>
<!-- Node26&#45;&gt;Node28 -->
<g id="edge49" class="edge">
<title>Node26&#45;&gt;Node28</title>
<path fill="none" stroke="midnightblue" d="M1187.55,-112.32C1203.99,-103.7 1229.43,-90.36 1248.47,-80.39"/>
<polygon fill="midnightblue" stroke="midnightblue" points="1250.26,-83.4 1257.49,-75.65 1247.01,-77.2 1250.26,-83.4"/>
</g>
</g>
</svg>
