<?xml version="1.0" encoding="UTF-8" standalone="no"?>
<!DOCTYPE svg PUBLIC "-//W3C//DTD SVG 1.1//EN"
 "http://www.w3.org/Graphics/SVG/1.1/DTD/svg11.dtd">
<!-- Generated by graphviz version 2.43.0 (0)
 -->
<!-- Title: ShiftRegisterOut.hpp Pages: 1 -->
<svg width="1561pt" height="946pt"
 viewBox="0.00 0.00 1561.00 946.00" xmlns="http://www.w3.org/2000/svg" xmlns:xlink="http://www.w3.org/1999/xlink">
<g id="graph0" class="graph" transform="scale(1 1) rotate(0) translate(4 942)">
<title>ShiftRegisterOut.hpp</title>
<polygon fill="white" stroke="transparent" points="-4,4 -4,-942 1557,-942 1557,4 -4,4"/>
<!-- Node1 -->
<g id="node1" class="node">
<title>Node1</title>
<g id="a_node1"><a xlink:title=" ">
<polygon fill="#bfbfbf" stroke="black" points="468,-918.5 468,-937.5 585,-937.5 585,-918.5 468,-918.5"/>
<text text-anchor="middle" x="526.5" y="-925.5" font-family="Helvetica,sans-Serif" font-size="10.00">ShiftRegisterOut.hpp</text>
</a>
</g>
</g>
<!-- Node2 -->
<g id="node2" class="node">
<title>Node2</title>
<g id="a_node2"><a xlink:href="../../d8/d93/ShiftRegisterOutBase_8hpp.html" target="_top" xlink:title=" ">
<polygon fill="white" stroke="black" points="310,-862.5 310,-881.5 451,-881.5 451,-862.5 310,-862.5"/>
<text text-anchor="middle" x="380.5" y="-869.5" font-family="Helvetica,sans-Serif" font-size="10.00">ShiftRegisterOutBase.hpp</text>
</a>
</g>
</g>
<!-- Node1&#45;&gt;Node2 -->
<g id="edge1" class="edge">
<title>Node1&#45;&gt;Node2</title>
<path fill="none" stroke="midnightblue" d="M503.37,-918.44C479.02,-909.44 440.49,-895.19 413.08,-885.05"/>
<polygon fill="midnightblue" stroke="midnightblue" points="414.12,-881.7 403.53,-881.52 411.69,-888.27 414.12,-881.7"/>
</g>
<!-- Node10 -->
<g id="node10" class="node">
<title>Node10</title>
<g id="a_node10"><a xlink:href="../../d6/ddf/Arduino-Wrapper_8h.html" target="_top" xlink:title=" ">
<polygon fill="white" stroke="black" points="1057.5,-168.5 1057.5,-187.5 1181.5,-187.5 1181.5,-168.5 1057.5,-168.5"/>
<text text-anchor="middle" x="1119.5" y="-175.5" font-family="Helvetica,sans-Serif" font-size="10.00">AH/Arduino&#45;Wrapper.h</text>
</a>
</g>
</g>
<!-- Node1&#45;&gt;Node10 -->
<g id="edge73" class="edge">
<title>Node1&#45;&gt;Node10</title>
<path fill="none" stroke="midnightblue" d="M585.17,-926.56C795.54,-924.24 1499.5,-909.54 1499.5,-817 1499.5,-817 1499.5,-817 1499.5,-401 1499.5,-260.04 1302.14,-206.95 1191.89,-188.29"/>
<polygon fill="midnightblue" stroke="midnightblue" points="1192.26,-184.81 1181.82,-186.64 1191.13,-191.71 1192.26,-184.81"/>
</g>
<!-- Node42 -->
<g id="node42" class="node">
<title>Node42</title>
<g id="a_node42"><a xlink:href="../../de/d95/ShiftRegisterOut_8ipp.html" target="_top" xlink:title=" ">
<polygon fill="white" stroke="black" points="469.5,-862.5 469.5,-881.5 583.5,-881.5 583.5,-862.5 469.5,-862.5"/>
<text text-anchor="middle" x="526.5" y="-869.5" font-family="Helvetica,sans-Serif" font-size="10.00">ShiftRegisterOut.ipp</text>
</a>
</g>
</g>
<!-- Node1&#45;&gt;Node42 -->
<g id="edge74" class="edge">
<title>Node1&#45;&gt;Node42</title>
<path fill="none" stroke="midnightblue" d="M521.33,-918.08C519.82,-910.93 519.39,-900.64 520.04,-891.69"/>
<polygon fill="midnightblue" stroke="midnightblue" points="523.52,-892.13 521.37,-881.75 516.58,-891.2 523.52,-892.13"/>
</g>
<!-- Node3 -->
<g id="node3" class="node">
<title>Node3</title>
<g id="a_node3"><a xlink:href="../../dd/ddf/ExtendedInputOutput_8hpp.html" target="_top" xlink:title=" ">
<polygon fill="white" stroke="black" points="323,-694.5 323,-713.5 464,-713.5 464,-694.5 323,-694.5"/>
<text text-anchor="middle" x="393.5" y="-701.5" font-family="Helvetica,sans-Serif" font-size="10.00">ExtendedInputOutput.hpp</text>
</a>
</g>
</g>
<!-- Node2&#45;&gt;Node3 -->
<g id="edge2" class="edge">
<title>Node2&#45;&gt;Node3</title>
<path fill="none" stroke="midnightblue" d="M351.38,-862.44C333.86,-855.62 312.98,-844.14 302.5,-826 298.05,-818.3 299.31,-814.3 302.5,-806 316.62,-769.24 350.99,-737.49 373.22,-719.84"/>
<polygon fill="midnightblue" stroke="midnightblue" points="375.56,-722.45 381.35,-713.58 371.29,-716.9 375.56,-722.45"/>
</g>
<!-- Node30 -->
<g id="node30" class="node">
<title>Node30</title>
<g id="a_node30"><a xlink:href="../../d2/d05/StaticSizeExtendedIOElement_8hpp.html" target="_top" xlink:title=" ">
<polygon fill="white" stroke="black" points="505.5,-806.5 505.5,-825.5 687.5,-825.5 687.5,-806.5 505.5,-806.5"/>
<text text-anchor="middle" x="596.5" y="-813.5" font-family="Helvetica,sans-Serif" font-size="10.00">StaticSizeExtendedIOElement.hpp</text>
</a>
</g>
</g>
<!-- Node2&#45;&gt;Node30 -->
<g id="edge43" class="edge">
<title>Node2&#45;&gt;Node30</title>
<path fill="none" stroke="midnightblue" d="M414.73,-862.44C452.01,-853.12 511.77,-838.18 552.51,-828"/>
<polygon fill="midnightblue" stroke="midnightblue" points="553.58,-831.34 562.43,-825.52 551.88,-824.55 553.58,-831.34"/>
</g>
<!-- Node39 -->
<g id="node39" class="node">
<title>Node39</title>
<g id="a_node39"><a xlink:href="../../d1/d40/BitArray_8hpp.html" target="_top" xlink:title=" ">
<polygon fill="white" stroke="black" points="280,-504.5 280,-523.5 429,-523.5 429,-504.5 280,-504.5"/>
<text text-anchor="middle" x="354.5" y="-511.5" font-family="Helvetica,sans-Serif" font-size="10.00">AH/Containers/BitArray.hpp</text>
</a>
</g>
</g>
<!-- Node2&#45;&gt;Node39 -->
<g id="edge63" class="edge">
<title>Node2&#45;&gt;Node39</title>
<path fill="none" stroke="midnightblue" d="M315.62,-862.46C257.54,-850.74 181.5,-823.47 181.5,-761 181.5,-761 181.5,-761 181.5,-641.5 181.5,-577.84 258.77,-542.77 310.03,-526.51"/>
<polygon fill="midnightblue" stroke="midnightblue" points="311.36,-529.76 319.91,-523.5 309.32,-523.07 311.36,-529.76"/>
</g>
<!-- Node40 -->
<g id="node40" class="node">
<title>Node40</title>
<g id="a_node40"><a xlink:href="../../d5/d47/ShiftRegisterOutBase_8ipp.html" target="_top" xlink:title=" ">
<polygon fill="white" stroke="black" points="311.5,-806.5 311.5,-825.5 449.5,-825.5 449.5,-806.5 311.5,-806.5"/>
<text text-anchor="middle" x="380.5" y="-813.5" font-family="Helvetica,sans-Serif" font-size="10.00">ShiftRegisterOutBase.ipp</text>
</a>
</g>
</g>
<!-- Node2&#45;&gt;Node40 -->
<g id="edge67" class="edge">
<title>Node2&#45;&gt;Node40</title>
<path fill="none" stroke="midnightblue" d="M375.33,-862.08C373.82,-854.93 373.39,-844.64 374.04,-835.69"/>
<polygon fill="midnightblue" stroke="midnightblue" points="377.52,-836.13 375.37,-825.75 370.58,-835.2 377.52,-836.13"/>
</g>
<!-- Node4 -->
<g id="node4" class="node">
<title>Node4</title>
<g id="a_node4"><a xlink:href="../../d2/d3c/Arduino-Hardware-Types_8hpp.html" target="_top" xlink:title=" ">
<polygon fill="white" stroke="black" points="209.5,-627.5 209.5,-657.5 331.5,-657.5 331.5,-627.5 209.5,-627.5"/>
<text text-anchor="start" x="217.5" y="-645.5" font-family="Helvetica,sans-Serif" font-size="10.00">AH/Hardware/Arduino</text>
<text text-anchor="middle" x="270.5" y="-634.5" font-family="Helvetica,sans-Serif" font-size="10.00">&#45;Hardware&#45;Types.hpp</text>
</a>
</g>
</g>
<!-- Node3&#45;&gt;Node4 -->
<g id="edge3" class="edge">
<title>Node3&#45;&gt;Node4</title>
<path fill="none" stroke="midnightblue" d="M375.88,-694.48C358.44,-686.04 331.18,-672.86 308.76,-662.01"/>
<polygon fill="midnightblue" stroke="midnightblue" points="310.01,-658.73 299.49,-657.52 306.97,-665.03 310.01,-658.73"/>
</g>
<!-- Node15 -->
<g id="node15" class="node">
<title>Node15</title>
<g id="a_node15"><a xlink:href="../../dc/dc7/NamespaceSettings_8hpp.html" target="_top" xlink:title=" ">
<polygon fill="white" stroke="black" points="447,-56.5 447,-75.5 642,-75.5 642,-56.5 447,-56.5"/>
<text text-anchor="middle" x="544.5" y="-63.5" font-family="Helvetica,sans-Serif" font-size="10.00">AH/Settings/NamespaceSettings.hpp</text>
</a>
</g>
</g>
<!-- Node3&#45;&gt;Node15 -->
<g id="edge42" class="edge">
<title>Node3&#45;&gt;Node15</title>
<path fill="none" stroke="midnightblue" d="M409.83,-694.39C422.46,-686.72 439,-674.21 446.5,-658 452.29,-645.5 447,-640.77 446.5,-627 444.5,-572.22 450.85,-557.16 437.5,-504 425.53,-456.34 392.5,-452.14 392.5,-403 392.5,-403 392.5,-403 392.5,-177 392.5,-123.44 455.21,-93.3 500.07,-78.59"/>
<polygon fill="midnightblue" stroke="midnightblue" points="501.13,-81.93 509.63,-75.6 499.04,-75.25 501.13,-81.93"/>
</g>
<!-- Node29 -->
<g id="node29" class="node">
<title>Node29</title>
<g id="a_node29"><a xlink:title=" ">
<polygon fill="white" stroke="#bfbfbf" points="350,-633 350,-652 437,-652 437,-633 350,-633"/>
<text text-anchor="middle" x="393.5" y="-640" font-family="Helvetica,sans-Serif" font-size="10.00">AH/STL/climits</text>
</a>
</g>
</g>
<!-- Node3&#45;&gt;Node29 -->
<g id="edge41" class="edge">
<title>Node3&#45;&gt;Node29</title>
<path fill="none" stroke="midnightblue" d="M393.5,-694.48C393.5,-686.08 393.5,-672.98 393.5,-662.16"/>
<polygon fill="midnightblue" stroke="midnightblue" points="397,-662.01 393.5,-652.01 390,-662.01 397,-662.01"/>
</g>
<!-- Node5 -->
<g id="node5" class="node">
<title>Node5</title>
<g id="a_node5"><a xlink:href="../../d4/d35/Hardware-Types_8hpp.html" target="_top" xlink:title=" ">
<polygon fill="white" stroke="black" points="485,-560.5 485,-590.5 616,-590.5 616,-560.5 485,-560.5"/>
<text text-anchor="start" x="493" y="-578.5" font-family="Helvetica,sans-Serif" font-size="10.00">AH/Hardware/Hardware</text>
<text text-anchor="middle" x="550.5" y="-567.5" font-family="Helvetica,sans-Serif" font-size="10.00">&#45;Types.hpp</text>
</a>
</g>
</g>
<!-- Node4&#45;&gt;Node5 -->
<g id="edge4" class="edge">
<title>Node4&#45;&gt;Node5</title>
<path fill="none" stroke="midnightblue" d="M330.91,-627.48C374.65,-617.32 433.9,-603.57 479.83,-592.91"/>
<polygon fill="midnightblue" stroke="midnightblue" points="480.77,-596.28 489.71,-590.61 479.18,-589.46 480.77,-596.28"/>
</g>
<!-- Node4&#45;&gt;Node10 -->
<g id="edge40" class="edge">
<title>Node4&#45;&gt;Node10</title>
<path fill="none" stroke="midnightblue" d="M331.88,-628.3C334.79,-627.83 337.67,-627.39 340.5,-627 567.8,-595.66 627.66,-618.12 855.5,-591 1033.18,-569.85 1078.15,-564.25 1252.5,-524 1338.28,-504.2 1389.78,-538.5 1442.5,-468 1537.57,-340.87 1256.57,-227 1154.78,-190.88"/>
<polygon fill="midnightblue" stroke="midnightblue" points="1155.83,-187.53 1145.23,-187.53 1153.51,-194.14 1155.83,-187.53"/>
</g>
<!-- Node26 -->
<g id="node26" class="node">
<title>Node26</title>
<g id="a_node26"><a xlink:href="../../d0/db1/FunctionTraits_8hpp.html" target="_top" xlink:title=" ">
<polygon fill="white" stroke="black" points="0,-566 0,-585 153,-585 153,-566 0,-566"/>
<text text-anchor="middle" x="76.5" y="-573" font-family="Helvetica,sans-Serif" font-size="10.00">AH/Types/FunctionTraits.hpp</text>
</a>
</g>
</g>
<!-- Node4&#45;&gt;Node26 -->
<g id="edge36" class="edge">
<title>Node4&#45;&gt;Node26</title>
<path fill="none" stroke="midnightblue" d="M228.4,-627.4C193.46,-615.69 144.34,-599.23 111.52,-588.23"/>
<polygon fill="midnightblue" stroke="midnightblue" points="112.48,-584.87 101.89,-585.01 110.26,-591.5 112.48,-584.87"/>
</g>
<!-- Node6 -->
<g id="node6" class="node">
<title>Node6</title>
<g id="a_node6"><a xlink:href="../../de/d76/Array_8hpp.html" target="_top" xlink:title=" ">
<polygon fill="white" stroke="black" points="802,-504.5 802,-523.5 937,-523.5 937,-504.5 802,-504.5"/>
<text text-anchor="middle" x="869.5" y="-511.5" font-family="Helvetica,sans-Serif" font-size="10.00">AH/Containers/Array.hpp</text>
</a>
</g>
</g>
<!-- Node5&#45;&gt;Node6 -->
<g id="edge5" class="edge">
<title>Node5&#45;&gt;Node6</title>
<path fill="none" stroke="midnightblue" d="M616.21,-562.24C674.42,-551.39 758.47,-535.71 813.53,-525.44"/>
<polygon fill="midnightblue" stroke="midnightblue" points="814.28,-528.86 823.47,-523.59 812.99,-521.98 814.28,-528.86"/>
</g>
<!-- Node5&#45;&gt;Node15 -->
<g id="edge34" class="edge">
<title>Node5&#45;&gt;Node15</title>
<path fill="none" stroke="midnightblue" d="M484.86,-570.61C412.16,-564.97 301.15,-551.96 270.5,-524 248.35,-503.8 252.5,-488.98 252.5,-459 252.5,-459 252.5,-459 252.5,-177 252.5,-128.15 397.44,-93.53 483.09,-77.34"/>
<polygon fill="midnightblue" stroke="midnightblue" points="483.78,-80.77 492.97,-75.5 482.5,-73.89 483.78,-80.77"/>
</g>
<!-- Node23 -->
<g id="node23" class="node">
<title>Node23</title>
<g id="a_node23"><a xlink:title=" ">
<polygon fill="white" stroke="#bfbfbf" points="453,-224.5 453,-243.5 506,-243.5 506,-224.5 453,-224.5"/>
<text text-anchor="middle" x="479.5" y="-231.5" font-family="Helvetica,sans-Serif" font-size="10.00">stdint.h</text>
</a>
</g>
</g>
<!-- Node5&#45;&gt;Node23 -->
<g id="edge35" class="edge">
<title>Node5&#45;&gt;Node23</title>
<path fill="none" stroke="midnightblue" d="M543.12,-560.2C529.23,-532.49 499.53,-469.14 487.5,-412 475.59,-355.43 476.86,-286.54 478.37,-253.89"/>
<polygon fill="midnightblue" stroke="midnightblue" points="481.88,-253.77 478.92,-243.6 474.89,-253.4 481.88,-253.77"/>
</g>
<!-- Node7 -->
<g id="node7" class="node">
<title>Node7</title>
<g id="a_node7"><a xlink:href="../../d1/d93/Error_8hpp.html" target="_top" xlink:title=" ">
<polygon fill="white" stroke="black" points="671.5,-448.5 671.5,-467.5 775.5,-467.5 775.5,-448.5 671.5,-448.5"/>
<text text-anchor="middle" x="723.5" y="-455.5" font-family="Helvetica,sans-Serif" font-size="10.00">AH/Error/Error.hpp</text>
</a>
</g>
</g>
<!-- Node6&#45;&gt;Node7 -->
<g id="edge6" class="edge">
<title>Node6&#45;&gt;Node7</title>
<path fill="none" stroke="midnightblue" d="M846.37,-504.44C822.02,-495.44 783.49,-481.19 756.08,-471.05"/>
<polygon fill="midnightblue" stroke="midnightblue" points="757.12,-467.7 746.53,-467.52 754.69,-474.27 757.12,-467.7"/>
</g>
<!-- Node16 -->
<g id="node16" class="node">
<title>Node16</title>
<g id="a_node16"><a xlink:title=" ">
<polygon fill="white" stroke="#bfbfbf" points="1446,-112.5 1446,-131.5 1553,-131.5 1553,-112.5 1446,-112.5"/>
<text text-anchor="middle" x="1499.5" y="-119.5" font-family="Helvetica,sans-Serif" font-size="10.00">AH/STL/type_traits</text>
</a>
</g>
</g>
<!-- Node6&#45;&gt;Node16 -->
<g id="edge32" class="edge">
<title>Node6&#45;&gt;Node16</title>
<path fill="none" stroke="midnightblue" d="M924.84,-504.47C981.44,-495.3 1065.23,-480.38 1095.5,-468 1263.68,-399.22 1316.03,-379.13 1437.5,-244 1465.54,-212.81 1484.53,-166.62 1493.52,-141.28"/>
<polygon fill="midnightblue" stroke="midnightblue" points="1496.93,-142.11 1496.85,-131.52 1490.31,-139.85 1496.93,-142.11"/>
</g>
<!-- Node22 -->
<g id="node22" class="node">
<title>Node22</title>
<g id="a_node22"><a xlink:title=" ">
<polygon fill="white" stroke="#bfbfbf" points="1147.5,-224.5 1147.5,-243.5 1203.5,-243.5 1203.5,-224.5 1147.5,-224.5"/>
<text text-anchor="middle" x="1175.5" y="-231.5" font-family="Helvetica,sans-Serif" font-size="10.00">stddef.h</text>
</a>
</g>
</g>
<!-- Node6&#45;&gt;Node22 -->
<g id="edge33" class="edge">
<title>Node6&#45;&gt;Node22</title>
<path fill="none" stroke="midnightblue" d="M937.14,-504.98C988.8,-497.64 1054.58,-485.28 1075.5,-468 1093.33,-453.28 1149.23,-305.84 1168.72,-253.4"/>
<polygon fill="midnightblue" stroke="midnightblue" points="1172.11,-254.32 1172.3,-243.73 1165.54,-251.89 1172.11,-254.32"/>
</g>
<!-- Node25 -->
<g id="node25" class="node">
<title>Node25</title>
<g id="a_node25"><a xlink:title=" ">
<polygon fill="white" stroke="#bfbfbf" points="868.5,-392.5 868.5,-411.5 958.5,-411.5 958.5,-392.5 868.5,-392.5"/>
<text text-anchor="middle" x="913.5" y="-399.5" font-family="Helvetica,sans-Serif" font-size="10.00">AH/STL/iterator</text>
</a>
</g>
</g>
<!-- Node6&#45;&gt;Node25 -->
<g id="edge31" class="edge">
<title>Node6&#45;&gt;Node25</title>
<path fill="none" stroke="midnightblue" d="M872.95,-504.37C880.12,-486.46 896.73,-444.92 906.32,-420.95"/>
<polygon fill="midnightblue" stroke="midnightblue" points="909.6,-422.18 910.06,-411.59 903.1,-419.58 909.6,-422.18"/>
</g>
<!-- Node8 -->
<g id="node8" class="node">
<title>Node8</title>
<g id="a_node8"><a xlink:href="../../df/dee/Debug_8hpp.html" target="_top" xlink:title=" ">
<polygon fill="white" stroke="black" points="691,-392.5 691,-411.5 812,-411.5 812,-392.5 691,-392.5"/>
<text text-anchor="middle" x="751.5" y="-399.5" font-family="Helvetica,sans-Serif" font-size="10.00">AH/Debug/Debug.hpp</text>
</a>
</g>
</g>
<!-- Node7&#45;&gt;Node8 -->
<g id="edge7" class="edge">
<title>Node7&#45;&gt;Node8</title>
<path fill="none" stroke="midnightblue" d="M728.12,-448.08C731.96,-440.69 737.52,-429.95 742.26,-420.81"/>
<polygon fill="midnightblue" stroke="midnightblue" points="745.47,-422.24 746.96,-411.75 739.25,-419.02 745.47,-422.24"/>
</g>
<!-- Node9 -->
<g id="node9" class="node">
<title>Node9</title>
<g id="a_node9"><a xlink:href="../../dd/d80/PrintStream_8hpp.html" target="_top" xlink:title=" ">
<polygon fill="white" stroke="black" points="776,-336.5 776,-355.5 949,-355.5 949,-336.5 776,-336.5"/>
<text text-anchor="middle" x="862.5" y="-343.5" font-family="Helvetica,sans-Serif" font-size="10.00">AH/PrintStream/PrintStream.hpp</text>
</a>
</g>
</g>
<!-- Node8&#45;&gt;Node9 -->
<g id="edge8" class="edge">
<title>Node8&#45;&gt;Node9</title>
<path fill="none" stroke="midnightblue" d="M769.33,-392.32C787.22,-383.62 814.98,-370.12 835.55,-360.11"/>
<polygon fill="midnightblue" stroke="midnightblue" points="837.25,-363.18 844.71,-355.65 834.19,-356.88 837.25,-363.18"/>
</g>
<!-- Node17 -->
<g id="node17" class="node">
<title>Node17</title>
<g id="a_node17"><a xlink:href="../../d2/dd5/SettingsWrapper_8hpp.html" target="_top" xlink:title=" ">
<polygon fill="white" stroke="black" points="573.5,-336.5 573.5,-355.5 751.5,-355.5 751.5,-336.5 573.5,-336.5"/>
<text text-anchor="middle" x="662.5" y="-343.5" font-family="Helvetica,sans-Serif" font-size="10.00">AH/Settings/SettingsWrapper.hpp</text>
</a>
</g>
</g>
<!-- Node8&#45;&gt;Node17 -->
<g id="edge19" class="edge">
<title>Node8&#45;&gt;Node17</title>
<path fill="none" stroke="midnightblue" d="M732.09,-392.32C716.53,-383.98 695.17,-371.21 680.11,-361.35"/>
<polygon fill="midnightblue" stroke="midnightblue" points="681.9,-358.34 671.65,-355.65 677.99,-364.14 681.9,-358.34"/>
</g>
<!-- Node9&#45;&gt;Node10 -->
<g id="edge9" class="edge">
<title>Node9&#45;&gt;Node10</title>
<path fill="none" stroke="midnightblue" d="M914.16,-336.45C968.17,-324.83 1051.73,-298.84 1100.5,-244 1111.84,-231.25 1116.43,-212.05 1118.28,-197.82"/>
<polygon fill="midnightblue" stroke="midnightblue" points="1121.78,-197.98 1119.25,-187.7 1114.81,-197.32 1121.78,-197.98"/>
</g>
<!-- Node9&#45;&gt;Node15 -->
<g id="edge18" class="edge">
<title>Node9&#45;&gt;Node15</title>
<path fill="none" stroke="midnightblue" d="M862.72,-336.36C862.67,-323.27 861.07,-298.02 850.5,-280 786.81,-171.39 643.24,-104.86 577.95,-79.16"/>
<polygon fill="midnightblue" stroke="midnightblue" points="579.13,-75.87 568.54,-75.53 576.61,-82.4 579.13,-75.87"/>
</g>
<!-- Node11 -->
<g id="node11" class="node">
<title>Node11</title>
<g id="a_node11"><a xlink:href="../../d7/d79/MinMaxFix_8hpp.html" target="_top" xlink:title=" ">
<polygon fill="white" stroke="black" points="895.5,-112.5 895.5,-131.5 1031.5,-131.5 1031.5,-112.5 895.5,-112.5"/>
<text text-anchor="middle" x="963.5" y="-119.5" font-family="Helvetica,sans-Serif" font-size="10.00">AH/Math/MinMaxFix.hpp</text>
</a>
</g>
</g>
<!-- Node10&#45;&gt;Node11 -->
<g id="edge10" class="edge">
<title>Node10&#45;&gt;Node11</title>
<path fill="none" stroke="midnightblue" d="M1094.78,-168.44C1068.65,-159.4 1027.24,-145.06 997.92,-134.92"/>
<polygon fill="midnightblue" stroke="midnightblue" points="998.7,-131.48 988.1,-131.52 996.41,-138.1 998.7,-131.48"/>
</g>
<!-- Node14 -->
<g id="node14" class="node">
<title>Node14</title>
<g id="a_node14"><a xlink:title=" ">
<polygon fill="white" stroke="#bfbfbf" points="999,-0.5 999,-19.5 1062,-19.5 1062,-0.5 999,-0.5"/>
<text text-anchor="middle" x="1030.5" y="-7.5" font-family="Helvetica,sans-Serif" font-size="10.00">Arduino.h</text>
</a>
</g>
</g>
<!-- Node10&#45;&gt;Node14 -->
<g id="edge17" class="edge">
<title>Node10&#45;&gt;Node14</title>
<path fill="none" stroke="midnightblue" d="M1115.33,-168.39C1105.62,-148.41 1080.54,-97.48 1057.5,-56 1052.35,-46.73 1046.3,-36.58 1041.23,-28.27"/>
<polygon fill="midnightblue" stroke="midnightblue" points="1044.07,-26.21 1035.85,-19.53 1038.11,-29.88 1044.07,-26.21"/>
</g>
<!-- Node10&#45;&gt;Node16 -->
<g id="edge16" class="edge">
<title>Node10&#45;&gt;Node16</title>
<path fill="none" stroke="midnightblue" d="M1179.71,-168.44C1249.53,-158.52 1364.12,-142.24 1435.51,-132.09"/>
<polygon fill="midnightblue" stroke="midnightblue" points="1436.31,-135.52 1445.71,-130.64 1435.32,-128.59 1436.31,-135.52"/>
</g>
<!-- Node12 -->
<g id="node12" class="node">
<title>Node12</title>
<g id="a_node12"><a xlink:href="../../d6/d3b/FixArduinoMacros_8hpp.html" target="_top" xlink:title=" ">
<polygon fill="white" stroke="black" points="878.5,-56.5 878.5,-75.5 1048.5,-75.5 1048.5,-56.5 878.5,-56.5"/>
<text text-anchor="middle" x="963.5" y="-63.5" font-family="Helvetica,sans-Serif" font-size="10.00">AH/Math/FixArduinoMacros.hpp</text>
</a>
</g>
</g>
<!-- Node11&#45;&gt;Node12 -->
<g id="edge11" class="edge">
<title>Node11&#45;&gt;Node12</title>
<path fill="none" stroke="midnightblue" d="M963.5,-112.08C963.5,-105.01 963.5,-94.86 963.5,-85.99"/>
<polygon fill="midnightblue" stroke="midnightblue" points="967,-85.75 963.5,-75.75 960,-85.75 967,-85.75"/>
</g>
<!-- Node11&#45;&gt;Node15 -->
<g id="edge14" class="edge">
<title>Node11&#45;&gt;Node15</title>
<path fill="none" stroke="midnightblue" d="M897.11,-112.44C822.02,-102.77 699.96,-87.04 620.95,-76.85"/>
<polygon fill="midnightblue" stroke="midnightblue" points="620.95,-73.32 610.58,-75.52 620.05,-80.27 620.95,-73.32"/>
</g>
<!-- Node13 -->
<g id="node13" class="node">
<title>Node13</title>
<g id="a_node13"><a xlink:href="../../d1/d65/Warnings_8hpp.html" target="_top" xlink:title=" ">
<polygon fill="white" stroke="black" points="688,-0.5 688,-19.5 831,-19.5 831,-0.5 688,-0.5"/>
<text text-anchor="middle" x="759.5" y="-7.5" font-family="Helvetica,sans-Serif" font-size="10.00">AH/Settings/Warnings.hpp</text>
</a>
</g>
</g>
<!-- Node12&#45;&gt;Node13 -->
<g id="edge12" class="edge">
<title>Node12&#45;&gt;Node13</title>
<path fill="none" stroke="midnightblue" d="M931.18,-56.44C896.11,-47.16 840,-32.31 801.54,-22.13"/>
<polygon fill="midnightblue" stroke="midnightblue" points="802.24,-18.69 791.67,-19.52 800.44,-25.46 802.24,-18.69"/>
</g>
<!-- Node12&#45;&gt;Node14 -->
<g id="edge13" class="edge">
<title>Node12&#45;&gt;Node14</title>
<path fill="none" stroke="midnightblue" d="M974.26,-56.32C984.27,-48.26 999.39,-36.08 1011.43,-26.37"/>
<polygon fill="midnightblue" stroke="midnightblue" points="1013.95,-28.83 1019.54,-19.83 1009.56,-23.38 1013.95,-28.83"/>
</g>
<!-- Node15&#45;&gt;Node13 -->
<g id="edge15" class="edge">
<title>Node15&#45;&gt;Node13</title>
<path fill="none" stroke="midnightblue" d="M578.57,-56.44C615.68,-47.12 675.16,-32.18 715.71,-22"/>
<polygon fill="midnightblue" stroke="midnightblue" points="716.75,-25.35 725.59,-19.52 715.04,-18.56 716.75,-25.35"/>
</g>
<!-- Node17&#45;&gt;Node8 -->
<g id="edge30" class="edge">
<title>Node17&#45;&gt;Node8</title>
<path fill="none" stroke="midnightblue" d="M681.87,-355.65C697.42,-363.99 718.78,-376.76 733.85,-386.62"/>
<polygon fill="midnightblue" stroke="midnightblue" points="732.07,-389.64 742.32,-392.32 735.98,-383.83 732.07,-389.64"/>
</g>
<!-- Node17&#45;&gt;Node15 -->
<g id="edge20" class="edge">
<title>Node17&#45;&gt;Node15</title>
<path fill="none" stroke="midnightblue" d="M626.78,-336.49C605.94,-329.8 580.66,-318.45 564.5,-300 544.58,-277.26 544.5,-265.23 544.5,-235 544.5,-235 544.5,-235 544.5,-177 544.5,-144.95 544.5,-107.64 544.5,-85.75"/>
<polygon fill="midnightblue" stroke="midnightblue" points="548,-85.56 544.5,-75.56 541,-85.56 548,-85.56"/>
</g>
<!-- Node18 -->
<g id="node18" class="node">
<title>Node18</title>
<g id="a_node18"><a xlink:href="../../db/d02/Settings_8hpp.html" target="_top" xlink:title="All user settings and debugging options can be changed here.">
<polygon fill="white" stroke="black" points="573,-280.5 573,-299.5 650,-299.5 650,-280.5 573,-280.5"/>
<text text-anchor="middle" x="611.5" y="-287.5" font-family="Helvetica,sans-Serif" font-size="10.00">Settings.hpp</text>
</a>
</g>
</g>
<!-- Node17&#45;&gt;Node18 -->
<g id="edge21" class="edge">
<title>Node17&#45;&gt;Node18</title>
<path fill="none" stroke="midnightblue" d="M654.08,-336.08C646.65,-328.22 635.65,-316.57 626.69,-307.08"/>
<polygon fill="midnightblue" stroke="midnightblue" points="629.18,-304.62 619.76,-299.75 624.09,-309.42 629.18,-304.62"/>
</g>
<!-- Node24 -->
<g id="node24" class="node">
<title>Node24</title>
<g id="a_node24"><a xlink:href="../../d9/d98/TeensyUSBTypes_8hpp.html" target="_top" xlink:title=" ">
<polygon fill="white" stroke="black" points="668,-280.5 668,-299.5 841,-299.5 841,-280.5 668,-280.5"/>
<text text-anchor="middle" x="754.5" y="-287.5" font-family="Helvetica,sans-Serif" font-size="10.00">AH/Teensy/TeensyUSBTypes.hpp</text>
</a>
</g>
</g>
<!-- Node17&#45;&gt;Node24 -->
<g id="edge29" class="edge">
<title>Node17&#45;&gt;Node24</title>
<path fill="none" stroke="midnightblue" d="M677.28,-336.32C691.77,-327.82 714.07,-314.73 730.99,-304.8"/>
<polygon fill="midnightblue" stroke="midnightblue" points="732.9,-307.74 739.76,-299.65 729.36,-301.7 732.9,-307.74"/>
</g>
<!-- Node19 -->
<g id="node19" class="node">
<title>Node19</title>
<g id="a_node19"><a xlink:href="../../dc/d50/Frequency_8hpp.html" target="_top" xlink:title=" ">
<polygon fill="white" stroke="black" points="572.5,-168.5 572.5,-187.5 706.5,-187.5 706.5,-168.5 572.5,-168.5"/>
<text text-anchor="middle" x="639.5" y="-175.5" font-family="Helvetica,sans-Serif" font-size="10.00">AH/Types/Frequency.hpp</text>
</a>
</g>
</g>
<!-- Node18&#45;&gt;Node19 -->
<g id="edge22" class="edge">
<title>Node18&#45;&gt;Node19</title>
<path fill="none" stroke="midnightblue" d="M613.7,-280.37C618.22,-262.62 628.64,-221.67 634.77,-197.6"/>
<polygon fill="midnightblue" stroke="midnightblue" points="638.24,-198.15 637.31,-187.59 631.45,-196.42 638.24,-198.15"/>
</g>
<!-- Node20 -->
<g id="node20" class="node">
<title>Node20</title>
<g id="a_node20"><a xlink:href="../../d7/d7c/ADCConfig_8hpp.html" target="_top" xlink:title="This file contains the platform&#45;specific ADC resolutions.">
<polygon fill="white" stroke="black" points="934,-224.5 934,-243.5 1091,-243.5 1091,-224.5 934,-224.5"/>
<text text-anchor="middle" x="1012.5" y="-231.5" font-family="Helvetica,sans-Serif" font-size="10.00">AH/Hardware/ADCConfig.hpp</text>
</a>
</g>
</g>
<!-- Node18&#45;&gt;Node20 -->
<g id="edge24" class="edge">
<title>Node18&#45;&gt;Node20</title>
<path fill="none" stroke="midnightblue" d="M650.24,-281.54C653.37,-280.99 656.48,-280.47 659.5,-280 749.66,-265.81 853.32,-253.01 924.87,-244.73"/>
<polygon fill="midnightblue" stroke="midnightblue" points="925.66,-248.16 935.19,-243.54 924.86,-241.2 925.66,-248.16"/>
</g>
<!-- Node21 -->
<g id="node21" class="node">
<title>Node21</title>
<g id="a_node21"><a xlink:title=" ">
<polygon fill="white" stroke="#bfbfbf" points="640,-224.5 640,-243.5 693,-243.5 693,-224.5 640,-224.5"/>
<text text-anchor="middle" x="666.5" y="-231.5" font-family="Helvetica,sans-Serif" font-size="10.00">limits.h</text>
</a>
</g>
</g>
<!-- Node18&#45;&gt;Node21 -->
<g id="edge26" class="edge">
<title>Node18&#45;&gt;Node21</title>
<path fill="none" stroke="midnightblue" d="M620.58,-280.08C628.67,-272.14 640.7,-260.34 650.41,-250.8"/>
<polygon fill="midnightblue" stroke="midnightblue" points="652.9,-253.25 657.59,-243.75 648,-248.26 652.9,-253.25"/>
</g>
<!-- Node18&#45;&gt;Node22 -->
<g id="edge27" class="edge">
<title>Node18&#45;&gt;Node22</title>
<path fill="none" stroke="midnightblue" d="M650.22,-281.38C653.35,-280.88 656.47,-280.41 659.5,-280 854.4,-253.84 904.84,-263.72 1100.5,-244 1112.51,-242.79 1125.58,-241.29 1137.39,-239.86"/>
<polygon fill="midnightblue" stroke="midnightblue" points="1137.89,-243.32 1147.39,-238.63 1137.04,-236.37 1137.89,-243.32"/>
</g>
<!-- Node18&#45;&gt;Node23 -->
<g id="edge28" class="edge">
<title>Node18&#45;&gt;Node23</title>
<path fill="none" stroke="midnightblue" d="M590.58,-280.44C568.76,-271.52 534.35,-257.44 509.61,-247.32"/>
<polygon fill="midnightblue" stroke="midnightblue" points="510.9,-244.06 500.32,-243.52 508.25,-250.54 510.9,-244.06"/>
</g>
<!-- Node19&#45;&gt;Node15 -->
<g id="edge23" class="edge">
<title>Node19&#45;&gt;Node15</title>
<path fill="none" stroke="midnightblue" d="M632.05,-168.37C616.23,-150.05 579.09,-107.05 558.63,-83.36"/>
<polygon fill="midnightblue" stroke="midnightblue" points="561.1,-80.87 551.92,-75.59 555.81,-85.45 561.1,-80.87"/>
</g>
<!-- Node20&#45;&gt;Node10 -->
<g id="edge25" class="edge">
<title>Node20&#45;&gt;Node10</title>
<path fill="none" stroke="midnightblue" d="M1029.69,-224.32C1046.85,-215.66 1073.45,-202.24 1093.25,-192.25"/>
<polygon fill="midnightblue" stroke="midnightblue" points="1095,-195.28 1102.35,-187.65 1091.85,-189.04 1095,-195.28"/>
</g>
<!-- Node26&#45;&gt;Node15 -->
<g id="edge39" class="edge">
<title>Node26&#45;&gt;Node15</title>
<path fill="none" stroke="midnightblue" d="M65.56,-565.99C54.44,-556.78 37.46,-541.1 27.5,-524 12.35,-497.99 8.5,-489.1 8.5,-459 8.5,-459 8.5,-459 8.5,-177 8.5,-90.44 280.15,-71.37 436.67,-67.58"/>
<polygon fill="midnightblue" stroke="midnightblue" points="436.89,-71.07 446.81,-67.35 436.74,-64.07 436.89,-71.07"/>
</g>
<!-- Node27 -->
<g id="node27" class="node">
<title>Node27</title>
<g id="a_node27"><a xlink:title=" ">
<polygon fill="white" stroke="#bfbfbf" points="134.5,-504.5 134.5,-523.5 224.5,-523.5 224.5,-504.5 134.5,-504.5"/>
<text text-anchor="middle" x="179.5" y="-511.5" font-family="Helvetica,sans-Serif" font-size="10.00">AH/STL/cstddef</text>
</a>
</g>
</g>
<!-- Node26&#45;&gt;Node27 -->
<g id="edge37" class="edge">
<title>Node26&#45;&gt;Node27</title>
<path fill="none" stroke="midnightblue" d="M91.26,-565.98C108.16,-556.21 136.08,-540.08 155.99,-528.58"/>
<polygon fill="midnightblue" stroke="midnightblue" points="157.86,-531.54 164.77,-523.51 154.36,-525.48 157.86,-531.54"/>
</g>
<!-- Node28 -->
<g id="node28" class="node">
<title>Node28</title>
<g id="a_node28"><a xlink:title=" ">
<polygon fill="white" stroke="#bfbfbf" points="37,-504.5 37,-523.5 116,-523.5 116,-504.5 37,-504.5"/>
<text text-anchor="middle" x="76.5" y="-511.5" font-family="Helvetica,sans-Serif" font-size="10.00">AH/STL/tuple</text>
</a>
</g>
</g>
<!-- Node26&#45;&gt;Node28 -->
<g id="edge38" class="edge">
<title>Node26&#45;&gt;Node28</title>
<path fill="none" stroke="midnightblue" d="M76.5,-565.98C76.5,-557.58 76.5,-544.48 76.5,-533.66"/>
<polygon fill="midnightblue" stroke="midnightblue" points="80,-533.51 76.5,-523.51 73,-533.51 80,-533.51"/>
</g>
<!-- Node31 -->
<g id="node31" class="node">
<title>Node31</title>
<g id="a_node31"><a xlink:href="../../d4/d57/ExtendedIOElement_8hpp.html" target="_top" xlink:title=" ">
<polygon fill="white" stroke="black" points="505.5,-750.5 505.5,-769.5 639.5,-769.5 639.5,-750.5 505.5,-750.5"/>
<text text-anchor="middle" x="572.5" y="-757.5" font-family="Helvetica,sans-Serif" font-size="10.00">ExtendedIOElement.hpp</text>
</a>
</g>
</g>
<!-- Node30&#45;&gt;Node31 -->
<g id="edge44" class="edge">
<title>Node30&#45;&gt;Node31</title>
<path fill="none" stroke="midnightblue" d="M592.54,-806.08C589.29,-798.77 584.58,-788.18 580.55,-779.1"/>
<polygon fill="midnightblue" stroke="midnightblue" points="583.65,-777.47 576.39,-769.75 577.25,-780.31 583.65,-777.47"/>
</g>
<!-- Node37 -->
<g id="node37" class="node">
<title>Node37</title>
<g id="a_node37"><a xlink:href="../../d5/db6/ArrayHelpers_8hpp.html" target="_top" xlink:title=" ">
<polygon fill="white" stroke="black" points="672.5,-566 672.5,-585 846.5,-585 846.5,-566 672.5,-566"/>
<text text-anchor="middle" x="759.5" y="-573" font-family="Helvetica,sans-Serif" font-size="10.00">AH/Containers/ArrayHelpers.hpp</text>
</a>
</g>
</g>
<!-- Node30&#45;&gt;Node37 -->
<g id="edge59" class="edge">
<title>Node30&#45;&gt;Node37</title>
<path fill="none" stroke="midnightblue" d="M623.4,-806.35C641.9,-799.19 665.85,-787.36 681.5,-770 728.75,-717.58 749.26,-632.86 756.36,-595.38"/>
<polygon fill="midnightblue" stroke="midnightblue" points="759.84,-595.81 758.15,-585.35 752.95,-594.58 759.84,-595.81"/>
</g>
<!-- Node31&#45;&gt;Node3 -->
<g id="edge45" class="edge">
<title>Node31&#45;&gt;Node3</title>
<path fill="none" stroke="midnightblue" d="M544.14,-750.44C513.76,-741.28 465.39,-726.69 431.68,-716.52"/>
<polygon fill="midnightblue" stroke="midnightblue" points="432.32,-713.05 421.73,-713.52 430.29,-719.76 432.32,-713.05"/>
</g>
<!-- Node31&#45;&gt;Node5 -->
<g id="edge58" class="edge">
<title>Node31&#45;&gt;Node5</title>
<path fill="none" stroke="midnightblue" d="M571.44,-750.2C568.2,-723.33 558.36,-641.74 553.41,-600.67"/>
<polygon fill="midnightblue" stroke="midnightblue" points="556.88,-600.2 552.21,-590.69 549.93,-601.04 556.88,-600.2"/>
</g>
<!-- Node32 -->
<g id="node32" class="node">
<title>Node32</title>
<g id="a_node32"><a xlink:href="../../d4/d93/Updatable_8hpp.html" target="_top" xlink:title=" ">
<polygon fill="white" stroke="black" points="1082,-504.5 1082,-523.5 1243,-523.5 1243,-504.5 1082,-504.5"/>
<text text-anchor="middle" x="1162.5" y="-511.5" font-family="Helvetica,sans-Serif" font-size="10.00">AH/Containers/Updatable.hpp</text>
</a>
</g>
</g>
<!-- Node31&#45;&gt;Node32 -->
<g id="edge46" class="edge">
<title>Node31&#45;&gt;Node32</title>
<path fill="none" stroke="midnightblue" d="M593.15,-750.46C681.47,-713.93 1027.66,-570.76 1132.35,-527.47"/>
<polygon fill="midnightblue" stroke="midnightblue" points="1133.81,-530.65 1141.71,-523.6 1131.13,-524.19 1133.81,-530.65"/>
</g>
<!-- Node32&#45;&gt;Node7 -->
<g id="edge53" class="edge">
<title>Node32&#45;&gt;Node7</title>
<path fill="none" stroke="midnightblue" d="M1092.94,-504.44C1008.31,-494.03 866.73,-476.62 785.62,-466.64"/>
<polygon fill="midnightblue" stroke="midnightblue" points="785.9,-463.15 775.55,-465.4 785.05,-470.1 785.9,-463.15"/>
</g>
<!-- Node32&#45;&gt;Node16 -->
<g id="edge54" class="edge">
<title>Node32&#45;&gt;Node16</title>
<path fill="none" stroke="midnightblue" d="M1243.41,-505.66C1353.65,-493.39 1537.5,-463.81 1537.5,-403 1537.5,-403 1537.5,-403 1537.5,-233 1537.5,-198.81 1520.9,-161.76 1509.64,-140.57"/>
<polygon fill="midnightblue" stroke="midnightblue" points="1512.68,-138.83 1504.78,-131.77 1506.55,-142.22 1512.68,-138.83"/>
</g>
<!-- Node32&#45;&gt;Node17 -->
<g id="edge56" class="edge">
<title>Node32&#45;&gt;Node17</title>
<path fill="none" stroke="midnightblue" d="M1105.81,-504.49C985.5,-485.96 713.08,-441.24 682.5,-412 669.98,-400.02 665.24,-380.42 663.48,-365.86"/>
<polygon fill="midnightblue" stroke="midnightblue" points="666.93,-365.19 662.61,-355.52 659.96,-365.78 666.93,-365.19"/>
</g>
<!-- Node32&#45;&gt;Node22 -->
<g id="edge57" class="edge">
<title>Node32&#45;&gt;Node22</title>
<path fill="none" stroke="midnightblue" d="M1162.9,-504.38C1164.71,-465.78 1172.07,-308.45 1174.62,-253.81"/>
<polygon fill="midnightblue" stroke="midnightblue" points="1178.13,-253.68 1175.1,-243.52 1171.14,-253.35 1178.13,-253.68"/>
</g>
<!-- Node33 -->
<g id="node33" class="node">
<title>Node33</title>
<g id="a_node33"><a xlink:href="../../d4/dba/CRTP_8hpp.html" target="_top" xlink:title=" ">
<polygon fill="white" stroke="black" points="1197.5,-448.5 1197.5,-467.5 1331.5,-467.5 1331.5,-448.5 1197.5,-448.5"/>
<text text-anchor="middle" x="1264.5" y="-455.5" font-family="Helvetica,sans-Serif" font-size="10.00">AH/Containers/CRTP.hpp</text>
</a>
</g>
</g>
<!-- Node32&#45;&gt;Node33 -->
<g id="edge47" class="edge">
<title>Node32&#45;&gt;Node33</title>
<path fill="none" stroke="midnightblue" d="M1178.89,-504.32C1195.17,-495.7 1220.37,-482.36 1239.22,-472.39"/>
<polygon fill="midnightblue" stroke="midnightblue" points="1240.95,-475.43 1248.15,-467.65 1237.68,-469.24 1240.95,-475.43"/>
</g>
<!-- Node34 -->
<g id="node34" class="node">
<title>Node34</title>
<g id="a_node34"><a xlink:href="../../de/dd1/LinkedList_8hpp.html" target="_top" xlink:title=" ">
<polygon fill="white" stroke="black" points="907,-448.5 907,-467.5 1066,-467.5 1066,-448.5 907,-448.5"/>
<text text-anchor="middle" x="986.5" y="-455.5" font-family="Helvetica,sans-Serif" font-size="10.00">AH/Containers/LinkedList.hpp</text>
</a>
</g>
</g>
<!-- Node32&#45;&gt;Node34 -->
<g id="edge48" class="edge">
<title>Node32&#45;&gt;Node34</title>
<path fill="none" stroke="midnightblue" d="M1134.61,-504.44C1104.75,-495.28 1057.19,-480.69 1024.04,-470.52"/>
<polygon fill="midnightblue" stroke="midnightblue" points="1024.84,-467.1 1014.26,-467.52 1022.79,-473.8 1024.84,-467.1"/>
</g>
<!-- Node36 -->
<g id="node36" class="node">
<title>Node36</title>
<g id="a_node36"><a xlink:title=" ">
<polygon fill="white" stroke="#bfbfbf" points="1350,-448.5 1350,-467.5 1433,-467.5 1433,-448.5 1350,-448.5"/>
<text text-anchor="middle" x="1391.5" y="-455.5" font-family="Helvetica,sans-Serif" font-size="10.00">AH/STL/utility</text>
</a>
</g>
</g>
<!-- Node32&#45;&gt;Node36 -->
<g id="edge55" class="edge">
<title>Node32&#45;&gt;Node36</title>
<path fill="none" stroke="midnightblue" d="M1198.79,-504.44C1238.48,-495.08 1302.21,-480.06 1345.41,-469.87"/>
<polygon fill="midnightblue" stroke="midnightblue" points="1346.45,-473.22 1355.38,-467.52 1344.85,-466.41 1346.45,-473.22"/>
</g>
<!-- Node34&#45;&gt;Node8 -->
<g id="edge49" class="edge">
<title>Node34&#45;&gt;Node8</title>
<path fill="none" stroke="midnightblue" d="M949.26,-448.44C908.44,-439.06 842.86,-423.99 798.52,-413.8"/>
<polygon fill="midnightblue" stroke="midnightblue" points="799.09,-410.34 788.56,-411.52 797.52,-417.17 799.09,-410.34"/>
</g>
<!-- Node34&#45;&gt;Node11 -->
<g id="edge50" class="edge">
<title>Node34&#45;&gt;Node11</title>
<path fill="none" stroke="midnightblue" d="M984.87,-448.4C981.01,-428.46 970.72,-377.58 958.5,-336 943.86,-286.21 916.21,-275.06 925.5,-224 931.04,-193.55 945.25,-160.34 954.64,-140.61"/>
<polygon fill="midnightblue" stroke="midnightblue" points="957.79,-142.13 959.04,-131.61 951.5,-139.06 957.79,-142.13"/>
</g>
<!-- Node34&#45;&gt;Node25 -->
<g id="edge52" class="edge">
<title>Node34&#45;&gt;Node25</title>
<path fill="none" stroke="midnightblue" d="M974.77,-448.32C963.66,-440.11 946.76,-427.6 933.52,-417.81"/>
<polygon fill="midnightblue" stroke="midnightblue" points="935.56,-414.97 925.44,-411.83 931.4,-420.59 935.56,-414.97"/>
</g>
<!-- Node35 -->
<g id="node35" class="node">
<title>Node35</title>
<g id="a_node35"><a xlink:title=" ">
<polygon fill="white" stroke="#bfbfbf" points="1015,-392.5 1015,-411.5 1068,-411.5 1068,-392.5 1015,-392.5"/>
<text text-anchor="middle" x="1041.5" y="-399.5" font-family="Helvetica,sans-Serif" font-size="10.00">stdlib.h</text>
</a>
</g>
</g>
<!-- Node34&#45;&gt;Node35 -->
<g id="edge51" class="edge">
<title>Node34&#45;&gt;Node35</title>
<path fill="none" stroke="midnightblue" d="M995.58,-448.08C1003.67,-440.14 1015.7,-428.34 1025.41,-418.8"/>
<polygon fill="midnightblue" stroke="midnightblue" points="1027.9,-421.25 1032.59,-411.75 1023,-416.26 1027.9,-421.25"/>
</g>
<!-- Node37&#45;&gt;Node6 -->
<g id="edge60" class="edge">
<title>Node37&#45;&gt;Node6</title>
<path fill="none" stroke="midnightblue" d="M775.26,-565.98C793.48,-556.12 823.67,-539.79 844.97,-528.27"/>
<polygon fill="midnightblue" stroke="midnightblue" points="846.64,-531.35 853.77,-523.51 843.31,-525.19 846.64,-531.35"/>
</g>
<!-- Node37&#45;&gt;Node9 -->
<g id="edge62" class="edge">
<title>Node37&#45;&gt;Node9</title>
<path fill="none" stroke="midnightblue" d="M763.41,-565.86C778.55,-532.43 833.46,-411.13 854.36,-364.99"/>
<polygon fill="midnightblue" stroke="midnightblue" points="857.65,-366.2 858.58,-355.65 851.27,-363.32 857.65,-366.2"/>
</g>
<!-- Node38 -->
<g id="node38" class="node">
<title>Node38</title>
<g id="a_node38"><a xlink:title=" ">
<polygon fill="white" stroke="#bfbfbf" points="955,-504.5 955,-523.5 1056,-523.5 1056,-504.5 955,-504.5"/>
<text text-anchor="middle" x="1005.5" y="-511.5" font-family="Helvetica,sans-Serif" font-size="10.00">AH/STL/algorithm</text>
</a>
</g>
</g>
<!-- Node37&#45;&gt;Node38 -->
<g id="edge61" class="edge">
<title>Node37&#45;&gt;Node38</title>
<path fill="none" stroke="midnightblue" d="M794.75,-565.98C838.4,-555.42 912.84,-537.41 960.56,-525.87"/>
<polygon fill="midnightblue" stroke="midnightblue" points="961.42,-529.26 970.32,-523.51 959.78,-522.46 961.42,-529.26"/>
</g>
<!-- Node39&#45;&gt;Node7 -->
<g id="edge64" class="edge">
<title>Node39&#45;&gt;Node7</title>
<path fill="none" stroke="midnightblue" d="M412.97,-504.44C480.76,-494.52 592.04,-478.24 661.36,-468.09"/>
<polygon fill="midnightblue" stroke="midnightblue" points="661.88,-471.55 671.27,-466.64 660.87,-464.63 661.88,-471.55"/>
</g>
<!-- Node39&#45;&gt;Node15 -->
<g id="edge65" class="edge">
<title>Node39&#45;&gt;Node15</title>
<path fill="none" stroke="midnightblue" d="M354.5,-504.44C354.5,-485.94 354.5,-440.81 354.5,-403 354.5,-403 354.5,-403 354.5,-177 354.5,-146.2 355.78,-132.79 378.5,-112 396.61,-95.44 420.19,-84.87 443.88,-78.16"/>
<polygon fill="midnightblue" stroke="midnightblue" points="444.87,-81.52 453.66,-75.6 443.1,-74.75 444.87,-81.52"/>
</g>
<!-- Node39&#45;&gt;Node23 -->
<g id="edge66" class="edge">
<title>Node39&#45;&gt;Node23</title>
<path fill="none" stroke="midnightblue" d="M366.04,-504.43C387.3,-487.57 430.5,-447.8 430.5,-403 430.5,-403 430.5,-403 430.5,-345 430.5,-309.47 452.1,-272.63 466.62,-251.88"/>
<polygon fill="midnightblue" stroke="midnightblue" points="469.63,-253.69 472.69,-243.54 463.97,-249.57 469.63,-253.69"/>
</g>
<!-- Node40&#45;&gt;Node2 -->
<g id="edge69" class="edge">
<title>Node40&#45;&gt;Node2</title>
<path fill="none" stroke="midnightblue" d="M385.63,-825.75C387.16,-832.86 387.6,-843.14 386.97,-852.1"/>
<polygon fill="midnightblue" stroke="midnightblue" points="383.49,-851.71 385.67,-862.08 390.43,-852.62 383.49,-851.71"/>
</g>
<!-- Node40&#45;&gt;Node3 -->
<g id="edge68" class="edge">
<title>Node40&#45;&gt;Node3</title>
<path fill="none" stroke="midnightblue" d="M381.52,-806.37C383.62,-788.62 388.46,-747.67 391.3,-723.6"/>
<polygon fill="midnightblue" stroke="midnightblue" points="394.79,-723.93 392.48,-713.59 387.84,-723.11 394.79,-723.93"/>
</g>
<!-- Node41 -->
<g id="node41" class="node">
<title>Node41</title>
<g id="a_node41"><a xlink:href="../../d1/d1f/ShiftRegisterOutRGB_8hpp.html" target="_top" xlink:title=" ">
<polygon fill="white" stroke="black" points="496.5,-392.5 496.5,-411.5 634.5,-411.5 634.5,-392.5 496.5,-392.5"/>
<text text-anchor="middle" x="565.5" y="-399.5" font-family="Helvetica,sans-Serif" font-size="10.00">ShiftRegisterOutRGB.hpp</text>
</a>
</g>
</g>
<!-- Node40&#45;&gt;Node41 -->
<g id="edge70" class="edge">
<title>Node40&#45;&gt;Node41</title>
<path fill="none" stroke="midnightblue" d="M449.53,-808.03C524.61,-799.74 635.72,-785.1 648.5,-770 694.46,-715.67 602.07,-488 573.53,-421.38"/>
<polygon fill="midnightblue" stroke="midnightblue" points="576.58,-419.6 569.4,-411.81 570.15,-422.38 576.58,-419.6"/>
</g>
<!-- Node41&#45;&gt;Node17 -->
<g id="edge71" class="edge">
<title>Node41&#45;&gt;Node17</title>
<path fill="none" stroke="midnightblue" d="M581.08,-392.32C596.5,-383.74 620.31,-370.49 638.21,-360.52"/>
<polygon fill="midnightblue" stroke="midnightblue" points="639.92,-363.58 646.95,-355.65 636.51,-357.46 639.92,-363.58"/>
</g>
<!-- Node41&#45;&gt;Node23 -->
<g id="edge72" class="edge">
<title>Node41&#45;&gt;Node23</title>
<path fill="none" stroke="midnightblue" d="M560.88,-392.08C547.22,-365.72 506.89,-287.88 488.65,-252.66"/>
<polygon fill="midnightblue" stroke="midnightblue" points="491.65,-250.84 483.94,-243.57 485.43,-254.06 491.65,-250.84"/>
</g>
<!-- Node42&#45;&gt;Node1 -->
<g id="edge76" class="edge">
<title>Node42&#45;&gt;Node1</title>
<path fill="none" stroke="midnightblue" d="M531.63,-881.75C533.16,-888.86 533.6,-899.14 532.97,-908.1"/>
<polygon fill="midnightblue" stroke="midnightblue" points="529.49,-907.71 531.67,-918.08 536.43,-908.62 529.49,-907.71"/>
</g>
<!-- Node42&#45;&gt;Node3 -->
<g id="edge75" class="edge">
<title>Node42&#45;&gt;Node3</title>
<path fill="none" stroke="midnightblue" d="M519.35,-862.08C498.05,-835.49 434.79,-756.54 406.93,-721.76"/>
<polygon fill="midnightblue" stroke="midnightblue" points="409.35,-719.18 400.36,-713.57 403.89,-723.56 409.35,-719.18"/>
</g>
</g>
</svg>
