<?xml version="1.0" encoding="UTF-8" standalone="no"?>
<!DOCTYPE svg PUBLIC "-//W3C//DTD SVG 1.1//EN"
 "http://www.w3.org/Graphics/SVG/1.1/DTD/svg11.dtd">
<!-- Generated by graphviz version 2.43.0 (0)
 -->
<!-- Title: ExtendedInputOutput.hpp Pages: 1 -->
<svg width="898pt" height="722pt"
 viewBox="0.00 0.00 897.65 722.00" xmlns="http://www.w3.org/2000/svg" xmlns:xlink="http://www.w3.org/1999/xlink">
<g id="graph0" class="graph" transform="scale(1 1) rotate(0) translate(4 718)">
<title>ExtendedInputOutput.hpp</title>
<polygon fill="white" stroke="transparent" points="-4,4 -4,-718 893.65,-718 893.65,4 -4,4"/>
<!-- Node1 -->
<g id="node1" class="node">
<title>Node1</title>
<g id="a_node1"><a xlink:title=" ">
<polygon fill="#bfbfbf" stroke="black" points="703.65,-694.5 703.65,-713.5 844.65,-713.5 844.65,-694.5 703.65,-694.5"/>
<text text-anchor="middle" x="774.15" y="-701.5" font-family="Helvetica,sans-Serif" font-size="10.00">ExtendedInputOutput.hpp</text>
</a>
</g>
</g>
<!-- Node2 -->
<g id="node2" class="node">
<title>Node2</title>
<g id="a_node2"><a xlink:href="../../d2/d3c/Arduino-Hardware-Types_8hpp.html" target="_top" xlink:title=" ">
<polygon fill="white" stroke="black" points="263.15,-627.5 263.15,-657.5 385.15,-657.5 385.15,-627.5 263.15,-627.5"/>
<text text-anchor="start" x="271.15" y="-645.5" font-family="Helvetica,sans-Serif" font-size="10.00">AH/Hardware/Arduino</text>
<text text-anchor="middle" x="324.15" y="-634.5" font-family="Helvetica,sans-Serif" font-size="10.00">&#45;Hardware&#45;Types.hpp</text>
</a>
</g>
</g>
<!-- Node1&#45;&gt;Node2 -->
<g id="edge1" class="edge">
<title>Node1&#45;&gt;Node2</title>
<path fill="none" stroke="midnightblue" d="M709.67,-694.48C626.33,-683.46 481.69,-664.33 395.24,-652.9"/>
<polygon fill="midnightblue" stroke="midnightblue" points="395.63,-649.42 385.25,-651.58 394.71,-656.36 395.63,-649.42"/>
</g>
<!-- Node13 -->
<g id="node13" class="node">
<title>Node13</title>
<g id="a_node13"><a xlink:href="../../dc/dc7/NamespaceSettings_8hpp.html" target="_top" xlink:title=" ">
<polygon fill="white" stroke="black" points="302.65,-56.5 302.65,-75.5 497.65,-75.5 497.65,-56.5 302.65,-56.5"/>
<text text-anchor="middle" x="400.15" y="-63.5" font-family="Helvetica,sans-Serif" font-size="10.00">AH/Settings/NamespaceSettings.hpp</text>
</a>
</g>
</g>
<!-- Node1&#45;&gt;Node13 -->
<g id="edge40" class="edge">
<title>Node1&#45;&gt;Node13</title>
<path fill="none" stroke="midnightblue" d="M774.15,-694.41C774.15,-673.98 774.15,-620.86 774.15,-576.5 774.15,-576.5 774.15,-576.5 774.15,-177 774.15,-127.66 729.76,-130.82 684.15,-112 628.54,-89.06 562.36,-77.74 507.88,-72.19"/>
<polygon fill="midnightblue" stroke="midnightblue" points="508.14,-68.7 497.84,-71.22 507.46,-75.67 508.14,-68.7"/>
</g>
<!-- Node27 -->
<g id="node27" class="node">
<title>Node27</title>
<g id="a_node27"><a xlink:title=" ">
<polygon fill="white" stroke="#bfbfbf" points="802.65,-633 802.65,-652 889.65,-652 889.65,-633 802.65,-633"/>
<text text-anchor="middle" x="846.15" y="-640" font-family="Helvetica,sans-Serif" font-size="10.00">AH/STL/climits</text>
</a>
</g>
</g>
<!-- Node1&#45;&gt;Node27 -->
<g id="edge39" class="edge">
<title>Node1&#45;&gt;Node27</title>
<path fill="none" stroke="midnightblue" d="M784.46,-694.48C795.8,-685.11 814.22,-669.88 827.98,-658.51"/>
<polygon fill="midnightblue" stroke="midnightblue" points="830.37,-661.08 835.85,-652.01 825.91,-655.68 830.37,-661.08"/>
</g>
<!-- Node3 -->
<g id="node3" class="node">
<title>Node3</title>
<g id="a_node3"><a xlink:href="../../d4/d35/Hardware-Types_8hpp.html" target="_top" xlink:title=" ">
<polygon fill="white" stroke="black" points="412.65,-560.5 412.65,-590.5 543.65,-590.5 543.65,-560.5 412.65,-560.5"/>
<text text-anchor="start" x="420.65" y="-578.5" font-family="Helvetica,sans-Serif" font-size="10.00">AH/Hardware/Hardware</text>
<text text-anchor="middle" x="478.15" y="-567.5" font-family="Helvetica,sans-Serif" font-size="10.00">&#45;Types.hpp</text>
</a>
</g>
</g>
<!-- Node2&#45;&gt;Node3 -->
<g id="edge2" class="edge">
<title>Node2&#45;&gt;Node3</title>
<path fill="none" stroke="midnightblue" d="M357.56,-627.4C380.37,-617.77 410.77,-604.94 435.35,-594.56"/>
<polygon fill="midnightblue" stroke="midnightblue" points="436.94,-597.69 444.8,-590.58 434.22,-591.24 436.94,-597.69"/>
</g>
<!-- Node8 -->
<g id="node8" class="node">
<title>Node8</title>
<g id="a_node8"><a xlink:href="../../d6/ddf/Arduino-Wrapper_8h.html" target="_top" xlink:title=" ">
<polygon fill="white" stroke="black" points="53.15,-168.5 53.15,-187.5 177.15,-187.5 177.15,-168.5 53.15,-168.5"/>
<text text-anchor="middle" x="115.15" y="-175.5" font-family="Helvetica,sans-Serif" font-size="10.00">AH/Arduino&#45;Wrapper.h</text>
</a>
</g>
</g>
<!-- Node2&#45;&gt;Node8 -->
<g id="edge38" class="edge">
<title>Node2&#45;&gt;Node8</title>
<path fill="none" stroke="midnightblue" d="M262.82,-630.52C168.89,-611.93 0.15,-570.78 0.15,-515 0.15,-515 0.15,-515 0.15,-289 0.15,-258.9 -0.44,-246.86 19.15,-224 32.44,-208.48 52.27,-197.96 70.45,-191.02"/>
<polygon fill="midnightblue" stroke="midnightblue" points="71.8,-194.25 80.05,-187.61 69.46,-187.65 71.8,-194.25"/>
</g>
<!-- Node24 -->
<g id="node24" class="node">
<title>Node24</title>
<g id="a_node24"><a xlink:href="../../d0/db1/FunctionTraits_8hpp.html" target="_top" xlink:title=" ">
<polygon fill="white" stroke="black" points="131.65,-566 131.65,-585 284.65,-585 284.65,-566 131.65,-566"/>
<text text-anchor="middle" x="208.15" y="-573" font-family="Helvetica,sans-Serif" font-size="10.00">AH/Types/FunctionTraits.hpp</text>
</a>
</g>
</g>
<!-- Node2&#45;&gt;Node24 -->
<g id="edge34" class="edge">
<title>Node2&#45;&gt;Node24</title>
<path fill="none" stroke="midnightblue" d="M298.98,-627.4C279.16,-616.29 251.73,-600.92 232.21,-589.98"/>
<polygon fill="midnightblue" stroke="midnightblue" points="233.76,-586.84 223.33,-585.01 230.34,-592.95 233.76,-586.84"/>
</g>
<!-- Node4 -->
<g id="node4" class="node">
<title>Node4</title>
<g id="a_node4"><a xlink:href="../../de/d76/Array_8hpp.html" target="_top" xlink:title=" ">
<polygon fill="white" stroke="black" points="484.65,-504.5 484.65,-523.5 619.65,-523.5 619.65,-504.5 484.65,-504.5"/>
<text text-anchor="middle" x="552.15" y="-511.5" font-family="Helvetica,sans-Serif" font-size="10.00">AH/Containers/Array.hpp</text>
</a>
</g>
</g>
<!-- Node3&#45;&gt;Node4 -->
<g id="edge3" class="edge">
<title>Node3&#45;&gt;Node4</title>
<path fill="none" stroke="midnightblue" d="M495.68,-560.4C506.99,-551.31 521.69,-539.49 533.25,-530.19"/>
<polygon fill="midnightblue" stroke="midnightblue" points="535.78,-532.65 541.38,-523.66 531.39,-527.2 535.78,-532.65"/>
</g>
<!-- Node3&#45;&gt;Node13 -->
<g id="edge32" class="edge">
<title>Node3&#45;&gt;Node13</title>
<path fill="none" stroke="midnightblue" d="M543.92,-572.57C620.36,-566.4 736.15,-543.16 736.15,-459 736.15,-459 736.15,-459 736.15,-177 736.15,-123.37 579.58,-91.7 480.2,-77"/>
<polygon fill="midnightblue" stroke="midnightblue" points="480.57,-73.52 470.17,-75.55 479.57,-80.45 480.57,-73.52"/>
</g>
<!-- Node21 -->
<g id="node21" class="node">
<title>Node21</title>
<g id="a_node21"><a xlink:title=" ">
<polygon fill="white" stroke="#bfbfbf" points="219.65,-224.5 219.65,-243.5 272.65,-243.5 272.65,-224.5 219.65,-224.5"/>
<text text-anchor="middle" x="246.15" y="-231.5" font-family="Helvetica,sans-Serif" font-size="10.00">stdint.h</text>
</a>
</g>
</g>
<!-- Node3&#45;&gt;Node21 -->
<g id="edge33" class="edge">
<title>Node3&#45;&gt;Node21</title>
<path fill="none" stroke="midnightblue" d="M412.61,-563.8C355.63,-550.31 282.15,-520.91 282.15,-459 282.15,-459 282.15,-459 282.15,-345 282.15,-310.98 266.4,-273.85 255.74,-252.6"/>
<polygon fill="midnightblue" stroke="midnightblue" points="258.73,-250.77 251,-243.53 252.53,-254.01 258.73,-250.77"/>
</g>
<!-- Node5 -->
<g id="node5" class="node">
<title>Node5</title>
<g id="a_node5"><a xlink:href="../../d1/d93/Error_8hpp.html" target="_top" xlink:title=" ">
<polygon fill="white" stroke="black" points="402.15,-448.5 402.15,-467.5 506.15,-467.5 506.15,-448.5 402.15,-448.5"/>
<text text-anchor="middle" x="454.15" y="-455.5" font-family="Helvetica,sans-Serif" font-size="10.00">AH/Error/Error.hpp</text>
</a>
</g>
</g>
<!-- Node4&#45;&gt;Node5 -->
<g id="edge4" class="edge">
<title>Node4&#45;&gt;Node5</title>
<path fill="none" stroke="midnightblue" d="M536.4,-504.32C520.83,-495.74 496.77,-482.49 478.69,-472.52"/>
<polygon fill="midnightblue" stroke="midnightblue" points="480.3,-469.42 469.85,-467.65 476.92,-475.55 480.3,-469.42"/>
</g>
<!-- Node14 -->
<g id="node14" class="node">
<title>Node14</title>
<g id="a_node14"><a xlink:title=" ">
<polygon fill="white" stroke="#bfbfbf" points="324.65,-112.5 324.65,-131.5 431.65,-131.5 431.65,-112.5 324.65,-112.5"/>
<text text-anchor="middle" x="378.15" y="-119.5" font-family="Helvetica,sans-Serif" font-size="10.00">AH/STL/type_traits</text>
</a>
</g>
</g>
<!-- Node4&#45;&gt;Node14 -->
<g id="edge30" class="edge">
<title>Node4&#45;&gt;Node14</title>
<path fill="none" stroke="midnightblue" d="M610.08,-504.46C634.35,-498.13 661.07,-487.12 679.15,-468 699.82,-446.13 698.15,-433.1 698.15,-403 698.15,-403 698.15,-403 698.15,-289 698.15,-174.69 535.25,-138.99 441.9,-127.92"/>
<polygon fill="midnightblue" stroke="midnightblue" points="442.03,-124.41 431.71,-126.78 441.25,-131.37 442.03,-124.41"/>
</g>
<!-- Node20 -->
<g id="node20" class="node">
<title>Node20</title>
<g id="a_node20"><a xlink:title=" ">
<polygon fill="white" stroke="#bfbfbf" points="576.15,-224.5 576.15,-243.5 632.15,-243.5 632.15,-224.5 576.15,-224.5"/>
<text text-anchor="middle" x="604.15" y="-231.5" font-family="Helvetica,sans-Serif" font-size="10.00">stddef.h</text>
</a>
</g>
</g>
<!-- Node4&#45;&gt;Node20 -->
<g id="edge31" class="edge">
<title>Node4&#45;&gt;Node20</title>
<path fill="none" stroke="midnightblue" d="M554.19,-504.45C557.29,-491.88 563.63,-467.78 571.15,-448 596.99,-379.98 625.2,-371 641.15,-300 643.09,-291.33 644.14,-288.37 641.15,-280 637.21,-269 629.29,-258.77 621.79,-250.85"/>
<polygon fill="midnightblue" stroke="midnightblue" points="624.17,-248.28 614.58,-243.76 619.25,-253.27 624.17,-248.28"/>
</g>
<!-- Node23 -->
<g id="node23" class="node">
<title>Node23</title>
<g id="a_node23"><a xlink:title=" ">
<polygon fill="white" stroke="#bfbfbf" points="580.15,-448.5 580.15,-467.5 670.15,-467.5 670.15,-448.5 580.15,-448.5"/>
<text text-anchor="middle" x="625.15" y="-455.5" font-family="Helvetica,sans-Serif" font-size="10.00">AH/STL/iterator</text>
</a>
</g>
</g>
<!-- Node4&#45;&gt;Node23 -->
<g id="edge29" class="edge">
<title>Node4&#45;&gt;Node23</title>
<path fill="none" stroke="midnightblue" d="M563.87,-504.32C574.98,-496.11 591.89,-483.6 605.13,-473.81"/>
<polygon fill="midnightblue" stroke="midnightblue" points="607.25,-476.59 613.2,-467.83 603.08,-470.97 607.25,-476.59"/>
</g>
<!-- Node6 -->
<g id="node6" class="node">
<title>Node6</title>
<g id="a_node6"><a xlink:href="../../df/dee/Debug_8hpp.html" target="_top" xlink:title=" ">
<polygon fill="white" stroke="black" points="376.65,-392.5 376.65,-411.5 497.65,-411.5 497.65,-392.5 376.65,-392.5"/>
<text text-anchor="middle" x="437.15" y="-399.5" font-family="Helvetica,sans-Serif" font-size="10.00">AH/Debug/Debug.hpp</text>
</a>
</g>
</g>
<!-- Node5&#45;&gt;Node6 -->
<g id="edge5" class="edge">
<title>Node5&#45;&gt;Node6</title>
<path fill="none" stroke="midnightblue" d="M451.34,-448.08C449.06,-440.85 445.77,-430.41 442.94,-421.4"/>
<polygon fill="midnightblue" stroke="midnightblue" points="446.24,-420.24 439.9,-411.75 439.57,-422.34 446.24,-420.24"/>
</g>
<!-- Node7 -->
<g id="node7" class="node">
<title>Node7</title>
<g id="a_node7"><a xlink:href="../../dd/d80/PrintStream_8hpp.html" target="_top" xlink:title=" ">
<polygon fill="white" stroke="black" points="28.65,-224.5 28.65,-243.5 201.65,-243.5 201.65,-224.5 28.65,-224.5"/>
<text text-anchor="middle" x="115.15" y="-231.5" font-family="Helvetica,sans-Serif" font-size="10.00">AH/PrintStream/PrintStream.hpp</text>
</a>
</g>
</g>
<!-- Node6&#45;&gt;Node7 -->
<g id="edge6" class="edge">
<title>Node6&#45;&gt;Node7</title>
<path fill="none" stroke="midnightblue" d="M417.45,-392.4C397.53,-383.61 365.95,-369.38 339.15,-356 265.19,-319.09 179.75,-271.54 139.07,-248.59"/>
<polygon fill="midnightblue" stroke="midnightblue" points="140.61,-245.43 130.18,-243.56 137.16,-251.53 140.61,-245.43"/>
</g>
<!-- Node15 -->
<g id="node15" class="node">
<title>Node15</title>
<g id="a_node15"><a xlink:href="../../d2/dd5/SettingsWrapper_8hpp.html" target="_top" xlink:title=" ">
<polygon fill="white" stroke="black" points="348.15,-336.5 348.15,-355.5 526.15,-355.5 526.15,-336.5 348.15,-336.5"/>
<text text-anchor="middle" x="437.15" y="-343.5" font-family="Helvetica,sans-Serif" font-size="10.00">AH/Settings/SettingsWrapper.hpp</text>
</a>
</g>
</g>
<!-- Node6&#45;&gt;Node15 -->
<g id="edge17" class="edge">
<title>Node6&#45;&gt;Node15</title>
<path fill="none" stroke="midnightblue" d="M431.98,-392.08C430.47,-384.93 430.04,-374.64 430.69,-365.69"/>
<polygon fill="midnightblue" stroke="midnightblue" points="434.16,-366.13 432.01,-355.75 427.22,-365.2 434.16,-366.13"/>
</g>
<!-- Node7&#45;&gt;Node8 -->
<g id="edge7" class="edge">
<title>Node7&#45;&gt;Node8</title>
<path fill="none" stroke="midnightblue" d="M115.15,-224.08C115.15,-217.01 115.15,-206.86 115.15,-197.99"/>
<polygon fill="midnightblue" stroke="midnightblue" points="118.65,-197.75 115.15,-187.75 111.65,-197.75 118.65,-197.75"/>
</g>
<!-- Node7&#45;&gt;Node13 -->
<g id="edge16" class="edge">
<title>Node7&#45;&gt;Node13</title>
<path fill="none" stroke="midnightblue" d="M129.14,-224.25C161.65,-203.98 244.97,-152.45 316.15,-112 335.5,-101 357.72,-89.13 374.45,-80.34"/>
<polygon fill="midnightblue" stroke="midnightblue" points="376.36,-83.29 383.59,-75.55 373.11,-77.09 376.36,-83.29"/>
</g>
<!-- Node9 -->
<g id="node9" class="node">
<title>Node9</title>
<g id="a_node9"><a xlink:href="../../d7/d79/MinMaxFix_8hpp.html" target="_top" xlink:title=" ">
<polygon fill="white" stroke="black" points="47.15,-112.5 47.15,-131.5 183.15,-131.5 183.15,-112.5 47.15,-112.5"/>
<text text-anchor="middle" x="115.15" y="-119.5" font-family="Helvetica,sans-Serif" font-size="10.00">AH/Math/MinMaxFix.hpp</text>
</a>
</g>
</g>
<!-- Node8&#45;&gt;Node9 -->
<g id="edge8" class="edge">
<title>Node8&#45;&gt;Node9</title>
<path fill="none" stroke="midnightblue" d="M115.15,-168.08C115.15,-161.01 115.15,-150.86 115.15,-141.99"/>
<polygon fill="midnightblue" stroke="midnightblue" points="118.65,-141.75 115.15,-131.75 111.65,-141.75 118.65,-141.75"/>
</g>
<!-- Node12 -->
<g id="node12" class="node">
<title>Node12</title>
<g id="a_node12"><a xlink:title=" ">
<polygon fill="white" stroke="#bfbfbf" points="43.65,-0.5 43.65,-19.5 106.65,-19.5 106.65,-0.5 43.65,-0.5"/>
<text text-anchor="middle" x="75.15" y="-7.5" font-family="Helvetica,sans-Serif" font-size="10.00">Arduino.h</text>
</a>
</g>
</g>
<!-- Node8&#45;&gt;Node12 -->
<g id="edge15" class="edge">
<title>Node8&#45;&gt;Node12</title>
<path fill="none" stroke="midnightblue" d="M86.77,-168.49C69.39,-161.65 48.55,-150.13 38.15,-132 21.33,-102.7 26.75,-87.8 38.15,-56 42.09,-45 50,-34.77 57.51,-26.85"/>
<polygon fill="midnightblue" stroke="midnightblue" points="60.04,-29.27 64.71,-19.76 55.13,-24.28 60.04,-29.27"/>
</g>
<!-- Node8&#45;&gt;Node14 -->
<g id="edge14" class="edge">
<title>Node8&#45;&gt;Node14</title>
<path fill="none" stroke="midnightblue" d="M156.82,-168.44C202.89,-158.98 277.14,-143.74 326.78,-133.55"/>
<polygon fill="midnightblue" stroke="midnightblue" points="327.58,-136.96 336.67,-131.52 326.17,-130.1 327.58,-136.96"/>
</g>
<!-- Node10 -->
<g id="node10" class="node">
<title>Node10</title>
<g id="a_node10"><a xlink:href="../../d6/d3b/FixArduinoMacros_8hpp.html" target="_top" xlink:title=" ">
<polygon fill="white" stroke="black" points="47.15,-56.5 47.15,-75.5 217.15,-75.5 217.15,-56.5 47.15,-56.5"/>
<text text-anchor="middle" x="132.15" y="-63.5" font-family="Helvetica,sans-Serif" font-size="10.00">AH/Math/FixArduinoMacros.hpp</text>
</a>
</g>
</g>
<!-- Node9&#45;&gt;Node10 -->
<g id="edge9" class="edge">
<title>Node9&#45;&gt;Node10</title>
<path fill="none" stroke="midnightblue" d="M117.95,-112.08C120.23,-104.85 123.52,-94.41 126.35,-85.4"/>
<polygon fill="midnightblue" stroke="midnightblue" points="129.73,-86.34 129.39,-75.75 123.05,-84.24 129.73,-86.34"/>
</g>
<!-- Node9&#45;&gt;Node13 -->
<g id="edge12" class="edge">
<title>Node9&#45;&gt;Node13</title>
<path fill="none" stroke="midnightblue" d="M160.3,-112.44C210.44,-102.94 291.37,-87.61 345.15,-77.42"/>
<polygon fill="midnightblue" stroke="midnightblue" points="346.02,-80.82 355.2,-75.52 344.72,-73.94 346.02,-80.82"/>
</g>
<!-- Node11 -->
<g id="node11" class="node">
<title>Node11</title>
<g id="a_node11"><a xlink:href="../../d1/d65/Warnings_8hpp.html" target="_top" xlink:title=" ">
<polygon fill="white" stroke="black" points="192.65,-0.5 192.65,-19.5 335.65,-19.5 335.65,-0.5 192.65,-0.5"/>
<text text-anchor="middle" x="264.15" y="-7.5" font-family="Helvetica,sans-Serif" font-size="10.00">AH/Settings/Warnings.hpp</text>
</a>
</g>
</g>
<!-- Node10&#45;&gt;Node11 -->
<g id="edge10" class="edge">
<title>Node10&#45;&gt;Node11</title>
<path fill="none" stroke="midnightblue" d="M153.06,-56.44C174.88,-47.52 209.3,-33.44 234.04,-23.32"/>
<polygon fill="midnightblue" stroke="midnightblue" points="235.4,-26.54 243.33,-19.52 232.75,-20.06 235.4,-26.54"/>
</g>
<!-- Node10&#45;&gt;Node12 -->
<g id="edge11" class="edge">
<title>Node10&#45;&gt;Node12</title>
<path fill="none" stroke="midnightblue" d="M122.99,-56.32C114.64,-48.42 102.11,-36.55 91.97,-26.94"/>
<polygon fill="midnightblue" stroke="midnightblue" points="94.14,-24.17 84.47,-19.83 89.32,-29.25 94.14,-24.17"/>
</g>
<!-- Node13&#45;&gt;Node11 -->
<g id="edge13" class="edge">
<title>Node13&#45;&gt;Node11</title>
<path fill="none" stroke="midnightblue" d="M378.6,-56.44C356.11,-47.52 320.66,-33.44 295.17,-23.32"/>
<polygon fill="midnightblue" stroke="midnightblue" points="296.18,-19.95 285.59,-19.52 293.6,-26.46 296.18,-19.95"/>
</g>
<!-- Node15&#45;&gt;Node6 -->
<g id="edge28" class="edge">
<title>Node15&#45;&gt;Node6</title>
<path fill="none" stroke="midnightblue" d="M442.28,-355.75C443.8,-362.86 444.25,-373.14 443.62,-382.1"/>
<polygon fill="midnightblue" stroke="midnightblue" points="440.14,-381.71 442.31,-392.08 447.08,-382.62 440.14,-381.71"/>
</g>
<!-- Node15&#45;&gt;Node13 -->
<g id="edge18" class="edge">
<title>Node15&#45;&gt;Node13</title>
<path fill="none" stroke="midnightblue" d="M436.12,-336.45C434.96,-322.54 434.93,-295.05 450.15,-280 513.04,-217.8 683.3,-301.77 641.15,-224 597.93,-144.28 494.76,-98.66 438.43,-78.87"/>
<polygon fill="midnightblue" stroke="midnightblue" points="439.41,-75.51 428.82,-75.59 437.15,-82.13 439.41,-75.51"/>
</g>
<!-- Node16 -->
<g id="node16" class="node">
<title>Node16</title>
<g id="a_node16"><a xlink:href="../../db/d02/Settings_8hpp.html" target="_top" xlink:title="All user settings and debugging options can be changed here.">
<polygon fill="white" stroke="black" points="324.65,-280.5 324.65,-299.5 401.65,-299.5 401.65,-280.5 324.65,-280.5"/>
<text text-anchor="middle" x="363.15" y="-287.5" font-family="Helvetica,sans-Serif" font-size="10.00">Settings.hpp</text>
</a>
</g>
</g>
<!-- Node15&#45;&gt;Node16 -->
<g id="edge19" class="edge">
<title>Node15&#45;&gt;Node16</title>
<path fill="none" stroke="midnightblue" d="M425.26,-336.32C414,-328.11 396.86,-315.6 383.44,-305.81"/>
<polygon fill="midnightblue" stroke="midnightblue" points="385.39,-302.9 375.25,-299.83 381.27,-308.56 385.39,-302.9"/>
</g>
<!-- Node22 -->
<g id="node22" class="node">
<title>Node22</title>
<g id="a_node22"><a xlink:href="../../d9/d98/TeensyUSBTypes_8hpp.html" target="_top" xlink:title=" ">
<polygon fill="white" stroke="black" points="458.65,-280.5 458.65,-299.5 631.65,-299.5 631.65,-280.5 458.65,-280.5"/>
<text text-anchor="middle" x="545.15" y="-287.5" font-family="Helvetica,sans-Serif" font-size="10.00">AH/Teensy/TeensyUSBTypes.hpp</text>
</a>
</g>
</g>
<!-- Node15&#45;&gt;Node22 -->
<g id="edge27" class="edge">
<title>Node15&#45;&gt;Node22</title>
<path fill="none" stroke="midnightblue" d="M454.5,-336.32C471.82,-327.66 498.66,-314.24 518.65,-304.25"/>
<polygon fill="midnightblue" stroke="midnightblue" points="520.46,-307.26 527.84,-299.65 517.33,-301 520.46,-307.26"/>
</g>
<!-- Node17 -->
<g id="node17" class="node">
<title>Node17</title>
<g id="a_node17"><a xlink:href="../../dc/d50/Frequency_8hpp.html" target="_top" xlink:title=" ">
<polygon fill="white" stroke="black" points="405.15,-168.5 405.15,-187.5 539.15,-187.5 539.15,-168.5 405.15,-168.5"/>
<text text-anchor="middle" x="472.15" y="-175.5" font-family="Helvetica,sans-Serif" font-size="10.00">AH/Types/Frequency.hpp</text>
</a>
</g>
</g>
<!-- Node16&#45;&gt;Node17 -->
<g id="edge20" class="edge">
<title>Node16&#45;&gt;Node17</title>
<path fill="none" stroke="midnightblue" d="M398.35,-280.37C418.43,-273.67 442.44,-262.35 457.15,-244 467.66,-230.88 471.07,-211.73 472.06,-197.62"/>
<polygon fill="midnightblue" stroke="midnightblue" points="475.56,-197.71 472.42,-187.59 468.56,-197.46 475.56,-197.71"/>
</g>
<!-- Node18 -->
<g id="node18" class="node">
<title>Node18</title>
<g id="a_node18"><a xlink:href="../../d7/d7c/ADCConfig_8hpp.html" target="_top" xlink:title="This file contains the platform&#45;specific ADC resolutions.">
<polygon fill="white" stroke="black" points="290.65,-224.5 290.65,-243.5 447.65,-243.5 447.65,-224.5 290.65,-224.5"/>
<text text-anchor="middle" x="369.15" y="-231.5" font-family="Helvetica,sans-Serif" font-size="10.00">AH/Hardware/ADCConfig.hpp</text>
</a>
</g>
</g>
<!-- Node16&#45;&gt;Node18 -->
<g id="edge22" class="edge">
<title>Node16&#45;&gt;Node18</title>
<path fill="none" stroke="midnightblue" d="M364.14,-280.08C364.93,-272.93 366.08,-262.64 367.07,-253.69"/>
<polygon fill="midnightblue" stroke="midnightblue" points="370.55,-254.08 368.17,-243.75 363.59,-253.3 370.55,-254.08"/>
</g>
<!-- Node19 -->
<g id="node19" class="node">
<title>Node19</title>
<g id="a_node19"><a xlink:title=" ">
<polygon fill="white" stroke="#bfbfbf" points="504.65,-224.5 504.65,-243.5 557.65,-243.5 557.65,-224.5 504.65,-224.5"/>
<text text-anchor="middle" x="531.15" y="-231.5" font-family="Helvetica,sans-Serif" font-size="10.00">limits.h</text>
</a>
</g>
</g>
<!-- Node16&#45;&gt;Node19 -->
<g id="edge24" class="edge">
<title>Node16&#45;&gt;Node19</title>
<path fill="none" stroke="midnightblue" d="M389.77,-280.44C418.15,-271.32 463.28,-256.81 494.9,-246.65"/>
<polygon fill="midnightblue" stroke="midnightblue" points="496.2,-249.91 504.65,-243.52 494.06,-243.24 496.2,-249.91"/>
</g>
<!-- Node16&#45;&gt;Node20 -->
<g id="edge25" class="edge">
<title>Node16&#45;&gt;Node20</title>
<path fill="none" stroke="midnightblue" d="M401.93,-280.7C440.92,-272.31 503.02,-258.78 565.8,-244.28"/>
<polygon fill="midnightblue" stroke="midnightblue" points="566.93,-247.61 575.88,-241.94 565.35,-240.79 566.93,-247.61"/>
</g>
<!-- Node16&#45;&gt;Node21 -->
<g id="edge26" class="edge">
<title>Node16&#45;&gt;Node21</title>
<path fill="none" stroke="midnightblue" d="M344.61,-280.44C325.52,-271.64 295.57,-257.81 273.71,-247.72"/>
<polygon fill="midnightblue" stroke="midnightblue" points="275.14,-244.53 264.6,-243.52 272.21,-250.88 275.14,-244.53"/>
</g>
<!-- Node17&#45;&gt;Node13 -->
<g id="edge21" class="edge">
<title>Node17&#45;&gt;Node13</title>
<path fill="none" stroke="midnightblue" d="M468.89,-168.15C463.93,-155.22 453.7,-130.68 441.15,-112 434.08,-101.5 424.66,-90.98 416.63,-82.75"/>
<polygon fill="midnightblue" stroke="midnightblue" points="419.03,-80.21 409.47,-75.64 414.1,-85.17 419.03,-80.21"/>
</g>
<!-- Node18&#45;&gt;Node8 -->
<g id="edge23" class="edge">
<title>Node18&#45;&gt;Node8</title>
<path fill="none" stroke="midnightblue" d="M328.9,-224.44C284.5,-215 212.99,-199.8 165.06,-189.61"/>
<polygon fill="midnightblue" stroke="midnightblue" points="165.71,-186.17 155.2,-187.52 164.26,-193.02 165.71,-186.17"/>
</g>
<!-- Node24&#45;&gt;Node13 -->
<g id="edge37" class="edge">
<title>Node24&#45;&gt;Node13</title>
<path fill="none" stroke="midnightblue" d="M213.47,-565.66C220.91,-552.14 232.68,-525.64 225.15,-504 174.35,-358.09 -13.05,-375.1 19.15,-224 24.83,-197.34 23.21,-185.45 44.15,-168 96.15,-124.66 126.92,-150.11 192.15,-132 253.44,-114.99 323.94,-92.28 365.12,-78.7"/>
<polygon fill="midnightblue" stroke="midnightblue" points="366.29,-82 374.69,-75.54 364.09,-75.36 366.29,-82"/>
</g>
<!-- Node25 -->
<g id="node25" class="node">
<title>Node25</title>
<g id="a_node25"><a xlink:title=" ">
<polygon fill="white" stroke="#bfbfbf" points="126.15,-504.5 126.15,-523.5 216.15,-523.5 216.15,-504.5 126.15,-504.5"/>
<text text-anchor="middle" x="171.15" y="-511.5" font-family="Helvetica,sans-Serif" font-size="10.00">AH/STL/cstddef</text>
</a>
</g>
</g>
<!-- Node24&#45;&gt;Node25 -->
<g id="edge35" class="edge">
<title>Node24&#45;&gt;Node25</title>
<path fill="none" stroke="midnightblue" d="M202.84,-565.98C197.4,-557.23 188.79,-543.37 181.91,-532.31"/>
<polygon fill="midnightblue" stroke="midnightblue" points="184.69,-530.15 176.44,-523.51 178.75,-533.85 184.69,-530.15"/>
</g>
<!-- Node26 -->
<g id="node26" class="node">
<title>Node26</title>
<g id="a_node26"><a xlink:title=" ">
<polygon fill="white" stroke="#bfbfbf" points="28.65,-504.5 28.65,-523.5 107.65,-523.5 107.65,-504.5 28.65,-504.5"/>
<text text-anchor="middle" x="68.15" y="-511.5" font-family="Helvetica,sans-Serif" font-size="10.00">AH/STL/tuple</text>
</a>
</g>
</g>
<!-- Node24&#45;&gt;Node26 -->
<g id="edge36" class="edge">
<title>Node24&#45;&gt;Node26</title>
<path fill="none" stroke="midnightblue" d="M188.09,-565.98C164.38,-555.9 124.74,-539.05 97.56,-527.5"/>
<polygon fill="midnightblue" stroke="midnightblue" points="98.74,-524.2 88.17,-523.51 96,-530.64 98.74,-524.2"/>
</g>
</g>
</svg>
